%TF.GenerationSoftware,KiCad,Pcbnew,9.0.9-9.0.9~ubuntu24.04.1*%
%TF.CreationDate,2026-10-08T12:53:06-07:00*%
%TF.ProjectId,VELOX_carrier_B,56454c4f-585f-4636-9172-726965725f42,rev?*%
%TF.SameCoordinates,Original*%
%TF.FileFunction,Soldermask,Top*%
%TF.FilePolarity,Negative*%
%FSLAX46Y46*%
G04 Gerber Fmt 4.6, Leading zero omitted, Abs format (unit mm)*
G04 Created by KiCad (PCBNEW 9.0.9-9.0.9~ubuntu24.04.1) date 2026-10-08 12:53:06*
%MOMM*%
%LPD*%
G01*
G04 APERTURE LIST*
G04 APERTURE END LIST*
G36*
X80290285Y-52293060D02*
G01*
X80471397Y-52368079D01*
X80634393Y-52476990D01*
X80773010Y-52615607D01*
X80881921Y-52778603D01*
X80956940Y-52959715D01*
X80995185Y-53151983D01*
X80995185Y-53348017D01*
X80956940Y-53540285D01*
X80881921Y-53721397D01*
X80773010Y-53884393D01*
X80634393Y-54023010D01*
X80471397Y-54131921D01*
X80290285Y-54206940D01*
X80098017Y-54245185D01*
X79901983Y-54245185D01*
X79709715Y-54206940D01*
X79528603Y-54131921D01*
X79365607Y-54023010D01*
X79226990Y-53884393D01*
X79118079Y-53721397D01*
X79043060Y-53540285D01*
X79004815Y-53348017D01*
X79004815Y-53151983D01*
X79043060Y-52959715D01*
X79118079Y-52778603D01*
X79226990Y-52615607D01*
X79365607Y-52476990D01*
X79528603Y-52368079D01*
X79709715Y-52293060D01*
X79901983Y-52254815D01*
X80098017Y-52254815D01*
X80290285Y-52293060D01*
G37*
G36*
X8890476Y-51991866D02*
G01*
X9014819Y-52063656D01*
X9116344Y-52165181D01*
X9188134Y-52289524D01*
X9225295Y-52428211D01*
X9230000Y-52500000D01*
X9230000Y-53100000D01*
X9225295Y-53171789D01*
X9188134Y-53310476D01*
X9116344Y-53434819D01*
X9014819Y-53536344D01*
X8890476Y-53608134D01*
X8751789Y-53645295D01*
X8608211Y-53645295D01*
X8469524Y-53608134D01*
X8345181Y-53536344D01*
X8243656Y-53434819D01*
X8171866Y-53310476D01*
X8134705Y-53171789D01*
X8130000Y-53100000D01*
X8130000Y-52500000D01*
X8134705Y-52428211D01*
X8171866Y-52289524D01*
X8243656Y-52165181D01*
X8345181Y-52063656D01*
X8469524Y-51991866D01*
X8608211Y-51954705D01*
X8751789Y-51954705D01*
X8890476Y-51991866D01*
G37*
G36*
X17530476Y-51991866D02*
G01*
X17654819Y-52063656D01*
X17756344Y-52165181D01*
X17828134Y-52289524D01*
X17865295Y-52428211D01*
X17870000Y-52500000D01*
X17870000Y-53100000D01*
X17865295Y-53171789D01*
X17828134Y-53310476D01*
X17756344Y-53434819D01*
X17654819Y-53536344D01*
X17530476Y-53608134D01*
X17391789Y-53645295D01*
X17248211Y-53645295D01*
X17109524Y-53608134D01*
X16985181Y-53536344D01*
X16883656Y-53434819D01*
X16811866Y-53310476D01*
X16774705Y-53171789D01*
X16770000Y-53100000D01*
X16770000Y-52500000D01*
X16774705Y-52428211D01*
X16811866Y-52289524D01*
X16883656Y-52165181D01*
X16985181Y-52063656D01*
X17109524Y-51991866D01*
X17248211Y-51954705D01*
X17391789Y-51954705D01*
X17530476Y-51991866D01*
G37*
G36*
X24854047Y-51100805D02*
G01*
X24905408Y-51106764D01*
X24922954Y-51114511D01*
X24945671Y-51119030D01*
X24969991Y-51135280D01*
X24990793Y-51144465D01*
X25005000Y-51158672D01*
X25026777Y-51173223D01*
X25041327Y-51194999D01*
X25055534Y-51209206D01*
X25064718Y-51230006D01*
X25080970Y-51254329D01*
X25085489Y-51277048D01*
X25093235Y-51294591D01*
X25099192Y-51345940D01*
X25100000Y-51350000D01*
X25100000Y-52650000D01*
X25099192Y-52654059D01*
X25093235Y-52705408D01*
X25085489Y-52722950D01*
X25080970Y-52745671D01*
X25064716Y-52769995D01*
X25055534Y-52790793D01*
X25041329Y-52804997D01*
X25026777Y-52826777D01*
X25004997Y-52841329D01*
X24990793Y-52855534D01*
X24969995Y-52864716D01*
X24945671Y-52880970D01*
X24922950Y-52885489D01*
X24905408Y-52893235D01*
X24854061Y-52899192D01*
X24850000Y-52900000D01*
X24025000Y-52900000D01*
X24020941Y-52899192D01*
X23969591Y-52893235D01*
X23952048Y-52885489D01*
X23929329Y-52880970D01*
X23905006Y-52864718D01*
X23884206Y-52855534D01*
X23869999Y-52841327D01*
X23848223Y-52826777D01*
X23833672Y-52805000D01*
X23819465Y-52790793D01*
X23810280Y-52769991D01*
X23794030Y-52745671D01*
X23789511Y-52722954D01*
X23781764Y-52705408D01*
X23775805Y-52654049D01*
X23775000Y-52650000D01*
X23775000Y-51350000D01*
X23775804Y-51345953D01*
X23781764Y-51294591D01*
X23789511Y-51277043D01*
X23794030Y-51254329D01*
X23810278Y-51230010D01*
X23819465Y-51209206D01*
X23833674Y-51194996D01*
X23848223Y-51173223D01*
X23869996Y-51158674D01*
X23884206Y-51144465D01*
X23905010Y-51135278D01*
X23929329Y-51119030D01*
X23952043Y-51114511D01*
X23969591Y-51106764D01*
X24020952Y-51100805D01*
X24025000Y-51100000D01*
X24850000Y-51100000D01*
X24854047Y-51100805D01*
G37*
G36*
X27979047Y-51100805D02*
G01*
X28030408Y-51106764D01*
X28047954Y-51114511D01*
X28070671Y-51119030D01*
X28094991Y-51135280D01*
X28115793Y-51144465D01*
X28130000Y-51158672D01*
X28151777Y-51173223D01*
X28166327Y-51194999D01*
X28180534Y-51209206D01*
X28189718Y-51230006D01*
X28205970Y-51254329D01*
X28210489Y-51277048D01*
X28218235Y-51294591D01*
X28224192Y-51345940D01*
X28225000Y-51350000D01*
X28225000Y-52650000D01*
X28224192Y-52654059D01*
X28218235Y-52705408D01*
X28210489Y-52722950D01*
X28205970Y-52745671D01*
X28189716Y-52769995D01*
X28180534Y-52790793D01*
X28166329Y-52804997D01*
X28151777Y-52826777D01*
X28129997Y-52841329D01*
X28115793Y-52855534D01*
X28094995Y-52864716D01*
X28070671Y-52880970D01*
X28047950Y-52885489D01*
X28030408Y-52893235D01*
X27979061Y-52899192D01*
X27975000Y-52900000D01*
X27150000Y-52900000D01*
X27145941Y-52899192D01*
X27094591Y-52893235D01*
X27077048Y-52885489D01*
X27054329Y-52880970D01*
X27030006Y-52864718D01*
X27009206Y-52855534D01*
X26994999Y-52841327D01*
X26973223Y-52826777D01*
X26958672Y-52805000D01*
X26944465Y-52790793D01*
X26935280Y-52769991D01*
X26919030Y-52745671D01*
X26914511Y-52722954D01*
X26906764Y-52705408D01*
X26900805Y-52654049D01*
X26900000Y-52650000D01*
X26900000Y-51350000D01*
X26900804Y-51345953D01*
X26906764Y-51294591D01*
X26914511Y-51277043D01*
X26919030Y-51254329D01*
X26935278Y-51230010D01*
X26944465Y-51209206D01*
X26958674Y-51194996D01*
X26973223Y-51173223D01*
X26994996Y-51158674D01*
X27009206Y-51144465D01*
X27030010Y-51135278D01*
X27054329Y-51119030D01*
X27077043Y-51114511D01*
X27094591Y-51106764D01*
X27145952Y-51100805D01*
X27150000Y-51100000D01*
X27975000Y-51100000D01*
X27979047Y-51100805D01*
G37*
G36*
X4373513Y-49444208D02*
G01*
X4612293Y-49521793D01*
X4835998Y-49635776D01*
X5039117Y-49783350D01*
X5216650Y-49960883D01*
X5364224Y-50164002D01*
X5478207Y-50387707D01*
X5555792Y-50626487D01*
X5595068Y-50874465D01*
X5595068Y-51125535D01*
X5555792Y-51373513D01*
X5478207Y-51612293D01*
X5364224Y-51835998D01*
X5216650Y-52039117D01*
X5039117Y-52216650D01*
X4835998Y-52364224D01*
X4612293Y-52478207D01*
X4373513Y-52555792D01*
X4125535Y-52595068D01*
X3874465Y-52595068D01*
X3626487Y-52555792D01*
X3387707Y-52478207D01*
X3164002Y-52364224D01*
X2960883Y-52216650D01*
X2783350Y-52039117D01*
X2635776Y-51835998D01*
X2521793Y-51612293D01*
X2444208Y-51373513D01*
X2404932Y-51125535D01*
X2404932Y-50874465D01*
X2444208Y-50626487D01*
X2521793Y-50387707D01*
X2635776Y-50164002D01*
X2783350Y-49960883D01*
X2960883Y-49783350D01*
X3164002Y-49635776D01*
X3387707Y-49521793D01*
X3626487Y-49444208D01*
X3874465Y-49404932D01*
X4125535Y-49404932D01*
X4373513Y-49444208D01*
G37*
G36*
X86373513Y-49444208D02*
G01*
X86612293Y-49521793D01*
X86835998Y-49635776D01*
X87039117Y-49783350D01*
X87216650Y-49960883D01*
X87364224Y-50164002D01*
X87478207Y-50387707D01*
X87555792Y-50626487D01*
X87595068Y-50874465D01*
X87595068Y-51125535D01*
X87555792Y-51373513D01*
X87478207Y-51612293D01*
X87364224Y-51835998D01*
X87216650Y-52039117D01*
X87039117Y-52216650D01*
X86835998Y-52364224D01*
X86612293Y-52478207D01*
X86373513Y-52555792D01*
X86125535Y-52595068D01*
X85874465Y-52595068D01*
X85626487Y-52555792D01*
X85387707Y-52478207D01*
X85164002Y-52364224D01*
X84960883Y-52216650D01*
X84783350Y-52039117D01*
X84635776Y-51835998D01*
X84521793Y-51612293D01*
X84444208Y-51373513D01*
X84404932Y-51125535D01*
X84404932Y-50874465D01*
X84444208Y-50626487D01*
X84521793Y-50387707D01*
X84635776Y-50164002D01*
X84783350Y-49960883D01*
X84960883Y-49783350D01*
X85164002Y-49635776D01*
X85387707Y-49521793D01*
X85626487Y-49444208D01*
X85874465Y-49404932D01*
X86125535Y-49404932D01*
X86373513Y-49444208D01*
G37*
G36*
X63800000Y-50800000D02*
G01*
X62200000Y-50800000D01*
X62200000Y-49200000D01*
X63800000Y-49200000D01*
X63800000Y-50800000D01*
G37*
G36*
X65232228Y-49234448D02*
G01*
X65377117Y-49294463D01*
X65507515Y-49381592D01*
X65618408Y-49492485D01*
X65705537Y-49622883D01*
X65765552Y-49767772D01*
X65796148Y-49921586D01*
X65796148Y-50078414D01*
X65765552Y-50232228D01*
X65705537Y-50377117D01*
X65618408Y-50507515D01*
X65507515Y-50618408D01*
X65377117Y-50705537D01*
X65232228Y-50765552D01*
X65078414Y-50796148D01*
X64921586Y-50796148D01*
X64767772Y-50765552D01*
X64622883Y-50705537D01*
X64492485Y-50618408D01*
X64381592Y-50507515D01*
X64294463Y-50377117D01*
X64234448Y-50232228D01*
X64203852Y-50078414D01*
X64203852Y-49921586D01*
X64234448Y-49767772D01*
X64294463Y-49622883D01*
X64381592Y-49492485D01*
X64492485Y-49381592D01*
X64622883Y-49294463D01*
X64767772Y-49234448D01*
X64921586Y-49203852D01*
X65078414Y-49203852D01*
X65232228Y-49234448D01*
G37*
G36*
X21329686Y-49637370D02*
G01*
X21382405Y-49672595D01*
X21417630Y-49725314D01*
X21430000Y-49787500D01*
X21430000Y-50112500D01*
X21417630Y-50174686D01*
X21382405Y-50227405D01*
X21329686Y-50262630D01*
X21267500Y-50275000D01*
X20032500Y-50275000D01*
X19970314Y-50262630D01*
X19917595Y-50227405D01*
X19882370Y-50174686D01*
X19870000Y-50112500D01*
X19870000Y-49787500D01*
X19882370Y-49725314D01*
X19917595Y-49672595D01*
X19970314Y-49637370D01*
X20032500Y-49625000D01*
X21267500Y-49625000D01*
X21329686Y-49637370D01*
G37*
G36*
X24029686Y-49637370D02*
G01*
X24082405Y-49672595D01*
X24117630Y-49725314D01*
X24130000Y-49787500D01*
X24130000Y-50112500D01*
X24117630Y-50174686D01*
X24082405Y-50227405D01*
X24029686Y-50262630D01*
X23967500Y-50275000D01*
X22732500Y-50275000D01*
X22670314Y-50262630D01*
X22617595Y-50227405D01*
X22582370Y-50174686D01*
X22570000Y-50112500D01*
X22570000Y-49787500D01*
X22582370Y-49725314D01*
X22617595Y-49672595D01*
X22670314Y-49637370D01*
X22732500Y-49625000D01*
X23967500Y-49625000D01*
X24029686Y-49637370D01*
G37*
G36*
X77004047Y-48100805D02*
G01*
X77055408Y-48106764D01*
X77072954Y-48114511D01*
X77095671Y-48119030D01*
X77119991Y-48135280D01*
X77140793Y-48144465D01*
X77155000Y-48158672D01*
X77176777Y-48173223D01*
X77191327Y-48194999D01*
X77205534Y-48209206D01*
X77214718Y-48230006D01*
X77230970Y-48254329D01*
X77235489Y-48277048D01*
X77243235Y-48294591D01*
X77249192Y-48345940D01*
X77250000Y-48350000D01*
X77250000Y-49650000D01*
X77249192Y-49654059D01*
X77243235Y-49705408D01*
X77235489Y-49722950D01*
X77230970Y-49745671D01*
X77214716Y-49769995D01*
X77205534Y-49790793D01*
X77191329Y-49804997D01*
X77176777Y-49826777D01*
X77154997Y-49841329D01*
X77140793Y-49855534D01*
X77119995Y-49864716D01*
X77095671Y-49880970D01*
X77072950Y-49885489D01*
X77055408Y-49893235D01*
X77004061Y-49899192D01*
X77000000Y-49900000D01*
X75000000Y-49900000D01*
X74995941Y-49899192D01*
X74944591Y-49893235D01*
X74927048Y-49885489D01*
X74904329Y-49880970D01*
X74880006Y-49864718D01*
X74859206Y-49855534D01*
X74844999Y-49841327D01*
X74823223Y-49826777D01*
X74808672Y-49805000D01*
X74794465Y-49790793D01*
X74785280Y-49769991D01*
X74769030Y-49745671D01*
X74764511Y-49722954D01*
X74756764Y-49705408D01*
X74750805Y-49654049D01*
X74750000Y-49650000D01*
X74750000Y-48350000D01*
X74750804Y-48345953D01*
X74756764Y-48294591D01*
X74764511Y-48277043D01*
X74769030Y-48254329D01*
X74785278Y-48230010D01*
X74794465Y-48209206D01*
X74808674Y-48194996D01*
X74823223Y-48173223D01*
X74844996Y-48158674D01*
X74859206Y-48144465D01*
X74880010Y-48135278D01*
X74904329Y-48119030D01*
X74927043Y-48114511D01*
X74944591Y-48106764D01*
X74995952Y-48100805D01*
X75000000Y-48100000D01*
X77000000Y-48100000D01*
X77004047Y-48100805D01*
G37*
G36*
X81004047Y-48100805D02*
G01*
X81055408Y-48106764D01*
X81072954Y-48114511D01*
X81095671Y-48119030D01*
X81119991Y-48135280D01*
X81140793Y-48144465D01*
X81155000Y-48158672D01*
X81176777Y-48173223D01*
X81191327Y-48194999D01*
X81205534Y-48209206D01*
X81214718Y-48230006D01*
X81230970Y-48254329D01*
X81235489Y-48277048D01*
X81243235Y-48294591D01*
X81249192Y-48345940D01*
X81250000Y-48350000D01*
X81250000Y-49650000D01*
X81249192Y-49654059D01*
X81243235Y-49705408D01*
X81235489Y-49722950D01*
X81230970Y-49745671D01*
X81214716Y-49769995D01*
X81205534Y-49790793D01*
X81191329Y-49804997D01*
X81176777Y-49826777D01*
X81154997Y-49841329D01*
X81140793Y-49855534D01*
X81119995Y-49864716D01*
X81095671Y-49880970D01*
X81072950Y-49885489D01*
X81055408Y-49893235D01*
X81004061Y-49899192D01*
X81000000Y-49900000D01*
X79000000Y-49900000D01*
X78995941Y-49899192D01*
X78944591Y-49893235D01*
X78927048Y-49885489D01*
X78904329Y-49880970D01*
X78880006Y-49864718D01*
X78859206Y-49855534D01*
X78844999Y-49841327D01*
X78823223Y-49826777D01*
X78808672Y-49805000D01*
X78794465Y-49790793D01*
X78785280Y-49769991D01*
X78769030Y-49745671D01*
X78764511Y-49722954D01*
X78756764Y-49705408D01*
X78750805Y-49654049D01*
X78750000Y-49650000D01*
X78750000Y-48350000D01*
X78750804Y-48345953D01*
X78756764Y-48294591D01*
X78764511Y-48277043D01*
X78769030Y-48254329D01*
X78785278Y-48230010D01*
X78794465Y-48209206D01*
X78808674Y-48194996D01*
X78823223Y-48173223D01*
X78844996Y-48158674D01*
X78859206Y-48144465D01*
X78880010Y-48135278D01*
X78904329Y-48119030D01*
X78927043Y-48114511D01*
X78944591Y-48106764D01*
X78995952Y-48100805D01*
X79000000Y-48100000D01*
X81000000Y-48100000D01*
X81004047Y-48100805D01*
G37*
G36*
X8890476Y-48191866D02*
G01*
X9014819Y-48263656D01*
X9116344Y-48365181D01*
X9188134Y-48489524D01*
X9225295Y-48628211D01*
X9230000Y-48700000D01*
X9230000Y-49300000D01*
X9225295Y-49371789D01*
X9188134Y-49510476D01*
X9116344Y-49634819D01*
X9014819Y-49736344D01*
X8890476Y-49808134D01*
X8751789Y-49845295D01*
X8608211Y-49845295D01*
X8469524Y-49808134D01*
X8345181Y-49736344D01*
X8243656Y-49634819D01*
X8171866Y-49510476D01*
X8134705Y-49371789D01*
X8130000Y-49300000D01*
X8130000Y-48700000D01*
X8134705Y-48628211D01*
X8171866Y-48489524D01*
X8243656Y-48365181D01*
X8345181Y-48263656D01*
X8469524Y-48191866D01*
X8608211Y-48154705D01*
X8751789Y-48154705D01*
X8890476Y-48191866D01*
G37*
G36*
X17530476Y-48191866D02*
G01*
X17654819Y-48263656D01*
X17756344Y-48365181D01*
X17828134Y-48489524D01*
X17865295Y-48628211D01*
X17870000Y-48700000D01*
X17870000Y-49300000D01*
X17865295Y-49371789D01*
X17828134Y-49510476D01*
X17756344Y-49634819D01*
X17654819Y-49736344D01*
X17530476Y-49808134D01*
X17391789Y-49845295D01*
X17248211Y-49845295D01*
X17109524Y-49808134D01*
X16985181Y-49736344D01*
X16883656Y-49634819D01*
X16811866Y-49510476D01*
X16774705Y-49371789D01*
X16770000Y-49300000D01*
X16770000Y-48700000D01*
X16774705Y-48628211D01*
X16811866Y-48489524D01*
X16883656Y-48365181D01*
X16985181Y-48263656D01*
X17109524Y-48191866D01*
X17248211Y-48154705D01*
X17391789Y-48154705D01*
X17530476Y-48191866D01*
G37*
G36*
X10526537Y-48335224D02*
G01*
X10591421Y-48378579D01*
X10634776Y-48443463D01*
X10650000Y-48520000D01*
X10650000Y-49320000D01*
X10634776Y-49396537D01*
X10591421Y-49461421D01*
X10526537Y-49504776D01*
X10450000Y-49520000D01*
X10050000Y-49520000D01*
X9973463Y-49504776D01*
X9908579Y-49461421D01*
X9865224Y-49396537D01*
X9850000Y-49320000D01*
X9850000Y-48520000D01*
X9865224Y-48443463D01*
X9908579Y-48378579D01*
X9973463Y-48335224D01*
X10050000Y-48320000D01*
X10450000Y-48320000D01*
X10526537Y-48335224D01*
G37*
G36*
X11742710Y-48334463D02*
G01*
X11804350Y-48375650D01*
X11845537Y-48437290D01*
X11860000Y-48510000D01*
X11860000Y-49330000D01*
X11845537Y-49402710D01*
X11804350Y-49464350D01*
X11742710Y-49505537D01*
X11670000Y-49520000D01*
X11290000Y-49520000D01*
X11217290Y-49505537D01*
X11155650Y-49464350D01*
X11114463Y-49402710D01*
X11100000Y-49330000D01*
X11100000Y-48510000D01*
X11114463Y-48437290D01*
X11155650Y-48375650D01*
X11217290Y-48334463D01*
X11290000Y-48320000D01*
X11670000Y-48320000D01*
X11742710Y-48334463D01*
G37*
G36*
X12741970Y-48333321D02*
G01*
X12798744Y-48371256D01*
X12836679Y-48428030D01*
X12850000Y-48495000D01*
X12850000Y-49345000D01*
X12836679Y-49411970D01*
X12798744Y-49468744D01*
X12741970Y-49506679D01*
X12675000Y-49520000D01*
X12325000Y-49520000D01*
X12258030Y-49506679D01*
X12201256Y-49468744D01*
X12163321Y-49411970D01*
X12150000Y-49345000D01*
X12150000Y-48495000D01*
X12163321Y-48428030D01*
X12201256Y-48371256D01*
X12258030Y-48333321D01*
X12325000Y-48320000D01*
X12675000Y-48320000D01*
X12741970Y-48333321D01*
G37*
G36*
X13741970Y-48333321D02*
G01*
X13798744Y-48371256D01*
X13836679Y-48428030D01*
X13850000Y-48495000D01*
X13850000Y-49345000D01*
X13836679Y-49411970D01*
X13798744Y-49468744D01*
X13741970Y-49506679D01*
X13675000Y-49520000D01*
X13325000Y-49520000D01*
X13258030Y-49506679D01*
X13201256Y-49468744D01*
X13163321Y-49411970D01*
X13150000Y-49345000D01*
X13150000Y-48495000D01*
X13163321Y-48428030D01*
X13201256Y-48371256D01*
X13258030Y-48333321D01*
X13325000Y-48320000D01*
X13675000Y-48320000D01*
X13741970Y-48333321D01*
G37*
G36*
X14782710Y-48334463D02*
G01*
X14844350Y-48375650D01*
X14885537Y-48437290D01*
X14900000Y-48510000D01*
X14900000Y-49330000D01*
X14885537Y-49402710D01*
X14844350Y-49464350D01*
X14782710Y-49505537D01*
X14710000Y-49520000D01*
X14330000Y-49520000D01*
X14257290Y-49505537D01*
X14195650Y-49464350D01*
X14154463Y-49402710D01*
X14140000Y-49330000D01*
X14140000Y-48510000D01*
X14154463Y-48437290D01*
X14195650Y-48375650D01*
X14257290Y-48334463D01*
X14330000Y-48320000D01*
X14710000Y-48320000D01*
X14782710Y-48334463D01*
G37*
G36*
X16026537Y-48335224D02*
G01*
X16091421Y-48378579D01*
X16134776Y-48443463D01*
X16150000Y-48520000D01*
X16150000Y-49320000D01*
X16134776Y-49396537D01*
X16091421Y-49461421D01*
X16026537Y-49504776D01*
X15950000Y-49520000D01*
X15550000Y-49520000D01*
X15473463Y-49504776D01*
X15408579Y-49461421D01*
X15365224Y-49396537D01*
X15350000Y-49320000D01*
X15350000Y-48520000D01*
X15365224Y-48443463D01*
X15408579Y-48378579D01*
X15473463Y-48335224D01*
X15550000Y-48320000D01*
X15950000Y-48320000D01*
X16026537Y-48335224D01*
G37*
G36*
X21329686Y-48687370D02*
G01*
X21382405Y-48722595D01*
X21417630Y-48775314D01*
X21430000Y-48837500D01*
X21430000Y-49162500D01*
X21417630Y-49224686D01*
X21382405Y-49277405D01*
X21329686Y-49312630D01*
X21267500Y-49325000D01*
X20032500Y-49325000D01*
X19970314Y-49312630D01*
X19917595Y-49277405D01*
X19882370Y-49224686D01*
X19870000Y-49162500D01*
X19870000Y-48837500D01*
X19882370Y-48775314D01*
X19917595Y-48722595D01*
X19970314Y-48687370D01*
X20032500Y-48675000D01*
X21267500Y-48675000D01*
X21329686Y-48687370D01*
G37*
G36*
X21329686Y-47737370D02*
G01*
X21382405Y-47772595D01*
X21417630Y-47825314D01*
X21430000Y-47887500D01*
X21430000Y-48212500D01*
X21417630Y-48274686D01*
X21382405Y-48327405D01*
X21329686Y-48362630D01*
X21267500Y-48375000D01*
X20032500Y-48375000D01*
X19970314Y-48362630D01*
X19917595Y-48327405D01*
X19882370Y-48274686D01*
X19870000Y-48212500D01*
X19870000Y-47887500D01*
X19882370Y-47825314D01*
X19917595Y-47772595D01*
X19970314Y-47737370D01*
X20032500Y-47725000D01*
X21267500Y-47725000D01*
X21329686Y-47737370D01*
G37*
G36*
X24029686Y-47737370D02*
G01*
X24082405Y-47772595D01*
X24117630Y-47825314D01*
X24130000Y-47887500D01*
X24130000Y-48212500D01*
X24117630Y-48274686D01*
X24082405Y-48327405D01*
X24029686Y-48362630D01*
X23967500Y-48375000D01*
X22732500Y-48375000D01*
X22670314Y-48362630D01*
X22617595Y-48327405D01*
X22582370Y-48274686D01*
X22570000Y-48212500D01*
X22570000Y-47887500D01*
X22582370Y-47825314D01*
X22617595Y-47772595D01*
X22670314Y-47737370D01*
X22732500Y-47725000D01*
X23967500Y-47725000D01*
X24029686Y-47737370D01*
G37*
G36*
X30310298Y-45300805D02*
G01*
X30360227Y-45306598D01*
X30377283Y-45314129D01*
X30399529Y-45318554D01*
X30423342Y-45334465D01*
X30443511Y-45343371D01*
X30457287Y-45357147D01*
X30478607Y-45371393D01*
X30492852Y-45392712D01*
X30506628Y-45406488D01*
X30515532Y-45426655D01*
X30531446Y-45450471D01*
X30535871Y-45472718D01*
X30543401Y-45489772D01*
X30549192Y-45539690D01*
X30550000Y-45543750D01*
X30550000Y-46456250D01*
X30549192Y-46460310D01*
X30543401Y-46510227D01*
X30535871Y-46527279D01*
X30531446Y-46549529D01*
X30515531Y-46573346D01*
X30506628Y-46593511D01*
X30492854Y-46607284D01*
X30478607Y-46628607D01*
X30457284Y-46642854D01*
X30443511Y-46656628D01*
X30423346Y-46665531D01*
X30399529Y-46681446D01*
X30377279Y-46685871D01*
X30360227Y-46693401D01*
X30310311Y-46699192D01*
X30306250Y-46700000D01*
X29818750Y-46700000D01*
X29814691Y-46699192D01*
X29764772Y-46693401D01*
X29747718Y-46685871D01*
X29725471Y-46681446D01*
X29701655Y-46665532D01*
X29681488Y-46656628D01*
X29667712Y-46642852D01*
X29646393Y-46628607D01*
X29632147Y-46607287D01*
X29618371Y-46593511D01*
X29609465Y-46573342D01*
X29593554Y-46549529D01*
X29589129Y-46527283D01*
X29581598Y-46510227D01*
X29575805Y-46460299D01*
X29575000Y-46456250D01*
X29575000Y-45543750D01*
X29575804Y-45539703D01*
X29581598Y-45489772D01*
X29589129Y-45472714D01*
X29593554Y-45450471D01*
X29609464Y-45426659D01*
X29618371Y-45406488D01*
X29632149Y-45392709D01*
X29646393Y-45371393D01*
X29667709Y-45357149D01*
X29681488Y-45343371D01*
X29701659Y-45334464D01*
X29725471Y-45318554D01*
X29747714Y-45314129D01*
X29764772Y-45306598D01*
X29814702Y-45300805D01*
X29818750Y-45300000D01*
X30306250Y-45300000D01*
X30310298Y-45300805D01*
G37*
G36*
X32185298Y-45300805D02*
G01*
X32235227Y-45306598D01*
X32252283Y-45314129D01*
X32274529Y-45318554D01*
X32298342Y-45334465D01*
X32318511Y-45343371D01*
X32332287Y-45357147D01*
X32353607Y-45371393D01*
X32367852Y-45392712D01*
X32381628Y-45406488D01*
X32390532Y-45426655D01*
X32406446Y-45450471D01*
X32410871Y-45472718D01*
X32418401Y-45489772D01*
X32424192Y-45539690D01*
X32425000Y-45543750D01*
X32425000Y-46456250D01*
X32424192Y-46460310D01*
X32418401Y-46510227D01*
X32410871Y-46527279D01*
X32406446Y-46549529D01*
X32390531Y-46573346D01*
X32381628Y-46593511D01*
X32367854Y-46607284D01*
X32353607Y-46628607D01*
X32332284Y-46642854D01*
X32318511Y-46656628D01*
X32298346Y-46665531D01*
X32274529Y-46681446D01*
X32252279Y-46685871D01*
X32235227Y-46693401D01*
X32185311Y-46699192D01*
X32181250Y-46700000D01*
X31693750Y-46700000D01*
X31689691Y-46699192D01*
X31639772Y-46693401D01*
X31622718Y-46685871D01*
X31600471Y-46681446D01*
X31576655Y-46665532D01*
X31556488Y-46656628D01*
X31542712Y-46642852D01*
X31521393Y-46628607D01*
X31507147Y-46607287D01*
X31493371Y-46593511D01*
X31484465Y-46573342D01*
X31468554Y-46549529D01*
X31464129Y-46527283D01*
X31456598Y-46510227D01*
X31450805Y-46460299D01*
X31450000Y-46456250D01*
X31450000Y-45543750D01*
X31450804Y-45539703D01*
X31456598Y-45489772D01*
X31464129Y-45472714D01*
X31468554Y-45450471D01*
X31484464Y-45426659D01*
X31493371Y-45406488D01*
X31507149Y-45392709D01*
X31521393Y-45371393D01*
X31542709Y-45357149D01*
X31556488Y-45343371D01*
X31576659Y-45334464D01*
X31600471Y-45318554D01*
X31622714Y-45314129D01*
X31639772Y-45306598D01*
X31689702Y-45300805D01*
X31693750Y-45300000D01*
X32181250Y-45300000D01*
X32185298Y-45300805D01*
G37*
G36*
X25354047Y-44300805D02*
G01*
X25405408Y-44306764D01*
X25422954Y-44314511D01*
X25445671Y-44319030D01*
X25469991Y-44335280D01*
X25490793Y-44344465D01*
X25505000Y-44358672D01*
X25526777Y-44373223D01*
X25541327Y-44394999D01*
X25555534Y-44409206D01*
X25564718Y-44430006D01*
X25580970Y-44454329D01*
X25585489Y-44477048D01*
X25593235Y-44494591D01*
X25599192Y-44545940D01*
X25600000Y-44550000D01*
X25600000Y-45450000D01*
X25599192Y-45454059D01*
X25593235Y-45505408D01*
X25585489Y-45522950D01*
X25580970Y-45545671D01*
X25564716Y-45569995D01*
X25555534Y-45590793D01*
X25541329Y-45604997D01*
X25526777Y-45626777D01*
X25504997Y-45641329D01*
X25490793Y-45655534D01*
X25469995Y-45664716D01*
X25445671Y-45680970D01*
X25422950Y-45685489D01*
X25405408Y-45693235D01*
X25354061Y-45699192D01*
X25350000Y-45700000D01*
X24650000Y-45700000D01*
X24645941Y-45699192D01*
X24594591Y-45693235D01*
X24577048Y-45685489D01*
X24554329Y-45680970D01*
X24530006Y-45664718D01*
X24509206Y-45655534D01*
X24494999Y-45641327D01*
X24473223Y-45626777D01*
X24458672Y-45605000D01*
X24444465Y-45590793D01*
X24435280Y-45569991D01*
X24419030Y-45545671D01*
X24414511Y-45522954D01*
X24406764Y-45505408D01*
X24400805Y-45454049D01*
X24400000Y-45450000D01*
X24400000Y-44550000D01*
X24400804Y-44545953D01*
X24406764Y-44494591D01*
X24414511Y-44477043D01*
X24419030Y-44454329D01*
X24435278Y-44430010D01*
X24444465Y-44409206D01*
X24458674Y-44394996D01*
X24473223Y-44373223D01*
X24494996Y-44358674D01*
X24509206Y-44344465D01*
X24530010Y-44335278D01*
X24554329Y-44319030D01*
X24577043Y-44314511D01*
X24594591Y-44306764D01*
X24645952Y-44300805D01*
X24650000Y-44300000D01*
X25350000Y-44300000D01*
X25354047Y-44300805D01*
G37*
G36*
X27354047Y-44300805D02*
G01*
X27405408Y-44306764D01*
X27422954Y-44314511D01*
X27445671Y-44319030D01*
X27469991Y-44335280D01*
X27490793Y-44344465D01*
X27505000Y-44358672D01*
X27526777Y-44373223D01*
X27541327Y-44394999D01*
X27555534Y-44409206D01*
X27564718Y-44430006D01*
X27580970Y-44454329D01*
X27585489Y-44477048D01*
X27593235Y-44494591D01*
X27599192Y-44545940D01*
X27600000Y-44550000D01*
X27600000Y-45450000D01*
X27599192Y-45454059D01*
X27593235Y-45505408D01*
X27585489Y-45522950D01*
X27580970Y-45545671D01*
X27564716Y-45569995D01*
X27555534Y-45590793D01*
X27541329Y-45604997D01*
X27526777Y-45626777D01*
X27504997Y-45641329D01*
X27490793Y-45655534D01*
X27469995Y-45664716D01*
X27445671Y-45680970D01*
X27422950Y-45685489D01*
X27405408Y-45693235D01*
X27354061Y-45699192D01*
X27350000Y-45700000D01*
X26650000Y-45700000D01*
X26645941Y-45699192D01*
X26594591Y-45693235D01*
X26577048Y-45685489D01*
X26554329Y-45680970D01*
X26530006Y-45664718D01*
X26509206Y-45655534D01*
X26494999Y-45641327D01*
X26473223Y-45626777D01*
X26458672Y-45605000D01*
X26444465Y-45590793D01*
X26435280Y-45569991D01*
X26419030Y-45545671D01*
X26414511Y-45522954D01*
X26406764Y-45505408D01*
X26400805Y-45454049D01*
X26400000Y-45450000D01*
X26400000Y-44550000D01*
X26400804Y-44545953D01*
X26406764Y-44494591D01*
X26414511Y-44477043D01*
X26419030Y-44454329D01*
X26435278Y-44430010D01*
X26444465Y-44409206D01*
X26458674Y-44394996D01*
X26473223Y-44373223D01*
X26494996Y-44358674D01*
X26509206Y-44344465D01*
X26530010Y-44335278D01*
X26554329Y-44319030D01*
X26577043Y-44314511D01*
X26594591Y-44306764D01*
X26645952Y-44300805D01*
X26650000Y-44300000D01*
X27350000Y-44300000D01*
X27354047Y-44300805D01*
G37*
G36*
X8454047Y-44400805D02*
G01*
X8505408Y-44406764D01*
X8522954Y-44414511D01*
X8545671Y-44419030D01*
X8569991Y-44435280D01*
X8590793Y-44444465D01*
X8605000Y-44458672D01*
X8626777Y-44473223D01*
X8641327Y-44494999D01*
X8655534Y-44509206D01*
X8664718Y-44530006D01*
X8680970Y-44554329D01*
X8685489Y-44577048D01*
X8693235Y-44594591D01*
X8699192Y-44645940D01*
X8700000Y-44650000D01*
X8700000Y-45350000D01*
X8699192Y-45354059D01*
X8693235Y-45405408D01*
X8685489Y-45422950D01*
X8680970Y-45445671D01*
X8664716Y-45469995D01*
X8655534Y-45490793D01*
X8641329Y-45504997D01*
X8626777Y-45526777D01*
X8604997Y-45541329D01*
X8590793Y-45555534D01*
X8569995Y-45564716D01*
X8545671Y-45580970D01*
X8522950Y-45585489D01*
X8505408Y-45593235D01*
X8454061Y-45599192D01*
X8450000Y-45600000D01*
X7550000Y-45600000D01*
X7545941Y-45599192D01*
X7494591Y-45593235D01*
X7477048Y-45585489D01*
X7454329Y-45580970D01*
X7430006Y-45564718D01*
X7409206Y-45555534D01*
X7394999Y-45541327D01*
X7373223Y-45526777D01*
X7358672Y-45505000D01*
X7344465Y-45490793D01*
X7335280Y-45469991D01*
X7319030Y-45445671D01*
X7314511Y-45422954D01*
X7306764Y-45405408D01*
X7300805Y-45354049D01*
X7300000Y-45350000D01*
X7300000Y-44650000D01*
X7300804Y-44645953D01*
X7306764Y-44594591D01*
X7314511Y-44577043D01*
X7319030Y-44554329D01*
X7335278Y-44530010D01*
X7344465Y-44509206D01*
X7358674Y-44494996D01*
X7373223Y-44473223D01*
X7394996Y-44458674D01*
X7409206Y-44444465D01*
X7430010Y-44435278D01*
X7454329Y-44419030D01*
X7477043Y-44414511D01*
X7494591Y-44406764D01*
X7545952Y-44400805D01*
X7550000Y-44400000D01*
X8450000Y-44400000D01*
X8454047Y-44400805D01*
G37*
G36*
X13454047Y-44400805D02*
G01*
X13505408Y-44406764D01*
X13522954Y-44414511D01*
X13545671Y-44419030D01*
X13569991Y-44435280D01*
X13590793Y-44444465D01*
X13605000Y-44458672D01*
X13626777Y-44473223D01*
X13641327Y-44494999D01*
X13655534Y-44509206D01*
X13664718Y-44530006D01*
X13680970Y-44554329D01*
X13685489Y-44577048D01*
X13693235Y-44594591D01*
X13699192Y-44645940D01*
X13700000Y-44650000D01*
X13700000Y-45350000D01*
X13699192Y-45354059D01*
X13693235Y-45405408D01*
X13685489Y-45422950D01*
X13680970Y-45445671D01*
X13664716Y-45469995D01*
X13655534Y-45490793D01*
X13641329Y-45504997D01*
X13626777Y-45526777D01*
X13604997Y-45541329D01*
X13590793Y-45555534D01*
X13569995Y-45564716D01*
X13545671Y-45580970D01*
X13522950Y-45585489D01*
X13505408Y-45593235D01*
X13454061Y-45599192D01*
X13450000Y-45600000D01*
X12550000Y-45600000D01*
X12545941Y-45599192D01*
X12494591Y-45593235D01*
X12477048Y-45585489D01*
X12454329Y-45580970D01*
X12430006Y-45564718D01*
X12409206Y-45555534D01*
X12394999Y-45541327D01*
X12373223Y-45526777D01*
X12358672Y-45505000D01*
X12344465Y-45490793D01*
X12335280Y-45469991D01*
X12319030Y-45445671D01*
X12314511Y-45422954D01*
X12306764Y-45405408D01*
X12300805Y-45354049D01*
X12300000Y-45350000D01*
X12300000Y-44650000D01*
X12300804Y-44645953D01*
X12306764Y-44594591D01*
X12314511Y-44577043D01*
X12319030Y-44554329D01*
X12335278Y-44530010D01*
X12344465Y-44509206D01*
X12358674Y-44494996D01*
X12373223Y-44473223D01*
X12394996Y-44458674D01*
X12409206Y-44444465D01*
X12430010Y-44435278D01*
X12454329Y-44419030D01*
X12477043Y-44414511D01*
X12494591Y-44406764D01*
X12545952Y-44400805D01*
X12550000Y-44400000D01*
X13450000Y-44400000D01*
X13454047Y-44400805D01*
G37*
G36*
X18854047Y-43100805D02*
G01*
X18905408Y-43106764D01*
X18922954Y-43114511D01*
X18945671Y-43119030D01*
X18969991Y-43135280D01*
X18990793Y-43144465D01*
X19005000Y-43158672D01*
X19026777Y-43173223D01*
X19041327Y-43194999D01*
X19055534Y-43209206D01*
X19064718Y-43230006D01*
X19080970Y-43254329D01*
X19085489Y-43277048D01*
X19093235Y-43294591D01*
X19099192Y-43345940D01*
X19100000Y-43350000D01*
X19100000Y-44650000D01*
X19099192Y-44654059D01*
X19093235Y-44705408D01*
X19085489Y-44722950D01*
X19080970Y-44745671D01*
X19064716Y-44769995D01*
X19055534Y-44790793D01*
X19041329Y-44804997D01*
X19026777Y-44826777D01*
X19004997Y-44841329D01*
X18990793Y-44855534D01*
X18969995Y-44864716D01*
X18945671Y-44880970D01*
X18922950Y-44885489D01*
X18905408Y-44893235D01*
X18854061Y-44899192D01*
X18850000Y-44900000D01*
X18025000Y-44900000D01*
X18020941Y-44899192D01*
X17969591Y-44893235D01*
X17952048Y-44885489D01*
X17929329Y-44880970D01*
X17905006Y-44864718D01*
X17884206Y-44855534D01*
X17869999Y-44841327D01*
X17848223Y-44826777D01*
X17833672Y-44805000D01*
X17819465Y-44790793D01*
X17810280Y-44769991D01*
X17794030Y-44745671D01*
X17789511Y-44722954D01*
X17781764Y-44705408D01*
X17775805Y-44654049D01*
X17775000Y-44650000D01*
X17775000Y-43350000D01*
X17775804Y-43345953D01*
X17781764Y-43294591D01*
X17789511Y-43277043D01*
X17794030Y-43254329D01*
X17810278Y-43230010D01*
X17819465Y-43209206D01*
X17833674Y-43194996D01*
X17848223Y-43173223D01*
X17869996Y-43158674D01*
X17884206Y-43144465D01*
X17905010Y-43135278D01*
X17929329Y-43119030D01*
X17952043Y-43114511D01*
X17969591Y-43106764D01*
X18020952Y-43100805D01*
X18025000Y-43100000D01*
X18850000Y-43100000D01*
X18854047Y-43100805D01*
G37*
G36*
X21979047Y-43100805D02*
G01*
X22030408Y-43106764D01*
X22047954Y-43114511D01*
X22070671Y-43119030D01*
X22094991Y-43135280D01*
X22115793Y-43144465D01*
X22130000Y-43158672D01*
X22151777Y-43173223D01*
X22166327Y-43194999D01*
X22180534Y-43209206D01*
X22189718Y-43230006D01*
X22205970Y-43254329D01*
X22210489Y-43277048D01*
X22218235Y-43294591D01*
X22224192Y-43345940D01*
X22225000Y-43350000D01*
X22225000Y-44650000D01*
X22224192Y-44654059D01*
X22218235Y-44705408D01*
X22210489Y-44722950D01*
X22205970Y-44745671D01*
X22189716Y-44769995D01*
X22180534Y-44790793D01*
X22166329Y-44804997D01*
X22151777Y-44826777D01*
X22129997Y-44841329D01*
X22115793Y-44855534D01*
X22094995Y-44864716D01*
X22070671Y-44880970D01*
X22047950Y-44885489D01*
X22030408Y-44893235D01*
X21979061Y-44899192D01*
X21975000Y-44900000D01*
X21150000Y-44900000D01*
X21145941Y-44899192D01*
X21094591Y-44893235D01*
X21077048Y-44885489D01*
X21054329Y-44880970D01*
X21030006Y-44864718D01*
X21009206Y-44855534D01*
X20994999Y-44841327D01*
X20973223Y-44826777D01*
X20958672Y-44805000D01*
X20944465Y-44790793D01*
X20935280Y-44769991D01*
X20919030Y-44745671D01*
X20914511Y-44722954D01*
X20906764Y-44705408D01*
X20900805Y-44654049D01*
X20900000Y-44650000D01*
X20900000Y-43350000D01*
X20900804Y-43345953D01*
X20906764Y-43294591D01*
X20914511Y-43277043D01*
X20919030Y-43254329D01*
X20935278Y-43230010D01*
X20944465Y-43209206D01*
X20958674Y-43194996D01*
X20973223Y-43173223D01*
X20994996Y-43158674D01*
X21009206Y-43144465D01*
X21030010Y-43135278D01*
X21054329Y-43119030D01*
X21077043Y-43114511D01*
X21094591Y-43106764D01*
X21145952Y-43100805D01*
X21150000Y-43100000D01*
X21975000Y-43100000D01*
X21979047Y-43100805D01*
G37*
G36*
X85754047Y-43150805D02*
G01*
X85805408Y-43156764D01*
X85822954Y-43164511D01*
X85845671Y-43169030D01*
X85869991Y-43185280D01*
X85890793Y-43194465D01*
X85905000Y-43208672D01*
X85926777Y-43223223D01*
X85941327Y-43244999D01*
X85955534Y-43259206D01*
X85964718Y-43280006D01*
X85980970Y-43304329D01*
X85985489Y-43327048D01*
X85993235Y-43344591D01*
X85999192Y-43395940D01*
X86000000Y-43400000D01*
X86000000Y-44600000D01*
X85999192Y-44604059D01*
X85993235Y-44655408D01*
X85985489Y-44672950D01*
X85980970Y-44695671D01*
X85964716Y-44719995D01*
X85955534Y-44740793D01*
X85941329Y-44754997D01*
X85926777Y-44776777D01*
X85904997Y-44791329D01*
X85890793Y-44805534D01*
X85869995Y-44814716D01*
X85845671Y-44830970D01*
X85822950Y-44835489D01*
X85805408Y-44843235D01*
X85754061Y-44849192D01*
X85750000Y-44850000D01*
X84250000Y-44850000D01*
X84245941Y-44849192D01*
X84194591Y-44843235D01*
X84177048Y-44835489D01*
X84154329Y-44830970D01*
X84130006Y-44814718D01*
X84109206Y-44805534D01*
X84094999Y-44791327D01*
X84073223Y-44776777D01*
X84058672Y-44755000D01*
X84044465Y-44740793D01*
X84035280Y-44719991D01*
X84019030Y-44695671D01*
X84014511Y-44672954D01*
X84006764Y-44655408D01*
X84000805Y-44604049D01*
X84000000Y-44600000D01*
X84000000Y-43400000D01*
X84000804Y-43395953D01*
X84006764Y-43344591D01*
X84014511Y-43327043D01*
X84019030Y-43304329D01*
X84035278Y-43280010D01*
X84044465Y-43259206D01*
X84058674Y-43244996D01*
X84073223Y-43223223D01*
X84094996Y-43208674D01*
X84109206Y-43194465D01*
X84130010Y-43185278D01*
X84154329Y-43169030D01*
X84177043Y-43164511D01*
X84194591Y-43156764D01*
X84245952Y-43150805D01*
X84250000Y-43150000D01*
X85750000Y-43150000D01*
X85754047Y-43150805D01*
G37*
G36*
X39246742Y-42746601D02*
G01*
X39400687Y-42810367D01*
X39539234Y-42902941D01*
X39657059Y-43020766D01*
X39749633Y-43159313D01*
X39813399Y-43313258D01*
X39845907Y-43476685D01*
X39845907Y-43643315D01*
X39813399Y-43806742D01*
X39749633Y-43960687D01*
X39657059Y-44099234D01*
X39539234Y-44217059D01*
X39400687Y-44309633D01*
X39246742Y-44373399D01*
X39083315Y-44405907D01*
X38916685Y-44405907D01*
X38753258Y-44373399D01*
X38599313Y-44309633D01*
X38460766Y-44217059D01*
X38342941Y-44099234D01*
X38250367Y-43960687D01*
X38186601Y-43806742D01*
X38154093Y-43643315D01*
X38154093Y-43476685D01*
X38186601Y-43313258D01*
X38250367Y-43159313D01*
X38342941Y-43020766D01*
X38460766Y-42902941D01*
X38599313Y-42810367D01*
X38753258Y-42746601D01*
X38916685Y-42714093D01*
X39083315Y-42714093D01*
X39246742Y-42746601D01*
G37*
G36*
X54486742Y-42746601D02*
G01*
X54640687Y-42810367D01*
X54779234Y-42902941D01*
X54897059Y-43020766D01*
X54989633Y-43159313D01*
X55053399Y-43313258D01*
X55085907Y-43476685D01*
X55085907Y-43643315D01*
X55053399Y-43806742D01*
X54989633Y-43960687D01*
X54897059Y-44099234D01*
X54779234Y-44217059D01*
X54640687Y-44309633D01*
X54486742Y-44373399D01*
X54323315Y-44405907D01*
X54156685Y-44405907D01*
X53993258Y-44373399D01*
X53839313Y-44309633D01*
X53700766Y-44217059D01*
X53582941Y-44099234D01*
X53490367Y-43960687D01*
X53426601Y-43806742D01*
X53394093Y-43643315D01*
X53394093Y-43476685D01*
X53426601Y-43313258D01*
X53490367Y-43159313D01*
X53582941Y-43020766D01*
X53700766Y-42902941D01*
X53839313Y-42810367D01*
X53993258Y-42746601D01*
X54156685Y-42714093D01*
X54323315Y-42714093D01*
X54486742Y-42746601D01*
G37*
G36*
X59670000Y-44330000D02*
G01*
X57670000Y-44330000D01*
X57670000Y-42330000D01*
X59670000Y-42330000D01*
X59670000Y-44330000D01*
G37*
G36*
X61500285Y-42373060D02*
G01*
X61681397Y-42448079D01*
X61844393Y-42556990D01*
X61983010Y-42695607D01*
X62091921Y-42858603D01*
X62166940Y-43039715D01*
X62205185Y-43231983D01*
X62205185Y-43428017D01*
X62166940Y-43620285D01*
X62091921Y-43801397D01*
X61983010Y-43964393D01*
X61844393Y-44103010D01*
X61681397Y-44211921D01*
X61500285Y-44286940D01*
X61308017Y-44325185D01*
X61111983Y-44325185D01*
X60919715Y-44286940D01*
X60738603Y-44211921D01*
X60575607Y-44103010D01*
X60436990Y-43964393D01*
X60328079Y-43801397D01*
X60253060Y-43620285D01*
X60214815Y-43428017D01*
X60214815Y-43231983D01*
X60253060Y-43039715D01*
X60328079Y-42858603D01*
X60436990Y-42695607D01*
X60575607Y-42556990D01*
X60738603Y-42448079D01*
X60919715Y-42373060D01*
X61111983Y-42334815D01*
X61308017Y-42334815D01*
X61500285Y-42373060D01*
G37*
G36*
X64040285Y-42373060D02*
G01*
X64221397Y-42448079D01*
X64384393Y-42556990D01*
X64523010Y-42695607D01*
X64631921Y-42858603D01*
X64706940Y-43039715D01*
X64745185Y-43231983D01*
X64745185Y-43428017D01*
X64706940Y-43620285D01*
X64631921Y-43801397D01*
X64523010Y-43964393D01*
X64384393Y-44103010D01*
X64221397Y-44211921D01*
X64040285Y-44286940D01*
X63848017Y-44325185D01*
X63651983Y-44325185D01*
X63459715Y-44286940D01*
X63278603Y-44211921D01*
X63115607Y-44103010D01*
X62976990Y-43964393D01*
X62868079Y-43801397D01*
X62793060Y-43620285D01*
X62754815Y-43428017D01*
X62754815Y-43231983D01*
X62793060Y-43039715D01*
X62868079Y-42858603D01*
X62976990Y-42695607D01*
X63115607Y-42556990D01*
X63278603Y-42448079D01*
X63459715Y-42373060D01*
X63651983Y-42334815D01*
X63848017Y-42334815D01*
X64040285Y-42373060D01*
G37*
G36*
X66580285Y-42373060D02*
G01*
X66761397Y-42448079D01*
X66924393Y-42556990D01*
X67063010Y-42695607D01*
X67171921Y-42858603D01*
X67246940Y-43039715D01*
X67285185Y-43231983D01*
X67285185Y-43428017D01*
X67246940Y-43620285D01*
X67171921Y-43801397D01*
X67063010Y-43964393D01*
X66924393Y-44103010D01*
X66761397Y-44211921D01*
X66580285Y-44286940D01*
X66388017Y-44325185D01*
X66191983Y-44325185D01*
X65999715Y-44286940D01*
X65818603Y-44211921D01*
X65655607Y-44103010D01*
X65516990Y-43964393D01*
X65408079Y-43801397D01*
X65333060Y-43620285D01*
X65294815Y-43428017D01*
X65294815Y-43231983D01*
X65333060Y-43039715D01*
X65408079Y-42858603D01*
X65516990Y-42695607D01*
X65655607Y-42556990D01*
X65818603Y-42448079D01*
X65999715Y-42373060D01*
X66191983Y-42334815D01*
X66388017Y-42334815D01*
X66580285Y-42373060D01*
G37*
G36*
X69120285Y-42373060D02*
G01*
X69301397Y-42448079D01*
X69464393Y-42556990D01*
X69603010Y-42695607D01*
X69711921Y-42858603D01*
X69786940Y-43039715D01*
X69825185Y-43231983D01*
X69825185Y-43428017D01*
X69786940Y-43620285D01*
X69711921Y-43801397D01*
X69603010Y-43964393D01*
X69464393Y-44103010D01*
X69301397Y-44211921D01*
X69120285Y-44286940D01*
X68928017Y-44325185D01*
X68731983Y-44325185D01*
X68539715Y-44286940D01*
X68358603Y-44211921D01*
X68195607Y-44103010D01*
X68056990Y-43964393D01*
X67948079Y-43801397D01*
X67873060Y-43620285D01*
X67834815Y-43428017D01*
X67834815Y-43231983D01*
X67873060Y-43039715D01*
X67948079Y-42858603D01*
X68056990Y-42695607D01*
X68195607Y-42556990D01*
X68358603Y-42448079D01*
X68539715Y-42373060D01*
X68731983Y-42334815D01*
X68928017Y-42334815D01*
X69120285Y-42373060D01*
G37*
G36*
X71660284Y-42373060D02*
G01*
X71841396Y-42448079D01*
X72004392Y-42556990D01*
X72143009Y-42695607D01*
X72251920Y-42858603D01*
X72326939Y-43039715D01*
X72365184Y-43231983D01*
X72365184Y-43428017D01*
X72326939Y-43620285D01*
X72251920Y-43801397D01*
X72143009Y-43964393D01*
X72004392Y-44103010D01*
X71841396Y-44211921D01*
X71660284Y-44286940D01*
X71468016Y-44325185D01*
X71271982Y-44325185D01*
X71079714Y-44286940D01*
X70898602Y-44211921D01*
X70735606Y-44103010D01*
X70596989Y-43964393D01*
X70488078Y-43801397D01*
X70413059Y-43620285D01*
X70374814Y-43428017D01*
X70374814Y-43231983D01*
X70413059Y-43039715D01*
X70488078Y-42858603D01*
X70596989Y-42695607D01*
X70735606Y-42556990D01*
X70898602Y-42448079D01*
X71079714Y-42373060D01*
X71271982Y-42334815D01*
X71468016Y-42334815D01*
X71660284Y-42373060D01*
G37*
G36*
X77290285Y-42043060D02*
G01*
X77471397Y-42118079D01*
X77634393Y-42226990D01*
X77773010Y-42365607D01*
X77881921Y-42528603D01*
X77956940Y-42709715D01*
X77995185Y-42901983D01*
X77995185Y-43098017D01*
X77956940Y-43290285D01*
X77881921Y-43471397D01*
X77773010Y-43634393D01*
X77634393Y-43773010D01*
X77471397Y-43881921D01*
X77290285Y-43956940D01*
X77098017Y-43995185D01*
X76901983Y-43995185D01*
X76709715Y-43956940D01*
X76528603Y-43881921D01*
X76365607Y-43773010D01*
X76226990Y-43634393D01*
X76118079Y-43471397D01*
X76043060Y-43290285D01*
X76004815Y-43098017D01*
X76004815Y-42901983D01*
X76043060Y-42709715D01*
X76118079Y-42528603D01*
X76226990Y-42365607D01*
X76365607Y-42226990D01*
X76528603Y-42118079D01*
X76709715Y-42043060D01*
X76901983Y-42004815D01*
X77098017Y-42004815D01*
X77290285Y-42043060D01*
G37*
G36*
X8454047Y-42400805D02*
G01*
X8505408Y-42406764D01*
X8522954Y-42414511D01*
X8545671Y-42419030D01*
X8569991Y-42435280D01*
X8590793Y-42444465D01*
X8605000Y-42458672D01*
X8626777Y-42473223D01*
X8641327Y-42494999D01*
X8655534Y-42509206D01*
X8664718Y-42530006D01*
X8680970Y-42554329D01*
X8685489Y-42577048D01*
X8693235Y-42594591D01*
X8699192Y-42645940D01*
X8700000Y-42650000D01*
X8700000Y-43350000D01*
X8699192Y-43354059D01*
X8693235Y-43405408D01*
X8685489Y-43422950D01*
X8680970Y-43445671D01*
X8664716Y-43469995D01*
X8655534Y-43490793D01*
X8641329Y-43504997D01*
X8626777Y-43526777D01*
X8604997Y-43541329D01*
X8590793Y-43555534D01*
X8569995Y-43564716D01*
X8545671Y-43580970D01*
X8522950Y-43585489D01*
X8505408Y-43593235D01*
X8454061Y-43599192D01*
X8450000Y-43600000D01*
X7550000Y-43600000D01*
X7545941Y-43599192D01*
X7494591Y-43593235D01*
X7477048Y-43585489D01*
X7454329Y-43580970D01*
X7430006Y-43564718D01*
X7409206Y-43555534D01*
X7394999Y-43541327D01*
X7373223Y-43526777D01*
X7358672Y-43505000D01*
X7344465Y-43490793D01*
X7335280Y-43469991D01*
X7319030Y-43445671D01*
X7314511Y-43422954D01*
X7306764Y-43405408D01*
X7300805Y-43354049D01*
X7300000Y-43350000D01*
X7300000Y-42650000D01*
X7300804Y-42645953D01*
X7306764Y-42594591D01*
X7314511Y-42577043D01*
X7319030Y-42554329D01*
X7335278Y-42530010D01*
X7344465Y-42509206D01*
X7358674Y-42494996D01*
X7373223Y-42473223D01*
X7394996Y-42458674D01*
X7409206Y-42444465D01*
X7430010Y-42435278D01*
X7454329Y-42419030D01*
X7477043Y-42414511D01*
X7494591Y-42406764D01*
X7545952Y-42400805D01*
X7550000Y-42400000D01*
X8450000Y-42400000D01*
X8454047Y-42400805D01*
G37*
G36*
X13454047Y-42400805D02*
G01*
X13505408Y-42406764D01*
X13522954Y-42414511D01*
X13545671Y-42419030D01*
X13569991Y-42435280D01*
X13590793Y-42444465D01*
X13605000Y-42458672D01*
X13626777Y-42473223D01*
X13641327Y-42494999D01*
X13655534Y-42509206D01*
X13664718Y-42530006D01*
X13680970Y-42554329D01*
X13685489Y-42577048D01*
X13693235Y-42594591D01*
X13699192Y-42645940D01*
X13700000Y-42650000D01*
X13700000Y-43350000D01*
X13699192Y-43354059D01*
X13693235Y-43405408D01*
X13685489Y-43422950D01*
X13680970Y-43445671D01*
X13664716Y-43469995D01*
X13655534Y-43490793D01*
X13641329Y-43504997D01*
X13626777Y-43526777D01*
X13604997Y-43541329D01*
X13590793Y-43555534D01*
X13569995Y-43564716D01*
X13545671Y-43580970D01*
X13522950Y-43585489D01*
X13505408Y-43593235D01*
X13454061Y-43599192D01*
X13450000Y-43600000D01*
X12550000Y-43600000D01*
X12545941Y-43599192D01*
X12494591Y-43593235D01*
X12477048Y-43585489D01*
X12454329Y-43580970D01*
X12430006Y-43564718D01*
X12409206Y-43555534D01*
X12394999Y-43541327D01*
X12373223Y-43526777D01*
X12358672Y-43505000D01*
X12344465Y-43490793D01*
X12335280Y-43469991D01*
X12319030Y-43445671D01*
X12314511Y-43422954D01*
X12306764Y-43405408D01*
X12300805Y-43354049D01*
X12300000Y-43350000D01*
X12300000Y-42650000D01*
X12300804Y-42645953D01*
X12306764Y-42594591D01*
X12314511Y-42577043D01*
X12319030Y-42554329D01*
X12335278Y-42530010D01*
X12344465Y-42509206D01*
X12358674Y-42494996D01*
X12373223Y-42473223D01*
X12394996Y-42458674D01*
X12409206Y-42444465D01*
X12430010Y-42435278D01*
X12454329Y-42419030D01*
X12477043Y-42414511D01*
X12494591Y-42406764D01*
X12545952Y-42400805D01*
X12550000Y-42400000D01*
X13450000Y-42400000D01*
X13454047Y-42400805D01*
G37*
G36*
X85233315Y-40654093D02*
G01*
X85396742Y-40686601D01*
X85550687Y-40750367D01*
X85689234Y-40842941D01*
X85807059Y-40960766D01*
X85899633Y-41099313D01*
X85963399Y-41253258D01*
X85995907Y-41416685D01*
X85995907Y-41583315D01*
X85963399Y-41746742D01*
X85899633Y-41900687D01*
X85807059Y-42039234D01*
X85689234Y-42157059D01*
X85550687Y-42249633D01*
X85396742Y-42313399D01*
X85233315Y-42345907D01*
X85150000Y-42350000D01*
X85148768Y-42350000D01*
X84851232Y-42350000D01*
X84850000Y-42350000D01*
X84766685Y-42345907D01*
X84603258Y-42313399D01*
X84449313Y-42249633D01*
X84310766Y-42157059D01*
X84192941Y-42039234D01*
X84100367Y-41900687D01*
X84036601Y-41746742D01*
X84004093Y-41583315D01*
X84004093Y-41416685D01*
X84036601Y-41253258D01*
X84100367Y-41099313D01*
X84192941Y-40960766D01*
X84310766Y-40842941D01*
X84449313Y-40750367D01*
X84603258Y-40686601D01*
X84766685Y-40654093D01*
X84850000Y-40650000D01*
X85150000Y-40650000D01*
X85233315Y-40654093D01*
G37*
G36*
X25329686Y-41637370D02*
G01*
X25382405Y-41672595D01*
X25417630Y-41725314D01*
X25430000Y-41787500D01*
X25430000Y-42112500D01*
X25417630Y-42174686D01*
X25382405Y-42227405D01*
X25329686Y-42262630D01*
X25267500Y-42275000D01*
X24032500Y-42275000D01*
X23970314Y-42262630D01*
X23917595Y-42227405D01*
X23882370Y-42174686D01*
X23870000Y-42112500D01*
X23870000Y-41787500D01*
X23882370Y-41725314D01*
X23917595Y-41672595D01*
X23970314Y-41637370D01*
X24032500Y-41625000D01*
X25267500Y-41625000D01*
X25329686Y-41637370D01*
G37*
G36*
X28029686Y-41637370D02*
G01*
X28082405Y-41672595D01*
X28117630Y-41725314D01*
X28130000Y-41787500D01*
X28130000Y-42112500D01*
X28117630Y-42174686D01*
X28082405Y-42227405D01*
X28029686Y-42262630D01*
X27967500Y-42275000D01*
X26732500Y-42275000D01*
X26670314Y-42262630D01*
X26617595Y-42227405D01*
X26582370Y-42174686D01*
X26570000Y-42112500D01*
X26570000Y-41787500D01*
X26582370Y-41725314D01*
X26617595Y-41672595D01*
X26670314Y-41637370D01*
X26732500Y-41625000D01*
X27967500Y-41625000D01*
X28029686Y-41637370D01*
G37*
G36*
X39246742Y-40206601D02*
G01*
X39400687Y-40270367D01*
X39539234Y-40362941D01*
X39657059Y-40480766D01*
X39749633Y-40619313D01*
X39813399Y-40773258D01*
X39845907Y-40936685D01*
X39845907Y-41103315D01*
X39813399Y-41266742D01*
X39749633Y-41420687D01*
X39657059Y-41559234D01*
X39539234Y-41677059D01*
X39400687Y-41769633D01*
X39246742Y-41833399D01*
X39083315Y-41865907D01*
X38916685Y-41865907D01*
X38753258Y-41833399D01*
X38599313Y-41769633D01*
X38460766Y-41677059D01*
X38342941Y-41559234D01*
X38250367Y-41420687D01*
X38186601Y-41266742D01*
X38154093Y-41103315D01*
X38154093Y-40936685D01*
X38186601Y-40773258D01*
X38250367Y-40619313D01*
X38342941Y-40480766D01*
X38460766Y-40362941D01*
X38599313Y-40270367D01*
X38753258Y-40206601D01*
X38916685Y-40174093D01*
X39083315Y-40174093D01*
X39246742Y-40206601D01*
G37*
G36*
X54486742Y-40206601D02*
G01*
X54640687Y-40270367D01*
X54779234Y-40362941D01*
X54897059Y-40480766D01*
X54989633Y-40619313D01*
X55053399Y-40773258D01*
X55085907Y-40936685D01*
X55085907Y-41103315D01*
X55053399Y-41266742D01*
X54989633Y-41420687D01*
X54897059Y-41559234D01*
X54779234Y-41677059D01*
X54640687Y-41769633D01*
X54486742Y-41833399D01*
X54323315Y-41865907D01*
X54156685Y-41865907D01*
X53993258Y-41833399D01*
X53839313Y-41769633D01*
X53700766Y-41677059D01*
X53582941Y-41559234D01*
X53490367Y-41420687D01*
X53426601Y-41266742D01*
X53394093Y-41103315D01*
X53394093Y-40936685D01*
X53426601Y-40773258D01*
X53490367Y-40619313D01*
X53582941Y-40480766D01*
X53700766Y-40362941D01*
X53839313Y-40270367D01*
X53993258Y-40206601D01*
X54156685Y-40174093D01*
X54323315Y-40174093D01*
X54486742Y-40206601D01*
G37*
G36*
X25329686Y-40687370D02*
G01*
X25382405Y-40722595D01*
X25417630Y-40775314D01*
X25430000Y-40837500D01*
X25430000Y-41162500D01*
X25417630Y-41224686D01*
X25382405Y-41277405D01*
X25329686Y-41312630D01*
X25267500Y-41325000D01*
X24032500Y-41325000D01*
X23970314Y-41312630D01*
X23917595Y-41277405D01*
X23882370Y-41224686D01*
X23870000Y-41162500D01*
X23870000Y-40837500D01*
X23882370Y-40775314D01*
X23917595Y-40722595D01*
X23970314Y-40687370D01*
X24032500Y-40675000D01*
X25267500Y-40675000D01*
X25329686Y-40687370D01*
G37*
G36*
X35290285Y-39043060D02*
G01*
X35471397Y-39118079D01*
X35634393Y-39226990D01*
X35773010Y-39365607D01*
X35881921Y-39528603D01*
X35956940Y-39709715D01*
X35995185Y-39901983D01*
X35995185Y-40098017D01*
X35956940Y-40290285D01*
X35881921Y-40471397D01*
X35773010Y-40634393D01*
X35634393Y-40773010D01*
X35471397Y-40881921D01*
X35290285Y-40956940D01*
X35098017Y-40995185D01*
X34901983Y-40995185D01*
X34709715Y-40956940D01*
X34528603Y-40881921D01*
X34365607Y-40773010D01*
X34226990Y-40634393D01*
X34118079Y-40471397D01*
X34043060Y-40290285D01*
X34004815Y-40098017D01*
X34004815Y-39901983D01*
X34043060Y-39709715D01*
X34118079Y-39528603D01*
X34226990Y-39365607D01*
X34365607Y-39226990D01*
X34528603Y-39118079D01*
X34709715Y-39043060D01*
X34901983Y-39004815D01*
X35098017Y-39004815D01*
X35290285Y-39043060D01*
G37*
G36*
X25329686Y-39737370D02*
G01*
X25382405Y-39772595D01*
X25417630Y-39825314D01*
X25430000Y-39887500D01*
X25430000Y-40212500D01*
X25417630Y-40274686D01*
X25382405Y-40327405D01*
X25329686Y-40362630D01*
X25267500Y-40375000D01*
X24032500Y-40375000D01*
X23970314Y-40362630D01*
X23917595Y-40327405D01*
X23882370Y-40274686D01*
X23870000Y-40212500D01*
X23870000Y-39887500D01*
X23882370Y-39825314D01*
X23917595Y-39772595D01*
X23970314Y-39737370D01*
X24032500Y-39725000D01*
X25267500Y-39725000D01*
X25329686Y-39737370D01*
G37*
G36*
X28029686Y-39737370D02*
G01*
X28082405Y-39772595D01*
X28117630Y-39825314D01*
X28130000Y-39887500D01*
X28130000Y-40212500D01*
X28117630Y-40274686D01*
X28082405Y-40327405D01*
X28029686Y-40362630D01*
X27967500Y-40375000D01*
X26732500Y-40375000D01*
X26670314Y-40362630D01*
X26617595Y-40327405D01*
X26582370Y-40274686D01*
X26570000Y-40212500D01*
X26570000Y-39887500D01*
X26582370Y-39825314D01*
X26617595Y-39772595D01*
X26670314Y-39737370D01*
X26732500Y-39725000D01*
X27967500Y-39725000D01*
X28029686Y-39737370D01*
G37*
G36*
X39246742Y-37666601D02*
G01*
X39400687Y-37730367D01*
X39539234Y-37822941D01*
X39657059Y-37940766D01*
X39749633Y-38079313D01*
X39813399Y-38233258D01*
X39845907Y-38396685D01*
X39845907Y-38563315D01*
X39813399Y-38726742D01*
X39749633Y-38880687D01*
X39657059Y-39019234D01*
X39539234Y-39137059D01*
X39400687Y-39229633D01*
X39246742Y-39293399D01*
X39083315Y-39325907D01*
X38916685Y-39325907D01*
X38753258Y-39293399D01*
X38599313Y-39229633D01*
X38460766Y-39137059D01*
X38342941Y-39019234D01*
X38250367Y-38880687D01*
X38186601Y-38726742D01*
X38154093Y-38563315D01*
X38154093Y-38396685D01*
X38186601Y-38233258D01*
X38250367Y-38079313D01*
X38342941Y-37940766D01*
X38460766Y-37822941D01*
X38599313Y-37730367D01*
X38753258Y-37666601D01*
X38916685Y-37634093D01*
X39083315Y-37634093D01*
X39246742Y-37666601D01*
G37*
G36*
X54486742Y-37666601D02*
G01*
X54640687Y-37730367D01*
X54779234Y-37822941D01*
X54897059Y-37940766D01*
X54989633Y-38079313D01*
X55053399Y-38233258D01*
X55085907Y-38396685D01*
X55085907Y-38563315D01*
X55053399Y-38726742D01*
X54989633Y-38880687D01*
X54897059Y-39019234D01*
X54779234Y-39137059D01*
X54640687Y-39229633D01*
X54486742Y-39293399D01*
X54323315Y-39325907D01*
X54156685Y-39325907D01*
X53993258Y-39293399D01*
X53839313Y-39229633D01*
X53700766Y-39137059D01*
X53582941Y-39019234D01*
X53490367Y-38880687D01*
X53426601Y-38726742D01*
X53394093Y-38563315D01*
X53394093Y-38396685D01*
X53426601Y-38233258D01*
X53490367Y-38079313D01*
X53582941Y-37940766D01*
X53700766Y-37822941D01*
X53839313Y-37730367D01*
X53993258Y-37666601D01*
X54156685Y-37634093D01*
X54323315Y-37634093D01*
X54486742Y-37666601D01*
G37*
G36*
X31354047Y-37300805D02*
G01*
X31405408Y-37306764D01*
X31422954Y-37314511D01*
X31445671Y-37319030D01*
X31469991Y-37335280D01*
X31490793Y-37344465D01*
X31505000Y-37358672D01*
X31526777Y-37373223D01*
X31541327Y-37394999D01*
X31555534Y-37409206D01*
X31564718Y-37430006D01*
X31580970Y-37454329D01*
X31585489Y-37477048D01*
X31593235Y-37494591D01*
X31599192Y-37545940D01*
X31600000Y-37550000D01*
X31600000Y-38450000D01*
X31599192Y-38454059D01*
X31593235Y-38505408D01*
X31585489Y-38522950D01*
X31580970Y-38545671D01*
X31564716Y-38569995D01*
X31555534Y-38590793D01*
X31541329Y-38604997D01*
X31526777Y-38626777D01*
X31504997Y-38641329D01*
X31490793Y-38655534D01*
X31469995Y-38664716D01*
X31445671Y-38680970D01*
X31422950Y-38685489D01*
X31405408Y-38693235D01*
X31354061Y-38699192D01*
X31350000Y-38700000D01*
X30650000Y-38700000D01*
X30645941Y-38699192D01*
X30594591Y-38693235D01*
X30577048Y-38685489D01*
X30554329Y-38680970D01*
X30530006Y-38664718D01*
X30509206Y-38655534D01*
X30494999Y-38641327D01*
X30473223Y-38626777D01*
X30458672Y-38605000D01*
X30444465Y-38590793D01*
X30435280Y-38569991D01*
X30419030Y-38545671D01*
X30414511Y-38522954D01*
X30406764Y-38505408D01*
X30400805Y-38454049D01*
X30400000Y-38450000D01*
X30400000Y-37550000D01*
X30400804Y-37545953D01*
X30406764Y-37494591D01*
X30414511Y-37477043D01*
X30419030Y-37454329D01*
X30435278Y-37430010D01*
X30444465Y-37409206D01*
X30458674Y-37394996D01*
X30473223Y-37373223D01*
X30494996Y-37358674D01*
X30509206Y-37344465D01*
X30530010Y-37335278D01*
X30554329Y-37319030D01*
X30577043Y-37314511D01*
X30594591Y-37306764D01*
X30645952Y-37300805D01*
X30650000Y-37300000D01*
X31350000Y-37300000D01*
X31354047Y-37300805D01*
G37*
G36*
X33354047Y-37300805D02*
G01*
X33405408Y-37306764D01*
X33422954Y-37314511D01*
X33445671Y-37319030D01*
X33469991Y-37335280D01*
X33490793Y-37344465D01*
X33505000Y-37358672D01*
X33526777Y-37373223D01*
X33541327Y-37394999D01*
X33555534Y-37409206D01*
X33564718Y-37430006D01*
X33580970Y-37454329D01*
X33585489Y-37477048D01*
X33593235Y-37494591D01*
X33599192Y-37545940D01*
X33600000Y-37550000D01*
X33600000Y-38450000D01*
X33599192Y-38454059D01*
X33593235Y-38505408D01*
X33585489Y-38522950D01*
X33580970Y-38545671D01*
X33564716Y-38569995D01*
X33555534Y-38590793D01*
X33541329Y-38604997D01*
X33526777Y-38626777D01*
X33504997Y-38641329D01*
X33490793Y-38655534D01*
X33469995Y-38664716D01*
X33445671Y-38680970D01*
X33422950Y-38685489D01*
X33405408Y-38693235D01*
X33354061Y-38699192D01*
X33350000Y-38700000D01*
X32650000Y-38700000D01*
X32645941Y-38699192D01*
X32594591Y-38693235D01*
X32577048Y-38685489D01*
X32554329Y-38680970D01*
X32530006Y-38664718D01*
X32509206Y-38655534D01*
X32494999Y-38641327D01*
X32473223Y-38626777D01*
X32458672Y-38605000D01*
X32444465Y-38590793D01*
X32435280Y-38569991D01*
X32419030Y-38545671D01*
X32414511Y-38522954D01*
X32406764Y-38505408D01*
X32400805Y-38454049D01*
X32400000Y-38450000D01*
X32400000Y-37550000D01*
X32400804Y-37545953D01*
X32406764Y-37494591D01*
X32414511Y-37477043D01*
X32419030Y-37454329D01*
X32435278Y-37430010D01*
X32444465Y-37409206D01*
X32458674Y-37394996D01*
X32473223Y-37373223D01*
X32494996Y-37358674D01*
X32509206Y-37344465D01*
X32530010Y-37335278D01*
X32554329Y-37319030D01*
X32577043Y-37314511D01*
X32594591Y-37306764D01*
X32645952Y-37300805D01*
X32650000Y-37300000D01*
X33350000Y-37300000D01*
X33354047Y-37300805D01*
G37*
G36*
X76354047Y-37300805D02*
G01*
X76405408Y-37306764D01*
X76422954Y-37314511D01*
X76445671Y-37319030D01*
X76469991Y-37335280D01*
X76490793Y-37344465D01*
X76505000Y-37358672D01*
X76526777Y-37373223D01*
X76541327Y-37394999D01*
X76555534Y-37409206D01*
X76564718Y-37430006D01*
X76580970Y-37454329D01*
X76585489Y-37477048D01*
X76593235Y-37494591D01*
X76599192Y-37545940D01*
X76600000Y-37550000D01*
X76600000Y-38450000D01*
X76599192Y-38454059D01*
X76593235Y-38505408D01*
X76585489Y-38522950D01*
X76580970Y-38545671D01*
X76564716Y-38569995D01*
X76555534Y-38590793D01*
X76541329Y-38604997D01*
X76526777Y-38626777D01*
X76504997Y-38641329D01*
X76490793Y-38655534D01*
X76469995Y-38664716D01*
X76445671Y-38680970D01*
X76422950Y-38685489D01*
X76405408Y-38693235D01*
X76354061Y-38699192D01*
X76350000Y-38700000D01*
X75650000Y-38700000D01*
X75645941Y-38699192D01*
X75594591Y-38693235D01*
X75577048Y-38685489D01*
X75554329Y-38680970D01*
X75530006Y-38664718D01*
X75509206Y-38655534D01*
X75494999Y-38641327D01*
X75473223Y-38626777D01*
X75458672Y-38605000D01*
X75444465Y-38590793D01*
X75435280Y-38569991D01*
X75419030Y-38545671D01*
X75414511Y-38522954D01*
X75406764Y-38505408D01*
X75400805Y-38454049D01*
X75400000Y-38450000D01*
X75400000Y-37550000D01*
X75400804Y-37545953D01*
X75406764Y-37494591D01*
X75414511Y-37477043D01*
X75419030Y-37454329D01*
X75435278Y-37430010D01*
X75444465Y-37409206D01*
X75458674Y-37394996D01*
X75473223Y-37373223D01*
X75494996Y-37358674D01*
X75509206Y-37344465D01*
X75530010Y-37335278D01*
X75554329Y-37319030D01*
X75577043Y-37314511D01*
X75594591Y-37306764D01*
X75645952Y-37300805D01*
X75650000Y-37300000D01*
X76350000Y-37300000D01*
X76354047Y-37300805D01*
G37*
G36*
X78354047Y-37300805D02*
G01*
X78405408Y-37306764D01*
X78422954Y-37314511D01*
X78445671Y-37319030D01*
X78469991Y-37335280D01*
X78490793Y-37344465D01*
X78505000Y-37358672D01*
X78526777Y-37373223D01*
X78541327Y-37394999D01*
X78555534Y-37409206D01*
X78564718Y-37430006D01*
X78580970Y-37454329D01*
X78585489Y-37477048D01*
X78593235Y-37494591D01*
X78599192Y-37545940D01*
X78600000Y-37550000D01*
X78600000Y-38450000D01*
X78599192Y-38454059D01*
X78593235Y-38505408D01*
X78585489Y-38522950D01*
X78580970Y-38545671D01*
X78564716Y-38569995D01*
X78555534Y-38590793D01*
X78541329Y-38604997D01*
X78526777Y-38626777D01*
X78504997Y-38641329D01*
X78490793Y-38655534D01*
X78469995Y-38664716D01*
X78445671Y-38680970D01*
X78422950Y-38685489D01*
X78405408Y-38693235D01*
X78354061Y-38699192D01*
X78350000Y-38700000D01*
X77650000Y-38700000D01*
X77645941Y-38699192D01*
X77594591Y-38693235D01*
X77577048Y-38685489D01*
X77554329Y-38680970D01*
X77530006Y-38664718D01*
X77509206Y-38655534D01*
X77494999Y-38641327D01*
X77473223Y-38626777D01*
X77458672Y-38605000D01*
X77444465Y-38590793D01*
X77435280Y-38569991D01*
X77419030Y-38545671D01*
X77414511Y-38522954D01*
X77406764Y-38505408D01*
X77400805Y-38454049D01*
X77400000Y-38450000D01*
X77400000Y-37550000D01*
X77400804Y-37545953D01*
X77406764Y-37494591D01*
X77414511Y-37477043D01*
X77419030Y-37454329D01*
X77435278Y-37430010D01*
X77444465Y-37409206D01*
X77458674Y-37394996D01*
X77473223Y-37373223D01*
X77494996Y-37358674D01*
X77509206Y-37344465D01*
X77530010Y-37335278D01*
X77554329Y-37319030D01*
X77577043Y-37314511D01*
X77594591Y-37306764D01*
X77645952Y-37300805D01*
X77650000Y-37300000D01*
X78350000Y-37300000D01*
X78354047Y-37300805D01*
G37*
G36*
X80707403Y-36661418D02*
G01*
X80756066Y-36693934D01*
X80788582Y-36742597D01*
X80800000Y-36800000D01*
X80800000Y-37100000D01*
X80788582Y-37157403D01*
X80756066Y-37206066D01*
X80707403Y-37238582D01*
X80650000Y-37250000D01*
X79475000Y-37250000D01*
X79417597Y-37238582D01*
X79368934Y-37206066D01*
X79336418Y-37157403D01*
X79325000Y-37100000D01*
X79325000Y-36800000D01*
X79336418Y-36742597D01*
X79368934Y-36693934D01*
X79417597Y-36661418D01*
X79475000Y-36650000D01*
X80650000Y-36650000D01*
X80707403Y-36661418D01*
G37*
G36*
X39246742Y-35126601D02*
G01*
X39400687Y-35190367D01*
X39539234Y-35282941D01*
X39657059Y-35400766D01*
X39749633Y-35539313D01*
X39813399Y-35693258D01*
X39845907Y-35856685D01*
X39845907Y-36023315D01*
X39813399Y-36186742D01*
X39749633Y-36340687D01*
X39657059Y-36479234D01*
X39539234Y-36597059D01*
X39400687Y-36689633D01*
X39246742Y-36753399D01*
X39083315Y-36785907D01*
X38916685Y-36785907D01*
X38753258Y-36753399D01*
X38599313Y-36689633D01*
X38460766Y-36597059D01*
X38342941Y-36479234D01*
X38250367Y-36340687D01*
X38186601Y-36186742D01*
X38154093Y-36023315D01*
X38154093Y-35856685D01*
X38186601Y-35693258D01*
X38250367Y-35539313D01*
X38342941Y-35400766D01*
X38460766Y-35282941D01*
X38599313Y-35190367D01*
X38753258Y-35126601D01*
X38916685Y-35094093D01*
X39083315Y-35094093D01*
X39246742Y-35126601D01*
G37*
G36*
X54486742Y-35126601D02*
G01*
X54640687Y-35190367D01*
X54779234Y-35282941D01*
X54897059Y-35400766D01*
X54989633Y-35539313D01*
X55053399Y-35693258D01*
X55085907Y-35856685D01*
X55085907Y-36023315D01*
X55053399Y-36186742D01*
X54989633Y-36340687D01*
X54897059Y-36479234D01*
X54779234Y-36597059D01*
X54640687Y-36689633D01*
X54486742Y-36753399D01*
X54323315Y-36785907D01*
X54156685Y-36785907D01*
X53993258Y-36753399D01*
X53839313Y-36689633D01*
X53700766Y-36597059D01*
X53582941Y-36479234D01*
X53490367Y-36340687D01*
X53426601Y-36186742D01*
X53394093Y-36023315D01*
X53394093Y-35856685D01*
X53426601Y-35693258D01*
X53490367Y-35539313D01*
X53582941Y-35400766D01*
X53700766Y-35282941D01*
X53839313Y-35190367D01*
X53993258Y-35126601D01*
X54156685Y-35094093D01*
X54323315Y-35094093D01*
X54486742Y-35126601D01*
G37*
G36*
X82582403Y-35711418D02*
G01*
X82631066Y-35743934D01*
X82663582Y-35792597D01*
X82675000Y-35850000D01*
X82675000Y-36150000D01*
X82663582Y-36207403D01*
X82631066Y-36256066D01*
X82582403Y-36288582D01*
X82525000Y-36300000D01*
X81350000Y-36300000D01*
X81292597Y-36288582D01*
X81243934Y-36256066D01*
X81211418Y-36207403D01*
X81200000Y-36150000D01*
X81200000Y-35850000D01*
X81211418Y-35792597D01*
X81243934Y-35743934D01*
X81292597Y-35711418D01*
X81350000Y-35700000D01*
X82525000Y-35700000D01*
X82582403Y-35711418D01*
G37*
G36*
X33290285Y-34043060D02*
G01*
X33471397Y-34118079D01*
X33634393Y-34226990D01*
X33773010Y-34365607D01*
X33881921Y-34528603D01*
X33956940Y-34709715D01*
X33995185Y-34901983D01*
X33995185Y-35098017D01*
X33956940Y-35290285D01*
X33881921Y-35471397D01*
X33773010Y-35634393D01*
X33634393Y-35773010D01*
X33471397Y-35881921D01*
X33290285Y-35956940D01*
X33098017Y-35995185D01*
X32901983Y-35995185D01*
X32709715Y-35956940D01*
X32528603Y-35881921D01*
X32365607Y-35773010D01*
X32226990Y-35634393D01*
X32118079Y-35471397D01*
X32043060Y-35290285D01*
X32004815Y-35098017D01*
X32004815Y-34901983D01*
X32043060Y-34709715D01*
X32118079Y-34528603D01*
X32226990Y-34365607D01*
X32365607Y-34226990D01*
X32528603Y-34118079D01*
X32709715Y-34043060D01*
X32901983Y-34004815D01*
X33098017Y-34004815D01*
X33290285Y-34043060D01*
G37*
G36*
X25854047Y-34100805D02*
G01*
X25905408Y-34106764D01*
X25922954Y-34114511D01*
X25945671Y-34119030D01*
X25969991Y-34135280D01*
X25990793Y-34144465D01*
X26005000Y-34158672D01*
X26026777Y-34173223D01*
X26041327Y-34194999D01*
X26055534Y-34209206D01*
X26064718Y-34230006D01*
X26080970Y-34254329D01*
X26085489Y-34277048D01*
X26093235Y-34294591D01*
X26099192Y-34345940D01*
X26100000Y-34350000D01*
X26100000Y-35650000D01*
X26099192Y-35654059D01*
X26093235Y-35705408D01*
X26085489Y-35722950D01*
X26080970Y-35745671D01*
X26064716Y-35769995D01*
X26055534Y-35790793D01*
X26041329Y-35804997D01*
X26026777Y-35826777D01*
X26004997Y-35841329D01*
X25990793Y-35855534D01*
X25969995Y-35864716D01*
X25945671Y-35880970D01*
X25922950Y-35885489D01*
X25905408Y-35893235D01*
X25854061Y-35899192D01*
X25850000Y-35900000D01*
X25025000Y-35900000D01*
X25020941Y-35899192D01*
X24969591Y-35893235D01*
X24952048Y-35885489D01*
X24929329Y-35880970D01*
X24905006Y-35864718D01*
X24884206Y-35855534D01*
X24869999Y-35841327D01*
X24848223Y-35826777D01*
X24833672Y-35805000D01*
X24819465Y-35790793D01*
X24810280Y-35769991D01*
X24794030Y-35745671D01*
X24789511Y-35722954D01*
X24781764Y-35705408D01*
X24775805Y-35654049D01*
X24775000Y-35650000D01*
X24775000Y-34350000D01*
X24775804Y-34345953D01*
X24781764Y-34294591D01*
X24789511Y-34277043D01*
X24794030Y-34254329D01*
X24810278Y-34230010D01*
X24819465Y-34209206D01*
X24833674Y-34194996D01*
X24848223Y-34173223D01*
X24869996Y-34158674D01*
X24884206Y-34144465D01*
X24905010Y-34135278D01*
X24929329Y-34119030D01*
X24952043Y-34114511D01*
X24969591Y-34106764D01*
X25020952Y-34100805D01*
X25025000Y-34100000D01*
X25850000Y-34100000D01*
X25854047Y-34100805D01*
G37*
G36*
X28979047Y-34100805D02*
G01*
X29030408Y-34106764D01*
X29047954Y-34114511D01*
X29070671Y-34119030D01*
X29094991Y-34135280D01*
X29115793Y-34144465D01*
X29130000Y-34158672D01*
X29151777Y-34173223D01*
X29166327Y-34194999D01*
X29180534Y-34209206D01*
X29189718Y-34230006D01*
X29205970Y-34254329D01*
X29210489Y-34277048D01*
X29218235Y-34294591D01*
X29224192Y-34345940D01*
X29225000Y-34350000D01*
X29225000Y-35650000D01*
X29224192Y-35654059D01*
X29218235Y-35705408D01*
X29210489Y-35722950D01*
X29205970Y-35745671D01*
X29189716Y-35769995D01*
X29180534Y-35790793D01*
X29166329Y-35804997D01*
X29151777Y-35826777D01*
X29129997Y-35841329D01*
X29115793Y-35855534D01*
X29094995Y-35864716D01*
X29070671Y-35880970D01*
X29047950Y-35885489D01*
X29030408Y-35893235D01*
X28979061Y-35899192D01*
X28975000Y-35900000D01*
X28150000Y-35900000D01*
X28145941Y-35899192D01*
X28094591Y-35893235D01*
X28077048Y-35885489D01*
X28054329Y-35880970D01*
X28030006Y-35864718D01*
X28009206Y-35855534D01*
X27994999Y-35841327D01*
X27973223Y-35826777D01*
X27958672Y-35805000D01*
X27944465Y-35790793D01*
X27935280Y-35769991D01*
X27919030Y-35745671D01*
X27914511Y-35722954D01*
X27906764Y-35705408D01*
X27900805Y-35654049D01*
X27900000Y-35650000D01*
X27900000Y-34350000D01*
X27900804Y-34345953D01*
X27906764Y-34294591D01*
X27914511Y-34277043D01*
X27919030Y-34254329D01*
X27935278Y-34230010D01*
X27944465Y-34209206D01*
X27958674Y-34194996D01*
X27973223Y-34173223D01*
X27994996Y-34158674D01*
X28009206Y-34144465D01*
X28030010Y-34135278D01*
X28054329Y-34119030D01*
X28077043Y-34114511D01*
X28094591Y-34106764D01*
X28145952Y-34100805D01*
X28150000Y-34100000D01*
X28975000Y-34100000D01*
X28979047Y-34100805D01*
G37*
G36*
X80707403Y-34761418D02*
G01*
X80756066Y-34793934D01*
X80788582Y-34842597D01*
X80800000Y-34900000D01*
X80800000Y-35200000D01*
X80788582Y-35257403D01*
X80756066Y-35306066D01*
X80707403Y-35338582D01*
X80650000Y-35350000D01*
X79475000Y-35350000D01*
X79417597Y-35338582D01*
X79368934Y-35306066D01*
X79336418Y-35257403D01*
X79325000Y-35200000D01*
X79325000Y-34900000D01*
X79336418Y-34842597D01*
X79368934Y-34793934D01*
X79417597Y-34761418D01*
X79475000Y-34750000D01*
X80650000Y-34750000D01*
X80707403Y-34761418D01*
G37*
G36*
X76354047Y-33300805D02*
G01*
X76405408Y-33306764D01*
X76422954Y-33314511D01*
X76445671Y-33319030D01*
X76469991Y-33335280D01*
X76490793Y-33344465D01*
X76505000Y-33358672D01*
X76526777Y-33373223D01*
X76541327Y-33394999D01*
X76555534Y-33409206D01*
X76564718Y-33430006D01*
X76580970Y-33454329D01*
X76585489Y-33477048D01*
X76593235Y-33494591D01*
X76599192Y-33545940D01*
X76600000Y-33550000D01*
X76600000Y-34450000D01*
X76599192Y-34454059D01*
X76593235Y-34505408D01*
X76585489Y-34522950D01*
X76580970Y-34545671D01*
X76564716Y-34569995D01*
X76555534Y-34590793D01*
X76541329Y-34604997D01*
X76526777Y-34626777D01*
X76504997Y-34641329D01*
X76490793Y-34655534D01*
X76469995Y-34664716D01*
X76445671Y-34680970D01*
X76422950Y-34685489D01*
X76405408Y-34693235D01*
X76354061Y-34699192D01*
X76350000Y-34700000D01*
X75650000Y-34700000D01*
X75645941Y-34699192D01*
X75594591Y-34693235D01*
X75577048Y-34685489D01*
X75554329Y-34680970D01*
X75530006Y-34664718D01*
X75509206Y-34655534D01*
X75494999Y-34641327D01*
X75473223Y-34626777D01*
X75458672Y-34605000D01*
X75444465Y-34590793D01*
X75435280Y-34569991D01*
X75419030Y-34545671D01*
X75414511Y-34522954D01*
X75406764Y-34505408D01*
X75400805Y-34454049D01*
X75400000Y-34450000D01*
X75400000Y-33550000D01*
X75400804Y-33545953D01*
X75406764Y-33494591D01*
X75414511Y-33477043D01*
X75419030Y-33454329D01*
X75435278Y-33430010D01*
X75444465Y-33409206D01*
X75458674Y-33394996D01*
X75473223Y-33373223D01*
X75494996Y-33358674D01*
X75509206Y-33344465D01*
X75530010Y-33335278D01*
X75554329Y-33319030D01*
X75577043Y-33314511D01*
X75594591Y-33306764D01*
X75645952Y-33300805D01*
X75650000Y-33300000D01*
X76350000Y-33300000D01*
X76354047Y-33300805D01*
G37*
G36*
X78354047Y-33300805D02*
G01*
X78405408Y-33306764D01*
X78422954Y-33314511D01*
X78445671Y-33319030D01*
X78469991Y-33335280D01*
X78490793Y-33344465D01*
X78505000Y-33358672D01*
X78526777Y-33373223D01*
X78541327Y-33394999D01*
X78555534Y-33409206D01*
X78564718Y-33430006D01*
X78580970Y-33454329D01*
X78585489Y-33477048D01*
X78593235Y-33494591D01*
X78599192Y-33545940D01*
X78600000Y-33550000D01*
X78600000Y-34450000D01*
X78599192Y-34454059D01*
X78593235Y-34505408D01*
X78585489Y-34522950D01*
X78580970Y-34545671D01*
X78564716Y-34569995D01*
X78555534Y-34590793D01*
X78541329Y-34604997D01*
X78526777Y-34626777D01*
X78504997Y-34641329D01*
X78490793Y-34655534D01*
X78469995Y-34664716D01*
X78445671Y-34680970D01*
X78422950Y-34685489D01*
X78405408Y-34693235D01*
X78354061Y-34699192D01*
X78350000Y-34700000D01*
X77650000Y-34700000D01*
X77645941Y-34699192D01*
X77594591Y-34693235D01*
X77577048Y-34685489D01*
X77554329Y-34680970D01*
X77530006Y-34664718D01*
X77509206Y-34655534D01*
X77494999Y-34641327D01*
X77473223Y-34626777D01*
X77458672Y-34605000D01*
X77444465Y-34590793D01*
X77435280Y-34569991D01*
X77419030Y-34545671D01*
X77414511Y-34522954D01*
X77406764Y-34505408D01*
X77400805Y-34454049D01*
X77400000Y-34450000D01*
X77400000Y-33550000D01*
X77400804Y-33545953D01*
X77406764Y-33494591D01*
X77414511Y-33477043D01*
X77419030Y-33454329D01*
X77435278Y-33430010D01*
X77444465Y-33409206D01*
X77458674Y-33394996D01*
X77473223Y-33373223D01*
X77494996Y-33358674D01*
X77509206Y-33344465D01*
X77530010Y-33335278D01*
X77554329Y-33319030D01*
X77577043Y-33314511D01*
X77594591Y-33306764D01*
X77645952Y-33300805D01*
X77650000Y-33300000D01*
X78350000Y-33300000D01*
X78354047Y-33300805D01*
G37*
G36*
X39246742Y-32586601D02*
G01*
X39400687Y-32650367D01*
X39539234Y-32742941D01*
X39657059Y-32860766D01*
X39749633Y-32999313D01*
X39813399Y-33153258D01*
X39845907Y-33316685D01*
X39845907Y-33483315D01*
X39813399Y-33646742D01*
X39749633Y-33800687D01*
X39657059Y-33939234D01*
X39539234Y-34057059D01*
X39400687Y-34149633D01*
X39246742Y-34213399D01*
X39083315Y-34245907D01*
X38916685Y-34245907D01*
X38753258Y-34213399D01*
X38599313Y-34149633D01*
X38460766Y-34057059D01*
X38342941Y-33939234D01*
X38250367Y-33800687D01*
X38186601Y-33646742D01*
X38154093Y-33483315D01*
X38154093Y-33316685D01*
X38186601Y-33153258D01*
X38250367Y-32999313D01*
X38342941Y-32860766D01*
X38460766Y-32742941D01*
X38599313Y-32650367D01*
X38753258Y-32586601D01*
X38916685Y-32554093D01*
X39083315Y-32554093D01*
X39246742Y-32586601D01*
G37*
G36*
X54486742Y-32586601D02*
G01*
X54640687Y-32650367D01*
X54779234Y-32742941D01*
X54897059Y-32860766D01*
X54989633Y-32999313D01*
X55053399Y-33153258D01*
X55085907Y-33316685D01*
X55085907Y-33483315D01*
X55053399Y-33646742D01*
X54989633Y-33800687D01*
X54897059Y-33939234D01*
X54779234Y-34057059D01*
X54640687Y-34149633D01*
X54486742Y-34213399D01*
X54323315Y-34245907D01*
X54156685Y-34245907D01*
X53993258Y-34213399D01*
X53839313Y-34149633D01*
X53700766Y-34057059D01*
X53582941Y-33939234D01*
X53490367Y-33800687D01*
X53426601Y-33646742D01*
X53394093Y-33483315D01*
X53394093Y-33316685D01*
X53426601Y-33153258D01*
X53490367Y-32999313D01*
X53582941Y-32860766D01*
X53700766Y-32742941D01*
X53839313Y-32650367D01*
X53993258Y-32586601D01*
X54156685Y-32554093D01*
X54323315Y-32554093D01*
X54486742Y-32586601D01*
G37*
G36*
X39246742Y-30046601D02*
G01*
X39400687Y-30110367D01*
X39539234Y-30202941D01*
X39657059Y-30320766D01*
X39749633Y-30459313D01*
X39813399Y-30613258D01*
X39845907Y-30776685D01*
X39845907Y-30943315D01*
X39813399Y-31106742D01*
X39749633Y-31260687D01*
X39657059Y-31399234D01*
X39539234Y-31517059D01*
X39400687Y-31609633D01*
X39246742Y-31673399D01*
X39083315Y-31705907D01*
X38916685Y-31705907D01*
X38753258Y-31673399D01*
X38599313Y-31609633D01*
X38460766Y-31517059D01*
X38342941Y-31399234D01*
X38250367Y-31260687D01*
X38186601Y-31106742D01*
X38154093Y-30943315D01*
X38154093Y-30776685D01*
X38186601Y-30613258D01*
X38250367Y-30459313D01*
X38342941Y-30320766D01*
X38460766Y-30202941D01*
X38599313Y-30110367D01*
X38753258Y-30046601D01*
X38916685Y-30014093D01*
X39083315Y-30014093D01*
X39246742Y-30046601D01*
G37*
G36*
X54486742Y-30046601D02*
G01*
X54640687Y-30110367D01*
X54779234Y-30202941D01*
X54897059Y-30320766D01*
X54989633Y-30459313D01*
X55053399Y-30613258D01*
X55085907Y-30776685D01*
X55085907Y-30943315D01*
X55053399Y-31106742D01*
X54989633Y-31260687D01*
X54897059Y-31399234D01*
X54779234Y-31517059D01*
X54640687Y-31609633D01*
X54486742Y-31673399D01*
X54323315Y-31705907D01*
X54156685Y-31705907D01*
X53993258Y-31673399D01*
X53839313Y-31609633D01*
X53700766Y-31517059D01*
X53582941Y-31399234D01*
X53490367Y-31260687D01*
X53426601Y-31106742D01*
X53394093Y-30943315D01*
X53394093Y-30776685D01*
X53426601Y-30613258D01*
X53490367Y-30459313D01*
X53582941Y-30320766D01*
X53700766Y-30202941D01*
X53839313Y-30110367D01*
X53993258Y-30046601D01*
X54156685Y-30014093D01*
X54323315Y-30014093D01*
X54486742Y-30046601D01*
G37*
G36*
X35479047Y-29450805D02*
G01*
X35530408Y-29456764D01*
X35547954Y-29464511D01*
X35570671Y-29469030D01*
X35594991Y-29485280D01*
X35615793Y-29494465D01*
X35630000Y-29508672D01*
X35651777Y-29523223D01*
X35666327Y-29544999D01*
X35680534Y-29559206D01*
X35689718Y-29580006D01*
X35705970Y-29604329D01*
X35710489Y-29627048D01*
X35718235Y-29644591D01*
X35724192Y-29695940D01*
X35725000Y-29700000D01*
X35725000Y-30375000D01*
X35724192Y-30379059D01*
X35718235Y-30430408D01*
X35710489Y-30447950D01*
X35705970Y-30470671D01*
X35689716Y-30494995D01*
X35680534Y-30515793D01*
X35666329Y-30529997D01*
X35651777Y-30551777D01*
X35629997Y-30566329D01*
X35615793Y-30580534D01*
X35594995Y-30589716D01*
X35570671Y-30605970D01*
X35547950Y-30610489D01*
X35530408Y-30618235D01*
X35479061Y-30624192D01*
X35475000Y-30625000D01*
X34525000Y-30625000D01*
X34520941Y-30624192D01*
X34469591Y-30618235D01*
X34452048Y-30610489D01*
X34429329Y-30605970D01*
X34405006Y-30589718D01*
X34384206Y-30580534D01*
X34369999Y-30566327D01*
X34348223Y-30551777D01*
X34333672Y-30530000D01*
X34319465Y-30515793D01*
X34310280Y-30494991D01*
X34294030Y-30470671D01*
X34289511Y-30447954D01*
X34281764Y-30430408D01*
X34275805Y-30379049D01*
X34275000Y-30375000D01*
X34275000Y-29700000D01*
X34275804Y-29695953D01*
X34281764Y-29644591D01*
X34289511Y-29627043D01*
X34294030Y-29604329D01*
X34310278Y-29580010D01*
X34319465Y-29559206D01*
X34333674Y-29544996D01*
X34348223Y-29523223D01*
X34369996Y-29508674D01*
X34384206Y-29494465D01*
X34405010Y-29485278D01*
X34429329Y-29469030D01*
X34452043Y-29464511D01*
X34469591Y-29456764D01*
X34520952Y-29450805D01*
X34525000Y-29450000D01*
X35475000Y-29450000D01*
X35479047Y-29450805D01*
G37*
G36*
X31454047Y-29400805D02*
G01*
X31505408Y-29406764D01*
X31522954Y-29414511D01*
X31545671Y-29419030D01*
X31569991Y-29435280D01*
X31590793Y-29444465D01*
X31605000Y-29458672D01*
X31626777Y-29473223D01*
X31641327Y-29494999D01*
X31655534Y-29509206D01*
X31664718Y-29530006D01*
X31680970Y-29554329D01*
X31685489Y-29577048D01*
X31693235Y-29594591D01*
X31699192Y-29645940D01*
X31700000Y-29650000D01*
X31700000Y-30350000D01*
X31699192Y-30354059D01*
X31693235Y-30405408D01*
X31685489Y-30422950D01*
X31680970Y-30445671D01*
X31664716Y-30469995D01*
X31655534Y-30490793D01*
X31641329Y-30504997D01*
X31626777Y-30526777D01*
X31604997Y-30541329D01*
X31590793Y-30555534D01*
X31569995Y-30564716D01*
X31545671Y-30580970D01*
X31522950Y-30585489D01*
X31505408Y-30593235D01*
X31454061Y-30599192D01*
X31450000Y-30600000D01*
X30550000Y-30600000D01*
X30545941Y-30599192D01*
X30494591Y-30593235D01*
X30477048Y-30585489D01*
X30454329Y-30580970D01*
X30430006Y-30564718D01*
X30409206Y-30555534D01*
X30394999Y-30541327D01*
X30373223Y-30526777D01*
X30358672Y-30505000D01*
X30344465Y-30490793D01*
X30335280Y-30469991D01*
X30319030Y-30445671D01*
X30314511Y-30422954D01*
X30306764Y-30405408D01*
X30300805Y-30354049D01*
X30300000Y-30350000D01*
X30300000Y-29650000D01*
X30300804Y-29645953D01*
X30306764Y-29594591D01*
X30314511Y-29577043D01*
X30319030Y-29554329D01*
X30335278Y-29530010D01*
X30344465Y-29509206D01*
X30358674Y-29494996D01*
X30373223Y-29473223D01*
X30394996Y-29458674D01*
X30409206Y-29444465D01*
X30430010Y-29435278D01*
X30454329Y-29419030D01*
X30477043Y-29414511D01*
X30494591Y-29406764D01*
X30545952Y-29400805D01*
X30550000Y-29400000D01*
X31450000Y-29400000D01*
X31454047Y-29400805D01*
G37*
G36*
X39246742Y-27506601D02*
G01*
X39400687Y-27570367D01*
X39539234Y-27662941D01*
X39657059Y-27780766D01*
X39749633Y-27919313D01*
X39813399Y-28073258D01*
X39845907Y-28236685D01*
X39845907Y-28403315D01*
X39813399Y-28566742D01*
X39749633Y-28720687D01*
X39657059Y-28859234D01*
X39539234Y-28977059D01*
X39400687Y-29069633D01*
X39246742Y-29133399D01*
X39083315Y-29165907D01*
X38916685Y-29165907D01*
X38753258Y-29133399D01*
X38599313Y-29069633D01*
X38460766Y-28977059D01*
X38342941Y-28859234D01*
X38250367Y-28720687D01*
X38186601Y-28566742D01*
X38154093Y-28403315D01*
X38154093Y-28236685D01*
X38186601Y-28073258D01*
X38250367Y-27919313D01*
X38342941Y-27780766D01*
X38460766Y-27662941D01*
X38599313Y-27570367D01*
X38753258Y-27506601D01*
X38916685Y-27474093D01*
X39083315Y-27474093D01*
X39246742Y-27506601D01*
G37*
G36*
X54486742Y-27506601D02*
G01*
X54640687Y-27570367D01*
X54779234Y-27662941D01*
X54897059Y-27780766D01*
X54989633Y-27919313D01*
X55053399Y-28073258D01*
X55085907Y-28236685D01*
X55085907Y-28403315D01*
X55053399Y-28566742D01*
X54989633Y-28720687D01*
X54897059Y-28859234D01*
X54779234Y-28977059D01*
X54640687Y-29069633D01*
X54486742Y-29133399D01*
X54323315Y-29165907D01*
X54156685Y-29165907D01*
X53993258Y-29133399D01*
X53839313Y-29069633D01*
X53700766Y-28977059D01*
X53582941Y-28859234D01*
X53490367Y-28720687D01*
X53426601Y-28566742D01*
X53394093Y-28403315D01*
X53394093Y-28236685D01*
X53426601Y-28073258D01*
X53490367Y-27919313D01*
X53582941Y-27780766D01*
X53700766Y-27662941D01*
X53839313Y-27570367D01*
X53993258Y-27506601D01*
X54156685Y-27474093D01*
X54323315Y-27474093D01*
X54486742Y-27506601D01*
G37*
G36*
X31454047Y-27400805D02*
G01*
X31505408Y-27406764D01*
X31522954Y-27414511D01*
X31545671Y-27419030D01*
X31569991Y-27435280D01*
X31590793Y-27444465D01*
X31605000Y-27458672D01*
X31626777Y-27473223D01*
X31641327Y-27494999D01*
X31655534Y-27509206D01*
X31664718Y-27530006D01*
X31680970Y-27554329D01*
X31685489Y-27577048D01*
X31693235Y-27594591D01*
X31699192Y-27645940D01*
X31700000Y-27650000D01*
X31700000Y-28350000D01*
X31699192Y-28354059D01*
X31693235Y-28405408D01*
X31685489Y-28422950D01*
X31680970Y-28445671D01*
X31664716Y-28469995D01*
X31655534Y-28490793D01*
X31641329Y-28504997D01*
X31626777Y-28526777D01*
X31604997Y-28541329D01*
X31590793Y-28555534D01*
X31569995Y-28564716D01*
X31545671Y-28580970D01*
X31522950Y-28585489D01*
X31505408Y-28593235D01*
X31454061Y-28599192D01*
X31450000Y-28600000D01*
X30550000Y-28600000D01*
X30545941Y-28599192D01*
X30494591Y-28593235D01*
X30477048Y-28585489D01*
X30454329Y-28580970D01*
X30430006Y-28564718D01*
X30409206Y-28555534D01*
X30394999Y-28541327D01*
X30373223Y-28526777D01*
X30358672Y-28505000D01*
X30344465Y-28490793D01*
X30335280Y-28469991D01*
X30319030Y-28445671D01*
X30314511Y-28422954D01*
X30306764Y-28405408D01*
X30300805Y-28354049D01*
X30300000Y-28350000D01*
X30300000Y-27650000D01*
X30300804Y-27645953D01*
X30306764Y-27594591D01*
X30314511Y-27577043D01*
X30319030Y-27554329D01*
X30335278Y-27530010D01*
X30344465Y-27509206D01*
X30358674Y-27494996D01*
X30373223Y-27473223D01*
X30394996Y-27458674D01*
X30409206Y-27444465D01*
X30430010Y-27435278D01*
X30454329Y-27419030D01*
X30477043Y-27414511D01*
X30494591Y-27406764D01*
X30545952Y-27400805D01*
X30550000Y-27400000D01*
X31450000Y-27400000D01*
X31454047Y-27400805D01*
G37*
G36*
X35479047Y-27375805D02*
G01*
X35530408Y-27381764D01*
X35547954Y-27389511D01*
X35570671Y-27394030D01*
X35594991Y-27410280D01*
X35615793Y-27419465D01*
X35630000Y-27433672D01*
X35651777Y-27448223D01*
X35666327Y-27469999D01*
X35680534Y-27484206D01*
X35689718Y-27505006D01*
X35705970Y-27529329D01*
X35710489Y-27552048D01*
X35718235Y-27569591D01*
X35724192Y-27620940D01*
X35725000Y-27625000D01*
X35725000Y-28300000D01*
X35724192Y-28304059D01*
X35718235Y-28355408D01*
X35710489Y-28372950D01*
X35705970Y-28395671D01*
X35689716Y-28419995D01*
X35680534Y-28440793D01*
X35666329Y-28454997D01*
X35651777Y-28476777D01*
X35629997Y-28491329D01*
X35615793Y-28505534D01*
X35594995Y-28514716D01*
X35570671Y-28530970D01*
X35547950Y-28535489D01*
X35530408Y-28543235D01*
X35479061Y-28549192D01*
X35475000Y-28550000D01*
X34525000Y-28550000D01*
X34520941Y-28549192D01*
X34469591Y-28543235D01*
X34452048Y-28535489D01*
X34429329Y-28530970D01*
X34405006Y-28514718D01*
X34384206Y-28505534D01*
X34369999Y-28491327D01*
X34348223Y-28476777D01*
X34333672Y-28455000D01*
X34319465Y-28440793D01*
X34310280Y-28419991D01*
X34294030Y-28395671D01*
X34289511Y-28372954D01*
X34281764Y-28355408D01*
X34275805Y-28304049D01*
X34275000Y-28300000D01*
X34275000Y-27625000D01*
X34275804Y-27620953D01*
X34281764Y-27569591D01*
X34289511Y-27552043D01*
X34294030Y-27529329D01*
X34310278Y-27505010D01*
X34319465Y-27484206D01*
X34333674Y-27469996D01*
X34348223Y-27448223D01*
X34369996Y-27433674D01*
X34384206Y-27419465D01*
X34405010Y-27410278D01*
X34429329Y-27394030D01*
X34452043Y-27389511D01*
X34469591Y-27381764D01*
X34520952Y-27375805D01*
X34525000Y-27375000D01*
X35475000Y-27375000D01*
X35479047Y-27375805D01*
G37*
G36*
X81800000Y-27800000D02*
G01*
X80200000Y-27800000D01*
X80200000Y-26200000D01*
X81800000Y-26200000D01*
X81800000Y-27800000D01*
G37*
G36*
X84732228Y-26234448D02*
G01*
X84877117Y-26294463D01*
X85007515Y-26381592D01*
X85118408Y-26492485D01*
X85205537Y-26622883D01*
X85265552Y-26767772D01*
X85296148Y-26921586D01*
X85296148Y-27078414D01*
X85265552Y-27232228D01*
X85205537Y-27377117D01*
X85118408Y-27507515D01*
X85007515Y-27618408D01*
X84877117Y-27705537D01*
X84732228Y-27765552D01*
X84578414Y-27796148D01*
X84421586Y-27796148D01*
X84267772Y-27765552D01*
X84122883Y-27705537D01*
X83992485Y-27618408D01*
X83881592Y-27507515D01*
X83794463Y-27377117D01*
X83734448Y-27232228D01*
X83703852Y-27078414D01*
X83703852Y-26921586D01*
X83734448Y-26767772D01*
X83794463Y-26622883D01*
X83881592Y-26492485D01*
X83992485Y-26381592D01*
X84122883Y-26294463D01*
X84267772Y-26234448D01*
X84421586Y-26203852D01*
X84578414Y-26203852D01*
X84732228Y-26234448D01*
G37*
G36*
X18470000Y-27280000D02*
G01*
X16470000Y-27280000D01*
X16470000Y-25280000D01*
X18470000Y-25280000D01*
X18470000Y-27280000D01*
G37*
G36*
X20300285Y-25323060D02*
G01*
X20481397Y-25398079D01*
X20644393Y-25506990D01*
X20783010Y-25645607D01*
X20891921Y-25808603D01*
X20966940Y-25989715D01*
X21005185Y-26181983D01*
X21005185Y-26378017D01*
X20966940Y-26570285D01*
X20891921Y-26751397D01*
X20783010Y-26914393D01*
X20644393Y-27053010D01*
X20481397Y-27161921D01*
X20300285Y-27236940D01*
X20108017Y-27275185D01*
X19911983Y-27275185D01*
X19719715Y-27236940D01*
X19538603Y-27161921D01*
X19375607Y-27053010D01*
X19236990Y-26914393D01*
X19128079Y-26751397D01*
X19053060Y-26570285D01*
X19014815Y-26378017D01*
X19014815Y-26181983D01*
X19053060Y-25989715D01*
X19128079Y-25808603D01*
X19236990Y-25645607D01*
X19375607Y-25506990D01*
X19538603Y-25398079D01*
X19719715Y-25323060D01*
X19911983Y-25284815D01*
X20108017Y-25284815D01*
X20300285Y-25323060D01*
G37*
G36*
X22840285Y-25323060D02*
G01*
X23021397Y-25398079D01*
X23184393Y-25506990D01*
X23323010Y-25645607D01*
X23431921Y-25808603D01*
X23506940Y-25989715D01*
X23545185Y-26181983D01*
X23545185Y-26378017D01*
X23506940Y-26570285D01*
X23431921Y-26751397D01*
X23323010Y-26914393D01*
X23184393Y-27053010D01*
X23021397Y-27161921D01*
X22840285Y-27236940D01*
X22648017Y-27275185D01*
X22451983Y-27275185D01*
X22259715Y-27236940D01*
X22078603Y-27161921D01*
X21915607Y-27053010D01*
X21776990Y-26914393D01*
X21668079Y-26751397D01*
X21593060Y-26570285D01*
X21554815Y-26378017D01*
X21554815Y-26181983D01*
X21593060Y-25989715D01*
X21668079Y-25808603D01*
X21776990Y-25645607D01*
X21915607Y-25506990D01*
X22078603Y-25398079D01*
X22259715Y-25323060D01*
X22451983Y-25284815D01*
X22648017Y-25284815D01*
X22840285Y-25323060D01*
G37*
G36*
X75304047Y-25275805D02*
G01*
X75355408Y-25281764D01*
X75372954Y-25289511D01*
X75395671Y-25294030D01*
X75419991Y-25310280D01*
X75440793Y-25319465D01*
X75455000Y-25333672D01*
X75476777Y-25348223D01*
X75491327Y-25369999D01*
X75505534Y-25384206D01*
X75514718Y-25405006D01*
X75530970Y-25429329D01*
X75535489Y-25452048D01*
X75543235Y-25469591D01*
X75549192Y-25520940D01*
X75550000Y-25525000D01*
X75550000Y-26475000D01*
X75549192Y-26479059D01*
X75543235Y-26530408D01*
X75535489Y-26547950D01*
X75530970Y-26570671D01*
X75514716Y-26594995D01*
X75505534Y-26615793D01*
X75491329Y-26629997D01*
X75476777Y-26651777D01*
X75454997Y-26666329D01*
X75440793Y-26680534D01*
X75419995Y-26689716D01*
X75395671Y-26705970D01*
X75372950Y-26710489D01*
X75355408Y-26718235D01*
X75304061Y-26724192D01*
X75300000Y-26725000D01*
X74625000Y-26725000D01*
X74620941Y-26724192D01*
X74569591Y-26718235D01*
X74552048Y-26710489D01*
X74529329Y-26705970D01*
X74505006Y-26689718D01*
X74484206Y-26680534D01*
X74469999Y-26666327D01*
X74448223Y-26651777D01*
X74433672Y-26630000D01*
X74419465Y-26615793D01*
X74410280Y-26594991D01*
X74394030Y-26570671D01*
X74389511Y-26547954D01*
X74381764Y-26530408D01*
X74375805Y-26479049D01*
X74375000Y-26475000D01*
X74375000Y-25525000D01*
X74375804Y-25520953D01*
X74381764Y-25469591D01*
X74389511Y-25452043D01*
X74394030Y-25429329D01*
X74410278Y-25405010D01*
X74419465Y-25384206D01*
X74433674Y-25369996D01*
X74448223Y-25348223D01*
X74469996Y-25333674D01*
X74484206Y-25319465D01*
X74505010Y-25310278D01*
X74529329Y-25294030D01*
X74552043Y-25289511D01*
X74569591Y-25281764D01*
X74620952Y-25275805D01*
X74625000Y-25275000D01*
X75300000Y-25275000D01*
X75304047Y-25275805D01*
G37*
G36*
X77379047Y-25275805D02*
G01*
X77430408Y-25281764D01*
X77447954Y-25289511D01*
X77470671Y-25294030D01*
X77494991Y-25310280D01*
X77515793Y-25319465D01*
X77530000Y-25333672D01*
X77551777Y-25348223D01*
X77566327Y-25369999D01*
X77580534Y-25384206D01*
X77589718Y-25405006D01*
X77605970Y-25429329D01*
X77610489Y-25452048D01*
X77618235Y-25469591D01*
X77624192Y-25520940D01*
X77625000Y-25525000D01*
X77625000Y-26475000D01*
X77624192Y-26479059D01*
X77618235Y-26530408D01*
X77610489Y-26547950D01*
X77605970Y-26570671D01*
X77589716Y-26594995D01*
X77580534Y-26615793D01*
X77566329Y-26629997D01*
X77551777Y-26651777D01*
X77529997Y-26666329D01*
X77515793Y-26680534D01*
X77494995Y-26689716D01*
X77470671Y-26705970D01*
X77447950Y-26710489D01*
X77430408Y-26718235D01*
X77379061Y-26724192D01*
X77375000Y-26725000D01*
X76700000Y-26725000D01*
X76695941Y-26724192D01*
X76644591Y-26718235D01*
X76627048Y-26710489D01*
X76604329Y-26705970D01*
X76580006Y-26689718D01*
X76559206Y-26680534D01*
X76544999Y-26666327D01*
X76523223Y-26651777D01*
X76508672Y-26630000D01*
X76494465Y-26615793D01*
X76485280Y-26594991D01*
X76469030Y-26570671D01*
X76464511Y-26547954D01*
X76456764Y-26530408D01*
X76450805Y-26479049D01*
X76450000Y-26475000D01*
X76450000Y-25525000D01*
X76450804Y-25520953D01*
X76456764Y-25469591D01*
X76464511Y-25452043D01*
X76469030Y-25429329D01*
X76485278Y-25405010D01*
X76494465Y-25384206D01*
X76508674Y-25369996D01*
X76523223Y-25348223D01*
X76544996Y-25333674D01*
X76559206Y-25319465D01*
X76580010Y-25310278D01*
X76604329Y-25294030D01*
X76627043Y-25289511D01*
X76644591Y-25281764D01*
X76695952Y-25275805D01*
X76700000Y-25275000D01*
X77375000Y-25275000D01*
X77379047Y-25275805D01*
G37*
G36*
X59354047Y-25300805D02*
G01*
X59405408Y-25306764D01*
X59422954Y-25314511D01*
X59445671Y-25319030D01*
X59469991Y-25335280D01*
X59490793Y-25344465D01*
X59505000Y-25358672D01*
X59526777Y-25373223D01*
X59541327Y-25394999D01*
X59555534Y-25409206D01*
X59564718Y-25430006D01*
X59580970Y-25454329D01*
X59585489Y-25477048D01*
X59593235Y-25494591D01*
X59599192Y-25545940D01*
X59600000Y-25550000D01*
X59600000Y-26450000D01*
X59599192Y-26454059D01*
X59593235Y-26505408D01*
X59585489Y-26522950D01*
X59580970Y-26545671D01*
X59564716Y-26569995D01*
X59555534Y-26590793D01*
X59541329Y-26604997D01*
X59526777Y-26626777D01*
X59504997Y-26641329D01*
X59490793Y-26655534D01*
X59469995Y-26664716D01*
X59445671Y-26680970D01*
X59422950Y-26685489D01*
X59405408Y-26693235D01*
X59354061Y-26699192D01*
X59350000Y-26700000D01*
X58650000Y-26700000D01*
X58645941Y-26699192D01*
X58594591Y-26693235D01*
X58577048Y-26685489D01*
X58554329Y-26680970D01*
X58530006Y-26664718D01*
X58509206Y-26655534D01*
X58494999Y-26641327D01*
X58473223Y-26626777D01*
X58458672Y-26605000D01*
X58444465Y-26590793D01*
X58435280Y-26569991D01*
X58419030Y-26545671D01*
X58414511Y-26522954D01*
X58406764Y-26505408D01*
X58400805Y-26454049D01*
X58400000Y-26450000D01*
X58400000Y-25550000D01*
X58400804Y-25545953D01*
X58406764Y-25494591D01*
X58414511Y-25477043D01*
X58419030Y-25454329D01*
X58435278Y-25430010D01*
X58444465Y-25409206D01*
X58458674Y-25394996D01*
X58473223Y-25373223D01*
X58494996Y-25358674D01*
X58509206Y-25344465D01*
X58530010Y-25335278D01*
X58554329Y-25319030D01*
X58577043Y-25314511D01*
X58594591Y-25306764D01*
X58645952Y-25300805D01*
X58650000Y-25300000D01*
X59350000Y-25300000D01*
X59354047Y-25300805D01*
G37*
G36*
X61354047Y-25300805D02*
G01*
X61405408Y-25306764D01*
X61422954Y-25314511D01*
X61445671Y-25319030D01*
X61469991Y-25335280D01*
X61490793Y-25344465D01*
X61505000Y-25358672D01*
X61526777Y-25373223D01*
X61541327Y-25394999D01*
X61555534Y-25409206D01*
X61564718Y-25430006D01*
X61580970Y-25454329D01*
X61585489Y-25477048D01*
X61593235Y-25494591D01*
X61599192Y-25545940D01*
X61600000Y-25550000D01*
X61600000Y-26450000D01*
X61599192Y-26454059D01*
X61593235Y-26505408D01*
X61585489Y-26522950D01*
X61580970Y-26545671D01*
X61564716Y-26569995D01*
X61555534Y-26590793D01*
X61541329Y-26604997D01*
X61526777Y-26626777D01*
X61504997Y-26641329D01*
X61490793Y-26655534D01*
X61469995Y-26664716D01*
X61445671Y-26680970D01*
X61422950Y-26685489D01*
X61405408Y-26693235D01*
X61354061Y-26699192D01*
X61350000Y-26700000D01*
X60650000Y-26700000D01*
X60645941Y-26699192D01*
X60594591Y-26693235D01*
X60577048Y-26685489D01*
X60554329Y-26680970D01*
X60530006Y-26664718D01*
X60509206Y-26655534D01*
X60494999Y-26641327D01*
X60473223Y-26626777D01*
X60458672Y-26605000D01*
X60444465Y-26590793D01*
X60435280Y-26569991D01*
X60419030Y-26545671D01*
X60414511Y-26522954D01*
X60406764Y-26505408D01*
X60400805Y-26454049D01*
X60400000Y-26450000D01*
X60400000Y-25550000D01*
X60400804Y-25545953D01*
X60406764Y-25494591D01*
X60414511Y-25477043D01*
X60419030Y-25454329D01*
X60435278Y-25430010D01*
X60444465Y-25409206D01*
X60458674Y-25394996D01*
X60473223Y-25373223D01*
X60494996Y-25358674D01*
X60509206Y-25344465D01*
X60530010Y-25335278D01*
X60554329Y-25319030D01*
X60577043Y-25314511D01*
X60594591Y-25306764D01*
X60645952Y-25300805D01*
X60650000Y-25300000D01*
X61350000Y-25300000D01*
X61354047Y-25300805D01*
G37*
G36*
X64354047Y-25300805D02*
G01*
X64405408Y-25306764D01*
X64422954Y-25314511D01*
X64445671Y-25319030D01*
X64469991Y-25335280D01*
X64490793Y-25344465D01*
X64505000Y-25358672D01*
X64526777Y-25373223D01*
X64541327Y-25394999D01*
X64555534Y-25409206D01*
X64564718Y-25430006D01*
X64580970Y-25454329D01*
X64585489Y-25477048D01*
X64593235Y-25494591D01*
X64599192Y-25545940D01*
X64600000Y-25550000D01*
X64600000Y-26450000D01*
X64599192Y-26454059D01*
X64593235Y-26505408D01*
X64585489Y-26522950D01*
X64580970Y-26545671D01*
X64564716Y-26569995D01*
X64555534Y-26590793D01*
X64541329Y-26604997D01*
X64526777Y-26626777D01*
X64504997Y-26641329D01*
X64490793Y-26655534D01*
X64469995Y-26664716D01*
X64445671Y-26680970D01*
X64422950Y-26685489D01*
X64405408Y-26693235D01*
X64354061Y-26699192D01*
X64350000Y-26700000D01*
X63650000Y-26700000D01*
X63645941Y-26699192D01*
X63594591Y-26693235D01*
X63577048Y-26685489D01*
X63554329Y-26680970D01*
X63530006Y-26664718D01*
X63509206Y-26655534D01*
X63494999Y-26641327D01*
X63473223Y-26626777D01*
X63458672Y-26605000D01*
X63444465Y-26590793D01*
X63435280Y-26569991D01*
X63419030Y-26545671D01*
X63414511Y-26522954D01*
X63406764Y-26505408D01*
X63400805Y-26454049D01*
X63400000Y-26450000D01*
X63400000Y-25550000D01*
X63400804Y-25545953D01*
X63406764Y-25494591D01*
X63414511Y-25477043D01*
X63419030Y-25454329D01*
X63435278Y-25430010D01*
X63444465Y-25409206D01*
X63458674Y-25394996D01*
X63473223Y-25373223D01*
X63494996Y-25358674D01*
X63509206Y-25344465D01*
X63530010Y-25335278D01*
X63554329Y-25319030D01*
X63577043Y-25314511D01*
X63594591Y-25306764D01*
X63645952Y-25300805D01*
X63650000Y-25300000D01*
X64350000Y-25300000D01*
X64354047Y-25300805D01*
G37*
G36*
X66354047Y-25300805D02*
G01*
X66405408Y-25306764D01*
X66422954Y-25314511D01*
X66445671Y-25319030D01*
X66469991Y-25335280D01*
X66490793Y-25344465D01*
X66505000Y-25358672D01*
X66526777Y-25373223D01*
X66541327Y-25394999D01*
X66555534Y-25409206D01*
X66564718Y-25430006D01*
X66580970Y-25454329D01*
X66585489Y-25477048D01*
X66593235Y-25494591D01*
X66599192Y-25545940D01*
X66600000Y-25550000D01*
X66600000Y-26450000D01*
X66599192Y-26454059D01*
X66593235Y-26505408D01*
X66585489Y-26522950D01*
X66580970Y-26545671D01*
X66564716Y-26569995D01*
X66555534Y-26590793D01*
X66541329Y-26604997D01*
X66526777Y-26626777D01*
X66504997Y-26641329D01*
X66490793Y-26655534D01*
X66469995Y-26664716D01*
X66445671Y-26680970D01*
X66422950Y-26685489D01*
X66405408Y-26693235D01*
X66354061Y-26699192D01*
X66350000Y-26700000D01*
X65650000Y-26700000D01*
X65645941Y-26699192D01*
X65594591Y-26693235D01*
X65577048Y-26685489D01*
X65554329Y-26680970D01*
X65530006Y-26664718D01*
X65509206Y-26655534D01*
X65494999Y-26641327D01*
X65473223Y-26626777D01*
X65458672Y-26605000D01*
X65444465Y-26590793D01*
X65435280Y-26569991D01*
X65419030Y-26545671D01*
X65414511Y-26522954D01*
X65406764Y-26505408D01*
X65400805Y-26454049D01*
X65400000Y-26450000D01*
X65400000Y-25550000D01*
X65400804Y-25545953D01*
X65406764Y-25494591D01*
X65414511Y-25477043D01*
X65419030Y-25454329D01*
X65435278Y-25430010D01*
X65444465Y-25409206D01*
X65458674Y-25394996D01*
X65473223Y-25373223D01*
X65494996Y-25358674D01*
X65509206Y-25344465D01*
X65530010Y-25335278D01*
X65554329Y-25319030D01*
X65577043Y-25314511D01*
X65594591Y-25306764D01*
X65645952Y-25300805D01*
X65650000Y-25300000D01*
X66350000Y-25300000D01*
X66354047Y-25300805D01*
G37*
G36*
X39246742Y-24966601D02*
G01*
X39400687Y-25030367D01*
X39539234Y-25122941D01*
X39657059Y-25240766D01*
X39749633Y-25379313D01*
X39813399Y-25533258D01*
X39845907Y-25696685D01*
X39845907Y-25863315D01*
X39813399Y-26026742D01*
X39749633Y-26180687D01*
X39657059Y-26319234D01*
X39539234Y-26437059D01*
X39400687Y-26529633D01*
X39246742Y-26593399D01*
X39083315Y-26625907D01*
X38916685Y-26625907D01*
X38753258Y-26593399D01*
X38599313Y-26529633D01*
X38460766Y-26437059D01*
X38342941Y-26319234D01*
X38250367Y-26180687D01*
X38186601Y-26026742D01*
X38154093Y-25863315D01*
X38154093Y-25696685D01*
X38186601Y-25533258D01*
X38250367Y-25379313D01*
X38342941Y-25240766D01*
X38460766Y-25122941D01*
X38599313Y-25030367D01*
X38753258Y-24966601D01*
X38916685Y-24934093D01*
X39083315Y-24934093D01*
X39246742Y-24966601D01*
G37*
G36*
X54486742Y-24966601D02*
G01*
X54640687Y-25030367D01*
X54779234Y-25122941D01*
X54897059Y-25240766D01*
X54989633Y-25379313D01*
X55053399Y-25533258D01*
X55085907Y-25696685D01*
X55085907Y-25863315D01*
X55053399Y-26026742D01*
X54989633Y-26180687D01*
X54897059Y-26319234D01*
X54779234Y-26437059D01*
X54640687Y-26529633D01*
X54486742Y-26593399D01*
X54323315Y-26625907D01*
X54156685Y-26625907D01*
X53993258Y-26593399D01*
X53839313Y-26529633D01*
X53700766Y-26437059D01*
X53582941Y-26319234D01*
X53490367Y-26180687D01*
X53426601Y-26026742D01*
X53394093Y-25863315D01*
X53394093Y-25696685D01*
X53426601Y-25533258D01*
X53490367Y-25379313D01*
X53582941Y-25240766D01*
X53700766Y-25122941D01*
X53839313Y-25030367D01*
X53993258Y-24966601D01*
X54156685Y-24934093D01*
X54323315Y-24934093D01*
X54486742Y-24966601D01*
G37*
G36*
X39246742Y-22426601D02*
G01*
X39400687Y-22490367D01*
X39539234Y-22582941D01*
X39657059Y-22700766D01*
X39749633Y-22839313D01*
X39813399Y-22993258D01*
X39845907Y-23156685D01*
X39845907Y-23323315D01*
X39813399Y-23486742D01*
X39749633Y-23640687D01*
X39657059Y-23779234D01*
X39539234Y-23897059D01*
X39400687Y-23989633D01*
X39246742Y-24053399D01*
X39083315Y-24085907D01*
X38916685Y-24085907D01*
X38753258Y-24053399D01*
X38599313Y-23989633D01*
X38460766Y-23897059D01*
X38342941Y-23779234D01*
X38250367Y-23640687D01*
X38186601Y-23486742D01*
X38154093Y-23323315D01*
X38154093Y-23156685D01*
X38186601Y-22993258D01*
X38250367Y-22839313D01*
X38342941Y-22700766D01*
X38460766Y-22582941D01*
X38599313Y-22490367D01*
X38753258Y-22426601D01*
X38916685Y-22394093D01*
X39083315Y-22394093D01*
X39246742Y-22426601D01*
G37*
G36*
X54486742Y-22426601D02*
G01*
X54640687Y-22490367D01*
X54779234Y-22582941D01*
X54897059Y-22700766D01*
X54989633Y-22839313D01*
X55053399Y-22993258D01*
X55085907Y-23156685D01*
X55085907Y-23323315D01*
X55053399Y-23486742D01*
X54989633Y-23640687D01*
X54897059Y-23779234D01*
X54779234Y-23897059D01*
X54640687Y-23989633D01*
X54486742Y-24053399D01*
X54323315Y-24085907D01*
X54156685Y-24085907D01*
X53993258Y-24053399D01*
X53839313Y-23989633D01*
X53700766Y-23897059D01*
X53582941Y-23779234D01*
X53490367Y-23640687D01*
X53426601Y-23486742D01*
X53394093Y-23323315D01*
X53394093Y-23156685D01*
X53426601Y-22993258D01*
X53490367Y-22839313D01*
X53582941Y-22700766D01*
X53700766Y-22582941D01*
X53839313Y-22490367D01*
X53993258Y-22426601D01*
X54156685Y-22394093D01*
X54323315Y-22394093D01*
X54486742Y-22426601D01*
G37*
G36*
X68004047Y-22100805D02*
G01*
X68055408Y-22106764D01*
X68072954Y-22114511D01*
X68095671Y-22119030D01*
X68119991Y-22135280D01*
X68140793Y-22144465D01*
X68155000Y-22158672D01*
X68176777Y-22173223D01*
X68191327Y-22194999D01*
X68205534Y-22209206D01*
X68214718Y-22230006D01*
X68230970Y-22254329D01*
X68235489Y-22277048D01*
X68243235Y-22294591D01*
X68249192Y-22345940D01*
X68250000Y-22350000D01*
X68250000Y-23650000D01*
X68249192Y-23654059D01*
X68243235Y-23705408D01*
X68235489Y-23722950D01*
X68230970Y-23745671D01*
X68214716Y-23769995D01*
X68205534Y-23790793D01*
X68191329Y-23804997D01*
X68176777Y-23826777D01*
X68154997Y-23841329D01*
X68140793Y-23855534D01*
X68119995Y-23864716D01*
X68095671Y-23880970D01*
X68072950Y-23885489D01*
X68055408Y-23893235D01*
X68004061Y-23899192D01*
X68000000Y-23900000D01*
X66000000Y-23900000D01*
X65995941Y-23899192D01*
X65944591Y-23893235D01*
X65927048Y-23885489D01*
X65904329Y-23880970D01*
X65880006Y-23864718D01*
X65859206Y-23855534D01*
X65844999Y-23841327D01*
X65823223Y-23826777D01*
X65808672Y-23805000D01*
X65794465Y-23790793D01*
X65785280Y-23769991D01*
X65769030Y-23745671D01*
X65764511Y-23722954D01*
X65756764Y-23705408D01*
X65750805Y-23654049D01*
X65750000Y-23650000D01*
X65750000Y-22350000D01*
X65750804Y-22345953D01*
X65756764Y-22294591D01*
X65764511Y-22277043D01*
X65769030Y-22254329D01*
X65785278Y-22230010D01*
X65794465Y-22209206D01*
X65808674Y-22194996D01*
X65823223Y-22173223D01*
X65844996Y-22158674D01*
X65859206Y-22144465D01*
X65880010Y-22135278D01*
X65904329Y-22119030D01*
X65927043Y-22114511D01*
X65944591Y-22106764D01*
X65995952Y-22100805D01*
X66000000Y-22100000D01*
X68000000Y-22100000D01*
X68004047Y-22100805D01*
G37*
G36*
X72004047Y-22100805D02*
G01*
X72055408Y-22106764D01*
X72072954Y-22114511D01*
X72095671Y-22119030D01*
X72119991Y-22135280D01*
X72140793Y-22144465D01*
X72155000Y-22158672D01*
X72176777Y-22173223D01*
X72191327Y-22194999D01*
X72205534Y-22209206D01*
X72214718Y-22230006D01*
X72230970Y-22254329D01*
X72235489Y-22277048D01*
X72243235Y-22294591D01*
X72249192Y-22345940D01*
X72250000Y-22350000D01*
X72250000Y-23650000D01*
X72249192Y-23654059D01*
X72243235Y-23705408D01*
X72235489Y-23722950D01*
X72230970Y-23745671D01*
X72214716Y-23769995D01*
X72205534Y-23790793D01*
X72191329Y-23804997D01*
X72176777Y-23826777D01*
X72154997Y-23841329D01*
X72140793Y-23855534D01*
X72119995Y-23864716D01*
X72095671Y-23880970D01*
X72072950Y-23885489D01*
X72055408Y-23893235D01*
X72004061Y-23899192D01*
X72000000Y-23900000D01*
X70000000Y-23900000D01*
X69995941Y-23899192D01*
X69944591Y-23893235D01*
X69927048Y-23885489D01*
X69904329Y-23880970D01*
X69880006Y-23864718D01*
X69859206Y-23855534D01*
X69844999Y-23841327D01*
X69823223Y-23826777D01*
X69808672Y-23805000D01*
X69794465Y-23790793D01*
X69785280Y-23769991D01*
X69769030Y-23745671D01*
X69764511Y-23722954D01*
X69756764Y-23705408D01*
X69750805Y-23654049D01*
X69750000Y-23650000D01*
X69750000Y-22350000D01*
X69750804Y-22345953D01*
X69756764Y-22294591D01*
X69764511Y-22277043D01*
X69769030Y-22254329D01*
X69785278Y-22230010D01*
X69794465Y-22209206D01*
X69808674Y-22194996D01*
X69823223Y-22173223D01*
X69844996Y-22158674D01*
X69859206Y-22144465D01*
X69880010Y-22135278D01*
X69904329Y-22119030D01*
X69927043Y-22114511D01*
X69944591Y-22106764D01*
X69995952Y-22100805D01*
X70000000Y-22100000D01*
X72000000Y-22100000D01*
X72004047Y-22100805D01*
G37*
G36*
X31454047Y-22400805D02*
G01*
X31505408Y-22406764D01*
X31522954Y-22414511D01*
X31545671Y-22419030D01*
X31569991Y-22435280D01*
X31590793Y-22444465D01*
X31605000Y-22458672D01*
X31626777Y-22473223D01*
X31641327Y-22494999D01*
X31655534Y-22509206D01*
X31664718Y-22530006D01*
X31680970Y-22554329D01*
X31685489Y-22577048D01*
X31693235Y-22594591D01*
X31699192Y-22645940D01*
X31700000Y-22650000D01*
X31700000Y-23350000D01*
X31699192Y-23354059D01*
X31693235Y-23405408D01*
X31685489Y-23422950D01*
X31680970Y-23445671D01*
X31664716Y-23469995D01*
X31655534Y-23490793D01*
X31641329Y-23504997D01*
X31626777Y-23526777D01*
X31604997Y-23541329D01*
X31590793Y-23555534D01*
X31569995Y-23564716D01*
X31545671Y-23580970D01*
X31522950Y-23585489D01*
X31505408Y-23593235D01*
X31454061Y-23599192D01*
X31450000Y-23600000D01*
X30550000Y-23600000D01*
X30545941Y-23599192D01*
X30494591Y-23593235D01*
X30477048Y-23585489D01*
X30454329Y-23580970D01*
X30430006Y-23564718D01*
X30409206Y-23555534D01*
X30394999Y-23541327D01*
X30373223Y-23526777D01*
X30358672Y-23505000D01*
X30344465Y-23490793D01*
X30335280Y-23469991D01*
X30319030Y-23445671D01*
X30314511Y-23422954D01*
X30306764Y-23405408D01*
X30300805Y-23354049D01*
X30300000Y-23350000D01*
X30300000Y-22650000D01*
X30300804Y-22645953D01*
X30306764Y-22594591D01*
X30314511Y-22577043D01*
X30319030Y-22554329D01*
X30335278Y-22530010D01*
X30344465Y-22509206D01*
X30358674Y-22494996D01*
X30373223Y-22473223D01*
X30394996Y-22458674D01*
X30409206Y-22444465D01*
X30430010Y-22435278D01*
X30454329Y-22419030D01*
X30477043Y-22414511D01*
X30494591Y-22406764D01*
X30545952Y-22400805D01*
X30550000Y-22400000D01*
X31450000Y-22400000D01*
X31454047Y-22400805D01*
G37*
G36*
X58707403Y-22661418D02*
G01*
X58756066Y-22693934D01*
X58788582Y-22742597D01*
X58800000Y-22800000D01*
X58800000Y-23100000D01*
X58788582Y-23157403D01*
X58756066Y-23206066D01*
X58707403Y-23238582D01*
X58650000Y-23250000D01*
X57475000Y-23250000D01*
X57417597Y-23238582D01*
X57368934Y-23206066D01*
X57336418Y-23157403D01*
X57325000Y-23100000D01*
X57325000Y-22800000D01*
X57336418Y-22742597D01*
X57368934Y-22693934D01*
X57417597Y-22661418D01*
X57475000Y-22650000D01*
X58650000Y-22650000D01*
X58707403Y-22661418D01*
G37*
G36*
X35290285Y-21043060D02*
G01*
X35471397Y-21118079D01*
X35634393Y-21226990D01*
X35773010Y-21365607D01*
X35881921Y-21528603D01*
X35956940Y-21709715D01*
X35995185Y-21901983D01*
X35995185Y-22098017D01*
X35956940Y-22290285D01*
X35881921Y-22471397D01*
X35773010Y-22634393D01*
X35634393Y-22773010D01*
X35471397Y-22881921D01*
X35290285Y-22956940D01*
X35098017Y-22995185D01*
X34901983Y-22995185D01*
X34709715Y-22956940D01*
X34528603Y-22881921D01*
X34365607Y-22773010D01*
X34226990Y-22634393D01*
X34118079Y-22471397D01*
X34043060Y-22290285D01*
X34004815Y-22098017D01*
X34004815Y-21901983D01*
X34043060Y-21709715D01*
X34118079Y-21528603D01*
X34226990Y-21365607D01*
X34365607Y-21226990D01*
X34528603Y-21118079D01*
X34709715Y-21043060D01*
X34901983Y-21004815D01*
X35098017Y-21004815D01*
X35290285Y-21043060D01*
G37*
G36*
X60582403Y-21711418D02*
G01*
X60631066Y-21743934D01*
X60663582Y-21792597D01*
X60675000Y-21850000D01*
X60675000Y-22150000D01*
X60663582Y-22207403D01*
X60631066Y-22256066D01*
X60582403Y-22288582D01*
X60525000Y-22300000D01*
X59350000Y-22300000D01*
X59292597Y-22288582D01*
X59243934Y-22256066D01*
X59211418Y-22207403D01*
X59200000Y-22150000D01*
X59200000Y-21850000D01*
X59211418Y-21792597D01*
X59243934Y-21743934D01*
X59292597Y-21711418D01*
X59350000Y-21700000D01*
X60525000Y-21700000D01*
X60582403Y-21711418D01*
G37*
G36*
X31454047Y-20400805D02*
G01*
X31505408Y-20406764D01*
X31522954Y-20414511D01*
X31545671Y-20419030D01*
X31569991Y-20435280D01*
X31590793Y-20444465D01*
X31605000Y-20458672D01*
X31626777Y-20473223D01*
X31641327Y-20494999D01*
X31655534Y-20509206D01*
X31664718Y-20530006D01*
X31680970Y-20554329D01*
X31685489Y-20577048D01*
X31693235Y-20594591D01*
X31699192Y-20645940D01*
X31700000Y-20650000D01*
X31700000Y-21350000D01*
X31699192Y-21354059D01*
X31693235Y-21405408D01*
X31685489Y-21422950D01*
X31680970Y-21445671D01*
X31664716Y-21469995D01*
X31655534Y-21490793D01*
X31641329Y-21504997D01*
X31626777Y-21526777D01*
X31604997Y-21541329D01*
X31590793Y-21555534D01*
X31569995Y-21564716D01*
X31545671Y-21580970D01*
X31522950Y-21585489D01*
X31505408Y-21593235D01*
X31454061Y-21599192D01*
X31450000Y-21600000D01*
X30550000Y-21600000D01*
X30545941Y-21599192D01*
X30494591Y-21593235D01*
X30477048Y-21585489D01*
X30454329Y-21580970D01*
X30430006Y-21564718D01*
X30409206Y-21555534D01*
X30394999Y-21541327D01*
X30373223Y-21526777D01*
X30358672Y-21505000D01*
X30344465Y-21490793D01*
X30335280Y-21469991D01*
X30319030Y-21445671D01*
X30314511Y-21422954D01*
X30306764Y-21405408D01*
X30300805Y-21354049D01*
X30300000Y-21350000D01*
X30300000Y-20650000D01*
X30300804Y-20645953D01*
X30306764Y-20594591D01*
X30314511Y-20577043D01*
X30319030Y-20554329D01*
X30335278Y-20530010D01*
X30344465Y-20509206D01*
X30358674Y-20494996D01*
X30373223Y-20473223D01*
X30394996Y-20458674D01*
X30409206Y-20444465D01*
X30430010Y-20435278D01*
X30454329Y-20419030D01*
X30477043Y-20414511D01*
X30494591Y-20406764D01*
X30545952Y-20400805D01*
X30550000Y-20400000D01*
X31450000Y-20400000D01*
X31454047Y-20400805D01*
G37*
G36*
X39246742Y-19886601D02*
G01*
X39400687Y-19950367D01*
X39539234Y-20042941D01*
X39657059Y-20160766D01*
X39749633Y-20299313D01*
X39813399Y-20453258D01*
X39845907Y-20616685D01*
X39845907Y-20783315D01*
X39813399Y-20946742D01*
X39749633Y-21100687D01*
X39657059Y-21239234D01*
X39539234Y-21357059D01*
X39400687Y-21449633D01*
X39246742Y-21513399D01*
X39083315Y-21545907D01*
X38916685Y-21545907D01*
X38753258Y-21513399D01*
X38599313Y-21449633D01*
X38460766Y-21357059D01*
X38342941Y-21239234D01*
X38250367Y-21100687D01*
X38186601Y-20946742D01*
X38154093Y-20783315D01*
X38154093Y-20616685D01*
X38186601Y-20453258D01*
X38250367Y-20299313D01*
X38342941Y-20160766D01*
X38460766Y-20042941D01*
X38599313Y-19950367D01*
X38753258Y-19886601D01*
X38916685Y-19854093D01*
X39083315Y-19854093D01*
X39246742Y-19886601D01*
G37*
G36*
X54486742Y-19886601D02*
G01*
X54640687Y-19950367D01*
X54779234Y-20042941D01*
X54897059Y-20160766D01*
X54989633Y-20299313D01*
X55053399Y-20453258D01*
X55085907Y-20616685D01*
X55085907Y-20783315D01*
X55053399Y-20946742D01*
X54989633Y-21100687D01*
X54897059Y-21239234D01*
X54779234Y-21357059D01*
X54640687Y-21449633D01*
X54486742Y-21513399D01*
X54323315Y-21545907D01*
X54156685Y-21545907D01*
X53993258Y-21513399D01*
X53839313Y-21449633D01*
X53700766Y-21357059D01*
X53582941Y-21239234D01*
X53490367Y-21100687D01*
X53426601Y-20946742D01*
X53394093Y-20783315D01*
X53394093Y-20616685D01*
X53426601Y-20453258D01*
X53490367Y-20299313D01*
X53582941Y-20160766D01*
X53700766Y-20042941D01*
X53839313Y-19950367D01*
X53993258Y-19886601D01*
X54156685Y-19854093D01*
X54323315Y-19854093D01*
X54486742Y-19886601D01*
G37*
G36*
X58707403Y-20761418D02*
G01*
X58756066Y-20793934D01*
X58788582Y-20842597D01*
X58800000Y-20900000D01*
X58800000Y-21200000D01*
X58788582Y-21257403D01*
X58756066Y-21306066D01*
X58707403Y-21338582D01*
X58650000Y-21350000D01*
X57475000Y-21350000D01*
X57417597Y-21338582D01*
X57368934Y-21306066D01*
X57336418Y-21257403D01*
X57325000Y-21200000D01*
X57325000Y-20900000D01*
X57336418Y-20842597D01*
X57368934Y-20793934D01*
X57417597Y-20761418D01*
X57475000Y-20750000D01*
X58650000Y-20750000D01*
X58707403Y-20761418D01*
G37*
G36*
X39246742Y-17346601D02*
G01*
X39400687Y-17410367D01*
X39539234Y-17502941D01*
X39657059Y-17620766D01*
X39749633Y-17759313D01*
X39813399Y-17913258D01*
X39845907Y-18076685D01*
X39845907Y-18243315D01*
X39813399Y-18406742D01*
X39749633Y-18560687D01*
X39657059Y-18699234D01*
X39539234Y-18817059D01*
X39400687Y-18909633D01*
X39246742Y-18973399D01*
X39083315Y-19005907D01*
X38916685Y-19005907D01*
X38753258Y-18973399D01*
X38599313Y-18909633D01*
X38460766Y-18817059D01*
X38342941Y-18699234D01*
X38250367Y-18560687D01*
X38186601Y-18406742D01*
X38154093Y-18243315D01*
X38154093Y-18076685D01*
X38186601Y-17913258D01*
X38250367Y-17759313D01*
X38342941Y-17620766D01*
X38460766Y-17502941D01*
X38599313Y-17410367D01*
X38753258Y-17346601D01*
X38916685Y-17314093D01*
X39083315Y-17314093D01*
X39246742Y-17346601D01*
G37*
G36*
X54486742Y-17346601D02*
G01*
X54640687Y-17410367D01*
X54779234Y-17502941D01*
X54897059Y-17620766D01*
X54989633Y-17759313D01*
X55053399Y-17913258D01*
X55085907Y-18076685D01*
X55085907Y-18243315D01*
X55053399Y-18406742D01*
X54989633Y-18560687D01*
X54897059Y-18699234D01*
X54779234Y-18817059D01*
X54640687Y-18909633D01*
X54486742Y-18973399D01*
X54323315Y-19005907D01*
X54156685Y-19005907D01*
X53993258Y-18973399D01*
X53839313Y-18909633D01*
X53700766Y-18817059D01*
X53582941Y-18699234D01*
X53490367Y-18560687D01*
X53426601Y-18406742D01*
X53394093Y-18243315D01*
X53394093Y-18076685D01*
X53426601Y-17913258D01*
X53490367Y-17759313D01*
X53582941Y-17620766D01*
X53700766Y-17502941D01*
X53839313Y-17410367D01*
X53993258Y-17346601D01*
X54156685Y-17314093D01*
X54323315Y-17314093D01*
X54486742Y-17346601D01*
G37*
G36*
X83354047Y-17300805D02*
G01*
X83405408Y-17306764D01*
X83422954Y-17314511D01*
X83445671Y-17319030D01*
X83469991Y-17335280D01*
X83490793Y-17344465D01*
X83505000Y-17358672D01*
X83526777Y-17373223D01*
X83541327Y-17394999D01*
X83555534Y-17409206D01*
X83564718Y-17430006D01*
X83580970Y-17454329D01*
X83585489Y-17477048D01*
X83593235Y-17494591D01*
X83599192Y-17545940D01*
X83600000Y-17550000D01*
X83600000Y-18450000D01*
X83599192Y-18454059D01*
X83593235Y-18505408D01*
X83585489Y-18522950D01*
X83580970Y-18545671D01*
X83564716Y-18569995D01*
X83555534Y-18590793D01*
X83541329Y-18604997D01*
X83526777Y-18626777D01*
X83504997Y-18641329D01*
X83490793Y-18655534D01*
X83469995Y-18664716D01*
X83445671Y-18680970D01*
X83422950Y-18685489D01*
X83405408Y-18693235D01*
X83354061Y-18699192D01*
X83350000Y-18700000D01*
X82650000Y-18700000D01*
X82645941Y-18699192D01*
X82594591Y-18693235D01*
X82577048Y-18685489D01*
X82554329Y-18680970D01*
X82530006Y-18664718D01*
X82509206Y-18655534D01*
X82494999Y-18641327D01*
X82473223Y-18626777D01*
X82458672Y-18605000D01*
X82444465Y-18590793D01*
X82435280Y-18569991D01*
X82419030Y-18545671D01*
X82414511Y-18522954D01*
X82406764Y-18505408D01*
X82400805Y-18454049D01*
X82400000Y-18450000D01*
X82400000Y-17550000D01*
X82400804Y-17545953D01*
X82406764Y-17494591D01*
X82414511Y-17477043D01*
X82419030Y-17454329D01*
X82435278Y-17430010D01*
X82444465Y-17409206D01*
X82458674Y-17394996D01*
X82473223Y-17373223D01*
X82494996Y-17358674D01*
X82509206Y-17344465D01*
X82530010Y-17335278D01*
X82554329Y-17319030D01*
X82577043Y-17314511D01*
X82594591Y-17306764D01*
X82645952Y-17300805D01*
X82650000Y-17300000D01*
X83350000Y-17300000D01*
X83354047Y-17300805D01*
G37*
G36*
X85354047Y-17300805D02*
G01*
X85405408Y-17306764D01*
X85422954Y-17314511D01*
X85445671Y-17319030D01*
X85469991Y-17335280D01*
X85490793Y-17344465D01*
X85505000Y-17358672D01*
X85526777Y-17373223D01*
X85541327Y-17394999D01*
X85555534Y-17409206D01*
X85564718Y-17430006D01*
X85580970Y-17454329D01*
X85585489Y-17477048D01*
X85593235Y-17494591D01*
X85599192Y-17545940D01*
X85600000Y-17550000D01*
X85600000Y-18450000D01*
X85599192Y-18454059D01*
X85593235Y-18505408D01*
X85585489Y-18522950D01*
X85580970Y-18545671D01*
X85564716Y-18569995D01*
X85555534Y-18590793D01*
X85541329Y-18604997D01*
X85526777Y-18626777D01*
X85504997Y-18641329D01*
X85490793Y-18655534D01*
X85469995Y-18664716D01*
X85445671Y-18680970D01*
X85422950Y-18685489D01*
X85405408Y-18693235D01*
X85354061Y-18699192D01*
X85350000Y-18700000D01*
X84650000Y-18700000D01*
X84645941Y-18699192D01*
X84594591Y-18693235D01*
X84577048Y-18685489D01*
X84554329Y-18680970D01*
X84530006Y-18664718D01*
X84509206Y-18655534D01*
X84494999Y-18641327D01*
X84473223Y-18626777D01*
X84458672Y-18605000D01*
X84444465Y-18590793D01*
X84435280Y-18569991D01*
X84419030Y-18545671D01*
X84414511Y-18522954D01*
X84406764Y-18505408D01*
X84400805Y-18454049D01*
X84400000Y-18450000D01*
X84400000Y-17550000D01*
X84400804Y-17545953D01*
X84406764Y-17494591D01*
X84414511Y-17477043D01*
X84419030Y-17454329D01*
X84435278Y-17430010D01*
X84444465Y-17409206D01*
X84458674Y-17394996D01*
X84473223Y-17373223D01*
X84494996Y-17358674D01*
X84509206Y-17344465D01*
X84530010Y-17335278D01*
X84554329Y-17319030D01*
X84577043Y-17314511D01*
X84594591Y-17306764D01*
X84645952Y-17300805D01*
X84650000Y-17300000D01*
X85350000Y-17300000D01*
X85354047Y-17300805D01*
G37*
G36*
X59290285Y-16043060D02*
G01*
X59471397Y-16118079D01*
X59634393Y-16226990D01*
X59773010Y-16365607D01*
X59881921Y-16528603D01*
X59956940Y-16709715D01*
X59995185Y-16901983D01*
X59995185Y-17098017D01*
X59956940Y-17290285D01*
X59881921Y-17471397D01*
X59773010Y-17634393D01*
X59634393Y-17773010D01*
X59471397Y-17881921D01*
X59290285Y-17956940D01*
X59098017Y-17995185D01*
X58901983Y-17995185D01*
X58709715Y-17956940D01*
X58528603Y-17881921D01*
X58365607Y-17773010D01*
X58226990Y-17634393D01*
X58118079Y-17471397D01*
X58043060Y-17290285D01*
X58004815Y-17098017D01*
X58004815Y-16901983D01*
X58043060Y-16709715D01*
X58118079Y-16528603D01*
X58226990Y-16365607D01*
X58365607Y-16226990D01*
X58528603Y-16118079D01*
X58709715Y-16043060D01*
X58901983Y-16004815D01*
X59098017Y-16004815D01*
X59290285Y-16043060D01*
G37*
G36*
X64458142Y-16107471D02*
G01*
X64462779Y-16109518D01*
X64465327Y-16109854D01*
X64497184Y-16124709D01*
X64552695Y-16149219D01*
X64625781Y-16222305D01*
X64650300Y-16277837D01*
X64665145Y-16309672D01*
X64665480Y-16312217D01*
X64667529Y-16316858D01*
X64675000Y-16381250D01*
X64675000Y-17618750D01*
X64667529Y-17683142D01*
X64665479Y-17687782D01*
X64665145Y-17690327D01*
X64650308Y-17722144D01*
X64625781Y-17777695D01*
X64552695Y-17850781D01*
X64497144Y-17875308D01*
X64465327Y-17890145D01*
X64462782Y-17890479D01*
X64458142Y-17892529D01*
X64393750Y-17900000D01*
X63606250Y-17900000D01*
X63541858Y-17892529D01*
X63537217Y-17890480D01*
X63534672Y-17890145D01*
X63502837Y-17875300D01*
X63447305Y-17850781D01*
X63374219Y-17777695D01*
X63349709Y-17722184D01*
X63334854Y-17690327D01*
X63334518Y-17687779D01*
X63332471Y-17683142D01*
X63325000Y-17618750D01*
X63325000Y-16381250D01*
X63332471Y-16316858D01*
X63334518Y-16312220D01*
X63334854Y-16309672D01*
X63349717Y-16277796D01*
X63374219Y-16222305D01*
X63447305Y-16149219D01*
X63502796Y-16124717D01*
X63534672Y-16109854D01*
X63537220Y-16109518D01*
X63541858Y-16107471D01*
X63606250Y-16100000D01*
X64393750Y-16100000D01*
X64458142Y-16107471D01*
G37*
G36*
X66195942Y-16129065D02*
G01*
X66318193Y-16179703D01*
X66428215Y-16253218D01*
X66521782Y-16346785D01*
X66595297Y-16456807D01*
X66645935Y-16579058D01*
X66671750Y-16708838D01*
X66675000Y-16775000D01*
X66675000Y-17225000D01*
X66671750Y-17291162D01*
X66645935Y-17420942D01*
X66595297Y-17543193D01*
X66521782Y-17653215D01*
X66428215Y-17746782D01*
X66318193Y-17820297D01*
X66195942Y-17870935D01*
X66066162Y-17896750D01*
X65933838Y-17896750D01*
X65804058Y-17870935D01*
X65681807Y-17820297D01*
X65571785Y-17746782D01*
X65478218Y-17653215D01*
X65404703Y-17543193D01*
X65354065Y-17420942D01*
X65328250Y-17291162D01*
X65325000Y-17225000D01*
X65325000Y-16775000D01*
X65328250Y-16708838D01*
X65354065Y-16579058D01*
X65404703Y-16456807D01*
X65478218Y-16346785D01*
X65571785Y-16253218D01*
X65681807Y-16179703D01*
X65804058Y-16129065D01*
X65933838Y-16103250D01*
X66066162Y-16103250D01*
X66195942Y-16129065D01*
G37*
G36*
X68195942Y-16129065D02*
G01*
X68318193Y-16179703D01*
X68428215Y-16253218D01*
X68521782Y-16346785D01*
X68595297Y-16456807D01*
X68645935Y-16579058D01*
X68671750Y-16708838D01*
X68675000Y-16775000D01*
X68675000Y-17225000D01*
X68671750Y-17291162D01*
X68645935Y-17420942D01*
X68595297Y-17543193D01*
X68521782Y-17653215D01*
X68428215Y-17746782D01*
X68318193Y-17820297D01*
X68195942Y-17870935D01*
X68066162Y-17896750D01*
X67933838Y-17896750D01*
X67804058Y-17870935D01*
X67681807Y-17820297D01*
X67571785Y-17746782D01*
X67478218Y-17653215D01*
X67404703Y-17543193D01*
X67354065Y-17420942D01*
X67328250Y-17291162D01*
X67325000Y-17225000D01*
X67325000Y-16775000D01*
X67328250Y-16708838D01*
X67354065Y-16579058D01*
X67404703Y-16456807D01*
X67478218Y-16346785D01*
X67571785Y-16253218D01*
X67681807Y-16179703D01*
X67804058Y-16129065D01*
X67933838Y-16103250D01*
X68066162Y-16103250D01*
X68195942Y-16129065D01*
G37*
G36*
X70195942Y-16129065D02*
G01*
X70318193Y-16179703D01*
X70428215Y-16253218D01*
X70521782Y-16346785D01*
X70595297Y-16456807D01*
X70645935Y-16579058D01*
X70671750Y-16708838D01*
X70675000Y-16775000D01*
X70675000Y-17225000D01*
X70671750Y-17291162D01*
X70645935Y-17420942D01*
X70595297Y-17543193D01*
X70521782Y-17653215D01*
X70428215Y-17746782D01*
X70318193Y-17820297D01*
X70195942Y-17870935D01*
X70066162Y-17896750D01*
X69933838Y-17896750D01*
X69804058Y-17870935D01*
X69681807Y-17820297D01*
X69571785Y-17746782D01*
X69478218Y-17653215D01*
X69404703Y-17543193D01*
X69354065Y-17420942D01*
X69328250Y-17291162D01*
X69325000Y-17225000D01*
X69325000Y-16775000D01*
X69328250Y-16708838D01*
X69354065Y-16579058D01*
X69404703Y-16456807D01*
X69478218Y-16346785D01*
X69571785Y-16253218D01*
X69681807Y-16179703D01*
X69804058Y-16129065D01*
X69933838Y-16103250D01*
X70066162Y-16103250D01*
X70195942Y-16129065D01*
G37*
G36*
X72195942Y-16129065D02*
G01*
X72318193Y-16179703D01*
X72428215Y-16253218D01*
X72521782Y-16346785D01*
X72595297Y-16456807D01*
X72645935Y-16579058D01*
X72671750Y-16708838D01*
X72675000Y-16775000D01*
X72675000Y-17225000D01*
X72671750Y-17291162D01*
X72645935Y-17420942D01*
X72595297Y-17543193D01*
X72521782Y-17653215D01*
X72428215Y-17746782D01*
X72318193Y-17820297D01*
X72195942Y-17870935D01*
X72066162Y-17896750D01*
X71933838Y-17896750D01*
X71804058Y-17870935D01*
X71681807Y-17820297D01*
X71571785Y-17746782D01*
X71478218Y-17653215D01*
X71404703Y-17543193D01*
X71354065Y-17420942D01*
X71328250Y-17291162D01*
X71325000Y-17225000D01*
X71325000Y-16775000D01*
X71328250Y-16708838D01*
X71354065Y-16579058D01*
X71404703Y-16456807D01*
X71478218Y-16346785D01*
X71571785Y-16253218D01*
X71681807Y-16179703D01*
X71804058Y-16129065D01*
X71933838Y-16103250D01*
X72066162Y-16103250D01*
X72195942Y-16129065D01*
G37*
G36*
X74195942Y-16129065D02*
G01*
X74318193Y-16179703D01*
X74428215Y-16253218D01*
X74521782Y-16346785D01*
X74595297Y-16456807D01*
X74645935Y-16579058D01*
X74671750Y-16708838D01*
X74675000Y-16775000D01*
X74675000Y-17225000D01*
X74671750Y-17291162D01*
X74645935Y-17420942D01*
X74595297Y-17543193D01*
X74521782Y-17653215D01*
X74428215Y-17746782D01*
X74318193Y-17820297D01*
X74195942Y-17870935D01*
X74066162Y-17896750D01*
X73933838Y-17896750D01*
X73804058Y-17870935D01*
X73681807Y-17820297D01*
X73571785Y-17746782D01*
X73478218Y-17653215D01*
X73404703Y-17543193D01*
X73354065Y-17420942D01*
X73328250Y-17291162D01*
X73325000Y-17225000D01*
X73325000Y-16775000D01*
X73328250Y-16708838D01*
X73354065Y-16579058D01*
X73404703Y-16456807D01*
X73478218Y-16346785D01*
X73571785Y-16253218D01*
X73681807Y-16179703D01*
X73804058Y-16129065D01*
X73933838Y-16103250D01*
X74066162Y-16103250D01*
X74195942Y-16129065D01*
G37*
G36*
X76195942Y-16129065D02*
G01*
X76318193Y-16179703D01*
X76428215Y-16253218D01*
X76521782Y-16346785D01*
X76595297Y-16456807D01*
X76645935Y-16579058D01*
X76671750Y-16708838D01*
X76675000Y-16775000D01*
X76675000Y-17225000D01*
X76671750Y-17291162D01*
X76645935Y-17420942D01*
X76595297Y-17543193D01*
X76521782Y-17653215D01*
X76428215Y-17746782D01*
X76318193Y-17820297D01*
X76195942Y-17870935D01*
X76066162Y-17896750D01*
X75933838Y-17896750D01*
X75804058Y-17870935D01*
X75681807Y-17820297D01*
X75571785Y-17746782D01*
X75478218Y-17653215D01*
X75404703Y-17543193D01*
X75354065Y-17420942D01*
X75328250Y-17291162D01*
X75325000Y-17225000D01*
X75325000Y-16775000D01*
X75328250Y-16708838D01*
X75354065Y-16579058D01*
X75404703Y-16456807D01*
X75478218Y-16346785D01*
X75571785Y-16253218D01*
X75681807Y-16179703D01*
X75804058Y-16129065D01*
X75933838Y-16103250D01*
X76066162Y-16103250D01*
X76195942Y-16129065D01*
G37*
G36*
X78195942Y-16129065D02*
G01*
X78318193Y-16179703D01*
X78428215Y-16253218D01*
X78521782Y-16346785D01*
X78595297Y-16456807D01*
X78645935Y-16579058D01*
X78671750Y-16708838D01*
X78675000Y-16775000D01*
X78675000Y-17225000D01*
X78671750Y-17291162D01*
X78645935Y-17420942D01*
X78595297Y-17543193D01*
X78521782Y-17653215D01*
X78428215Y-17746782D01*
X78318193Y-17820297D01*
X78195942Y-17870935D01*
X78066162Y-17896750D01*
X77933838Y-17896750D01*
X77804058Y-17870935D01*
X77681807Y-17820297D01*
X77571785Y-17746782D01*
X77478218Y-17653215D01*
X77404703Y-17543193D01*
X77354065Y-17420942D01*
X77328250Y-17291162D01*
X77325000Y-17225000D01*
X77325000Y-16775000D01*
X77328250Y-16708838D01*
X77354065Y-16579058D01*
X77404703Y-16456807D01*
X77478218Y-16346785D01*
X77571785Y-16253218D01*
X77681807Y-16179703D01*
X77804058Y-16129065D01*
X77933838Y-16103250D01*
X78066162Y-16103250D01*
X78195942Y-16129065D01*
G37*
G36*
X39246742Y-14806601D02*
G01*
X39400687Y-14870367D01*
X39539234Y-14962941D01*
X39657059Y-15080766D01*
X39749633Y-15219313D01*
X39813399Y-15373258D01*
X39845907Y-15536685D01*
X39845907Y-15703315D01*
X39813399Y-15866742D01*
X39749633Y-16020687D01*
X39657059Y-16159234D01*
X39539234Y-16277059D01*
X39400687Y-16369633D01*
X39246742Y-16433399D01*
X39083315Y-16465907D01*
X38916685Y-16465907D01*
X38753258Y-16433399D01*
X38599313Y-16369633D01*
X38460766Y-16277059D01*
X38342941Y-16159234D01*
X38250367Y-16020687D01*
X38186601Y-15866742D01*
X38154093Y-15703315D01*
X38154093Y-15536685D01*
X38186601Y-15373258D01*
X38250367Y-15219313D01*
X38342941Y-15080766D01*
X38460766Y-14962941D01*
X38599313Y-14870367D01*
X38753258Y-14806601D01*
X38916685Y-14774093D01*
X39083315Y-14774093D01*
X39246742Y-14806601D01*
G37*
G36*
X54486742Y-14806601D02*
G01*
X54640687Y-14870367D01*
X54779234Y-14962941D01*
X54897059Y-15080766D01*
X54989633Y-15219313D01*
X55053399Y-15373258D01*
X55085907Y-15536685D01*
X55085907Y-15703315D01*
X55053399Y-15866742D01*
X54989633Y-16020687D01*
X54897059Y-16159234D01*
X54779234Y-16277059D01*
X54640687Y-16369633D01*
X54486742Y-16433399D01*
X54323315Y-16465907D01*
X54156685Y-16465907D01*
X53993258Y-16433399D01*
X53839313Y-16369633D01*
X53700766Y-16277059D01*
X53582941Y-16159234D01*
X53490367Y-16020687D01*
X53426601Y-15866742D01*
X53394093Y-15703315D01*
X53394093Y-15536685D01*
X53426601Y-15373258D01*
X53490367Y-15219313D01*
X53582941Y-15080766D01*
X53700766Y-14962941D01*
X53839313Y-14870367D01*
X53993258Y-14806601D01*
X54156685Y-14774093D01*
X54323315Y-14774093D01*
X54486742Y-14806601D01*
G37*
G36*
X31304047Y-14275805D02*
G01*
X31355408Y-14281764D01*
X31372954Y-14289511D01*
X31395671Y-14294030D01*
X31419991Y-14310280D01*
X31440793Y-14319465D01*
X31455000Y-14333672D01*
X31476777Y-14348223D01*
X31491327Y-14369999D01*
X31505534Y-14384206D01*
X31514718Y-14405006D01*
X31530970Y-14429329D01*
X31535489Y-14452048D01*
X31543235Y-14469591D01*
X31549192Y-14520940D01*
X31550000Y-14525000D01*
X31550000Y-15475000D01*
X31549192Y-15479059D01*
X31543235Y-15530408D01*
X31535489Y-15547950D01*
X31530970Y-15570671D01*
X31514716Y-15594995D01*
X31505534Y-15615793D01*
X31491329Y-15629997D01*
X31476777Y-15651777D01*
X31454997Y-15666329D01*
X31440793Y-15680534D01*
X31419995Y-15689716D01*
X31395671Y-15705970D01*
X31372950Y-15710489D01*
X31355408Y-15718235D01*
X31304061Y-15724192D01*
X31300000Y-15725000D01*
X30625000Y-15725000D01*
X30620941Y-15724192D01*
X30569591Y-15718235D01*
X30552048Y-15710489D01*
X30529329Y-15705970D01*
X30505006Y-15689718D01*
X30484206Y-15680534D01*
X30469999Y-15666327D01*
X30448223Y-15651777D01*
X30433672Y-15630000D01*
X30419465Y-15615793D01*
X30410280Y-15594991D01*
X30394030Y-15570671D01*
X30389511Y-15547954D01*
X30381764Y-15530408D01*
X30375805Y-15479049D01*
X30375000Y-15475000D01*
X30375000Y-14525000D01*
X30375804Y-14520953D01*
X30381764Y-14469591D01*
X30389511Y-14452043D01*
X30394030Y-14429329D01*
X30410278Y-14405010D01*
X30419465Y-14384206D01*
X30433674Y-14369996D01*
X30448223Y-14348223D01*
X30469996Y-14333674D01*
X30484206Y-14319465D01*
X30505010Y-14310278D01*
X30529329Y-14294030D01*
X30552043Y-14289511D01*
X30569591Y-14281764D01*
X30620952Y-14275805D01*
X30625000Y-14275000D01*
X31300000Y-14275000D01*
X31304047Y-14275805D01*
G37*
G36*
X33379047Y-14275805D02*
G01*
X33430408Y-14281764D01*
X33447954Y-14289511D01*
X33470671Y-14294030D01*
X33494991Y-14310280D01*
X33515793Y-14319465D01*
X33530000Y-14333672D01*
X33551777Y-14348223D01*
X33566327Y-14369999D01*
X33580534Y-14384206D01*
X33589718Y-14405006D01*
X33605970Y-14429329D01*
X33610489Y-14452048D01*
X33618235Y-14469591D01*
X33624192Y-14520940D01*
X33625000Y-14525000D01*
X33625000Y-15475000D01*
X33624192Y-15479059D01*
X33618235Y-15530408D01*
X33610489Y-15547950D01*
X33605970Y-15570671D01*
X33589716Y-15594995D01*
X33580534Y-15615793D01*
X33566329Y-15629997D01*
X33551777Y-15651777D01*
X33529997Y-15666329D01*
X33515793Y-15680534D01*
X33494995Y-15689716D01*
X33470671Y-15705970D01*
X33447950Y-15710489D01*
X33430408Y-15718235D01*
X33379061Y-15724192D01*
X33375000Y-15725000D01*
X32700000Y-15725000D01*
X32695941Y-15724192D01*
X32644591Y-15718235D01*
X32627048Y-15710489D01*
X32604329Y-15705970D01*
X32580006Y-15689718D01*
X32559206Y-15680534D01*
X32544999Y-15666327D01*
X32523223Y-15651777D01*
X32508672Y-15630000D01*
X32494465Y-15615793D01*
X32485280Y-15594991D01*
X32469030Y-15570671D01*
X32464511Y-15547954D01*
X32456764Y-15530408D01*
X32450805Y-15479049D01*
X32450000Y-15475000D01*
X32450000Y-14525000D01*
X32450804Y-14520953D01*
X32456764Y-14469591D01*
X32464511Y-14452043D01*
X32469030Y-14429329D01*
X32485278Y-14405010D01*
X32494465Y-14384206D01*
X32508674Y-14369996D01*
X32523223Y-14348223D01*
X32544996Y-14333674D01*
X32559206Y-14319465D01*
X32580010Y-14310278D01*
X32604329Y-14294030D01*
X32627043Y-14289511D01*
X32644591Y-14281764D01*
X32695952Y-14275805D01*
X32700000Y-14275000D01*
X33375000Y-14275000D01*
X33379047Y-14275805D01*
G37*
G36*
X83354047Y-13300805D02*
G01*
X83405408Y-13306764D01*
X83422954Y-13314511D01*
X83445671Y-13319030D01*
X83469991Y-13335280D01*
X83490793Y-13344465D01*
X83505000Y-13358672D01*
X83526777Y-13373223D01*
X83541327Y-13394999D01*
X83555534Y-13409206D01*
X83564718Y-13430006D01*
X83580970Y-13454329D01*
X83585489Y-13477048D01*
X83593235Y-13494591D01*
X83599192Y-13545940D01*
X83600000Y-13550000D01*
X83600000Y-14450000D01*
X83599192Y-14454059D01*
X83593235Y-14505408D01*
X83585489Y-14522950D01*
X83580970Y-14545671D01*
X83564716Y-14569995D01*
X83555534Y-14590793D01*
X83541329Y-14604997D01*
X83526777Y-14626777D01*
X83504997Y-14641329D01*
X83490793Y-14655534D01*
X83469995Y-14664716D01*
X83445671Y-14680970D01*
X83422950Y-14685489D01*
X83405408Y-14693235D01*
X83354061Y-14699192D01*
X83350000Y-14700000D01*
X82650000Y-14700000D01*
X82645941Y-14699192D01*
X82594591Y-14693235D01*
X82577048Y-14685489D01*
X82554329Y-14680970D01*
X82530006Y-14664718D01*
X82509206Y-14655534D01*
X82494999Y-14641327D01*
X82473223Y-14626777D01*
X82458672Y-14605000D01*
X82444465Y-14590793D01*
X82435280Y-14569991D01*
X82419030Y-14545671D01*
X82414511Y-14522954D01*
X82406764Y-14505408D01*
X82400805Y-14454049D01*
X82400000Y-14450000D01*
X82400000Y-13550000D01*
X82400804Y-13545953D01*
X82406764Y-13494591D01*
X82414511Y-13477043D01*
X82419030Y-13454329D01*
X82435278Y-13430010D01*
X82444465Y-13409206D01*
X82458674Y-13394996D01*
X82473223Y-13373223D01*
X82494996Y-13358674D01*
X82509206Y-13344465D01*
X82530010Y-13335278D01*
X82554329Y-13319030D01*
X82577043Y-13314511D01*
X82594591Y-13306764D01*
X82645952Y-13300805D01*
X82650000Y-13300000D01*
X83350000Y-13300000D01*
X83354047Y-13300805D01*
G37*
G36*
X85354047Y-13300805D02*
G01*
X85405408Y-13306764D01*
X85422954Y-13314511D01*
X85445671Y-13319030D01*
X85469991Y-13335280D01*
X85490793Y-13344465D01*
X85505000Y-13358672D01*
X85526777Y-13373223D01*
X85541327Y-13394999D01*
X85555534Y-13409206D01*
X85564718Y-13430006D01*
X85580970Y-13454329D01*
X85585489Y-13477048D01*
X85593235Y-13494591D01*
X85599192Y-13545940D01*
X85600000Y-13550000D01*
X85600000Y-14450000D01*
X85599192Y-14454059D01*
X85593235Y-14505408D01*
X85585489Y-14522950D01*
X85580970Y-14545671D01*
X85564716Y-14569995D01*
X85555534Y-14590793D01*
X85541329Y-14604997D01*
X85526777Y-14626777D01*
X85504997Y-14641329D01*
X85490793Y-14655534D01*
X85469995Y-14664716D01*
X85445671Y-14680970D01*
X85422950Y-14685489D01*
X85405408Y-14693235D01*
X85354061Y-14699192D01*
X85350000Y-14700000D01*
X84650000Y-14700000D01*
X84645941Y-14699192D01*
X84594591Y-14693235D01*
X84577048Y-14685489D01*
X84554329Y-14680970D01*
X84530006Y-14664718D01*
X84509206Y-14655534D01*
X84494999Y-14641327D01*
X84473223Y-14626777D01*
X84458672Y-14605000D01*
X84444465Y-14590793D01*
X84435280Y-14569991D01*
X84419030Y-14545671D01*
X84414511Y-14522954D01*
X84406764Y-14505408D01*
X84400805Y-14454049D01*
X84400000Y-14450000D01*
X84400000Y-13550000D01*
X84400804Y-13545953D01*
X84406764Y-13494591D01*
X84414511Y-13477043D01*
X84419030Y-13454329D01*
X84435278Y-13430010D01*
X84444465Y-13409206D01*
X84458674Y-13394996D01*
X84473223Y-13373223D01*
X84494996Y-13358674D01*
X84509206Y-13344465D01*
X84530010Y-13335278D01*
X84554329Y-13319030D01*
X84577043Y-13314511D01*
X84594591Y-13306764D01*
X84645952Y-13300805D01*
X84650000Y-13300000D01*
X85350000Y-13300000D01*
X85354047Y-13300805D01*
G37*
G36*
X39246742Y-12266601D02*
G01*
X39400687Y-12330367D01*
X39539234Y-12422941D01*
X39657059Y-12540766D01*
X39749633Y-12679313D01*
X39813399Y-12833258D01*
X39845907Y-12996685D01*
X39845907Y-13163315D01*
X39813399Y-13326742D01*
X39749633Y-13480687D01*
X39657059Y-13619234D01*
X39539234Y-13737059D01*
X39400687Y-13829633D01*
X39246742Y-13893399D01*
X39083315Y-13925907D01*
X38916685Y-13925907D01*
X38753258Y-13893399D01*
X38599313Y-13829633D01*
X38460766Y-13737059D01*
X38342941Y-13619234D01*
X38250367Y-13480687D01*
X38186601Y-13326742D01*
X38154093Y-13163315D01*
X38154093Y-12996685D01*
X38186601Y-12833258D01*
X38250367Y-12679313D01*
X38342941Y-12540766D01*
X38460766Y-12422941D01*
X38599313Y-12330367D01*
X38753258Y-12266601D01*
X38916685Y-12234093D01*
X39083315Y-12234093D01*
X39246742Y-12266601D01*
G37*
G36*
X54486742Y-12266601D02*
G01*
X54640687Y-12330367D01*
X54779234Y-12422941D01*
X54897059Y-12540766D01*
X54989633Y-12679313D01*
X55053399Y-12833258D01*
X55085907Y-12996685D01*
X55085907Y-13163315D01*
X55053399Y-13326742D01*
X54989633Y-13480687D01*
X54897059Y-13619234D01*
X54779234Y-13737059D01*
X54640687Y-13829633D01*
X54486742Y-13893399D01*
X54323315Y-13925907D01*
X54156685Y-13925907D01*
X53993258Y-13893399D01*
X53839313Y-13829633D01*
X53700766Y-13737059D01*
X53582941Y-13619234D01*
X53490367Y-13480687D01*
X53426601Y-13326742D01*
X53394093Y-13163315D01*
X53394093Y-12996685D01*
X53426601Y-12833258D01*
X53490367Y-12679313D01*
X53582941Y-12540766D01*
X53700766Y-12422941D01*
X53839313Y-12330367D01*
X53993258Y-12266601D01*
X54156685Y-12234093D01*
X54323315Y-12234093D01*
X54486742Y-12266601D01*
G37*
G36*
X58304047Y-12475805D02*
G01*
X58355408Y-12481764D01*
X58372954Y-12489511D01*
X58395671Y-12494030D01*
X58419991Y-12510280D01*
X58440793Y-12519465D01*
X58455000Y-12533672D01*
X58476777Y-12548223D01*
X58491327Y-12569999D01*
X58505534Y-12584206D01*
X58514718Y-12605006D01*
X58530970Y-12629329D01*
X58535489Y-12652048D01*
X58543235Y-12669591D01*
X58549192Y-12720940D01*
X58550000Y-12725000D01*
X58550000Y-13675000D01*
X58549192Y-13679059D01*
X58543235Y-13730408D01*
X58535489Y-13747950D01*
X58530970Y-13770671D01*
X58514716Y-13794995D01*
X58505534Y-13815793D01*
X58491329Y-13829997D01*
X58476777Y-13851777D01*
X58454997Y-13866329D01*
X58440793Y-13880534D01*
X58419995Y-13889716D01*
X58395671Y-13905970D01*
X58372950Y-13910489D01*
X58355408Y-13918235D01*
X58304061Y-13924192D01*
X58300000Y-13925000D01*
X57625000Y-13925000D01*
X57620941Y-13924192D01*
X57569591Y-13918235D01*
X57552048Y-13910489D01*
X57529329Y-13905970D01*
X57505006Y-13889718D01*
X57484206Y-13880534D01*
X57469999Y-13866327D01*
X57448223Y-13851777D01*
X57433672Y-13830000D01*
X57419465Y-13815793D01*
X57410280Y-13794991D01*
X57394030Y-13770671D01*
X57389511Y-13747954D01*
X57381764Y-13730408D01*
X57375805Y-13679049D01*
X57375000Y-13675000D01*
X57375000Y-12725000D01*
X57375804Y-12720953D01*
X57381764Y-12669591D01*
X57389511Y-12652043D01*
X57394030Y-12629329D01*
X57410278Y-12605010D01*
X57419465Y-12584206D01*
X57433674Y-12569996D01*
X57448223Y-12548223D01*
X57469996Y-12533674D01*
X57484206Y-12519465D01*
X57505010Y-12510278D01*
X57529329Y-12494030D01*
X57552043Y-12489511D01*
X57569591Y-12481764D01*
X57620952Y-12475805D01*
X57625000Y-12475000D01*
X58300000Y-12475000D01*
X58304047Y-12475805D01*
G37*
G36*
X60379047Y-12475805D02*
G01*
X60430408Y-12481764D01*
X60447954Y-12489511D01*
X60470671Y-12494030D01*
X60494991Y-12510280D01*
X60515793Y-12519465D01*
X60530000Y-12533672D01*
X60551777Y-12548223D01*
X60566327Y-12569999D01*
X60580534Y-12584206D01*
X60589718Y-12605006D01*
X60605970Y-12629329D01*
X60610489Y-12652048D01*
X60618235Y-12669591D01*
X60624192Y-12720940D01*
X60625000Y-12725000D01*
X60625000Y-13675000D01*
X60624192Y-13679059D01*
X60618235Y-13730408D01*
X60610489Y-13747950D01*
X60605970Y-13770671D01*
X60589716Y-13794995D01*
X60580534Y-13815793D01*
X60566329Y-13829997D01*
X60551777Y-13851777D01*
X60529997Y-13866329D01*
X60515793Y-13880534D01*
X60494995Y-13889716D01*
X60470671Y-13905970D01*
X60447950Y-13910489D01*
X60430408Y-13918235D01*
X60379061Y-13924192D01*
X60375000Y-13925000D01*
X59700000Y-13925000D01*
X59695941Y-13924192D01*
X59644591Y-13918235D01*
X59627048Y-13910489D01*
X59604329Y-13905970D01*
X59580006Y-13889718D01*
X59559206Y-13880534D01*
X59544999Y-13866327D01*
X59523223Y-13851777D01*
X59508672Y-13830000D01*
X59494465Y-13815793D01*
X59485280Y-13794991D01*
X59469030Y-13770671D01*
X59464511Y-13747954D01*
X59456764Y-13730408D01*
X59450805Y-13679049D01*
X59450000Y-13675000D01*
X59450000Y-12725000D01*
X59450804Y-12720953D01*
X59456764Y-12669591D01*
X59464511Y-12652043D01*
X59469030Y-12629329D01*
X59485278Y-12605010D01*
X59494465Y-12584206D01*
X59508674Y-12569996D01*
X59523223Y-12548223D01*
X59544996Y-12533674D01*
X59559206Y-12519465D01*
X59580010Y-12510278D01*
X59604329Y-12494030D01*
X59627043Y-12489511D01*
X59644591Y-12481764D01*
X59695952Y-12475805D01*
X59700000Y-12475000D01*
X60375000Y-12475000D01*
X60379047Y-12475805D01*
G37*
G36*
X65304047Y-12475805D02*
G01*
X65355408Y-12481764D01*
X65372954Y-12489511D01*
X65395671Y-12494030D01*
X65419991Y-12510280D01*
X65440793Y-12519465D01*
X65455000Y-12533672D01*
X65476777Y-12548223D01*
X65491327Y-12569999D01*
X65505534Y-12584206D01*
X65514718Y-12605006D01*
X65530970Y-12629329D01*
X65535489Y-12652048D01*
X65543235Y-12669591D01*
X65549192Y-12720940D01*
X65550000Y-12725000D01*
X65550000Y-13675000D01*
X65549192Y-13679059D01*
X65543235Y-13730408D01*
X65535489Y-13747950D01*
X65530970Y-13770671D01*
X65514716Y-13794995D01*
X65505534Y-13815793D01*
X65491329Y-13829997D01*
X65476777Y-13851777D01*
X65454997Y-13866329D01*
X65440793Y-13880534D01*
X65419995Y-13889716D01*
X65395671Y-13905970D01*
X65372950Y-13910489D01*
X65355408Y-13918235D01*
X65304061Y-13924192D01*
X65300000Y-13925000D01*
X64625000Y-13925000D01*
X64620941Y-13924192D01*
X64569591Y-13918235D01*
X64552048Y-13910489D01*
X64529329Y-13905970D01*
X64505006Y-13889718D01*
X64484206Y-13880534D01*
X64469999Y-13866327D01*
X64448223Y-13851777D01*
X64433672Y-13830000D01*
X64419465Y-13815793D01*
X64410280Y-13794991D01*
X64394030Y-13770671D01*
X64389511Y-13747954D01*
X64381764Y-13730408D01*
X64375805Y-13679049D01*
X64375000Y-13675000D01*
X64375000Y-12725000D01*
X64375804Y-12720953D01*
X64381764Y-12669591D01*
X64389511Y-12652043D01*
X64394030Y-12629329D01*
X64410278Y-12605010D01*
X64419465Y-12584206D01*
X64433674Y-12569996D01*
X64448223Y-12548223D01*
X64469996Y-12533674D01*
X64484206Y-12519465D01*
X64505010Y-12510278D01*
X64529329Y-12494030D01*
X64552043Y-12489511D01*
X64569591Y-12481764D01*
X64620952Y-12475805D01*
X64625000Y-12475000D01*
X65300000Y-12475000D01*
X65304047Y-12475805D01*
G37*
G36*
X67379047Y-12475805D02*
G01*
X67430408Y-12481764D01*
X67447954Y-12489511D01*
X67470671Y-12494030D01*
X67494991Y-12510280D01*
X67515793Y-12519465D01*
X67530000Y-12533672D01*
X67551777Y-12548223D01*
X67566327Y-12569999D01*
X67580534Y-12584206D01*
X67589718Y-12605006D01*
X67605970Y-12629329D01*
X67610489Y-12652048D01*
X67618235Y-12669591D01*
X67624192Y-12720940D01*
X67625000Y-12725000D01*
X67625000Y-13675000D01*
X67624192Y-13679059D01*
X67618235Y-13730408D01*
X67610489Y-13747950D01*
X67605970Y-13770671D01*
X67589716Y-13794995D01*
X67580534Y-13815793D01*
X67566329Y-13829997D01*
X67551777Y-13851777D01*
X67529997Y-13866329D01*
X67515793Y-13880534D01*
X67494995Y-13889716D01*
X67470671Y-13905970D01*
X67447950Y-13910489D01*
X67430408Y-13918235D01*
X67379061Y-13924192D01*
X67375000Y-13925000D01*
X66700000Y-13925000D01*
X66695941Y-13924192D01*
X66644591Y-13918235D01*
X66627048Y-13910489D01*
X66604329Y-13905970D01*
X66580006Y-13889718D01*
X66559206Y-13880534D01*
X66544999Y-13866327D01*
X66523223Y-13851777D01*
X66508672Y-13830000D01*
X66494465Y-13815793D01*
X66485280Y-13794991D01*
X66469030Y-13770671D01*
X66464511Y-13747954D01*
X66456764Y-13730408D01*
X66450805Y-13679049D01*
X66450000Y-13675000D01*
X66450000Y-12725000D01*
X66450804Y-12720953D01*
X66456764Y-12669591D01*
X66464511Y-12652043D01*
X66469030Y-12629329D01*
X66485278Y-12605010D01*
X66494465Y-12584206D01*
X66508674Y-12569996D01*
X66523223Y-12548223D01*
X66544996Y-12533674D01*
X66559206Y-12519465D01*
X66580010Y-12510278D01*
X66604329Y-12494030D01*
X66627043Y-12489511D01*
X66644591Y-12481764D01*
X66695952Y-12475805D01*
X66700000Y-12475000D01*
X67375000Y-12475000D01*
X67379047Y-12475805D01*
G37*
G36*
X39246742Y-9726601D02*
G01*
X39400687Y-9790367D01*
X39539234Y-9882941D01*
X39657059Y-10000766D01*
X39749633Y-10139313D01*
X39813399Y-10293258D01*
X39845907Y-10456685D01*
X39845907Y-10623315D01*
X39813399Y-10786742D01*
X39749633Y-10940687D01*
X39657059Y-11079234D01*
X39539234Y-11197059D01*
X39400687Y-11289633D01*
X39246742Y-11353399D01*
X39083315Y-11385907D01*
X38916685Y-11385907D01*
X38753258Y-11353399D01*
X38599313Y-11289633D01*
X38460766Y-11197059D01*
X38342941Y-11079234D01*
X38250367Y-10940687D01*
X38186601Y-10786742D01*
X38154093Y-10623315D01*
X38154093Y-10456685D01*
X38186601Y-10293258D01*
X38250367Y-10139313D01*
X38342941Y-10000766D01*
X38460766Y-9882941D01*
X38599313Y-9790367D01*
X38753258Y-9726601D01*
X38916685Y-9694093D01*
X39083315Y-9694093D01*
X39246742Y-9726601D01*
G37*
G36*
X54486742Y-9726601D02*
G01*
X54640687Y-9790367D01*
X54779234Y-9882941D01*
X54897059Y-10000766D01*
X54989633Y-10139313D01*
X55053399Y-10293258D01*
X55085907Y-10456685D01*
X55085907Y-10623315D01*
X55053399Y-10786742D01*
X54989633Y-10940687D01*
X54897059Y-11079234D01*
X54779234Y-11197059D01*
X54640687Y-11289633D01*
X54486742Y-11353399D01*
X54323315Y-11385907D01*
X54156685Y-11385907D01*
X53993258Y-11353399D01*
X53839313Y-11289633D01*
X53700766Y-11197059D01*
X53582941Y-11079234D01*
X53490367Y-10940687D01*
X53426601Y-10786742D01*
X53394093Y-10623315D01*
X53394093Y-10456685D01*
X53426601Y-10293258D01*
X53490367Y-10139313D01*
X53582941Y-10000766D01*
X53700766Y-9882941D01*
X53839313Y-9790367D01*
X53993258Y-9726601D01*
X54156685Y-9694093D01*
X54323315Y-9694093D01*
X54486742Y-9726601D01*
G37*
G36*
X10979046Y-9125805D02*
G01*
X11030407Y-9131764D01*
X11047953Y-9139511D01*
X11070670Y-9144030D01*
X11094987Y-9160278D01*
X11115793Y-9169465D01*
X11130004Y-9183676D01*
X11151776Y-9198224D01*
X11166323Y-9219995D01*
X11180534Y-9234206D01*
X11189719Y-9255010D01*
X11205970Y-9279330D01*
X11210488Y-9302047D01*
X11218235Y-9319592D01*
X11224196Y-9370966D01*
X11224999Y-9375002D01*
X11224999Y-9377883D01*
X11225000Y-9377892D01*
X11225000Y-10000766D01*
X11225000Y-10624999D01*
X11224194Y-10629048D01*
X11218235Y-10680407D01*
X11210489Y-10697949D01*
X11205970Y-10720670D01*
X11189718Y-10744991D01*
X11180534Y-10765793D01*
X11166325Y-10780001D01*
X11151776Y-10801776D01*
X11130001Y-10816325D01*
X11115793Y-10830534D01*
X11094991Y-10839718D01*
X11070670Y-10855970D01*
X11047950Y-10860488D01*
X11030407Y-10868235D01*
X10979034Y-10874196D01*
X10974998Y-10874999D01*
X10972115Y-10874999D01*
X10972107Y-10875000D01*
X10052893Y-10875000D01*
X10052892Y-10874999D01*
X10050001Y-10875000D01*
X10045951Y-10874194D01*
X9994592Y-10868235D01*
X9977048Y-10860488D01*
X9954330Y-10855970D01*
X9930010Y-10839719D01*
X9909206Y-10830534D01*
X9894995Y-10816323D01*
X9873224Y-10801776D01*
X9858676Y-10780004D01*
X9844465Y-10765793D01*
X9835278Y-10744987D01*
X9819030Y-10720670D01*
X9814511Y-10697954D01*
X9806764Y-10680407D01*
X9800803Y-10629033D01*
X9800001Y-10624998D01*
X9800000Y-10622115D01*
X9800000Y-10622107D01*
X9800000Y-9377892D01*
X9800000Y-9377891D01*
X9800000Y-9375001D01*
X9800804Y-9370954D01*
X9806764Y-9319592D01*
X9814511Y-9302044D01*
X9819030Y-9279330D01*
X9835277Y-9255014D01*
X9844465Y-9234206D01*
X9858678Y-9219992D01*
X9873224Y-9198224D01*
X9894992Y-9183678D01*
X9909206Y-9169465D01*
X9930014Y-9160277D01*
X9954330Y-9144030D01*
X9977043Y-9139512D01*
X9994592Y-9131764D01*
X10045967Y-9125803D01*
X10050002Y-9125001D01*
X10052884Y-9125000D01*
X10052893Y-9125000D01*
X10972107Y-9125000D01*
X10974999Y-9125000D01*
X10979046Y-9125805D01*
G37*
G36*
X13954046Y-9125805D02*
G01*
X14005407Y-9131764D01*
X14022953Y-9139511D01*
X14045670Y-9144030D01*
X14069987Y-9160278D01*
X14090793Y-9169465D01*
X14105004Y-9183676D01*
X14126776Y-9198224D01*
X14141323Y-9219995D01*
X14155534Y-9234206D01*
X14164719Y-9255010D01*
X14180970Y-9279330D01*
X14185488Y-9302047D01*
X14193235Y-9319592D01*
X14199196Y-9370966D01*
X14199999Y-9375002D01*
X14199999Y-9377883D01*
X14200000Y-9377892D01*
X14200000Y-10000766D01*
X14200000Y-10624999D01*
X14199194Y-10629048D01*
X14193235Y-10680407D01*
X14185489Y-10697949D01*
X14180970Y-10720670D01*
X14164718Y-10744991D01*
X14155534Y-10765793D01*
X14141325Y-10780001D01*
X14126776Y-10801776D01*
X14105001Y-10816325D01*
X14090793Y-10830534D01*
X14069991Y-10839718D01*
X14045670Y-10855970D01*
X14022950Y-10860488D01*
X14005407Y-10868235D01*
X13954034Y-10874196D01*
X13949998Y-10874999D01*
X13947115Y-10874999D01*
X13947107Y-10875000D01*
X13027893Y-10875000D01*
X13027892Y-10874999D01*
X13025001Y-10875000D01*
X13020951Y-10874194D01*
X12969592Y-10868235D01*
X12952048Y-10860488D01*
X12929330Y-10855970D01*
X12905010Y-10839719D01*
X12884206Y-10830534D01*
X12869995Y-10816323D01*
X12848224Y-10801776D01*
X12833676Y-10780004D01*
X12819465Y-10765793D01*
X12810278Y-10744987D01*
X12794030Y-10720670D01*
X12789511Y-10697954D01*
X12781764Y-10680407D01*
X12775803Y-10629033D01*
X12775001Y-10624998D01*
X12775000Y-10622115D01*
X12775000Y-10622107D01*
X12775000Y-9377892D01*
X12775000Y-9377891D01*
X12775000Y-9375001D01*
X12775804Y-9370954D01*
X12781764Y-9319592D01*
X12789511Y-9302044D01*
X12794030Y-9279330D01*
X12810277Y-9255014D01*
X12819465Y-9234206D01*
X12833678Y-9219992D01*
X12848224Y-9198224D01*
X12869992Y-9183678D01*
X12884206Y-9169465D01*
X12905014Y-9160277D01*
X12929330Y-9144030D01*
X12952043Y-9139512D01*
X12969592Y-9131764D01*
X13020967Y-9125803D01*
X13025002Y-9125001D01*
X13027884Y-9125000D01*
X13027893Y-9125000D01*
X13947107Y-9125000D01*
X13949999Y-9125000D01*
X13954046Y-9125805D01*
G37*
G36*
X39850000Y-8850000D02*
G01*
X38150000Y-8850000D01*
X38150000Y-7150000D01*
X39850000Y-7150000D01*
X39850000Y-8850000D01*
G37*
G36*
X54486742Y-7186601D02*
G01*
X54640687Y-7250367D01*
X54779234Y-7342941D01*
X54897059Y-7460766D01*
X54989633Y-7599313D01*
X55053399Y-7753258D01*
X55085907Y-7916685D01*
X55085907Y-8083315D01*
X55053399Y-8246742D01*
X54989633Y-8400687D01*
X54897059Y-8539234D01*
X54779234Y-8657059D01*
X54640687Y-8749633D01*
X54486742Y-8813399D01*
X54323315Y-8845907D01*
X54156685Y-8845907D01*
X53993258Y-8813399D01*
X53839313Y-8749633D01*
X53700766Y-8657059D01*
X53582941Y-8539234D01*
X53490367Y-8400687D01*
X53426601Y-8246742D01*
X53394093Y-8083315D01*
X53394093Y-7916685D01*
X53426601Y-7753258D01*
X53490367Y-7599313D01*
X53582941Y-7460766D01*
X53700766Y-7342941D01*
X53839313Y-7250367D01*
X53993258Y-7186601D01*
X54156685Y-7154093D01*
X54323315Y-7154093D01*
X54486742Y-7186601D01*
G37*
G36*
X61604047Y-6025805D02*
G01*
X61655408Y-6031764D01*
X61672954Y-6039511D01*
X61695671Y-6044030D01*
X61719991Y-6060280D01*
X61740793Y-6069465D01*
X61755000Y-6083672D01*
X61776777Y-6098223D01*
X61791327Y-6119999D01*
X61805534Y-6134206D01*
X61814718Y-6155006D01*
X61830970Y-6179329D01*
X61835489Y-6202048D01*
X61843235Y-6219591D01*
X61849192Y-6270940D01*
X61850000Y-6275000D01*
X61850000Y-7725000D01*
X61849192Y-7729059D01*
X61843235Y-7780408D01*
X61835489Y-7797950D01*
X61830970Y-7820671D01*
X61814716Y-7844995D01*
X61805534Y-7865793D01*
X61791329Y-7879997D01*
X61776777Y-7901777D01*
X61754997Y-7916329D01*
X61740793Y-7930534D01*
X61719995Y-7939716D01*
X61695671Y-7955970D01*
X61672950Y-7960489D01*
X61655408Y-7968235D01*
X61604061Y-7974192D01*
X61600000Y-7975000D01*
X60400000Y-7975000D01*
X60395941Y-7974192D01*
X60344591Y-7968235D01*
X60327048Y-7960489D01*
X60304329Y-7955970D01*
X60280006Y-7939718D01*
X60259206Y-7930534D01*
X60244999Y-7916327D01*
X60223223Y-7901777D01*
X60208672Y-7880000D01*
X60194465Y-7865793D01*
X60185280Y-7844991D01*
X60169030Y-7820671D01*
X60164511Y-7797954D01*
X60156764Y-7780408D01*
X60150805Y-7729049D01*
X60150000Y-7725000D01*
X60150000Y-6275000D01*
X60150804Y-6270953D01*
X60156764Y-6219591D01*
X60164511Y-6202043D01*
X60169030Y-6179329D01*
X60185278Y-6155010D01*
X60194465Y-6134206D01*
X60208674Y-6119996D01*
X60223223Y-6098223D01*
X60244996Y-6083674D01*
X60259206Y-6069465D01*
X60280010Y-6060278D01*
X60304329Y-6044030D01*
X60327043Y-6039511D01*
X60344591Y-6031764D01*
X60395952Y-6025805D01*
X60400000Y-6025000D01*
X61600000Y-6025000D01*
X61604047Y-6025805D01*
G37*
G36*
X63746742Y-6061601D02*
G01*
X63900687Y-6125367D01*
X64039234Y-6217941D01*
X64157059Y-6335766D01*
X64249633Y-6474313D01*
X64313399Y-6628258D01*
X64345907Y-6791685D01*
X64350000Y-6875000D01*
X64350000Y-7125000D01*
X64345907Y-7208315D01*
X64313399Y-7371742D01*
X64249633Y-7525687D01*
X64157059Y-7664234D01*
X64039234Y-7782059D01*
X63900687Y-7874633D01*
X63746742Y-7938399D01*
X63583315Y-7970907D01*
X63416685Y-7970907D01*
X63253258Y-7938399D01*
X63099313Y-7874633D01*
X62960766Y-7782059D01*
X62842941Y-7664234D01*
X62750367Y-7525687D01*
X62686601Y-7371742D01*
X62654093Y-7208315D01*
X62650000Y-7125000D01*
X62650000Y-6875000D01*
X62654093Y-6791685D01*
X62686601Y-6628258D01*
X62750367Y-6474313D01*
X62842941Y-6335766D01*
X62960766Y-6217941D01*
X63099313Y-6125367D01*
X63253258Y-6061601D01*
X63416685Y-6029093D01*
X63583315Y-6029093D01*
X63746742Y-6061601D01*
G37*
G36*
X66246742Y-6061601D02*
G01*
X66400687Y-6125367D01*
X66539234Y-6217941D01*
X66657059Y-6335766D01*
X66749633Y-6474313D01*
X66813399Y-6628258D01*
X66845907Y-6791685D01*
X66850000Y-6875000D01*
X66850000Y-7125000D01*
X66845907Y-7208315D01*
X66813399Y-7371742D01*
X66749633Y-7525687D01*
X66657059Y-7664234D01*
X66539234Y-7782059D01*
X66400687Y-7874633D01*
X66246742Y-7938399D01*
X66083315Y-7970907D01*
X65916685Y-7970907D01*
X65753258Y-7938399D01*
X65599313Y-7874633D01*
X65460766Y-7782059D01*
X65342941Y-7664234D01*
X65250367Y-7525687D01*
X65186601Y-7371742D01*
X65154093Y-7208315D01*
X65150000Y-7125000D01*
X65150000Y-6875000D01*
X65154093Y-6791685D01*
X65186601Y-6628258D01*
X65250367Y-6474313D01*
X65342941Y-6335766D01*
X65460766Y-6217941D01*
X65599313Y-6125367D01*
X65753258Y-6061601D01*
X65916685Y-6029093D01*
X66083315Y-6029093D01*
X66246742Y-6061601D01*
G37*
G36*
X68746742Y-6061601D02*
G01*
X68900687Y-6125367D01*
X69039234Y-6217941D01*
X69157059Y-6335766D01*
X69249633Y-6474313D01*
X69313399Y-6628258D01*
X69345907Y-6791685D01*
X69350000Y-6875000D01*
X69350000Y-7125000D01*
X69345907Y-7208315D01*
X69313399Y-7371742D01*
X69249633Y-7525687D01*
X69157059Y-7664234D01*
X69039234Y-7782059D01*
X68900687Y-7874633D01*
X68746742Y-7938399D01*
X68583315Y-7970907D01*
X68416685Y-7970907D01*
X68253258Y-7938399D01*
X68099313Y-7874633D01*
X67960766Y-7782059D01*
X67842941Y-7664234D01*
X67750367Y-7525687D01*
X67686601Y-7371742D01*
X67654093Y-7208315D01*
X67650000Y-7125000D01*
X67650000Y-6875000D01*
X67654093Y-6791685D01*
X67686601Y-6628258D01*
X67750367Y-6474313D01*
X67842941Y-6335766D01*
X67960766Y-6217941D01*
X68099313Y-6125367D01*
X68253258Y-6061601D01*
X68416685Y-6029093D01*
X68583315Y-6029093D01*
X68746742Y-6061601D01*
G37*
G36*
X71246742Y-6061601D02*
G01*
X71400687Y-6125367D01*
X71539234Y-6217941D01*
X71657059Y-6335766D01*
X71749633Y-6474313D01*
X71813399Y-6628258D01*
X71845907Y-6791685D01*
X71850000Y-6875000D01*
X71850000Y-7125000D01*
X71845907Y-7208315D01*
X71813399Y-7371742D01*
X71749633Y-7525687D01*
X71657059Y-7664234D01*
X71539234Y-7782059D01*
X71400687Y-7874633D01*
X71246742Y-7938399D01*
X71083315Y-7970907D01*
X70916685Y-7970907D01*
X70753258Y-7938399D01*
X70599313Y-7874633D01*
X70460766Y-7782059D01*
X70342941Y-7664234D01*
X70250367Y-7525687D01*
X70186601Y-7371742D01*
X70154093Y-7208315D01*
X70150000Y-7125000D01*
X70150000Y-6875000D01*
X70154093Y-6791685D01*
X70186601Y-6628258D01*
X70250367Y-6474313D01*
X70342941Y-6335766D01*
X70460766Y-6217941D01*
X70599313Y-6125367D01*
X70753258Y-6061601D01*
X70916685Y-6029093D01*
X71083315Y-6029093D01*
X71246742Y-6061601D01*
G37*
G36*
X73746742Y-6061601D02*
G01*
X73900687Y-6125367D01*
X74039234Y-6217941D01*
X74157059Y-6335766D01*
X74249633Y-6474313D01*
X74313399Y-6628258D01*
X74345907Y-6791685D01*
X74350000Y-6875000D01*
X74350000Y-7125000D01*
X74345907Y-7208315D01*
X74313399Y-7371742D01*
X74249633Y-7525687D01*
X74157059Y-7664234D01*
X74039234Y-7782059D01*
X73900687Y-7874633D01*
X73746742Y-7938399D01*
X73583315Y-7970907D01*
X73416685Y-7970907D01*
X73253258Y-7938399D01*
X73099313Y-7874633D01*
X72960766Y-7782059D01*
X72842941Y-7664234D01*
X72750367Y-7525687D01*
X72686601Y-7371742D01*
X72654093Y-7208315D01*
X72650000Y-7125000D01*
X72650000Y-6875000D01*
X72654093Y-6791685D01*
X72686601Y-6628258D01*
X72750367Y-6474313D01*
X72842941Y-6335766D01*
X72960766Y-6217941D01*
X73099313Y-6125367D01*
X73253258Y-6061601D01*
X73416685Y-6029093D01*
X73583315Y-6029093D01*
X73746742Y-6061601D01*
G37*
G36*
X76246742Y-6061601D02*
G01*
X76400687Y-6125367D01*
X76539234Y-6217941D01*
X76657059Y-6335766D01*
X76749633Y-6474313D01*
X76813399Y-6628258D01*
X76845907Y-6791685D01*
X76850000Y-6875000D01*
X76850000Y-7125000D01*
X76845907Y-7208315D01*
X76813399Y-7371742D01*
X76749633Y-7525687D01*
X76657059Y-7664234D01*
X76539234Y-7782059D01*
X76400687Y-7874633D01*
X76246742Y-7938399D01*
X76083315Y-7970907D01*
X75916685Y-7970907D01*
X75753258Y-7938399D01*
X75599313Y-7874633D01*
X75460766Y-7782059D01*
X75342941Y-7664234D01*
X75250367Y-7525687D01*
X75186601Y-7371742D01*
X75154093Y-7208315D01*
X75150000Y-7125000D01*
X75150000Y-6875000D01*
X75154093Y-6791685D01*
X75186601Y-6628258D01*
X75250367Y-6474313D01*
X75342941Y-6335766D01*
X75460766Y-6217941D01*
X75599313Y-6125367D01*
X75753258Y-6061601D01*
X75916685Y-6029093D01*
X76083315Y-6029093D01*
X76246742Y-6061601D01*
G37*
G36*
X78746742Y-6061601D02*
G01*
X78900687Y-6125367D01*
X79039234Y-6217941D01*
X79157059Y-6335766D01*
X79249633Y-6474313D01*
X79313399Y-6628258D01*
X79345907Y-6791685D01*
X79350000Y-6875000D01*
X79350000Y-7125000D01*
X79345907Y-7208315D01*
X79313399Y-7371742D01*
X79249633Y-7525687D01*
X79157059Y-7664234D01*
X79039234Y-7782059D01*
X78900687Y-7874633D01*
X78746742Y-7938399D01*
X78583315Y-7970907D01*
X78416685Y-7970907D01*
X78253258Y-7938399D01*
X78099313Y-7874633D01*
X77960766Y-7782059D01*
X77842941Y-7664234D01*
X77750367Y-7525687D01*
X77686601Y-7371742D01*
X77654093Y-7208315D01*
X77650000Y-7125000D01*
X77650000Y-6875000D01*
X77654093Y-6791685D01*
X77686601Y-6628258D01*
X77750367Y-6474313D01*
X77842941Y-6335766D01*
X77960766Y-6217941D01*
X78099313Y-6125367D01*
X78253258Y-6061601D01*
X78416685Y-6029093D01*
X78583315Y-6029093D01*
X78746742Y-6061601D01*
G37*
G36*
X30000000Y-7000000D02*
G01*
X28000000Y-7000000D01*
X28000000Y-5000000D01*
X30000000Y-5000000D01*
X30000000Y-7000000D01*
G37*
G36*
X34290285Y-5043060D02*
G01*
X34471397Y-5118079D01*
X34634393Y-5226990D01*
X34773010Y-5365607D01*
X34881921Y-5528603D01*
X34956940Y-5709715D01*
X34995185Y-5901983D01*
X34995185Y-6098017D01*
X34956940Y-6290285D01*
X34881921Y-6471397D01*
X34773010Y-6634393D01*
X34634393Y-6773010D01*
X34471397Y-6881921D01*
X34290285Y-6956940D01*
X34098017Y-6995185D01*
X33901983Y-6995185D01*
X33709715Y-6956940D01*
X33528603Y-6881921D01*
X33365607Y-6773010D01*
X33226990Y-6634393D01*
X33118079Y-6471397D01*
X33043060Y-6290285D01*
X33004815Y-6098017D01*
X33004815Y-5901983D01*
X33043060Y-5709715D01*
X33118079Y-5528603D01*
X33226990Y-5365607D01*
X33365607Y-5226990D01*
X33528603Y-5118079D01*
X33709715Y-5043060D01*
X33901983Y-5004815D01*
X34098017Y-5004815D01*
X34290285Y-5043060D01*
G37*
G36*
X4373513Y-2444208D02*
G01*
X4612293Y-2521793D01*
X4835998Y-2635776D01*
X5039117Y-2783350D01*
X5216650Y-2960883D01*
X5364224Y-3164002D01*
X5478207Y-3387707D01*
X5555792Y-3626487D01*
X5595068Y-3874465D01*
X5595068Y-4125535D01*
X5555792Y-4373513D01*
X5478207Y-4612293D01*
X5364224Y-4835998D01*
X5216650Y-5039117D01*
X5039117Y-5216650D01*
X4835998Y-5364224D01*
X4612293Y-5478207D01*
X4373513Y-5555792D01*
X4125535Y-5595068D01*
X3874465Y-5595068D01*
X3626487Y-5555792D01*
X3387707Y-5478207D01*
X3164002Y-5364224D01*
X2960883Y-5216650D01*
X2783350Y-5039117D01*
X2635776Y-4835998D01*
X2521793Y-4612293D01*
X2444208Y-4373513D01*
X2404932Y-4125535D01*
X2404932Y-3874465D01*
X2444208Y-3626487D01*
X2521793Y-3387707D01*
X2635776Y-3164002D01*
X2783350Y-2960883D01*
X2960883Y-2783350D01*
X3164002Y-2635776D01*
X3387707Y-2521793D01*
X3626487Y-2444208D01*
X3874465Y-2404932D01*
X4125535Y-2404932D01*
X4373513Y-2444208D01*
G37*
G36*
X86373513Y-2444208D02*
G01*
X86612293Y-2521793D01*
X86835998Y-2635776D01*
X87039117Y-2783350D01*
X87216650Y-2960883D01*
X87364224Y-3164002D01*
X87478207Y-3387707D01*
X87555792Y-3626487D01*
X87595068Y-3874465D01*
X87595068Y-4125535D01*
X87555792Y-4373513D01*
X87478207Y-4612293D01*
X87364224Y-4835998D01*
X87216650Y-5039117D01*
X87039117Y-5216650D01*
X86835998Y-5364224D01*
X86612293Y-5478207D01*
X86373513Y-5555792D01*
X86125535Y-5595068D01*
X85874465Y-5595068D01*
X85626487Y-5555792D01*
X85387707Y-5478207D01*
X85164002Y-5364224D01*
X84960883Y-5216650D01*
X84783350Y-5039117D01*
X84635776Y-4835998D01*
X84521793Y-4612293D01*
X84444208Y-4373513D01*
X84404932Y-4125535D01*
X84404932Y-3874465D01*
X84444208Y-3626487D01*
X84521793Y-3387707D01*
X84635776Y-3164002D01*
X84783350Y-2960883D01*
X84960883Y-2783350D01*
X85164002Y-2635776D01*
X85387707Y-2521793D01*
X85626487Y-2444208D01*
X85874465Y-2404932D01*
X86125535Y-2404932D01*
X86373513Y-2444208D01*
G37*
G36*
X12000000Y-5000000D02*
G01*
X10000000Y-5000000D01*
X10000000Y-3000000D01*
X12000000Y-3000000D01*
X12000000Y-5000000D01*
G37*
G36*
X16290285Y-3043060D02*
G01*
X16471397Y-3118079D01*
X16634393Y-3226990D01*
X16773010Y-3365607D01*
X16881921Y-3528603D01*
X16956940Y-3709715D01*
X16995185Y-3901983D01*
X16995185Y-4098017D01*
X16956940Y-4290285D01*
X16881921Y-4471397D01*
X16773010Y-4634393D01*
X16634393Y-4773010D01*
X16471397Y-4881921D01*
X16290285Y-4956940D01*
X16098017Y-4995185D01*
X15901983Y-4995185D01*
X15709715Y-4956940D01*
X15528603Y-4881921D01*
X15365607Y-4773010D01*
X15226990Y-4634393D01*
X15118079Y-4471397D01*
X15043060Y-4290285D01*
X15004815Y-4098017D01*
X15004815Y-3901983D01*
X15043060Y-3709715D01*
X15118079Y-3528603D01*
X15226990Y-3365607D01*
X15365607Y-3226990D01*
X15528603Y-3118079D01*
X15709715Y-3043060D01*
X15901983Y-3004815D01*
X16098017Y-3004815D01*
X16290285Y-3043060D01*
G37*
M02*
