M48
; DRILL file {KiCad 9.0.9-9.0.9~ubuntu24.04.1} date 2026-10-08T12:53:06-0700
; FORMAT={-:-/ absolute / metric / decimal}
; #@! TF.CreationDate,2026-10-08T12:53:06-07:00
; #@! TF.GenerationSoftware,Kicad,Pcbnew,9.0.9-9.0.9~ubuntu24.04.1
; #@! TF.FileFunction,Plated,1,2,PTH
FMAT,2
METRIC
; #@! TA.AperFunction,Plated,PTH,ViaDrill
T1C0.450
; #@! TA.AperFunction,Plated,PTH,ComponentDrill
T2C0.600
; #@! TA.AperFunction,Plated,PTH,ComponentDrill
T3C0.750
; #@! TA.AperFunction,Plated,PTH,ComponentDrill
T4C0.800
; #@! TA.AperFunction,Plated,PTH,ComponentDrill
T5C0.950
; #@! TA.AperFunction,Plated,PTH,ComponentDrill
T6C1.000
; #@! TA.AperFunction,Plated,PTH,ComponentDrill
T7C1.200
%
G90
G05
T1
X10.25Y-48.875
X10.25Y-50.75
X13.0Y-46.75
X13.0Y-50.25
X21.5Y-44.0
X23.625Y-28.0
X24.625Y-40.0
X25.25Y-39.0
X25.625Y-36.625
X27.375Y-40.125
X28.5Y-35.0
X29.625Y-15.0
X30.0Y-46.0
X31.0Y-21.0
X31.0Y-38.0
X31.25Y-28.0
X31.25Y-30.0
X33.0Y-15.0
X34.5Y-22.0
X35.0Y-28.0
X35.0Y-30.0
X36.75Y-8.0
X36.75Y-10.5
X36.75Y-41.0
X56.25Y-8.0
X56.25Y-10.5
X56.25Y-13.125
X56.25Y-19.875
X56.25Y-25.75
X56.25Y-36.0
X57.125Y-29.875
X57.75Y-11.5
X58.125Y-24.25
X59.0Y-6.875
X59.25Y-21.0
X59.875Y-8.75
X59.875Y-11.125
X60.0Y-14.5
X60.125Y-28.5
X60.125Y-34.0
X60.75Y-15.375
X61.0Y-25.125
X61.0Y-33.125
X61.25Y-11.125
X61.25Y-18.25
X61.5Y-22.0
X62.125Y-14.5
X62.375Y-25.125
X66.0Y-3.0
X67.0Y-14.5
X68.0Y-20.5
X70.0Y-20.5
X70.875Y-22.25
X72.0Y-20.5
X72.625Y-34.0
X74.0Y-20.5
X76.875Y-13.125
X77.0Y-26.0
X77.0Y-36.0
X77.375Y-37.0
X78.0Y-38.0
X78.125Y-14.875
X78.875Y-19.75
X79.875Y-17.125
X80.0Y-42.75
X80.0Y-53.25
X81.0Y-14.0
X81.0Y-18.0
X82.125Y-45.25
X85.0Y-18.0
T3
X64.0Y-17.0
X66.0Y-17.0
X68.0Y-17.0
X70.0Y-17.0
X72.0Y-17.0
X74.0Y-17.0
X76.0Y-17.0
X78.0Y-17.0
T4
X63.0Y-50.0
X65.0Y-50.0
X81.0Y-27.0
X84.5Y-27.0
T5
X61.0Y-7.0
X63.5Y-7.0
X66.0Y-7.0
X68.5Y-7.0
X71.0Y-7.0
X73.5Y-7.0
X76.0Y-7.0
X78.5Y-7.0
T6
X11.0Y-4.0
X16.0Y-4.0
X29.0Y-6.0
X34.0Y-6.0
X39.0Y-8.0
X39.0Y-10.54
X39.0Y-13.08
X39.0Y-15.62
X39.0Y-18.16
X39.0Y-20.7
X39.0Y-23.24
X39.0Y-25.78
X39.0Y-28.32
X39.0Y-30.86
X39.0Y-33.4
X39.0Y-35.94
X39.0Y-38.48
X39.0Y-41.02
X39.0Y-43.56
X54.24Y-8.0
X54.24Y-10.54
X54.24Y-13.08
X54.24Y-15.62
X54.24Y-18.16
X54.24Y-20.7
X54.24Y-23.24
X54.24Y-25.78
X54.24Y-28.32
X54.24Y-30.86
X54.24Y-33.4
X54.24Y-35.94
X54.24Y-38.48
X54.24Y-41.02
X54.24Y-43.56
X85.0Y-41.5
X85.0Y-44.0
T7
X17.47Y-26.28
X20.01Y-26.28
X22.55Y-26.28
X58.67Y-43.33
X61.21Y-43.33
X63.75Y-43.33
X66.29Y-43.33
X68.83Y-43.33
X71.37Y-43.33
T2
G00X8.68Y-48.7
M15
G01X8.68Y-49.3
M16
G05
G00X8.68Y-52.5
M15
G01X8.68Y-53.1
M16
G05
G00X17.32Y-48.7
M15
G01X17.32Y-49.3
M16
G05
G00X17.32Y-52.5
M15
G01X17.32Y-53.1
M16
G05
M30
