%TF.GenerationSoftware,KiCad,Pcbnew,9.0.9-9.0.9~ubuntu24.04.1*%
%TF.CreationDate,2026-10-08T12:53:06-07:00*%
%TF.ProjectId,VELOX_carrier_B,56454c4f-585f-4636-9172-726965725f42,rev?*%
%TF.SameCoordinates,Original*%
%TF.FileFunction,Legend,Bot*%
%TF.FilePolarity,Positive*%
%FSLAX46Y46*%
G04 Gerber Fmt 4.6, Leading zero omitted, Abs format (unit mm)*
G04 Created by KiCad (PCBNEW 9.0.9-9.0.9~ubuntu24.04.1) date 2026-10-08 12:53:06*
%MOMM*%
%LPD*%
G01*
G04 APERTURE LIST*
G04 APERTURE END LIST*
%LPC*%
G36*
X8890476Y-51991866D02*
G01*
X9014819Y-52063656D01*
X9116344Y-52165181D01*
X9188134Y-52289524D01*
X9225295Y-52428211D01*
X9230000Y-52500000D01*
X9230000Y-53100000D01*
X9225295Y-53171789D01*
X9188134Y-53310476D01*
X9116344Y-53434819D01*
X9014819Y-53536344D01*
X8890476Y-53608134D01*
X8751789Y-53645295D01*
X8608211Y-53645295D01*
X8469524Y-53608134D01*
X8345181Y-53536344D01*
X8243656Y-53434819D01*
X8171866Y-53310476D01*
X8134705Y-53171789D01*
X8130000Y-53100000D01*
X8130000Y-52500000D01*
X8134705Y-52428211D01*
X8171866Y-52289524D01*
X8243656Y-52165181D01*
X8345181Y-52063656D01*
X8469524Y-51991866D01*
X8608211Y-51954705D01*
X8751789Y-51954705D01*
X8890476Y-51991866D01*
G37*
G36*
X17530476Y-51991866D02*
G01*
X17654819Y-52063656D01*
X17756344Y-52165181D01*
X17828134Y-52289524D01*
X17865295Y-52428211D01*
X17870000Y-52500000D01*
X17870000Y-53100000D01*
X17865295Y-53171789D01*
X17828134Y-53310476D01*
X17756344Y-53434819D01*
X17654819Y-53536344D01*
X17530476Y-53608134D01*
X17391789Y-53645295D01*
X17248211Y-53645295D01*
X17109524Y-53608134D01*
X16985181Y-53536344D01*
X16883656Y-53434819D01*
X16811866Y-53310476D01*
X16774705Y-53171789D01*
X16770000Y-53100000D01*
X16770000Y-52500000D01*
X16774705Y-52428211D01*
X16811866Y-52289524D01*
X16883656Y-52165181D01*
X16985181Y-52063656D01*
X17109524Y-51991866D01*
X17248211Y-51954705D01*
X17391789Y-51954705D01*
X17530476Y-51991866D01*
G37*
G36*
X4373513Y-49444208D02*
G01*
X4612293Y-49521793D01*
X4835998Y-49635776D01*
X5039117Y-49783350D01*
X5216650Y-49960883D01*
X5364224Y-50164002D01*
X5478207Y-50387707D01*
X5555792Y-50626487D01*
X5595068Y-50874465D01*
X5595068Y-51125535D01*
X5555792Y-51373513D01*
X5478207Y-51612293D01*
X5364224Y-51835998D01*
X5216650Y-52039117D01*
X5039117Y-52216650D01*
X4835998Y-52364224D01*
X4612293Y-52478207D01*
X4373513Y-52555792D01*
X4125535Y-52595068D01*
X3874465Y-52595068D01*
X3626487Y-52555792D01*
X3387707Y-52478207D01*
X3164002Y-52364224D01*
X2960883Y-52216650D01*
X2783350Y-52039117D01*
X2635776Y-51835998D01*
X2521793Y-51612293D01*
X2444208Y-51373513D01*
X2404932Y-51125535D01*
X2404932Y-50874465D01*
X2444208Y-50626487D01*
X2521793Y-50387707D01*
X2635776Y-50164002D01*
X2783350Y-49960883D01*
X2960883Y-49783350D01*
X3164002Y-49635776D01*
X3387707Y-49521793D01*
X3626487Y-49444208D01*
X3874465Y-49404932D01*
X4125535Y-49404932D01*
X4373513Y-49444208D01*
G37*
G36*
X86373513Y-49444208D02*
G01*
X86612293Y-49521793D01*
X86835998Y-49635776D01*
X87039117Y-49783350D01*
X87216650Y-49960883D01*
X87364224Y-50164002D01*
X87478207Y-50387707D01*
X87555792Y-50626487D01*
X87595068Y-50874465D01*
X87595068Y-51125535D01*
X87555792Y-51373513D01*
X87478207Y-51612293D01*
X87364224Y-51835998D01*
X87216650Y-52039117D01*
X87039117Y-52216650D01*
X86835998Y-52364224D01*
X86612293Y-52478207D01*
X86373513Y-52555792D01*
X86125535Y-52595068D01*
X85874465Y-52595068D01*
X85626487Y-52555792D01*
X85387707Y-52478207D01*
X85164002Y-52364224D01*
X84960883Y-52216650D01*
X84783350Y-52039117D01*
X84635776Y-51835998D01*
X84521793Y-51612293D01*
X84444208Y-51373513D01*
X84404932Y-51125535D01*
X84404932Y-50874465D01*
X84444208Y-50626487D01*
X84521793Y-50387707D01*
X84635776Y-50164002D01*
X84783350Y-49960883D01*
X84960883Y-49783350D01*
X85164002Y-49635776D01*
X85387707Y-49521793D01*
X85626487Y-49444208D01*
X85874465Y-49404932D01*
X86125535Y-49404932D01*
X86373513Y-49444208D01*
G37*
G36*
X63800000Y-50800000D02*
G01*
X62200000Y-50800000D01*
X62200000Y-49200000D01*
X63800000Y-49200000D01*
X63800000Y-50800000D01*
G37*
G36*
X65232228Y-49234448D02*
G01*
X65377117Y-49294463D01*
X65507515Y-49381592D01*
X65618408Y-49492485D01*
X65705537Y-49622883D01*
X65765552Y-49767772D01*
X65796148Y-49921586D01*
X65796148Y-50078414D01*
X65765552Y-50232228D01*
X65705537Y-50377117D01*
X65618408Y-50507515D01*
X65507515Y-50618408D01*
X65377117Y-50705537D01*
X65232228Y-50765552D01*
X65078414Y-50796148D01*
X64921586Y-50796148D01*
X64767772Y-50765552D01*
X64622883Y-50705537D01*
X64492485Y-50618408D01*
X64381592Y-50507515D01*
X64294463Y-50377117D01*
X64234448Y-50232228D01*
X64203852Y-50078414D01*
X64203852Y-49921586D01*
X64234448Y-49767772D01*
X64294463Y-49622883D01*
X64381592Y-49492485D01*
X64492485Y-49381592D01*
X64622883Y-49294463D01*
X64767772Y-49234448D01*
X64921586Y-49203852D01*
X65078414Y-49203852D01*
X65232228Y-49234448D01*
G37*
G36*
X8890476Y-48191866D02*
G01*
X9014819Y-48263656D01*
X9116344Y-48365181D01*
X9188134Y-48489524D01*
X9225295Y-48628211D01*
X9230000Y-48700000D01*
X9230000Y-49300000D01*
X9225295Y-49371789D01*
X9188134Y-49510476D01*
X9116344Y-49634819D01*
X9014819Y-49736344D01*
X8890476Y-49808134D01*
X8751789Y-49845295D01*
X8608211Y-49845295D01*
X8469524Y-49808134D01*
X8345181Y-49736344D01*
X8243656Y-49634819D01*
X8171866Y-49510476D01*
X8134705Y-49371789D01*
X8130000Y-49300000D01*
X8130000Y-48700000D01*
X8134705Y-48628211D01*
X8171866Y-48489524D01*
X8243656Y-48365181D01*
X8345181Y-48263656D01*
X8469524Y-48191866D01*
X8608211Y-48154705D01*
X8751789Y-48154705D01*
X8890476Y-48191866D01*
G37*
G36*
X17530476Y-48191866D02*
G01*
X17654819Y-48263656D01*
X17756344Y-48365181D01*
X17828134Y-48489524D01*
X17865295Y-48628211D01*
X17870000Y-48700000D01*
X17870000Y-49300000D01*
X17865295Y-49371789D01*
X17828134Y-49510476D01*
X17756344Y-49634819D01*
X17654819Y-49736344D01*
X17530476Y-49808134D01*
X17391789Y-49845295D01*
X17248211Y-49845295D01*
X17109524Y-49808134D01*
X16985181Y-49736344D01*
X16883656Y-49634819D01*
X16811866Y-49510476D01*
X16774705Y-49371789D01*
X16770000Y-49300000D01*
X16770000Y-48700000D01*
X16774705Y-48628211D01*
X16811866Y-48489524D01*
X16883656Y-48365181D01*
X16985181Y-48263656D01*
X17109524Y-48191866D01*
X17248211Y-48154705D01*
X17391789Y-48154705D01*
X17530476Y-48191866D01*
G37*
G36*
X85754047Y-43150805D02*
G01*
X85805408Y-43156764D01*
X85822954Y-43164511D01*
X85845671Y-43169030D01*
X85869991Y-43185280D01*
X85890793Y-43194465D01*
X85905000Y-43208672D01*
X85926777Y-43223223D01*
X85941327Y-43244999D01*
X85955534Y-43259206D01*
X85964718Y-43280006D01*
X85980970Y-43304329D01*
X85985489Y-43327048D01*
X85993235Y-43344591D01*
X85999192Y-43395940D01*
X86000000Y-43400000D01*
X86000000Y-44600000D01*
X85999192Y-44604059D01*
X85993235Y-44655408D01*
X85985489Y-44672950D01*
X85980970Y-44695671D01*
X85964716Y-44719995D01*
X85955534Y-44740793D01*
X85941329Y-44754997D01*
X85926777Y-44776777D01*
X85904997Y-44791329D01*
X85890793Y-44805534D01*
X85869995Y-44814716D01*
X85845671Y-44830970D01*
X85822950Y-44835489D01*
X85805408Y-44843235D01*
X85754061Y-44849192D01*
X85750000Y-44850000D01*
X84250000Y-44850000D01*
X84245941Y-44849192D01*
X84194591Y-44843235D01*
X84177048Y-44835489D01*
X84154329Y-44830970D01*
X84130006Y-44814718D01*
X84109206Y-44805534D01*
X84094999Y-44791327D01*
X84073223Y-44776777D01*
X84058672Y-44755000D01*
X84044465Y-44740793D01*
X84035280Y-44719991D01*
X84019030Y-44695671D01*
X84014511Y-44672954D01*
X84006764Y-44655408D01*
X84000805Y-44604049D01*
X84000000Y-44600000D01*
X84000000Y-43400000D01*
X84000804Y-43395953D01*
X84006764Y-43344591D01*
X84014511Y-43327043D01*
X84019030Y-43304329D01*
X84035278Y-43280010D01*
X84044465Y-43259206D01*
X84058674Y-43244996D01*
X84073223Y-43223223D01*
X84094996Y-43208674D01*
X84109206Y-43194465D01*
X84130010Y-43185278D01*
X84154329Y-43169030D01*
X84177043Y-43164511D01*
X84194591Y-43156764D01*
X84245952Y-43150805D01*
X84250000Y-43150000D01*
X85750000Y-43150000D01*
X85754047Y-43150805D01*
G37*
G36*
X39246742Y-42746601D02*
G01*
X39400687Y-42810367D01*
X39539234Y-42902941D01*
X39657059Y-43020766D01*
X39749633Y-43159313D01*
X39813399Y-43313258D01*
X39845907Y-43476685D01*
X39845907Y-43643315D01*
X39813399Y-43806742D01*
X39749633Y-43960687D01*
X39657059Y-44099234D01*
X39539234Y-44217059D01*
X39400687Y-44309633D01*
X39246742Y-44373399D01*
X39083315Y-44405907D01*
X38916685Y-44405907D01*
X38753258Y-44373399D01*
X38599313Y-44309633D01*
X38460766Y-44217059D01*
X38342941Y-44099234D01*
X38250367Y-43960687D01*
X38186601Y-43806742D01*
X38154093Y-43643315D01*
X38154093Y-43476685D01*
X38186601Y-43313258D01*
X38250367Y-43159313D01*
X38342941Y-43020766D01*
X38460766Y-42902941D01*
X38599313Y-42810367D01*
X38753258Y-42746601D01*
X38916685Y-42714093D01*
X39083315Y-42714093D01*
X39246742Y-42746601D01*
G37*
G36*
X54486742Y-42746601D02*
G01*
X54640687Y-42810367D01*
X54779234Y-42902941D01*
X54897059Y-43020766D01*
X54989633Y-43159313D01*
X55053399Y-43313258D01*
X55085907Y-43476685D01*
X55085907Y-43643315D01*
X55053399Y-43806742D01*
X54989633Y-43960687D01*
X54897059Y-44099234D01*
X54779234Y-44217059D01*
X54640687Y-44309633D01*
X54486742Y-44373399D01*
X54323315Y-44405907D01*
X54156685Y-44405907D01*
X53993258Y-44373399D01*
X53839313Y-44309633D01*
X53700766Y-44217059D01*
X53582941Y-44099234D01*
X53490367Y-43960687D01*
X53426601Y-43806742D01*
X53394093Y-43643315D01*
X53394093Y-43476685D01*
X53426601Y-43313258D01*
X53490367Y-43159313D01*
X53582941Y-43020766D01*
X53700766Y-42902941D01*
X53839313Y-42810367D01*
X53993258Y-42746601D01*
X54156685Y-42714093D01*
X54323315Y-42714093D01*
X54486742Y-42746601D01*
G37*
G36*
X59670000Y-44330000D02*
G01*
X57670000Y-44330000D01*
X57670000Y-42330000D01*
X59670000Y-42330000D01*
X59670000Y-44330000D01*
G37*
G36*
X61500285Y-42373060D02*
G01*
X61681397Y-42448079D01*
X61844393Y-42556990D01*
X61983010Y-42695607D01*
X62091921Y-42858603D01*
X62166940Y-43039715D01*
X62205185Y-43231983D01*
X62205185Y-43428017D01*
X62166940Y-43620285D01*
X62091921Y-43801397D01*
X61983010Y-43964393D01*
X61844393Y-44103010D01*
X61681397Y-44211921D01*
X61500285Y-44286940D01*
X61308017Y-44325185D01*
X61111983Y-44325185D01*
X60919715Y-44286940D01*
X60738603Y-44211921D01*
X60575607Y-44103010D01*
X60436990Y-43964393D01*
X60328079Y-43801397D01*
X60253060Y-43620285D01*
X60214815Y-43428017D01*
X60214815Y-43231983D01*
X60253060Y-43039715D01*
X60328079Y-42858603D01*
X60436990Y-42695607D01*
X60575607Y-42556990D01*
X60738603Y-42448079D01*
X60919715Y-42373060D01*
X61111983Y-42334815D01*
X61308017Y-42334815D01*
X61500285Y-42373060D01*
G37*
G36*
X64040285Y-42373060D02*
G01*
X64221397Y-42448079D01*
X64384393Y-42556990D01*
X64523010Y-42695607D01*
X64631921Y-42858603D01*
X64706940Y-43039715D01*
X64745185Y-43231983D01*
X64745185Y-43428017D01*
X64706940Y-43620285D01*
X64631921Y-43801397D01*
X64523010Y-43964393D01*
X64384393Y-44103010D01*
X64221397Y-44211921D01*
X64040285Y-44286940D01*
X63848017Y-44325185D01*
X63651983Y-44325185D01*
X63459715Y-44286940D01*
X63278603Y-44211921D01*
X63115607Y-44103010D01*
X62976990Y-43964393D01*
X62868079Y-43801397D01*
X62793060Y-43620285D01*
X62754815Y-43428017D01*
X62754815Y-43231983D01*
X62793060Y-43039715D01*
X62868079Y-42858603D01*
X62976990Y-42695607D01*
X63115607Y-42556990D01*
X63278603Y-42448079D01*
X63459715Y-42373060D01*
X63651983Y-42334815D01*
X63848017Y-42334815D01*
X64040285Y-42373060D01*
G37*
G36*
X66580285Y-42373060D02*
G01*
X66761397Y-42448079D01*
X66924393Y-42556990D01*
X67063010Y-42695607D01*
X67171921Y-42858603D01*
X67246940Y-43039715D01*
X67285185Y-43231983D01*
X67285185Y-43428017D01*
X67246940Y-43620285D01*
X67171921Y-43801397D01*
X67063010Y-43964393D01*
X66924393Y-44103010D01*
X66761397Y-44211921D01*
X66580285Y-44286940D01*
X66388017Y-44325185D01*
X66191983Y-44325185D01*
X65999715Y-44286940D01*
X65818603Y-44211921D01*
X65655607Y-44103010D01*
X65516990Y-43964393D01*
X65408079Y-43801397D01*
X65333060Y-43620285D01*
X65294815Y-43428017D01*
X65294815Y-43231983D01*
X65333060Y-43039715D01*
X65408079Y-42858603D01*
X65516990Y-42695607D01*
X65655607Y-42556990D01*
X65818603Y-42448079D01*
X65999715Y-42373060D01*
X66191983Y-42334815D01*
X66388017Y-42334815D01*
X66580285Y-42373060D01*
G37*
G36*
X69120285Y-42373060D02*
G01*
X69301397Y-42448079D01*
X69464393Y-42556990D01*
X69603010Y-42695607D01*
X69711921Y-42858603D01*
X69786940Y-43039715D01*
X69825185Y-43231983D01*
X69825185Y-43428017D01*
X69786940Y-43620285D01*
X69711921Y-43801397D01*
X69603010Y-43964393D01*
X69464393Y-44103010D01*
X69301397Y-44211921D01*
X69120285Y-44286940D01*
X68928017Y-44325185D01*
X68731983Y-44325185D01*
X68539715Y-44286940D01*
X68358603Y-44211921D01*
X68195607Y-44103010D01*
X68056990Y-43964393D01*
X67948079Y-43801397D01*
X67873060Y-43620285D01*
X67834815Y-43428017D01*
X67834815Y-43231983D01*
X67873060Y-43039715D01*
X67948079Y-42858603D01*
X68056990Y-42695607D01*
X68195607Y-42556990D01*
X68358603Y-42448079D01*
X68539715Y-42373060D01*
X68731983Y-42334815D01*
X68928017Y-42334815D01*
X69120285Y-42373060D01*
G37*
G36*
X71660284Y-42373060D02*
G01*
X71841396Y-42448079D01*
X72004392Y-42556990D01*
X72143009Y-42695607D01*
X72251920Y-42858603D01*
X72326939Y-43039715D01*
X72365184Y-43231983D01*
X72365184Y-43428017D01*
X72326939Y-43620285D01*
X72251920Y-43801397D01*
X72143009Y-43964393D01*
X72004392Y-44103010D01*
X71841396Y-44211921D01*
X71660284Y-44286940D01*
X71468016Y-44325185D01*
X71271982Y-44325185D01*
X71079714Y-44286940D01*
X70898602Y-44211921D01*
X70735606Y-44103010D01*
X70596989Y-43964393D01*
X70488078Y-43801397D01*
X70413059Y-43620285D01*
X70374814Y-43428017D01*
X70374814Y-43231983D01*
X70413059Y-43039715D01*
X70488078Y-42858603D01*
X70596989Y-42695607D01*
X70735606Y-42556990D01*
X70898602Y-42448079D01*
X71079714Y-42373060D01*
X71271982Y-42334815D01*
X71468016Y-42334815D01*
X71660284Y-42373060D01*
G37*
G36*
X85233315Y-40654093D02*
G01*
X85396742Y-40686601D01*
X85550687Y-40750367D01*
X85689234Y-40842941D01*
X85807059Y-40960766D01*
X85899633Y-41099313D01*
X85963399Y-41253258D01*
X85995907Y-41416685D01*
X85995907Y-41583315D01*
X85963399Y-41746742D01*
X85899633Y-41900687D01*
X85807059Y-42039234D01*
X85689234Y-42157059D01*
X85550687Y-42249633D01*
X85396742Y-42313399D01*
X85233315Y-42345907D01*
X85150000Y-42350000D01*
X85148768Y-42350000D01*
X84851232Y-42350000D01*
X84850000Y-42350000D01*
X84766685Y-42345907D01*
X84603258Y-42313399D01*
X84449313Y-42249633D01*
X84310766Y-42157059D01*
X84192941Y-42039234D01*
X84100367Y-41900687D01*
X84036601Y-41746742D01*
X84004093Y-41583315D01*
X84004093Y-41416685D01*
X84036601Y-41253258D01*
X84100367Y-41099313D01*
X84192941Y-40960766D01*
X84310766Y-40842941D01*
X84449313Y-40750367D01*
X84603258Y-40686601D01*
X84766685Y-40654093D01*
X84850000Y-40650000D01*
X85150000Y-40650000D01*
X85233315Y-40654093D01*
G37*
G36*
X39246742Y-40206601D02*
G01*
X39400687Y-40270367D01*
X39539234Y-40362941D01*
X39657059Y-40480766D01*
X39749633Y-40619313D01*
X39813399Y-40773258D01*
X39845907Y-40936685D01*
X39845907Y-41103315D01*
X39813399Y-41266742D01*
X39749633Y-41420687D01*
X39657059Y-41559234D01*
X39539234Y-41677059D01*
X39400687Y-41769633D01*
X39246742Y-41833399D01*
X39083315Y-41865907D01*
X38916685Y-41865907D01*
X38753258Y-41833399D01*
X38599313Y-41769633D01*
X38460766Y-41677059D01*
X38342941Y-41559234D01*
X38250367Y-41420687D01*
X38186601Y-41266742D01*
X38154093Y-41103315D01*
X38154093Y-40936685D01*
X38186601Y-40773258D01*
X38250367Y-40619313D01*
X38342941Y-40480766D01*
X38460766Y-40362941D01*
X38599313Y-40270367D01*
X38753258Y-40206601D01*
X38916685Y-40174093D01*
X39083315Y-40174093D01*
X39246742Y-40206601D01*
G37*
G36*
X54486742Y-40206601D02*
G01*
X54640687Y-40270367D01*
X54779234Y-40362941D01*
X54897059Y-40480766D01*
X54989633Y-40619313D01*
X55053399Y-40773258D01*
X55085907Y-40936685D01*
X55085907Y-41103315D01*
X55053399Y-41266742D01*
X54989633Y-41420687D01*
X54897059Y-41559234D01*
X54779234Y-41677059D01*
X54640687Y-41769633D01*
X54486742Y-41833399D01*
X54323315Y-41865907D01*
X54156685Y-41865907D01*
X53993258Y-41833399D01*
X53839313Y-41769633D01*
X53700766Y-41677059D01*
X53582941Y-41559234D01*
X53490367Y-41420687D01*
X53426601Y-41266742D01*
X53394093Y-41103315D01*
X53394093Y-40936685D01*
X53426601Y-40773258D01*
X53490367Y-40619313D01*
X53582941Y-40480766D01*
X53700766Y-40362941D01*
X53839313Y-40270367D01*
X53993258Y-40206601D01*
X54156685Y-40174093D01*
X54323315Y-40174093D01*
X54486742Y-40206601D01*
G37*
G36*
X39246742Y-37666601D02*
G01*
X39400687Y-37730367D01*
X39539234Y-37822941D01*
X39657059Y-37940766D01*
X39749633Y-38079313D01*
X39813399Y-38233258D01*
X39845907Y-38396685D01*
X39845907Y-38563315D01*
X39813399Y-38726742D01*
X39749633Y-38880687D01*
X39657059Y-39019234D01*
X39539234Y-39137059D01*
X39400687Y-39229633D01*
X39246742Y-39293399D01*
X39083315Y-39325907D01*
X38916685Y-39325907D01*
X38753258Y-39293399D01*
X38599313Y-39229633D01*
X38460766Y-39137059D01*
X38342941Y-39019234D01*
X38250367Y-38880687D01*
X38186601Y-38726742D01*
X38154093Y-38563315D01*
X38154093Y-38396685D01*
X38186601Y-38233258D01*
X38250367Y-38079313D01*
X38342941Y-37940766D01*
X38460766Y-37822941D01*
X38599313Y-37730367D01*
X38753258Y-37666601D01*
X38916685Y-37634093D01*
X39083315Y-37634093D01*
X39246742Y-37666601D01*
G37*
G36*
X54486742Y-37666601D02*
G01*
X54640687Y-37730367D01*
X54779234Y-37822941D01*
X54897059Y-37940766D01*
X54989633Y-38079313D01*
X55053399Y-38233258D01*
X55085907Y-38396685D01*
X55085907Y-38563315D01*
X55053399Y-38726742D01*
X54989633Y-38880687D01*
X54897059Y-39019234D01*
X54779234Y-39137059D01*
X54640687Y-39229633D01*
X54486742Y-39293399D01*
X54323315Y-39325907D01*
X54156685Y-39325907D01*
X53993258Y-39293399D01*
X53839313Y-39229633D01*
X53700766Y-39137059D01*
X53582941Y-39019234D01*
X53490367Y-38880687D01*
X53426601Y-38726742D01*
X53394093Y-38563315D01*
X53394093Y-38396685D01*
X53426601Y-38233258D01*
X53490367Y-38079313D01*
X53582941Y-37940766D01*
X53700766Y-37822941D01*
X53839313Y-37730367D01*
X53993258Y-37666601D01*
X54156685Y-37634093D01*
X54323315Y-37634093D01*
X54486742Y-37666601D01*
G37*
G36*
X39246742Y-35126601D02*
G01*
X39400687Y-35190367D01*
X39539234Y-35282941D01*
X39657059Y-35400766D01*
X39749633Y-35539313D01*
X39813399Y-35693258D01*
X39845907Y-35856685D01*
X39845907Y-36023315D01*
X39813399Y-36186742D01*
X39749633Y-36340687D01*
X39657059Y-36479234D01*
X39539234Y-36597059D01*
X39400687Y-36689633D01*
X39246742Y-36753399D01*
X39083315Y-36785907D01*
X38916685Y-36785907D01*
X38753258Y-36753399D01*
X38599313Y-36689633D01*
X38460766Y-36597059D01*
X38342941Y-36479234D01*
X38250367Y-36340687D01*
X38186601Y-36186742D01*
X38154093Y-36023315D01*
X38154093Y-35856685D01*
X38186601Y-35693258D01*
X38250367Y-35539313D01*
X38342941Y-35400766D01*
X38460766Y-35282941D01*
X38599313Y-35190367D01*
X38753258Y-35126601D01*
X38916685Y-35094093D01*
X39083315Y-35094093D01*
X39246742Y-35126601D01*
G37*
G36*
X54486742Y-35126601D02*
G01*
X54640687Y-35190367D01*
X54779234Y-35282941D01*
X54897059Y-35400766D01*
X54989633Y-35539313D01*
X55053399Y-35693258D01*
X55085907Y-35856685D01*
X55085907Y-36023315D01*
X55053399Y-36186742D01*
X54989633Y-36340687D01*
X54897059Y-36479234D01*
X54779234Y-36597059D01*
X54640687Y-36689633D01*
X54486742Y-36753399D01*
X54323315Y-36785907D01*
X54156685Y-36785907D01*
X53993258Y-36753399D01*
X53839313Y-36689633D01*
X53700766Y-36597059D01*
X53582941Y-36479234D01*
X53490367Y-36340687D01*
X53426601Y-36186742D01*
X53394093Y-36023315D01*
X53394093Y-35856685D01*
X53426601Y-35693258D01*
X53490367Y-35539313D01*
X53582941Y-35400766D01*
X53700766Y-35282941D01*
X53839313Y-35190367D01*
X53993258Y-35126601D01*
X54156685Y-35094093D01*
X54323315Y-35094093D01*
X54486742Y-35126601D01*
G37*
G36*
X39246742Y-32586601D02*
G01*
X39400687Y-32650367D01*
X39539234Y-32742941D01*
X39657059Y-32860766D01*
X39749633Y-32999313D01*
X39813399Y-33153258D01*
X39845907Y-33316685D01*
X39845907Y-33483315D01*
X39813399Y-33646742D01*
X39749633Y-33800687D01*
X39657059Y-33939234D01*
X39539234Y-34057059D01*
X39400687Y-34149633D01*
X39246742Y-34213399D01*
X39083315Y-34245907D01*
X38916685Y-34245907D01*
X38753258Y-34213399D01*
X38599313Y-34149633D01*
X38460766Y-34057059D01*
X38342941Y-33939234D01*
X38250367Y-33800687D01*
X38186601Y-33646742D01*
X38154093Y-33483315D01*
X38154093Y-33316685D01*
X38186601Y-33153258D01*
X38250367Y-32999313D01*
X38342941Y-32860766D01*
X38460766Y-32742941D01*
X38599313Y-32650367D01*
X38753258Y-32586601D01*
X38916685Y-32554093D01*
X39083315Y-32554093D01*
X39246742Y-32586601D01*
G37*
G36*
X54486742Y-32586601D02*
G01*
X54640687Y-32650367D01*
X54779234Y-32742941D01*
X54897059Y-32860766D01*
X54989633Y-32999313D01*
X55053399Y-33153258D01*
X55085907Y-33316685D01*
X55085907Y-33483315D01*
X55053399Y-33646742D01*
X54989633Y-33800687D01*
X54897059Y-33939234D01*
X54779234Y-34057059D01*
X54640687Y-34149633D01*
X54486742Y-34213399D01*
X54323315Y-34245907D01*
X54156685Y-34245907D01*
X53993258Y-34213399D01*
X53839313Y-34149633D01*
X53700766Y-34057059D01*
X53582941Y-33939234D01*
X53490367Y-33800687D01*
X53426601Y-33646742D01*
X53394093Y-33483315D01*
X53394093Y-33316685D01*
X53426601Y-33153258D01*
X53490367Y-32999313D01*
X53582941Y-32860766D01*
X53700766Y-32742941D01*
X53839313Y-32650367D01*
X53993258Y-32586601D01*
X54156685Y-32554093D01*
X54323315Y-32554093D01*
X54486742Y-32586601D01*
G37*
G36*
X39246742Y-30046601D02*
G01*
X39400687Y-30110367D01*
X39539234Y-30202941D01*
X39657059Y-30320766D01*
X39749633Y-30459313D01*
X39813399Y-30613258D01*
X39845907Y-30776685D01*
X39845907Y-30943315D01*
X39813399Y-31106742D01*
X39749633Y-31260687D01*
X39657059Y-31399234D01*
X39539234Y-31517059D01*
X39400687Y-31609633D01*
X39246742Y-31673399D01*
X39083315Y-31705907D01*
X38916685Y-31705907D01*
X38753258Y-31673399D01*
X38599313Y-31609633D01*
X38460766Y-31517059D01*
X38342941Y-31399234D01*
X38250367Y-31260687D01*
X38186601Y-31106742D01*
X38154093Y-30943315D01*
X38154093Y-30776685D01*
X38186601Y-30613258D01*
X38250367Y-30459313D01*
X38342941Y-30320766D01*
X38460766Y-30202941D01*
X38599313Y-30110367D01*
X38753258Y-30046601D01*
X38916685Y-30014093D01*
X39083315Y-30014093D01*
X39246742Y-30046601D01*
G37*
G36*
X54486742Y-30046601D02*
G01*
X54640687Y-30110367D01*
X54779234Y-30202941D01*
X54897059Y-30320766D01*
X54989633Y-30459313D01*
X55053399Y-30613258D01*
X55085907Y-30776685D01*
X55085907Y-30943315D01*
X55053399Y-31106742D01*
X54989633Y-31260687D01*
X54897059Y-31399234D01*
X54779234Y-31517059D01*
X54640687Y-31609633D01*
X54486742Y-31673399D01*
X54323315Y-31705907D01*
X54156685Y-31705907D01*
X53993258Y-31673399D01*
X53839313Y-31609633D01*
X53700766Y-31517059D01*
X53582941Y-31399234D01*
X53490367Y-31260687D01*
X53426601Y-31106742D01*
X53394093Y-30943315D01*
X53394093Y-30776685D01*
X53426601Y-30613258D01*
X53490367Y-30459313D01*
X53582941Y-30320766D01*
X53700766Y-30202941D01*
X53839313Y-30110367D01*
X53993258Y-30046601D01*
X54156685Y-30014093D01*
X54323315Y-30014093D01*
X54486742Y-30046601D01*
G37*
G36*
X39246742Y-27506601D02*
G01*
X39400687Y-27570367D01*
X39539234Y-27662941D01*
X39657059Y-27780766D01*
X39749633Y-27919313D01*
X39813399Y-28073258D01*
X39845907Y-28236685D01*
X39845907Y-28403315D01*
X39813399Y-28566742D01*
X39749633Y-28720687D01*
X39657059Y-28859234D01*
X39539234Y-28977059D01*
X39400687Y-29069633D01*
X39246742Y-29133399D01*
X39083315Y-29165907D01*
X38916685Y-29165907D01*
X38753258Y-29133399D01*
X38599313Y-29069633D01*
X38460766Y-28977059D01*
X38342941Y-28859234D01*
X38250367Y-28720687D01*
X38186601Y-28566742D01*
X38154093Y-28403315D01*
X38154093Y-28236685D01*
X38186601Y-28073258D01*
X38250367Y-27919313D01*
X38342941Y-27780766D01*
X38460766Y-27662941D01*
X38599313Y-27570367D01*
X38753258Y-27506601D01*
X38916685Y-27474093D01*
X39083315Y-27474093D01*
X39246742Y-27506601D01*
G37*
G36*
X54486742Y-27506601D02*
G01*
X54640687Y-27570367D01*
X54779234Y-27662941D01*
X54897059Y-27780766D01*
X54989633Y-27919313D01*
X55053399Y-28073258D01*
X55085907Y-28236685D01*
X55085907Y-28403315D01*
X55053399Y-28566742D01*
X54989633Y-28720687D01*
X54897059Y-28859234D01*
X54779234Y-28977059D01*
X54640687Y-29069633D01*
X54486742Y-29133399D01*
X54323315Y-29165907D01*
X54156685Y-29165907D01*
X53993258Y-29133399D01*
X53839313Y-29069633D01*
X53700766Y-28977059D01*
X53582941Y-28859234D01*
X53490367Y-28720687D01*
X53426601Y-28566742D01*
X53394093Y-28403315D01*
X53394093Y-28236685D01*
X53426601Y-28073258D01*
X53490367Y-27919313D01*
X53582941Y-27780766D01*
X53700766Y-27662941D01*
X53839313Y-27570367D01*
X53993258Y-27506601D01*
X54156685Y-27474093D01*
X54323315Y-27474093D01*
X54486742Y-27506601D01*
G37*
G36*
X81800000Y-27800000D02*
G01*
X80200000Y-27800000D01*
X80200000Y-26200000D01*
X81800000Y-26200000D01*
X81800000Y-27800000D01*
G37*
G36*
X84732228Y-26234448D02*
G01*
X84877117Y-26294463D01*
X85007515Y-26381592D01*
X85118408Y-26492485D01*
X85205537Y-26622883D01*
X85265552Y-26767772D01*
X85296148Y-26921586D01*
X85296148Y-27078414D01*
X85265552Y-27232228D01*
X85205537Y-27377117D01*
X85118408Y-27507515D01*
X85007515Y-27618408D01*
X84877117Y-27705537D01*
X84732228Y-27765552D01*
X84578414Y-27796148D01*
X84421586Y-27796148D01*
X84267772Y-27765552D01*
X84122883Y-27705537D01*
X83992485Y-27618408D01*
X83881592Y-27507515D01*
X83794463Y-27377117D01*
X83734448Y-27232228D01*
X83703852Y-27078414D01*
X83703852Y-26921586D01*
X83734448Y-26767772D01*
X83794463Y-26622883D01*
X83881592Y-26492485D01*
X83992485Y-26381592D01*
X84122883Y-26294463D01*
X84267772Y-26234448D01*
X84421586Y-26203852D01*
X84578414Y-26203852D01*
X84732228Y-26234448D01*
G37*
G36*
X18470000Y-27280000D02*
G01*
X16470000Y-27280000D01*
X16470000Y-25280000D01*
X18470000Y-25280000D01*
X18470000Y-27280000D01*
G37*
G36*
X20300285Y-25323060D02*
G01*
X20481397Y-25398079D01*
X20644393Y-25506990D01*
X20783010Y-25645607D01*
X20891921Y-25808603D01*
X20966940Y-25989715D01*
X21005185Y-26181983D01*
X21005185Y-26378017D01*
X20966940Y-26570285D01*
X20891921Y-26751397D01*
X20783010Y-26914393D01*
X20644393Y-27053010D01*
X20481397Y-27161921D01*
X20300285Y-27236940D01*
X20108017Y-27275185D01*
X19911983Y-27275185D01*
X19719715Y-27236940D01*
X19538603Y-27161921D01*
X19375607Y-27053010D01*
X19236990Y-26914393D01*
X19128079Y-26751397D01*
X19053060Y-26570285D01*
X19014815Y-26378017D01*
X19014815Y-26181983D01*
X19053060Y-25989715D01*
X19128079Y-25808603D01*
X19236990Y-25645607D01*
X19375607Y-25506990D01*
X19538603Y-25398079D01*
X19719715Y-25323060D01*
X19911983Y-25284815D01*
X20108017Y-25284815D01*
X20300285Y-25323060D01*
G37*
G36*
X22840285Y-25323060D02*
G01*
X23021397Y-25398079D01*
X23184393Y-25506990D01*
X23323010Y-25645607D01*
X23431921Y-25808603D01*
X23506940Y-25989715D01*
X23545185Y-26181983D01*
X23545185Y-26378017D01*
X23506940Y-26570285D01*
X23431921Y-26751397D01*
X23323010Y-26914393D01*
X23184393Y-27053010D01*
X23021397Y-27161921D01*
X22840285Y-27236940D01*
X22648017Y-27275185D01*
X22451983Y-27275185D01*
X22259715Y-27236940D01*
X22078603Y-27161921D01*
X21915607Y-27053010D01*
X21776990Y-26914393D01*
X21668079Y-26751397D01*
X21593060Y-26570285D01*
X21554815Y-26378017D01*
X21554815Y-26181983D01*
X21593060Y-25989715D01*
X21668079Y-25808603D01*
X21776990Y-25645607D01*
X21915607Y-25506990D01*
X22078603Y-25398079D01*
X22259715Y-25323060D01*
X22451983Y-25284815D01*
X22648017Y-25284815D01*
X22840285Y-25323060D01*
G37*
G36*
X39246742Y-24966601D02*
G01*
X39400687Y-25030367D01*
X39539234Y-25122941D01*
X39657059Y-25240766D01*
X39749633Y-25379313D01*
X39813399Y-25533258D01*
X39845907Y-25696685D01*
X39845907Y-25863315D01*
X39813399Y-26026742D01*
X39749633Y-26180687D01*
X39657059Y-26319234D01*
X39539234Y-26437059D01*
X39400687Y-26529633D01*
X39246742Y-26593399D01*
X39083315Y-26625907D01*
X38916685Y-26625907D01*
X38753258Y-26593399D01*
X38599313Y-26529633D01*
X38460766Y-26437059D01*
X38342941Y-26319234D01*
X38250367Y-26180687D01*
X38186601Y-26026742D01*
X38154093Y-25863315D01*
X38154093Y-25696685D01*
X38186601Y-25533258D01*
X38250367Y-25379313D01*
X38342941Y-25240766D01*
X38460766Y-25122941D01*
X38599313Y-25030367D01*
X38753258Y-24966601D01*
X38916685Y-24934093D01*
X39083315Y-24934093D01*
X39246742Y-24966601D01*
G37*
G36*
X54486742Y-24966601D02*
G01*
X54640687Y-25030367D01*
X54779234Y-25122941D01*
X54897059Y-25240766D01*
X54989633Y-25379313D01*
X55053399Y-25533258D01*
X55085907Y-25696685D01*
X55085907Y-25863315D01*
X55053399Y-26026742D01*
X54989633Y-26180687D01*
X54897059Y-26319234D01*
X54779234Y-26437059D01*
X54640687Y-26529633D01*
X54486742Y-26593399D01*
X54323315Y-26625907D01*
X54156685Y-26625907D01*
X53993258Y-26593399D01*
X53839313Y-26529633D01*
X53700766Y-26437059D01*
X53582941Y-26319234D01*
X53490367Y-26180687D01*
X53426601Y-26026742D01*
X53394093Y-25863315D01*
X53394093Y-25696685D01*
X53426601Y-25533258D01*
X53490367Y-25379313D01*
X53582941Y-25240766D01*
X53700766Y-25122941D01*
X53839313Y-25030367D01*
X53993258Y-24966601D01*
X54156685Y-24934093D01*
X54323315Y-24934093D01*
X54486742Y-24966601D01*
G37*
G36*
X39246742Y-22426601D02*
G01*
X39400687Y-22490367D01*
X39539234Y-22582941D01*
X39657059Y-22700766D01*
X39749633Y-22839313D01*
X39813399Y-22993258D01*
X39845907Y-23156685D01*
X39845907Y-23323315D01*
X39813399Y-23486742D01*
X39749633Y-23640687D01*
X39657059Y-23779234D01*
X39539234Y-23897059D01*
X39400687Y-23989633D01*
X39246742Y-24053399D01*
X39083315Y-24085907D01*
X38916685Y-24085907D01*
X38753258Y-24053399D01*
X38599313Y-23989633D01*
X38460766Y-23897059D01*
X38342941Y-23779234D01*
X38250367Y-23640687D01*
X38186601Y-23486742D01*
X38154093Y-23323315D01*
X38154093Y-23156685D01*
X38186601Y-22993258D01*
X38250367Y-22839313D01*
X38342941Y-22700766D01*
X38460766Y-22582941D01*
X38599313Y-22490367D01*
X38753258Y-22426601D01*
X38916685Y-22394093D01*
X39083315Y-22394093D01*
X39246742Y-22426601D01*
G37*
G36*
X54486742Y-22426601D02*
G01*
X54640687Y-22490367D01*
X54779234Y-22582941D01*
X54897059Y-22700766D01*
X54989633Y-22839313D01*
X55053399Y-22993258D01*
X55085907Y-23156685D01*
X55085907Y-23323315D01*
X55053399Y-23486742D01*
X54989633Y-23640687D01*
X54897059Y-23779234D01*
X54779234Y-23897059D01*
X54640687Y-23989633D01*
X54486742Y-24053399D01*
X54323315Y-24085907D01*
X54156685Y-24085907D01*
X53993258Y-24053399D01*
X53839313Y-23989633D01*
X53700766Y-23897059D01*
X53582941Y-23779234D01*
X53490367Y-23640687D01*
X53426601Y-23486742D01*
X53394093Y-23323315D01*
X53394093Y-23156685D01*
X53426601Y-22993258D01*
X53490367Y-22839313D01*
X53582941Y-22700766D01*
X53700766Y-22582941D01*
X53839313Y-22490367D01*
X53993258Y-22426601D01*
X54156685Y-22394093D01*
X54323315Y-22394093D01*
X54486742Y-22426601D01*
G37*
G36*
X39246742Y-19886601D02*
G01*
X39400687Y-19950367D01*
X39539234Y-20042941D01*
X39657059Y-20160766D01*
X39749633Y-20299313D01*
X39813399Y-20453258D01*
X39845907Y-20616685D01*
X39845907Y-20783315D01*
X39813399Y-20946742D01*
X39749633Y-21100687D01*
X39657059Y-21239234D01*
X39539234Y-21357059D01*
X39400687Y-21449633D01*
X39246742Y-21513399D01*
X39083315Y-21545907D01*
X38916685Y-21545907D01*
X38753258Y-21513399D01*
X38599313Y-21449633D01*
X38460766Y-21357059D01*
X38342941Y-21239234D01*
X38250367Y-21100687D01*
X38186601Y-20946742D01*
X38154093Y-20783315D01*
X38154093Y-20616685D01*
X38186601Y-20453258D01*
X38250367Y-20299313D01*
X38342941Y-20160766D01*
X38460766Y-20042941D01*
X38599313Y-19950367D01*
X38753258Y-19886601D01*
X38916685Y-19854093D01*
X39083315Y-19854093D01*
X39246742Y-19886601D01*
G37*
G36*
X54486742Y-19886601D02*
G01*
X54640687Y-19950367D01*
X54779234Y-20042941D01*
X54897059Y-20160766D01*
X54989633Y-20299313D01*
X55053399Y-20453258D01*
X55085907Y-20616685D01*
X55085907Y-20783315D01*
X55053399Y-20946742D01*
X54989633Y-21100687D01*
X54897059Y-21239234D01*
X54779234Y-21357059D01*
X54640687Y-21449633D01*
X54486742Y-21513399D01*
X54323315Y-21545907D01*
X54156685Y-21545907D01*
X53993258Y-21513399D01*
X53839313Y-21449633D01*
X53700766Y-21357059D01*
X53582941Y-21239234D01*
X53490367Y-21100687D01*
X53426601Y-20946742D01*
X53394093Y-20783315D01*
X53394093Y-20616685D01*
X53426601Y-20453258D01*
X53490367Y-20299313D01*
X53582941Y-20160766D01*
X53700766Y-20042941D01*
X53839313Y-19950367D01*
X53993258Y-19886601D01*
X54156685Y-19854093D01*
X54323315Y-19854093D01*
X54486742Y-19886601D01*
G37*
G36*
X39246742Y-17346601D02*
G01*
X39400687Y-17410367D01*
X39539234Y-17502941D01*
X39657059Y-17620766D01*
X39749633Y-17759313D01*
X39813399Y-17913258D01*
X39845907Y-18076685D01*
X39845907Y-18243315D01*
X39813399Y-18406742D01*
X39749633Y-18560687D01*
X39657059Y-18699234D01*
X39539234Y-18817059D01*
X39400687Y-18909633D01*
X39246742Y-18973399D01*
X39083315Y-19005907D01*
X38916685Y-19005907D01*
X38753258Y-18973399D01*
X38599313Y-18909633D01*
X38460766Y-18817059D01*
X38342941Y-18699234D01*
X38250367Y-18560687D01*
X38186601Y-18406742D01*
X38154093Y-18243315D01*
X38154093Y-18076685D01*
X38186601Y-17913258D01*
X38250367Y-17759313D01*
X38342941Y-17620766D01*
X38460766Y-17502941D01*
X38599313Y-17410367D01*
X38753258Y-17346601D01*
X38916685Y-17314093D01*
X39083315Y-17314093D01*
X39246742Y-17346601D01*
G37*
G36*
X54486742Y-17346601D02*
G01*
X54640687Y-17410367D01*
X54779234Y-17502941D01*
X54897059Y-17620766D01*
X54989633Y-17759313D01*
X55053399Y-17913258D01*
X55085907Y-18076685D01*
X55085907Y-18243315D01*
X55053399Y-18406742D01*
X54989633Y-18560687D01*
X54897059Y-18699234D01*
X54779234Y-18817059D01*
X54640687Y-18909633D01*
X54486742Y-18973399D01*
X54323315Y-19005907D01*
X54156685Y-19005907D01*
X53993258Y-18973399D01*
X53839313Y-18909633D01*
X53700766Y-18817059D01*
X53582941Y-18699234D01*
X53490367Y-18560687D01*
X53426601Y-18406742D01*
X53394093Y-18243315D01*
X53394093Y-18076685D01*
X53426601Y-17913258D01*
X53490367Y-17759313D01*
X53582941Y-17620766D01*
X53700766Y-17502941D01*
X53839313Y-17410367D01*
X53993258Y-17346601D01*
X54156685Y-17314093D01*
X54323315Y-17314093D01*
X54486742Y-17346601D01*
G37*
G36*
X64458142Y-16107471D02*
G01*
X64462779Y-16109518D01*
X64465327Y-16109854D01*
X64497184Y-16124709D01*
X64552695Y-16149219D01*
X64625781Y-16222305D01*
X64650300Y-16277837D01*
X64665145Y-16309672D01*
X64665480Y-16312217D01*
X64667529Y-16316858D01*
X64675000Y-16381250D01*
X64675000Y-17618750D01*
X64667529Y-17683142D01*
X64665479Y-17687782D01*
X64665145Y-17690327D01*
X64650308Y-17722144D01*
X64625781Y-17777695D01*
X64552695Y-17850781D01*
X64497144Y-17875308D01*
X64465327Y-17890145D01*
X64462782Y-17890479D01*
X64458142Y-17892529D01*
X64393750Y-17900000D01*
X63606250Y-17900000D01*
X63541858Y-17892529D01*
X63537217Y-17890480D01*
X63534672Y-17890145D01*
X63502837Y-17875300D01*
X63447305Y-17850781D01*
X63374219Y-17777695D01*
X63349709Y-17722184D01*
X63334854Y-17690327D01*
X63334518Y-17687779D01*
X63332471Y-17683142D01*
X63325000Y-17618750D01*
X63325000Y-16381250D01*
X63332471Y-16316858D01*
X63334518Y-16312220D01*
X63334854Y-16309672D01*
X63349717Y-16277796D01*
X63374219Y-16222305D01*
X63447305Y-16149219D01*
X63502796Y-16124717D01*
X63534672Y-16109854D01*
X63537220Y-16109518D01*
X63541858Y-16107471D01*
X63606250Y-16100000D01*
X64393750Y-16100000D01*
X64458142Y-16107471D01*
G37*
G36*
X66195942Y-16129065D02*
G01*
X66318193Y-16179703D01*
X66428215Y-16253218D01*
X66521782Y-16346785D01*
X66595297Y-16456807D01*
X66645935Y-16579058D01*
X66671750Y-16708838D01*
X66675000Y-16775000D01*
X66675000Y-17225000D01*
X66671750Y-17291162D01*
X66645935Y-17420942D01*
X66595297Y-17543193D01*
X66521782Y-17653215D01*
X66428215Y-17746782D01*
X66318193Y-17820297D01*
X66195942Y-17870935D01*
X66066162Y-17896750D01*
X65933838Y-17896750D01*
X65804058Y-17870935D01*
X65681807Y-17820297D01*
X65571785Y-17746782D01*
X65478218Y-17653215D01*
X65404703Y-17543193D01*
X65354065Y-17420942D01*
X65328250Y-17291162D01*
X65325000Y-17225000D01*
X65325000Y-16775000D01*
X65328250Y-16708838D01*
X65354065Y-16579058D01*
X65404703Y-16456807D01*
X65478218Y-16346785D01*
X65571785Y-16253218D01*
X65681807Y-16179703D01*
X65804058Y-16129065D01*
X65933838Y-16103250D01*
X66066162Y-16103250D01*
X66195942Y-16129065D01*
G37*
G36*
X68195942Y-16129065D02*
G01*
X68318193Y-16179703D01*
X68428215Y-16253218D01*
X68521782Y-16346785D01*
X68595297Y-16456807D01*
X68645935Y-16579058D01*
X68671750Y-16708838D01*
X68675000Y-16775000D01*
X68675000Y-17225000D01*
X68671750Y-17291162D01*
X68645935Y-17420942D01*
X68595297Y-17543193D01*
X68521782Y-17653215D01*
X68428215Y-17746782D01*
X68318193Y-17820297D01*
X68195942Y-17870935D01*
X68066162Y-17896750D01*
X67933838Y-17896750D01*
X67804058Y-17870935D01*
X67681807Y-17820297D01*
X67571785Y-17746782D01*
X67478218Y-17653215D01*
X67404703Y-17543193D01*
X67354065Y-17420942D01*
X67328250Y-17291162D01*
X67325000Y-17225000D01*
X67325000Y-16775000D01*
X67328250Y-16708838D01*
X67354065Y-16579058D01*
X67404703Y-16456807D01*
X67478218Y-16346785D01*
X67571785Y-16253218D01*
X67681807Y-16179703D01*
X67804058Y-16129065D01*
X67933838Y-16103250D01*
X68066162Y-16103250D01*
X68195942Y-16129065D01*
G37*
G36*
X70195942Y-16129065D02*
G01*
X70318193Y-16179703D01*
X70428215Y-16253218D01*
X70521782Y-16346785D01*
X70595297Y-16456807D01*
X70645935Y-16579058D01*
X70671750Y-16708838D01*
X70675000Y-16775000D01*
X70675000Y-17225000D01*
X70671750Y-17291162D01*
X70645935Y-17420942D01*
X70595297Y-17543193D01*
X70521782Y-17653215D01*
X70428215Y-17746782D01*
X70318193Y-17820297D01*
X70195942Y-17870935D01*
X70066162Y-17896750D01*
X69933838Y-17896750D01*
X69804058Y-17870935D01*
X69681807Y-17820297D01*
X69571785Y-17746782D01*
X69478218Y-17653215D01*
X69404703Y-17543193D01*
X69354065Y-17420942D01*
X69328250Y-17291162D01*
X69325000Y-17225000D01*
X69325000Y-16775000D01*
X69328250Y-16708838D01*
X69354065Y-16579058D01*
X69404703Y-16456807D01*
X69478218Y-16346785D01*
X69571785Y-16253218D01*
X69681807Y-16179703D01*
X69804058Y-16129065D01*
X69933838Y-16103250D01*
X70066162Y-16103250D01*
X70195942Y-16129065D01*
G37*
G36*
X72195942Y-16129065D02*
G01*
X72318193Y-16179703D01*
X72428215Y-16253218D01*
X72521782Y-16346785D01*
X72595297Y-16456807D01*
X72645935Y-16579058D01*
X72671750Y-16708838D01*
X72675000Y-16775000D01*
X72675000Y-17225000D01*
X72671750Y-17291162D01*
X72645935Y-17420942D01*
X72595297Y-17543193D01*
X72521782Y-17653215D01*
X72428215Y-17746782D01*
X72318193Y-17820297D01*
X72195942Y-17870935D01*
X72066162Y-17896750D01*
X71933838Y-17896750D01*
X71804058Y-17870935D01*
X71681807Y-17820297D01*
X71571785Y-17746782D01*
X71478218Y-17653215D01*
X71404703Y-17543193D01*
X71354065Y-17420942D01*
X71328250Y-17291162D01*
X71325000Y-17225000D01*
X71325000Y-16775000D01*
X71328250Y-16708838D01*
X71354065Y-16579058D01*
X71404703Y-16456807D01*
X71478218Y-16346785D01*
X71571785Y-16253218D01*
X71681807Y-16179703D01*
X71804058Y-16129065D01*
X71933838Y-16103250D01*
X72066162Y-16103250D01*
X72195942Y-16129065D01*
G37*
G36*
X74195942Y-16129065D02*
G01*
X74318193Y-16179703D01*
X74428215Y-16253218D01*
X74521782Y-16346785D01*
X74595297Y-16456807D01*
X74645935Y-16579058D01*
X74671750Y-16708838D01*
X74675000Y-16775000D01*
X74675000Y-17225000D01*
X74671750Y-17291162D01*
X74645935Y-17420942D01*
X74595297Y-17543193D01*
X74521782Y-17653215D01*
X74428215Y-17746782D01*
X74318193Y-17820297D01*
X74195942Y-17870935D01*
X74066162Y-17896750D01*
X73933838Y-17896750D01*
X73804058Y-17870935D01*
X73681807Y-17820297D01*
X73571785Y-17746782D01*
X73478218Y-17653215D01*
X73404703Y-17543193D01*
X73354065Y-17420942D01*
X73328250Y-17291162D01*
X73325000Y-17225000D01*
X73325000Y-16775000D01*
X73328250Y-16708838D01*
X73354065Y-16579058D01*
X73404703Y-16456807D01*
X73478218Y-16346785D01*
X73571785Y-16253218D01*
X73681807Y-16179703D01*
X73804058Y-16129065D01*
X73933838Y-16103250D01*
X74066162Y-16103250D01*
X74195942Y-16129065D01*
G37*
G36*
X76195942Y-16129065D02*
G01*
X76318193Y-16179703D01*
X76428215Y-16253218D01*
X76521782Y-16346785D01*
X76595297Y-16456807D01*
X76645935Y-16579058D01*
X76671750Y-16708838D01*
X76675000Y-16775000D01*
X76675000Y-17225000D01*
X76671750Y-17291162D01*
X76645935Y-17420942D01*
X76595297Y-17543193D01*
X76521782Y-17653215D01*
X76428215Y-17746782D01*
X76318193Y-17820297D01*
X76195942Y-17870935D01*
X76066162Y-17896750D01*
X75933838Y-17896750D01*
X75804058Y-17870935D01*
X75681807Y-17820297D01*
X75571785Y-17746782D01*
X75478218Y-17653215D01*
X75404703Y-17543193D01*
X75354065Y-17420942D01*
X75328250Y-17291162D01*
X75325000Y-17225000D01*
X75325000Y-16775000D01*
X75328250Y-16708838D01*
X75354065Y-16579058D01*
X75404703Y-16456807D01*
X75478218Y-16346785D01*
X75571785Y-16253218D01*
X75681807Y-16179703D01*
X75804058Y-16129065D01*
X75933838Y-16103250D01*
X76066162Y-16103250D01*
X76195942Y-16129065D01*
G37*
G36*
X78195942Y-16129065D02*
G01*
X78318193Y-16179703D01*
X78428215Y-16253218D01*
X78521782Y-16346785D01*
X78595297Y-16456807D01*
X78645935Y-16579058D01*
X78671750Y-16708838D01*
X78675000Y-16775000D01*
X78675000Y-17225000D01*
X78671750Y-17291162D01*
X78645935Y-17420942D01*
X78595297Y-17543193D01*
X78521782Y-17653215D01*
X78428215Y-17746782D01*
X78318193Y-17820297D01*
X78195942Y-17870935D01*
X78066162Y-17896750D01*
X77933838Y-17896750D01*
X77804058Y-17870935D01*
X77681807Y-17820297D01*
X77571785Y-17746782D01*
X77478218Y-17653215D01*
X77404703Y-17543193D01*
X77354065Y-17420942D01*
X77328250Y-17291162D01*
X77325000Y-17225000D01*
X77325000Y-16775000D01*
X77328250Y-16708838D01*
X77354065Y-16579058D01*
X77404703Y-16456807D01*
X77478218Y-16346785D01*
X77571785Y-16253218D01*
X77681807Y-16179703D01*
X77804058Y-16129065D01*
X77933838Y-16103250D01*
X78066162Y-16103250D01*
X78195942Y-16129065D01*
G37*
G36*
X39246742Y-14806601D02*
G01*
X39400687Y-14870367D01*
X39539234Y-14962941D01*
X39657059Y-15080766D01*
X39749633Y-15219313D01*
X39813399Y-15373258D01*
X39845907Y-15536685D01*
X39845907Y-15703315D01*
X39813399Y-15866742D01*
X39749633Y-16020687D01*
X39657059Y-16159234D01*
X39539234Y-16277059D01*
X39400687Y-16369633D01*
X39246742Y-16433399D01*
X39083315Y-16465907D01*
X38916685Y-16465907D01*
X38753258Y-16433399D01*
X38599313Y-16369633D01*
X38460766Y-16277059D01*
X38342941Y-16159234D01*
X38250367Y-16020687D01*
X38186601Y-15866742D01*
X38154093Y-15703315D01*
X38154093Y-15536685D01*
X38186601Y-15373258D01*
X38250367Y-15219313D01*
X38342941Y-15080766D01*
X38460766Y-14962941D01*
X38599313Y-14870367D01*
X38753258Y-14806601D01*
X38916685Y-14774093D01*
X39083315Y-14774093D01*
X39246742Y-14806601D01*
G37*
G36*
X54486742Y-14806601D02*
G01*
X54640687Y-14870367D01*
X54779234Y-14962941D01*
X54897059Y-15080766D01*
X54989633Y-15219313D01*
X55053399Y-15373258D01*
X55085907Y-15536685D01*
X55085907Y-15703315D01*
X55053399Y-15866742D01*
X54989633Y-16020687D01*
X54897059Y-16159234D01*
X54779234Y-16277059D01*
X54640687Y-16369633D01*
X54486742Y-16433399D01*
X54323315Y-16465907D01*
X54156685Y-16465907D01*
X53993258Y-16433399D01*
X53839313Y-16369633D01*
X53700766Y-16277059D01*
X53582941Y-16159234D01*
X53490367Y-16020687D01*
X53426601Y-15866742D01*
X53394093Y-15703315D01*
X53394093Y-15536685D01*
X53426601Y-15373258D01*
X53490367Y-15219313D01*
X53582941Y-15080766D01*
X53700766Y-14962941D01*
X53839313Y-14870367D01*
X53993258Y-14806601D01*
X54156685Y-14774093D01*
X54323315Y-14774093D01*
X54486742Y-14806601D01*
G37*
G36*
X39246742Y-12266601D02*
G01*
X39400687Y-12330367D01*
X39539234Y-12422941D01*
X39657059Y-12540766D01*
X39749633Y-12679313D01*
X39813399Y-12833258D01*
X39845907Y-12996685D01*
X39845907Y-13163315D01*
X39813399Y-13326742D01*
X39749633Y-13480687D01*
X39657059Y-13619234D01*
X39539234Y-13737059D01*
X39400687Y-13829633D01*
X39246742Y-13893399D01*
X39083315Y-13925907D01*
X38916685Y-13925907D01*
X38753258Y-13893399D01*
X38599313Y-13829633D01*
X38460766Y-13737059D01*
X38342941Y-13619234D01*
X38250367Y-13480687D01*
X38186601Y-13326742D01*
X38154093Y-13163315D01*
X38154093Y-12996685D01*
X38186601Y-12833258D01*
X38250367Y-12679313D01*
X38342941Y-12540766D01*
X38460766Y-12422941D01*
X38599313Y-12330367D01*
X38753258Y-12266601D01*
X38916685Y-12234093D01*
X39083315Y-12234093D01*
X39246742Y-12266601D01*
G37*
G36*
X54486742Y-12266601D02*
G01*
X54640687Y-12330367D01*
X54779234Y-12422941D01*
X54897059Y-12540766D01*
X54989633Y-12679313D01*
X55053399Y-12833258D01*
X55085907Y-12996685D01*
X55085907Y-13163315D01*
X55053399Y-13326742D01*
X54989633Y-13480687D01*
X54897059Y-13619234D01*
X54779234Y-13737059D01*
X54640687Y-13829633D01*
X54486742Y-13893399D01*
X54323315Y-13925907D01*
X54156685Y-13925907D01*
X53993258Y-13893399D01*
X53839313Y-13829633D01*
X53700766Y-13737059D01*
X53582941Y-13619234D01*
X53490367Y-13480687D01*
X53426601Y-13326742D01*
X53394093Y-13163315D01*
X53394093Y-12996685D01*
X53426601Y-12833258D01*
X53490367Y-12679313D01*
X53582941Y-12540766D01*
X53700766Y-12422941D01*
X53839313Y-12330367D01*
X53993258Y-12266601D01*
X54156685Y-12234093D01*
X54323315Y-12234093D01*
X54486742Y-12266601D01*
G37*
G36*
X39246742Y-9726601D02*
G01*
X39400687Y-9790367D01*
X39539234Y-9882941D01*
X39657059Y-10000766D01*
X39749633Y-10139313D01*
X39813399Y-10293258D01*
X39845907Y-10456685D01*
X39845907Y-10623315D01*
X39813399Y-10786742D01*
X39749633Y-10940687D01*
X39657059Y-11079234D01*
X39539234Y-11197059D01*
X39400687Y-11289633D01*
X39246742Y-11353399D01*
X39083315Y-11385907D01*
X38916685Y-11385907D01*
X38753258Y-11353399D01*
X38599313Y-11289633D01*
X38460766Y-11197059D01*
X38342941Y-11079234D01*
X38250367Y-10940687D01*
X38186601Y-10786742D01*
X38154093Y-10623315D01*
X38154093Y-10456685D01*
X38186601Y-10293258D01*
X38250367Y-10139313D01*
X38342941Y-10000766D01*
X38460766Y-9882941D01*
X38599313Y-9790367D01*
X38753258Y-9726601D01*
X38916685Y-9694093D01*
X39083315Y-9694093D01*
X39246742Y-9726601D01*
G37*
G36*
X54486742Y-9726601D02*
G01*
X54640687Y-9790367D01*
X54779234Y-9882941D01*
X54897059Y-10000766D01*
X54989633Y-10139313D01*
X55053399Y-10293258D01*
X55085907Y-10456685D01*
X55085907Y-10623315D01*
X55053399Y-10786742D01*
X54989633Y-10940687D01*
X54897059Y-11079234D01*
X54779234Y-11197059D01*
X54640687Y-11289633D01*
X54486742Y-11353399D01*
X54323315Y-11385907D01*
X54156685Y-11385907D01*
X53993258Y-11353399D01*
X53839313Y-11289633D01*
X53700766Y-11197059D01*
X53582941Y-11079234D01*
X53490367Y-10940687D01*
X53426601Y-10786742D01*
X53394093Y-10623315D01*
X53394093Y-10456685D01*
X53426601Y-10293258D01*
X53490367Y-10139313D01*
X53582941Y-10000766D01*
X53700766Y-9882941D01*
X53839313Y-9790367D01*
X53993258Y-9726601D01*
X54156685Y-9694093D01*
X54323315Y-9694093D01*
X54486742Y-9726601D01*
G37*
G36*
X39850000Y-8850000D02*
G01*
X38150000Y-8850000D01*
X38150000Y-7150000D01*
X39850000Y-7150000D01*
X39850000Y-8850000D01*
G37*
G36*
X54486742Y-7186601D02*
G01*
X54640687Y-7250367D01*
X54779234Y-7342941D01*
X54897059Y-7460766D01*
X54989633Y-7599313D01*
X55053399Y-7753258D01*
X55085907Y-7916685D01*
X55085907Y-8083315D01*
X55053399Y-8246742D01*
X54989633Y-8400687D01*
X54897059Y-8539234D01*
X54779234Y-8657059D01*
X54640687Y-8749633D01*
X54486742Y-8813399D01*
X54323315Y-8845907D01*
X54156685Y-8845907D01*
X53993258Y-8813399D01*
X53839313Y-8749633D01*
X53700766Y-8657059D01*
X53582941Y-8539234D01*
X53490367Y-8400687D01*
X53426601Y-8246742D01*
X53394093Y-8083315D01*
X53394093Y-7916685D01*
X53426601Y-7753258D01*
X53490367Y-7599313D01*
X53582941Y-7460766D01*
X53700766Y-7342941D01*
X53839313Y-7250367D01*
X53993258Y-7186601D01*
X54156685Y-7154093D01*
X54323315Y-7154093D01*
X54486742Y-7186601D01*
G37*
G36*
X61604047Y-6025805D02*
G01*
X61655408Y-6031764D01*
X61672954Y-6039511D01*
X61695671Y-6044030D01*
X61719991Y-6060280D01*
X61740793Y-6069465D01*
X61755000Y-6083672D01*
X61776777Y-6098223D01*
X61791327Y-6119999D01*
X61805534Y-6134206D01*
X61814718Y-6155006D01*
X61830970Y-6179329D01*
X61835489Y-6202048D01*
X61843235Y-6219591D01*
X61849192Y-6270940D01*
X61850000Y-6275000D01*
X61850000Y-7725000D01*
X61849192Y-7729059D01*
X61843235Y-7780408D01*
X61835489Y-7797950D01*
X61830970Y-7820671D01*
X61814716Y-7844995D01*
X61805534Y-7865793D01*
X61791329Y-7879997D01*
X61776777Y-7901777D01*
X61754997Y-7916329D01*
X61740793Y-7930534D01*
X61719995Y-7939716D01*
X61695671Y-7955970D01*
X61672950Y-7960489D01*
X61655408Y-7968235D01*
X61604061Y-7974192D01*
X61600000Y-7975000D01*
X60400000Y-7975000D01*
X60395941Y-7974192D01*
X60344591Y-7968235D01*
X60327048Y-7960489D01*
X60304329Y-7955970D01*
X60280006Y-7939718D01*
X60259206Y-7930534D01*
X60244999Y-7916327D01*
X60223223Y-7901777D01*
X60208672Y-7880000D01*
X60194465Y-7865793D01*
X60185280Y-7844991D01*
X60169030Y-7820671D01*
X60164511Y-7797954D01*
X60156764Y-7780408D01*
X60150805Y-7729049D01*
X60150000Y-7725000D01*
X60150000Y-6275000D01*
X60150804Y-6270953D01*
X60156764Y-6219591D01*
X60164511Y-6202043D01*
X60169030Y-6179329D01*
X60185278Y-6155010D01*
X60194465Y-6134206D01*
X60208674Y-6119996D01*
X60223223Y-6098223D01*
X60244996Y-6083674D01*
X60259206Y-6069465D01*
X60280010Y-6060278D01*
X60304329Y-6044030D01*
X60327043Y-6039511D01*
X60344591Y-6031764D01*
X60395952Y-6025805D01*
X60400000Y-6025000D01*
X61600000Y-6025000D01*
X61604047Y-6025805D01*
G37*
G36*
X63746742Y-6061601D02*
G01*
X63900687Y-6125367D01*
X64039234Y-6217941D01*
X64157059Y-6335766D01*
X64249633Y-6474313D01*
X64313399Y-6628258D01*
X64345907Y-6791685D01*
X64350000Y-6875000D01*
X64350000Y-7125000D01*
X64345907Y-7208315D01*
X64313399Y-7371742D01*
X64249633Y-7525687D01*
X64157059Y-7664234D01*
X64039234Y-7782059D01*
X63900687Y-7874633D01*
X63746742Y-7938399D01*
X63583315Y-7970907D01*
X63416685Y-7970907D01*
X63253258Y-7938399D01*
X63099313Y-7874633D01*
X62960766Y-7782059D01*
X62842941Y-7664234D01*
X62750367Y-7525687D01*
X62686601Y-7371742D01*
X62654093Y-7208315D01*
X62650000Y-7125000D01*
X62650000Y-6875000D01*
X62654093Y-6791685D01*
X62686601Y-6628258D01*
X62750367Y-6474313D01*
X62842941Y-6335766D01*
X62960766Y-6217941D01*
X63099313Y-6125367D01*
X63253258Y-6061601D01*
X63416685Y-6029093D01*
X63583315Y-6029093D01*
X63746742Y-6061601D01*
G37*
G36*
X66246742Y-6061601D02*
G01*
X66400687Y-6125367D01*
X66539234Y-6217941D01*
X66657059Y-6335766D01*
X66749633Y-6474313D01*
X66813399Y-6628258D01*
X66845907Y-6791685D01*
X66850000Y-6875000D01*
X66850000Y-7125000D01*
X66845907Y-7208315D01*
X66813399Y-7371742D01*
X66749633Y-7525687D01*
X66657059Y-7664234D01*
X66539234Y-7782059D01*
X66400687Y-7874633D01*
X66246742Y-7938399D01*
X66083315Y-7970907D01*
X65916685Y-7970907D01*
X65753258Y-7938399D01*
X65599313Y-7874633D01*
X65460766Y-7782059D01*
X65342941Y-7664234D01*
X65250367Y-7525687D01*
X65186601Y-7371742D01*
X65154093Y-7208315D01*
X65150000Y-7125000D01*
X65150000Y-6875000D01*
X65154093Y-6791685D01*
X65186601Y-6628258D01*
X65250367Y-6474313D01*
X65342941Y-6335766D01*
X65460766Y-6217941D01*
X65599313Y-6125367D01*
X65753258Y-6061601D01*
X65916685Y-6029093D01*
X66083315Y-6029093D01*
X66246742Y-6061601D01*
G37*
G36*
X68746742Y-6061601D02*
G01*
X68900687Y-6125367D01*
X69039234Y-6217941D01*
X69157059Y-6335766D01*
X69249633Y-6474313D01*
X69313399Y-6628258D01*
X69345907Y-6791685D01*
X69350000Y-6875000D01*
X69350000Y-7125000D01*
X69345907Y-7208315D01*
X69313399Y-7371742D01*
X69249633Y-7525687D01*
X69157059Y-7664234D01*
X69039234Y-7782059D01*
X68900687Y-7874633D01*
X68746742Y-7938399D01*
X68583315Y-7970907D01*
X68416685Y-7970907D01*
X68253258Y-7938399D01*
X68099313Y-7874633D01*
X67960766Y-7782059D01*
X67842941Y-7664234D01*
X67750367Y-7525687D01*
X67686601Y-7371742D01*
X67654093Y-7208315D01*
X67650000Y-7125000D01*
X67650000Y-6875000D01*
X67654093Y-6791685D01*
X67686601Y-6628258D01*
X67750367Y-6474313D01*
X67842941Y-6335766D01*
X67960766Y-6217941D01*
X68099313Y-6125367D01*
X68253258Y-6061601D01*
X68416685Y-6029093D01*
X68583315Y-6029093D01*
X68746742Y-6061601D01*
G37*
G36*
X71246742Y-6061601D02*
G01*
X71400687Y-6125367D01*
X71539234Y-6217941D01*
X71657059Y-6335766D01*
X71749633Y-6474313D01*
X71813399Y-6628258D01*
X71845907Y-6791685D01*
X71850000Y-6875000D01*
X71850000Y-7125000D01*
X71845907Y-7208315D01*
X71813399Y-7371742D01*
X71749633Y-7525687D01*
X71657059Y-7664234D01*
X71539234Y-7782059D01*
X71400687Y-7874633D01*
X71246742Y-7938399D01*
X71083315Y-7970907D01*
X70916685Y-7970907D01*
X70753258Y-7938399D01*
X70599313Y-7874633D01*
X70460766Y-7782059D01*
X70342941Y-7664234D01*
X70250367Y-7525687D01*
X70186601Y-7371742D01*
X70154093Y-7208315D01*
X70150000Y-7125000D01*
X70150000Y-6875000D01*
X70154093Y-6791685D01*
X70186601Y-6628258D01*
X70250367Y-6474313D01*
X70342941Y-6335766D01*
X70460766Y-6217941D01*
X70599313Y-6125367D01*
X70753258Y-6061601D01*
X70916685Y-6029093D01*
X71083315Y-6029093D01*
X71246742Y-6061601D01*
G37*
G36*
X73746742Y-6061601D02*
G01*
X73900687Y-6125367D01*
X74039234Y-6217941D01*
X74157059Y-6335766D01*
X74249633Y-6474313D01*
X74313399Y-6628258D01*
X74345907Y-6791685D01*
X74350000Y-6875000D01*
X74350000Y-7125000D01*
X74345907Y-7208315D01*
X74313399Y-7371742D01*
X74249633Y-7525687D01*
X74157059Y-7664234D01*
X74039234Y-7782059D01*
X73900687Y-7874633D01*
X73746742Y-7938399D01*
X73583315Y-7970907D01*
X73416685Y-7970907D01*
X73253258Y-7938399D01*
X73099313Y-7874633D01*
X72960766Y-7782059D01*
X72842941Y-7664234D01*
X72750367Y-7525687D01*
X72686601Y-7371742D01*
X72654093Y-7208315D01*
X72650000Y-7125000D01*
X72650000Y-6875000D01*
X72654093Y-6791685D01*
X72686601Y-6628258D01*
X72750367Y-6474313D01*
X72842941Y-6335766D01*
X72960766Y-6217941D01*
X73099313Y-6125367D01*
X73253258Y-6061601D01*
X73416685Y-6029093D01*
X73583315Y-6029093D01*
X73746742Y-6061601D01*
G37*
G36*
X76246742Y-6061601D02*
G01*
X76400687Y-6125367D01*
X76539234Y-6217941D01*
X76657059Y-6335766D01*
X76749633Y-6474313D01*
X76813399Y-6628258D01*
X76845907Y-6791685D01*
X76850000Y-6875000D01*
X76850000Y-7125000D01*
X76845907Y-7208315D01*
X76813399Y-7371742D01*
X76749633Y-7525687D01*
X76657059Y-7664234D01*
X76539234Y-7782059D01*
X76400687Y-7874633D01*
X76246742Y-7938399D01*
X76083315Y-7970907D01*
X75916685Y-7970907D01*
X75753258Y-7938399D01*
X75599313Y-7874633D01*
X75460766Y-7782059D01*
X75342941Y-7664234D01*
X75250367Y-7525687D01*
X75186601Y-7371742D01*
X75154093Y-7208315D01*
X75150000Y-7125000D01*
X75150000Y-6875000D01*
X75154093Y-6791685D01*
X75186601Y-6628258D01*
X75250367Y-6474313D01*
X75342941Y-6335766D01*
X75460766Y-6217941D01*
X75599313Y-6125367D01*
X75753258Y-6061601D01*
X75916685Y-6029093D01*
X76083315Y-6029093D01*
X76246742Y-6061601D01*
G37*
G36*
X78746742Y-6061601D02*
G01*
X78900687Y-6125367D01*
X79039234Y-6217941D01*
X79157059Y-6335766D01*
X79249633Y-6474313D01*
X79313399Y-6628258D01*
X79345907Y-6791685D01*
X79350000Y-6875000D01*
X79350000Y-7125000D01*
X79345907Y-7208315D01*
X79313399Y-7371742D01*
X79249633Y-7525687D01*
X79157059Y-7664234D01*
X79039234Y-7782059D01*
X78900687Y-7874633D01*
X78746742Y-7938399D01*
X78583315Y-7970907D01*
X78416685Y-7970907D01*
X78253258Y-7938399D01*
X78099313Y-7874633D01*
X77960766Y-7782059D01*
X77842941Y-7664234D01*
X77750367Y-7525687D01*
X77686601Y-7371742D01*
X77654093Y-7208315D01*
X77650000Y-7125000D01*
X77650000Y-6875000D01*
X77654093Y-6791685D01*
X77686601Y-6628258D01*
X77750367Y-6474313D01*
X77842941Y-6335766D01*
X77960766Y-6217941D01*
X78099313Y-6125367D01*
X78253258Y-6061601D01*
X78416685Y-6029093D01*
X78583315Y-6029093D01*
X78746742Y-6061601D01*
G37*
G36*
X30000000Y-7000000D02*
G01*
X28000000Y-7000000D01*
X28000000Y-5000000D01*
X30000000Y-5000000D01*
X30000000Y-7000000D01*
G37*
G36*
X34290285Y-5043060D02*
G01*
X34471397Y-5118079D01*
X34634393Y-5226990D01*
X34773010Y-5365607D01*
X34881921Y-5528603D01*
X34956940Y-5709715D01*
X34995185Y-5901983D01*
X34995185Y-6098017D01*
X34956940Y-6290285D01*
X34881921Y-6471397D01*
X34773010Y-6634393D01*
X34634393Y-6773010D01*
X34471397Y-6881921D01*
X34290285Y-6956940D01*
X34098017Y-6995185D01*
X33901983Y-6995185D01*
X33709715Y-6956940D01*
X33528603Y-6881921D01*
X33365607Y-6773010D01*
X33226990Y-6634393D01*
X33118079Y-6471397D01*
X33043060Y-6290285D01*
X33004815Y-6098017D01*
X33004815Y-5901983D01*
X33043060Y-5709715D01*
X33118079Y-5528603D01*
X33226990Y-5365607D01*
X33365607Y-5226990D01*
X33528603Y-5118079D01*
X33709715Y-5043060D01*
X33901983Y-5004815D01*
X34098017Y-5004815D01*
X34290285Y-5043060D01*
G37*
G36*
X4373513Y-2444208D02*
G01*
X4612293Y-2521793D01*
X4835998Y-2635776D01*
X5039117Y-2783350D01*
X5216650Y-2960883D01*
X5364224Y-3164002D01*
X5478207Y-3387707D01*
X5555792Y-3626487D01*
X5595068Y-3874465D01*
X5595068Y-4125535D01*
X5555792Y-4373513D01*
X5478207Y-4612293D01*
X5364224Y-4835998D01*
X5216650Y-5039117D01*
X5039117Y-5216650D01*
X4835998Y-5364224D01*
X4612293Y-5478207D01*
X4373513Y-5555792D01*
X4125535Y-5595068D01*
X3874465Y-5595068D01*
X3626487Y-5555792D01*
X3387707Y-5478207D01*
X3164002Y-5364224D01*
X2960883Y-5216650D01*
X2783350Y-5039117D01*
X2635776Y-4835998D01*
X2521793Y-4612293D01*
X2444208Y-4373513D01*
X2404932Y-4125535D01*
X2404932Y-3874465D01*
X2444208Y-3626487D01*
X2521793Y-3387707D01*
X2635776Y-3164002D01*
X2783350Y-2960883D01*
X2960883Y-2783350D01*
X3164002Y-2635776D01*
X3387707Y-2521793D01*
X3626487Y-2444208D01*
X3874465Y-2404932D01*
X4125535Y-2404932D01*
X4373513Y-2444208D01*
G37*
G36*
X86373513Y-2444208D02*
G01*
X86612293Y-2521793D01*
X86835998Y-2635776D01*
X87039117Y-2783350D01*
X87216650Y-2960883D01*
X87364224Y-3164002D01*
X87478207Y-3387707D01*
X87555792Y-3626487D01*
X87595068Y-3874465D01*
X87595068Y-4125535D01*
X87555792Y-4373513D01*
X87478207Y-4612293D01*
X87364224Y-4835998D01*
X87216650Y-5039117D01*
X87039117Y-5216650D01*
X86835998Y-5364224D01*
X86612293Y-5478207D01*
X86373513Y-5555792D01*
X86125535Y-5595068D01*
X85874465Y-5595068D01*
X85626487Y-5555792D01*
X85387707Y-5478207D01*
X85164002Y-5364224D01*
X84960883Y-5216650D01*
X84783350Y-5039117D01*
X84635776Y-4835998D01*
X84521793Y-4612293D01*
X84444208Y-4373513D01*
X84404932Y-4125535D01*
X84404932Y-3874465D01*
X84444208Y-3626487D01*
X84521793Y-3387707D01*
X84635776Y-3164002D01*
X84783350Y-2960883D01*
X84960883Y-2783350D01*
X85164002Y-2635776D01*
X85387707Y-2521793D01*
X85626487Y-2444208D01*
X85874465Y-2404932D01*
X86125535Y-2404932D01*
X86373513Y-2444208D01*
G37*
G36*
X12000000Y-5000000D02*
G01*
X10000000Y-5000000D01*
X10000000Y-3000000D01*
X12000000Y-3000000D01*
X12000000Y-5000000D01*
G37*
G36*
X16290285Y-3043060D02*
G01*
X16471397Y-3118079D01*
X16634393Y-3226990D01*
X16773010Y-3365607D01*
X16881921Y-3528603D01*
X16956940Y-3709715D01*
X16995185Y-3901983D01*
X16995185Y-4098017D01*
X16956940Y-4290285D01*
X16881921Y-4471397D01*
X16773010Y-4634393D01*
X16634393Y-4773010D01*
X16471397Y-4881921D01*
X16290285Y-4956940D01*
X16098017Y-4995185D01*
X15901983Y-4995185D01*
X15709715Y-4956940D01*
X15528603Y-4881921D01*
X15365607Y-4773010D01*
X15226990Y-4634393D01*
X15118079Y-4471397D01*
X15043060Y-4290285D01*
X15004815Y-4098017D01*
X15004815Y-3901983D01*
X15043060Y-3709715D01*
X15118079Y-3528603D01*
X15226990Y-3365607D01*
X15365607Y-3226990D01*
X15528603Y-3118079D01*
X15709715Y-3043060D01*
X15901983Y-3004815D01*
X16098017Y-3004815D01*
X16290285Y-3043060D01*
G37*
%LPD*%
M02*
