%TF.GenerationSoftware,KiCad,Pcbnew,9.0.9-9.0.9~ubuntu24.04.1*%
%TF.CreationDate,2026-10-08T12:53:06-07:00*%
%TF.ProjectId,VELOX_carrier_B,56454c4f-585f-4636-9172-726965725f42,rev?*%
%TF.SameCoordinates,Original*%
%TF.FileFunction,Copper,L2,Bot*%
%TF.FilePolarity,Positive*%
%FSLAX46Y46*%
G04 Gerber Fmt 4.6, Leading zero omitted, Abs format (unit mm)*
G04 Created by KiCad (PCBNEW 9.0.9-9.0.9~ubuntu24.04.1) date 2026-10-08 12:53:06*
%MOMM*%
%LPD*%
G01*
G04 APERTURE LIST*
G04 Aperture macros list*
%AMRoundRect*
0 Rectangle with rounded corners*
0 $1 Rounding radius*
0 $2 $3 $4 $5 $6 $7 $8 $9 X,Y pos of 4 corners*
0 Add a 4 corners polygon primitive as box body*
4,1,4,$2,$3,$4,$5,$6,$7,$8,$9,$2,$3,0*
0 Add four circle primitives for the rounded corners*
1,1,$1+$1,$2,$3*
1,1,$1+$1,$4,$5*
1,1,$1+$1,$6,$7*
1,1,$1+$1,$8,$9*
0 Add four rect primitives between the rounded corners*
20,1,$1+$1,$2,$3,$4,$5,0*
20,1,$1+$1,$4,$5,$6,$7,0*
20,1,$1+$1,$6,$7,$8,$9,0*
20,1,$1+$1,$8,$9,$2,$3,0*%
G04 Aperture macros list end*
%TA.AperFunction,ComponentPad*%
%ADD10R,2.000000X2.000000*%
%TD*%
%TA.AperFunction,ComponentPad*%
%ADD11C,2.000000*%
%TD*%
%TA.AperFunction,ComponentPad*%
%ADD12RoundRect,0.250000X-0.600000X-0.725000X0.600000X-0.725000X0.600000X0.725000X-0.600000X0.725000X0*%
%TD*%
%TA.AperFunction,ComponentPad*%
%ADD13O,1.700000X1.950000*%
%TD*%
%TA.AperFunction,ComponentPad*%
%ADD14R,1.600000X1.600000*%
%TD*%
%TA.AperFunction,ComponentPad*%
%ADD15C,1.600000*%
%TD*%
%TA.AperFunction,ComponentPad*%
%ADD16RoundRect,0.281250X-0.393750X-0.618750X0.393750X-0.618750X0.393750X0.618750X-0.393750X0.618750X0*%
%TD*%
%TA.AperFunction,ComponentPad*%
%ADD17O,1.350000X1.800000*%
%TD*%
%TA.AperFunction,ComponentPad*%
%ADD18RoundRect,0.250000X0.750000X-0.600000X0.750000X0.600000X-0.750000X0.600000X-0.750000X-0.600000X0*%
%TD*%
%TA.AperFunction,ComponentPad*%
%ADD19O,2.000000X1.700000*%
%TD*%
%TA.AperFunction,ComponentPad*%
%ADD20O,1.100000X1.700000*%
%TD*%
%TA.AperFunction,ComponentPad*%
%ADD21R,1.700000X1.700000*%
%TD*%
%TA.AperFunction,ComponentPad*%
%ADD22C,1.700000*%
%TD*%
%TA.AperFunction,ViaPad*%
%ADD23C,0.900000*%
%TD*%
%TA.AperFunction,Conductor*%
%ADD24C,0.400000*%
%TD*%
%TA.AperFunction,Conductor*%
%ADD25C,1.000000*%
%TD*%
%TA.AperFunction,Conductor*%
%ADD26C,1.500000*%
%TD*%
%TA.AperFunction,Conductor*%
%ADD27C,0.800000*%
%TD*%
%TA.AperFunction,Conductor*%
%ADD28C,0.250000*%
%TD*%
G04 APERTURE END LIST*
D10*
%TO.P,J2,1*%
%TO.N,/BAT_FUSED*%
X29000000Y-6000000D03*
D11*
%TO.P,J2,2*%
%TO.N,/BAT_RUN*%
X34000000Y-6000000D03*
%TD*%
D12*
%TO.P,J5,1*%
%TO.N,/RFID_SS*%
X61000000Y-7000000D03*
D13*
%TO.P,J5,2*%
%TO.N,/SPI_SCK*%
X63500000Y-7000000D03*
%TO.P,J5,3*%
%TO.N,/SPI_MOSI*%
X66000000Y-7000000D03*
%TO.P,J5,4*%
%TO.N,/SPI_MISO*%
X68500000Y-7000000D03*
%TO.P,J5,5*%
%TO.N,unconnected-(J5-IRQ_NC-Pad5)*%
X71000000Y-7000000D03*
%TO.P,J5,6*%
%TO.N,/GND*%
X73500000Y-7000000D03*
%TO.P,J5,7*%
%TO.N,/RFID_RST*%
X76000000Y-7000000D03*
%TO.P,J5,8*%
%TO.N,/3V3*%
X78500000Y-7000000D03*
%TD*%
D14*
%TO.P,C1,1*%
%TO.N,/COIL_6V*%
X81000000Y-27000000D03*
D15*
%TO.P,C1,2*%
%TO.N,/GND*%
X84500000Y-27000000D03*
%TD*%
D16*
%TO.P,J6,1*%
%TO.N,/GND*%
X64000000Y-17000000D03*
D17*
%TO.P,J6,2*%
X66000000Y-17000000D03*
%TO.P,J6,3*%
%TO.N,/WAKE_BTN*%
X68000000Y-17000000D03*
%TO.P,J6,4*%
%TO.N,/ADMIN_BTN*%
X70000000Y-17000000D03*
%TO.P,J6,5*%
%TO.N,/LED_RED_A*%
X72000000Y-17000000D03*
%TO.P,J6,6*%
%TO.N,/LED_GREEN_A*%
X74000000Y-17000000D03*
%TO.P,J6,7*%
%TO.N,/3V3*%
X76000000Y-17000000D03*
%TO.P,J6,8*%
%TO.N,/BUZZ_N*%
X78000000Y-17000000D03*
%TD*%
D10*
%TO.P,J1,1*%
%TO.N,/BAT_PROTECTED*%
X11000000Y-4000000D03*
D11*
%TO.P,J1,2*%
%TO.N,/GND*%
X16000000Y-4000000D03*
%TD*%
D10*
%TO.P,U3,1*%
%TO.N,/BAT_RUN*%
X58670000Y-43330000D03*
D11*
%TO.P,U3,2*%
X61210000Y-43330000D03*
%TO.P,U3,3*%
%TO.N,/GND*%
X63750000Y-43330000D03*
%TO.P,U3,4*%
X66290000Y-43330000D03*
%TO.P,U3,5*%
%TO.N,/COIL_6V*%
X68830000Y-43330000D03*
%TO.P,U3,6*%
X71369999Y-43330000D03*
%TD*%
D18*
%TO.P,J4,1*%
%TO.N,/COIL_6V*%
X85000000Y-44000000D03*
D19*
%TO.P,J4,2*%
%TO.N,/COIL_N*%
X85000000Y-41500000D03*
%TD*%
D14*
%TO.P,C8,1*%
%TO.N,/BAT_RUN*%
X63000000Y-50000000D03*
D15*
%TO.P,C8,2*%
%TO.N,/GND*%
X65000000Y-50000000D03*
%TD*%
D20*
%TO.P,J3,S1*%
%TO.N,/GND*%
X8680000Y-49000000D03*
X8680000Y-52800000D03*
X17320000Y-49000000D03*
X17320000Y-52800000D03*
%TD*%
D10*
%TO.P,U4,1*%
%TO.N,/BAT_RUN*%
X17470000Y-26280000D03*
D11*
%TO.P,U4,2*%
%TO.N,/GND*%
X20010000Y-26280000D03*
%TO.P,U4,3*%
%TO.N,/NANO_7V5*%
X22550000Y-26280000D03*
%TD*%
D21*
%TO.P,U1,1*%
%TO.N,/SPI_SCK*%
X39000000Y-8000000D03*
D22*
%TO.P,U1,2*%
%TO.N,/3V3*%
X39000000Y-10540000D03*
%TO.P,U1,3*%
%TO.N,unconnected-(U1-B0-Pad3)*%
X39000000Y-13080000D03*
%TO.P,U1,4*%
%TO.N,/BAT_ADC*%
X39000000Y-15620000D03*
%TO.P,U1,5*%
%TO.N,unconnected-(U1-A1-Pad5)*%
X39000000Y-18160000D03*
%TO.P,U1,6*%
%TO.N,unconnected-(U1-A2-Pad6)*%
X39000000Y-20700000D03*
%TO.P,U1,7*%
%TO.N,unconnected-(U1-A3-Pad7)*%
X39000000Y-23240000D03*
%TO.P,U1,8*%
%TO.N,unconnected-(U1-A4-Pad8)*%
X39000000Y-25780000D03*
%TO.P,U1,9*%
%TO.N,unconnected-(U1-A5-Pad9)*%
X39000000Y-28320000D03*
%TO.P,U1,10*%
%TO.N,unconnected-(U1-A6-Pad10)*%
X39000000Y-30860000D03*
%TO.P,U1,11*%
%TO.N,unconnected-(U1-A7-Pad11)*%
X39000000Y-33400000D03*
%TO.P,U1,12*%
%TO.N,unconnected-(U1-VBUS-Pad12)*%
X39000000Y-35940000D03*
%TO.P,U1,13*%
%TO.N,unconnected-(U1-B1-Pad13)*%
X39000000Y-38480000D03*
%TO.P,U1,14*%
%TO.N,/GND*%
X39000000Y-41020000D03*
%TO.P,U1,15*%
%TO.N,/NANO_7V5*%
X39000000Y-43560000D03*
%TO.P,U1,16*%
%TO.N,/SPI_MISO*%
X54240000Y-8000000D03*
%TO.P,U1,17*%
%TO.N,/SPI_MOSI*%
X54240000Y-10540000D03*
%TO.P,U1,18*%
%TO.N,/RFID_SS*%
X54240000Y-13080000D03*
%TO.P,U1,19*%
%TO.N,/LED_GREEN_GPIO*%
X54240000Y-15620000D03*
%TO.P,U1,20*%
%TO.N,/LED_RED_GPIO*%
X54240000Y-18160000D03*
%TO.P,U1,21*%
%TO.N,unconnected-(U1-D7-Pad21)*%
X54240000Y-20700000D03*
%TO.P,U1,22*%
%TO.N,/BUZZ_GPIO*%
X54240000Y-23240000D03*
%TO.P,U1,23*%
%TO.N,/SOL_GPIO*%
X54240000Y-25780000D03*
%TO.P,U1,24*%
%TO.N,/RFID_RST*%
X54240000Y-28320000D03*
%TO.P,U1,25*%
%TO.N,/WAKE_BTN*%
X54240000Y-30860000D03*
%TO.P,U1,26*%
%TO.N,/ADMIN_BTN*%
X54240000Y-33400000D03*
%TO.P,U1,27*%
%TO.N,/GND*%
X54240000Y-35940000D03*
%TO.P,U1,28*%
%TO.N,unconnected-(U1-RESET-Pad28)*%
X54240000Y-38480000D03*
%TO.P,U1,29*%
%TO.N,unconnected-(U1-D0-Pad29)*%
X54240000Y-41020000D03*
%TO.P,U1,30*%
%TO.N,unconnected-(U1-D1-Pad30)*%
X54240000Y-43560000D03*
%TD*%
D23*
%TO.N,/GND*%
X58125000Y-24250000D03*
X56250000Y-36000000D03*
X80000000Y-53250000D03*
X78000000Y-38000000D03*
X36750000Y-41000000D03*
X25250000Y-39000000D03*
X61250000Y-11125000D03*
X77375000Y-37000000D03*
X80000000Y-42750000D03*
X77000000Y-26000000D03*
X23625000Y-28000000D03*
X59875000Y-11125000D03*
X31250000Y-28000000D03*
X10250000Y-50750000D03*
X77000000Y-36000000D03*
X10250000Y-48875000D03*
X79875000Y-17125000D03*
X78125000Y-14875000D03*
X21500000Y-44000000D03*
X60000000Y-14500000D03*
X28500000Y-35000000D03*
X67000000Y-14500000D03*
X25625000Y-36625000D03*
X35000000Y-28000000D03*
X33000000Y-15000000D03*
%TO.N,/BAT_RUN*%
X57750000Y-11500000D03*
%TO.N,/NANO_7V5*%
X29625000Y-15000000D03*
%TO.N,/CC2*%
X13000000Y-50250000D03*
X13000000Y-46750000D03*
%TO.N,/CHG_STAT*%
X30000000Y-46000000D03*
X24625000Y-40000000D03*
%TO.N,/CHG_PROG*%
X31000000Y-38000000D03*
X27375000Y-40125000D03*
%TO.N,/ADMIN_BTN*%
X70000000Y-20500000D03*
X61000000Y-33125000D03*
%TO.N,/WAKE_BTN*%
X62375000Y-25125000D03*
X68000000Y-20500000D03*
%TO.N,/RFID_RST*%
X76875000Y-13125000D03*
%TO.N,/SOL_GPIO*%
X57125000Y-29875000D03*
X56250000Y-25750000D03*
X60125000Y-34000000D03*
X72625000Y-34000000D03*
%TO.N,/LED_RED_GPIO*%
X81000000Y-14000000D03*
X60750000Y-15375000D03*
%TO.N,/LED_GREEN_GPIO*%
X61250000Y-18250000D03*
X81000000Y-18000000D03*
%TO.N,/RFID_SS*%
X56250000Y-13125000D03*
%TO.N,/SPI_MOSI*%
X66000000Y-3000000D03*
X56250000Y-10500000D03*
X59875000Y-8750000D03*
%TO.N,/SPI_MISO*%
X56250000Y-8000000D03*
X56250000Y-19875000D03*
X62125000Y-14500000D03*
%TO.N,/BAT_ADC*%
X35000000Y-30000000D03*
X34500000Y-22000000D03*
X31000000Y-21000000D03*
X31250000Y-30000000D03*
%TO.N,/3V3*%
X59000000Y-6875000D03*
X36750000Y-10500000D03*
%TO.N,/SPI_SCK*%
X36750000Y-8000000D03*
%TO.N,/LED_RED_A*%
X78875000Y-19750000D03*
X72000000Y-20500000D03*
%TO.N,/LED_GREEN_A*%
X74000000Y-20500000D03*
X85000000Y-18000000D03*
%TO.N,/BUZZ_N*%
X70875000Y-22250000D03*
X61500000Y-22000000D03*
%TO.N,/COIL_N*%
X82125000Y-45250000D03*
%TO.N,/BUZZ_GATE*%
X60125000Y-28500000D03*
X61000000Y-25125000D03*
X59250000Y-21000000D03*
%TD*%
D24*
%TO.N,/GND*%
X59875000Y-15875000D02*
X59875000Y-11125000D01*
X8625000Y-52750000D02*
X8680000Y-52800000D01*
X64000000Y-17000000D02*
X60000000Y-17000000D01*
X25250000Y-39000000D02*
X21500000Y-39000000D01*
X35250000Y-22625000D02*
X35250000Y-22500000D01*
X60250000Y-16125000D02*
X60125000Y-16125000D01*
X35250000Y-22500000D02*
X35375000Y-22500000D01*
X60250000Y-16250000D02*
X60250000Y-16125000D01*
X77000000Y-36000000D02*
X77000000Y-26000000D01*
X19000000Y-26250000D02*
X19000000Y-24750000D01*
X8680000Y-49000000D02*
X8625000Y-49000000D01*
D25*
X63750000Y-37000000D02*
X63750000Y-43375000D01*
D24*
X35375000Y-22500000D02*
X35375000Y-21500000D01*
X60000000Y-14750000D02*
X60000000Y-14875000D01*
X61250000Y-11125000D02*
X61250000Y-14500000D01*
X60000000Y-17000000D02*
X60000000Y-15875000D01*
X60000000Y-15875000D02*
X59875000Y-15875000D01*
D25*
X77375000Y-37000000D02*
X63750000Y-37000000D01*
D24*
X35125000Y-21375000D02*
X35125000Y-21250000D01*
X35250000Y-21375000D02*
X35125000Y-21375000D01*
X60000000Y-14875000D02*
X59875000Y-14875000D01*
X60000000Y-16000000D02*
X60000000Y-15875000D01*
X35000000Y-21125000D02*
X33000000Y-21125000D01*
D25*
X63750000Y-43375000D02*
X63750000Y-43330000D01*
D24*
X66000000Y-16250000D02*
X60250000Y-16250000D01*
X79125000Y-17125000D02*
X79125000Y-15625000D01*
X59875000Y-14875000D02*
X59875000Y-17000000D01*
X35125000Y-22625000D02*
X35250000Y-22625000D01*
X20010000Y-26280000D02*
X20000000Y-26250000D01*
X23625000Y-28000000D02*
X20000000Y-28000000D01*
X16000000Y-24750000D02*
X16000000Y-4000000D01*
X35375000Y-21500000D02*
X35250000Y-21500000D01*
X20000000Y-26250000D02*
X20010000Y-26280000D01*
X59875000Y-15875000D02*
X59875000Y-14500000D01*
X35000000Y-28000000D02*
X35000000Y-22750000D01*
X35000000Y-22750000D02*
X35125000Y-22750000D01*
X60125000Y-14625000D02*
X60125000Y-14750000D01*
X60125000Y-16000000D02*
X60000000Y-16000000D01*
X79875000Y-17125000D02*
X79125000Y-17125000D01*
X59875000Y-17000000D02*
X66000000Y-17000000D01*
X79125000Y-15625000D02*
X78125000Y-15625000D01*
X31250000Y-28000000D02*
X35000000Y-28000000D01*
X61250000Y-14500000D02*
X60250000Y-14500000D01*
X60250000Y-14500000D02*
X60250000Y-14625000D01*
X35125000Y-21250000D02*
X35000000Y-21250000D01*
X60000000Y-15875000D02*
X59875000Y-15875000D01*
X60125000Y-16125000D02*
X60125000Y-16000000D01*
X66250000Y-43375000D02*
X66250000Y-38000000D01*
X25625000Y-35000000D02*
X28500000Y-35000000D01*
X66290000Y-43330000D02*
X66250000Y-43375000D01*
X35125000Y-22750000D02*
X35125000Y-22625000D01*
X78125000Y-15625000D02*
X78125000Y-14875000D01*
X80000000Y-42750000D02*
X80000000Y-53250000D01*
X33000000Y-21125000D02*
X33000000Y-15000000D01*
X60250000Y-14625000D02*
X60125000Y-14625000D01*
X35000000Y-21250000D02*
X35000000Y-21125000D01*
X20000000Y-26250000D02*
X19000000Y-26250000D01*
X59875000Y-14500000D02*
X60000000Y-14500000D01*
X25625000Y-36625000D02*
X25625000Y-35000000D01*
X66000000Y-17000000D02*
X66000000Y-16250000D01*
X10250000Y-50750000D02*
X10250000Y-48875000D01*
X19000000Y-24750000D02*
X16000000Y-24750000D01*
X21500000Y-39000000D02*
X21500000Y-44000000D01*
X60125000Y-14750000D02*
X60000000Y-14750000D01*
X66250000Y-38000000D02*
X78000000Y-38000000D01*
X20000000Y-28000000D02*
X20000000Y-26250000D01*
X35250000Y-21500000D02*
X35250000Y-21375000D01*
X8625000Y-49000000D02*
X8625000Y-52750000D01*
D26*
%TO.N,/BAT_RUN*%
X59500000Y-24625000D02*
X59500000Y-25000000D01*
X59250000Y-25375000D02*
X59000000Y-25375000D01*
X58875000Y-25500000D02*
X58875000Y-25625000D01*
X58875000Y-25625000D02*
X58625000Y-25625000D01*
X58500000Y-22875000D02*
X58875000Y-22875000D01*
X58875000Y-22875000D02*
X58875000Y-23000000D01*
X57750000Y-11500000D02*
X57750000Y-22750000D01*
X58625000Y-25625000D02*
X58625000Y-43375000D01*
X58500000Y-22750000D02*
X58500000Y-22875000D01*
X59250000Y-23125000D02*
X59250000Y-23375000D01*
X58625000Y-43375000D02*
X58670000Y-43330000D01*
X59000000Y-25500000D02*
X58875000Y-25500000D01*
X58875000Y-23000000D02*
X59000000Y-23000000D01*
X59500000Y-25000000D02*
X59375000Y-25000000D01*
X59000000Y-25375000D02*
X59000000Y-25500000D01*
X57750000Y-22750000D02*
X58500000Y-22750000D01*
X59500000Y-23875000D02*
X59625000Y-23875000D01*
X59625000Y-23875000D02*
X59625000Y-24625000D01*
X59000000Y-23000000D02*
X59000000Y-23125000D01*
X59375000Y-23500000D02*
X59500000Y-23500000D01*
X59000000Y-23125000D02*
X59250000Y-23125000D01*
X59375000Y-23375000D02*
X59375000Y-23500000D01*
X59375000Y-25000000D02*
X59375000Y-25125000D01*
X59250000Y-25125000D02*
X59250000Y-25375000D01*
X59625000Y-24625000D02*
X59500000Y-24625000D01*
X59500000Y-23500000D02*
X59500000Y-23875000D01*
X59375000Y-25125000D02*
X59250000Y-25125000D01*
X59250000Y-23375000D02*
X59375000Y-23375000D01*
D27*
%TO.N,/NANO_7V5*%
X22550000Y-26280000D02*
X22500000Y-26250000D01*
X22500000Y-15000000D02*
X29625000Y-15000000D01*
X22500000Y-26250000D02*
X22500000Y-15000000D01*
D28*
%TO.N,/CC2*%
X13000000Y-46750000D02*
X13000000Y-50250000D01*
%TO.N,/CHG_STAT*%
X24625000Y-46000000D02*
X30000000Y-46000000D01*
X24625000Y-40000000D02*
X24625000Y-46000000D01*
%TO.N,/CHG_PROG*%
X27375000Y-40125000D02*
X27375000Y-38000000D01*
X27375000Y-38000000D02*
X31000000Y-38000000D01*
%TO.N,/ADMIN_BTN*%
X63000000Y-25625000D02*
X63000000Y-25750000D01*
X68500000Y-21125000D02*
X68500000Y-21250000D01*
X63250000Y-21375000D02*
X63250000Y-25500000D01*
X63125000Y-25625000D02*
X63000000Y-25625000D01*
X68375000Y-21250000D02*
X68375000Y-21375000D01*
X68375000Y-21375000D02*
X63250000Y-21375000D01*
X62750000Y-25875000D02*
X62750000Y-26000000D01*
X68500000Y-21250000D02*
X68375000Y-21250000D01*
X68750000Y-20875000D02*
X68750000Y-21000000D01*
X61000000Y-26000000D02*
X61000000Y-33125000D01*
X70000000Y-20500000D02*
X68875000Y-20500000D01*
X62875000Y-25750000D02*
X62875000Y-25875000D01*
X68875000Y-20875000D02*
X68750000Y-20875000D01*
X62875000Y-25875000D02*
X62750000Y-25875000D01*
X63250000Y-25500000D02*
X63125000Y-25500000D01*
X63000000Y-25750000D02*
X62875000Y-25750000D01*
X68750000Y-21000000D02*
X68625000Y-21000000D01*
X63125000Y-25500000D02*
X63125000Y-25625000D01*
X68625000Y-21125000D02*
X68500000Y-21125000D01*
X68625000Y-21000000D02*
X68625000Y-21125000D01*
X68875000Y-20500000D02*
X68875000Y-20875000D01*
X62750000Y-26000000D02*
X61000000Y-26000000D01*
%TO.N,/WAKE_BTN*%
X68000000Y-20500000D02*
X62375000Y-20500000D01*
X62375000Y-20500000D02*
X62375000Y-25125000D01*
%TO.N,/RFID_RST*%
X76000000Y-3000000D02*
X76000000Y-13125000D01*
X76000000Y-13125000D02*
X76875000Y-13125000D01*
X76000000Y-7000000D02*
X76000000Y-3000000D01*
%TO.N,/SOL_GPIO*%
X57125000Y-28000000D02*
X57000000Y-28000000D01*
X72625000Y-34000000D02*
X60125000Y-34000000D01*
X56625000Y-27500000D02*
X56250000Y-27500000D01*
X56750000Y-27625000D02*
X56625000Y-27625000D01*
X56750000Y-27750000D02*
X56750000Y-27625000D01*
X57000000Y-27875000D02*
X56875000Y-27875000D01*
X56625000Y-27625000D02*
X56625000Y-27500000D01*
X56875000Y-27875000D02*
X56875000Y-27750000D01*
X57125000Y-29875000D02*
X57125000Y-28000000D01*
X56875000Y-27750000D02*
X56750000Y-27750000D01*
X56250000Y-27500000D02*
X56250000Y-25750000D01*
X57000000Y-28000000D02*
X57000000Y-27875000D01*
%TO.N,/LED_RED_GPIO*%
X67750000Y-14875000D02*
X67750000Y-15000000D01*
X67500000Y-15125000D02*
X67500000Y-15250000D01*
X67375000Y-15250000D02*
X67375000Y-15375000D01*
X67875000Y-14875000D02*
X67750000Y-14875000D01*
X67625000Y-15000000D02*
X67625000Y-15125000D01*
X67500000Y-15250000D02*
X67375000Y-15250000D01*
X67375000Y-15375000D02*
X60750000Y-15375000D01*
X67625000Y-15125000D02*
X67500000Y-15125000D01*
X81000000Y-14000000D02*
X67875000Y-14000000D01*
X67875000Y-14000000D02*
X67875000Y-14875000D01*
X67750000Y-15000000D02*
X67625000Y-15000000D01*
%TO.N,/LED_GREEN_GPIO*%
X79000000Y-18000000D02*
X79000000Y-18250000D01*
X81000000Y-18000000D02*
X79000000Y-18000000D01*
X79000000Y-18250000D02*
X61250000Y-18250000D01*
%TO.N,/RFID_SS*%
X57125000Y-8375000D02*
X57000000Y-8375000D01*
X61000000Y-7000000D02*
X61000000Y-3000000D01*
X56250000Y-9250000D02*
X53000000Y-9250000D01*
X56875000Y-8625000D02*
X56750000Y-8625000D01*
X59750000Y-7250000D02*
X59750000Y-7375000D01*
X61000000Y-3000000D02*
X59875000Y-3000000D01*
X56750000Y-8750000D02*
X56625000Y-8750000D01*
X59375000Y-7750000D02*
X57125000Y-7750000D01*
X56875000Y-8500000D02*
X56875000Y-8625000D01*
X56750000Y-8625000D02*
X56750000Y-8750000D01*
X56250000Y-8875000D02*
X56250000Y-9250000D01*
X59625000Y-7375000D02*
X59625000Y-7500000D01*
X57000000Y-8500000D02*
X56875000Y-8500000D01*
X53000000Y-13125000D02*
X56250000Y-13125000D01*
X59375000Y-7625000D02*
X59375000Y-7750000D01*
X53000000Y-9250000D02*
X53000000Y-13125000D01*
X59500000Y-7625000D02*
X59375000Y-7625000D01*
X56625000Y-8875000D02*
X56250000Y-8875000D01*
X59875000Y-3000000D02*
X59875000Y-7250000D01*
X59875000Y-7250000D02*
X59750000Y-7250000D01*
X57125000Y-7750000D02*
X57125000Y-8375000D01*
X59625000Y-7500000D02*
X59500000Y-7500000D01*
X57000000Y-8375000D02*
X57000000Y-8500000D01*
X59750000Y-7375000D02*
X59625000Y-7375000D01*
X59500000Y-7500000D02*
X59500000Y-7625000D01*
X56625000Y-8750000D02*
X56625000Y-8875000D01*
%TO.N,/SPI_MOSI*%
X56250000Y-9750000D02*
X56250000Y-10500000D01*
X57375000Y-8875000D02*
X57375000Y-9000000D01*
X56625000Y-9625000D02*
X56625000Y-9750000D01*
X56750000Y-9375000D02*
X56750000Y-9625000D01*
X57125000Y-9250000D02*
X57000000Y-9250000D01*
X56750000Y-9625000D02*
X56625000Y-9625000D01*
X56625000Y-9750000D02*
X56250000Y-9750000D01*
X57125000Y-9125000D02*
X57125000Y-9250000D01*
X57250000Y-9000000D02*
X57250000Y-9125000D01*
X59875000Y-8750000D02*
X57500000Y-8750000D01*
X57500000Y-8875000D02*
X57375000Y-8875000D01*
X57250000Y-9125000D02*
X57125000Y-9125000D01*
X57500000Y-8750000D02*
X57500000Y-8875000D01*
X57000000Y-9250000D02*
X57000000Y-9375000D01*
X66000000Y-7000000D02*
X66000000Y-3000000D01*
X57375000Y-9000000D02*
X57250000Y-9000000D01*
X57000000Y-9375000D02*
X56750000Y-9375000D01*
%TO.N,/SPI_MISO*%
X67250000Y-8375000D02*
X62125000Y-8375000D01*
X52625000Y-13625000D02*
X52625000Y-13500000D01*
X56250000Y-19875000D02*
X56250000Y-19375000D01*
X56250000Y-19375000D02*
X53000000Y-19375000D01*
X52625000Y-13500000D02*
X52500000Y-13500000D01*
X62125000Y-8375000D02*
X62125000Y-14500000D01*
X68500000Y-3000000D02*
X67250000Y-3000000D01*
X53000000Y-13625000D02*
X52625000Y-13625000D01*
X53000000Y-19375000D02*
X53000000Y-13625000D01*
X67250000Y-3000000D02*
X67250000Y-8375000D01*
X52500000Y-13500000D02*
X52500000Y-8000000D01*
X52500000Y-8000000D02*
X56250000Y-8000000D01*
X68500000Y-7000000D02*
X68500000Y-3000000D01*
%TO.N,/BAT_ADC*%
X34500000Y-22000000D02*
X31000000Y-22000000D01*
X31250000Y-30000000D02*
X35000000Y-30000000D01*
X31000000Y-22000000D02*
X31000000Y-21000000D01*
D24*
%TO.N,/3V3*%
X37375000Y-8625000D02*
X37375000Y-8750000D01*
X37375000Y-8750000D02*
X37250000Y-8750000D01*
X36750000Y-8875000D02*
X36750000Y-10500000D01*
X37250000Y-8875000D02*
X36750000Y-8875000D01*
X55625000Y-6875000D02*
X55625000Y-6625000D01*
X55625000Y-6625000D02*
X37625000Y-6625000D01*
X37250000Y-8750000D02*
X37250000Y-8875000D01*
X37500000Y-8625000D02*
X37375000Y-8625000D01*
X37500000Y-8500000D02*
X37500000Y-8625000D01*
X37625000Y-8500000D02*
X37500000Y-8500000D01*
X37625000Y-6625000D02*
X37625000Y-8500000D01*
X59000000Y-6875000D02*
X55625000Y-6875000D01*
D28*
%TO.N,/SPI_SCK*%
X61625000Y-2500000D02*
X61625000Y-2375000D01*
X61375000Y-2250000D02*
X61375000Y-2125000D01*
X61750000Y-2625000D02*
X61750000Y-2500000D01*
X61875000Y-3000000D02*
X61875000Y-2625000D01*
X61750000Y-2500000D02*
X61625000Y-2500000D01*
X63500000Y-3000000D02*
X61875000Y-3000000D01*
X61500000Y-2375000D02*
X61500000Y-2250000D01*
X36750000Y-2125000D02*
X36750000Y-8000000D01*
X61500000Y-2250000D02*
X61375000Y-2250000D01*
X61625000Y-2375000D02*
X61500000Y-2375000D01*
X63500000Y-7000000D02*
X63500000Y-3000000D01*
X61375000Y-2125000D02*
X36750000Y-2125000D01*
X61875000Y-2625000D02*
X61750000Y-2625000D01*
%TO.N,/LED_RED_A*%
X73250000Y-21000000D02*
X73375000Y-21000000D01*
X73250000Y-20875000D02*
X73250000Y-21000000D01*
X73625000Y-21375000D02*
X78375000Y-21375000D01*
X78750000Y-20875000D02*
X78875000Y-20875000D01*
X73375000Y-21000000D02*
X73375000Y-21125000D01*
X78625000Y-21000000D02*
X78750000Y-21000000D01*
X78375000Y-21375000D02*
X78375000Y-21250000D01*
X78625000Y-21125000D02*
X78625000Y-21000000D01*
X78500000Y-21250000D02*
X78500000Y-21125000D01*
X73625000Y-21250000D02*
X73625000Y-21375000D01*
X78375000Y-21250000D02*
X78500000Y-21250000D01*
X72000000Y-20500000D02*
X73125000Y-20500000D01*
X73500000Y-21250000D02*
X73625000Y-21250000D01*
X78875000Y-20875000D02*
X78875000Y-19750000D01*
X73125000Y-20875000D02*
X73250000Y-20875000D01*
X73375000Y-21125000D02*
X73500000Y-21125000D01*
X78500000Y-21125000D02*
X78625000Y-21125000D01*
X73125000Y-20500000D02*
X73125000Y-20875000D01*
X78750000Y-21000000D02*
X78750000Y-20875000D01*
X73500000Y-21125000D02*
X73500000Y-21250000D01*
%TO.N,/LED_GREEN_A*%
X81875000Y-18000000D02*
X85000000Y-18000000D01*
X81750000Y-18500000D02*
X81750000Y-18375000D01*
X81875000Y-18375000D02*
X81875000Y-18000000D01*
X81500000Y-18625000D02*
X81625000Y-18625000D01*
X81375000Y-18875000D02*
X81375000Y-18750000D01*
X74000000Y-18875000D02*
X81375000Y-18875000D01*
X81500000Y-18750000D02*
X81500000Y-18625000D01*
X74000000Y-20500000D02*
X74000000Y-18875000D01*
X81375000Y-18750000D02*
X81500000Y-18750000D01*
X81625000Y-18500000D02*
X81750000Y-18500000D01*
X81625000Y-18625000D02*
X81625000Y-18500000D01*
X81750000Y-18375000D02*
X81875000Y-18375000D01*
%TO.N,/BUZZ_N*%
X70375000Y-19625000D02*
X61500000Y-19625000D01*
X70500000Y-19750000D02*
X70375000Y-19750000D01*
X70750000Y-20000000D02*
X70625000Y-20000000D01*
X70875000Y-22250000D02*
X70875000Y-20125000D01*
X70750000Y-20125000D02*
X70750000Y-20000000D01*
X70375000Y-19750000D02*
X70375000Y-19625000D01*
X70625000Y-20000000D02*
X70625000Y-19875000D01*
X70625000Y-19875000D02*
X70500000Y-19875000D01*
X70875000Y-20125000D02*
X70750000Y-20125000D01*
X70500000Y-19875000D02*
X70500000Y-19750000D01*
X61500000Y-19625000D02*
X61500000Y-22000000D01*
D25*
%TO.N,/COIL_N*%
X82125000Y-45250000D02*
X82125000Y-41500000D01*
X82125000Y-41500000D02*
X85000000Y-41500000D01*
D28*
%TO.N,/BUZZ_GATE*%
X60625000Y-25500000D02*
X61000000Y-25500000D01*
X60625000Y-25625000D02*
X60625000Y-25500000D01*
X60250000Y-22625000D02*
X60250000Y-22375000D01*
X61000000Y-25500000D02*
X61000000Y-25125000D01*
X59250000Y-21750000D02*
X59250000Y-21000000D01*
X60125000Y-22375000D02*
X60125000Y-22250000D01*
X60250000Y-26125000D02*
X60250000Y-26000000D01*
X60125000Y-22250000D02*
X60000000Y-22250000D01*
X60125000Y-26125000D02*
X60250000Y-26125000D01*
X60000000Y-22125000D02*
X59750000Y-22125000D01*
X60125000Y-28500000D02*
X60125000Y-26125000D01*
X60250000Y-26000000D02*
X60500000Y-26000000D01*
X60625000Y-23375000D02*
X60625000Y-23000000D01*
X60375000Y-22750000D02*
X60375000Y-22625000D01*
X60500000Y-26000000D02*
X60500000Y-25625000D01*
X60625000Y-23000000D02*
X60500000Y-23000000D01*
X60000000Y-22250000D02*
X60000000Y-22125000D01*
X60750000Y-25125000D02*
X60750000Y-23375000D01*
X59750000Y-22000000D02*
X59625000Y-22000000D01*
X60500000Y-25625000D02*
X60625000Y-25625000D01*
X59375000Y-21875000D02*
X59375000Y-21750000D01*
X60750000Y-23375000D02*
X60625000Y-23375000D01*
X59750000Y-22125000D02*
X59750000Y-22000000D01*
X59625000Y-21875000D02*
X59375000Y-21875000D01*
X59625000Y-22000000D02*
X59625000Y-21875000D01*
X60250000Y-22375000D02*
X60125000Y-22375000D01*
X60500000Y-23000000D02*
X60500000Y-22750000D01*
X61000000Y-25125000D02*
X60750000Y-25125000D01*
X59375000Y-21750000D02*
X59250000Y-21750000D01*
X60375000Y-22625000D02*
X60250000Y-22625000D01*
X60500000Y-22750000D02*
X60375000Y-22750000D01*
%TD*%
%TA.AperFunction,Conductor*%
%TO.N,/GND*%
G36*
X61692539Y-8245184D02*
G01*
X61738294Y-8297988D01*
X61749500Y-8349499D01*
X61749500Y-8354344D01*
X61749076Y-8364585D01*
X61745607Y-8406434D01*
X61745608Y-8406437D01*
X61745706Y-8406825D01*
X61749500Y-8437263D01*
X61749500Y-13840998D01*
X61729815Y-13908037D01*
X61707727Y-13933813D01*
X61596818Y-14032069D01*
X61500182Y-14172068D01*
X61439860Y-14331125D01*
X61439859Y-14331130D01*
X61419355Y-14500000D01*
X61439859Y-14668869D01*
X61439859Y-14668871D01*
X61439860Y-14668872D01*
X61479316Y-14772910D01*
X61484683Y-14842574D01*
X61451535Y-14904080D01*
X61390397Y-14937901D01*
X61320679Y-14933299D01*
X61281147Y-14909697D01*
X61150849Y-14794263D01*
X61000226Y-14715210D01*
X60835056Y-14674500D01*
X60664944Y-14674500D01*
X60499773Y-14715210D01*
X60349150Y-14794263D01*
X60221816Y-14907072D01*
X60125182Y-15047068D01*
X60064860Y-15206125D01*
X60064859Y-15206130D01*
X60044355Y-15375000D01*
X60064859Y-15543869D01*
X60064860Y-15543874D01*
X60125182Y-15702931D01*
X60185558Y-15790399D01*
X60221817Y-15842929D01*
X60274891Y-15889948D01*
X60349150Y-15955736D01*
X60470166Y-16019250D01*
X60499775Y-16034790D01*
X60664944Y-16075500D01*
X60835056Y-16075500D01*
X61000225Y-16034790D01*
X61114491Y-15974818D01*
X61150849Y-15955736D01*
X61150850Y-15955734D01*
X61150852Y-15955734D01*
X61278183Y-15842929D01*
X61291947Y-15822989D01*
X61305014Y-15804059D01*
X61359297Y-15760069D01*
X61407063Y-15750500D01*
X65454767Y-15750500D01*
X65521806Y-15770185D01*
X65567561Y-15822989D01*
X65577505Y-15892147D01*
X65548480Y-15955703D01*
X65527652Y-15974818D01*
X65377648Y-16083801D01*
X65377644Y-16083805D01*
X65372433Y-16089590D01*
X65916578Y-16633735D01*
X65876554Y-16640414D01*
X65766486Y-16699981D01*
X65681722Y-16792059D01*
X65631449Y-16906670D01*
X65630865Y-16913708D01*
X65141373Y-16424216D01*
X65141372Y-16424216D01*
X65090232Y-16581615D01*
X65090230Y-16581620D01*
X65075000Y-16726529D01*
X65075000Y-17273470D01*
X65090230Y-17418380D01*
X65090231Y-17418382D01*
X65150313Y-17603298D01*
X65150316Y-17603304D01*
X65199504Y-17688500D01*
X65215977Y-17756400D01*
X65193124Y-17822427D01*
X65138203Y-17865618D01*
X65092117Y-17874500D01*
X61907063Y-17874500D01*
X61840024Y-17854815D01*
X61805014Y-17820941D01*
X61778184Y-17782072D01*
X61650849Y-17669263D01*
X61500226Y-17590210D01*
X61335056Y-17549500D01*
X61164944Y-17549500D01*
X60999773Y-17590210D01*
X60849150Y-17669263D01*
X60721816Y-17782072D01*
X60625182Y-17922068D01*
X60564860Y-18081125D01*
X60564859Y-18081130D01*
X60544355Y-18250000D01*
X60564859Y-18418869D01*
X60564860Y-18418874D01*
X60625182Y-18577931D01*
X60678438Y-18655084D01*
X60721817Y-18717929D01*
X60814618Y-18800143D01*
X60849150Y-18830736D01*
X60991197Y-18905288D01*
X60999775Y-18909790D01*
X61164944Y-18950500D01*
X61335056Y-18950500D01*
X61500225Y-18909790D01*
X61599182Y-18857853D01*
X61650849Y-18830736D01*
X61650850Y-18830734D01*
X61650852Y-18830734D01*
X61778183Y-18717929D01*
X61803467Y-18681300D01*
X61805014Y-18679059D01*
X61859297Y-18635069D01*
X61907063Y-18625500D01*
X73511158Y-18625500D01*
X73578197Y-18645185D01*
X73623952Y-18697989D01*
X73633896Y-18767147D01*
X73631363Y-18779944D01*
X73630955Y-18781553D01*
X73630922Y-18781956D01*
X73624634Y-18811946D01*
X73624500Y-18812335D01*
X73624500Y-18854344D01*
X73624076Y-18864585D01*
X73620607Y-18906434D01*
X73620608Y-18906437D01*
X73620706Y-18906825D01*
X73624500Y-18937263D01*
X73624500Y-19840998D01*
X73604815Y-19908037D01*
X73582727Y-19933813D01*
X73471818Y-20032068D01*
X73419203Y-20108293D01*
X73364919Y-20152282D01*
X73295470Y-20159940D01*
X73276891Y-20155132D01*
X73266463Y-20151552D01*
X73256916Y-20147827D01*
X73218459Y-20130958D01*
X73218446Y-20130955D01*
X73218044Y-20130922D01*
X73188042Y-20124631D01*
X73187660Y-20124500D01*
X73145655Y-20124500D01*
X73135414Y-20124076D01*
X73093565Y-20120607D01*
X73093373Y-20120655D01*
X73093174Y-20120706D01*
X73062737Y-20124500D01*
X72657063Y-20124500D01*
X72590024Y-20104815D01*
X72555014Y-20070941D01*
X72528184Y-20032072D01*
X72528179Y-20032068D01*
X72441663Y-19955421D01*
X72400849Y-19919263D01*
X72250226Y-19840210D01*
X72085056Y-19799500D01*
X71914944Y-19799500D01*
X71749773Y-19840210D01*
X71599150Y-19919263D01*
X71471817Y-20032070D01*
X71459234Y-20050300D01*
X71404949Y-20094288D01*
X71335500Y-20101945D01*
X71272936Y-20070840D01*
X71237121Y-20010848D01*
X71235197Y-20001776D01*
X71235065Y-20001390D01*
X71234875Y-20001039D01*
X71223726Y-19972463D01*
X71223628Y-19972079D01*
X71223628Y-19972078D01*
X71200654Y-19936914D01*
X71195407Y-19928110D01*
X71190621Y-19919266D01*
X71175419Y-19891174D01*
X71175129Y-19890907D01*
X71155297Y-19867491D01*
X71155084Y-19867164D01*
X71155082Y-19867162D01*
X71121936Y-19841364D01*
X71114113Y-19834737D01*
X71076347Y-19799969D01*
X71051278Y-19767760D01*
X71050420Y-19766175D01*
X71050130Y-19765908D01*
X71030297Y-19742491D01*
X71030084Y-19742164D01*
X71030082Y-19742162D01*
X70996936Y-19716364D01*
X70989113Y-19709737D01*
X70951347Y-19674969D01*
X70926278Y-19642760D01*
X70925420Y-19641175D01*
X70925130Y-19640908D01*
X70905297Y-19617491D01*
X70905084Y-19617164D01*
X70905082Y-19617162D01*
X70871936Y-19591364D01*
X70864113Y-19584737D01*
X70826347Y-19549969D01*
X70801278Y-19517760D01*
X70800420Y-19516175D01*
X70800130Y-19515908D01*
X70780297Y-19492491D01*
X70780084Y-19492164D01*
X70780082Y-19492162D01*
X70746936Y-19466364D01*
X70739113Y-19459737D01*
X70701347Y-19424969D01*
X70676278Y-19392760D01*
X70675420Y-19391175D01*
X70675130Y-19390908D01*
X70655297Y-19367491D01*
X70655084Y-19367164D01*
X70655082Y-19367162D01*
X70621936Y-19341364D01*
X70614123Y-19334746D01*
X70590506Y-19313005D01*
X70583216Y-19306294D01*
X70582848Y-19306133D01*
X70556505Y-19290437D01*
X70556189Y-19290191D01*
X70516461Y-19276552D01*
X70506916Y-19272827D01*
X70468459Y-19255958D01*
X70468446Y-19255955D01*
X70468044Y-19255922D01*
X70438042Y-19249631D01*
X70437660Y-19249500D01*
X70395655Y-19249500D01*
X70385414Y-19249076D01*
X70343565Y-19245607D01*
X70343373Y-19245655D01*
X70343174Y-19245706D01*
X70312737Y-19249500D01*
X61520655Y-19249500D01*
X61510414Y-19249076D01*
X61468562Y-19245607D01*
X61427845Y-19255918D01*
X61417819Y-19258020D01*
X61376392Y-19264933D01*
X61376387Y-19264935D01*
X61376024Y-19265132D01*
X61347482Y-19276268D01*
X61347087Y-19276367D01*
X61347077Y-19276372D01*
X61311908Y-19299348D01*
X61303112Y-19304589D01*
X61266178Y-19324578D01*
X61266165Y-19324588D01*
X61265895Y-19324882D01*
X61242509Y-19344690D01*
X61242167Y-19344912D01*
X61242163Y-19344917D01*
X61216367Y-19378058D01*
X61209749Y-19385872D01*
X61181296Y-19416781D01*
X61181292Y-19416787D01*
X61181129Y-19417161D01*
X61165443Y-19443486D01*
X61165193Y-19443806D01*
X61165191Y-19443810D01*
X61151554Y-19483534D01*
X61147829Y-19493079D01*
X61130957Y-19531543D01*
X61130955Y-19531549D01*
X61130922Y-19531956D01*
X61124634Y-19561946D01*
X61124500Y-19562335D01*
X61124500Y-19604344D01*
X61124076Y-19614585D01*
X61120607Y-19656434D01*
X61120608Y-19656437D01*
X61120706Y-19656825D01*
X61124500Y-19687263D01*
X61124500Y-21340998D01*
X61104815Y-21408037D01*
X61082727Y-21433813D01*
X60971818Y-21532069D01*
X60875182Y-21672068D01*
X60814860Y-21831125D01*
X60814859Y-21831130D01*
X60794355Y-22000000D01*
X60808014Y-22112498D01*
X60796553Y-22181421D01*
X60749649Y-22233207D01*
X60682193Y-22251414D01*
X60615603Y-22230261D01*
X60581107Y-22195261D01*
X60575650Y-22186908D01*
X60570407Y-22178110D01*
X60569794Y-22176977D01*
X60550419Y-22141174D01*
X60550129Y-22140907D01*
X60530297Y-22117491D01*
X60530084Y-22117164D01*
X60530082Y-22117162D01*
X60496936Y-22091364D01*
X60489113Y-22084737D01*
X60451347Y-22049969D01*
X60426278Y-22017760D01*
X60425420Y-22016175D01*
X60425130Y-22015908D01*
X60405297Y-21992491D01*
X60405084Y-21992164D01*
X60405082Y-21992162D01*
X60371936Y-21966364D01*
X60364113Y-21959737D01*
X60326347Y-21924969D01*
X60301278Y-21892760D01*
X60300420Y-21891175D01*
X60300130Y-21890908D01*
X60280297Y-21867491D01*
X60280084Y-21867164D01*
X60280082Y-21867162D01*
X60246936Y-21841364D01*
X60239123Y-21834746D01*
X60215506Y-21813005D01*
X60208216Y-21806294D01*
X60207848Y-21806133D01*
X60181505Y-21790437D01*
X60181189Y-21790191D01*
X60141461Y-21776552D01*
X60131916Y-21772827D01*
X60093459Y-21755958D01*
X60093446Y-21755955D01*
X60093044Y-21755922D01*
X60063042Y-21749631D01*
X60052944Y-21746165D01*
X60053342Y-21745004D01*
X60008412Y-21725296D01*
X60006031Y-21723443D01*
X59996930Y-21716359D01*
X59989113Y-21709737D01*
X59951347Y-21674969D01*
X59926278Y-21642760D01*
X59925420Y-21641175D01*
X59925130Y-21640908D01*
X59905297Y-21617491D01*
X59905084Y-21617164D01*
X59905082Y-21617162D01*
X59871936Y-21591364D01*
X59864121Y-21584744D01*
X59849126Y-21570941D01*
X59841549Y-21563965D01*
X59805561Y-21504077D01*
X59807663Y-21434239D01*
X59823482Y-21402301D01*
X59874818Y-21327930D01*
X59935140Y-21168872D01*
X59955645Y-21000000D01*
X59935140Y-20831128D01*
X59874818Y-20672070D01*
X59872608Y-20668869D01*
X59838247Y-20619088D01*
X59778183Y-20532071D01*
X59683316Y-20448026D01*
X59650849Y-20419263D01*
X59500226Y-20340210D01*
X59335056Y-20299500D01*
X59164944Y-20299500D01*
X58999774Y-20340209D01*
X58932125Y-20375715D01*
X58863617Y-20389439D01*
X58798564Y-20363947D01*
X58757620Y-20307331D01*
X58750500Y-20265918D01*
X58750500Y-11449256D01*
X58735074Y-11297560D01*
X58674162Y-11103420D01*
X58674160Y-11103416D01*
X58674159Y-11103412D01*
X58575409Y-10925498D01*
X58575408Y-10925497D01*
X58575407Y-10925495D01*
X58442867Y-10771106D01*
X58442865Y-10771104D01*
X58281962Y-10646554D01*
X58281959Y-10646553D01*
X58281958Y-10646552D01*
X58099271Y-10556940D01*
X57902285Y-10505937D01*
X57902287Y-10505937D01*
X57766804Y-10499066D01*
X57699064Y-10495631D01*
X57699063Y-10495631D01*
X57699061Y-10495631D01*
X57497936Y-10526442D01*
X57497924Y-10526445D01*
X57307118Y-10597111D01*
X57307111Y-10597115D01*
X57134033Y-10704994D01*
X57066727Y-10723750D01*
X56999967Y-10703140D01*
X56954946Y-10649709D01*
X56945346Y-10584815D01*
X56955645Y-10500000D01*
X56935140Y-10331128D01*
X56874818Y-10172070D01*
X56874817Y-10172068D01*
X56871331Y-10165426D01*
X56873991Y-10164029D01*
X56856420Y-10110798D01*
X56873866Y-10043142D01*
X56882499Y-10030516D01*
X56882834Y-10030085D01*
X56882836Y-10030084D01*
X56908633Y-9996939D01*
X56915247Y-9989129D01*
X56943703Y-9958219D01*
X56943703Y-9958218D01*
X56950031Y-9951345D01*
X56982244Y-9926275D01*
X56983826Y-9925419D01*
X56984087Y-9925135D01*
X57007516Y-9905292D01*
X57007836Y-9905084D01*
X57033636Y-9871934D01*
X57040248Y-9864127D01*
X57068703Y-9833219D01*
X57068857Y-9832865D01*
X57084575Y-9806489D01*
X57084809Y-9806189D01*
X57088438Y-9795615D01*
X57128817Y-9738600D01*
X57144334Y-9729274D01*
X57144318Y-9729249D01*
X57152920Y-9723628D01*
X57152922Y-9723628D01*
X57188099Y-9700644D01*
X57196880Y-9695412D01*
X57233826Y-9675419D01*
X57234087Y-9675135D01*
X57257516Y-9655292D01*
X57257836Y-9655084D01*
X57283636Y-9621934D01*
X57290247Y-9614129D01*
X57318703Y-9583219D01*
X57318703Y-9583218D01*
X57325031Y-9576345D01*
X57357244Y-9551275D01*
X57358826Y-9550419D01*
X57359087Y-9550135D01*
X57382516Y-9530292D01*
X57382836Y-9530084D01*
X57408636Y-9496934D01*
X57415247Y-9489129D01*
X57443703Y-9458219D01*
X57443703Y-9458218D01*
X57450031Y-9451345D01*
X57482244Y-9426275D01*
X57483826Y-9425419D01*
X57484087Y-9425135D01*
X57507516Y-9405292D01*
X57507836Y-9405084D01*
X57533636Y-9371934D01*
X57540247Y-9364129D01*
X57568703Y-9333219D01*
X57568703Y-9333218D01*
X57575031Y-9326345D01*
X57607244Y-9301275D01*
X57608826Y-9300419D01*
X57609087Y-9300135D01*
X57632516Y-9280292D01*
X57632836Y-9280084D01*
X57658636Y-9246934D01*
X57665247Y-9239129D01*
X57693703Y-9208219D01*
X57693703Y-9208218D01*
X57700031Y-9201345D01*
X57732244Y-9176275D01*
X57733826Y-9175419D01*
X57734084Y-9175138D01*
X57757511Y-9155295D01*
X57757836Y-9155084D01*
X57757838Y-9155080D01*
X57766451Y-9149456D01*
X57767860Y-9151613D01*
X57817030Y-9127348D01*
X57838357Y-9125500D01*
X59217937Y-9125500D01*
X59284976Y-9145185D01*
X59319986Y-9179059D01*
X59346815Y-9217927D01*
X59474150Y-9330736D01*
X59616197Y-9405288D01*
X59624775Y-9409790D01*
X59789944Y-9450500D01*
X59960056Y-9450500D01*
X60125225Y-9409790D01*
X60212251Y-9364115D01*
X60275849Y-9330736D01*
X60275850Y-9330734D01*
X60275852Y-9330734D01*
X60403183Y-9217929D01*
X60499818Y-9077930D01*
X60560140Y-8918872D01*
X60580645Y-8750000D01*
X60560140Y-8581128D01*
X60499818Y-8422070D01*
X60498348Y-8419940D01*
X60497752Y-8418134D01*
X60496331Y-8415426D01*
X60496781Y-8415189D01*
X60476464Y-8353586D01*
X60493929Y-8285934D01*
X60545196Y-8238464D01*
X60600393Y-8225499D01*
X61625500Y-8225499D01*
X61692539Y-8245184D01*
G37*
%TD.AperFunction*%
%TA.AperFunction,Conductor*%
G36*
X67502202Y-15750444D02*
G01*
X67559520Y-15790399D01*
X67586139Y-15854999D01*
X67573606Y-15923736D01*
X67535711Y-15968344D01*
X67377305Y-16083433D01*
X67377302Y-16083435D01*
X67247129Y-16228009D01*
X67149857Y-16396488D01*
X67149856Y-16396490D01*
X67117668Y-16495557D01*
X67078231Y-16553232D01*
X67013872Y-16580431D01*
X66945026Y-16568516D01*
X66893550Y-16521272D01*
X66881806Y-16495557D01*
X66858626Y-16424215D01*
X66365822Y-16917018D01*
X66348163Y-16847281D01*
X66279711Y-16742508D01*
X66180948Y-16665637D01*
X66084597Y-16632559D01*
X66627564Y-16089591D01*
X66627564Y-16089589D01*
X66622356Y-16083806D01*
X66622357Y-16083806D01*
X66472348Y-15974818D01*
X66429683Y-15919488D01*
X66423704Y-15849874D01*
X66456310Y-15788079D01*
X66517149Y-15753722D01*
X66545234Y-15750500D01*
X67354345Y-15750500D01*
X67364585Y-15750923D01*
X67406437Y-15754392D01*
X67432383Y-15747821D01*
X67502202Y-15750444D01*
G37*
%TD.AperFunction*%
%TA.AperFunction,Conductor*%
G36*
X85514595Y-520185D02*
G01*
X85560350Y-572989D01*
X85570294Y-642147D01*
X85541269Y-705703D01*
X85482491Y-743477D01*
X85465752Y-747157D01*
X85382232Y-759546D01*
X85356194Y-763409D01*
X85119054Y-822809D01*
X85042060Y-842096D01*
X85042057Y-842096D01*
X85042049Y-842099D01*
X84737163Y-951189D01*
X84737143Y-951197D01*
X84444386Y-1089660D01*
X84166620Y-1256148D01*
X83906496Y-1449069D01*
X83666546Y-1666546D01*
X83449069Y-1906496D01*
X83256148Y-2166620D01*
X83089660Y-2444386D01*
X82951197Y-2737143D01*
X82951189Y-2737163D01*
X82842099Y-3042049D01*
X82842096Y-3042057D01*
X82842096Y-3042060D01*
X82833312Y-3077127D01*
X82763409Y-3356194D01*
X82732232Y-3566376D01*
X82715890Y-3676543D01*
X82700000Y-4000000D01*
X82715890Y-4323456D01*
X82715890Y-4323462D01*
X82715891Y-4323464D01*
X82763409Y-4643804D01*
X82785291Y-4731161D01*
X82830814Y-4912900D01*
X82842099Y-4957949D01*
X82951189Y-5262835D01*
X82951197Y-5262855D01*
X83089660Y-5555612D01*
X83234092Y-5796580D01*
X83256150Y-5833381D01*
X83409029Y-6039515D01*
X83449069Y-6093502D01*
X83666546Y-6333452D01*
X83877888Y-6525000D01*
X83906502Y-6550934D01*
X84166618Y-6743849D01*
X84166620Y-6743850D01*
X84444386Y-6910338D01*
X84444389Y-6910339D01*
X84444390Y-6910340D01*
X84737144Y-7048802D01*
X84737158Y-7048807D01*
X84737163Y-7048809D01*
X84843078Y-7086706D01*
X85042060Y-7157903D01*
X85356201Y-7236591D01*
X85676543Y-7284109D01*
X86000000Y-7300000D01*
X86323456Y-7284109D01*
X86643798Y-7236591D01*
X86957939Y-7157903D01*
X87262855Y-7048802D01*
X87555609Y-6910340D01*
X87833381Y-6743849D01*
X88093497Y-6550934D01*
X88333452Y-6333452D01*
X88550934Y-6093497D01*
X88743849Y-5833381D01*
X88910340Y-5555609D01*
X89048802Y-5262855D01*
X89157903Y-4957939D01*
X89236591Y-4643798D01*
X89252842Y-4534239D01*
X89282150Y-4470815D01*
X89341096Y-4433303D01*
X89410965Y-4433615D01*
X89469574Y-4471651D01*
X89498315Y-4535336D01*
X89499500Y-4552435D01*
X89499500Y-50447563D01*
X89479815Y-50514602D01*
X89427011Y-50560357D01*
X89357853Y-50570301D01*
X89294297Y-50541276D01*
X89256523Y-50482498D01*
X89252842Y-50465758D01*
X89252841Y-50465751D01*
X89236591Y-50356201D01*
X89157903Y-50042060D01*
X89091726Y-49857107D01*
X89048809Y-49737163D01*
X89048807Y-49737158D01*
X89048802Y-49737144D01*
X88910340Y-49444390D01*
X88892022Y-49413829D01*
X88749068Y-49175326D01*
X88743849Y-49166618D01*
X88550934Y-48906502D01*
X88550929Y-48906496D01*
X88333452Y-48666546D01*
X88093502Y-48449069D01*
X88063474Y-48426799D01*
X87833381Y-48256150D01*
X87833378Y-48256148D01*
X87555612Y-48089660D01*
X87262855Y-47951197D01*
X87262835Y-47951189D01*
X86957949Y-47842099D01*
X86957943Y-47842097D01*
X86957939Y-47842096D01*
X86802100Y-47803060D01*
X86643804Y-47763409D01*
X86643799Y-47763408D01*
X86643798Y-47763408D01*
X86525039Y-47745792D01*
X86323464Y-47715891D01*
X86323462Y-47715890D01*
X86323456Y-47715890D01*
X86000000Y-47700000D01*
X85999999Y-47700000D01*
X85973820Y-47701286D01*
X85676543Y-47715890D01*
X85676537Y-47715890D01*
X85676534Y-47715891D01*
X85356194Y-47763409D01*
X85119054Y-47822809D01*
X85042060Y-47842096D01*
X85042057Y-47842096D01*
X85042049Y-47842099D01*
X84737163Y-47951189D01*
X84737143Y-47951197D01*
X84444386Y-48089660D01*
X84166620Y-48256148D01*
X83906496Y-48449069D01*
X83666546Y-48666546D01*
X83449069Y-48906496D01*
X83256148Y-49166620D01*
X83089660Y-49444386D01*
X82951197Y-49737143D01*
X82951189Y-49737163D01*
X82842099Y-50042049D01*
X82763409Y-50356194D01*
X82719802Y-50650172D01*
X82715890Y-50676543D01*
X82700000Y-51000000D01*
X82715890Y-51323456D01*
X82715890Y-51323462D01*
X82715891Y-51323464D01*
X82763409Y-51643804D01*
X82796188Y-51774663D01*
X82838327Y-51942893D01*
X82842099Y-51957949D01*
X82951189Y-52262835D01*
X82951197Y-52262855D01*
X83089660Y-52555612D01*
X83236141Y-52799999D01*
X83256150Y-52833381D01*
X83441163Y-53082843D01*
X83449069Y-53093502D01*
X83666546Y-53333452D01*
X83906496Y-53550929D01*
X83906502Y-53550934D01*
X84166618Y-53743849D01*
X84166620Y-53743850D01*
X84444386Y-53910338D01*
X84444389Y-53910339D01*
X84444390Y-53910340D01*
X84737144Y-54048802D01*
X84737158Y-54048807D01*
X84737163Y-54048809D01*
X84968492Y-54131580D01*
X85042060Y-54157903D01*
X85356201Y-54236591D01*
X85465758Y-54252842D01*
X85529183Y-54282150D01*
X85566695Y-54341097D01*
X85566383Y-54410966D01*
X85528347Y-54469574D01*
X85464662Y-54498315D01*
X85447563Y-54499500D01*
X4552436Y-54499500D01*
X4485397Y-54479815D01*
X4439642Y-54427011D01*
X4429698Y-54357853D01*
X4458723Y-54294297D01*
X4517501Y-54256523D01*
X4534238Y-54252842D01*
X4643798Y-54236591D01*
X4957939Y-54157903D01*
X5262855Y-54048802D01*
X5555609Y-53910340D01*
X5833381Y-53743849D01*
X6093497Y-53550934D01*
X6333452Y-53333452D01*
X6504318Y-53144930D01*
X7880000Y-53144930D01*
X7895121Y-53279138D01*
X7901056Y-53296100D01*
X8380000Y-52817156D01*
X8380000Y-53127802D01*
X8395412Y-53210250D01*
X8454457Y-53305610D01*
X8456038Y-53306804D01*
X8105736Y-53657107D01*
X8178051Y-53729422D01*
X8330698Y-53825336D01*
X8500858Y-53884877D01*
X8500861Y-53884878D01*
X8679997Y-53905062D01*
X8680003Y-53905062D01*
X8859138Y-53884878D01*
X8859141Y-53884877D01*
X9029301Y-53825336D01*
X9181948Y-53729422D01*
X9254264Y-53657107D01*
X8900540Y-53303383D01*
X8939484Y-53260666D01*
X8980000Y-53156080D01*
X8980000Y-52817157D01*
X9458942Y-53296099D01*
X9458943Y-53296099D01*
X9464874Y-53279150D01*
X9464877Y-53279140D01*
X9479999Y-53144930D01*
X9480000Y-53144930D01*
X16520000Y-53144930D01*
X16535121Y-53279138D01*
X16541056Y-53296100D01*
X17020000Y-52817156D01*
X17020000Y-53127802D01*
X17035412Y-53210250D01*
X17094457Y-53305610D01*
X17096038Y-53306804D01*
X16745736Y-53657107D01*
X16818051Y-53729422D01*
X16970698Y-53825336D01*
X17140858Y-53884877D01*
X17140861Y-53884878D01*
X17319997Y-53905062D01*
X17320003Y-53905062D01*
X17499138Y-53884878D01*
X17499141Y-53884877D01*
X17669301Y-53825336D01*
X17821948Y-53729422D01*
X17894264Y-53657107D01*
X17540540Y-53303383D01*
X17579484Y-53260666D01*
X17620000Y-53156080D01*
X17620000Y-52817157D01*
X18098942Y-53296099D01*
X18098943Y-53296099D01*
X18104874Y-53279150D01*
X18104877Y-53279140D01*
X18119999Y-53144930D01*
X18120000Y-53144930D01*
X18120000Y-52455070D01*
X18119999Y-52455069D01*
X18104878Y-52320859D01*
X18098942Y-52303898D01*
X17620000Y-52782841D01*
X17620000Y-52472198D01*
X17604588Y-52389750D01*
X17545543Y-52294390D01*
X17543961Y-52293195D01*
X17894264Y-51942893D01*
X17821948Y-51870577D01*
X17669301Y-51774663D01*
X17499141Y-51715122D01*
X17499138Y-51715121D01*
X17320003Y-51694938D01*
X17319997Y-51694938D01*
X17140861Y-51715121D01*
X17140858Y-51715122D01*
X16970698Y-51774663D01*
X16818051Y-51870577D01*
X16745736Y-51942893D01*
X17099459Y-52296616D01*
X17060516Y-52339334D01*
X17020000Y-52443920D01*
X17020000Y-52782843D01*
X16541056Y-52303899D01*
X16541055Y-52303899D01*
X16535122Y-52320856D01*
X16520000Y-52455069D01*
X16520000Y-53144930D01*
X9480000Y-53144930D01*
X9480000Y-52455070D01*
X9479999Y-52455069D01*
X9464878Y-52320859D01*
X9458942Y-52303898D01*
X8980000Y-52782841D01*
X8980000Y-52472198D01*
X8964588Y-52389750D01*
X8905543Y-52294390D01*
X8903961Y-52293195D01*
X9254264Y-51942893D01*
X9181948Y-51870577D01*
X9029301Y-51774663D01*
X8859141Y-51715122D01*
X8859138Y-51715121D01*
X8680003Y-51694938D01*
X8679997Y-51694938D01*
X8500861Y-51715121D01*
X8500858Y-51715122D01*
X8330698Y-51774663D01*
X8178051Y-51870577D01*
X8105736Y-51942893D01*
X8459459Y-52296616D01*
X8420516Y-52339334D01*
X8380000Y-52443920D01*
X8380000Y-52782843D01*
X7901056Y-52303899D01*
X7901055Y-52303899D01*
X7895122Y-52320856D01*
X7880000Y-52455069D01*
X7880000Y-53144930D01*
X6504318Y-53144930D01*
X6550934Y-53093497D01*
X6743849Y-52833381D01*
X6910340Y-52555609D01*
X7048802Y-52262855D01*
X7157903Y-51957939D01*
X7236591Y-51643798D01*
X7284109Y-51323456D01*
X7300000Y-51000000D01*
X7284109Y-50676543D01*
X7236591Y-50356201D01*
X7209989Y-50250000D01*
X12294355Y-50250000D01*
X12314859Y-50418869D01*
X12314860Y-50418874D01*
X12375182Y-50577931D01*
X12383999Y-50590704D01*
X12471817Y-50717929D01*
X12577505Y-50811560D01*
X12599150Y-50830736D01*
X12726806Y-50897735D01*
X12749775Y-50909790D01*
X12914944Y-50950500D01*
X13085056Y-50950500D01*
X13250225Y-50909790D01*
X13329692Y-50868081D01*
X13400849Y-50830736D01*
X13400850Y-50830734D01*
X13400852Y-50830734D01*
X13528183Y-50717929D01*
X13624818Y-50577930D01*
X13685140Y-50418872D01*
X13705645Y-50250000D01*
X13685140Y-50081128D01*
X13670319Y-50042049D01*
X13624817Y-49922068D01*
X13579977Y-49857107D01*
X13528183Y-49782071D01*
X13505477Y-49761955D01*
X13417273Y-49683813D01*
X13380146Y-49624624D01*
X13375500Y-49590998D01*
X13375500Y-49344930D01*
X16520000Y-49344930D01*
X16535121Y-49479138D01*
X16541056Y-49496100D01*
X17020000Y-49017156D01*
X17020000Y-49327802D01*
X17035412Y-49410250D01*
X17094457Y-49505610D01*
X17096038Y-49506804D01*
X16745736Y-49857107D01*
X16818051Y-49929422D01*
X16970698Y-50025336D01*
X17140858Y-50084877D01*
X17140861Y-50084878D01*
X17319997Y-50105062D01*
X17320003Y-50105062D01*
X17499138Y-50084878D01*
X17499141Y-50084877D01*
X17669301Y-50025336D01*
X17821948Y-49929422D01*
X17894264Y-49857107D01*
X17540540Y-49503383D01*
X17579484Y-49460666D01*
X17620000Y-49356080D01*
X17620000Y-49017157D01*
X18098942Y-49496099D01*
X18098943Y-49496099D01*
X18104874Y-49479150D01*
X18104877Y-49479140D01*
X18119999Y-49344930D01*
X18120000Y-49344930D01*
X18120000Y-48655070D01*
X18119999Y-48655069D01*
X18104878Y-48520859D01*
X18098942Y-48503898D01*
X17620000Y-48982841D01*
X17620000Y-48672198D01*
X17604588Y-48589750D01*
X17545543Y-48494390D01*
X17543961Y-48493195D01*
X17894264Y-48142893D01*
X17821948Y-48070577D01*
X17669301Y-47974663D01*
X17499141Y-47915122D01*
X17499138Y-47915121D01*
X17320003Y-47894938D01*
X17319997Y-47894938D01*
X17140861Y-47915121D01*
X17140858Y-47915122D01*
X16970698Y-47974663D01*
X16818051Y-48070577D01*
X16745736Y-48142893D01*
X17099459Y-48496616D01*
X17060516Y-48539334D01*
X17020000Y-48643920D01*
X17020000Y-48982843D01*
X16541056Y-48503899D01*
X16541055Y-48503899D01*
X16535122Y-48520856D01*
X16520000Y-48655069D01*
X16520000Y-49344930D01*
X13375500Y-49344930D01*
X13375500Y-47409001D01*
X13395185Y-47341962D01*
X13417268Y-47316190D01*
X13528183Y-47217929D01*
X13624818Y-47077930D01*
X13685140Y-46918872D01*
X13705645Y-46750000D01*
X13685140Y-46581128D01*
X13624818Y-46422070D01*
X13606260Y-46395185D01*
X13575148Y-46350111D01*
X13528183Y-46282071D01*
X13400852Y-46169266D01*
X13400849Y-46169263D01*
X13250226Y-46090210D01*
X13085056Y-46049500D01*
X12914944Y-46049500D01*
X12749773Y-46090210D01*
X12599150Y-46169263D01*
X12471816Y-46282072D01*
X12375182Y-46422068D01*
X12314860Y-46581125D01*
X12314859Y-46581130D01*
X12294355Y-46750000D01*
X12314859Y-46918869D01*
X12314860Y-46918874D01*
X12375182Y-47077931D01*
X12437475Y-47168177D01*
X12471817Y-47217929D01*
X12582728Y-47316187D01*
X12619853Y-47375374D01*
X12624500Y-47409001D01*
X12624500Y-49590998D01*
X12604815Y-49658037D01*
X12582727Y-49683813D01*
X12471818Y-49782069D01*
X12375182Y-49922068D01*
X12314860Y-50081125D01*
X12314859Y-50081130D01*
X12294355Y-50250000D01*
X7209989Y-50250000D01*
X7157903Y-50042060D01*
X7091726Y-49857107D01*
X7048809Y-49737163D01*
X7048807Y-49737158D01*
X7048802Y-49737144D01*
X6910340Y-49444390D01*
X6892022Y-49413829D01*
X6850725Y-49344930D01*
X7880000Y-49344930D01*
X7895121Y-49479138D01*
X7901056Y-49496100D01*
X8380000Y-49017156D01*
X8380000Y-49327802D01*
X8395412Y-49410250D01*
X8454457Y-49505610D01*
X8456038Y-49506804D01*
X8105736Y-49857107D01*
X8178051Y-49929422D01*
X8330698Y-50025336D01*
X8500858Y-50084877D01*
X8500861Y-50084878D01*
X8679997Y-50105062D01*
X8680003Y-50105062D01*
X8859138Y-50084878D01*
X8859141Y-50084877D01*
X9029301Y-50025336D01*
X9181948Y-49929422D01*
X9254264Y-49857107D01*
X8900540Y-49503383D01*
X8939484Y-49460666D01*
X8980000Y-49356080D01*
X8980000Y-49017157D01*
X9458942Y-49496099D01*
X9458943Y-49496099D01*
X9464874Y-49479150D01*
X9464877Y-49479140D01*
X9479999Y-49344930D01*
X9480000Y-49344930D01*
X9480000Y-48655070D01*
X9479999Y-48655069D01*
X9464878Y-48520859D01*
X9458942Y-48503898D01*
X8980000Y-48982841D01*
X8980000Y-48672198D01*
X8964588Y-48589750D01*
X8905543Y-48494390D01*
X8903961Y-48493195D01*
X9254264Y-48142893D01*
X9181948Y-48070577D01*
X9029301Y-47974663D01*
X8859141Y-47915122D01*
X8859138Y-47915121D01*
X8680003Y-47894938D01*
X8679997Y-47894938D01*
X8500861Y-47915121D01*
X8500858Y-47915122D01*
X8330698Y-47974663D01*
X8178051Y-48070577D01*
X8105736Y-48142893D01*
X8459459Y-48496616D01*
X8420516Y-48539334D01*
X8380000Y-48643920D01*
X8380000Y-48982843D01*
X7901056Y-48503899D01*
X7901055Y-48503899D01*
X7895122Y-48520856D01*
X7880000Y-48655069D01*
X7880000Y-49344930D01*
X6850725Y-49344930D01*
X6749068Y-49175326D01*
X6743849Y-49166618D01*
X6550934Y-48906502D01*
X6550929Y-48906496D01*
X6333452Y-48666546D01*
X6093502Y-48449069D01*
X6063474Y-48426799D01*
X5833381Y-48256150D01*
X5833378Y-48256148D01*
X5555612Y-48089660D01*
X5262855Y-47951197D01*
X5262835Y-47951189D01*
X4957949Y-47842099D01*
X4957943Y-47842097D01*
X4957939Y-47842096D01*
X4802100Y-47803060D01*
X4643804Y-47763409D01*
X4643799Y-47763408D01*
X4643798Y-47763408D01*
X4525039Y-47745792D01*
X4323464Y-47715891D01*
X4323462Y-47715890D01*
X4323456Y-47715890D01*
X3999999Y-47700000D01*
X3676543Y-47715890D01*
X3676537Y-47715890D01*
X3676534Y-47715891D01*
X3356194Y-47763409D01*
X3119054Y-47822809D01*
X3042060Y-47842096D01*
X3042057Y-47842096D01*
X3042049Y-47842099D01*
X2737163Y-47951189D01*
X2737143Y-47951197D01*
X2444386Y-48089660D01*
X2166620Y-48256148D01*
X1906496Y-48449069D01*
X1666546Y-48666546D01*
X1449069Y-48906496D01*
X1256148Y-49166620D01*
X1089660Y-49444386D01*
X951197Y-49737143D01*
X951189Y-49737163D01*
X842099Y-50042049D01*
X763409Y-50356194D01*
X763408Y-50356201D01*
X747321Y-50464655D01*
X747158Y-50465751D01*
X717850Y-50529176D01*
X658903Y-50566688D01*
X589034Y-50566376D01*
X530426Y-50528340D01*
X501685Y-50464655D01*
X500500Y-50447556D01*
X500500Y-40000000D01*
X23919355Y-40000000D01*
X23939859Y-40168869D01*
X23939860Y-40168874D01*
X24000182Y-40327931D01*
X24059918Y-40414472D01*
X24096817Y-40467929D01*
X24207728Y-40566187D01*
X24244853Y-40625374D01*
X24249500Y-40659001D01*
X24249500Y-45979344D01*
X24249076Y-45989585D01*
X24245607Y-46031437D01*
X24255918Y-46072157D01*
X24258020Y-46082182D01*
X24264933Y-46123608D01*
X24265122Y-46123956D01*
X24276272Y-46152528D01*
X24276371Y-46152919D01*
X24276373Y-46152925D01*
X24299342Y-46188081D01*
X24304586Y-46196882D01*
X24324579Y-46233824D01*
X24324869Y-46234091D01*
X24344697Y-46257501D01*
X24344916Y-46257836D01*
X24344919Y-46257838D01*
X24378058Y-46283632D01*
X24385879Y-46290256D01*
X24416778Y-46318701D01*
X24416779Y-46318701D01*
X24416781Y-46318703D01*
X24417144Y-46318862D01*
X24443499Y-46334566D01*
X24443811Y-46334809D01*
X24483544Y-46348448D01*
X24493068Y-46352164D01*
X24531546Y-46369043D01*
X24531941Y-46369075D01*
X24561963Y-46375371D01*
X24562339Y-46375500D01*
X24562340Y-46375500D01*
X24604345Y-46375500D01*
X24614586Y-46375924D01*
X24656434Y-46379392D01*
X24656434Y-46379391D01*
X24656437Y-46379392D01*
X24656825Y-46379293D01*
X24687263Y-46375500D01*
X29342937Y-46375500D01*
X29409976Y-46395185D01*
X29444986Y-46429059D01*
X29471815Y-46467927D01*
X29599150Y-46580736D01*
X29749773Y-46659789D01*
X29749775Y-46659790D01*
X29914944Y-46700500D01*
X30085056Y-46700500D01*
X30250225Y-46659790D01*
X30329692Y-46618081D01*
X30400849Y-46580736D01*
X30400850Y-46580734D01*
X30400852Y-46580734D01*
X30528183Y-46467929D01*
X30624818Y-46327930D01*
X30685140Y-46168872D01*
X30705645Y-46000000D01*
X30685140Y-45831128D01*
X30624818Y-45672070D01*
X30620084Y-45665212D01*
X30590476Y-45622318D01*
X30528183Y-45532071D01*
X30406485Y-45424256D01*
X30400849Y-45419263D01*
X30250226Y-45340210D01*
X30085056Y-45299500D01*
X29914944Y-45299500D01*
X29749773Y-45340210D01*
X29599150Y-45419263D01*
X29471815Y-45532072D01*
X29444986Y-45570941D01*
X29390703Y-45614931D01*
X29342937Y-45624500D01*
X25124500Y-45624500D01*
X25057461Y-45604815D01*
X25011706Y-45552011D01*
X25000500Y-45500500D01*
X25000500Y-45000000D01*
X42000000Y-45000000D01*
X42000000Y-54000000D01*
X54000000Y-54000000D01*
X54000000Y-50824678D01*
X61949500Y-50824678D01*
X61964032Y-50897735D01*
X61964033Y-50897739D01*
X61964034Y-50897740D01*
X62019399Y-50980601D01*
X62100527Y-51034808D01*
X62102260Y-51035966D01*
X62102264Y-51035967D01*
X62175321Y-51050499D01*
X62175324Y-51050500D01*
X62175326Y-51050500D01*
X63824676Y-51050500D01*
X63824677Y-51050499D01*
X63897740Y-51035966D01*
X63980601Y-50980601D01*
X64035966Y-50897740D01*
X64050500Y-50824674D01*
X64050500Y-50717211D01*
X64070185Y-50650172D01*
X64090547Y-50632527D01*
X64087588Y-50629568D01*
X64611714Y-50105442D01*
X64614835Y-50125148D01*
X64672359Y-50238045D01*
X64761955Y-50327641D01*
X64874852Y-50385165D01*
X64894556Y-50388285D01*
X64409295Y-50873546D01*
X64413829Y-50877269D01*
X64596233Y-50974766D01*
X64794165Y-51034808D01*
X65000000Y-51055080D01*
X65205834Y-51034808D01*
X65403766Y-50974766D01*
X65586167Y-50877270D01*
X65586177Y-50877263D01*
X65590704Y-50873546D01*
X65105443Y-50388285D01*
X65125148Y-50385165D01*
X65238045Y-50327641D01*
X65327641Y-50238045D01*
X65385165Y-50125148D01*
X65388285Y-50105443D01*
X65873546Y-50590704D01*
X65877263Y-50586177D01*
X65877270Y-50586167D01*
X65974766Y-50403766D01*
X66034808Y-50205834D01*
X66055080Y-50000000D01*
X66034808Y-49794165D01*
X65974766Y-49596233D01*
X65877269Y-49413829D01*
X65873546Y-49409295D01*
X65388285Y-49894556D01*
X65385165Y-49874852D01*
X65327641Y-49761955D01*
X65238045Y-49672359D01*
X65125148Y-49614835D01*
X65105443Y-49611714D01*
X65590703Y-49126452D01*
X65590703Y-49126451D01*
X65586172Y-49122732D01*
X65586171Y-49122731D01*
X65403766Y-49025233D01*
X65205834Y-48965191D01*
X65000000Y-48944919D01*
X64794165Y-48965191D01*
X64596233Y-49025233D01*
X64413830Y-49122730D01*
X64409295Y-49126452D01*
X64894557Y-49611714D01*
X64874852Y-49614835D01*
X64761955Y-49672359D01*
X64672359Y-49761955D01*
X64614835Y-49874852D01*
X64611714Y-49894557D01*
X64087585Y-49370428D01*
X64090704Y-49367308D01*
X64064322Y-49339677D01*
X64050500Y-49282784D01*
X64050500Y-49175323D01*
X64050499Y-49175321D01*
X64035967Y-49102264D01*
X64035966Y-49102260D01*
X63980601Y-49019399D01*
X63897740Y-48964034D01*
X63897739Y-48964033D01*
X63897735Y-48964032D01*
X63824677Y-48949500D01*
X63824674Y-48949500D01*
X62175326Y-48949500D01*
X62175323Y-48949500D01*
X62102264Y-48964032D01*
X62102260Y-48964033D01*
X62019399Y-49019399D01*
X61964033Y-49102260D01*
X61964032Y-49102264D01*
X61949500Y-49175321D01*
X61949500Y-50824678D01*
X54000000Y-50824678D01*
X54000000Y-45000000D01*
X42000000Y-45000000D01*
X25000500Y-45000000D01*
X25000500Y-43560000D01*
X37894785Y-43560000D01*
X37913602Y-43763082D01*
X37969417Y-43959247D01*
X37969422Y-43959260D01*
X38060327Y-44141821D01*
X38183237Y-44304581D01*
X38333958Y-44441980D01*
X38333960Y-44441982D01*
X38433141Y-44503392D01*
X38507363Y-44549348D01*
X38697544Y-44623024D01*
X38898024Y-44660500D01*
X38898026Y-44660500D01*
X39101974Y-44660500D01*
X39101976Y-44660500D01*
X39302456Y-44623024D01*
X39492637Y-44549348D01*
X39666041Y-44441981D01*
X39816764Y-44304579D01*
X39939673Y-44141821D01*
X40030582Y-43959250D01*
X40086397Y-43763083D01*
X40105215Y-43560000D01*
X53134785Y-43560000D01*
X53153602Y-43763082D01*
X53209417Y-43959247D01*
X53209422Y-43959260D01*
X53300327Y-44141821D01*
X53423237Y-44304581D01*
X53573958Y-44441980D01*
X53573960Y-44441982D01*
X53673141Y-44503392D01*
X53747363Y-44549348D01*
X53937544Y-44623024D01*
X54138024Y-44660500D01*
X54138026Y-44660500D01*
X54341974Y-44660500D01*
X54341976Y-44660500D01*
X54542456Y-44623024D01*
X54732637Y-44549348D01*
X54906041Y-44441981D01*
X55056764Y-44304579D01*
X55179673Y-44141821D01*
X55270582Y-43959250D01*
X55326397Y-43763083D01*
X55345215Y-43560000D01*
X55326397Y-43356917D01*
X55270582Y-43160750D01*
X55269045Y-43157664D01*
X55204187Y-43027411D01*
X55179673Y-42978179D01*
X55086477Y-42854767D01*
X55056762Y-42815418D01*
X54906041Y-42678019D01*
X54906039Y-42678017D01*
X54732642Y-42570655D01*
X54732635Y-42570651D01*
X54609952Y-42523124D01*
X54542456Y-42496976D01*
X54341976Y-42459500D01*
X54138024Y-42459500D01*
X53937544Y-42496976D01*
X53937541Y-42496976D01*
X53937541Y-42496977D01*
X53747364Y-42570651D01*
X53747357Y-42570655D01*
X53573960Y-42678017D01*
X53573958Y-42678019D01*
X53423237Y-42815418D01*
X53300327Y-42978178D01*
X53209422Y-43160739D01*
X53209417Y-43160752D01*
X53153602Y-43356917D01*
X53134785Y-43559999D01*
X53134785Y-43560000D01*
X40105215Y-43560000D01*
X40086397Y-43356917D01*
X40030582Y-43160750D01*
X40029045Y-43157664D01*
X39964187Y-43027411D01*
X39939673Y-42978179D01*
X39846477Y-42854767D01*
X39816762Y-42815418D01*
X39666041Y-42678019D01*
X39666039Y-42678017D01*
X39492642Y-42570655D01*
X39492635Y-42570651D01*
X39369952Y-42523124D01*
X39302456Y-42496976D01*
X39101976Y-42459500D01*
X38898024Y-42459500D01*
X38697544Y-42496976D01*
X38697541Y-42496976D01*
X38697541Y-42496977D01*
X38507364Y-42570651D01*
X38507357Y-42570655D01*
X38333960Y-42678017D01*
X38333958Y-42678019D01*
X38183237Y-42815418D01*
X38060327Y-42978178D01*
X37969422Y-43160739D01*
X37969417Y-43160752D01*
X37913602Y-43356917D01*
X37894785Y-43559999D01*
X37894785Y-43560000D01*
X25000500Y-43560000D01*
X25000500Y-41020000D01*
X37895287Y-41020000D01*
X37914096Y-41222989D01*
X37914097Y-41222992D01*
X37969883Y-41419063D01*
X37969886Y-41419069D01*
X38060750Y-41601549D01*
X38060755Y-41601556D01*
X38092957Y-41644200D01*
X38532972Y-41204184D01*
X38540507Y-41229844D01*
X38618239Y-41350798D01*
X38726900Y-41444952D01*
X38816822Y-41486018D01*
X38375641Y-41927199D01*
X38375641Y-41927200D01*
X38507583Y-42008897D01*
X38507587Y-42008899D01*
X38697677Y-42082539D01*
X38898072Y-42120000D01*
X39101928Y-42120000D01*
X39302322Y-42082539D01*
X39492410Y-42008899D01*
X39624357Y-41927200D01*
X39624357Y-41927199D01*
X39183177Y-41486018D01*
X39273100Y-41444952D01*
X39381761Y-41350798D01*
X39459493Y-41229844D01*
X39467027Y-41204185D01*
X39907041Y-41644199D01*
X39939244Y-41601558D01*
X39939249Y-41601550D01*
X40030113Y-41419069D01*
X40030116Y-41419063D01*
X40085902Y-41222992D01*
X40085903Y-41222989D01*
X40104713Y-41020000D01*
X53134785Y-41020000D01*
X53153602Y-41223082D01*
X53209417Y-41419247D01*
X53209422Y-41419260D01*
X53300327Y-41601821D01*
X53423237Y-41764581D01*
X53573958Y-41901980D01*
X53573960Y-41901982D01*
X53614689Y-41927200D01*
X53747363Y-42009348D01*
X53937544Y-42083024D01*
X54138024Y-42120500D01*
X54138026Y-42120500D01*
X54341974Y-42120500D01*
X54341976Y-42120500D01*
X54542456Y-42083024D01*
X54732637Y-42009348D01*
X54906041Y-41901981D01*
X55056764Y-41764579D01*
X55179673Y-41601821D01*
X55270582Y-41419250D01*
X55326397Y-41223083D01*
X55345215Y-41020000D01*
X55326397Y-40816917D01*
X55270582Y-40620750D01*
X55256247Y-40591962D01*
X55197352Y-40473684D01*
X55179673Y-40438179D01*
X55056764Y-40275421D01*
X55056762Y-40275418D01*
X54906041Y-40138019D01*
X54906039Y-40138017D01*
X54732642Y-40030655D01*
X54732635Y-40030651D01*
X54543705Y-39957460D01*
X54542456Y-39956976D01*
X54341976Y-39919500D01*
X54138024Y-39919500D01*
X53937544Y-39956976D01*
X53937541Y-39956976D01*
X53937541Y-39956977D01*
X53747364Y-40030651D01*
X53747357Y-40030655D01*
X53573960Y-40138017D01*
X53573958Y-40138019D01*
X53423237Y-40275418D01*
X53300327Y-40438178D01*
X53209422Y-40620739D01*
X53209417Y-40620752D01*
X53153602Y-40816917D01*
X53134785Y-41019999D01*
X53134785Y-41020000D01*
X40104713Y-41020000D01*
X40104713Y-41019999D01*
X40085903Y-40817010D01*
X40085902Y-40817007D01*
X40030116Y-40620936D01*
X40030113Y-40620930D01*
X39939245Y-40438443D01*
X39907041Y-40395798D01*
X39467026Y-40835813D01*
X39459493Y-40810156D01*
X39381761Y-40689202D01*
X39273100Y-40595048D01*
X39183176Y-40553981D01*
X39624358Y-40112799D01*
X39624357Y-40112798D01*
X39492413Y-40031101D01*
X39492412Y-40031100D01*
X39302322Y-39957460D01*
X39101928Y-39920000D01*
X38898072Y-39920000D01*
X38697678Y-39957460D01*
X38507584Y-40031102D01*
X38375640Y-40112799D01*
X38816823Y-40553981D01*
X38726900Y-40595048D01*
X38618239Y-40689202D01*
X38540507Y-40810156D01*
X38532972Y-40835814D01*
X38092956Y-40395798D01*
X38060756Y-40438439D01*
X37969886Y-40620930D01*
X37969883Y-40620936D01*
X37914097Y-40817007D01*
X37914096Y-40817010D01*
X37895287Y-41019999D01*
X37895287Y-41020000D01*
X25000500Y-41020000D01*
X25000500Y-40659001D01*
X25020185Y-40591962D01*
X25042268Y-40566190D01*
X25153183Y-40467929D01*
X25249818Y-40327930D01*
X25310140Y-40168872D01*
X25315467Y-40125000D01*
X26669355Y-40125000D01*
X26689859Y-40293869D01*
X26689860Y-40293874D01*
X26750182Y-40452931D01*
X26794674Y-40517387D01*
X26846817Y-40592929D01*
X26952505Y-40686560D01*
X26974150Y-40705736D01*
X27108284Y-40776135D01*
X27124775Y-40784790D01*
X27289944Y-40825500D01*
X27460056Y-40825500D01*
X27625225Y-40784790D01*
X27715981Y-40737157D01*
X27775849Y-40705736D01*
X27775850Y-40705734D01*
X27775852Y-40705734D01*
X27903183Y-40592929D01*
X27999818Y-40452930D01*
X28060140Y-40293872D01*
X28080645Y-40125000D01*
X28060140Y-39956128D01*
X27999818Y-39797070D01*
X27903183Y-39657071D01*
X27903181Y-39657069D01*
X27792273Y-39558813D01*
X27755146Y-39499624D01*
X27750500Y-39465998D01*
X27750500Y-38499500D01*
X27770185Y-38432461D01*
X27822989Y-38386706D01*
X27874500Y-38375500D01*
X30342937Y-38375500D01*
X30409976Y-38395185D01*
X30444986Y-38429059D01*
X30471815Y-38467927D01*
X30471816Y-38467928D01*
X30471817Y-38467929D01*
X30535482Y-38524331D01*
X30599150Y-38580736D01*
X30749773Y-38659789D01*
X30749775Y-38659790D01*
X30914944Y-38700500D01*
X31085056Y-38700500D01*
X31250225Y-38659790D01*
X31329692Y-38618081D01*
X31400849Y-38580736D01*
X31400850Y-38580734D01*
X31400852Y-38580734D01*
X31514558Y-38480000D01*
X37894785Y-38480000D01*
X37913602Y-38683082D01*
X37969417Y-38879247D01*
X37969422Y-38879260D01*
X38060327Y-39061821D01*
X38183237Y-39224581D01*
X38333958Y-39361980D01*
X38333960Y-39361982D01*
X38426473Y-39419263D01*
X38507363Y-39469348D01*
X38697544Y-39543024D01*
X38898024Y-39580500D01*
X38898026Y-39580500D01*
X39101974Y-39580500D01*
X39101976Y-39580500D01*
X39302456Y-39543024D01*
X39492637Y-39469348D01*
X39666041Y-39361981D01*
X39816764Y-39224579D01*
X39939673Y-39061821D01*
X40030582Y-38879250D01*
X40086397Y-38683083D01*
X40105215Y-38480000D01*
X53134785Y-38480000D01*
X53153602Y-38683082D01*
X53209417Y-38879247D01*
X53209422Y-38879260D01*
X53300327Y-39061821D01*
X53423237Y-39224581D01*
X53573958Y-39361980D01*
X53573960Y-39361982D01*
X53666473Y-39419263D01*
X53747363Y-39469348D01*
X53937544Y-39543024D01*
X54138024Y-39580500D01*
X54138026Y-39580500D01*
X54341974Y-39580500D01*
X54341976Y-39580500D01*
X54542456Y-39543024D01*
X54732637Y-39469348D01*
X54906041Y-39361981D01*
X55056764Y-39224579D01*
X55179673Y-39061821D01*
X55270582Y-38879250D01*
X55326397Y-38683083D01*
X55345215Y-38480000D01*
X55344096Y-38467929D01*
X55326397Y-38276917D01*
X55270582Y-38080750D01*
X55179673Y-37898179D01*
X55056764Y-37735421D01*
X55056762Y-37735418D01*
X54906041Y-37598019D01*
X54906039Y-37598017D01*
X54732642Y-37490655D01*
X54732635Y-37490651D01*
X54548359Y-37419263D01*
X54542456Y-37416976D01*
X54341976Y-37379500D01*
X54138024Y-37379500D01*
X53937544Y-37416976D01*
X53937541Y-37416976D01*
X53937541Y-37416977D01*
X53747364Y-37490651D01*
X53747357Y-37490655D01*
X53573960Y-37598017D01*
X53573958Y-37598019D01*
X53423237Y-37735418D01*
X53300327Y-37898178D01*
X53209422Y-38080739D01*
X53209417Y-38080752D01*
X53153602Y-38276917D01*
X53134785Y-38479999D01*
X53134785Y-38480000D01*
X40105215Y-38480000D01*
X40104096Y-38467929D01*
X40086397Y-38276917D01*
X40030582Y-38080750D01*
X39939673Y-37898179D01*
X39816764Y-37735421D01*
X39816762Y-37735418D01*
X39666041Y-37598019D01*
X39666039Y-37598017D01*
X39492642Y-37490655D01*
X39492635Y-37490651D01*
X39308359Y-37419263D01*
X39302456Y-37416976D01*
X39101976Y-37379500D01*
X38898024Y-37379500D01*
X38697544Y-37416976D01*
X38697541Y-37416976D01*
X38697541Y-37416977D01*
X38507364Y-37490651D01*
X38507357Y-37490655D01*
X38333960Y-37598017D01*
X38333958Y-37598019D01*
X38183237Y-37735418D01*
X38060327Y-37898178D01*
X37969422Y-38080739D01*
X37969417Y-38080752D01*
X37913602Y-38276917D01*
X37894785Y-38479999D01*
X37894785Y-38480000D01*
X31514558Y-38480000D01*
X31528183Y-38467929D01*
X31624818Y-38327930D01*
X31685140Y-38168872D01*
X31705645Y-38000000D01*
X31685140Y-37831128D01*
X31680468Y-37818810D01*
X31658496Y-37760872D01*
X31624818Y-37672070D01*
X31610459Y-37651268D01*
X31589295Y-37620607D01*
X31528183Y-37532071D01*
X31400852Y-37419266D01*
X31400849Y-37419263D01*
X31250226Y-37340210D01*
X31085056Y-37299500D01*
X30914944Y-37299500D01*
X30749773Y-37340210D01*
X30599150Y-37419263D01*
X30471815Y-37532072D01*
X30444986Y-37570941D01*
X30390703Y-37614931D01*
X30342937Y-37624500D01*
X27395655Y-37624500D01*
X27385414Y-37624076D01*
X27343562Y-37620607D01*
X27302845Y-37630918D01*
X27292819Y-37633020D01*
X27251392Y-37639933D01*
X27251387Y-37639935D01*
X27251024Y-37640132D01*
X27222482Y-37651268D01*
X27222087Y-37651367D01*
X27222077Y-37651372D01*
X27186908Y-37674348D01*
X27178112Y-37679589D01*
X27141178Y-37699578D01*
X27141165Y-37699588D01*
X27140895Y-37699882D01*
X27117509Y-37719690D01*
X27117167Y-37719912D01*
X27117163Y-37719917D01*
X27091367Y-37753058D01*
X27084749Y-37760872D01*
X27056296Y-37791781D01*
X27056292Y-37791787D01*
X27056129Y-37792161D01*
X27040443Y-37818486D01*
X27040193Y-37818806D01*
X27040191Y-37818810D01*
X27026554Y-37858534D01*
X27022829Y-37868079D01*
X27005957Y-37906543D01*
X27005955Y-37906549D01*
X27005922Y-37906956D01*
X26999634Y-37936946D01*
X26999500Y-37937335D01*
X26999500Y-37979344D01*
X26999076Y-37989585D01*
X26995607Y-38031434D01*
X26995608Y-38031437D01*
X26995706Y-38031825D01*
X26999500Y-38062263D01*
X26999500Y-39465998D01*
X26979815Y-39533037D01*
X26957727Y-39558813D01*
X26846818Y-39657069D01*
X26750182Y-39797068D01*
X26689860Y-39956125D01*
X26689859Y-39956130D01*
X26669355Y-40125000D01*
X25315467Y-40125000D01*
X25330645Y-40000000D01*
X25310140Y-39831128D01*
X25249818Y-39672070D01*
X25239463Y-39657069D01*
X25186611Y-39580500D01*
X25153183Y-39532071D01*
X25025852Y-39419266D01*
X25025849Y-39419263D01*
X24875226Y-39340210D01*
X24710056Y-39299500D01*
X24539944Y-39299500D01*
X24374773Y-39340210D01*
X24224150Y-39419263D01*
X24096816Y-39532072D01*
X24000182Y-39672068D01*
X23939860Y-39831125D01*
X23939859Y-39831130D01*
X23919355Y-40000000D01*
X500500Y-40000000D01*
X500500Y-35940000D01*
X37894785Y-35940000D01*
X37913602Y-36143082D01*
X37969417Y-36339247D01*
X37969422Y-36339260D01*
X38060327Y-36521821D01*
X38183237Y-36684581D01*
X38333958Y-36821980D01*
X38333960Y-36821982D01*
X38374689Y-36847200D01*
X38507363Y-36929348D01*
X38697544Y-37003024D01*
X38898024Y-37040500D01*
X38898026Y-37040500D01*
X39101974Y-37040500D01*
X39101976Y-37040500D01*
X39302456Y-37003024D01*
X39492637Y-36929348D01*
X39666041Y-36821981D01*
X39816764Y-36684579D01*
X39939673Y-36521821D01*
X40030582Y-36339250D01*
X40086397Y-36143083D01*
X40105215Y-35940000D01*
X53135287Y-35940000D01*
X53154096Y-36142989D01*
X53154097Y-36142992D01*
X53209883Y-36339063D01*
X53209886Y-36339069D01*
X53300750Y-36521549D01*
X53300755Y-36521556D01*
X53332957Y-36564200D01*
X53772972Y-36124184D01*
X53780507Y-36149844D01*
X53858239Y-36270798D01*
X53966900Y-36364952D01*
X54056822Y-36406018D01*
X53615641Y-36847199D01*
X53615641Y-36847200D01*
X53747583Y-36928897D01*
X53747587Y-36928899D01*
X53937677Y-37002539D01*
X54138072Y-37040000D01*
X54341928Y-37040000D01*
X54542322Y-37002539D01*
X54732410Y-36928899D01*
X54864357Y-36847200D01*
X54864357Y-36847199D01*
X54423177Y-36406018D01*
X54513100Y-36364952D01*
X54621761Y-36270798D01*
X54699493Y-36149844D01*
X54707027Y-36124185D01*
X55147041Y-36564199D01*
X55179244Y-36521558D01*
X55179249Y-36521550D01*
X55270113Y-36339069D01*
X55270116Y-36339063D01*
X55325902Y-36142992D01*
X55325903Y-36142989D01*
X55344713Y-35940000D01*
X55344713Y-35939999D01*
X55325903Y-35737010D01*
X55325902Y-35737007D01*
X55270116Y-35540936D01*
X55270113Y-35540930D01*
X55179245Y-35358443D01*
X55147041Y-35315798D01*
X54707026Y-35755813D01*
X54699493Y-35730156D01*
X54621761Y-35609202D01*
X54513100Y-35515048D01*
X54423176Y-35473981D01*
X54864358Y-35032799D01*
X54864357Y-35032798D01*
X54732413Y-34951101D01*
X54732412Y-34951100D01*
X54542322Y-34877460D01*
X54341928Y-34840000D01*
X54138072Y-34840000D01*
X53937678Y-34877460D01*
X53747584Y-34951102D01*
X53615640Y-35032799D01*
X54056823Y-35473981D01*
X53966900Y-35515048D01*
X53858239Y-35609202D01*
X53780507Y-35730156D01*
X53772972Y-35755814D01*
X53332956Y-35315798D01*
X53300756Y-35358439D01*
X53209886Y-35540930D01*
X53209883Y-35540936D01*
X53154097Y-35737007D01*
X53154096Y-35737010D01*
X53135287Y-35939999D01*
X53135287Y-35940000D01*
X40105215Y-35940000D01*
X40086397Y-35736917D01*
X40030582Y-35540750D01*
X39939673Y-35358179D01*
X39816764Y-35195421D01*
X39816762Y-35195418D01*
X39666041Y-35058019D01*
X39666039Y-35058017D01*
X39492642Y-34950655D01*
X39492635Y-34950651D01*
X39303705Y-34877460D01*
X39302456Y-34876976D01*
X39101976Y-34839500D01*
X38898024Y-34839500D01*
X38697544Y-34876976D01*
X38697541Y-34876976D01*
X38697541Y-34876977D01*
X38507364Y-34950651D01*
X38507357Y-34950655D01*
X38333960Y-35058017D01*
X38333958Y-35058019D01*
X38183237Y-35195418D01*
X38060327Y-35358178D01*
X37969422Y-35540739D01*
X37969417Y-35540752D01*
X37913602Y-35736917D01*
X37894785Y-35939999D01*
X37894785Y-35940000D01*
X500500Y-35940000D01*
X500500Y-33400000D01*
X37894785Y-33400000D01*
X37913602Y-33603082D01*
X37969417Y-33799247D01*
X37969422Y-33799260D01*
X38060327Y-33981821D01*
X38183237Y-34144581D01*
X38333958Y-34281980D01*
X38333960Y-34281982D01*
X38408169Y-34327930D01*
X38507363Y-34389348D01*
X38697544Y-34463024D01*
X38898024Y-34500500D01*
X38898026Y-34500500D01*
X39101974Y-34500500D01*
X39101976Y-34500500D01*
X39302456Y-34463024D01*
X39492637Y-34389348D01*
X39666041Y-34281981D01*
X39816764Y-34144579D01*
X39939673Y-33981821D01*
X40030582Y-33799250D01*
X40086397Y-33603083D01*
X40105215Y-33400000D01*
X53134785Y-33400000D01*
X53153602Y-33603082D01*
X53209417Y-33799247D01*
X53209422Y-33799260D01*
X53300327Y-33981821D01*
X53423237Y-34144581D01*
X53573958Y-34281980D01*
X53573960Y-34281982D01*
X53648169Y-34327930D01*
X53747363Y-34389348D01*
X53937544Y-34463024D01*
X54138024Y-34500500D01*
X54138026Y-34500500D01*
X54341974Y-34500500D01*
X54341976Y-34500500D01*
X54542456Y-34463024D01*
X54732637Y-34389348D01*
X54906041Y-34281981D01*
X55056764Y-34144579D01*
X55179673Y-33981821D01*
X55270582Y-33799250D01*
X55326397Y-33603083D01*
X55345215Y-33400000D01*
X55326397Y-33196917D01*
X55270582Y-33000750D01*
X55179673Y-32818179D01*
X55056764Y-32655421D01*
X55056762Y-32655418D01*
X54906041Y-32518019D01*
X54906039Y-32518017D01*
X54732642Y-32410655D01*
X54732635Y-32410651D01*
X54637546Y-32373814D01*
X54542456Y-32336976D01*
X54341976Y-32299500D01*
X54138024Y-32299500D01*
X53937544Y-32336976D01*
X53937541Y-32336976D01*
X53937541Y-32336977D01*
X53747364Y-32410651D01*
X53747357Y-32410655D01*
X53573960Y-32518017D01*
X53573958Y-32518019D01*
X53423237Y-32655418D01*
X53300327Y-32818178D01*
X53209422Y-33000739D01*
X53209417Y-33000752D01*
X53153602Y-33196917D01*
X53134785Y-33399999D01*
X53134785Y-33400000D01*
X40105215Y-33400000D01*
X40086397Y-33196917D01*
X40030582Y-33000750D01*
X39939673Y-32818179D01*
X39816764Y-32655421D01*
X39816762Y-32655418D01*
X39666041Y-32518019D01*
X39666039Y-32518017D01*
X39492642Y-32410655D01*
X39492635Y-32410651D01*
X39397546Y-32373814D01*
X39302456Y-32336976D01*
X39101976Y-32299500D01*
X38898024Y-32299500D01*
X38697544Y-32336976D01*
X38697541Y-32336976D01*
X38697541Y-32336977D01*
X38507364Y-32410651D01*
X38507357Y-32410655D01*
X38333960Y-32518017D01*
X38333958Y-32518019D01*
X38183237Y-32655418D01*
X38060327Y-32818178D01*
X37969422Y-33000739D01*
X37969417Y-33000752D01*
X37913602Y-33196917D01*
X37894785Y-33399999D01*
X37894785Y-33400000D01*
X500500Y-33400000D01*
X500500Y-30860000D01*
X37894785Y-30860000D01*
X37913602Y-31063082D01*
X37969417Y-31259247D01*
X37969422Y-31259260D01*
X38060327Y-31441821D01*
X38183237Y-31604581D01*
X38333958Y-31741980D01*
X38333960Y-31741982D01*
X38433141Y-31803392D01*
X38507363Y-31849348D01*
X38697544Y-31923024D01*
X38898024Y-31960500D01*
X38898026Y-31960500D01*
X39101974Y-31960500D01*
X39101976Y-31960500D01*
X39302456Y-31923024D01*
X39492637Y-31849348D01*
X39666041Y-31741981D01*
X39816764Y-31604579D01*
X39939673Y-31441821D01*
X40030582Y-31259250D01*
X40086397Y-31063083D01*
X40105215Y-30860000D01*
X53134785Y-30860000D01*
X53153602Y-31063082D01*
X53209417Y-31259247D01*
X53209422Y-31259260D01*
X53300327Y-31441821D01*
X53423237Y-31604581D01*
X53573958Y-31741980D01*
X53573960Y-31741982D01*
X53673141Y-31803392D01*
X53747363Y-31849348D01*
X53937544Y-31923024D01*
X54138024Y-31960500D01*
X54138026Y-31960500D01*
X54341974Y-31960500D01*
X54341976Y-31960500D01*
X54542456Y-31923024D01*
X54732637Y-31849348D01*
X54906041Y-31741981D01*
X55056764Y-31604579D01*
X55179673Y-31441821D01*
X55270582Y-31259250D01*
X55326397Y-31063083D01*
X55345215Y-30860000D01*
X55326397Y-30656917D01*
X55270582Y-30460750D01*
X55268085Y-30455736D01*
X55204446Y-30327930D01*
X55179673Y-30278179D01*
X55056764Y-30115421D01*
X55056762Y-30115418D01*
X54906041Y-29978019D01*
X54906039Y-29978017D01*
X54732642Y-29870655D01*
X54732635Y-29870651D01*
X54630605Y-29831125D01*
X54542456Y-29796976D01*
X54341976Y-29759500D01*
X54138024Y-29759500D01*
X53937544Y-29796976D01*
X53937541Y-29796976D01*
X53937541Y-29796977D01*
X53747364Y-29870651D01*
X53747357Y-29870655D01*
X53573960Y-29978017D01*
X53573958Y-29978019D01*
X53423237Y-30115418D01*
X53300327Y-30278178D01*
X53209422Y-30460739D01*
X53209417Y-30460752D01*
X53153602Y-30656917D01*
X53134785Y-30859999D01*
X53134785Y-30860000D01*
X40105215Y-30860000D01*
X40086397Y-30656917D01*
X40030582Y-30460750D01*
X40028085Y-30455736D01*
X39964446Y-30327930D01*
X39939673Y-30278179D01*
X39816764Y-30115421D01*
X39816762Y-30115418D01*
X39666041Y-29978019D01*
X39666039Y-29978017D01*
X39492642Y-29870655D01*
X39492635Y-29870651D01*
X39390605Y-29831125D01*
X39302456Y-29796976D01*
X39101976Y-29759500D01*
X38898024Y-29759500D01*
X38697544Y-29796976D01*
X38697541Y-29796976D01*
X38697541Y-29796977D01*
X38507364Y-29870651D01*
X38507357Y-29870655D01*
X38333960Y-29978017D01*
X38333958Y-29978019D01*
X38183237Y-30115418D01*
X38060327Y-30278178D01*
X37969422Y-30460739D01*
X37969417Y-30460752D01*
X37913602Y-30656917D01*
X37894785Y-30859999D01*
X37894785Y-30860000D01*
X500500Y-30860000D01*
X500500Y-30000000D01*
X30544355Y-30000000D01*
X30564859Y-30168869D01*
X30564860Y-30168874D01*
X30625182Y-30327931D01*
X30658017Y-30375500D01*
X30721817Y-30467929D01*
X30797287Y-30534789D01*
X30849150Y-30580736D01*
X30994301Y-30656917D01*
X30999775Y-30659790D01*
X31164944Y-30700500D01*
X31335056Y-30700500D01*
X31500225Y-30659790D01*
X31596842Y-30609081D01*
X31650849Y-30580736D01*
X31650850Y-30580734D01*
X31650852Y-30580734D01*
X31778183Y-30467929D01*
X31788477Y-30453014D01*
X31805014Y-30429059D01*
X31859297Y-30385069D01*
X31907063Y-30375500D01*
X34342937Y-30375500D01*
X34409976Y-30395185D01*
X34444986Y-30429059D01*
X34471815Y-30467927D01*
X34599150Y-30580736D01*
X34744301Y-30656917D01*
X34749775Y-30659790D01*
X34914944Y-30700500D01*
X35085056Y-30700500D01*
X35250225Y-30659790D01*
X35346842Y-30609081D01*
X35400849Y-30580736D01*
X35400850Y-30580734D01*
X35400852Y-30580734D01*
X35528183Y-30467929D01*
X35624818Y-30327930D01*
X35685140Y-30168872D01*
X35705645Y-30000000D01*
X35685140Y-29831128D01*
X35624818Y-29672070D01*
X35528183Y-29532071D01*
X35400852Y-29419266D01*
X35400849Y-29419263D01*
X35250226Y-29340210D01*
X35085056Y-29299500D01*
X34914944Y-29299500D01*
X34749773Y-29340210D01*
X34599150Y-29419263D01*
X34471815Y-29532072D01*
X34444986Y-29570941D01*
X34390703Y-29614931D01*
X34342937Y-29624500D01*
X31907063Y-29624500D01*
X31840024Y-29604815D01*
X31805014Y-29570941D01*
X31778184Y-29532072D01*
X31650849Y-29419263D01*
X31500226Y-29340210D01*
X31335056Y-29299500D01*
X31164944Y-29299500D01*
X30999773Y-29340210D01*
X30849150Y-29419263D01*
X30721816Y-29532072D01*
X30625182Y-29672068D01*
X30564860Y-29831125D01*
X30564859Y-29831130D01*
X30544355Y-30000000D01*
X500500Y-30000000D01*
X500500Y-28320000D01*
X37894785Y-28320000D01*
X37913602Y-28523082D01*
X37969417Y-28719247D01*
X37969422Y-28719260D01*
X38060327Y-28901821D01*
X38183237Y-29064581D01*
X38322638Y-29191660D01*
X38332334Y-29200500D01*
X38333958Y-29201980D01*
X38333960Y-29201982D01*
X38356597Y-29215998D01*
X38507363Y-29309348D01*
X38697544Y-29383024D01*
X38898024Y-29420500D01*
X38898026Y-29420500D01*
X39101974Y-29420500D01*
X39101976Y-29420500D01*
X39302456Y-29383024D01*
X39492637Y-29309348D01*
X39666041Y-29201981D01*
X39816764Y-29064579D01*
X39939673Y-28901821D01*
X40030582Y-28719250D01*
X40086397Y-28523083D01*
X40105215Y-28320000D01*
X53134785Y-28320000D01*
X53153602Y-28523082D01*
X53209417Y-28719247D01*
X53209422Y-28719260D01*
X53300327Y-28901821D01*
X53423237Y-29064581D01*
X53562638Y-29191660D01*
X53572334Y-29200500D01*
X53573958Y-29201980D01*
X53573960Y-29201982D01*
X53596597Y-29215998D01*
X53747363Y-29309348D01*
X53937544Y-29383024D01*
X54138024Y-29420500D01*
X54138026Y-29420500D01*
X54341974Y-29420500D01*
X54341976Y-29420500D01*
X54542456Y-29383024D01*
X54732637Y-29309348D01*
X54906041Y-29201981D01*
X55056764Y-29064579D01*
X55179673Y-28901821D01*
X55270582Y-28719250D01*
X55326397Y-28523083D01*
X55345215Y-28320000D01*
X55326397Y-28116917D01*
X55270582Y-27920750D01*
X55269843Y-27919266D01*
X55198267Y-27775522D01*
X55179673Y-27738179D01*
X55093153Y-27623608D01*
X55056762Y-27575418D01*
X54906041Y-27438019D01*
X54906039Y-27438017D01*
X54732642Y-27330655D01*
X54732635Y-27330651D01*
X54609227Y-27282843D01*
X54542456Y-27256976D01*
X54341976Y-27219500D01*
X54138024Y-27219500D01*
X53937544Y-27256976D01*
X53937541Y-27256976D01*
X53937541Y-27256977D01*
X53747364Y-27330651D01*
X53747357Y-27330655D01*
X53573960Y-27438017D01*
X53573958Y-27438019D01*
X53423237Y-27575418D01*
X53300327Y-27738178D01*
X53209422Y-27920739D01*
X53209417Y-27920752D01*
X53153602Y-28116917D01*
X53134785Y-28319999D01*
X53134785Y-28320000D01*
X40105215Y-28320000D01*
X40086397Y-28116917D01*
X40030582Y-27920750D01*
X40029843Y-27919266D01*
X39958267Y-27775522D01*
X39939673Y-27738179D01*
X39853153Y-27623608D01*
X39816762Y-27575418D01*
X39666041Y-27438019D01*
X39666039Y-27438017D01*
X39492642Y-27330655D01*
X39492635Y-27330651D01*
X39369227Y-27282843D01*
X39302456Y-27256976D01*
X39101976Y-27219500D01*
X38898024Y-27219500D01*
X38697544Y-27256976D01*
X38697541Y-27256976D01*
X38697541Y-27256977D01*
X38507364Y-27330651D01*
X38507357Y-27330655D01*
X38333960Y-27438017D01*
X38333958Y-27438019D01*
X38183237Y-27575418D01*
X38060327Y-27738178D01*
X37969422Y-27920739D01*
X37969417Y-27920752D01*
X37913602Y-28116917D01*
X37894785Y-28319999D01*
X37894785Y-28320000D01*
X500500Y-28320000D01*
X500500Y-27304678D01*
X16219500Y-27304678D01*
X16234032Y-27377735D01*
X16234033Y-27377739D01*
X16234034Y-27377740D01*
X16289399Y-27460601D01*
X16356502Y-27505437D01*
X16372260Y-27515966D01*
X16372264Y-27515967D01*
X16445321Y-27530499D01*
X16445324Y-27530500D01*
X16445326Y-27530500D01*
X18494676Y-27530500D01*
X18494677Y-27530499D01*
X18567740Y-27515966D01*
X18650601Y-27460601D01*
X18705966Y-27377740D01*
X18720500Y-27304674D01*
X18720500Y-26280002D01*
X21294723Y-26280002D01*
X21313793Y-26497975D01*
X21313793Y-26497979D01*
X21370422Y-26709322D01*
X21370424Y-26709326D01*
X21370425Y-26709330D01*
X21398410Y-26769344D01*
X21462897Y-26907638D01*
X21462898Y-26907639D01*
X21588402Y-27086877D01*
X21743123Y-27241598D01*
X21922361Y-27367102D01*
X22120670Y-27459575D01*
X22120676Y-27459576D01*
X22120677Y-27459577D01*
X22124495Y-27460600D01*
X22332023Y-27516207D01*
X22514926Y-27532208D01*
X22549998Y-27535277D01*
X22550000Y-27535277D01*
X22550002Y-27535277D01*
X22578254Y-27532805D01*
X22767977Y-27516207D01*
X22979330Y-27459575D01*
X23177639Y-27367102D01*
X23356877Y-27241598D01*
X23511598Y-27086877D01*
X23637102Y-26907639D01*
X23729575Y-26709330D01*
X23786207Y-26497977D01*
X23805277Y-26280000D01*
X23786207Y-26062023D01*
X23729575Y-25850670D01*
X23696621Y-25780000D01*
X37894785Y-25780000D01*
X37913602Y-25983082D01*
X37969417Y-26179247D01*
X37969422Y-26179260D01*
X38060327Y-26361821D01*
X38183237Y-26524581D01*
X38333958Y-26661980D01*
X38333960Y-26661982D01*
X38350720Y-26672359D01*
X38507363Y-26769348D01*
X38697544Y-26843024D01*
X38898024Y-26880500D01*
X38898026Y-26880500D01*
X39101974Y-26880500D01*
X39101976Y-26880500D01*
X39302456Y-26843024D01*
X39492637Y-26769348D01*
X39666041Y-26661981D01*
X39816764Y-26524579D01*
X39939673Y-26361821D01*
X40030582Y-26179250D01*
X40086397Y-25983083D01*
X40105215Y-25780000D01*
X40101426Y-25739114D01*
X40086397Y-25576917D01*
X40071130Y-25523259D01*
X40030582Y-25380750D01*
X39939673Y-25198179D01*
X39823268Y-25044034D01*
X39816762Y-25035418D01*
X39666041Y-24898019D01*
X39666039Y-24898017D01*
X39492642Y-24790655D01*
X39492635Y-24790651D01*
X39361981Y-24740036D01*
X39302456Y-24716976D01*
X39101976Y-24679500D01*
X38898024Y-24679500D01*
X38697544Y-24716976D01*
X38697541Y-24716976D01*
X38697541Y-24716977D01*
X38507364Y-24790651D01*
X38507357Y-24790655D01*
X38333960Y-24898017D01*
X38333958Y-24898019D01*
X38183237Y-25035418D01*
X38060327Y-25198178D01*
X37969422Y-25380739D01*
X37969417Y-25380752D01*
X37913602Y-25576917D01*
X37894785Y-25779999D01*
X37894785Y-25780000D01*
X23696621Y-25780000D01*
X23637102Y-25652362D01*
X23637100Y-25652359D01*
X23637099Y-25652357D01*
X23511599Y-25473124D01*
X23437243Y-25398768D01*
X23356877Y-25318402D01*
X23318206Y-25291324D01*
X23203376Y-25210918D01*
X23159751Y-25156341D01*
X23150500Y-25109344D01*
X23150500Y-23240000D01*
X37894785Y-23240000D01*
X37913602Y-23443082D01*
X37969417Y-23639247D01*
X37969422Y-23639260D01*
X38060327Y-23821821D01*
X38183237Y-23984581D01*
X38333958Y-24121980D01*
X38333960Y-24121982D01*
X38433141Y-24183392D01*
X38507363Y-24229348D01*
X38697544Y-24303024D01*
X38898024Y-24340500D01*
X38898026Y-24340500D01*
X39101974Y-24340500D01*
X39101976Y-24340500D01*
X39302456Y-24303024D01*
X39492637Y-24229348D01*
X39666041Y-24121981D01*
X39810191Y-23990571D01*
X39816762Y-23984581D01*
X39822567Y-23976894D01*
X39939673Y-23821821D01*
X40030582Y-23639250D01*
X40086397Y-23443083D01*
X40105215Y-23240000D01*
X53134785Y-23240000D01*
X53153602Y-23443082D01*
X53209417Y-23639247D01*
X53209422Y-23639260D01*
X53300327Y-23821821D01*
X53423237Y-23984581D01*
X53573958Y-24121980D01*
X53573960Y-24121982D01*
X53673141Y-24183392D01*
X53747363Y-24229348D01*
X53937544Y-24303024D01*
X54138024Y-24340500D01*
X54138026Y-24340500D01*
X54341974Y-24340500D01*
X54341976Y-24340500D01*
X54542456Y-24303024D01*
X54732637Y-24229348D01*
X54906041Y-24121981D01*
X55050191Y-23990571D01*
X55056762Y-23984581D01*
X55062567Y-23976894D01*
X55179673Y-23821821D01*
X55270582Y-23639250D01*
X55326397Y-23443083D01*
X55345215Y-23240000D01*
X55340849Y-23192887D01*
X55326397Y-23036917D01*
X55316480Y-23002064D01*
X55270582Y-22840750D01*
X55256223Y-22811914D01*
X55191627Y-22682187D01*
X55179673Y-22658179D01*
X55056764Y-22495421D01*
X55056762Y-22495418D01*
X54906041Y-22358019D01*
X54906039Y-22358017D01*
X54732642Y-22250655D01*
X54732635Y-22250651D01*
X54637546Y-22213814D01*
X54542456Y-22176976D01*
X54341976Y-22139500D01*
X54138024Y-22139500D01*
X53937544Y-22176976D01*
X53937541Y-22176976D01*
X53937541Y-22176977D01*
X53747364Y-22250651D01*
X53747357Y-22250655D01*
X53573960Y-22358017D01*
X53573958Y-22358019D01*
X53423237Y-22495418D01*
X53300327Y-22658178D01*
X53209422Y-22840739D01*
X53209417Y-22840752D01*
X53153602Y-23036917D01*
X53134785Y-23239999D01*
X53134785Y-23240000D01*
X40105215Y-23240000D01*
X40100849Y-23192887D01*
X40086397Y-23036917D01*
X40076480Y-23002064D01*
X40030582Y-22840750D01*
X40016223Y-22811914D01*
X39951627Y-22682187D01*
X39939673Y-22658179D01*
X39816764Y-22495421D01*
X39816762Y-22495418D01*
X39666041Y-22358019D01*
X39666039Y-22358017D01*
X39492642Y-22250655D01*
X39492635Y-22250651D01*
X39397546Y-22213814D01*
X39302456Y-22176976D01*
X39101976Y-22139500D01*
X38898024Y-22139500D01*
X38697544Y-22176976D01*
X38697541Y-22176976D01*
X38697541Y-22176977D01*
X38507364Y-22250651D01*
X38507357Y-22250655D01*
X38333960Y-22358017D01*
X38333958Y-22358019D01*
X38183237Y-22495418D01*
X38060327Y-22658178D01*
X37969422Y-22840739D01*
X37969417Y-22840752D01*
X37913602Y-23036917D01*
X37894785Y-23239999D01*
X37894785Y-23240000D01*
X23150500Y-23240000D01*
X23150500Y-21000000D01*
X30294355Y-21000000D01*
X30314859Y-21168869D01*
X30314860Y-21168874D01*
X30375182Y-21327931D01*
X30429372Y-21406437D01*
X30471817Y-21467929D01*
X30582728Y-21566187D01*
X30619853Y-21625374D01*
X30624500Y-21659001D01*
X30624500Y-21979344D01*
X30624076Y-21989585D01*
X30620607Y-22031437D01*
X30630918Y-22072157D01*
X30633020Y-22082182D01*
X30639933Y-22123608D01*
X30640122Y-22123956D01*
X30651272Y-22152528D01*
X30651371Y-22152919D01*
X30651373Y-22152925D01*
X30674342Y-22188081D01*
X30679586Y-22196882D01*
X30699579Y-22233824D01*
X30699869Y-22234091D01*
X30719697Y-22257501D01*
X30719916Y-22257836D01*
X30719919Y-22257838D01*
X30753058Y-22283632D01*
X30760879Y-22290256D01*
X30791778Y-22318701D01*
X30791779Y-22318701D01*
X30791781Y-22318703D01*
X30792144Y-22318862D01*
X30818499Y-22334566D01*
X30818811Y-22334809D01*
X30858544Y-22348448D01*
X30868068Y-22352164D01*
X30906546Y-22369043D01*
X30906941Y-22369075D01*
X30936963Y-22375371D01*
X30937339Y-22375500D01*
X30937340Y-22375500D01*
X30979345Y-22375500D01*
X30989586Y-22375924D01*
X31031434Y-22379392D01*
X31031434Y-22379391D01*
X31031437Y-22379392D01*
X31031825Y-22379293D01*
X31062263Y-22375500D01*
X33842937Y-22375500D01*
X33909976Y-22395185D01*
X33944986Y-22429059D01*
X33971815Y-22467927D01*
X34099150Y-22580736D01*
X34249773Y-22659789D01*
X34249775Y-22659790D01*
X34414944Y-22700500D01*
X34585056Y-22700500D01*
X34750225Y-22659790D01*
X34844026Y-22610559D01*
X34900849Y-22580736D01*
X34900850Y-22580734D01*
X34900852Y-22580734D01*
X35028183Y-22467929D01*
X35124818Y-22327930D01*
X35185140Y-22168872D01*
X35205645Y-22000000D01*
X35185140Y-21831128D01*
X35173524Y-21800500D01*
X35152128Y-21744081D01*
X35124818Y-21672070D01*
X35115542Y-21658632D01*
X35087422Y-21617893D01*
X35028183Y-21532071D01*
X34908760Y-21426272D01*
X34900849Y-21419263D01*
X34750226Y-21340210D01*
X34585056Y-21299500D01*
X34414944Y-21299500D01*
X34249773Y-21340210D01*
X34099150Y-21419263D01*
X33971815Y-21532072D01*
X33944986Y-21570941D01*
X33890703Y-21614931D01*
X33842937Y-21624500D01*
X31656372Y-21624500D01*
X31589333Y-21604815D01*
X31543578Y-21552011D01*
X31533634Y-21482853D01*
X31554320Y-21430062D01*
X31624818Y-21327930D01*
X31685140Y-21168872D01*
X31705645Y-21000000D01*
X31685140Y-20831128D01*
X31635410Y-20700000D01*
X37894785Y-20700000D01*
X37913602Y-20903082D01*
X37969417Y-21099247D01*
X37969422Y-21099260D01*
X38060327Y-21281821D01*
X38183237Y-21444581D01*
X38333958Y-21581980D01*
X38333960Y-21581982D01*
X38402830Y-21624624D01*
X38507363Y-21689348D01*
X38697544Y-21763024D01*
X38898024Y-21800500D01*
X38898026Y-21800500D01*
X39101974Y-21800500D01*
X39101976Y-21800500D01*
X39302456Y-21763024D01*
X39492637Y-21689348D01*
X39666041Y-21581981D01*
X39816764Y-21444579D01*
X39939673Y-21281821D01*
X40030582Y-21099250D01*
X40086397Y-20903083D01*
X40105215Y-20700000D01*
X40105176Y-20699584D01*
X40086397Y-20496917D01*
X40060684Y-20406546D01*
X40030582Y-20300750D01*
X39939673Y-20118179D01*
X39874645Y-20032068D01*
X39816762Y-19955418D01*
X39666041Y-19818019D01*
X39666039Y-19818017D01*
X39492642Y-19710655D01*
X39492635Y-19710651D01*
X39392363Y-19671806D01*
X39302456Y-19636976D01*
X39101976Y-19599500D01*
X38898024Y-19599500D01*
X38697544Y-19636976D01*
X38697541Y-19636976D01*
X38697541Y-19636977D01*
X38507364Y-19710651D01*
X38507357Y-19710655D01*
X38333960Y-19818017D01*
X38333958Y-19818019D01*
X38183237Y-19955418D01*
X38060327Y-20118178D01*
X37969422Y-20300739D01*
X37969417Y-20300752D01*
X37913602Y-20496917D01*
X37894785Y-20699999D01*
X37894785Y-20700000D01*
X31635410Y-20700000D01*
X31624818Y-20672070D01*
X31622608Y-20668869D01*
X31588247Y-20619088D01*
X31528183Y-20532071D01*
X31433316Y-20448026D01*
X31400849Y-20419263D01*
X31250226Y-20340210D01*
X31085056Y-20299500D01*
X30914944Y-20299500D01*
X30749773Y-20340210D01*
X30599150Y-20419263D01*
X30471816Y-20532072D01*
X30375182Y-20672068D01*
X30314860Y-20831125D01*
X30314859Y-20831130D01*
X30294355Y-21000000D01*
X23150500Y-21000000D01*
X23150500Y-18160000D01*
X37894785Y-18160000D01*
X37913602Y-18363082D01*
X37969417Y-18559247D01*
X37969422Y-18559260D01*
X38060327Y-18741821D01*
X38183237Y-18904581D01*
X38312948Y-19022827D01*
X38331995Y-19040191D01*
X38333958Y-19041980D01*
X38333960Y-19041982D01*
X38356815Y-19056133D01*
X38507363Y-19149348D01*
X38697544Y-19223024D01*
X38898024Y-19260500D01*
X38898026Y-19260500D01*
X39101974Y-19260500D01*
X39101976Y-19260500D01*
X39302456Y-19223024D01*
X39492637Y-19149348D01*
X39666041Y-19041981D01*
X39797867Y-18921806D01*
X39816762Y-18904581D01*
X39816764Y-18904579D01*
X39939673Y-18741821D01*
X40030582Y-18559250D01*
X40086397Y-18363083D01*
X40105215Y-18160000D01*
X40086397Y-17956917D01*
X40030582Y-17760750D01*
X39939673Y-17578179D01*
X39864570Y-17478726D01*
X39816762Y-17415418D01*
X39666041Y-17278019D01*
X39666039Y-17278017D01*
X39492642Y-17170655D01*
X39492635Y-17170651D01*
X39397546Y-17133814D01*
X39302456Y-17096976D01*
X39101976Y-17059500D01*
X38898024Y-17059500D01*
X38697544Y-17096976D01*
X38697541Y-17096976D01*
X38697541Y-17096977D01*
X38507364Y-17170651D01*
X38507357Y-17170655D01*
X38333960Y-17278017D01*
X38333958Y-17278019D01*
X38183237Y-17415418D01*
X38060327Y-17578178D01*
X37969422Y-17760739D01*
X37969417Y-17760752D01*
X37913602Y-17956917D01*
X37894785Y-18159999D01*
X37894785Y-18160000D01*
X23150500Y-18160000D01*
X23150500Y-15774500D01*
X23170185Y-15707461D01*
X23222989Y-15661706D01*
X23274500Y-15650500D01*
X29327555Y-15650500D01*
X29371527Y-15658558D01*
X29374772Y-15659788D01*
X29374775Y-15659790D01*
X29539944Y-15700500D01*
X29710056Y-15700500D01*
X29875225Y-15659790D01*
X29951038Y-15620000D01*
X37894785Y-15620000D01*
X37913602Y-15823082D01*
X37969417Y-16019247D01*
X37969422Y-16019260D01*
X38060327Y-16201821D01*
X38183237Y-16364581D01*
X38308091Y-16478399D01*
X38331588Y-16499820D01*
X38333958Y-16501980D01*
X38333960Y-16501982D01*
X38363810Y-16520464D01*
X38507363Y-16609348D01*
X38697544Y-16683024D01*
X38898024Y-16720500D01*
X38898026Y-16720500D01*
X39101974Y-16720500D01*
X39101976Y-16720500D01*
X39302456Y-16683024D01*
X39492637Y-16609348D01*
X39666041Y-16501981D01*
X39816764Y-16364579D01*
X39939673Y-16201821D01*
X40030582Y-16019250D01*
X40086397Y-15823083D01*
X40105215Y-15620000D01*
X40086397Y-15416917D01*
X40030582Y-15220750D01*
X40024342Y-15208219D01*
X39977484Y-15114114D01*
X39939673Y-15038179D01*
X39875088Y-14952655D01*
X39816762Y-14875418D01*
X39666041Y-14738019D01*
X39666039Y-14738017D01*
X39492642Y-14630655D01*
X39492635Y-14630651D01*
X39335058Y-14569606D01*
X39302456Y-14556976D01*
X39101976Y-14519500D01*
X38898024Y-14519500D01*
X38697544Y-14556976D01*
X38697541Y-14556976D01*
X38697541Y-14556977D01*
X38507364Y-14630651D01*
X38507357Y-14630655D01*
X38333960Y-14738017D01*
X38333958Y-14738019D01*
X38183237Y-14875418D01*
X38060327Y-15038178D01*
X37969422Y-15220739D01*
X37969417Y-15220752D01*
X37913602Y-15416917D01*
X37894785Y-15619999D01*
X37894785Y-15620000D01*
X29951038Y-15620000D01*
X29962251Y-15614115D01*
X30025849Y-15580736D01*
X30025850Y-15580734D01*
X30025852Y-15580734D01*
X30153183Y-15467929D01*
X30249818Y-15327930D01*
X30310140Y-15168872D01*
X30330645Y-15000000D01*
X30310140Y-14831128D01*
X30249818Y-14672070D01*
X30247608Y-14668869D01*
X30210154Y-14614607D01*
X30153183Y-14532071D01*
X30025852Y-14419266D01*
X30025849Y-14419263D01*
X29875226Y-14340210D01*
X29710056Y-14299500D01*
X29539944Y-14299500D01*
X29374776Y-14340209D01*
X29371527Y-14341442D01*
X29327555Y-14349500D01*
X22573210Y-14349500D01*
X22549978Y-14347304D01*
X22541170Y-14345624D01*
X22541167Y-14345623D01*
X22483457Y-14349255D01*
X22475671Y-14349500D01*
X22459072Y-14349500D01*
X22442601Y-14351580D01*
X22434860Y-14352311D01*
X22382511Y-14355605D01*
X22377140Y-14355944D01*
X22377139Y-14355944D01*
X22368608Y-14358716D01*
X22345841Y-14363804D01*
X22336942Y-14364929D01*
X22336939Y-14364929D01*
X22283166Y-14386219D01*
X22275841Y-14388856D01*
X22220828Y-14406731D01*
X22213251Y-14411540D01*
X22192468Y-14422129D01*
X22184133Y-14425429D01*
X22184131Y-14425430D01*
X22137338Y-14459426D01*
X22130900Y-14463801D01*
X22082065Y-14494793D01*
X22082056Y-14494801D01*
X22075913Y-14501342D01*
X22058429Y-14516756D01*
X22051165Y-14522034D01*
X22014296Y-14566600D01*
X22009149Y-14572438D01*
X21969551Y-14614607D01*
X21969549Y-14614610D01*
X21965226Y-14622473D01*
X21952121Y-14641756D01*
X21946404Y-14648667D01*
X21946401Y-14648672D01*
X21921774Y-14701004D01*
X21918240Y-14707939D01*
X21890374Y-14758628D01*
X21890373Y-14758632D01*
X21888141Y-14767324D01*
X21880239Y-14789271D01*
X21876420Y-14797386D01*
X21865586Y-14854180D01*
X21863888Y-14861778D01*
X21849500Y-14917818D01*
X21849500Y-14926789D01*
X21847304Y-14950020D01*
X21845624Y-14958826D01*
X21845624Y-14958830D01*
X21849255Y-15016542D01*
X21849500Y-15024328D01*
X21849500Y-25179365D01*
X21829815Y-25246404D01*
X21796624Y-25280939D01*
X21743130Y-25318396D01*
X21743127Y-25318398D01*
X21588400Y-25473124D01*
X21462900Y-25652357D01*
X21462898Y-25652361D01*
X21370426Y-25850668D01*
X21370422Y-25850677D01*
X21313793Y-26062020D01*
X21313793Y-26062024D01*
X21294723Y-26279997D01*
X21294723Y-26280002D01*
X18720500Y-26280002D01*
X18720500Y-25255326D01*
X18720500Y-25255323D01*
X18720499Y-25255321D01*
X18705967Y-25182264D01*
X18705966Y-25182260D01*
X18697282Y-25169263D01*
X18650601Y-25099399D01*
X18567740Y-25044034D01*
X18567739Y-25044033D01*
X18567735Y-25044032D01*
X18494677Y-25029500D01*
X18494674Y-25029500D01*
X16445326Y-25029500D01*
X16445323Y-25029500D01*
X16372264Y-25044032D01*
X16372260Y-25044033D01*
X16289399Y-25099399D01*
X16234033Y-25182260D01*
X16234032Y-25182264D01*
X16219500Y-25255321D01*
X16219500Y-27304678D01*
X500500Y-27304678D01*
X500500Y-13080000D01*
X37894785Y-13080000D01*
X37913602Y-13283082D01*
X37969417Y-13479247D01*
X37969422Y-13479260D01*
X38060327Y-13661821D01*
X38183237Y-13824581D01*
X38306929Y-13937340D01*
X38331588Y-13959820D01*
X38333958Y-13961980D01*
X38333960Y-13961982D01*
X38395362Y-14000000D01*
X38507363Y-14069348D01*
X38697544Y-14143024D01*
X38898024Y-14180500D01*
X38898026Y-14180500D01*
X39101974Y-14180500D01*
X39101976Y-14180500D01*
X39302456Y-14143024D01*
X39492637Y-14069348D01*
X39666041Y-13961981D01*
X39809580Y-13831128D01*
X39816762Y-13824581D01*
X39816764Y-13824579D01*
X39939673Y-13661821D01*
X40030582Y-13479250D01*
X40086397Y-13283083D01*
X40105215Y-13080000D01*
X40086397Y-12876917D01*
X40030582Y-12680750D01*
X40018791Y-12657071D01*
X39947769Y-12514439D01*
X39939673Y-12498179D01*
X39880704Y-12420091D01*
X39816762Y-12335418D01*
X39666041Y-12198019D01*
X39666039Y-12198017D01*
X39492642Y-12090655D01*
X39492635Y-12090651D01*
X39397546Y-12053814D01*
X39302456Y-12016976D01*
X39101976Y-11979500D01*
X38898024Y-11979500D01*
X38697544Y-12016976D01*
X38697541Y-12016976D01*
X38697541Y-12016977D01*
X38507364Y-12090651D01*
X38507357Y-12090655D01*
X38333960Y-12198017D01*
X38333958Y-12198019D01*
X38183237Y-12335418D01*
X38060327Y-12498178D01*
X37969422Y-12680739D01*
X37969417Y-12680752D01*
X37913602Y-12876917D01*
X37894785Y-13079999D01*
X37894785Y-13080000D01*
X500500Y-13080000D01*
X500500Y-10500000D01*
X36044355Y-10500000D01*
X36064859Y-10668869D01*
X36064860Y-10668874D01*
X36125182Y-10827931D01*
X36187475Y-10918177D01*
X36221817Y-10967929D01*
X36271508Y-11011951D01*
X36349150Y-11080736D01*
X36499773Y-11159789D01*
X36499775Y-11159790D01*
X36664944Y-11200500D01*
X36835056Y-11200500D01*
X37000225Y-11159790D01*
X37080368Y-11117727D01*
X37150849Y-11080736D01*
X37150850Y-11080734D01*
X37150852Y-11080734D01*
X37278183Y-10967929D01*
X37374818Y-10827930D01*
X37435140Y-10668872D01*
X37450788Y-10540000D01*
X37894785Y-10540000D01*
X37913602Y-10743082D01*
X37969417Y-10939247D01*
X37969422Y-10939260D01*
X38060327Y-11121821D01*
X38183237Y-11284581D01*
X38307935Y-11398257D01*
X38331588Y-11419820D01*
X38333958Y-11421980D01*
X38333960Y-11421982D01*
X38378013Y-11449258D01*
X38507363Y-11529348D01*
X38697544Y-11603024D01*
X38898024Y-11640500D01*
X38898026Y-11640500D01*
X39101974Y-11640500D01*
X39101976Y-11640500D01*
X39302456Y-11603024D01*
X39492637Y-11529348D01*
X39666041Y-11421981D01*
X39816764Y-11284579D01*
X39939673Y-11121821D01*
X40030582Y-10939250D01*
X40086397Y-10743083D01*
X40105215Y-10540000D01*
X40101508Y-10499999D01*
X40086397Y-10336917D01*
X40039493Y-10172070D01*
X40030582Y-10140750D01*
X39939673Y-9958179D01*
X39871492Y-9867893D01*
X39816762Y-9795418D01*
X39666041Y-9658019D01*
X39666039Y-9658017D01*
X39492642Y-9550655D01*
X39492635Y-9550651D01*
X39353992Y-9496941D01*
X39302456Y-9476976D01*
X39101976Y-9439500D01*
X38898024Y-9439500D01*
X38697544Y-9476976D01*
X38697541Y-9476976D01*
X38697541Y-9476977D01*
X38507364Y-9550651D01*
X38507357Y-9550655D01*
X38333960Y-9658017D01*
X38333958Y-9658019D01*
X38183237Y-9795418D01*
X38060327Y-9958178D01*
X37969422Y-10140739D01*
X37969417Y-10140752D01*
X37913602Y-10336917D01*
X37894785Y-10539999D01*
X37894785Y-10540000D01*
X37450788Y-10540000D01*
X37455645Y-10500000D01*
X37435140Y-10331128D01*
X37374818Y-10172070D01*
X37278183Y-10032071D01*
X37275940Y-10030084D01*
X37242273Y-10000257D01*
X37205146Y-9941068D01*
X37200500Y-9907442D01*
X37200500Y-9445527D01*
X37220185Y-9378488D01*
X37272989Y-9332733D01*
X37315231Y-9321874D01*
X37351378Y-9319166D01*
X37354329Y-9318007D01*
X37381158Y-9310819D01*
X37384287Y-9310348D01*
X37426106Y-9290207D01*
X37434577Y-9286512D01*
X37477794Y-9269552D01*
X37480272Y-9267575D01*
X37503786Y-9252799D01*
X37506642Y-9251425D01*
X37540672Y-9219848D01*
X37547678Y-9213819D01*
X37583970Y-9184879D01*
X37585754Y-9182261D01*
X37603872Y-9161209D01*
X37606194Y-9159055D01*
X37608058Y-9155825D01*
X37631106Y-9126922D01*
X37665662Y-9094858D01*
X37672674Y-9088822D01*
X37708970Y-9059879D01*
X37710754Y-9057261D01*
X37728872Y-9036209D01*
X37731194Y-9034055D01*
X37733058Y-9030825D01*
X37756105Y-9001922D01*
X37756639Y-9001426D01*
X37756642Y-9001425D01*
X37769312Y-8989668D01*
X37831841Y-8958500D01*
X37901297Y-8966086D01*
X37955627Y-9010018D01*
X37956750Y-9011670D01*
X37969399Y-9030601D01*
X38040233Y-9077930D01*
X38052260Y-9085966D01*
X38052264Y-9085967D01*
X38125321Y-9100499D01*
X38125324Y-9100500D01*
X38125326Y-9100500D01*
X39874676Y-9100500D01*
X39874677Y-9100499D01*
X39947740Y-9085966D01*
X40030601Y-9030601D01*
X40085966Y-8947740D01*
X40100500Y-8874674D01*
X40100500Y-7199500D01*
X40120185Y-7132461D01*
X40172989Y-7086706D01*
X40224500Y-7075500D01*
X53310080Y-7075500D01*
X53377119Y-7095185D01*
X53422874Y-7147989D01*
X53432818Y-7217147D01*
X53409034Y-7274227D01*
X53315959Y-7397479D01*
X53300327Y-7418179D01*
X53231813Y-7555773D01*
X53184313Y-7607008D01*
X53120815Y-7624500D01*
X52520655Y-7624500D01*
X52510414Y-7624076D01*
X52468562Y-7620607D01*
X52427845Y-7630918D01*
X52417819Y-7633020D01*
X52376392Y-7639933D01*
X52376387Y-7639935D01*
X52376024Y-7640132D01*
X52347482Y-7651268D01*
X52347087Y-7651367D01*
X52347077Y-7651372D01*
X52311908Y-7674348D01*
X52303112Y-7679589D01*
X52266178Y-7699578D01*
X52266165Y-7699588D01*
X52265895Y-7699882D01*
X52242509Y-7719690D01*
X52242167Y-7719912D01*
X52242163Y-7719917D01*
X52216367Y-7753058D01*
X52209749Y-7760872D01*
X52181296Y-7791781D01*
X52181292Y-7791787D01*
X52181129Y-7792161D01*
X52165443Y-7818486D01*
X52165193Y-7818806D01*
X52165191Y-7818810D01*
X52151554Y-7858534D01*
X52147829Y-7868079D01*
X52130957Y-7906543D01*
X52130955Y-7906549D01*
X52130922Y-7906956D01*
X52124634Y-7936946D01*
X52124500Y-7937335D01*
X52124500Y-7979344D01*
X52124076Y-7989585D01*
X52120607Y-8031434D01*
X52120608Y-8031437D01*
X52120706Y-8031825D01*
X52124500Y-8062263D01*
X52124500Y-13479344D01*
X52124076Y-13489585D01*
X52120607Y-13531437D01*
X52130918Y-13572157D01*
X52133020Y-13582182D01*
X52139933Y-13623608D01*
X52140122Y-13623956D01*
X52151272Y-13652528D01*
X52151371Y-13652919D01*
X52151373Y-13652925D01*
X52174342Y-13688081D01*
X52179586Y-13696882D01*
X52199579Y-13733824D01*
X52199869Y-13734091D01*
X52219697Y-13757501D01*
X52219916Y-13757836D01*
X52230967Y-13766437D01*
X52253058Y-13783632D01*
X52260879Y-13790256D01*
X52298651Y-13825028D01*
X52323719Y-13857234D01*
X52324581Y-13858826D01*
X52324858Y-13859081D01*
X52324869Y-13859091D01*
X52344697Y-13882501D01*
X52344916Y-13882836D01*
X52344919Y-13882838D01*
X52378058Y-13908632D01*
X52385879Y-13915256D01*
X52416778Y-13943701D01*
X52416779Y-13943701D01*
X52416781Y-13943703D01*
X52417144Y-13943862D01*
X52443499Y-13959566D01*
X52443811Y-13959809D01*
X52483544Y-13973448D01*
X52493068Y-13977164D01*
X52531546Y-13994043D01*
X52540957Y-13998171D01*
X52540386Y-13999471D01*
X52591094Y-14029426D01*
X52622488Y-14091846D01*
X52624500Y-14114095D01*
X52624500Y-19354344D01*
X52624076Y-19364585D01*
X52620607Y-19406437D01*
X52630918Y-19447157D01*
X52633020Y-19457182D01*
X52639933Y-19498608D01*
X52640122Y-19498956D01*
X52651272Y-19527528D01*
X52651371Y-19527919D01*
X52651373Y-19527925D01*
X52674342Y-19563081D01*
X52679586Y-19571882D01*
X52699579Y-19608824D01*
X52699869Y-19609091D01*
X52719697Y-19632501D01*
X52719916Y-19632836D01*
X52730287Y-19640908D01*
X52753058Y-19658632D01*
X52760879Y-19665256D01*
X52791778Y-19693701D01*
X52791779Y-19693701D01*
X52791781Y-19693703D01*
X52792144Y-19693862D01*
X52818499Y-19709566D01*
X52818811Y-19709809D01*
X52858544Y-19723448D01*
X52868068Y-19727164D01*
X52906546Y-19744043D01*
X52906941Y-19744075D01*
X52936963Y-19750371D01*
X52937339Y-19750500D01*
X52937340Y-19750500D01*
X52979345Y-19750500D01*
X52989586Y-19750924D01*
X53031434Y-19754392D01*
X53031434Y-19754391D01*
X53031437Y-19754392D01*
X53031825Y-19754293D01*
X53062263Y-19750500D01*
X53329213Y-19750500D01*
X53396252Y-19770185D01*
X53442007Y-19822989D01*
X53451951Y-19892147D01*
X53425540Y-19949977D01*
X53426691Y-19950846D01*
X53423236Y-19955420D01*
X53423236Y-19955421D01*
X53408843Y-19974480D01*
X53300327Y-20118178D01*
X53209422Y-20300739D01*
X53209417Y-20300752D01*
X53153602Y-20496917D01*
X53134785Y-20699999D01*
X53134785Y-20700000D01*
X53153602Y-20903082D01*
X53209417Y-21099247D01*
X53209422Y-21099260D01*
X53300327Y-21281821D01*
X53423237Y-21444581D01*
X53573958Y-21581980D01*
X53573960Y-21581982D01*
X53642830Y-21624624D01*
X53747363Y-21689348D01*
X53937544Y-21763024D01*
X54138024Y-21800500D01*
X54138026Y-21800500D01*
X54341974Y-21800500D01*
X54341976Y-21800500D01*
X54542456Y-21763024D01*
X54732637Y-21689348D01*
X54906041Y-21581981D01*
X55056764Y-21444579D01*
X55179673Y-21281821D01*
X55270582Y-21099250D01*
X55326397Y-20903083D01*
X55345215Y-20700000D01*
X55345176Y-20699584D01*
X55326397Y-20496917D01*
X55300684Y-20406546D01*
X55270582Y-20300750D01*
X55179673Y-20118179D01*
X55056764Y-19955421D01*
X55056763Y-19955420D01*
X55053309Y-19950846D01*
X55055015Y-19949557D01*
X55028533Y-19895238D01*
X55036729Y-19825850D01*
X55081137Y-19771909D01*
X55147659Y-19750539D01*
X55150787Y-19750500D01*
X55420355Y-19750500D01*
X55487394Y-19770185D01*
X55533149Y-19822989D01*
X55542859Y-19867625D01*
X55543451Y-19867554D01*
X55544217Y-19873869D01*
X55544355Y-19874500D01*
X55544355Y-19874999D01*
X55564859Y-20043869D01*
X55564860Y-20043874D01*
X55625182Y-20202931D01*
X55662577Y-20257106D01*
X55721817Y-20342929D01*
X55827505Y-20436560D01*
X55849150Y-20455736D01*
X55993386Y-20531437D01*
X55999775Y-20534790D01*
X56164944Y-20575500D01*
X56335056Y-20575500D01*
X56500225Y-20534790D01*
X56540816Y-20513485D01*
X56567874Y-20499285D01*
X56636382Y-20485559D01*
X56701435Y-20511051D01*
X56742380Y-20567667D01*
X56749500Y-20609081D01*
X56749500Y-22721499D01*
X56749341Y-22727779D01*
X56745631Y-22800935D01*
X56745631Y-22800936D01*
X56756719Y-22873325D01*
X56757513Y-22879553D01*
X56764925Y-22952437D01*
X56764926Y-22952440D01*
X56769749Y-22967814D01*
X56774003Y-22986147D01*
X56776442Y-23002064D01*
X56776443Y-23002068D01*
X56801882Y-23070760D01*
X56803911Y-23076696D01*
X56825841Y-23146588D01*
X56825842Y-23146589D01*
X56825843Y-23146592D01*
X56833657Y-23160670D01*
X56841517Y-23177777D01*
X56847111Y-23192881D01*
X56847113Y-23192884D01*
X56847114Y-23192887D01*
X56863198Y-23218692D01*
X56885864Y-23255057D01*
X56889050Y-23260469D01*
X56924592Y-23324503D01*
X56924593Y-23324504D01*
X56935078Y-23336718D01*
X56946222Y-23351894D01*
X56954745Y-23365567D01*
X56954746Y-23365568D01*
X56954748Y-23365571D01*
X57005246Y-23418695D01*
X57009421Y-23423317D01*
X57024279Y-23440625D01*
X57057132Y-23478894D01*
X57057133Y-23478895D01*
X57069869Y-23488753D01*
X57083844Y-23501379D01*
X57094940Y-23513052D01*
X57155051Y-23554891D01*
X57160115Y-23558609D01*
X57218042Y-23603448D01*
X57232515Y-23610547D01*
X57248726Y-23620090D01*
X57261951Y-23629295D01*
X57329264Y-23658181D01*
X57334954Y-23660795D01*
X57359785Y-23672976D01*
X57400724Y-23693058D01*
X57400726Y-23693058D01*
X57400729Y-23693060D01*
X57416316Y-23697095D01*
X57434128Y-23703182D01*
X57448942Y-23709540D01*
X57520700Y-23724285D01*
X57526779Y-23725695D01*
X57597711Y-23744062D01*
X57597715Y-23744063D01*
X57613807Y-23744879D01*
X57632480Y-23747257D01*
X57641413Y-23749093D01*
X57648258Y-23750500D01*
X57648259Y-23750500D01*
X57721500Y-23750500D01*
X57727778Y-23750658D01*
X57800936Y-23754369D01*
X57816857Y-23751930D01*
X57835633Y-23750500D01*
X57977625Y-23750500D01*
X58026523Y-23760548D01*
X58079264Y-23783181D01*
X58084951Y-23785794D01*
X58150729Y-23818060D01*
X58166316Y-23822095D01*
X58184128Y-23828182D01*
X58198942Y-23834540D01*
X58270708Y-23849287D01*
X58276801Y-23850701D01*
X58285444Y-23852939D01*
X58285748Y-23853018D01*
X58339542Y-23884684D01*
X58340168Y-23883956D01*
X58344233Y-23887446D01*
X58344529Y-23887620D01*
X58344940Y-23888052D01*
X58344943Y-23888055D01*
X58398806Y-23925544D01*
X58422056Y-23946549D01*
X58435079Y-23961719D01*
X58446222Y-23976894D01*
X58454745Y-23990567D01*
X58454749Y-23990573D01*
X58484303Y-24021663D01*
X58510698Y-24072179D01*
X58513045Y-24071443D01*
X58519749Y-24092814D01*
X58524003Y-24111147D01*
X58526442Y-24127064D01*
X58526443Y-24127068D01*
X58551880Y-24195755D01*
X58553911Y-24201696D01*
X58555450Y-24206601D01*
X58557178Y-24274805D01*
X58552902Y-24291319D01*
X58546815Y-24309129D01*
X58540460Y-24323939D01*
X58540458Y-24323945D01*
X58525712Y-24395700D01*
X58524294Y-24401815D01*
X58521984Y-24410738D01*
X58490316Y-24464543D01*
X58491044Y-24465168D01*
X58487562Y-24469223D01*
X58487387Y-24469522D01*
X58486949Y-24469938D01*
X58486947Y-24469939D01*
X58449450Y-24523812D01*
X58428444Y-24547062D01*
X58413280Y-24560079D01*
X58398114Y-24571216D01*
X58384430Y-24579746D01*
X58384427Y-24579749D01*
X58331337Y-24630213D01*
X58326680Y-24634421D01*
X58280689Y-24673905D01*
X58237043Y-24698132D01*
X58233055Y-24699383D01*
X58228408Y-24700842D01*
X58214323Y-24708660D01*
X58197219Y-24716519D01*
X58182115Y-24722113D01*
X58182108Y-24722116D01*
X58119959Y-24760854D01*
X58114546Y-24764040D01*
X58050506Y-24799585D01*
X58050499Y-24799590D01*
X58038278Y-24810081D01*
X58023114Y-24821216D01*
X58009430Y-24829746D01*
X58009427Y-24829749D01*
X57956338Y-24880213D01*
X57951679Y-24884422D01*
X57896109Y-24932129D01*
X57896102Y-24932136D01*
X57886243Y-24944872D01*
X57873631Y-24958832D01*
X57861949Y-24969938D01*
X57861948Y-24969939D01*
X57820111Y-25030046D01*
X57816396Y-25035106D01*
X57771550Y-25093043D01*
X57764452Y-25107513D01*
X57754907Y-25123728D01*
X57745706Y-25136948D01*
X57745705Y-25136949D01*
X57716818Y-25204262D01*
X57714197Y-25209965D01*
X57681939Y-25275729D01*
X57681938Y-25275733D01*
X57677901Y-25291324D01*
X57671815Y-25309129D01*
X57665461Y-25323937D01*
X57650716Y-25395687D01*
X57649296Y-25401805D01*
X57630936Y-25472716D01*
X57630119Y-25488811D01*
X57627743Y-25507474D01*
X57624500Y-25523260D01*
X57624500Y-25596499D01*
X57624341Y-25602779D01*
X57620631Y-25675935D01*
X57620631Y-25675936D01*
X57623070Y-25691857D01*
X57624500Y-25710633D01*
X57624500Y-27662728D01*
X57604815Y-27729767D01*
X57552011Y-27775522D01*
X57482853Y-27785466D01*
X57419297Y-27756441D01*
X57409269Y-27746709D01*
X57405087Y-27742166D01*
X57371936Y-27716364D01*
X57364113Y-27709737D01*
X57326347Y-27674969D01*
X57301278Y-27642760D01*
X57300420Y-27641175D01*
X57300130Y-27640908D01*
X57280297Y-27617491D01*
X57280084Y-27617164D01*
X57280082Y-27617162D01*
X57246936Y-27591364D01*
X57239113Y-27584737D01*
X57201347Y-27549969D01*
X57176278Y-27517760D01*
X57175420Y-27516175D01*
X57175130Y-27515908D01*
X57155297Y-27492491D01*
X57155084Y-27492164D01*
X57155082Y-27492162D01*
X57121936Y-27466364D01*
X57114113Y-27459737D01*
X57076347Y-27424969D01*
X57051278Y-27392760D01*
X57050420Y-27391175D01*
X57050130Y-27390908D01*
X57030297Y-27367491D01*
X57030084Y-27367164D01*
X57030082Y-27367162D01*
X56996936Y-27341364D01*
X56989113Y-27334737D01*
X56951347Y-27299969D01*
X56926278Y-27267760D01*
X56925420Y-27266175D01*
X56925130Y-27265908D01*
X56905297Y-27242491D01*
X56905084Y-27242164D01*
X56905082Y-27242162D01*
X56871936Y-27216364D01*
X56864123Y-27209746D01*
X56833219Y-27181297D01*
X56833216Y-27181294D01*
X56832848Y-27181133D01*
X56806505Y-27165437D01*
X56806189Y-27165191D01*
X56766461Y-27151552D01*
X56756916Y-27147827D01*
X56709047Y-27126830D01*
X56709616Y-27125531D01*
X56658900Y-27095566D01*
X56627511Y-27033144D01*
X56625500Y-27010904D01*
X56625500Y-26409001D01*
X56645185Y-26341962D01*
X56667268Y-26316190D01*
X56778183Y-26217929D01*
X56874818Y-26077930D01*
X56935140Y-25918872D01*
X56955645Y-25750000D01*
X56935140Y-25581128D01*
X56874818Y-25422070D01*
X56778183Y-25282071D01*
X56665519Y-25182260D01*
X56650849Y-25169263D01*
X56500226Y-25090210D01*
X56335056Y-25049500D01*
X56164944Y-25049500D01*
X55999773Y-25090210D01*
X55849150Y-25169263D01*
X55721816Y-25282072D01*
X55625182Y-25422068D01*
X55562200Y-25588142D01*
X55559199Y-25587003D01*
X55531211Y-25634868D01*
X55468933Y-25666541D01*
X55399417Y-25659516D01*
X55344735Y-25616023D01*
X55326872Y-25578588D01*
X55322444Y-25563026D01*
X55270582Y-25380750D01*
X55179673Y-25198179D01*
X55063268Y-25044034D01*
X55056762Y-25035418D01*
X54906041Y-24898019D01*
X54906039Y-24898017D01*
X54732642Y-24790655D01*
X54732635Y-24790651D01*
X54601981Y-24740036D01*
X54542456Y-24716976D01*
X54341976Y-24679500D01*
X54138024Y-24679500D01*
X53937544Y-24716976D01*
X53937541Y-24716976D01*
X53937541Y-24716977D01*
X53747364Y-24790651D01*
X53747357Y-24790655D01*
X53573960Y-24898017D01*
X53573958Y-24898019D01*
X53423237Y-25035418D01*
X53300327Y-25198178D01*
X53209422Y-25380739D01*
X53209417Y-25380752D01*
X53153602Y-25576917D01*
X53134785Y-25779999D01*
X53134785Y-25780000D01*
X53153602Y-25983082D01*
X53209417Y-26179247D01*
X53209422Y-26179260D01*
X53300327Y-26361821D01*
X53423237Y-26524581D01*
X53573958Y-26661980D01*
X53573960Y-26661982D01*
X53590720Y-26672359D01*
X53747363Y-26769348D01*
X53937544Y-26843024D01*
X54138024Y-26880500D01*
X54138026Y-26880500D01*
X54341974Y-26880500D01*
X54341976Y-26880500D01*
X54542456Y-26843024D01*
X54732637Y-26769348D01*
X54906041Y-26661981D01*
X55056764Y-26524579D01*
X55179673Y-26361821D01*
X55270582Y-26179250D01*
X55326397Y-25983083D01*
X55328569Y-25959636D01*
X55354353Y-25894700D01*
X55411152Y-25854011D01*
X55480933Y-25850489D01*
X55541541Y-25885253D01*
X55567982Y-25927105D01*
X55625182Y-26077930D01*
X55625182Y-26077931D01*
X55678438Y-26155084D01*
X55721817Y-26217929D01*
X55832728Y-26316187D01*
X55869853Y-26375374D01*
X55874500Y-26409001D01*
X55874500Y-27479344D01*
X55874076Y-27489585D01*
X55870607Y-27531437D01*
X55880918Y-27572157D01*
X55883020Y-27582182D01*
X55889933Y-27623608D01*
X55890122Y-27623956D01*
X55901272Y-27652528D01*
X55901371Y-27652919D01*
X55901373Y-27652925D01*
X55924342Y-27688081D01*
X55929586Y-27696882D01*
X55949579Y-27733824D01*
X55949869Y-27734091D01*
X55969697Y-27757501D01*
X55969916Y-27757836D01*
X55969919Y-27757838D01*
X56003058Y-27783632D01*
X56010879Y-27790256D01*
X56041777Y-27818700D01*
X56041779Y-27818701D01*
X56041781Y-27818703D01*
X56042144Y-27818862D01*
X56068499Y-27834566D01*
X56068811Y-27834809D01*
X56108544Y-27848448D01*
X56118068Y-27852164D01*
X56156546Y-27869043D01*
X56156941Y-27869075D01*
X56186963Y-27875371D01*
X56187339Y-27875500D01*
X56187340Y-27875500D01*
X56229345Y-27875500D01*
X56239586Y-27875924D01*
X56281433Y-27879392D01*
X56281434Y-27879391D01*
X56281437Y-27879392D01*
X56281438Y-27879391D01*
X56286585Y-27878965D01*
X56355021Y-27893044D01*
X56372987Y-27904684D01*
X56378070Y-27908641D01*
X56385879Y-27915256D01*
X56423651Y-27950028D01*
X56448719Y-27982234D01*
X56449581Y-27983826D01*
X56449869Y-27984091D01*
X56469697Y-28007501D01*
X56469916Y-28007836D01*
X56469919Y-28007838D01*
X56503058Y-28033632D01*
X56510879Y-28040256D01*
X56548651Y-28075028D01*
X56573719Y-28107234D01*
X56574581Y-28108826D01*
X56574869Y-28109091D01*
X56594697Y-28132501D01*
X56594916Y-28132836D01*
X56594919Y-28132838D01*
X56628058Y-28158632D01*
X56635879Y-28165256D01*
X56673651Y-28200028D01*
X56698719Y-28232234D01*
X56699581Y-28233826D01*
X56699869Y-28234091D01*
X56719697Y-28257501D01*
X56725534Y-28266435D01*
X56723376Y-28267844D01*
X56747650Y-28317019D01*
X56749500Y-28338357D01*
X56749500Y-29215998D01*
X56729815Y-29283037D01*
X56707727Y-29308813D01*
X56596818Y-29407069D01*
X56500182Y-29547068D01*
X56439860Y-29706125D01*
X56439859Y-29706130D01*
X56419355Y-29875000D01*
X56439859Y-30043869D01*
X56439860Y-30043874D01*
X56500182Y-30202931D01*
X56552122Y-30278178D01*
X56596817Y-30342929D01*
X56694038Y-30429059D01*
X56724150Y-30455736D01*
X56874773Y-30534789D01*
X56874775Y-30534790D01*
X57039944Y-30575500D01*
X57210056Y-30575500D01*
X57375225Y-30534790D01*
X57415816Y-30513485D01*
X57442874Y-30499285D01*
X57511382Y-30485559D01*
X57576435Y-30511051D01*
X57617380Y-30567667D01*
X57624500Y-30609081D01*
X57624500Y-41992849D01*
X57604815Y-42059888D01*
X57569391Y-42095950D01*
X57532650Y-42120500D01*
X57489399Y-42149399D01*
X57434033Y-42232260D01*
X57434032Y-42232264D01*
X57419500Y-42305321D01*
X57419500Y-44354678D01*
X57434032Y-44427735D01*
X57434033Y-44427739D01*
X57434034Y-44427740D01*
X57489399Y-44510601D01*
X57547383Y-44549344D01*
X57572260Y-44565966D01*
X57572264Y-44565967D01*
X57645321Y-44580499D01*
X57645324Y-44580500D01*
X57645326Y-44580500D01*
X59694676Y-44580500D01*
X59694677Y-44580499D01*
X59767740Y-44565966D01*
X59850601Y-44510601D01*
X59905966Y-44427740D01*
X59920500Y-44354674D01*
X59920500Y-44061862D01*
X59940185Y-43994823D01*
X59992989Y-43949068D01*
X60062147Y-43939124D01*
X60125703Y-43968149D01*
X60146071Y-43990734D01*
X60248402Y-44136877D01*
X60403123Y-44291598D01*
X60582361Y-44417102D01*
X60780670Y-44509575D01*
X60992023Y-44566207D01*
X61174926Y-44582208D01*
X61209998Y-44585277D01*
X61210000Y-44585277D01*
X61210002Y-44585277D01*
X61238254Y-44582805D01*
X61427977Y-44566207D01*
X61639330Y-44509575D01*
X61837639Y-44417102D01*
X62016877Y-44291598D01*
X62171598Y-44136877D01*
X62297102Y-43957639D01*
X62367895Y-43805822D01*
X62414066Y-43753385D01*
X62481260Y-43734233D01*
X62548141Y-43754449D01*
X62592658Y-43805824D01*
X62663333Y-43957387D01*
X62735996Y-44061161D01*
X63207937Y-43589220D01*
X63225901Y-43632588D01*
X63322075Y-43757925D01*
X63447412Y-43854099D01*
X63490778Y-43872062D01*
X63018837Y-44344002D01*
X63122612Y-44416667D01*
X63320840Y-44509101D01*
X63320849Y-44509105D01*
X63532105Y-44565710D01*
X63532115Y-44565712D01*
X63749999Y-44584775D01*
X63750001Y-44584775D01*
X63967884Y-44565712D01*
X63967894Y-44565710D01*
X64179150Y-44509105D01*
X64179164Y-44509100D01*
X64377383Y-44416669D01*
X64377391Y-44416665D01*
X64481161Y-44344003D01*
X64009220Y-43872062D01*
X64052588Y-43854099D01*
X64177925Y-43757925D01*
X64274099Y-43632589D01*
X64292062Y-43589220D01*
X64764003Y-44061161D01*
X64836665Y-43957391D01*
X64836669Y-43957383D01*
X64907618Y-43805233D01*
X64953790Y-43752793D01*
X65020983Y-43733641D01*
X65087865Y-43753856D01*
X65132382Y-43805232D01*
X65203333Y-43957387D01*
X65275996Y-44061161D01*
X65747937Y-43589219D01*
X65765901Y-43632588D01*
X65862075Y-43757925D01*
X65987412Y-43854099D01*
X66030778Y-43872062D01*
X65558837Y-44344002D01*
X65662612Y-44416667D01*
X65860840Y-44509101D01*
X65860849Y-44509105D01*
X66072105Y-44565710D01*
X66072115Y-44565712D01*
X66289999Y-44584775D01*
X66290001Y-44584775D01*
X66507884Y-44565712D01*
X66507894Y-44565710D01*
X66719150Y-44509105D01*
X66719164Y-44509100D01*
X66917383Y-44416669D01*
X66917391Y-44416665D01*
X67021161Y-44344003D01*
X66549220Y-43872062D01*
X66592588Y-43854099D01*
X66717925Y-43757925D01*
X66814099Y-43632589D01*
X66832062Y-43589220D01*
X67304003Y-44061161D01*
X67376664Y-43957392D01*
X67447340Y-43805825D01*
X67493512Y-43753386D01*
X67560706Y-43734233D01*
X67627587Y-43754448D01*
X67672105Y-43805824D01*
X67742897Y-43957638D01*
X67742898Y-43957639D01*
X67868402Y-44136877D01*
X68023123Y-44291598D01*
X68202361Y-44417102D01*
X68400670Y-44509575D01*
X68612023Y-44566207D01*
X68794926Y-44582208D01*
X68829998Y-44585277D01*
X68830000Y-44585277D01*
X68830002Y-44585277D01*
X68858254Y-44582805D01*
X69047977Y-44566207D01*
X69259330Y-44509575D01*
X69457639Y-44417102D01*
X69636877Y-44291598D01*
X69791598Y-44136877D01*
X69917102Y-43957639D01*
X69987618Y-43806416D01*
X70033789Y-43753978D01*
X70100982Y-43734826D01*
X70167864Y-43755041D01*
X70212381Y-43806417D01*
X70282896Y-43957638D01*
X70282897Y-43957639D01*
X70408401Y-44136877D01*
X70563122Y-44291598D01*
X70742360Y-44417102D01*
X70940669Y-44509575D01*
X71152022Y-44566207D01*
X71334925Y-44582208D01*
X71369997Y-44585277D01*
X71369999Y-44585277D01*
X71370001Y-44585277D01*
X71398253Y-44582805D01*
X71587976Y-44566207D01*
X71799329Y-44509575D01*
X71997638Y-44417102D01*
X72176876Y-44291598D01*
X72331597Y-44136877D01*
X72457101Y-43957639D01*
X72549574Y-43759330D01*
X72606206Y-43547977D01*
X72622921Y-43356917D01*
X72625276Y-43330002D01*
X72625276Y-43329997D01*
X72621568Y-43287618D01*
X72606206Y-43112023D01*
X72556457Y-42926358D01*
X72549576Y-42900677D01*
X72549575Y-42900676D01*
X72549574Y-42900670D01*
X72457101Y-42702362D01*
X72457098Y-42702358D01*
X72457098Y-42702357D01*
X72331598Y-42523124D01*
X72267974Y-42459500D01*
X72176876Y-42368402D01*
X72008495Y-42250500D01*
X71997637Y-42242897D01*
X71898483Y-42196661D01*
X71799329Y-42150425D01*
X71799325Y-42150424D01*
X71799321Y-42150422D01*
X71587976Y-42093793D01*
X71370001Y-42074723D01*
X71369997Y-42074723D01*
X71245751Y-42085593D01*
X71152022Y-42093793D01*
X71152019Y-42093793D01*
X70940676Y-42150422D01*
X70940667Y-42150426D01*
X70742360Y-42242898D01*
X70742356Y-42242900D01*
X70563120Y-42368402D01*
X70408401Y-42523121D01*
X70282899Y-42702357D01*
X70282897Y-42702362D01*
X70212381Y-42853582D01*
X70166208Y-42906021D01*
X70099014Y-42925173D01*
X70032133Y-42904957D01*
X69987617Y-42853582D01*
X69917102Y-42702362D01*
X69917099Y-42702358D01*
X69917099Y-42702357D01*
X69791599Y-42523124D01*
X69727975Y-42459500D01*
X69636877Y-42368402D01*
X69468496Y-42250500D01*
X69457638Y-42242897D01*
X69358484Y-42196661D01*
X69259330Y-42150425D01*
X69259326Y-42150424D01*
X69259322Y-42150422D01*
X69047977Y-42093793D01*
X68830002Y-42074723D01*
X68829998Y-42074723D01*
X68705752Y-42085593D01*
X68612023Y-42093793D01*
X68612020Y-42093793D01*
X68400677Y-42150422D01*
X68400668Y-42150426D01*
X68202361Y-42242898D01*
X68202357Y-42242900D01*
X68023121Y-42368402D01*
X67868402Y-42523121D01*
X67742900Y-42702357D01*
X67742900Y-42702358D01*
X67742898Y-42702361D01*
X67742898Y-42702362D01*
X67737991Y-42712886D01*
X67672105Y-42854176D01*
X67625932Y-42906615D01*
X67558738Y-42925766D01*
X67491857Y-42905550D01*
X67447341Y-42854175D01*
X67376666Y-42702613D01*
X67304001Y-42598837D01*
X66832061Y-43070778D01*
X66814099Y-43027412D01*
X66717925Y-42902075D01*
X66592588Y-42805901D01*
X66549219Y-42787937D01*
X67021161Y-42315996D01*
X66917387Y-42243333D01*
X66719159Y-42150898D01*
X66719150Y-42150894D01*
X66507894Y-42094289D01*
X66507884Y-42094287D01*
X66290001Y-42075225D01*
X66289999Y-42075225D01*
X66072115Y-42094287D01*
X66072105Y-42094289D01*
X65860849Y-42150894D01*
X65860840Y-42150898D01*
X65662614Y-42243332D01*
X65662612Y-42243333D01*
X65558838Y-42315996D01*
X65558837Y-42315996D01*
X66030779Y-42787937D01*
X65987412Y-42805901D01*
X65862075Y-42902075D01*
X65765901Y-43027411D01*
X65747937Y-43070779D01*
X65275996Y-42598837D01*
X65275996Y-42598838D01*
X65203333Y-42702612D01*
X65203332Y-42702614D01*
X65132382Y-42854767D01*
X65086209Y-42907206D01*
X65019016Y-42926358D01*
X64952135Y-42906142D01*
X64907618Y-42854767D01*
X64836667Y-42702613D01*
X64764001Y-42598837D01*
X64292061Y-43070778D01*
X64274099Y-43027412D01*
X64177925Y-42902075D01*
X64052588Y-42805901D01*
X64009219Y-42787937D01*
X64481161Y-42315996D01*
X64377387Y-42243333D01*
X64179159Y-42150898D01*
X64179150Y-42150894D01*
X63967894Y-42094289D01*
X63967884Y-42094287D01*
X63750001Y-42075225D01*
X63749999Y-42075225D01*
X63532115Y-42094287D01*
X63532105Y-42094289D01*
X63320849Y-42150894D01*
X63320840Y-42150898D01*
X63122614Y-42243332D01*
X63122612Y-42243333D01*
X63018838Y-42315996D01*
X63018837Y-42315996D01*
X63490779Y-42787937D01*
X63447412Y-42805901D01*
X63322075Y-42902075D01*
X63225901Y-43027411D01*
X63207937Y-43070779D01*
X62735996Y-42598837D01*
X62735996Y-42598838D01*
X62663333Y-42702612D01*
X62663332Y-42702614D01*
X62592658Y-42854175D01*
X62546485Y-42906614D01*
X62479292Y-42925766D01*
X62412411Y-42905550D01*
X62367894Y-42854175D01*
X62358402Y-42833820D01*
X62297102Y-42702362D01*
X62297099Y-42702358D01*
X62297099Y-42702357D01*
X62171599Y-42523124D01*
X62107975Y-42459500D01*
X62016877Y-42368402D01*
X61848496Y-42250500D01*
X61837638Y-42242897D01*
X61738484Y-42196661D01*
X61639330Y-42150425D01*
X61639326Y-42150424D01*
X61639322Y-42150422D01*
X61427977Y-42093793D01*
X61210002Y-42074723D01*
X61209998Y-42074723D01*
X61085752Y-42085593D01*
X60992023Y-42093793D01*
X60992020Y-42093793D01*
X60780677Y-42150422D01*
X60780668Y-42150426D01*
X60582361Y-42242898D01*
X60582357Y-42242900D01*
X60403121Y-42368402D01*
X60248402Y-42523121D01*
X60146075Y-42669261D01*
X60091498Y-42712886D01*
X60022000Y-42720080D01*
X59959645Y-42688557D01*
X59924231Y-42628327D01*
X59920500Y-42598138D01*
X59920500Y-42305323D01*
X59920499Y-42305321D01*
X59905967Y-42232264D01*
X59905966Y-42232260D01*
X59850601Y-42149399D01*
X59767740Y-42094034D01*
X59767739Y-42094033D01*
X59767736Y-42094032D01*
X59725308Y-42085593D01*
X59663397Y-42053208D01*
X59628823Y-41992492D01*
X59625500Y-41963976D01*
X59625500Y-41543933D01*
X81370668Y-41543933D01*
X81370669Y-41543935D01*
X81372616Y-41554977D01*
X81374500Y-41576509D01*
X81374500Y-45293709D01*
X81388063Y-45409749D01*
X81389759Y-45424256D01*
X81389760Y-45424259D01*
X81449762Y-45589115D01*
X81449764Y-45589119D01*
X81546167Y-45735693D01*
X81546168Y-45735694D01*
X81673778Y-45856089D01*
X81673780Y-45856090D01*
X81673782Y-45856092D01*
X81825719Y-45943812D01*
X81993790Y-45994130D01*
X82168935Y-46004331D01*
X82341711Y-45973865D01*
X82502804Y-45904377D01*
X82643530Y-45799610D01*
X82756302Y-45665214D01*
X82835040Y-45508433D01*
X82875500Y-45337721D01*
X82875500Y-44647870D01*
X83749500Y-44647870D01*
X83749501Y-44647876D01*
X83755908Y-44707483D01*
X83806202Y-44842328D01*
X83806206Y-44842335D01*
X83892452Y-44957544D01*
X83892455Y-44957547D01*
X84007664Y-45043793D01*
X84007671Y-45043797D01*
X84142517Y-45094091D01*
X84142516Y-45094091D01*
X84149444Y-45094835D01*
X84202127Y-45100500D01*
X85797872Y-45100499D01*
X85857483Y-45094091D01*
X85992331Y-45043796D01*
X86107546Y-44957546D01*
X86193796Y-44842331D01*
X86244091Y-44707483D01*
X86250500Y-44647873D01*
X86250499Y-43352128D01*
X86244091Y-43292517D01*
X86193796Y-43157669D01*
X86193795Y-43157668D01*
X86193793Y-43157664D01*
X86107547Y-43042455D01*
X86107544Y-43042452D01*
X85992335Y-42956206D01*
X85992328Y-42956202D01*
X85857482Y-42905908D01*
X85857483Y-42905908D01*
X85797883Y-42899501D01*
X85797881Y-42899500D01*
X85797873Y-42899500D01*
X85797864Y-42899500D01*
X84202129Y-42899500D01*
X84202123Y-42899501D01*
X84142516Y-42905908D01*
X84007671Y-42956202D01*
X84007664Y-42956206D01*
X83892455Y-43042452D01*
X83892452Y-43042455D01*
X83806206Y-43157664D01*
X83806202Y-43157671D01*
X83755908Y-43292517D01*
X83749501Y-43352116D01*
X83749501Y-43352123D01*
X83749500Y-43352135D01*
X83749500Y-44647870D01*
X82875500Y-44647870D01*
X82875500Y-42374500D01*
X82895185Y-42307461D01*
X82947989Y-42261706D01*
X82999500Y-42250500D01*
X83992715Y-42250500D01*
X84059754Y-42270185D01*
X84078284Y-42284756D01*
X84145939Y-42349265D01*
X84166623Y-42368987D01*
X84261578Y-42430011D01*
X84343428Y-42482613D01*
X84538543Y-42560725D01*
X84590065Y-42570655D01*
X84744914Y-42600500D01*
X84744915Y-42600500D01*
X85202419Y-42600500D01*
X85202425Y-42600500D01*
X85359218Y-42585528D01*
X85560875Y-42526316D01*
X85747682Y-42430011D01*
X85912886Y-42300092D01*
X86050519Y-42141256D01*
X86076676Y-42095952D01*
X86155601Y-41959249D01*
X86155600Y-41959249D01*
X86155604Y-41959244D01*
X86224344Y-41760633D01*
X86254254Y-41552602D01*
X86244254Y-41342670D01*
X86194704Y-41138424D01*
X86173452Y-41091889D01*
X86107401Y-40947256D01*
X86107398Y-40947251D01*
X86107397Y-40947250D01*
X86107396Y-40947247D01*
X85985486Y-40776048D01*
X85985484Y-40776046D01*
X85985479Y-40776040D01*
X85833379Y-40631014D01*
X85656574Y-40517388D01*
X85461455Y-40439274D01*
X85255086Y-40399500D01*
X85255085Y-40399500D01*
X84797575Y-40399500D01*
X84640782Y-40414472D01*
X84640778Y-40414473D01*
X84439127Y-40473683D01*
X84252313Y-40569991D01*
X84087116Y-40699905D01*
X84087113Y-40699909D01*
X84081226Y-40706703D01*
X84022448Y-40744477D01*
X83987513Y-40749500D01*
X82150445Y-40749500D01*
X82143235Y-40749290D01*
X82081065Y-40745669D01*
X82081062Y-40745669D01*
X82019719Y-40756485D01*
X82012585Y-40757530D01*
X81950750Y-40764757D01*
X81950743Y-40764759D01*
X81940201Y-40768596D01*
X81919335Y-40774186D01*
X81908297Y-40776132D01*
X81908285Y-40776136D01*
X81851105Y-40800800D01*
X81844406Y-40803461D01*
X81785885Y-40824761D01*
X81785881Y-40824763D01*
X81776502Y-40830931D01*
X81757498Y-40841177D01*
X81747204Y-40845618D01*
X81747189Y-40845626D01*
X81697240Y-40882812D01*
X81691335Y-40886947D01*
X81639306Y-40921168D01*
X81631606Y-40929329D01*
X81615469Y-40943689D01*
X81606470Y-40950388D01*
X81606470Y-40950389D01*
X81566432Y-40998102D01*
X81561641Y-41003486D01*
X81518905Y-41048784D01*
X81513300Y-41058493D01*
X81500909Y-41076191D01*
X81493699Y-41084783D01*
X81465749Y-41140436D01*
X81462327Y-41146781D01*
X81431188Y-41200717D01*
X81431187Y-41200719D01*
X81427968Y-41211470D01*
X81419996Y-41231537D01*
X81414960Y-41241565D01*
X81414959Y-41241569D01*
X81400598Y-41302158D01*
X81398733Y-41309120D01*
X81380869Y-41368792D01*
X81380217Y-41379990D01*
X81377087Y-41401361D01*
X81374500Y-41412279D01*
X81374500Y-41474554D01*
X81374290Y-41481764D01*
X81370668Y-41543933D01*
X59625500Y-41543933D01*
X59625500Y-34734081D01*
X59645185Y-34667042D01*
X59697989Y-34621287D01*
X59767147Y-34611343D01*
X59807126Y-34624285D01*
X59874773Y-34659789D01*
X59874775Y-34659790D01*
X60039944Y-34700500D01*
X60210056Y-34700500D01*
X60375225Y-34659790D01*
X60467532Y-34611343D01*
X60525849Y-34580736D01*
X60525850Y-34580734D01*
X60525852Y-34580734D01*
X60653183Y-34467929D01*
X60663477Y-34453014D01*
X60680014Y-34429059D01*
X60734297Y-34385069D01*
X60782063Y-34375500D01*
X71967937Y-34375500D01*
X72034976Y-34395185D01*
X72069986Y-34429059D01*
X72096815Y-34467927D01*
X72224150Y-34580736D01*
X72374773Y-34659789D01*
X72374775Y-34659790D01*
X72539944Y-34700500D01*
X72710056Y-34700500D01*
X72875225Y-34659790D01*
X72967532Y-34611343D01*
X73025849Y-34580736D01*
X73025850Y-34580734D01*
X73025852Y-34580734D01*
X73153183Y-34467929D01*
X73249818Y-34327930D01*
X73310140Y-34168872D01*
X73330645Y-34000000D01*
X73310140Y-33831128D01*
X73249818Y-33672070D01*
X73153183Y-33532071D01*
X73025852Y-33419266D01*
X73025849Y-33419263D01*
X72875226Y-33340210D01*
X72710056Y-33299500D01*
X72539944Y-33299500D01*
X72374773Y-33340210D01*
X72224150Y-33419263D01*
X72096815Y-33532072D01*
X72069986Y-33570941D01*
X72015703Y-33614931D01*
X71967937Y-33624500D01*
X61739395Y-33624500D01*
X61672356Y-33604815D01*
X61626601Y-33552011D01*
X61616657Y-33482853D01*
X61623453Y-33456529D01*
X61644891Y-33400000D01*
X61685140Y-33293872D01*
X61705645Y-33125000D01*
X61685140Y-32956128D01*
X61624818Y-32797070D01*
X61528183Y-32657071D01*
X61526317Y-32655418D01*
X61417273Y-32558813D01*
X61380146Y-32499624D01*
X61375500Y-32465998D01*
X61375500Y-27824678D01*
X79949500Y-27824678D01*
X79964032Y-27897735D01*
X79964033Y-27897739D01*
X79979410Y-27920752D01*
X80019399Y-27980601D01*
X80098767Y-28033632D01*
X80102260Y-28035966D01*
X80102264Y-28035967D01*
X80175321Y-28050499D01*
X80175324Y-28050500D01*
X80175326Y-28050500D01*
X81824676Y-28050500D01*
X81824677Y-28050499D01*
X81897740Y-28035966D01*
X81980601Y-27980601D01*
X82035966Y-27897740D01*
X82050500Y-27824674D01*
X82050500Y-27000000D01*
X83444919Y-27000000D01*
X83465191Y-27205834D01*
X83525233Y-27403766D01*
X83622731Y-27586171D01*
X83622732Y-27586172D01*
X83626451Y-27590703D01*
X83626452Y-27590703D01*
X84111714Y-27105442D01*
X84114835Y-27125148D01*
X84172359Y-27238045D01*
X84261955Y-27327641D01*
X84374852Y-27385165D01*
X84394556Y-27388285D01*
X83909295Y-27873546D01*
X83913829Y-27877269D01*
X84096233Y-27974766D01*
X84294165Y-28034808D01*
X84500000Y-28055080D01*
X84705834Y-28034808D01*
X84903766Y-27974766D01*
X85086167Y-27877270D01*
X85086177Y-27877263D01*
X85090704Y-27873546D01*
X84605443Y-27388285D01*
X84625148Y-27385165D01*
X84738045Y-27327641D01*
X84827641Y-27238045D01*
X84885165Y-27125148D01*
X84888285Y-27105443D01*
X85373546Y-27590704D01*
X85377263Y-27586177D01*
X85377270Y-27586167D01*
X85474766Y-27403766D01*
X85534808Y-27205834D01*
X85555080Y-27000000D01*
X85534808Y-26794165D01*
X85474766Y-26596233D01*
X85377269Y-26413829D01*
X85373546Y-26409295D01*
X84888285Y-26894556D01*
X84885165Y-26874852D01*
X84827641Y-26761955D01*
X84738045Y-26672359D01*
X84625148Y-26614835D01*
X84605443Y-26611714D01*
X85090703Y-26126452D01*
X85090703Y-26126451D01*
X85086172Y-26122732D01*
X85086171Y-26122731D01*
X84903766Y-26025233D01*
X84705834Y-25965191D01*
X84500000Y-25944919D01*
X84294165Y-25965191D01*
X84096233Y-26025233D01*
X83913830Y-26122730D01*
X83909295Y-26126452D01*
X84394557Y-26611714D01*
X84374852Y-26614835D01*
X84261955Y-26672359D01*
X84172359Y-26761955D01*
X84114835Y-26874852D01*
X84111714Y-26894557D01*
X83626452Y-26409295D01*
X83622730Y-26413830D01*
X83525233Y-26596233D01*
X83465191Y-26794165D01*
X83444919Y-27000000D01*
X82050500Y-27000000D01*
X82050500Y-26175326D01*
X82050500Y-26175323D01*
X82050499Y-26175321D01*
X82035967Y-26102264D01*
X82035966Y-26102260D01*
X82018650Y-26076345D01*
X81980601Y-26019399D01*
X81897740Y-25964034D01*
X81897739Y-25964033D01*
X81897735Y-25964032D01*
X81824677Y-25949500D01*
X81824674Y-25949500D01*
X80175326Y-25949500D01*
X80175323Y-25949500D01*
X80102264Y-25964032D01*
X80102260Y-25964033D01*
X80019399Y-26019399D01*
X79964033Y-26102260D01*
X79964032Y-26102264D01*
X79949500Y-26175321D01*
X79949500Y-27824678D01*
X61375500Y-27824678D01*
X61375500Y-26499500D01*
X61395185Y-26432461D01*
X61447989Y-26386706D01*
X61499500Y-26375500D01*
X62729345Y-26375500D01*
X62739585Y-26375923D01*
X62781437Y-26379392D01*
X62822164Y-26369077D01*
X62832157Y-26366981D01*
X62873610Y-26360065D01*
X62873953Y-26359878D01*
X62902541Y-26348724D01*
X62902922Y-26348628D01*
X62938099Y-26325644D01*
X62946880Y-26320412D01*
X62983826Y-26300419D01*
X62984087Y-26300135D01*
X63007516Y-26280292D01*
X63007836Y-26280084D01*
X63033636Y-26246934D01*
X63040247Y-26239129D01*
X63068703Y-26208219D01*
X63068703Y-26208218D01*
X63075031Y-26201345D01*
X63107244Y-26176275D01*
X63108826Y-26175419D01*
X63109087Y-26175135D01*
X63132516Y-26155292D01*
X63132836Y-26155084D01*
X63158636Y-26121934D01*
X63165247Y-26114129D01*
X63193703Y-26083219D01*
X63193703Y-26083218D01*
X63200031Y-26076345D01*
X63232244Y-26051275D01*
X63233826Y-26050419D01*
X63234087Y-26050135D01*
X63257516Y-26030292D01*
X63257836Y-26030084D01*
X63283636Y-25996934D01*
X63290247Y-25989129D01*
X63318703Y-25958219D01*
X63318703Y-25958218D01*
X63325031Y-25951345D01*
X63357244Y-25926275D01*
X63358826Y-25925419D01*
X63359087Y-25925135D01*
X63382516Y-25905292D01*
X63382836Y-25905084D01*
X63408636Y-25871934D01*
X63415247Y-25864129D01*
X63443703Y-25833219D01*
X63443703Y-25833218D01*
X63450031Y-25826345D01*
X63482244Y-25801275D01*
X63483826Y-25800419D01*
X63484087Y-25800135D01*
X63507516Y-25780292D01*
X63507836Y-25780084D01*
X63533636Y-25746934D01*
X63540248Y-25739127D01*
X63568703Y-25708219D01*
X63568857Y-25707865D01*
X63584575Y-25681489D01*
X63584809Y-25681189D01*
X63598447Y-25641457D01*
X63602165Y-25631928D01*
X63619043Y-25593454D01*
X63619075Y-25593058D01*
X63625370Y-25563036D01*
X63625500Y-25562660D01*
X63625500Y-25520654D01*
X63625924Y-25510413D01*
X63629392Y-25468564D01*
X63629293Y-25468172D01*
X63625500Y-25437737D01*
X63625500Y-21874500D01*
X63645185Y-21807461D01*
X63697989Y-21761706D01*
X63749500Y-21750500D01*
X68354345Y-21750500D01*
X68364585Y-21750923D01*
X68406437Y-21754392D01*
X68447164Y-21744077D01*
X68457157Y-21741981D01*
X68498610Y-21735065D01*
X68498953Y-21734878D01*
X68527541Y-21723724D01*
X68527922Y-21723628D01*
X68563099Y-21700644D01*
X68571880Y-21695412D01*
X68608826Y-21675419D01*
X68609087Y-21675135D01*
X68632516Y-21655292D01*
X68632836Y-21655084D01*
X68658636Y-21621934D01*
X68665247Y-21614129D01*
X68693703Y-21583219D01*
X68693703Y-21583218D01*
X68700031Y-21576345D01*
X68732244Y-21551275D01*
X68733826Y-21550419D01*
X68734087Y-21550135D01*
X68757516Y-21530292D01*
X68757836Y-21530084D01*
X68783636Y-21496934D01*
X68790247Y-21489129D01*
X68818703Y-21458219D01*
X68818703Y-21458218D01*
X68825031Y-21451345D01*
X68857244Y-21426275D01*
X68858826Y-21425419D01*
X68859087Y-21425135D01*
X68882516Y-21405292D01*
X68882836Y-21405084D01*
X68908636Y-21371934D01*
X68915247Y-21364129D01*
X68943703Y-21333219D01*
X68943703Y-21333218D01*
X68950031Y-21326345D01*
X68982244Y-21301275D01*
X68983826Y-21300419D01*
X68984087Y-21300135D01*
X69007516Y-21280292D01*
X69007836Y-21280084D01*
X69033636Y-21246934D01*
X69040247Y-21239129D01*
X69068703Y-21208219D01*
X69068703Y-21208218D01*
X69075031Y-21201345D01*
X69107244Y-21176275D01*
X69108826Y-21175419D01*
X69109087Y-21175135D01*
X69132516Y-21155292D01*
X69132836Y-21155084D01*
X69158636Y-21121934D01*
X69165248Y-21114127D01*
X69193703Y-21083219D01*
X69193857Y-21082865D01*
X69209575Y-21056489D01*
X69209809Y-21056189D01*
X69223447Y-21016457D01*
X69227170Y-21006919D01*
X69243379Y-20969967D01*
X69288335Y-20916481D01*
X69355071Y-20895792D01*
X69422399Y-20914467D01*
X69458983Y-20949336D01*
X69471815Y-20967927D01*
X69471817Y-20967929D01*
X69477962Y-20973373D01*
X69599150Y-21080736D01*
X69741197Y-21155288D01*
X69749775Y-21159790D01*
X69914944Y-21200500D01*
X70085056Y-21200500D01*
X70250225Y-21159790D01*
X70290816Y-21138485D01*
X70317874Y-21124285D01*
X70386382Y-21110559D01*
X70451435Y-21136051D01*
X70492380Y-21192667D01*
X70499500Y-21234081D01*
X70499500Y-21590998D01*
X70479815Y-21658037D01*
X70457727Y-21683813D01*
X70346818Y-21782069D01*
X70250182Y-21922068D01*
X70189860Y-22081125D01*
X70189859Y-22081130D01*
X70169355Y-22250000D01*
X70189859Y-22418869D01*
X70189860Y-22418874D01*
X70250182Y-22577931D01*
X70290300Y-22636051D01*
X70346817Y-22717929D01*
X70401275Y-22766174D01*
X70474150Y-22830736D01*
X70624773Y-22909789D01*
X70624775Y-22909790D01*
X70789944Y-22950500D01*
X70960056Y-22950500D01*
X71125225Y-22909790D01*
X71244710Y-22847079D01*
X71275849Y-22830736D01*
X71275850Y-22830734D01*
X71275852Y-22830734D01*
X71403183Y-22717929D01*
X71499818Y-22577930D01*
X71560140Y-22418872D01*
X71580645Y-22250000D01*
X71560140Y-22081128D01*
X71499818Y-21922070D01*
X71403183Y-21782071D01*
X71403181Y-21782069D01*
X71292273Y-21683813D01*
X71255146Y-21624624D01*
X71250500Y-21590998D01*
X71250500Y-21045074D01*
X71270185Y-20978035D01*
X71322989Y-20932280D01*
X71392147Y-20922336D01*
X71455703Y-20951361D01*
X71467318Y-20962850D01*
X71471814Y-20967925D01*
X71471817Y-20967929D01*
X71571440Y-21056187D01*
X71599150Y-21080736D01*
X71741197Y-21155288D01*
X71749775Y-21159790D01*
X71914944Y-21200500D01*
X72085056Y-21200500D01*
X72250225Y-21159790D01*
X72390354Y-21086244D01*
X72400849Y-21080736D01*
X72400850Y-21080734D01*
X72400852Y-21080734D01*
X72528183Y-20967929D01*
X72540764Y-20949702D01*
X72595045Y-20905713D01*
X72664493Y-20898053D01*
X72727058Y-20929155D01*
X72762876Y-20989146D01*
X72764801Y-20998224D01*
X72764933Y-20998607D01*
X72765122Y-20998956D01*
X72776272Y-21027528D01*
X72776371Y-21027919D01*
X72776373Y-21027925D01*
X72799342Y-21063081D01*
X72804586Y-21071882D01*
X72824579Y-21108824D01*
X72824869Y-21109091D01*
X72844697Y-21132501D01*
X72844916Y-21132836D01*
X72844919Y-21132838D01*
X72878058Y-21158632D01*
X72885879Y-21165256D01*
X72923651Y-21200028D01*
X72948719Y-21232234D01*
X72949581Y-21233826D01*
X72949858Y-21234081D01*
X72949869Y-21234091D01*
X72969697Y-21257501D01*
X72969916Y-21257836D01*
X72969919Y-21257838D01*
X73003058Y-21283632D01*
X73010879Y-21290256D01*
X73048651Y-21325028D01*
X73073719Y-21357234D01*
X73074581Y-21358826D01*
X73074869Y-21359091D01*
X73094697Y-21382501D01*
X73094916Y-21382836D01*
X73094919Y-21382838D01*
X73128058Y-21408632D01*
X73135879Y-21415256D01*
X73173651Y-21450028D01*
X73198719Y-21482234D01*
X73199581Y-21483826D01*
X73199869Y-21484091D01*
X73219697Y-21507501D01*
X73219916Y-21507836D01*
X73219919Y-21507838D01*
X73253058Y-21533632D01*
X73260879Y-21540256D01*
X73298651Y-21575028D01*
X73323719Y-21607234D01*
X73324581Y-21608826D01*
X73324869Y-21609091D01*
X73344697Y-21632501D01*
X73344916Y-21632836D01*
X73344919Y-21632838D01*
X73378058Y-21658632D01*
X73385879Y-21665256D01*
X73416778Y-21693701D01*
X73416779Y-21693701D01*
X73416781Y-21693703D01*
X73417144Y-21693862D01*
X73443499Y-21709566D01*
X73443811Y-21709809D01*
X73483544Y-21723448D01*
X73493068Y-21727164D01*
X73531546Y-21744043D01*
X73531941Y-21744075D01*
X73561963Y-21750371D01*
X73562339Y-21750500D01*
X73562340Y-21750500D01*
X73604345Y-21750500D01*
X73614586Y-21750924D01*
X73656434Y-21754392D01*
X73656434Y-21754391D01*
X73656437Y-21754392D01*
X73656825Y-21754293D01*
X73687263Y-21750500D01*
X78354345Y-21750500D01*
X78364585Y-21750923D01*
X78406437Y-21754392D01*
X78447164Y-21744077D01*
X78457157Y-21741981D01*
X78498610Y-21735065D01*
X78498953Y-21734878D01*
X78527541Y-21723724D01*
X78527922Y-21723628D01*
X78563099Y-21700644D01*
X78571880Y-21695412D01*
X78608826Y-21675419D01*
X78609087Y-21675135D01*
X78632516Y-21655292D01*
X78632836Y-21655084D01*
X78658636Y-21621934D01*
X78665247Y-21614129D01*
X78693703Y-21583219D01*
X78693703Y-21583218D01*
X78700031Y-21576345D01*
X78732244Y-21551275D01*
X78733826Y-21550419D01*
X78734087Y-21550135D01*
X78757516Y-21530292D01*
X78757836Y-21530084D01*
X78783636Y-21496934D01*
X78790247Y-21489129D01*
X78818703Y-21458219D01*
X78818703Y-21458218D01*
X78825031Y-21451345D01*
X78857244Y-21426275D01*
X78858826Y-21425419D01*
X78859087Y-21425135D01*
X78882516Y-21405292D01*
X78882836Y-21405084D01*
X78908636Y-21371934D01*
X78915247Y-21364129D01*
X78943703Y-21333219D01*
X78943703Y-21333218D01*
X78950031Y-21326345D01*
X78982244Y-21301275D01*
X78983826Y-21300419D01*
X78984087Y-21300135D01*
X79007516Y-21280292D01*
X79007836Y-21280084D01*
X79033636Y-21246934D01*
X79040247Y-21239129D01*
X79068703Y-21208219D01*
X79068703Y-21208218D01*
X79075031Y-21201345D01*
X79107244Y-21176275D01*
X79108826Y-21175419D01*
X79109087Y-21175135D01*
X79132516Y-21155292D01*
X79132836Y-21155084D01*
X79158636Y-21121934D01*
X79165248Y-21114127D01*
X79193703Y-21083219D01*
X79193857Y-21082865D01*
X79209575Y-21056489D01*
X79209809Y-21056189D01*
X79223447Y-21016457D01*
X79227165Y-21006928D01*
X79244043Y-20968454D01*
X79244075Y-20968058D01*
X79250370Y-20938036D01*
X79250500Y-20937660D01*
X79250500Y-20895654D01*
X79250924Y-20885413D01*
X79251746Y-20875500D01*
X79254392Y-20843563D01*
X79254293Y-20843172D01*
X79250500Y-20812737D01*
X79250500Y-20409001D01*
X79270185Y-20341962D01*
X79292268Y-20316190D01*
X79403183Y-20217929D01*
X79499818Y-20077930D01*
X79560140Y-19918872D01*
X79580645Y-19750000D01*
X79560140Y-19581128D01*
X79499818Y-19422070D01*
X79499817Y-19422069D01*
X79498453Y-19418471D01*
X79493086Y-19348807D01*
X79526234Y-19287301D01*
X79587372Y-19253480D01*
X79614395Y-19250500D01*
X81354345Y-19250500D01*
X81364585Y-19250923D01*
X81406437Y-19254392D01*
X81447164Y-19244077D01*
X81457157Y-19241981D01*
X81498610Y-19235065D01*
X81498953Y-19234878D01*
X81527541Y-19223724D01*
X81527922Y-19223628D01*
X81563099Y-19200644D01*
X81571880Y-19195412D01*
X81608826Y-19175419D01*
X81609087Y-19175135D01*
X81632516Y-19155292D01*
X81632836Y-19155084D01*
X81658636Y-19121934D01*
X81665247Y-19114129D01*
X81693703Y-19083219D01*
X81693703Y-19083218D01*
X81700031Y-19076345D01*
X81732244Y-19051275D01*
X81733826Y-19050419D01*
X81734087Y-19050135D01*
X81757516Y-19030292D01*
X81757836Y-19030084D01*
X81783636Y-18996934D01*
X81790247Y-18989129D01*
X81818703Y-18958219D01*
X81818703Y-18958218D01*
X81825031Y-18951345D01*
X81857244Y-18926275D01*
X81858826Y-18925419D01*
X81859087Y-18925135D01*
X81882516Y-18905292D01*
X81882836Y-18905084D01*
X81908636Y-18871934D01*
X81915247Y-18864129D01*
X81943703Y-18833219D01*
X81943703Y-18833218D01*
X81950031Y-18826345D01*
X81982244Y-18801275D01*
X81983826Y-18800419D01*
X81984087Y-18800135D01*
X82007516Y-18780292D01*
X82007836Y-18780084D01*
X82033636Y-18746934D01*
X82040247Y-18739129D01*
X82068703Y-18708219D01*
X82068703Y-18708218D01*
X82075031Y-18701345D01*
X82107244Y-18676275D01*
X82108826Y-18675419D01*
X82109087Y-18675135D01*
X82132516Y-18655292D01*
X82132836Y-18655084D01*
X82158636Y-18621934D01*
X82165248Y-18614127D01*
X82193703Y-18583219D01*
X82193857Y-18582865D01*
X82209575Y-18556489D01*
X82209809Y-18556189D01*
X82223447Y-18516457D01*
X82227165Y-18506928D01*
X82244043Y-18468454D01*
X82244043Y-18468453D01*
X82248171Y-18459043D01*
X82249471Y-18459613D01*
X82279426Y-18408906D01*
X82341846Y-18377512D01*
X82364095Y-18375500D01*
X84342937Y-18375500D01*
X84409976Y-18395185D01*
X84444986Y-18429059D01*
X84471815Y-18467927D01*
X84471816Y-18467928D01*
X84471817Y-18467929D01*
X84515826Y-18506917D01*
X84599150Y-18580736D01*
X84741197Y-18655288D01*
X84749775Y-18659790D01*
X84914944Y-18700500D01*
X85085056Y-18700500D01*
X85250225Y-18659790D01*
X85337252Y-18614114D01*
X85400849Y-18580736D01*
X85400850Y-18580734D01*
X85400852Y-18580734D01*
X85528183Y-18467929D01*
X85624818Y-18327930D01*
X85685140Y-18168872D01*
X85705645Y-18000000D01*
X85685140Y-17831128D01*
X85624818Y-17672070D01*
X85622880Y-17669263D01*
X85589295Y-17620607D01*
X85528183Y-17532071D01*
X85400852Y-17419266D01*
X85400849Y-17419263D01*
X85250226Y-17340210D01*
X85085056Y-17299500D01*
X84914944Y-17299500D01*
X84749773Y-17340210D01*
X84599150Y-17419263D01*
X84471815Y-17532072D01*
X84444986Y-17570941D01*
X84390703Y-17614931D01*
X84342937Y-17624500D01*
X81895655Y-17624500D01*
X81885414Y-17624076D01*
X81843562Y-17620607D01*
X81802845Y-17630918D01*
X81792819Y-17633020D01*
X81751392Y-17639933D01*
X81751387Y-17639935D01*
X81751024Y-17640132D01*
X81722482Y-17651268D01*
X81712130Y-17653891D01*
X81711210Y-17650263D01*
X81660809Y-17656710D01*
X81597713Y-17626698D01*
X81578317Y-17604702D01*
X81560009Y-17578179D01*
X81528183Y-17532071D01*
X81400852Y-17419266D01*
X81400849Y-17419263D01*
X81250226Y-17340210D01*
X81085056Y-17299500D01*
X80914944Y-17299500D01*
X80749773Y-17340210D01*
X80599150Y-17419263D01*
X80471815Y-17532072D01*
X80444986Y-17570941D01*
X80390703Y-17614931D01*
X80342937Y-17624500D01*
X79020655Y-17624500D01*
X79010422Y-17624076D01*
X79003918Y-17623537D01*
X78938736Y-17598380D01*
X78897502Y-17541975D01*
X78893309Y-17472231D01*
X78896229Y-17461669D01*
X78910262Y-17418482D01*
X78925500Y-17273504D01*
X78925500Y-16726496D01*
X78910262Y-16581518D01*
X78850144Y-16396492D01*
X78850143Y-16396490D01*
X78850143Y-16396489D01*
X78850142Y-16396488D01*
X78795223Y-16301366D01*
X78752870Y-16228008D01*
X78701882Y-16171381D01*
X78622697Y-16083435D01*
X78622694Y-16083433D01*
X78622693Y-16083432D01*
X78622692Y-16083431D01*
X78543995Y-16026254D01*
X78465297Y-15969076D01*
X78328848Y-15908326D01*
X78287571Y-15889949D01*
X78287569Y-15889948D01*
X78097274Y-15849500D01*
X77902726Y-15849500D01*
X77712431Y-15889948D01*
X77534702Y-15969076D01*
X77377305Y-16083433D01*
X77377302Y-16083435D01*
X77247129Y-16228009D01*
X77149857Y-16396488D01*
X77149856Y-16396489D01*
X77117931Y-16494748D01*
X77078494Y-16552423D01*
X77014135Y-16579622D01*
X76945289Y-16567708D01*
X76893813Y-16520464D01*
X76882069Y-16494748D01*
X76850143Y-16396489D01*
X76850142Y-16396488D01*
X76795223Y-16301366D01*
X76752870Y-16228008D01*
X76701882Y-16171381D01*
X76622697Y-16083435D01*
X76622694Y-16083433D01*
X76622693Y-16083432D01*
X76622692Y-16083431D01*
X76543995Y-16026254D01*
X76465297Y-15969076D01*
X76328848Y-15908326D01*
X76287571Y-15889949D01*
X76287569Y-15889948D01*
X76097274Y-15849500D01*
X75902726Y-15849500D01*
X75712431Y-15889948D01*
X75534702Y-15969076D01*
X75377305Y-16083433D01*
X75377302Y-16083435D01*
X75247129Y-16228009D01*
X75149857Y-16396488D01*
X75149856Y-16396489D01*
X75117931Y-16494748D01*
X75078494Y-16552423D01*
X75014135Y-16579622D01*
X74945289Y-16567708D01*
X74893813Y-16520464D01*
X74882069Y-16494748D01*
X74850143Y-16396489D01*
X74850142Y-16396488D01*
X74795223Y-16301366D01*
X74752870Y-16228008D01*
X74701882Y-16171381D01*
X74622697Y-16083435D01*
X74622694Y-16083433D01*
X74622693Y-16083432D01*
X74622692Y-16083431D01*
X74543995Y-16026254D01*
X74465297Y-15969076D01*
X74328848Y-15908326D01*
X74287571Y-15889949D01*
X74287569Y-15889948D01*
X74097274Y-15849500D01*
X73902726Y-15849500D01*
X73712431Y-15889948D01*
X73534702Y-15969076D01*
X73377305Y-16083433D01*
X73377302Y-16083435D01*
X73247129Y-16228009D01*
X73149857Y-16396488D01*
X73149856Y-16396489D01*
X73117931Y-16494748D01*
X73078494Y-16552423D01*
X73014135Y-16579622D01*
X72945289Y-16567708D01*
X72893813Y-16520464D01*
X72882069Y-16494748D01*
X72850143Y-16396489D01*
X72850142Y-16396488D01*
X72795223Y-16301366D01*
X72752870Y-16228008D01*
X72701882Y-16171381D01*
X72622697Y-16083435D01*
X72622694Y-16083433D01*
X72622693Y-16083432D01*
X72622692Y-16083431D01*
X72543995Y-16026254D01*
X72465297Y-15969076D01*
X72328848Y-15908326D01*
X72287571Y-15889949D01*
X72287569Y-15889948D01*
X72097274Y-15849500D01*
X71902726Y-15849500D01*
X71712431Y-15889948D01*
X71534702Y-15969076D01*
X71377305Y-16083433D01*
X71377302Y-16083435D01*
X71247129Y-16228009D01*
X71149857Y-16396488D01*
X71149856Y-16396489D01*
X71117931Y-16494748D01*
X71078494Y-16552423D01*
X71014135Y-16579622D01*
X70945289Y-16567708D01*
X70893813Y-16520464D01*
X70882069Y-16494748D01*
X70850143Y-16396489D01*
X70850142Y-16396488D01*
X70795223Y-16301366D01*
X70752870Y-16228008D01*
X70701882Y-16171381D01*
X70622697Y-16083435D01*
X70622694Y-16083433D01*
X70622693Y-16083432D01*
X70622692Y-16083431D01*
X70543995Y-16026254D01*
X70465297Y-15969076D01*
X70328848Y-15908326D01*
X70287571Y-15889949D01*
X70287569Y-15889948D01*
X70097274Y-15849500D01*
X69902726Y-15849500D01*
X69712431Y-15889948D01*
X69534702Y-15969076D01*
X69377305Y-16083433D01*
X69377302Y-16083435D01*
X69247129Y-16228009D01*
X69149857Y-16396488D01*
X69149856Y-16396489D01*
X69117931Y-16494748D01*
X69078494Y-16552423D01*
X69014135Y-16579622D01*
X68945289Y-16567708D01*
X68893813Y-16520464D01*
X68882069Y-16494748D01*
X68850143Y-16396489D01*
X68850142Y-16396488D01*
X68795223Y-16301366D01*
X68752870Y-16228008D01*
X68701882Y-16171381D01*
X68622697Y-16083435D01*
X68622694Y-16083433D01*
X68622693Y-16083432D01*
X68622692Y-16083431D01*
X68543995Y-16026254D01*
X68465297Y-15969076D01*
X68328848Y-15908326D01*
X68287571Y-15889949D01*
X68287569Y-15889948D01*
X68097274Y-15849500D01*
X67902726Y-15849500D01*
X67902725Y-15849500D01*
X67718299Y-15888700D01*
X67648632Y-15883384D01*
X67592899Y-15841247D01*
X67568794Y-15775667D01*
X67583971Y-15707465D01*
X67603560Y-15684559D01*
X67601856Y-15682991D01*
X67608822Y-15675421D01*
X67608826Y-15675419D01*
X67609087Y-15675135D01*
X67632516Y-15655292D01*
X67632836Y-15655084D01*
X67658636Y-15621934D01*
X67665247Y-15614129D01*
X67693703Y-15583219D01*
X67693703Y-15583218D01*
X67700031Y-15576345D01*
X67732244Y-15551275D01*
X67733826Y-15550419D01*
X67734087Y-15550135D01*
X67757516Y-15530292D01*
X67757836Y-15530084D01*
X67783636Y-15496934D01*
X67790247Y-15489129D01*
X67818703Y-15458219D01*
X67818703Y-15458218D01*
X67825031Y-15451345D01*
X67857244Y-15426275D01*
X67858826Y-15425419D01*
X67859087Y-15425135D01*
X67882516Y-15405292D01*
X67882836Y-15405084D01*
X67908636Y-15371934D01*
X67915247Y-15364129D01*
X67943703Y-15333219D01*
X67943703Y-15333218D01*
X67950031Y-15326345D01*
X67982244Y-15301275D01*
X67983826Y-15300419D01*
X67984087Y-15300135D01*
X68007516Y-15280292D01*
X68007836Y-15280084D01*
X68033636Y-15246934D01*
X68040247Y-15239129D01*
X68068703Y-15208219D01*
X68068703Y-15208218D01*
X68075031Y-15201345D01*
X68107244Y-15176275D01*
X68108826Y-15175419D01*
X68109087Y-15175135D01*
X68132516Y-15155292D01*
X68132836Y-15155084D01*
X68158636Y-15121934D01*
X68165248Y-15114127D01*
X68193703Y-15083219D01*
X68193857Y-15082865D01*
X68209575Y-15056489D01*
X68209809Y-15056189D01*
X68223447Y-15016457D01*
X68227165Y-15006928D01*
X68244043Y-14968454D01*
X68244075Y-14968058D01*
X68250370Y-14938036D01*
X68250500Y-14937660D01*
X68250500Y-14895654D01*
X68250924Y-14885413D01*
X68254392Y-14843564D01*
X68254293Y-14843172D01*
X68250500Y-14812737D01*
X68250500Y-14499500D01*
X68270185Y-14432461D01*
X68322989Y-14386706D01*
X68374500Y-14375500D01*
X80342937Y-14375500D01*
X80409976Y-14395185D01*
X80444986Y-14429059D01*
X80471815Y-14467927D01*
X80471816Y-14467928D01*
X80471817Y-14467929D01*
X80530029Y-14519500D01*
X80599150Y-14580736D01*
X80728595Y-14648674D01*
X80749775Y-14659790D01*
X80914944Y-14700500D01*
X81085056Y-14700500D01*
X81250225Y-14659790D01*
X81373831Y-14594916D01*
X81400849Y-14580736D01*
X81400850Y-14580734D01*
X81400852Y-14580734D01*
X81528183Y-14467929D01*
X81624818Y-14327930D01*
X81685140Y-14168872D01*
X81705645Y-14000000D01*
X81685140Y-13831128D01*
X81680468Y-13818810D01*
X81657217Y-13757501D01*
X81624818Y-13672070D01*
X81610459Y-13651268D01*
X81587730Y-13618339D01*
X81528183Y-13532071D01*
X81400852Y-13419266D01*
X81400849Y-13419263D01*
X81250226Y-13340210D01*
X81085056Y-13299500D01*
X80914944Y-13299500D01*
X80749773Y-13340210D01*
X80599150Y-13419263D01*
X80471815Y-13532072D01*
X80444986Y-13570941D01*
X80390703Y-13614931D01*
X80342937Y-13624500D01*
X77614395Y-13624500D01*
X77547356Y-13604815D01*
X77501601Y-13552011D01*
X77491657Y-13482853D01*
X77498453Y-13456529D01*
X77515423Y-13411782D01*
X77560140Y-13293872D01*
X77580645Y-13125000D01*
X77560140Y-12956128D01*
X77499818Y-12797070D01*
X77403183Y-12657071D01*
X77275852Y-12544266D01*
X77275849Y-12544263D01*
X77125226Y-12465210D01*
X76960056Y-12424500D01*
X76789944Y-12424500D01*
X76624774Y-12465209D01*
X76557125Y-12500715D01*
X76488617Y-12514439D01*
X76423564Y-12488947D01*
X76382620Y-12432331D01*
X76375500Y-12390918D01*
X76375500Y-8243035D01*
X76395185Y-8175996D01*
X76447989Y-8130241D01*
X76552743Y-8082401D01*
X76552746Y-8082399D01*
X76552753Y-8082396D01*
X76723952Y-7960486D01*
X76739959Y-7943699D01*
X76868985Y-7808379D01*
X76881597Y-7788755D01*
X76982613Y-7631572D01*
X77060725Y-7436457D01*
X77100500Y-7230085D01*
X77100500Y-7177425D01*
X77399500Y-7177425D01*
X77414472Y-7334218D01*
X77417030Y-7342929D01*
X77473628Y-7535686D01*
X77473684Y-7535875D01*
X77543896Y-7672068D01*
X77569991Y-7722686D01*
X77699905Y-7887883D01*
X77699909Y-7887887D01*
X77858746Y-8025521D01*
X78040750Y-8130601D01*
X78040752Y-8130601D01*
X78040756Y-8130604D01*
X78239367Y-8199344D01*
X78447398Y-8229254D01*
X78657330Y-8219254D01*
X78861576Y-8169704D01*
X78941828Y-8133054D01*
X79052743Y-8082401D01*
X79052746Y-8082399D01*
X79052753Y-8082396D01*
X79223952Y-7960486D01*
X79239959Y-7943699D01*
X79368985Y-7808379D01*
X79381597Y-7788755D01*
X79482613Y-7631572D01*
X79560725Y-7436457D01*
X79600500Y-7230085D01*
X79600500Y-6822575D01*
X79585528Y-6665782D01*
X79526316Y-6464125D01*
X79430011Y-6277318D01*
X79430009Y-6277316D01*
X79430008Y-6277313D01*
X79300094Y-6112116D01*
X79300090Y-6112112D01*
X79141253Y-5974478D01*
X78959249Y-5869398D01*
X78959245Y-5869396D01*
X78959244Y-5869396D01*
X78760633Y-5800656D01*
X78552602Y-5770746D01*
X78552598Y-5770746D01*
X78342672Y-5780745D01*
X78138421Y-5830296D01*
X78138417Y-5830298D01*
X77947256Y-5917598D01*
X77947251Y-5917601D01*
X77776046Y-6039515D01*
X77776040Y-6039520D01*
X77631014Y-6191620D01*
X77517388Y-6368425D01*
X77439274Y-6563544D01*
X77399500Y-6769914D01*
X77399500Y-6769915D01*
X77399500Y-7177425D01*
X77100500Y-7177425D01*
X77100500Y-6822575D01*
X77085528Y-6665782D01*
X77026316Y-6464125D01*
X76930011Y-6277318D01*
X76930009Y-6277316D01*
X76930008Y-6277313D01*
X76800094Y-6112116D01*
X76800090Y-6112112D01*
X76641253Y-5974478D01*
X76459249Y-5869399D01*
X76459247Y-5869398D01*
X76459244Y-5869396D01*
X76459240Y-5869394D01*
X76459231Y-5869390D01*
X76458928Y-5869286D01*
X76458796Y-5869192D01*
X76453867Y-5866941D01*
X76454301Y-5865990D01*
X76402019Y-5828750D01*
X76376060Y-5763882D01*
X76375500Y-5752111D01*
X76375500Y-2968886D01*
X76370236Y-2937340D01*
X76360065Y-2876390D01*
X76300419Y-2766174D01*
X76298372Y-2764289D01*
X76208217Y-2681295D01*
X76093455Y-2630957D01*
X76093449Y-2630956D01*
X75968565Y-2620607D01*
X75847077Y-2651372D01*
X75742165Y-2719914D01*
X75665190Y-2818812D01*
X75665189Y-2818813D01*
X75624500Y-2937338D01*
X75624500Y-5756964D01*
X75604815Y-5824003D01*
X75552013Y-5869758D01*
X75447240Y-5917607D01*
X75276052Y-6039509D01*
X75276040Y-6039520D01*
X75131014Y-6191620D01*
X75017388Y-6368425D01*
X74939274Y-6563544D01*
X74899500Y-6769914D01*
X74899500Y-6769915D01*
X74899500Y-7177425D01*
X74914472Y-7334218D01*
X74917030Y-7342929D01*
X74973628Y-7535686D01*
X74973684Y-7535875D01*
X75043896Y-7672068D01*
X75069991Y-7722686D01*
X75199905Y-7887883D01*
X75199909Y-7887887D01*
X75358746Y-8025521D01*
X75540746Y-8130599D01*
X75540749Y-8130600D01*
X75540756Y-8130604D01*
X75541046Y-8130704D01*
X75541173Y-8130795D01*
X75546121Y-8133054D01*
X75545685Y-8134007D01*
X75597962Y-8171224D01*
X75623937Y-8236085D01*
X75624500Y-8247887D01*
X75624500Y-13104344D01*
X75624076Y-13114585D01*
X75620607Y-13156437D01*
X75630918Y-13197157D01*
X75633020Y-13207182D01*
X75639933Y-13248608D01*
X75640122Y-13248956D01*
X75651272Y-13277528D01*
X75651371Y-13277919D01*
X75651373Y-13277925D01*
X75674342Y-13313081D01*
X75679586Y-13321882D01*
X75699579Y-13358824D01*
X75699869Y-13359091D01*
X75719697Y-13382501D01*
X75719914Y-13382833D01*
X75719916Y-13382836D01*
X75745369Y-13402647D01*
X75786182Y-13459358D01*
X75789855Y-13529131D01*
X75755224Y-13589814D01*
X75693282Y-13622140D01*
X75669206Y-13624500D01*
X67895655Y-13624500D01*
X67885414Y-13624076D01*
X67843562Y-13620607D01*
X67802845Y-13630918D01*
X67792819Y-13633020D01*
X67751392Y-13639933D01*
X67751387Y-13639935D01*
X67751024Y-13640132D01*
X67722482Y-13651268D01*
X67722087Y-13651367D01*
X67722077Y-13651372D01*
X67686908Y-13674348D01*
X67678112Y-13679589D01*
X67641178Y-13699578D01*
X67641165Y-13699588D01*
X67640895Y-13699882D01*
X67617509Y-13719690D01*
X67617167Y-13719912D01*
X67617163Y-13719917D01*
X67591367Y-13753058D01*
X67584749Y-13760872D01*
X67556296Y-13791781D01*
X67556292Y-13791787D01*
X67556129Y-13792161D01*
X67540443Y-13818486D01*
X67540193Y-13818806D01*
X67540191Y-13818810D01*
X67526554Y-13858534D01*
X67522829Y-13868079D01*
X67505957Y-13906543D01*
X67505955Y-13906549D01*
X67505922Y-13906956D01*
X67499634Y-13936946D01*
X67499500Y-13937335D01*
X67499500Y-13979344D01*
X67499076Y-13989585D01*
X67495607Y-14031434D01*
X67495608Y-14031437D01*
X67495706Y-14031825D01*
X67499500Y-14062263D01*
X67499500Y-14542920D01*
X67479815Y-14609959D01*
X67473349Y-14619088D01*
X67466365Y-14628060D01*
X67459747Y-14635873D01*
X67424975Y-14673647D01*
X67392770Y-14698716D01*
X67391177Y-14699578D01*
X67391168Y-14699584D01*
X67390895Y-14699882D01*
X67367509Y-14719690D01*
X67367167Y-14719912D01*
X67367163Y-14719917D01*
X67341367Y-14753058D01*
X67334747Y-14760873D01*
X67299975Y-14798647D01*
X67267770Y-14823716D01*
X67266177Y-14824578D01*
X67266168Y-14824584D01*
X67265895Y-14824882D01*
X67242509Y-14844690D01*
X67242167Y-14844912D01*
X67242163Y-14844917D01*
X67216367Y-14878058D01*
X67209747Y-14885873D01*
X67174975Y-14923647D01*
X67142770Y-14948716D01*
X67141177Y-14949578D01*
X67141172Y-14949581D01*
X67140897Y-14949881D01*
X67117507Y-14969690D01*
X67108570Y-14975530D01*
X67107160Y-14973373D01*
X67057978Y-14997651D01*
X67036642Y-14999500D01*
X62864395Y-14999500D01*
X62797356Y-14979815D01*
X62751601Y-14927011D01*
X62741657Y-14857853D01*
X62748453Y-14831529D01*
X62761401Y-14797387D01*
X62810140Y-14668872D01*
X62830645Y-14500000D01*
X62810140Y-14331128D01*
X62749818Y-14172070D01*
X62747608Y-14168869D01*
X62694443Y-14091846D01*
X62653183Y-14032071D01*
X62652902Y-14031822D01*
X62542273Y-13933813D01*
X62505146Y-13874624D01*
X62500500Y-13840998D01*
X62500500Y-8874500D01*
X62520185Y-8807461D01*
X62572989Y-8761706D01*
X62624500Y-8750500D01*
X67229345Y-8750500D01*
X67239585Y-8750923D01*
X67281437Y-8754392D01*
X67322164Y-8744077D01*
X67332157Y-8741981D01*
X67373610Y-8735065D01*
X67373953Y-8734878D01*
X67402541Y-8723724D01*
X67402922Y-8723628D01*
X67438099Y-8700644D01*
X67446880Y-8695412D01*
X67483826Y-8675419D01*
X67484087Y-8675135D01*
X67507516Y-8655292D01*
X67507836Y-8655084D01*
X67533636Y-8621934D01*
X67540248Y-8614127D01*
X67568703Y-8583219D01*
X67568857Y-8582865D01*
X67584575Y-8556489D01*
X67584809Y-8556189D01*
X67598447Y-8516457D01*
X67602165Y-8506928D01*
X67619043Y-8468454D01*
X67619075Y-8468058D01*
X67625370Y-8438036D01*
X67625500Y-8437660D01*
X67625500Y-8395654D01*
X67625924Y-8385413D01*
X67626746Y-8375500D01*
X67629392Y-8343563D01*
X67629293Y-8343172D01*
X67625500Y-8312737D01*
X67625500Y-8094934D01*
X67645185Y-8027895D01*
X67697989Y-7982140D01*
X67767147Y-7972196D01*
X67830702Y-8001220D01*
X67842361Y-8011323D01*
X67858746Y-8025521D01*
X68040750Y-8130601D01*
X68040752Y-8130601D01*
X68040756Y-8130604D01*
X68239367Y-8199344D01*
X68447398Y-8229254D01*
X68657330Y-8219254D01*
X68861576Y-8169704D01*
X68941828Y-8133054D01*
X69052743Y-8082401D01*
X69052746Y-8082399D01*
X69052753Y-8082396D01*
X69223952Y-7960486D01*
X69239959Y-7943699D01*
X69368985Y-7808379D01*
X69381597Y-7788755D01*
X69482613Y-7631572D01*
X69560725Y-7436457D01*
X69600500Y-7230085D01*
X69600500Y-7177425D01*
X69899500Y-7177425D01*
X69914472Y-7334218D01*
X69917030Y-7342929D01*
X69973628Y-7535686D01*
X69973684Y-7535875D01*
X70043896Y-7672068D01*
X70069991Y-7722686D01*
X70199905Y-7887883D01*
X70199909Y-7887887D01*
X70358746Y-8025521D01*
X70540750Y-8130601D01*
X70540752Y-8130601D01*
X70540756Y-8130604D01*
X70739367Y-8199344D01*
X70947398Y-8229254D01*
X71157330Y-8219254D01*
X71361576Y-8169704D01*
X71441828Y-8133054D01*
X71552743Y-8082401D01*
X71552746Y-8082399D01*
X71552753Y-8082396D01*
X71723952Y-7960486D01*
X71739959Y-7943699D01*
X71868985Y-7808379D01*
X71881597Y-7788755D01*
X71982613Y-7631572D01*
X72060725Y-7436457D01*
X72100500Y-7230085D01*
X72100500Y-7177398D01*
X72400000Y-7177398D01*
X72414965Y-7334122D01*
X72414966Y-7334126D01*
X72474149Y-7535686D01*
X72544672Y-7672483D01*
X72544672Y-7672484D01*
X73053113Y-7164042D01*
X73063481Y-7199351D01*
X73137327Y-7314258D01*
X73240555Y-7403705D01*
X73335690Y-7447151D01*
X72804761Y-7978080D01*
X72859030Y-8025106D01*
X72859041Y-8025114D01*
X73040960Y-8130144D01*
X73040967Y-8130147D01*
X73239481Y-8198854D01*
X73239483Y-8198855D01*
X73447419Y-8228751D01*
X73447421Y-8228752D01*
X73657255Y-8218757D01*
X73861409Y-8169229D01*
X74052498Y-8081963D01*
X74196545Y-7979387D01*
X73664309Y-7447151D01*
X73759445Y-7403705D01*
X73862673Y-7314258D01*
X73936519Y-7199351D01*
X73946886Y-7164043D01*
X74455568Y-7672726D01*
X74455570Y-7672726D01*
X74482164Y-7631347D01*
X74560244Y-7436314D01*
X74600000Y-7230037D01*
X74600000Y-6822601D01*
X74585034Y-6665877D01*
X74585033Y-6665873D01*
X74525850Y-6464313D01*
X74455326Y-6327514D01*
X73946885Y-6835955D01*
X73936519Y-6800649D01*
X73862673Y-6685742D01*
X73759445Y-6596295D01*
X73664309Y-6552848D01*
X74195238Y-6021918D01*
X74195238Y-6021917D01*
X74140969Y-5974894D01*
X74140958Y-5974885D01*
X73959039Y-5869855D01*
X73959032Y-5869852D01*
X73760518Y-5801145D01*
X73760516Y-5801144D01*
X73552580Y-5771248D01*
X73552578Y-5771247D01*
X73342744Y-5781242D01*
X73138590Y-5830770D01*
X72947499Y-5918037D01*
X72803454Y-6020611D01*
X73335691Y-6552848D01*
X73240555Y-6596295D01*
X73137327Y-6685742D01*
X73063481Y-6800649D01*
X73053114Y-6835956D01*
X72544429Y-6327271D01*
X72544428Y-6327271D01*
X72517835Y-6368653D01*
X72517834Y-6368654D01*
X72439757Y-6563680D01*
X72439755Y-6563685D01*
X72400000Y-6769962D01*
X72400000Y-7177398D01*
X72100500Y-7177398D01*
X72100500Y-6822575D01*
X72085528Y-6665782D01*
X72026316Y-6464125D01*
X71930011Y-6277318D01*
X71930009Y-6277316D01*
X71930008Y-6277313D01*
X71800094Y-6112116D01*
X71800090Y-6112112D01*
X71641253Y-5974478D01*
X71459249Y-5869398D01*
X71459245Y-5869396D01*
X71459244Y-5869396D01*
X71260633Y-5800656D01*
X71052602Y-5770746D01*
X71052598Y-5770746D01*
X70842672Y-5780745D01*
X70638421Y-5830296D01*
X70638417Y-5830298D01*
X70447256Y-5917598D01*
X70447251Y-5917601D01*
X70276046Y-6039515D01*
X70276040Y-6039520D01*
X70131014Y-6191620D01*
X70017388Y-6368425D01*
X69939274Y-6563544D01*
X69899500Y-6769914D01*
X69899500Y-6769915D01*
X69899500Y-7177425D01*
X69600500Y-7177425D01*
X69600500Y-6822575D01*
X69585528Y-6665782D01*
X69526316Y-6464125D01*
X69430011Y-6277318D01*
X69430009Y-6277316D01*
X69430008Y-6277313D01*
X69300094Y-6112116D01*
X69300090Y-6112112D01*
X69141253Y-5974478D01*
X68959249Y-5869399D01*
X68959247Y-5869398D01*
X68959244Y-5869396D01*
X68959240Y-5869394D01*
X68959231Y-5869390D01*
X68958928Y-5869286D01*
X68958796Y-5869192D01*
X68953867Y-5866941D01*
X68954301Y-5865990D01*
X68902019Y-5828750D01*
X68876060Y-5763882D01*
X68875500Y-5752111D01*
X68875500Y-3020654D01*
X68875924Y-3010413D01*
X68879392Y-2968565D01*
X68879391Y-2968564D01*
X68879392Y-2968563D01*
X68869074Y-2927820D01*
X68866977Y-2917816D01*
X68864982Y-2905862D01*
X68860065Y-2876390D01*
X68859874Y-2876038D01*
X68848726Y-2847463D01*
X68848628Y-2847079D01*
X68848628Y-2847078D01*
X68825654Y-2811914D01*
X68820407Y-2803110D01*
X68814482Y-2792161D01*
X68800419Y-2766174D01*
X68800129Y-2765907D01*
X68780297Y-2742491D01*
X68780084Y-2742164D01*
X68780082Y-2742162D01*
X68746936Y-2716364D01*
X68739123Y-2709746D01*
X68708219Y-2681297D01*
X68708216Y-2681294D01*
X68707848Y-2681133D01*
X68681505Y-2665437D01*
X68681189Y-2665191D01*
X68641461Y-2651552D01*
X68631916Y-2647827D01*
X68593459Y-2630958D01*
X68593446Y-2630955D01*
X68593044Y-2630922D01*
X68563042Y-2624631D01*
X68562660Y-2624500D01*
X68520655Y-2624500D01*
X68510414Y-2624076D01*
X68468565Y-2620607D01*
X68468373Y-2620655D01*
X68468174Y-2620706D01*
X68437737Y-2624500D01*
X67270655Y-2624500D01*
X67260414Y-2624076D01*
X67218562Y-2620607D01*
X67177845Y-2630918D01*
X67167819Y-2633020D01*
X67126392Y-2639933D01*
X67126387Y-2639935D01*
X67126024Y-2640132D01*
X67097482Y-2651268D01*
X67097087Y-2651367D01*
X67097077Y-2651372D01*
X67061908Y-2674348D01*
X67053112Y-2679589D01*
X67016178Y-2699578D01*
X67016165Y-2699588D01*
X67015895Y-2699882D01*
X66992509Y-2719690D01*
X66992167Y-2719912D01*
X66992163Y-2719917D01*
X66966367Y-2753058D01*
X66959749Y-2760872D01*
X66931296Y-2791781D01*
X66931292Y-2791787D01*
X66931129Y-2792161D01*
X66915443Y-2818486D01*
X66915193Y-2818806D01*
X66915189Y-2818815D01*
X66915142Y-2818952D01*
X66915027Y-2819113D01*
X66910302Y-2827846D01*
X66909245Y-2827274D01*
X66874750Y-2875963D01*
X66809948Y-2902086D01*
X66741309Y-2889027D01*
X66690627Y-2840933D01*
X66681923Y-2822646D01*
X66680470Y-2818815D01*
X66624818Y-2672070D01*
X66610655Y-2651552D01*
X66588574Y-2619562D01*
X66528183Y-2532071D01*
X66420773Y-2436914D01*
X66400849Y-2419263D01*
X66250226Y-2340210D01*
X66085056Y-2299500D01*
X65914944Y-2299500D01*
X65749773Y-2340210D01*
X65599150Y-2419263D01*
X65471816Y-2532072D01*
X65375182Y-2672068D01*
X65314860Y-2831125D01*
X65314859Y-2831130D01*
X65294355Y-3000000D01*
X65314859Y-3168869D01*
X65314860Y-3168874D01*
X65375182Y-3327931D01*
X65406025Y-3372614D01*
X65471817Y-3467929D01*
X65582728Y-3566187D01*
X65619853Y-3625374D01*
X65624500Y-3659001D01*
X65624500Y-5756964D01*
X65604815Y-5824003D01*
X65552013Y-5869758D01*
X65447240Y-5917607D01*
X65276052Y-6039509D01*
X65276040Y-6039520D01*
X65131014Y-6191620D01*
X65017388Y-6368425D01*
X64939274Y-6563544D01*
X64899500Y-6769914D01*
X64899500Y-6769915D01*
X64899500Y-7177425D01*
X64914472Y-7334218D01*
X64917030Y-7342929D01*
X64973628Y-7535686D01*
X64973684Y-7535875D01*
X65069989Y-7722682D01*
X65129887Y-7798848D01*
X65155855Y-7863712D01*
X65142633Y-7932319D01*
X65094418Y-7982887D01*
X65032417Y-7999500D01*
X64473249Y-7999500D01*
X64406210Y-7979815D01*
X64360455Y-7927011D01*
X64350511Y-7857853D01*
X64368934Y-7808461D01*
X64472390Y-7647479D01*
X64482613Y-7631572D01*
X64560725Y-7436457D01*
X64600500Y-7230085D01*
X64600500Y-6822575D01*
X64585528Y-6665782D01*
X64526316Y-6464125D01*
X64430011Y-6277318D01*
X64430009Y-6277316D01*
X64430008Y-6277313D01*
X64300094Y-6112116D01*
X64300090Y-6112112D01*
X64141253Y-5974478D01*
X63959249Y-5869399D01*
X63959247Y-5869398D01*
X63959244Y-5869396D01*
X63959240Y-5869394D01*
X63959231Y-5869390D01*
X63958928Y-5869286D01*
X63958796Y-5869192D01*
X63953867Y-5866941D01*
X63954301Y-5865990D01*
X63902019Y-5828750D01*
X63876060Y-5763882D01*
X63875500Y-5752111D01*
X63875500Y-3020654D01*
X63875924Y-3010413D01*
X63879392Y-2968565D01*
X63879391Y-2968564D01*
X63879392Y-2968563D01*
X63869074Y-2927820D01*
X63866977Y-2917816D01*
X63864982Y-2905862D01*
X63860065Y-2876390D01*
X63859874Y-2876038D01*
X63848726Y-2847463D01*
X63848628Y-2847079D01*
X63848628Y-2847078D01*
X63825654Y-2811914D01*
X63820407Y-2803110D01*
X63814482Y-2792161D01*
X63800419Y-2766174D01*
X63800129Y-2765907D01*
X63780297Y-2742491D01*
X63780084Y-2742164D01*
X63780082Y-2742162D01*
X63746936Y-2716364D01*
X63739123Y-2709746D01*
X63708219Y-2681297D01*
X63708216Y-2681294D01*
X63707848Y-2681133D01*
X63681505Y-2665437D01*
X63681189Y-2665191D01*
X63641461Y-2651552D01*
X63631916Y-2647827D01*
X63593459Y-2630958D01*
X63593446Y-2630955D01*
X63593044Y-2630922D01*
X63563042Y-2624631D01*
X63562660Y-2624500D01*
X63520655Y-2624500D01*
X63510414Y-2624076D01*
X63468565Y-2620607D01*
X63468373Y-2620655D01*
X63468174Y-2620706D01*
X63437737Y-2624500D01*
X62360631Y-2624500D01*
X62293592Y-2604815D01*
X62247837Y-2552011D01*
X62238322Y-2520908D01*
X62235065Y-2501391D01*
X62235065Y-2501390D01*
X62234875Y-2501039D01*
X62223726Y-2472463D01*
X62223628Y-2472079D01*
X62223628Y-2472078D01*
X62200654Y-2436914D01*
X62195407Y-2428110D01*
X62190621Y-2419266D01*
X62175419Y-2391174D01*
X62175129Y-2390907D01*
X62155297Y-2367491D01*
X62155084Y-2367164D01*
X62155082Y-2367162D01*
X62121936Y-2341364D01*
X62114113Y-2334737D01*
X62076347Y-2299969D01*
X62051278Y-2267760D01*
X62050420Y-2266175D01*
X62050130Y-2265908D01*
X62030297Y-2242491D01*
X62030084Y-2242164D01*
X62030082Y-2242162D01*
X61996936Y-2216364D01*
X61989113Y-2209737D01*
X61951347Y-2174969D01*
X61926278Y-2142760D01*
X61925420Y-2141175D01*
X61925130Y-2140908D01*
X61905297Y-2117491D01*
X61905084Y-2117164D01*
X61905082Y-2117162D01*
X61871936Y-2091364D01*
X61864113Y-2084737D01*
X61826347Y-2049969D01*
X61801278Y-2017760D01*
X61800420Y-2016175D01*
X61800130Y-2015908D01*
X61780297Y-1992491D01*
X61780084Y-1992164D01*
X61780082Y-1992162D01*
X61746936Y-1966364D01*
X61739113Y-1959737D01*
X61701347Y-1924969D01*
X61676278Y-1892760D01*
X61675420Y-1891175D01*
X61675130Y-1890908D01*
X61655297Y-1867491D01*
X61655084Y-1867164D01*
X61655082Y-1867162D01*
X61621936Y-1841364D01*
X61614123Y-1834746D01*
X61583219Y-1806297D01*
X61583216Y-1806294D01*
X61582848Y-1806133D01*
X61556505Y-1790437D01*
X61556189Y-1790191D01*
X61516461Y-1776552D01*
X61506916Y-1772827D01*
X61468459Y-1755958D01*
X61468446Y-1755955D01*
X61468044Y-1755922D01*
X61438042Y-1749631D01*
X61437660Y-1749500D01*
X61395655Y-1749500D01*
X61385414Y-1749076D01*
X61343565Y-1745607D01*
X61343373Y-1745655D01*
X61343174Y-1745706D01*
X61312737Y-1749500D01*
X36770655Y-1749500D01*
X36760414Y-1749076D01*
X36718562Y-1745607D01*
X36677845Y-1755918D01*
X36667819Y-1758020D01*
X36626392Y-1764933D01*
X36626387Y-1764935D01*
X36626024Y-1765132D01*
X36597482Y-1776268D01*
X36597087Y-1776367D01*
X36597077Y-1776372D01*
X36561908Y-1799348D01*
X36553112Y-1804589D01*
X36516178Y-1824578D01*
X36516165Y-1824588D01*
X36515895Y-1824882D01*
X36492509Y-1844690D01*
X36492167Y-1844912D01*
X36492163Y-1844917D01*
X36466367Y-1878058D01*
X36459749Y-1885872D01*
X36431296Y-1916781D01*
X36431292Y-1916787D01*
X36431129Y-1917161D01*
X36415443Y-1943486D01*
X36415193Y-1943806D01*
X36415191Y-1943810D01*
X36401554Y-1983534D01*
X36397829Y-1993079D01*
X36380957Y-2031543D01*
X36380955Y-2031549D01*
X36380922Y-2031956D01*
X36374634Y-2061946D01*
X36374500Y-2062335D01*
X36374500Y-2104344D01*
X36374076Y-2114585D01*
X36370607Y-2156434D01*
X36370608Y-2156437D01*
X36370706Y-2156825D01*
X36374500Y-2187263D01*
X36374500Y-7340998D01*
X36354815Y-7408037D01*
X36332727Y-7433813D01*
X36221818Y-7532069D01*
X36125182Y-7672068D01*
X36064860Y-7831125D01*
X36064859Y-7831130D01*
X36044355Y-8000000D01*
X36064859Y-8168869D01*
X36064860Y-8168874D01*
X36125182Y-8327931D01*
X36170091Y-8392992D01*
X36221817Y-8467929D01*
X36305173Y-8541775D01*
X36342299Y-8600964D01*
X36341531Y-8670829D01*
X36341435Y-8671143D01*
X36338591Y-8680362D01*
X36327495Y-8705797D01*
X36325908Y-8708545D01*
X36325902Y-8708561D01*
X36315577Y-8753795D01*
X36313179Y-8762746D01*
X36299500Y-8807095D01*
X36299500Y-8810268D01*
X36296391Y-8837860D01*
X36295684Y-8840954D01*
X36299153Y-8887228D01*
X36299500Y-8896496D01*
X36299500Y-9907442D01*
X36279815Y-9974481D01*
X36257727Y-10000257D01*
X36221818Y-10032069D01*
X36125182Y-10172068D01*
X36064860Y-10331125D01*
X36064859Y-10331130D01*
X36044355Y-10500000D01*
X500500Y-10500000D01*
X500500Y-4552442D01*
X520185Y-4485403D01*
X572989Y-4439648D01*
X642147Y-4429704D01*
X705703Y-4458729D01*
X743477Y-4517507D01*
X747157Y-4534243D01*
X749856Y-4552435D01*
X763409Y-4643804D01*
X785291Y-4731161D01*
X830814Y-4912900D01*
X842099Y-4957949D01*
X951189Y-5262835D01*
X951197Y-5262855D01*
X1089660Y-5555612D01*
X1234092Y-5796580D01*
X1256150Y-5833381D01*
X1409029Y-6039515D01*
X1449069Y-6093502D01*
X1666546Y-6333452D01*
X1877888Y-6525000D01*
X1906502Y-6550934D01*
X2166618Y-6743849D01*
X2166620Y-6743850D01*
X2444386Y-6910338D01*
X2444389Y-6910339D01*
X2444390Y-6910340D01*
X2737144Y-7048802D01*
X2737158Y-7048807D01*
X2737163Y-7048809D01*
X2843078Y-7086706D01*
X3042060Y-7157903D01*
X3356201Y-7236591D01*
X3676543Y-7284109D01*
X4000000Y-7300000D01*
X4323456Y-7284109D01*
X4643798Y-7236591D01*
X4957939Y-7157903D01*
X5262855Y-7048802D01*
X5313861Y-7024678D01*
X27749500Y-7024678D01*
X27764032Y-7097735D01*
X27764033Y-7097739D01*
X27764034Y-7097740D01*
X27819399Y-7180601D01*
X27893458Y-7230085D01*
X27902260Y-7235966D01*
X27902264Y-7235967D01*
X27975321Y-7250499D01*
X27975324Y-7250500D01*
X27975326Y-7250500D01*
X30024676Y-7250500D01*
X30024677Y-7250499D01*
X30097740Y-7235966D01*
X30180601Y-7180601D01*
X30235966Y-7097740D01*
X30250500Y-7024674D01*
X30250500Y-6000002D01*
X32744723Y-6000002D01*
X32747155Y-6027803D01*
X32762916Y-6207957D01*
X32763793Y-6217975D01*
X32763793Y-6217979D01*
X32820422Y-6429322D01*
X32820424Y-6429326D01*
X32820425Y-6429330D01*
X32836651Y-6464127D01*
X32912897Y-6627638D01*
X32912898Y-6627639D01*
X33038402Y-6806877D01*
X33193123Y-6961598D01*
X33372361Y-7087102D01*
X33570670Y-7179575D01*
X33782023Y-7236207D01*
X33964926Y-7252208D01*
X33999998Y-7255277D01*
X34000000Y-7255277D01*
X34000002Y-7255277D01*
X34028254Y-7252805D01*
X34217977Y-7236207D01*
X34429330Y-7179575D01*
X34627639Y-7087102D01*
X34806877Y-6961598D01*
X34961598Y-6806877D01*
X35087102Y-6627639D01*
X35179575Y-6429330D01*
X35236207Y-6217977D01*
X35252845Y-6027803D01*
X35255277Y-6000002D01*
X35255277Y-5999997D01*
X35248106Y-5918037D01*
X35236207Y-5782023D01*
X35179575Y-5570670D01*
X35087102Y-5372362D01*
X35087100Y-5372359D01*
X35087099Y-5372357D01*
X34961599Y-5193124D01*
X34947575Y-5179100D01*
X34806877Y-5038402D01*
X34627639Y-4912898D01*
X34627640Y-4912898D01*
X34627638Y-4912897D01*
X34528484Y-4866661D01*
X34429330Y-4820425D01*
X34429326Y-4820424D01*
X34429322Y-4820422D01*
X34217977Y-4763793D01*
X34000002Y-4744723D01*
X33999998Y-4744723D01*
X33854682Y-4757436D01*
X33782023Y-4763793D01*
X33782020Y-4763793D01*
X33570677Y-4820422D01*
X33570668Y-4820426D01*
X33372361Y-4912898D01*
X33372357Y-4912900D01*
X33193121Y-5038402D01*
X33038402Y-5193121D01*
X32912900Y-5372357D01*
X32912898Y-5372361D01*
X32820426Y-5570668D01*
X32820422Y-5570677D01*
X32763793Y-5782020D01*
X32763793Y-5782023D01*
X32762163Y-5800656D01*
X32744723Y-5999997D01*
X32744723Y-6000002D01*
X30250500Y-6000002D01*
X30250500Y-4975326D01*
X30250500Y-4975323D01*
X30250499Y-4975321D01*
X30235967Y-4902264D01*
X30235966Y-4902260D01*
X30180601Y-4819399D01*
X30097740Y-4764034D01*
X30097739Y-4764033D01*
X30097735Y-4764032D01*
X30024677Y-4749500D01*
X30024674Y-4749500D01*
X27975326Y-4749500D01*
X27975323Y-4749500D01*
X27902264Y-4764032D01*
X27902260Y-4764033D01*
X27819399Y-4819399D01*
X27764033Y-4902260D01*
X27764032Y-4902264D01*
X27749500Y-4975321D01*
X27749500Y-7024678D01*
X5313861Y-7024678D01*
X5555609Y-6910340D01*
X5833381Y-6743849D01*
X6093497Y-6550934D01*
X6333452Y-6333452D01*
X6550934Y-6093497D01*
X6743849Y-5833381D01*
X6910340Y-5555609D01*
X7048802Y-5262855D01*
X7134023Y-5024678D01*
X9749500Y-5024678D01*
X9764032Y-5097735D01*
X9764033Y-5097739D01*
X9764034Y-5097740D01*
X9819399Y-5180601D01*
X9901877Y-5235710D01*
X9902260Y-5235966D01*
X9902264Y-5235967D01*
X9975321Y-5250499D01*
X9975324Y-5250500D01*
X9975326Y-5250500D01*
X12024676Y-5250500D01*
X12024677Y-5250499D01*
X12097740Y-5235966D01*
X12180601Y-5180601D01*
X12235966Y-5097740D01*
X12250500Y-5024674D01*
X12250500Y-4000000D01*
X14745225Y-4000000D01*
X14764287Y-4217884D01*
X14764289Y-4217894D01*
X14820894Y-4429150D01*
X14820898Y-4429159D01*
X14913333Y-4627387D01*
X14985996Y-4731161D01*
X15532972Y-4184184D01*
X15540507Y-4209844D01*
X15618239Y-4330798D01*
X15726900Y-4424952D01*
X15816822Y-4466018D01*
X15268837Y-5014002D01*
X15372612Y-5086667D01*
X15570840Y-5179101D01*
X15570849Y-5179105D01*
X15782105Y-5235710D01*
X15782115Y-5235712D01*
X15999999Y-5254775D01*
X16000001Y-5254775D01*
X16217884Y-5235712D01*
X16217894Y-5235710D01*
X16429150Y-5179105D01*
X16429164Y-5179100D01*
X16627383Y-5086669D01*
X16627391Y-5086665D01*
X16731161Y-5014003D01*
X16183176Y-4466018D01*
X16273100Y-4424952D01*
X16381761Y-4330798D01*
X16459493Y-4209844D01*
X16467027Y-4184185D01*
X17014003Y-4731161D01*
X17086665Y-4627391D01*
X17086669Y-4627383D01*
X17179100Y-4429164D01*
X17179105Y-4429150D01*
X17235710Y-4217894D01*
X17235712Y-4217884D01*
X17254775Y-4000000D01*
X17254775Y-3999999D01*
X17235712Y-3782115D01*
X17235710Y-3782105D01*
X17179105Y-3570849D01*
X17179101Y-3570840D01*
X17086666Y-3372613D01*
X17014001Y-3268837D01*
X16467026Y-3815813D01*
X16459493Y-3790156D01*
X16381761Y-3669202D01*
X16273100Y-3575048D01*
X16183175Y-3533980D01*
X16731161Y-2985996D01*
X16627387Y-2913333D01*
X16429159Y-2820898D01*
X16429150Y-2820894D01*
X16217894Y-2764289D01*
X16217884Y-2764287D01*
X16000001Y-2745225D01*
X15999999Y-2745225D01*
X15782115Y-2764287D01*
X15782105Y-2764289D01*
X15570849Y-2820894D01*
X15570840Y-2820898D01*
X15372614Y-2913332D01*
X15372612Y-2913333D01*
X15268838Y-2985996D01*
X15268837Y-2985996D01*
X15816822Y-3533981D01*
X15726900Y-3575048D01*
X15618239Y-3669202D01*
X15540507Y-3790156D01*
X15532972Y-3815814D01*
X14985996Y-3268837D01*
X14985996Y-3268838D01*
X14913333Y-3372612D01*
X14913332Y-3372614D01*
X14820898Y-3570840D01*
X14820894Y-3570849D01*
X14764289Y-3782105D01*
X14764287Y-3782115D01*
X14745225Y-3999999D01*
X14745225Y-4000000D01*
X12250500Y-4000000D01*
X12250500Y-2975326D01*
X12250500Y-2975323D01*
X12250499Y-2975321D01*
X12235967Y-2902264D01*
X12235966Y-2902260D01*
X12227124Y-2889027D01*
X12180601Y-2819399D01*
X12100943Y-2766174D01*
X12097739Y-2764033D01*
X12097735Y-2764032D01*
X12024677Y-2749500D01*
X12024674Y-2749500D01*
X9975326Y-2749500D01*
X9975323Y-2749500D01*
X9902264Y-2764032D01*
X9902260Y-2764033D01*
X9819399Y-2819399D01*
X9764033Y-2902260D01*
X9764032Y-2902264D01*
X9749500Y-2975321D01*
X9749500Y-5024678D01*
X7134023Y-5024678D01*
X7157903Y-4957939D01*
X7236591Y-4643798D01*
X7284109Y-4323456D01*
X7300000Y-4000000D01*
X7284109Y-3676543D01*
X7236591Y-3356201D01*
X7157903Y-3042060D01*
X7131580Y-2968492D01*
X7048809Y-2737163D01*
X7048807Y-2737158D01*
X7048802Y-2737144D01*
X6910340Y-2444390D01*
X6895281Y-2419266D01*
X6773666Y-2216364D01*
X6743849Y-2166618D01*
X6550934Y-1906502D01*
X6538479Y-1892760D01*
X6333452Y-1666546D01*
X6093502Y-1449069D01*
X5833378Y-1256148D01*
X5555612Y-1089660D01*
X5262855Y-951197D01*
X5262835Y-951189D01*
X4957949Y-842099D01*
X4957943Y-842097D01*
X4957939Y-842096D01*
X4802100Y-803060D01*
X4643804Y-763409D01*
X4643799Y-763408D01*
X4643798Y-763408D01*
X4534247Y-747157D01*
X4470823Y-717850D01*
X4433311Y-658903D01*
X4433623Y-589034D01*
X4471659Y-530426D01*
X4535344Y-501685D01*
X4552443Y-500500D01*
X85447556Y-500500D01*
X85514595Y-520185D01*
G37*
%TD.AperFunction*%
%TD*%
M02*
