ISO-10303-21;
HEADER;
FILE_DESCRIPTION(('Open CASCADE Model'),'2;1');
FILE_NAME('Open CASCADE Shape Model','2026-10-01T13:56:48',('Author'),(
    'Open CASCADE'),'Open CASCADE STEP processor 7.8','Open CASCADE 7.8'
  ,'Unknown');
FILE_SCHEMA(('AUTOMOTIVE_DESIGN { 1 0 10303 214 1 1 1 1 }'));
ENDSEC;
DATA;
#1 = APPLICATION_PROTOCOL_DEFINITION('international standard',
  'automotive_design',2000,#2);
#2 = APPLICATION_CONTEXT(
  'core data for automotive mechanical design processes');
#3 = SHAPE_DEFINITION_REPRESENTATION(#4,#10);
#4 = PRODUCT_DEFINITION_SHAPE('','',#5);
#5 = PRODUCT_DEFINITION('design','',#6,#9);
#6 = PRODUCT_DEFINITION_FORMATION('','',#7);
#7 = PRODUCT('Open CASCADE STEP translator 7.8 13',
  'Open CASCADE STEP translator 7.8 13','',(#8));
#8 = PRODUCT_CONTEXT('',#2,'mechanical');
#9 = PRODUCT_DEFINITION_CONTEXT('part definition',#2,'design');
#10 = ADVANCED_BREP_SHAPE_REPRESENTATION('',(#11,#15),#1048);
#11 = AXIS2_PLACEMENT_3D('',#12,#13,#14);
#12 = CARTESIAN_POINT('',(0.,0.,0.));
#13 = DIRECTION('',(0.,0.,1.));
#14 = DIRECTION('',(1.,0.,-0.));
#15 = MANIFOLD_SOLID_BREP('',#16);
#16 = CLOSED_SHELL('',(#17,#142,#218,#372,#421,#960,#967,#994,#1021));
#17 = ADVANCED_FACE('',(#18),#32,.F.);
#18 = FACE_BOUND('',#19,.F.);
#19 = EDGE_LOOP('',(#20,#55,#88,#116));
#20 = ORIENTED_EDGE('',*,*,#21,.F.);
#21 = EDGE_CURVE('',#22,#24,#26,.T.);
#22 = VERTEX_POINT('',#23);
#23 = CARTESIAN_POINT('',(9.999999406318E-08,12.0000001,7.478628664453)
  );
#24 = VERTEX_POINT('',#25);
#25 = CARTESIAN_POINT('',(9.999999406318E-08,12.0000001,
    1.000000011686E-07));
#26 = SURFACE_CURVE('',#27,(#31,#43),.PCURVE_S1.);
#27 = LINE('',#28,#29);
#28 = CARTESIAN_POINT('',(9.999999406318E-08,12.0000001,16.5000001));
#29 = VECTOR('',#30,1.);
#30 = DIRECTION('',(0.,-1.224646799147E-16,-1.));
#31 = PCURVE('',#32,#37);
#32 = PLANE('',#33);
#33 = AXIS2_PLACEMENT_3D('',#34,#35,#36);
#34 = CARTESIAN_POINT('',(9.999999406318E-08,12.0000001,16.5000001));
#35 = DIRECTION('',(1.,0.,0.));
#36 = DIRECTION('',(0.,-1.224646799147E-16,-1.));
#37 = DEFINITIONAL_REPRESENTATION('',(#38),#42);
#38 = LINE('',#39,#40);
#39 = CARTESIAN_POINT('',(0.,0.));
#40 = VECTOR('',#41,1.);
#41 = DIRECTION('',(1.,0.));
#42 = ( GEOMETRIC_REPRESENTATION_CONTEXT(2) 
PARAMETRIC_REPRESENTATION_CONTEXT() REPRESENTATION_CONTEXT('2D SPACE',''
  ) );
#43 = PCURVE('',#44,#49);
#44 = PLANE('',#45);
#45 = AXIS2_PLACEMENT_3D('',#46,#47,#48);
#46 = CARTESIAN_POINT('',(9.999999406318E-08,12.0000001,16.5000001));
#47 = DIRECTION('',(0.,-1.,1.224646799147E-16));
#48 = DIRECTION('',(0.,-1.224646799147E-16,-1.));
#49 = DEFINITIONAL_REPRESENTATION('',(#50),#54);
#50 = LINE('',#51,#52);
#51 = CARTESIAN_POINT('',(0.,0.));
#52 = VECTOR('',#53,1.);
#53 = DIRECTION('',(1.,0.));
#54 = ( GEOMETRIC_REPRESENTATION_CONTEXT(2) 
PARAMETRIC_REPRESENTATION_CONTEXT() REPRESENTATION_CONTEXT('2D SPACE',''
  ) );
#55 = ORIENTED_EDGE('',*,*,#56,.T.);
#56 = EDGE_CURVE('',#22,#57,#59,.T.);
#57 = VERTEX_POINT('',#58);
#58 = CARTESIAN_POINT('',(9.999999406318E-08,1.000000213747E-07,
    4.71572725949));
#59 = SURFACE_CURVE('',#60,(#65,#76),.PCURVE_S1.);
#60 = CIRCLE('',#61,31.8);
#61 = AXIS2_PLACEMENT_3D('',#62,#63,#64);
#62 = CARTESIAN_POINT('',(9.999999406318E-08,-0.9999999,36.5000001));
#63 = DIRECTION('',(-1.,0.,0.));
#64 = DIRECTION('',(0.,-1.,1.224646799147E-16));
#65 = PCURVE('',#32,#66);
#66 = DEFINITIONAL_REPRESENTATION('',(#67),#75);
#67 = ( BOUNDED_CURVE() B_SPLINE_CURVE(2,(#68,#69,#70,#71,#72,#73,#74),
.UNSPECIFIED.,.T.,.F.) B_SPLINE_CURVE_WITH_KNOTS((1,2,2,2,2,1),(
    -2.094395102393,0.,2.094395102393,4.188790204786,6.28318530718,
8.377580409573),.UNSPECIFIED.) CURVE() GEOMETRIC_REPRESENTATION_ITEM() 
RATIONAL_B_SPLINE_CURVE((1.,0.5,1.,0.5,1.,0.5,1.)) REPRESENTATION_ITEM(
  '') );
#68 = CARTESIAN_POINT('',(-20.,-44.8));
#69 = CARTESIAN_POINT('',(-75.07921568069,-44.8));
#70 = CARTESIAN_POINT('',(-47.53960784034,2.9));
#71 = CARTESIAN_POINT('',(-20.,50.6));
#72 = CARTESIAN_POINT('',(7.539607840345,2.9));
#73 = CARTESIAN_POINT('',(35.07921568069,-44.8));
#74 = CARTESIAN_POINT('',(-20.,-44.8));
#75 = ( GEOMETRIC_REPRESENTATION_CONTEXT(2) 
PARAMETRIC_REPRESENTATION_CONTEXT() REPRESENTATION_CONTEXT('2D SPACE',''
  ) );
#76 = PCURVE('',#77,#82);
#77 = CYLINDRICAL_SURFACE('',#78,31.8);
#78 = AXIS2_PLACEMENT_3D('',#79,#80,#81);
#79 = CARTESIAN_POINT('',(-80.9999999,-0.9999999,36.5000001));
#80 = DIRECTION('',(-1.,0.,0.));
#81 = DIRECTION('',(0.,-1.,1.224646799147E-16));
#82 = DEFINITIONAL_REPRESENTATION('',(#83),#87);
#83 = LINE('',#84,#85);
#84 = CARTESIAN_POINT('',(-6.28318530718,-81.));
#85 = VECTOR('',#86,1.);
#86 = DIRECTION('',(1.,-0.));
#87 = ( GEOMETRIC_REPRESENTATION_CONTEXT(2) 
PARAMETRIC_REPRESENTATION_CONTEXT() REPRESENTATION_CONTEXT('2D SPACE',''
  ) );
#88 = ORIENTED_EDGE('',*,*,#89,.T.);
#89 = EDGE_CURVE('',#57,#90,#92,.T.);
#90 = VERTEX_POINT('',#91);
#91 = CARTESIAN_POINT('',(9.999999406318E-08,1.000000208196E-07,
    1.000000011686E-07));
#92 = SURFACE_CURVE('',#93,(#97,#104),.PCURVE_S1.);
#93 = LINE('',#94,#95);
#94 = CARTESIAN_POINT('',(9.999999406318E-08,1.000000224849E-07,
    16.5000001));
#95 = VECTOR('',#96,1.);
#96 = DIRECTION('',(0.,-1.224646799147E-16,-1.));
#97 = PCURVE('',#32,#98);
#98 = DEFINITIONAL_REPRESENTATION('',(#99),#103);
#99 = LINE('',#100,#101);
#100 = CARTESIAN_POINT('',(1.469576158977E-15,-12.));
#101 = VECTOR('',#102,1.);
#102 = DIRECTION('',(1.,0.));
#103 = ( GEOMETRIC_REPRESENTATION_CONTEXT(2) 
PARAMETRIC_REPRESENTATION_CONTEXT() REPRESENTATION_CONTEXT('2D SPACE',''
  ) );
#104 = PCURVE('',#105,#110);
#105 = PLANE('',#106);
#106 = AXIS2_PLACEMENT_3D('',#107,#108,#109);
#107 = CARTESIAN_POINT('',(9.999999406318E-08,1.000000224849E-07,
    16.5000001));
#108 = DIRECTION('',(0.,-1.,1.224646799147E-16));
#109 = DIRECTION('',(0.,-1.224646799147E-16,-1.));
#110 = DEFINITIONAL_REPRESENTATION('',(#111),#115);
#111 = LINE('',#112,#113);
#112 = CARTESIAN_POINT('',(0.,0.));
#113 = VECTOR('',#114,1.);
#114 = DIRECTION('',(1.,0.));
#115 = ( GEOMETRIC_REPRESENTATION_CONTEXT(2) 
PARAMETRIC_REPRESENTATION_CONTEXT() REPRESENTATION_CONTEXT('2D SPACE',''
  ) );
#116 = ORIENTED_EDGE('',*,*,#117,.F.);
#117 = EDGE_CURVE('',#24,#90,#118,.T.);
#118 = SURFACE_CURVE('',#119,(#123,#130),.PCURVE_S1.);
#119 = LINE('',#120,#121);
#120 = CARTESIAN_POINT('',(9.999999406318E-08,12.0000001,
    1.000000011686E-07));
#121 = VECTOR('',#122,1.);
#122 = DIRECTION('',(0.,-1.,1.224646799147E-16));
#123 = PCURVE('',#32,#124);
#124 = DEFINITIONAL_REPRESENTATION('',(#125),#129);
#125 = LINE('',#126,#127);
#126 = CARTESIAN_POINT('',(16.5,2.020667218593E-15));
#127 = VECTOR('',#128,1.);
#128 = DIRECTION('',(0.,-1.));
#129 = ( GEOMETRIC_REPRESENTATION_CONTEXT(2) 
PARAMETRIC_REPRESENTATION_CONTEXT() REPRESENTATION_CONTEXT('2D SPACE',''
  ) );
#130 = PCURVE('',#131,#136);
#131 = PLANE('',#132);
#132 = AXIS2_PLACEMENT_3D('',#133,#134,#135);
#133 = CARTESIAN_POINT('',(9.999999406318E-08,12.0000001,
    1.000000011686E-07));
#134 = DIRECTION('',(0.,-1.224646799147E-16,-1.));
#135 = DIRECTION('',(1.,0.,0.));
#136 = DEFINITIONAL_REPRESENTATION('',(#137),#141);
#137 = LINE('',#138,#139);
#138 = CARTESIAN_POINT('',(0.,0.));
#139 = VECTOR('',#140,1.);
#140 = DIRECTION('',(0.,1.));
#141 = ( GEOMETRIC_REPRESENTATION_CONTEXT(2) 
PARAMETRIC_REPRESENTATION_CONTEXT() REPRESENTATION_CONTEXT('2D SPACE',''
  ) );
#142 = ADVANCED_FACE('',(#143),#44,.F.);
#143 = FACE_BOUND('',#144,.F.);
#144 = EDGE_LOOP('',(#145,#175,#196,#197));
#145 = ORIENTED_EDGE('',*,*,#146,.F.);
#146 = EDGE_CURVE('',#147,#149,#151,.T.);
#147 = VERTEX_POINT('',#148);
#148 = CARTESIAN_POINT('',(20.0000001,12.0000001,7.478628664453));
#149 = VERTEX_POINT('',#150);
#150 = CARTESIAN_POINT('',(20.0000001,12.0000001,1.000000011686E-07));
#151 = SURFACE_CURVE('',#152,(#156,#163),.PCURVE_S1.);
#152 = LINE('',#153,#154);
#153 = CARTESIAN_POINT('',(20.0000001,12.0000001,16.5000001));
#154 = VECTOR('',#155,1.);
#155 = DIRECTION('',(0.,-1.224646799147E-16,-1.));
#156 = PCURVE('',#44,#157);
#157 = DEFINITIONAL_REPRESENTATION('',(#158),#162);
#158 = LINE('',#159,#160);
#159 = CARTESIAN_POINT('',(0.,20.));
#160 = VECTOR('',#161,1.);
#161 = DIRECTION('',(1.,0.));
#162 = ( GEOMETRIC_REPRESENTATION_CONTEXT(2) 
PARAMETRIC_REPRESENTATION_CONTEXT() REPRESENTATION_CONTEXT('2D SPACE',''
  ) );
#163 = PCURVE('',#164,#169);
#164 = PLANE('',#165);
#165 = AXIS2_PLACEMENT_3D('',#166,#167,#168);
#166 = CARTESIAN_POINT('',(20.0000001,12.0000001,16.5000001));
#167 = DIRECTION('',(1.,0.,0.));
#168 = DIRECTION('',(0.,-1.224646799147E-16,-1.));
#169 = DEFINITIONAL_REPRESENTATION('',(#170),#174);
#170 = LINE('',#171,#172);
#171 = CARTESIAN_POINT('',(0.,0.));
#172 = VECTOR('',#173,1.);
#173 = DIRECTION('',(1.,0.));
#174 = ( GEOMETRIC_REPRESENTATION_CONTEXT(2) 
PARAMETRIC_REPRESENTATION_CONTEXT() REPRESENTATION_CONTEXT('2D SPACE',''
  ) );
#175 = ORIENTED_EDGE('',*,*,#176,.T.);
#176 = EDGE_CURVE('',#147,#22,#177,.T.);
#177 = SURFACE_CURVE('',#178,(#182,#189),.PCURVE_S1.);
#178 = LINE('',#179,#180);
#179 = CARTESIAN_POINT('',(-80.9999999,12.0000001,7.478628664453));
#180 = VECTOR('',#181,1.);
#181 = DIRECTION('',(-1.,0.,0.));
#182 = PCURVE('',#44,#183);
#183 = DEFINITIONAL_REPRESENTATION('',(#184),#188);
#184 = LINE('',#185,#186);
#185 = CARTESIAN_POINT('',(9.021371435547,-81.));
#186 = VECTOR('',#187,1.);
#187 = DIRECTION('',(-0.,-1.));
#188 = ( GEOMETRIC_REPRESENTATION_CONTEXT(2) 
PARAMETRIC_REPRESENTATION_CONTEXT() REPRESENTATION_CONTEXT('2D SPACE',''
  ) );
#189 = PCURVE('',#77,#190);
#190 = DEFINITIONAL_REPRESENTATION('',(#191),#195);
#191 = LINE('',#192,#193);
#192 = CARTESIAN_POINT('',(-1.9919406245,0.));
#193 = VECTOR('',#194,1.);
#194 = DIRECTION('',(-0.,1.));
#195 = ( GEOMETRIC_REPRESENTATION_CONTEXT(2) 
PARAMETRIC_REPRESENTATION_CONTEXT() REPRESENTATION_CONTEXT('2D SPACE',''
  ) );
#196 = ORIENTED_EDGE('',*,*,#21,.T.);
#197 = ORIENTED_EDGE('',*,*,#198,.T.);
#198 = EDGE_CURVE('',#24,#149,#199,.T.);
#199 = SURFACE_CURVE('',#200,(#204,#211),.PCURVE_S1.);
#200 = LINE('',#201,#202);
#201 = CARTESIAN_POINT('',(9.999999406318E-08,12.0000001,
    1.000000011686E-07));
#202 = VECTOR('',#203,1.);
#203 = DIRECTION('',(1.,0.,0.));
#204 = PCURVE('',#44,#205);
#205 = DEFINITIONAL_REPRESENTATION('',(#206),#210);
#206 = LINE('',#207,#208);
#207 = CARTESIAN_POINT('',(16.5,0.));
#208 = VECTOR('',#209,1.);
#209 = DIRECTION('',(0.,1.));
#210 = ( GEOMETRIC_REPRESENTATION_CONTEXT(2) 
PARAMETRIC_REPRESENTATION_CONTEXT() REPRESENTATION_CONTEXT('2D SPACE',''
  ) );
#211 = PCURVE('',#131,#212);
#212 = DEFINITIONAL_REPRESENTATION('',(#213),#217);
#213 = LINE('',#214,#215);
#214 = CARTESIAN_POINT('',(0.,0.));
#215 = VECTOR('',#216,1.);
#216 = DIRECTION('',(1.,0.));
#217 = ( GEOMETRIC_REPRESENTATION_CONTEXT(2) 
PARAMETRIC_REPRESENTATION_CONTEXT() REPRESENTATION_CONTEXT('2D SPACE',''
  ) );
#218 = ADVANCED_FACE('',(#219,#267,#302,#337),#131,.T.);
#219 = FACE_BOUND('',#220,.T.);
#220 = EDGE_LOOP('',(#221,#222,#223,#246));
#221 = ORIENTED_EDGE('',*,*,#117,.F.);
#222 = ORIENTED_EDGE('',*,*,#198,.T.);
#223 = ORIENTED_EDGE('',*,*,#224,.T.);
#224 = EDGE_CURVE('',#149,#225,#227,.T.);
#225 = VERTEX_POINT('',#226);
#226 = CARTESIAN_POINT('',(20.0000001,1.000000208196E-07,
    1.000000011686E-07));
#227 = SURFACE_CURVE('',#228,(#232,#239),.PCURVE_S1.);
#228 = LINE('',#229,#230);
#229 = CARTESIAN_POINT('',(20.0000001,12.0000001,1.000000011686E-07));
#230 = VECTOR('',#231,1.);
#231 = DIRECTION('',(0.,-1.,1.224646799147E-16));
#232 = PCURVE('',#131,#233);
#233 = DEFINITIONAL_REPRESENTATION('',(#234),#238);
#234 = LINE('',#235,#236);
#235 = CARTESIAN_POINT('',(20.,0.));
#236 = VECTOR('',#237,1.);
#237 = DIRECTION('',(0.,1.));
#238 = ( GEOMETRIC_REPRESENTATION_CONTEXT(2) 
PARAMETRIC_REPRESENTATION_CONTEXT() REPRESENTATION_CONTEXT('2D SPACE',''
  ) );
#239 = PCURVE('',#164,#240);
#240 = DEFINITIONAL_REPRESENTATION('',(#241),#245);
#241 = LINE('',#242,#243);
#242 = CARTESIAN_POINT('',(16.5,2.020667218593E-15));
#243 = VECTOR('',#244,1.);
#244 = DIRECTION('',(0.,-1.));
#245 = ( GEOMETRIC_REPRESENTATION_CONTEXT(2) 
PARAMETRIC_REPRESENTATION_CONTEXT() REPRESENTATION_CONTEXT('2D SPACE',''
  ) );
#246 = ORIENTED_EDGE('',*,*,#247,.F.);
#247 = EDGE_CURVE('',#90,#225,#248,.T.);
#248 = SURFACE_CURVE('',#249,(#253,#260),.PCURVE_S1.);
#249 = LINE('',#250,#251);
#250 = CARTESIAN_POINT('',(9.999999406318E-08,1.000000207085E-07,
    1.000000011686E-07));
#251 = VECTOR('',#252,1.);
#252 = DIRECTION('',(1.,0.,0.));
#253 = PCURVE('',#131,#254);
#254 = DEFINITIONAL_REPRESENTATION('',(#255),#259);
#255 = LINE('',#256,#257);
#256 = CARTESIAN_POINT('',(0.,12.));
#257 = VECTOR('',#258,1.);
#258 = DIRECTION('',(1.,0.));
#259 = ( GEOMETRIC_REPRESENTATION_CONTEXT(2) 
PARAMETRIC_REPRESENTATION_CONTEXT() REPRESENTATION_CONTEXT('2D SPACE',''
  ) );
#260 = PCURVE('',#105,#261);
#261 = DEFINITIONAL_REPRESENTATION('',(#262),#266);
#262 = LINE('',#263,#264);
#263 = CARTESIAN_POINT('',(16.5,0.));
#264 = VECTOR('',#265,1.);
#265 = DIRECTION('',(0.,1.));
#266 = ( GEOMETRIC_REPRESENTATION_CONTEXT(2) 
PARAMETRIC_REPRESENTATION_CONTEXT() REPRESENTATION_CONTEXT('2D SPACE',''
  ) );
#267 = FACE_BOUND('',#268,.T.);
#268 = EDGE_LOOP('',(#269));
#269 = ORIENTED_EDGE('',*,*,#270,.T.);
#270 = EDGE_CURVE('',#271,#271,#273,.T.);
#271 = VERTEX_POINT('',#272);
#272 = CARTESIAN_POINT('',(4.7500001,6.0000001,1.000000011686E-07));
#273 = SURFACE_CURVE('',#274,(#279,#290),.PCURVE_S1.);
#274 = CIRCLE('',#275,1.25);
#275 = AXIS2_PLACEMENT_3D('',#276,#277,#278);
#276 = CARTESIAN_POINT('',(3.5000001,6.0000001,1.000000011686E-07));
#277 = DIRECTION('',(-0.,1.224646799147E-16,1.));
#278 = DIRECTION('',(1.,0.,0.));
#279 = PCURVE('',#131,#280);
#280 = DEFINITIONAL_REPRESENTATION('',(#281),#289);
#281 = ( BOUNDED_CURVE() B_SPLINE_CURVE(2,(#282,#283,#284,#285,#286,#287
,#288),.UNSPECIFIED.,.T.,.F.) B_SPLINE_CURVE_WITH_KNOTS((1,2,2,2,2,1),(
    -2.094395102393,0.,2.094395102393,4.188790204786,6.28318530718,
8.377580409573),.UNSPECIFIED.) CURVE() GEOMETRIC_REPRESENTATION_ITEM() 
RATIONAL_B_SPLINE_CURVE((1.,0.5,1.,0.5,1.,0.5,1.)) REPRESENTATION_ITEM(
  '') );
#282 = CARTESIAN_POINT('',(4.75,6.));
#283 = CARTESIAN_POINT('',(4.75,3.834936490539));
#284 = CARTESIAN_POINT('',(2.875,4.917468245269));
#285 = CARTESIAN_POINT('',(1.,6.));
#286 = CARTESIAN_POINT('',(2.875,7.082531754731));
#287 = CARTESIAN_POINT('',(4.75,8.165063509461));
#288 = CARTESIAN_POINT('',(4.75,6.));
#289 = ( GEOMETRIC_REPRESENTATION_CONTEXT(2) 
PARAMETRIC_REPRESENTATION_CONTEXT() REPRESENTATION_CONTEXT('2D SPACE',''
  ) );
#290 = PCURVE('',#291,#296);
#291 = CYLINDRICAL_SURFACE('',#292,1.25);
#292 = AXIS2_PLACEMENT_3D('',#293,#294,#295);
#293 = CARTESIAN_POINT('',(3.5000001,6.0000001,16.5000001));
#294 = DIRECTION('',(-0.,1.224646799147E-16,1.));
#295 = DIRECTION('',(1.,0.,0.));
#296 = DEFINITIONAL_REPRESENTATION('',(#297),#301);
#297 = LINE('',#298,#299);
#298 = CARTESIAN_POINT('',(-6.28318530718,-16.5));
#299 = VECTOR('',#300,1.);
#300 = DIRECTION('',(1.,-0.));
#301 = ( GEOMETRIC_REPRESENTATION_CONTEXT(2) 
PARAMETRIC_REPRESENTATION_CONTEXT() REPRESENTATION_CONTEXT('2D SPACE',''
  ) );
#302 = FACE_BOUND('',#303,.T.);
#303 = EDGE_LOOP('',(#304));
#304 = ORIENTED_EDGE('',*,*,#305,.T.);
#305 = EDGE_CURVE('',#306,#306,#308,.T.);
#306 = VERTEX_POINT('',#307);
#307 = CARTESIAN_POINT('',(17.7500001,6.0000001,1.000000011686E-07));
#308 = SURFACE_CURVE('',#309,(#314,#325),.PCURVE_S1.);
#309 = CIRCLE('',#310,1.25);
#310 = AXIS2_PLACEMENT_3D('',#311,#312,#313);
#311 = CARTESIAN_POINT('',(16.5000001,6.0000001,1.000000011686E-07));
#312 = DIRECTION('',(-0.,1.224646799147E-16,1.));
#313 = DIRECTION('',(1.,0.,0.));
#314 = PCURVE('',#131,#315);
#315 = DEFINITIONAL_REPRESENTATION('',(#316),#324);
#316 = ( BOUNDED_CURVE() B_SPLINE_CURVE(2,(#317,#318,#319,#320,#321,#322
,#323),.UNSPECIFIED.,.T.,.F.) B_SPLINE_CURVE_WITH_KNOTS((1,2,2,2,2,1),(
    -2.094395102393,0.,2.094395102393,4.188790204786,6.28318530718,
8.377580409573),.UNSPECIFIED.) CURVE() GEOMETRIC_REPRESENTATION_ITEM() 
RATIONAL_B_SPLINE_CURVE((1.,0.5,1.,0.5,1.,0.5,1.)) REPRESENTATION_ITEM(
  '') );
#317 = CARTESIAN_POINT('',(17.75,6.));
#318 = CARTESIAN_POINT('',(17.75,3.834936490539));
#319 = CARTESIAN_POINT('',(15.875,4.917468245269));
#320 = CARTESIAN_POINT('',(14.,6.));
#321 = CARTESIAN_POINT('',(15.875,7.082531754731));
#322 = CARTESIAN_POINT('',(17.75,8.165063509461));
#323 = CARTESIAN_POINT('',(17.75,6.));
#324 = ( GEOMETRIC_REPRESENTATION_CONTEXT(2) 
PARAMETRIC_REPRESENTATION_CONTEXT() REPRESENTATION_CONTEXT('2D SPACE',''
  ) );
#325 = PCURVE('',#326,#331);
#326 = CYLINDRICAL_SURFACE('',#327,1.25);
#327 = AXIS2_PLACEMENT_3D('',#328,#329,#330);
#328 = CARTESIAN_POINT('',(16.5000001,6.0000001,16.5000001));
#329 = DIRECTION('',(-0.,1.224646799147E-16,1.));
#330 = DIRECTION('',(1.,0.,0.));
#331 = DEFINITIONAL_REPRESENTATION('',(#332),#336);
#332 = LINE('',#333,#334);
#333 = CARTESIAN_POINT('',(-6.28318530718,-16.5));
#334 = VECTOR('',#335,1.);
#335 = DIRECTION('',(1.,-0.));
#336 = ( GEOMETRIC_REPRESENTATION_CONTEXT(2) 
PARAMETRIC_REPRESENTATION_CONTEXT() REPRESENTATION_CONTEXT('2D SPACE',''
  ) );
#337 = FACE_BOUND('',#338,.T.);
#338 = EDGE_LOOP('',(#339));
#339 = ORIENTED_EDGE('',*,*,#340,.T.);
#340 = EDGE_CURVE('',#341,#341,#343,.T.);
#341 = VERTEX_POINT('',#342);
#342 = CARTESIAN_POINT('',(11.2500001,3.0000001,1.000000011686E-07));
#343 = SURFACE_CURVE('',#344,(#349,#360),.PCURVE_S1.);
#344 = CIRCLE('',#345,1.25);
#345 = AXIS2_PLACEMENT_3D('',#346,#347,#348);
#346 = CARTESIAN_POINT('',(10.0000001,3.0000001,1.000000011686E-07));
#347 = DIRECTION('',(-0.,1.224646799147E-16,1.));
#348 = DIRECTION('',(1.,0.,0.));
#349 = PCURVE('',#131,#350);
#350 = DEFINITIONAL_REPRESENTATION('',(#351),#359);
#351 = ( BOUNDED_CURVE() B_SPLINE_CURVE(2,(#352,#353,#354,#355,#356,#357
,#358),.UNSPECIFIED.,.T.,.F.) B_SPLINE_CURVE_WITH_KNOTS((1,2,2,2,2,1),(
    -2.094395102393,0.,2.094395102393,4.188790204786,6.28318530718,
8.377580409573),.UNSPECIFIED.) CURVE() GEOMETRIC_REPRESENTATION_ITEM() 
RATIONAL_B_SPLINE_CURVE((1.,0.5,1.,0.5,1.,0.5,1.)) REPRESENTATION_ITEM(
  '') );
#352 = CARTESIAN_POINT('',(11.25,9.));
#353 = CARTESIAN_POINT('',(11.25,6.834936490539));
#354 = CARTESIAN_POINT('',(9.375,7.917468245269));
#355 = CARTESIAN_POINT('',(7.5,9.));
#356 = CARTESIAN_POINT('',(9.375,10.082531754731));
#357 = CARTESIAN_POINT('',(11.25,11.165063509461));
#358 = CARTESIAN_POINT('',(11.25,9.));
#359 = ( GEOMETRIC_REPRESENTATION_CONTEXT(2) 
PARAMETRIC_REPRESENTATION_CONTEXT() REPRESENTATION_CONTEXT('2D SPACE',''
  ) );
#360 = PCURVE('',#361,#366);
#361 = CYLINDRICAL_SURFACE('',#362,1.25);
#362 = AXIS2_PLACEMENT_3D('',#363,#364,#365);
#363 = CARTESIAN_POINT('',(10.0000001,3.0000001,16.5000001));
#364 = DIRECTION('',(-0.,1.224646799147E-16,1.));
#365 = DIRECTION('',(1.,0.,0.));
#366 = DEFINITIONAL_REPRESENTATION('',(#367),#371);
#367 = LINE('',#368,#369);
#368 = CARTESIAN_POINT('',(-6.28318530718,-16.5));
#369 = VECTOR('',#370,1.);
#370 = DIRECTION('',(1.,-0.));
#371 = ( GEOMETRIC_REPRESENTATION_CONTEXT(2) 
PARAMETRIC_REPRESENTATION_CONTEXT() REPRESENTATION_CONTEXT('2D SPACE',''
  ) );
#372 = ADVANCED_FACE('',(#373),#105,.T.);
#373 = FACE_BOUND('',#374,.T.);
#374 = EDGE_LOOP('',(#375,#398,#419,#420));
#375 = ORIENTED_EDGE('',*,*,#376,.F.);
#376 = EDGE_CURVE('',#377,#225,#379,.T.);
#377 = VERTEX_POINT('',#378);
#378 = CARTESIAN_POINT('',(20.0000001,1.000000213747E-07,4.71572725949)
  );
#379 = SURFACE_CURVE('',#380,(#384,#391),.PCURVE_S1.);
#380 = LINE('',#381,#382);
#381 = CARTESIAN_POINT('',(20.0000001,1.000000224849E-07,16.5000001));
#382 = VECTOR('',#383,1.);
#383 = DIRECTION('',(0.,-1.224646799147E-16,-1.));
#384 = PCURVE('',#105,#385);
#385 = DEFINITIONAL_REPRESENTATION('',(#386),#390);
#386 = LINE('',#387,#388);
#387 = CARTESIAN_POINT('',(0.,20.));
#388 = VECTOR('',#389,1.);
#389 = DIRECTION('',(1.,0.));
#390 = ( GEOMETRIC_REPRESENTATION_CONTEXT(2) 
PARAMETRIC_REPRESENTATION_CONTEXT() REPRESENTATION_CONTEXT('2D SPACE',''
  ) );
#391 = PCURVE('',#164,#392);
#392 = DEFINITIONAL_REPRESENTATION('',(#393),#397);
#393 = LINE('',#394,#395);
#394 = CARTESIAN_POINT('',(1.469576158977E-15,-12.));
#395 = VECTOR('',#396,1.);
#396 = DIRECTION('',(1.,0.));
#397 = ( GEOMETRIC_REPRESENTATION_CONTEXT(2) 
PARAMETRIC_REPRESENTATION_CONTEXT() REPRESENTATION_CONTEXT('2D SPACE',''
  ) );
#398 = ORIENTED_EDGE('',*,*,#399,.T.);
#399 = EDGE_CURVE('',#377,#57,#400,.T.);
#400 = SURFACE_CURVE('',#401,(#405,#412),.PCURVE_S1.);
#401 = LINE('',#402,#403);
#402 = CARTESIAN_POINT('',(-80.9999999,1.000000213747E-07,4.71572725949)
  );
#403 = VECTOR('',#404,1.);
#404 = DIRECTION('',(-1.,0.,0.));
#405 = PCURVE('',#105,#406);
#406 = DEFINITIONAL_REPRESENTATION('',(#407),#411);
#407 = LINE('',#408,#409);
#408 = CARTESIAN_POINT('',(11.78427284051,-81.));
#409 = VECTOR('',#410,1.);
#410 = DIRECTION('',(-0.,-1.));
#411 = ( GEOMETRIC_REPRESENTATION_CONTEXT(2) 
PARAMETRIC_REPRESENTATION_CONTEXT() REPRESENTATION_CONTEXT('2D SPACE',''
  ) );
#412 = PCURVE('',#77,#413);
#413 = DEFINITIONAL_REPRESENTATION('',(#414),#418);
#414 = LINE('',#415,#416);
#415 = CARTESIAN_POINT('',(-1.602248052818,0.));
#416 = VECTOR('',#417,1.);
#417 = DIRECTION('',(-0.,1.));
#418 = ( GEOMETRIC_REPRESENTATION_CONTEXT(2) 
PARAMETRIC_REPRESENTATION_CONTEXT() REPRESENTATION_CONTEXT('2D SPACE',''
  ) );
#419 = ORIENTED_EDGE('',*,*,#89,.T.);
#420 = ORIENTED_EDGE('',*,*,#247,.T.);
#421 = ADVANCED_FACE('',(#422,#453,#622,#791),#77,.F.);
#422 = FACE_BOUND('',#423,.T.);
#423 = EDGE_LOOP('',(#424,#425,#426,#427));
#424 = ORIENTED_EDGE('',*,*,#176,.T.);
#425 = ORIENTED_EDGE('',*,*,#56,.T.);
#426 = ORIENTED_EDGE('',*,*,#399,.F.);
#427 = ORIENTED_EDGE('',*,*,#428,.F.);
#428 = EDGE_CURVE('',#147,#377,#429,.T.);
#429 = SURFACE_CURVE('',#430,(#435,#442),.PCURVE_S1.);
#430 = CIRCLE('',#431,31.8);
#431 = AXIS2_PLACEMENT_3D('',#432,#433,#434);
#432 = CARTESIAN_POINT('',(20.0000001,-0.9999999,36.5000001));
#433 = DIRECTION('',(-1.,0.,0.));
#434 = DIRECTION('',(0.,-1.,1.224646799147E-16));
#435 = PCURVE('',#77,#436);
#436 = DEFINITIONAL_REPRESENTATION('',(#437),#441);
#437 = LINE('',#438,#439);
#438 = CARTESIAN_POINT('',(-6.28318530718,-101.));
#439 = VECTOR('',#440,1.);
#440 = DIRECTION('',(1.,-0.));
#441 = ( GEOMETRIC_REPRESENTATION_CONTEXT(2) 
PARAMETRIC_REPRESENTATION_CONTEXT() REPRESENTATION_CONTEXT('2D SPACE',''
  ) );
#442 = PCURVE('',#164,#443);
#443 = DEFINITIONAL_REPRESENTATION('',(#444),#452);
#444 = ( BOUNDED_CURVE() B_SPLINE_CURVE(2,(#445,#446,#447,#448,#449,#450
,#451),.UNSPECIFIED.,.T.,.F.) B_SPLINE_CURVE_WITH_KNOTS((1,2,2,2,2,1),(
    -2.094395102393,0.,2.094395102393,4.188790204786,6.28318530718,
8.377580409573),.UNSPECIFIED.) CURVE() GEOMETRIC_REPRESENTATION_ITEM() 
RATIONAL_B_SPLINE_CURVE((1.,0.5,1.,0.5,1.,0.5,1.)) REPRESENTATION_ITEM(
  '') );
#445 = CARTESIAN_POINT('',(-20.,-44.8));
#446 = CARTESIAN_POINT('',(-75.07921568069,-44.8));
#447 = CARTESIAN_POINT('',(-47.53960784034,2.9));
#448 = CARTESIAN_POINT('',(-20.,50.6));
#449 = CARTESIAN_POINT('',(7.539607840345,2.9));
#450 = CARTESIAN_POINT('',(35.07921568069,-44.8));
#451 = CARTESIAN_POINT('',(-20.,-44.8));
#452 = ( GEOMETRIC_REPRESENTATION_CONTEXT(2) 
PARAMETRIC_REPRESENTATION_CONTEXT() REPRESENTATION_CONTEXT('2D SPACE',''
  ) );
#453 = FACE_BOUND('',#454,.T.);
#454 = EDGE_LOOP('',(#455));
#455 = ORIENTED_EDGE('',*,*,#456,.T.);
#456 = EDGE_CURVE('',#457,#457,#459,.T.);
#457 = VERTEX_POINT('',#458);
#458 = CARTESIAN_POINT('',(17.7500001,6.0000001,5.480006547454));
#459 = SURFACE_CURVE('',#460,(#512,#567),.PCURVE_S1.);
#460 = B_SPLINE_CURVE_WITH_KNOTS('',8,(#461,#462,#463,#464,#465,#466,
    #467,#468,#469,#470,#471,#472,#473,#474,#475,#476,#477,#478,#479,
    #480,#481,#482,#483,#484,#485,#486,#487,#488,#489,#490,#491,#492,
    #493,#494,#495,#496,#497,#498,#499,#500,#501,#502,#503,#504,#505,
    #506,#507,#508,#509,#510,#511),.UNSPECIFIED.,.T.,.F.,(9,7,7,7,7,7,7,
    9),(0.,9.67522360367E-02,0.173734374534,0.358177422384,
    0.490270984823,0.630861893642,0.831936566339,1.),.UNSPECIFIED.);
#461 = CARTESIAN_POINT('',(17.7500001,6.0000001,5.480006547454));
#462 = CARTESIAN_POINT('',(17.7500001,5.893367355139,5.455943705121));
#463 = CARTESIAN_POINT('',(17.739603973817,5.787182886294,5.43242216244)
  );
#464 = CARTESIAN_POINT('',(17.718965639889,5.682885566858,5.409759276303
    ));
#465 = CARTESIAN_POINT('',(17.68853677913,5.581868237756,5.388227566609)
  );
#466 = CARTESIAN_POINT('',(17.649054793428,5.485426103751,5.368048138021
    ));
#467 = CARTESIAN_POINT('',(17.601530650459,5.394701971999,5.349387106413
    ));
#468 = CARTESIAN_POINT('',(17.547236614819,5.310628332855,5.332355030007
    ));
#469 = CARTESIAN_POINT('',(17.440317924977,5.172789588478,5.3047993573)
  );
#470 = CARTESIAN_POINT('',(17.389392478668,5.116049624129,5.293598521091
    ));
#471 = CARTESIAN_POINT('',(17.33536481439,5.063718419229,5.283385661155)
  );
#472 = CARTESIAN_POINT('',(17.278648572029,5.015839461613,5.274136655127
    ));
#473 = CARTESIAN_POINT('',(17.21962813351,4.972432470862,5.265826123706)
  );
#474 = CARTESIAN_POINT('',(17.15866249257,4.933497531359,5.258428703768)
  );
#475 = CARTESIAN_POINT('',(17.0960886043,4.899018585119,5.251919904563)
  );
#476 = CARTESIAN_POINT('',(16.879210243401,4.796963375112,5.232755513624
    ));
#477 = CARTESIAN_POINT('',(16.718160317738,4.75007587464,5.224147049979)
  );
#478 = CARTESIAN_POINT('',(16.552775156696,4.727997072217,5.22015349438)
  );
#479 = CARTESIAN_POINT('',(16.386106671028,4.730483101741,5.22061210182)
  );
#480 = CARTESIAN_POINT('',(16.220967519892,4.757447449741,5.225501471706
    ));
#481 = CARTESIAN_POINT('',(16.060154550132,4.809074628907,5.234955337563
    ));
#482 = CARTESIAN_POINT('',(15.90681302316,4.885890766513,5.249284018512)
  );
#483 = CARTESIAN_POINT('',(15.66389786249,5.062378961437,5.283126676593)
  );
#484 = CARTESIAN_POINT('',(15.567178025432,5.150393186311,5.300209724265
    ));
#485 = CARTESIAN_POINT('',(15.478555599909,5.252587974424,5.320358615494
    ));
#486 = CARTESIAN_POINT('',(15.401155702636,5.367975343755,5.343560856544
    ));
#487 = CARTESIAN_POINT('',(15.337730295085,5.49492081243,5.369694608462)
  );
#488 = CARTESIAN_POINT('',(15.290618846807,5.631270584207,5.398510117828
    ));
#489 = CARTESIAN_POINT('',(15.261719226472,5.774447086213,5.429603068625
    ));
#490 = CARTESIAN_POINT('',(15.242618953037,6.078037238848,5.497304913285
    ));
#491 = CARTESIAN_POINT('',(15.255350155576,6.233834502595,5.532995390434
    ));
#492 = CARTESIAN_POINT('',(15.289830656539,6.384964379753,5.568580602164
    ));
#493 = CARTESIAN_POINT('',(15.344379957873,6.527768605943,5.603101157036
    ));
#494 = CARTESIAN_POINT('',(15.416524366309,6.659059212363,5.635581989063
    ));
#495 = CARTESIAN_POINT('',(15.503058245563,6.776304803169,5.66514068522)
  );
#496 = CARTESIAN_POINT('',(15.600110772689,6.877842189017,5.69111555677)
  );
#497 = CARTESIAN_POINT('',(15.850688231427,7.085137890924,5.744733466595
    ));
#498 = CARTESIAN_POINT('',(16.014139840757,7.176892705727,5.769055698848
    ));
#499 = CARTESIAN_POINT('',(16.187744843296,7.239109921675,5.785818257682
    ));
#500 = CARTESIAN_POINT('',(16.367321840216,7.272231567823,5.794818521884
    ));
#501 = CARTESIAN_POINT('',(16.549076772107,7.276366262243,5.795931124119
    ));
#502 = CARTESIAN_POINT('',(16.729216218179,7.251419777628,5.789133526344
    ));
#503 = CARTESIAN_POINT('',(16.90364661623,7.197239724424,5.774559224561)
  );
#504 = CARTESIAN_POINT('',(17.204431296232,7.043982275145,5.734117072161
    ));
#505 = CARTESIAN_POINT('',(17.337575419661,6.951902988583,5.710012410584
    ));
#506 = CARTESIAN_POINT('',(17.460890326426,6.836870390718,5.680260419172
    ));
#507 = CARTESIAN_POINT('',(17.568685806443,6.699979558357,5.645471719797
    ));
#508 = CARTESIAN_POINT('',(17.655758612803,6.543705840851,5.606698080305
    ));
#509 = CARTESIAN_POINT('',(17.717506615733,6.371667483653,5.565253439342
    ));
#510 = CARTESIAN_POINT('',(17.7500001,6.188521686731,5.522548500433));
#511 = CARTESIAN_POINT('',(17.7500001,6.0000001,5.480006547454));
#512 = PCURVE('',#77,#513);
#513 = DEFINITIONAL_REPRESENTATION('',(#514),#566);
#514 = B_SPLINE_CURVE_WITH_KNOTS('',8,(#515,#516,#517,#518,#519,#520,
    #521,#522,#523,#524,#525,#526,#527,#528,#529,#530,#531,#532,#533,
    #534,#535,#536,#537,#538,#539,#540,#541,#542,#543,#544,#545,#546,
    #547,#548,#549,#550,#551,#552,#553,#554,#555,#556,#557,#558,#559,
    #560,#561,#562,#563,#564,#565),.UNSPECIFIED.,.T.,.F.,(9,7,7,7,7,7,7,
    9),(0.,9.67522360367E-02,0.173734374534,0.358177422384,
    0.490270984823,0.630861893642,0.831936566339,1.),.UNSPECIFIED.);
#515 = CARTESIAN_POINT('',(-1.792739744508,-98.75));
#516 = CARTESIAN_POINT('',(-1.789302195603,-98.75));
#517 = CARTESIAN_POINT('',(-1.78588214453,-98.73960387381));
#518 = CARTESIAN_POINT('',(-1.782525864503,-98.71896553988));
#519 = CARTESIAN_POINT('',(-1.779277907126,-98.68853667913));
#520 = CARTESIAN_POINT('',(-1.77617949587,-98.64905469342));
#521 = CARTESIAN_POINT('',(-1.773266831315,-98.60153055045));
#522 = CARTESIAN_POINT('',(-1.770569308167,-98.54723651482));
#523 = CARTESIAN_POINT('',(-1.766148989876,-98.44031782497));
#524 = CARTESIAN_POINT('',(-1.764330285821,-98.38939237866));
#525 = CARTESIAN_POINT('',(-1.762653610962,-98.33536471439));
#526 = CARTESIAN_POINT('',(-1.761120153104,-98.27864847202));
#527 = CARTESIAN_POINT('',(-1.759730364216,-98.21962803351));
#528 = CARTESIAN_POINT('',(-1.75848409386,-98.15866239257));
#529 = CARTESIAN_POINT('',(-1.757380700632,-98.0960885043));
#530 = CARTESIAN_POINT('',(-1.754115322993,-97.8792101434));
#531 = CARTESIAN_POINT('',(-1.752616240742,-97.71816021773));
#532 = CARTESIAN_POINT('',(-1.751910670411,-97.55277505669));
#533 = CARTESIAN_POINT('',(-1.751990163619,-97.38610657102));
#534 = CARTESIAN_POINT('',(-1.752851931748,-97.22096741989));
#535 = CARTESIAN_POINT('',(-1.754502419047,-97.06015445013));
#536 = CARTESIAN_POINT('',(-1.756959655073,-96.90681292316));
#537 = CARTESIAN_POINT('',(-1.762610713829,-96.66389776249));
#538 = CARTESIAN_POINT('',(-1.765430101394,-96.56717792543));
#539 = CARTESIAN_POINT('',(-1.768705616836,-96.4785554999));
#540 = CARTESIAN_POINT('',(-1.772406723494,-96.40115560263));
#541 = CARTESIAN_POINT('',(-1.776482337089,-96.33773019508));
#542 = CARTESIAN_POINT('',(-1.780864659434,-96.2906187468));
#543 = CARTESIAN_POINT('',(-1.785471939197,-96.26171912647));
#544 = CARTESIAN_POINT('',(-1.795253305772,-96.24261885303));
#545 = CARTESIAN_POINT('',(-1.800279418226,-96.25535005557));
#546 = CARTESIAN_POINT('',(-1.805161748246,-96.28983055653));
#547 = CARTESIAN_POINT('',(-1.80978164754,-96.34437985787));
#548 = CARTESIAN_POINT('',(-1.814034660409,-96.4165242663));
#549 = CARTESIAN_POINT('',(-1.817836956707,-96.50305814556));
#550 = CARTESIAN_POINT('',(-1.821132766223,-96.60011067268));
#551 = CARTESIAN_POINT('',(-1.827866027143,-96.85068813142));
#552 = CARTESIAN_POINT('',(-1.830850996602,-97.01413974075));
#553 = CARTESIAN_POINT('',(-1.83287726993,-97.18774474329));
#554 = CARTESIAN_POINT('',(-1.833956608191,-97.36732174021));
#555 = CARTESIAN_POINT('',(-1.83409125246,-97.5490766721));
#556 = CARTESIAN_POINT('',(-1.833278165153,-97.72921611817));
#557 = CARTESIAN_POINT('',(-1.831513844217,-97.90364651623));
#558 = CARTESIAN_POINT('',(-1.826529452074,-98.20443119623));
#559 = CARTESIAN_POINT('',(-1.823536311109,-98.33757531966));
#560 = CARTESIAN_POINT('',(-1.819799925789,-98.46089022642));
#561 = CARTESIAN_POINT('',(-1.815358435231,-98.56868570644));
#562 = CARTESIAN_POINT('',(-1.810295351668,-98.6557585128));
#563 = CARTESIAN_POINT('',(-1.804730813823,-98.71750651573));
#564 = CARTESIAN_POINT('',(-1.798817166362,-98.75));
#565 = CARTESIAN_POINT('',(-1.792739744508,-98.75));
#566 = ( GEOMETRIC_REPRESENTATION_CONTEXT(2) 
PARAMETRIC_REPRESENTATION_CONTEXT() REPRESENTATION_CONTEXT('2D SPACE',''
  ) );
#567 = PCURVE('',#326,#568);
#568 = DEFINITIONAL_REPRESENTATION('',(#569),#621);
#569 = B_SPLINE_CURVE_WITH_KNOTS('',8,(#570,#571,#572,#573,#574,#575,
    #576,#577,#578,#579,#580,#581,#582,#583,#584,#585,#586,#587,#588,
    #589,#590,#591,#592,#593,#594,#595,#596,#597,#598,#599,#600,#601,
    #602,#603,#604,#605,#606,#607,#608,#609,#610,#611,#612,#613,#614,
    #615,#616,#617,#618,#619,#620),.UNSPECIFIED.,.F.,.F.,(9,7,7,7,7,7,7,
    9),(0.,9.67522360367E-02,0.173734374534,0.358177422384,
    0.490270984823,0.630861893642,0.831936566339,1.),.UNSPECIFIED.);
#570 = CARTESIAN_POINT('',(0.,-11.01999355254));
#571 = CARTESIAN_POINT('',(-8.530619588879E-02,-11.04405639487));
#572 = CARTESIAN_POINT('',(-0.170253509037,-11.06757793756));
#573 = CARTESIAN_POINT('',(-0.254638070405,-11.09024082369));
#574 = CARTESIAN_POINT('',(-0.338255744071,-11.11177253339));
#575 = CARTESIAN_POINT('',(-0.420882365871,-11.13195196197));
#576 = CARTESIAN_POINT('',(-0.502249538858,-11.15061299358));
#577 = CARTESIAN_POINT('',(-0.582015985593,-11.16764506999));
#578 = CARTESIAN_POINT('',(-0.721572140746,-11.1952007427));
#579 = CARTESIAN_POINT('',(-0.782408927257,-11.2064015789));
#580 = CARTESIAN_POINT('',(-0.842340092628,-11.21661443884));
#581 = CARTESIAN_POINT('',(-0.901447042471,-11.22586344487));
#582 = CARTESIAN_POINT('',(-0.9598015622,-11.23417397629));
#583 = CARTESIAN_POINT('',(-1.017468638944,-11.24157139623));
#584 = CARTESIAN_POINT('',(-1.074507855354,-11.24808019543));
#585 = CARTESIAN_POINT('',(-1.266260177797,-11.26724458637));
#586 = CARTESIAN_POINT('',(-1.398808621374,-11.27585305002));
#587 = CARTESIAN_POINT('',(-1.529819437413,-11.27984660562));
#588 = CARTESIAN_POINT('',(-1.660295336879,-11.27938799818));
#589 = CARTESIAN_POINT('',(-1.791251974368,-11.27449862829));
#590 = CARTESIAN_POINT('',(-1.923780751702,-11.26504476243));
#591 = CARTESIAN_POINT('',(-2.059147969787,-11.25071608148));
#592 = CARTESIAN_POINT('',(-2.299355690869,-11.2168734234));
#593 = CARTESIAN_POINT('',(-2.4033408443,-11.19979037573));
#594 = CARTESIAN_POINT('',(-2.510288178831,-11.1796414845));
#595 = CARTESIAN_POINT('',(-2.619727317409,-11.15643924345));
#596 = CARTESIAN_POINT('',(-2.731382148434,-11.13030549153));
#597 = CARTESIAN_POINT('',(-2.845109380846,-11.10148998217));
#598 = CARTESIAN_POINT('',(-2.960876290866,-11.07039703137));
#599 = CARTESIAN_POINT('',(-3.204228613194,-11.00269518671));
#600 = CARTESIAN_POINT('',(-3.327980888638,-10.96700470956));
#601 = CARTESIAN_POINT('',(-3.449924114488,-10.93141949783));
#602 = CARTESIAN_POINT('',(-3.569885408826,-10.89689894296));
#603 = CARTESIAN_POINT('',(-3.687583408826,-10.86441811093));
#604 = CARTESIAN_POINT('',(-3.802581223229,-10.83485941478));
#605 = CARTESIAN_POINT('',(-3.914183367015,-10.80888454323));
#606 = CARTESIAN_POINT('',(-4.174350169948,-10.7552666334));
#607 = CARTESIAN_POINT('',(-4.321893581809,-10.73094440115));
#608 = CARTESIAN_POINT('',(-4.466097505417,-10.71418184231));
#609 = CARTESIAN_POINT('',(-4.608434578841,-10.70518157811));
#610 = CARTESIAN_POINT('',(-4.750195452701,-10.70406897588));
#611 = CARTESIAN_POINT('',(-4.89250761592,-10.71086657365));
#612 = CARTESIAN_POINT('',(-5.036520889644,-10.72544087543));
#613 = CARTESIAN_POINT('',(-5.30658372024,-10.76588302783));
#614 = CARTESIAN_POINT('',(-5.434931258615,-10.78998768941));
#615 = CARTESIAN_POINT('',(-5.56744513614,-10.81973968082));
#616 = CARTESIAN_POINT('',(-5.703537779752,-10.8545283802));
#617 = CARTESIAN_POINT('',(-5.84299655644,-10.89330201969));
#618 = CARTESIAN_POINT('',(-5.985850565689,-10.93474666065));
#619 = CARTESIAN_POINT('',(-6.132368037795,-10.97745159956));
#620 = CARTESIAN_POINT('',(-6.28318530718,-11.01999355254));
#621 = ( GEOMETRIC_REPRESENTATION_CONTEXT(2) 
PARAMETRIC_REPRESENTATION_CONTEXT() REPRESENTATION_CONTEXT('2D SPACE',''
  ) );
#622 = FACE_BOUND('',#623,.T.);
#623 = EDGE_LOOP('',(#624));
#624 = ORIENTED_EDGE('',*,*,#625,.T.);
#625 = EDGE_CURVE('',#626,#626,#628,.T.);
#626 = VERTEX_POINT('',#627);
#627 = CARTESIAN_POINT('',(11.2500001,3.0000001,4.95257548245));
#628 = SURFACE_CURVE('',#629,(#681,#736),.PCURVE_S1.);
#629 = B_SPLINE_CURVE_WITH_KNOTS('',8,(#630,#631,#632,#633,#634,#635,
    #636,#637,#638,#639,#640,#641,#642,#643,#644,#645,#646,#647,#648,
    #649,#650,#651,#652,#653,#654,#655,#656,#657,#658,#659,#660,#661,
    #662,#663,#664,#665,#666,#667,#668,#669,#670,#671,#672,#673,#674,
    #675,#676,#677,#678,#679,#680),.UNSPECIFIED.,.T.,.F.,(9,7,7,7,7,7,7,
    9),(0.,0.135348942364,0.24969255508,0.399350543477,0.534717112771,
    0.749395694835,0.864005564832,1.),.UNSPECIFIED.);
#630 = CARTESIAN_POINT('',(11.2500001,3.0000001,4.95257548245));
#631 = CARTESIAN_POINT('',(11.2500001,2.846893987018,4.933162663199));
#632 = CARTESIAN_POINT('',(11.228567984847,2.696459974547,4.914951522744
    ));
#633 = CARTESIAN_POINT('',(11.187012385567,2.552182849094,4.898328971859
    ));
#634 = CARTESIAN_POINT('',(11.127285545606,2.417179290604,4.883527433921
    ));
#635 = CARTESIAN_POINT('',(11.051948477012,2.294087361959,4.870636976523
    ));
#636 = CARTESIAN_POINT('',(10.964131295996,2.184926287658,4.859645101096
    ));
#637 = CARTESIAN_POINT('',(10.867486621083,2.090923550426,4.85047516119)
  );
#638 = CARTESIAN_POINT('',(10.680510534028,1.945890030641,4.836674570581
    ));
#639 = CARTESIAN_POINT('',(10.59014751345,1.889384020765,4.831458491351)
  );
#640 = CARTESIAN_POINT('',(10.496149972151,1.842625774586,4.827246480044
    ));
#641 = CARTESIAN_POINT('',(10.399441002538,1.805445175314,4.823958452958
    ));
#642 = CARTESIAN_POINT('',(10.300806421152,1.777686466442,4.821533787929
    ));
#643 = CARTESIAN_POINT('',(10.200936386735,1.759228044814,4.819931466886
    ));
#644 = CARTESIAN_POINT('',(10.100463887845,1.7500001,4.819130478097));
#645 = CARTESIAN_POINT('',(9.868508641594,1.7500001,4.819130478097));
#646 = CARTESIAN_POINT('',(9.736923804148,1.765807747216,4.820502656678)
  );
#647 = CARTESIAN_POINT('',(9.606620067373,1.797464445372,4.823250460228)
  );
#648 = CARTESIAN_POINT('',(9.479082931741,1.845198289438,4.827438568674)
  );
#649 = CARTESIAN_POINT('',(9.356023951894,1.909339072972,4.833184703142)
  );
#650 = CARTESIAN_POINT('',(9.239490083288,1.990244571327,4.840662019151)
  );
#651 = CARTESIAN_POINT('',(9.132014813115,2.088195945673,4.850096267623)
  );
#652 = CARTESIAN_POINT('',(8.950789119215,2.307260178157,4.872275457428)
  );
#653 = CARTESIAN_POINT('',(8.873074492776,2.427351119051,4.884829265956)
  );
#654 = CARTESIAN_POINT('',(8.809184442362,2.561663318033,4.899430874336)
  );
#655 = CARTESIAN_POINT('',(8.763208661164,2.706988261504,4.915979810531)
  );
#656 = CARTESIAN_POINT('',(8.737810923492,2.859192754587,4.934211873989)
  );
#657 = CARTESIAN_POINT('',(8.734181284389,3.013640364559,4.953661265516)
  );
#658 = CARTESIAN_POINT('',(8.751980536964,3.165625115773,4.973676860321)
  );
#659 = CARTESIAN_POINT('',(8.84841053337,3.541195155277,5.02506413772));
#660 = CARTESIAN_POINT('',(8.953985053601,3.744483086234,5.054839522771)
  );
#661 = CARTESIAN_POINT('',(9.093024386408,3.914977557851,5.081289897545)
  );
#662 = CARTESIAN_POINT('',(9.255779102263,4.050823025676,5.103218041463)
  );
#663 = CARTESIAN_POINT('',(9.434131948103,4.151510243291,5.119880862067)
  );
#664 = CARTESIAN_POINT('',(9.621333228976,4.217561790211,5.130936703633)
  );
#665 = CARTESIAN_POINT('',(9.811639888289,4.2500001,5.136366700791));
#666 = CARTESIAN_POINT('',(10.100559453286,4.2500001,5.136366700791));
#667 = CARTESIAN_POINT('',(10.201129311178,4.240754568756,5.134819050674
    ));
#668 = CARTESIAN_POINT('',(10.301079280084,4.222260471823,5.131723372041
    ));
#669 = CARTESIAN_POINT('',(10.399759167412,4.194456054442,5.127084803053
    ));
#670 = CARTESIAN_POINT('',(10.496465791911,4.157235015307,5.120917059091
    ));
#671 = CARTESIAN_POINT('',(10.590406631655,4.110462653912,5.113246068888
    ));
#672 = CARTESIAN_POINT('',(10.680660309649,4.053993991478,5.104114186144
    ));
#673 = CARTESIAN_POINT('',(10.867555679108,3.909023082679,5.081091166957
    ));
#674 = CARTESIAN_POINT('',(10.964102884527,3.815070005545,5.066401260831
    ));
#675 = CARTESIAN_POINT('',(11.051794175919,3.706053973862,5.049706671167
    ));
#676 = CARTESIAN_POINT('',(11.12706278227,3.583150834511,5.031389312435)
  );
#677 = CARTESIAN_POINT('',(11.186811909039,3.448301836788,5.0119631242)
  );
#678 = CARTESIAN_POINT('',(11.228463480279,3.304061832652,4.991995536406
    ));
#679 = CARTESIAN_POINT('',(11.2500001,3.153479224116,4.972035596989));
#680 = CARTESIAN_POINT('',(11.2500001,3.0000001,4.95257548245));
#681 = PCURVE('',#77,#682);
#682 = DEFINITIONAL_REPRESENTATION('',(#683),#735);
#683 = B_SPLINE_CURVE_WITH_KNOTS('',8,(#684,#685,#686,#687,#688,#689,
    #690,#691,#692,#693,#694,#695,#696,#697,#698,#699,#700,#701,#702,
    #703,#704,#705,#706,#707,#708,#709,#710,#711,#712,#713,#714,#715,
    #716,#717,#718,#719,#720,#721,#722,#723,#724,#725,#726,#727,#728,
    #729,#730,#731,#732,#733,#734),.UNSPECIFIED.,.T.,.F.,(9,7,7,7,7,7,7,
    9),(0.,0.135348942364,0.24969255508,0.399350543477,0.534717112771,
    0.749395694835,0.864005564832,1.),.UNSPECIFIED.);
#684 = CARTESIAN_POINT('',(-1.696916575952,-92.25));
#685 = CARTESIAN_POINT('',(-1.692063371139,-92.25));
#686 = CARTESIAN_POINT('',(-1.687298280169,-92.22856788484));
#687 = CARTESIAN_POINT('',(-1.682731375652,-92.18701228556));
#688 = CARTESIAN_POINT('',(-1.678460653265,-92.1272854456));
#689 = CARTESIAN_POINT('',(-1.674568738848,-92.05194837701));
#690 = CARTESIAN_POINT('',(-1.671118669133,-91.96413119599));
#691 = CARTESIAN_POINT('',(-1.668148585331,-91.86748652108));
#692 = CARTESIAN_POINT('',(-1.663567181737,-91.68051043402));
#693 = CARTESIAN_POINT('',(-1.661782715581,-91.59014741345));
#694 = CARTESIAN_POINT('',(-1.660306381538,-91.49614987215));
#695 = CARTESIAN_POINT('',(-1.659132618747,-91.39944090253));
#696 = CARTESIAN_POINT('',(-1.65825637976,-91.30080632115));
#697 = CARTESIAN_POINT('',(-1.657673743451,-91.20093628673));
#698 = CARTESIAN_POINT('',(-1.657382465347,-91.10046378784));
#699 = CARTESIAN_POINT('',(-1.657382465347,-90.86850854159));
#700 = CARTESIAN_POINT('',(-1.657881430521,-90.73692370414));
#701 = CARTESIAN_POINT('',(-1.658880667139,-90.60661996737));
#702 = CARTESIAN_POINT('',(-1.660387497537,-90.47908283174));
#703 = CARTESIAN_POINT('',(-1.66241257343,-90.35602385189));
#704 = CARTESIAN_POINT('',(-1.664967589891,-90.23948998328));
#705 = CARTESIAN_POINT('',(-1.668062039073,-90.13201471311));
#706 = CARTESIAN_POINT('',(-1.674986068554,-89.95078901921));
#707 = CARTESIAN_POINT('',(-1.678783070295,-89.87307439277));
#708 = CARTESIAN_POINT('',(-1.683031551655,-89.80918434236));
#709 = CARTESIAN_POINT('',(-1.687630921926,-89.76320856116));
#710 = CARTESIAN_POINT('',(-1.692451276125,-89.73781082349));
#711 = CARTESIAN_POINT('',(-1.697346343139,-89.73418118438));
#712 = CARTESIAN_POINT('',(-1.702166944978,-89.75198043696));
#713 = CARTESIAN_POINT('',(-1.714087362083,-89.84841043337));
#714 = CARTESIAN_POINT('',(-1.720547983125,-89.9539849536));
#715 = CARTESIAN_POINT('',(-1.725973306948,-90.0930242864));
#716 = CARTESIAN_POINT('',(-1.730300417362,-90.25577900226));
#717 = CARTESIAN_POINT('',(-1.733509733283,-90.4341318481));
#718 = CARTESIAN_POINT('',(-1.735615724402,-90.62133312897));
#719 = CARTESIAN_POINT('',(-1.736649989522,-90.81163978828));
#720 = CARTESIAN_POINT('',(-1.736649989522,-91.10055935328));
#721 = CARTESIAN_POINT('',(-1.736355204264,-91.20112921117));
#722 = CARTESIAN_POINT('',(-1.735765537798,-91.30107918008));
#723 = CARTESIAN_POINT('',(-1.734879101268,-91.39975906741));
#724 = CARTESIAN_POINT('',(-1.733692669015,-91.49646569191));
#725 = CARTESIAN_POINT('',(-1.732202194791,-91.59040653165));
#726 = CARTESIAN_POINT('',(-1.730403388055,-91.68066020964));
#727 = CARTESIAN_POINT('',(-1.725787423188,-91.8675555791));
#728 = CARTESIAN_POINT('',(-1.722797037337,-91.96410278452));
#729 = CARTESIAN_POINT('',(-1.719328923248,-92.05179407591));
#730 = CARTESIAN_POINT('',(-1.715421425022,-92.12706268227));
#731 = CARTESIAN_POINT('',(-1.711137227908,-92.18681180903));
#732 = CARTESIAN_POINT('',(-1.706558248702,-92.22846338027));
#733 = CARTESIAN_POINT('',(-1.701781604586,-92.25));
#734 = CARTESIAN_POINT('',(-1.696916575952,-92.25));
#735 = ( GEOMETRIC_REPRESENTATION_CONTEXT(2) 
PARAMETRIC_REPRESENTATION_CONTEXT() REPRESENTATION_CONTEXT('2D SPACE',''
  ) );
#736 = PCURVE('',#361,#737);
#737 = DEFINITIONAL_REPRESENTATION('',(#738),#790);
#738 = B_SPLINE_CURVE_WITH_KNOTS('',8,(#739,#740,#741,#742,#743,#744,
    #745,#746,#747,#748,#749,#750,#751,#752,#753,#754,#755,#756,#757,
    #758,#759,#760,#761,#762,#763,#764,#765,#766,#767,#768,#769,#770,
    #771,#772,#773,#774,#775,#776,#777,#778,#779,#780,#781,#782,#783,
    #784,#785,#786,#787,#788,#789),.UNSPECIFIED.,.F.,.F.,(9,7,7,7,7,7,7,
    9),(0.,0.135348942364,0.24969255508,0.399350543477,0.534717112771,
    0.749395694835,0.864005564832,1.),.UNSPECIFIED.);
#739 = CARTESIAN_POINT('',(0.,-11.54742461755));
#740 = CARTESIAN_POINT('',(-0.122484890386,-11.5668374368));
#741 = CARTESIAN_POINT('',(-0.242832057128,-11.58504857725));
#742 = CARTESIAN_POINT('',(-0.361053975322,-11.60167112814));
#743 = CARTESIAN_POINT('',(-0.477046904135,-11.61647266607));
#744 = CARTESIAN_POINT('',(-0.590580931476,-11.62936312347));
#745 = CARTESIAN_POINT('',(-0.701262928025,-11.6403549989));
#746 = CARTESIAN_POINT('',(-0.808446354935,-11.64952493881));
#747 = CARTESIAN_POINT('',(-0.997752082674,-11.66332552941));
#748 = CARTESIAN_POINT('',(-1.082579657325,-11.66854160864));
#749 = CARTESIAN_POINT('',(-1.165915644407,-11.67275361995));
#750 = CARTESIAN_POINT('',(-1.248078752048,-11.67604164704));
#751 = CARTESIAN_POINT('',(-1.32936100492,-11.67846631207));
#752 = CARTESIAN_POINT('',(-1.41004679111,-11.68006863311));
#753 = CARTESIAN_POINT('',(-1.490425296519,-11.6808696219));
#754 = CARTESIAN_POINT('',(-1.67598949352,-11.6808696219));
#755 = CARTESIAN_POINT('',(-1.781257000463,-11.67949744332));
#756 = CARTESIAN_POINT('',(-1.887275017322,-11.67674963977));
#757 = CARTESIAN_POINT('',(-1.994635209964,-11.67256153132));
#758 = CARTESIAN_POINT('',(-2.103941826042,-11.66681539685));
#759 = CARTESIAN_POINT('',(-2.215831779598,-11.65933808084));
#760 = CARTESIAN_POINT('',(-2.331016244906,-11.64990383237));
#761 = CARTESIAN_POINT('',(-2.558463842504,-11.62772464257));
#762 = CARTESIAN_POINT('',(-2.67211939159,-11.61517083404));
#763 = CARTESIAN_POINT('',(-2.789409204786,-11.60056922566));
#764 = CARTESIAN_POINT('',(-2.909043649731,-11.58402028946));
#765 = CARTESIAN_POINT('',(-3.030066484204,-11.56578822601));
#766 = CARTESIAN_POINT('',(-3.151652868363,-11.54633883448));
#767 = CARTESIAN_POINT('',(-3.2729614715,-11.52632323967));
#768 = CARTESIAN_POINT('',(-3.583163056311,-11.47493596228));
#769 = CARTESIAN_POINT('',(-3.761690477498,-11.44516057722));
#770 = CARTESIAN_POINT('',(-3.931940439358,-11.41871020245));
#771 = CARTESIAN_POINT('',(-4.095686626805,-11.39678205853));
#772 = CARTESIAN_POINT('',(-4.254487975989,-11.38011923793));
#773 = CARTESIAN_POINT('',(-4.40945381682,-11.36906339636));
#774 = CARTESIAN_POINT('',(-4.561700811016,-11.3636333992));
#775 = CARTESIAN_POINT('',(-4.792836463014,-11.3636333992));
#776 = CARTESIAN_POINT('',(-4.873292890294,-11.36518104932));
#777 = CARTESIAN_POINT('',(-4.954044895728,-11.36827672795));
#778 = CARTESIAN_POINT('',(-5.035370197227,-11.37291529694));
#779 = CARTESIAN_POINT('',(-5.117542790338,-11.3790830409));
#780 = CARTESIAN_POINT('',(-5.200844782208,-11.38675403111));
#781 = CARTESIAN_POINT('',(-5.285584866266,-11.39588591385));
#782 = CARTESIAN_POINT('',(-5.474808870703,-11.41890893304));
#783 = CARTESIAN_POINT('',(-5.581906269113,-11.43359883916));
#784 = CARTESIAN_POINT('',(-5.692441212988,-11.45029342883));
#785 = CARTESIAN_POINT('',(-5.80582877685,-11.46861078756));
#786 = CARTESIAN_POINT('',(-5.921723382141,-11.4880369758));
#787 = CARTESIAN_POINT('',(-6.039935917732,-11.50800456359));
#788 = CARTESIAN_POINT('',(-6.160402007887,-11.52796450301));
#789 = CARTESIAN_POINT('',(-6.28318530718,-11.54742461755));
#790 = ( GEOMETRIC_REPRESENTATION_CONTEXT(2) 
PARAMETRIC_REPRESENTATION_CONTEXT() REPRESENTATION_CONTEXT('2D SPACE',''
  ) );
#791 = FACE_BOUND('',#792,.T.);
#792 = EDGE_LOOP('',(#793));
#793 = ORIENTED_EDGE('',*,*,#794,.T.);
#794 = EDGE_CURVE('',#795,#795,#797,.T.);
#795 = VERTEX_POINT('',#796);
#796 = CARTESIAN_POINT('',(4.7500001,6.0000001,5.480006547454));
#797 = SURFACE_CURVE('',#798,(#850,#905),.PCURVE_S1.);
#798 = B_SPLINE_CURVE_WITH_KNOTS('',8,(#799,#800,#801,#802,#803,#804,
    #805,#806,#807,#808,#809,#810,#811,#812,#813,#814,#815,#816,#817,
    #818,#819,#820,#821,#822,#823,#824,#825,#826,#827,#828,#829,#830,
    #831,#832,#833,#834,#835,#836,#837,#838,#839,#840,#841,#842,#843,
    #844,#845,#846,#847,#848,#849),.UNSPECIFIED.,.T.,.F.,(9,7,7,7,7,7,7,
    9),(0.,9.675223602543E-02,0.173734374519,0.358177422361,
    0.490270984793,0.630861893605,0.831936566293,1.),.UNSPECIFIED.);
#799 = CARTESIAN_POINT('',(4.7500001,6.0000001,5.480006547454));
#800 = CARTESIAN_POINT('',(4.7500001,5.893367355146,5.455943705123));
#801 = CARTESIAN_POINT('',(4.739603973818,5.787182886289,5.432422162439)
  );
#802 = CARTESIAN_POINT('',(4.718965639887,5.682885566851,5.409759276302)
  );
#803 = CARTESIAN_POINT('',(4.688536779128,5.581868237757,5.388227566609)
  );
#804 = CARTESIAN_POINT('',(4.64905479343,5.485426103757,5.368048138022)
  );
#805 = CARTESIAN_POINT('',(4.601530650462,5.394701972001,5.349387106413)
  );
#806 = CARTESIAN_POINT('',(4.547236614815,5.310628332849,5.332355030006)
  );
#807 = CARTESIAN_POINT('',(4.440317924977,5.172789588478,5.3047993573));
#808 = CARTESIAN_POINT('',(4.389392478668,5.116049624129,5.293598521091)
  );
#809 = CARTESIAN_POINT('',(4.33536481439,5.063718419229,5.283385661155)
  );
#810 = CARTESIAN_POINT('',(4.278648572029,5.015839461613,5.274136655127)
  );
#811 = CARTESIAN_POINT('',(4.21962813351,4.972432470862,5.265826123706)
  );
#812 = CARTESIAN_POINT('',(4.15866249257,4.933497531359,5.258428703768)
  );
#813 = CARTESIAN_POINT('',(4.0960886043,4.899018585119,5.251919904563));
#814 = CARTESIAN_POINT('',(3.879210243401,4.796963375113,5.232755513624)
  );
#815 = CARTESIAN_POINT('',(3.718160317737,4.750075874639,5.224147049979)
  );
#816 = CARTESIAN_POINT('',(3.552775156696,4.727997072217,5.22015349438)
  );
#817 = CARTESIAN_POINT('',(3.386106671028,4.730483101741,5.22061210182)
  );
#818 = CARTESIAN_POINT('',(3.220967519892,4.757447449741,5.225501471706)
  );
#819 = CARTESIAN_POINT('',(3.060154550132,4.809074628908,5.234955337563)
  );
#820 = CARTESIAN_POINT('',(2.90681302316,4.885890766513,5.249284018512)
  );
#821 = CARTESIAN_POINT('',(2.66389786249,5.062378961437,5.283126676593)
  );
#822 = CARTESIAN_POINT('',(2.567178025432,5.150393186312,5.300209724265)
  );
#823 = CARTESIAN_POINT('',(2.478555599909,5.252587974423,5.320358615494)
  );
#824 = CARTESIAN_POINT('',(2.401155702636,5.367975343755,5.343560856544)
  );
#825 = CARTESIAN_POINT('',(2.337730295085,5.49492081243,5.369694608462)
  );
#826 = CARTESIAN_POINT('',(2.290618846807,5.631270584206,5.398510117827)
  );
#827 = CARTESIAN_POINT('',(2.261719226472,5.774447086213,5.429603068625)
  );
#828 = CARTESIAN_POINT('',(2.242618953037,6.078037238848,5.497304913285)
  );
#829 = CARTESIAN_POINT('',(2.255350155576,6.233834502595,5.532995390434)
  );
#830 = CARTESIAN_POINT('',(2.289830656539,6.384964379753,5.568580602164)
  );
#831 = CARTESIAN_POINT('',(2.344379957873,6.527768605943,5.603101157036)
  );
#832 = CARTESIAN_POINT('',(2.416524366309,6.659059212363,5.635581989063)
  );
#833 = CARTESIAN_POINT('',(2.503058245563,6.776304803169,5.66514068522)
  );
#834 = CARTESIAN_POINT('',(2.600110772689,6.877842189017,5.69111555677)
  );
#835 = CARTESIAN_POINT('',(2.850688231428,7.085137890924,5.744733466595)
  );
#836 = CARTESIAN_POINT('',(3.014139840756,7.176892705726,5.769055698848)
  );
#837 = CARTESIAN_POINT('',(3.187744843298,7.239109921676,5.785818257682)
  );
#838 = CARTESIAN_POINT('',(3.367321840214,7.272231567823,5.794818521884)
  );
#839 = CARTESIAN_POINT('',(3.549076772108,7.276366262242,5.795931124119)
  );
#840 = CARTESIAN_POINT('',(3.729216218178,7.251419777628,5.789133526344)
  );
#841 = CARTESIAN_POINT('',(3.90364661623,7.197239724424,5.774559224561)
  );
#842 = CARTESIAN_POINT('',(4.204431296276,7.043982275122,5.734117072155)
  );
#843 = CARTESIAN_POINT('',(4.337575419664,6.951902988566,5.71001241058)
  );
#844 = CARTESIAN_POINT('',(4.460890326398,6.836870390732,5.680260419176)
  );
#845 = CARTESIAN_POINT('',(4.568685806419,6.699979558396,5.645471719806)
  );
#846 = CARTESIAN_POINT('',(4.655758612805,6.543705840877,5.606698080311)
  );
#847 = CARTESIAN_POINT('',(4.717506615749,6.371667483635,5.565253439337)
  );
#848 = CARTESIAN_POINT('',(4.7500001,6.188521686686,5.522548500423));
#849 = CARTESIAN_POINT('',(4.7500001,6.0000001,5.480006547454));
#850 = PCURVE('',#77,#851);
#851 = DEFINITIONAL_REPRESENTATION('',(#852),#904);
#852 = B_SPLINE_CURVE_WITH_KNOTS('',8,(#853,#854,#855,#856,#857,#858,
    #859,#860,#861,#862,#863,#864,#865,#866,#867,#868,#869,#870,#871,
    #872,#873,#874,#875,#876,#877,#878,#879,#880,#881,#882,#883,#884,
    #885,#886,#887,#888,#889,#890,#891,#892,#893,#894,#895,#896,#897,
    #898,#899,#900,#901,#902,#903),.UNSPECIFIED.,.T.,.F.,(9,7,7,7,7,7,7,
    9),(0.,9.675223602543E-02,0.173734374519,0.358177422361,
    0.490270984793,0.630861893605,0.831936566293,1.),.UNSPECIFIED.);
#853 = CARTESIAN_POINT('',(-1.792739744508,-85.75));
#854 = CARTESIAN_POINT('',(-1.789302195603,-85.75));
#855 = CARTESIAN_POINT('',(-1.78588214453,-85.73960387381));
#856 = CARTESIAN_POINT('',(-1.782525864503,-85.71896553988));
#857 = CARTESIAN_POINT('',(-1.779277907126,-85.68853667912));
#858 = CARTESIAN_POINT('',(-1.77617949587,-85.64905469343));
#859 = CARTESIAN_POINT('',(-1.773266831316,-85.60153055046));
#860 = CARTESIAN_POINT('',(-1.770569308166,-85.54723651481));
#861 = CARTESIAN_POINT('',(-1.766148989876,-85.44031782497));
#862 = CARTESIAN_POINT('',(-1.764330285821,-85.38939237866));
#863 = CARTESIAN_POINT('',(-1.762653610962,-85.33536471439));
#864 = CARTESIAN_POINT('',(-1.761120153104,-85.27864847202));
#865 = CARTESIAN_POINT('',(-1.759730364216,-85.21962803351));
#866 = CARTESIAN_POINT('',(-1.75848409386,-85.15866239257));
#867 = CARTESIAN_POINT('',(-1.757380700632,-85.0960885043));
#868 = CARTESIAN_POINT('',(-1.754115322993,-84.8792101434));
#869 = CARTESIAN_POINT('',(-1.752616240742,-84.71816021773));
#870 = CARTESIAN_POINT('',(-1.751910670411,-84.55277505669));
#871 = CARTESIAN_POINT('',(-1.751990163619,-84.38610657102));
#872 = CARTESIAN_POINT('',(-1.752851931748,-84.22096741989));
#873 = CARTESIAN_POINT('',(-1.754502419047,-84.06015445013));
#874 = CARTESIAN_POINT('',(-1.756959655073,-83.90681292316));
#875 = CARTESIAN_POINT('',(-1.762610713829,-83.66389776249));
#876 = CARTESIAN_POINT('',(-1.765430101394,-83.56717792543));
#877 = CARTESIAN_POINT('',(-1.768705616836,-83.4785554999));
#878 = CARTESIAN_POINT('',(-1.772406723494,-83.40115560263));
#879 = CARTESIAN_POINT('',(-1.776482337089,-83.33773019508));
#880 = CARTESIAN_POINT('',(-1.780864659434,-83.2906187468));
#881 = CARTESIAN_POINT('',(-1.785471939197,-83.26171912647));
#882 = CARTESIAN_POINT('',(-1.795253305772,-83.24261885303));
#883 = CARTESIAN_POINT('',(-1.800279418226,-83.25535005557));
#884 = CARTESIAN_POINT('',(-1.805161748246,-83.28983055653));
#885 = CARTESIAN_POINT('',(-1.80978164754,-83.34437985787));
#886 = CARTESIAN_POINT('',(-1.814034660409,-83.4165242663));
#887 = CARTESIAN_POINT('',(-1.817836956707,-83.50305814556));
#888 = CARTESIAN_POINT('',(-1.821132766223,-83.60011067268));
#889 = CARTESIAN_POINT('',(-1.827866027143,-83.85068813142));
#890 = CARTESIAN_POINT('',(-1.830850996602,-84.01413974075));
#891 = CARTESIAN_POINT('',(-1.83287726993,-84.18774474329));
#892 = CARTESIAN_POINT('',(-1.833956608191,-84.36732174021));
#893 = CARTESIAN_POINT('',(-1.83409125246,-84.5490766721));
#894 = CARTESIAN_POINT('',(-1.833278165153,-84.72921611817));
#895 = CARTESIAN_POINT('',(-1.831513844217,-84.90364651623));
#896 = CARTESIAN_POINT('',(-1.826529452074,-85.20443119627));
#897 = CARTESIAN_POINT('',(-1.823536311108,-85.33757531966));
#898 = CARTESIAN_POINT('',(-1.819799925789,-85.46089022639));
#899 = CARTESIAN_POINT('',(-1.815358435232,-85.56868570641));
#900 = CARTESIAN_POINT('',(-1.810295351669,-85.6557585128));
#901 = CARTESIAN_POINT('',(-1.804730813822,-85.71750651574));
#902 = CARTESIAN_POINT('',(-1.798817166361,-85.75));
#903 = CARTESIAN_POINT('',(-1.792739744508,-85.75));
#904 = ( GEOMETRIC_REPRESENTATION_CONTEXT(2) 
PARAMETRIC_REPRESENTATION_CONTEXT() REPRESENTATION_CONTEXT('2D SPACE',''
  ) );
#905 = PCURVE('',#291,#906);
#906 = DEFINITIONAL_REPRESENTATION('',(#907),#959);
#907 = B_SPLINE_CURVE_WITH_KNOTS('',8,(#908,#909,#910,#911,#912,#913,
    #914,#915,#916,#917,#918,#919,#920,#921,#922,#923,#924,#925,#926,
    #927,#928,#929,#930,#931,#932,#933,#934,#935,#936,#937,#938,#939,
    #940,#941,#942,#943,#944,#945,#946,#947,#948,#949,#950,#951,#952,
    #953,#954,#955,#956,#957,#958),.UNSPECIFIED.,.F.,.F.,(9,7,7,7,7,7,7,
    9),(0.,9.675223602543E-02,0.173734374519,0.358177422361,
    0.490270984793,0.630861893605,0.831936566293,1.),.UNSPECIFIED.);
#908 = CARTESIAN_POINT('',(0.,-11.01999355254));
#909 = CARTESIAN_POINT('',(-8.530619588287E-02,-11.04405639487));
#910 = CARTESIAN_POINT('',(-0.17025350904,-11.06757793756));
#911 = CARTESIAN_POINT('',(-0.254638070411,-11.09024082369));
#912 = CARTESIAN_POINT('',(-0.338255744071,-11.11177253339));
#913 = CARTESIAN_POINT('',(-0.420882365865,-11.13195196197));
#914 = CARTESIAN_POINT('',(-0.502249538855,-11.15061299358));
#915 = CARTESIAN_POINT('',(-0.582015985599,-11.16764506999));
#916 = CARTESIAN_POINT('',(-0.721572140746,-11.1952007427));
#917 = CARTESIAN_POINT('',(-0.782408927257,-11.2064015789));
#918 = CARTESIAN_POINT('',(-0.842340092628,-11.21661443884));
#919 = CARTESIAN_POINT('',(-0.901447042471,-11.22586344487));
#920 = CARTESIAN_POINT('',(-0.9598015622,-11.23417397629));
#921 = CARTESIAN_POINT('',(-1.017468638944,-11.24157139623));
#922 = CARTESIAN_POINT('',(-1.074507855354,-11.24808019543));
#923 = CARTESIAN_POINT('',(-1.266260177797,-11.26724458637));
#924 = CARTESIAN_POINT('',(-1.398808621374,-11.27585305002));
#925 = CARTESIAN_POINT('',(-1.529819437413,-11.27984660562));
#926 = CARTESIAN_POINT('',(-1.660295336879,-11.27938799818));
#927 = CARTESIAN_POINT('',(-1.791251974369,-11.27449862829));
#928 = CARTESIAN_POINT('',(-1.923780751702,-11.26504476243));
#929 = CARTESIAN_POINT('',(-2.059147969786,-11.25071608148));
#930 = CARTESIAN_POINT('',(-2.299355690869,-11.2168734234));
#931 = CARTESIAN_POINT('',(-2.4033408443,-11.19979037573));
#932 = CARTESIAN_POINT('',(-2.510288178831,-11.1796414845));
#933 = CARTESIAN_POINT('',(-2.61972731741,-11.15643924345));
#934 = CARTESIAN_POINT('',(-2.731382148435,-11.13030549153));
#935 = CARTESIAN_POINT('',(-2.845109380845,-11.10148998217));
#936 = CARTESIAN_POINT('',(-2.960876290866,-11.07039703137));
#937 = CARTESIAN_POINT('',(-3.204228613194,-11.00269518671));
#938 = CARTESIAN_POINT('',(-3.327980888638,-10.96700470956));
#939 = CARTESIAN_POINT('',(-3.449924114488,-10.93141949783));
#940 = CARTESIAN_POINT('',(-3.569885408826,-10.89689894296));
#941 = CARTESIAN_POINT('',(-3.687583408825,-10.86441811093));
#942 = CARTESIAN_POINT('',(-3.802581223229,-10.83485941478));
#943 = CARTESIAN_POINT('',(-3.914183367015,-10.80888454323));
#944 = CARTESIAN_POINT('',(-4.174350169948,-10.7552666334));
#945 = CARTESIAN_POINT('',(-4.321893581808,-10.73094440115));
#946 = CARTESIAN_POINT('',(-4.466097505419,-10.71418184231));
#947 = CARTESIAN_POINT('',(-4.608434578838,-10.70518157811));
#948 = CARTESIAN_POINT('',(-4.750195452703,-10.70406897588));
#949 = CARTESIAN_POINT('',(-4.892507615919,-10.71086657365));
#950 = CARTESIAN_POINT('',(-5.036520889644,-10.72544087543));
#951 = CARTESIAN_POINT('',(-5.30658372028,-10.76588302784));
#952 = CARTESIAN_POINT('',(-5.434931258623,-10.78998768942));
#953 = CARTESIAN_POINT('',(-5.567445136118,-10.81973968082));
#954 = CARTESIAN_POINT('',(-5.703537779719,-10.85452838019));
#955 = CARTESIAN_POINT('',(-5.842996556422,-10.89330201968));
#956 = CARTESIAN_POINT('',(-5.985850565703,-10.93474666066));
#957 = CARTESIAN_POINT('',(-6.132368037831,-10.97745159957));
#958 = CARTESIAN_POINT('',(-6.28318530718,-11.01999355254));
#959 = ( GEOMETRIC_REPRESENTATION_CONTEXT(2) 
PARAMETRIC_REPRESENTATION_CONTEXT() REPRESENTATION_CONTEXT('2D SPACE',''
  ) );
#960 = ADVANCED_FACE('',(#961),#164,.T.);
#961 = FACE_BOUND('',#962,.T.);
#962 = EDGE_LOOP('',(#963,#964,#965,#966));
#963 = ORIENTED_EDGE('',*,*,#146,.F.);
#964 = ORIENTED_EDGE('',*,*,#428,.T.);
#965 = ORIENTED_EDGE('',*,*,#376,.T.);
#966 = ORIENTED_EDGE('',*,*,#224,.F.);
#967 = ADVANCED_FACE('',(#968),#291,.F.);
#968 = FACE_BOUND('',#969,.T.);
#969 = EDGE_LOOP('',(#970,#971,#992,#993));
#970 = ORIENTED_EDGE('',*,*,#794,.F.);
#971 = ORIENTED_EDGE('',*,*,#972,.T.);
#972 = EDGE_CURVE('',#795,#271,#973,.T.);
#973 = SEAM_CURVE('',#974,(#978,#985),.PCURVE_S1.);
#974 = LINE('',#975,#976);
#975 = CARTESIAN_POINT('',(4.7500001,6.0000001,16.5000001));
#976 = VECTOR('',#977,1.);
#977 = DIRECTION('',(0.,-1.224646799147E-16,-1.));
#978 = PCURVE('',#291,#979);
#979 = DEFINITIONAL_REPRESENTATION('',(#980),#984);
#980 = LINE('',#981,#982);
#981 = CARTESIAN_POINT('',(-6.28318530718,0.));
#982 = VECTOR('',#983,1.);
#983 = DIRECTION('',(-0.,-1.));
#984 = ( GEOMETRIC_REPRESENTATION_CONTEXT(2) 
PARAMETRIC_REPRESENTATION_CONTEXT() REPRESENTATION_CONTEXT('2D SPACE',''
  ) );
#985 = PCURVE('',#291,#986);
#986 = DEFINITIONAL_REPRESENTATION('',(#987),#991);
#987 = LINE('',#988,#989);
#988 = CARTESIAN_POINT('',(-0.,0.));
#989 = VECTOR('',#990,1.);
#990 = DIRECTION('',(-0.,-1.));
#991 = ( GEOMETRIC_REPRESENTATION_CONTEXT(2) 
PARAMETRIC_REPRESENTATION_CONTEXT() REPRESENTATION_CONTEXT('2D SPACE',''
  ) );
#992 = ORIENTED_EDGE('',*,*,#270,.F.);
#993 = ORIENTED_EDGE('',*,*,#972,.F.);
#994 = ADVANCED_FACE('',(#995),#326,.F.);
#995 = FACE_BOUND('',#996,.T.);
#996 = EDGE_LOOP('',(#997,#998,#1019,#1020));
#997 = ORIENTED_EDGE('',*,*,#456,.F.);
#998 = ORIENTED_EDGE('',*,*,#999,.T.);
#999 = EDGE_CURVE('',#457,#306,#1000,.T.);
#1000 = SEAM_CURVE('',#1001,(#1005,#1012),.PCURVE_S1.);
#1001 = LINE('',#1002,#1003);
#1002 = CARTESIAN_POINT('',(17.7500001,6.0000001,16.5000001));
#1003 = VECTOR('',#1004,1.);
#1004 = DIRECTION('',(0.,-1.224646799147E-16,-1.));
#1005 = PCURVE('',#326,#1006);
#1006 = DEFINITIONAL_REPRESENTATION('',(#1007),#1011);
#1007 = LINE('',#1008,#1009);
#1008 = CARTESIAN_POINT('',(-6.28318530718,0.));
#1009 = VECTOR('',#1010,1.);
#1010 = DIRECTION('',(-0.,-1.));
#1011 = ( GEOMETRIC_REPRESENTATION_CONTEXT(2) 
PARAMETRIC_REPRESENTATION_CONTEXT() REPRESENTATION_CONTEXT('2D SPACE',''
  ) );
#1012 = PCURVE('',#326,#1013);
#1013 = DEFINITIONAL_REPRESENTATION('',(#1014),#1018);
#1014 = LINE('',#1015,#1016);
#1015 = CARTESIAN_POINT('',(-0.,0.));
#1016 = VECTOR('',#1017,1.);
#1017 = DIRECTION('',(-0.,-1.));
#1018 = ( GEOMETRIC_REPRESENTATION_CONTEXT(2) 
PARAMETRIC_REPRESENTATION_CONTEXT() REPRESENTATION_CONTEXT('2D SPACE',''
  ) );
#1019 = ORIENTED_EDGE('',*,*,#305,.F.);
#1020 = ORIENTED_EDGE('',*,*,#999,.F.);
#1021 = ADVANCED_FACE('',(#1022),#361,.F.);
#1022 = FACE_BOUND('',#1023,.T.);
#1023 = EDGE_LOOP('',(#1024,#1025,#1046,#1047));
#1024 = ORIENTED_EDGE('',*,*,#625,.F.);
#1025 = ORIENTED_EDGE('',*,*,#1026,.T.);
#1026 = EDGE_CURVE('',#626,#341,#1027,.T.);
#1027 = SEAM_CURVE('',#1028,(#1032,#1039),.PCURVE_S1.);
#1028 = LINE('',#1029,#1030);
#1029 = CARTESIAN_POINT('',(11.2500001,3.0000001,16.5000001));
#1030 = VECTOR('',#1031,1.);
#1031 = DIRECTION('',(0.,-1.224646799147E-16,-1.));
#1032 = PCURVE('',#361,#1033);
#1033 = DEFINITIONAL_REPRESENTATION('',(#1034),#1038);
#1034 = LINE('',#1035,#1036);
#1035 = CARTESIAN_POINT('',(-6.28318530718,0.));
#1036 = VECTOR('',#1037,1.);
#1037 = DIRECTION('',(-0.,-1.));
#1038 = ( GEOMETRIC_REPRESENTATION_CONTEXT(2) 
PARAMETRIC_REPRESENTATION_CONTEXT() REPRESENTATION_CONTEXT('2D SPACE',''
  ) );
#1039 = PCURVE('',#361,#1040);
#1040 = DEFINITIONAL_REPRESENTATION('',(#1041),#1045);
#1041 = LINE('',#1042,#1043);
#1042 = CARTESIAN_POINT('',(-0.,0.));
#1043 = VECTOR('',#1044,1.);
#1044 = DIRECTION('',(-0.,-1.));
#1045 = ( GEOMETRIC_REPRESENTATION_CONTEXT(2) 
PARAMETRIC_REPRESENTATION_CONTEXT() REPRESENTATION_CONTEXT('2D SPACE',''
  ) );
#1046 = ORIENTED_EDGE('',*,*,#340,.F.);
#1047 = ORIENTED_EDGE('',*,*,#1026,.F.);
#1048 = ( GEOMETRIC_REPRESENTATION_CONTEXT(3) 
GLOBAL_UNCERTAINTY_ASSIGNED_CONTEXT((#1052)) 
GLOBAL_UNIT_ASSIGNED_CONTEXT((#1049,#1050,#1051)) REPRESENTATION_CONTEXT
('Context #1','3D Context with UNIT and UNCERTAINTY') );
#1049 = ( LENGTH_UNIT() NAMED_UNIT(*) SI_UNIT(.MILLI.,.METRE.) );
#1050 = ( NAMED_UNIT(*) PLANE_ANGLE_UNIT() SI_UNIT($,.RADIAN.) );
#1051 = ( NAMED_UNIT(*) SI_UNIT($,.STERADIAN.) SOLID_ANGLE_UNIT() );
#1052 = UNCERTAINTY_MEASURE_WITH_UNIT(LENGTH_MEASURE(1.E-07),#1049,
  'distance_accuracy_value','confusion accuracy');
#1053 = PRODUCT_RELATED_PRODUCT_CATEGORY('part',$,(#7));
ENDSEC;
END-ISO-10303-21;
