ISO-10303-21;
HEADER;
FILE_DESCRIPTION(('Open CASCADE Model'),'2;1');
FILE_NAME('Open CASCADE Shape Model','2026-10-01T13:56:48',('Author'),(
    'Open CASCADE'),'Open CASCADE STEP processor 7.8','Open CASCADE 7.8'
  ,'Unknown');
FILE_SCHEMA(('AUTOMOTIVE_DESIGN { 1 0 10303 214 1 1 1 1 }'));
ENDSEC;
DATA;
#1 = APPLICATION_PROTOCOL_DEFINITION('international standard',
  'automotive_design',2000,#2);
#2 = APPLICATION_CONTEXT(
  'core data for automotive mechanical design processes');
#3 = SHAPE_DEFINITION_REPRESENTATION(#4,#10);
#4 = PRODUCT_DEFINITION_SHAPE('','',#5);
#5 = PRODUCT_DEFINITION('design','',#6,#9);
#6 = PRODUCT_DEFINITION_FORMATION('','',#7);
#7 = PRODUCT('Open CASCADE STEP translator 7.8 14',
  'Open CASCADE STEP translator 7.8 14','',(#8));
#8 = PRODUCT_CONTEXT('',#2,'mechanical');
#9 = PRODUCT_DEFINITION_CONTEXT('part definition',#2,'design');
#10 = ADVANCED_BREP_SHAPE_REPRESENTATION('',(#11,#15),#1319);
#11 = AXIS2_PLACEMENT_3D('',#12,#13,#14);
#12 = CARTESIAN_POINT('',(0.,0.,0.));
#13 = DIRECTION('',(0.,0.,1.));
#14 = DIRECTION('',(1.,0.,-0.));
#15 = MANIFOLD_SOLID_BREP('',#16);
#16 = CLOSED_SHELL('',(#17,#142,#218,#742,#791,#915,#942,#1032,#1081,
    #1160,#1167,#1222,#1277,#1284,#1311,#1315));
#17 = ADVANCED_FACE('',(#18),#32,.F.);
#18 = FACE_BOUND('',#19,.F.);
#19 = EDGE_LOOP('',(#20,#55,#83,#111));
#20 = ORIENTED_EDGE('',*,*,#21,.F.);
#21 = EDGE_CURVE('',#22,#24,#26,.T.);
#22 = VERTEX_POINT('',#23);
#23 = CARTESIAN_POINT('',(9.960028630685,9.999999939225E-08,
    9.999999406318E-08));
#24 = VERTEX_POINT('',#25);
#25 = CARTESIAN_POINT('',(1.000000011686E-07,9.999999939225E-08,
    1.000000011686E-07));
#26 = SURFACE_CURVE('',#27,(#31,#43),.PCURVE_S1.);
#27 = LINE('',#28,#29);
#28 = CARTESIAN_POINT('',(9.960028630685,9.999999939225E-08,
    1.000000011686E-07));
#29 = VECTOR('',#30,1.);
#30 = DIRECTION('',(-1.,0.,1.110223024625E-16));
#31 = PCURVE('',#32,#37);
#32 = PLANE('',#33);
#33 = AXIS2_PLACEMENT_3D('',#34,#35,#36);
#34 = CARTESIAN_POINT('',(9.960028630685,9.999999939225E-08,
    1.000000011686E-07));
#35 = DIRECTION('',(1.110223024625E-16,0.,1.));
#36 = DIRECTION('',(-1.,0.,1.110223024625E-16));
#37 = DEFINITIONAL_REPRESENTATION('',(#38),#42);
#38 = LINE('',#39,#40);
#39 = CARTESIAN_POINT('',(0.,0.));
#40 = VECTOR('',#41,1.);
#41 = DIRECTION('',(1.,0.));
#42 = ( GEOMETRIC_REPRESENTATION_CONTEXT(2) 
PARAMETRIC_REPRESENTATION_CONTEXT() REPRESENTATION_CONTEXT('2D SPACE',''
  ) );
#43 = PCURVE('',#44,#49);
#44 = PLANE('',#45);
#45 = AXIS2_PLACEMENT_3D('',#46,#47,#48);
#46 = CARTESIAN_POINT('',(9.960028630685,9.999999939225E-08,
    1.000000011686E-07));
#47 = DIRECTION('',(0.,1.,0.));
#48 = DIRECTION('',(-1.,0.,1.110223024625E-16));
#49 = DEFINITIONAL_REPRESENTATION('',(#50),#54);
#50 = LINE('',#51,#52);
#51 = CARTESIAN_POINT('',(0.,0.));
#52 = VECTOR('',#53,1.);
#53 = DIRECTION('',(1.,0.));
#54 = ( GEOMETRIC_REPRESENTATION_CONTEXT(2) 
PARAMETRIC_REPRESENTATION_CONTEXT() REPRESENTATION_CONTEXT('2D SPACE',''
  ) );
#55 = ORIENTED_EDGE('',*,*,#56,.T.);
#56 = EDGE_CURVE('',#22,#57,#59,.T.);
#57 = VERTEX_POINT('',#58);
#58 = CARTESIAN_POINT('',(9.960028630685,8.2000001,9.999999406318E-08));
#59 = SURFACE_CURVE('',#60,(#64,#71),.PCURVE_S1.);
#60 = LINE('',#61,#62);
#61 = CARTESIAN_POINT('',(9.960028630685,9.999999939225E-08,
    1.000000011686E-07));
#62 = VECTOR('',#63,1.);
#63 = DIRECTION('',(0.,1.,0.));
#64 = PCURVE('',#32,#65);
#65 = DEFINITIONAL_REPRESENTATION('',(#66),#70);
#66 = LINE('',#67,#68);
#67 = CARTESIAN_POINT('',(0.,0.));
#68 = VECTOR('',#69,1.);
#69 = DIRECTION('',(0.,-1.));
#70 = ( GEOMETRIC_REPRESENTATION_CONTEXT(2) 
PARAMETRIC_REPRESENTATION_CONTEXT() REPRESENTATION_CONTEXT('2D SPACE',''
  ) );
#71 = PCURVE('',#72,#77);
#72 = PLANE('',#73);
#73 = AXIS2_PLACEMENT_3D('',#74,#75,#76);
#74 = CARTESIAN_POINT('',(9.960028630685,9.999999939225E-08,
    9.999999406318E-08));
#75 = DIRECTION('',(-1.,0.,1.110223024625E-16));
#76 = DIRECTION('',(1.110223024625E-16,0.,1.));
#77 = DEFINITIONAL_REPRESENTATION('',(#78),#82);
#78 = LINE('',#79,#80);
#79 = CARTESIAN_POINT('',(7.105427357601E-15,0.));
#80 = VECTOR('',#81,1.);
#81 = DIRECTION('',(0.,1.));
#82 = ( GEOMETRIC_REPRESENTATION_CONTEXT(2) 
PARAMETRIC_REPRESENTATION_CONTEXT() REPRESENTATION_CONTEXT('2D SPACE',''
  ) );
#83 = ORIENTED_EDGE('',*,*,#84,.T.);
#84 = EDGE_CURVE('',#57,#85,#87,.T.);
#85 = VERTEX_POINT('',#86);
#86 = CARTESIAN_POINT('',(3.024477764703,8.2000001,1.000000011686E-07));
#87 = SURFACE_CURVE('',#88,(#92,#99),.PCURVE_S1.);
#88 = LINE('',#89,#90);
#89 = CARTESIAN_POINT('',(9.960028630685,8.2000001,1.000000011686E-07));
#90 = VECTOR('',#91,1.);
#91 = DIRECTION('',(-1.,0.,1.110223024625E-16));
#92 = PCURVE('',#32,#93);
#93 = DEFINITIONAL_REPRESENTATION('',(#94),#98);
#94 = LINE('',#95,#96);
#95 = CARTESIAN_POINT('',(0.,-8.2));
#96 = VECTOR('',#97,1.);
#97 = DIRECTION('',(1.,0.));
#98 = ( GEOMETRIC_REPRESENTATION_CONTEXT(2) 
PARAMETRIC_REPRESENTATION_CONTEXT() REPRESENTATION_CONTEXT('2D SPACE',''
  ) );
#99 = PCURVE('',#100,#105);
#100 = PLANE('',#101);
#101 = AXIS2_PLACEMENT_3D('',#102,#103,#104);
#102 = CARTESIAN_POINT('',(9.960028630685,8.2000001,1.000000011686E-07)
  );
#103 = DIRECTION('',(0.,1.,0.));
#104 = DIRECTION('',(-1.,0.,1.110223024625E-16));
#105 = DEFINITIONAL_REPRESENTATION('',(#106),#110);
#106 = LINE('',#107,#108);
#107 = CARTESIAN_POINT('',(0.,0.));
#108 = VECTOR('',#109,1.);
#109 = DIRECTION('',(1.,0.));
#110 = ( GEOMETRIC_REPRESENTATION_CONTEXT(2) 
PARAMETRIC_REPRESENTATION_CONTEXT() REPRESENTATION_CONTEXT('2D SPACE',''
  ) );
#111 = ORIENTED_EDGE('',*,*,#112,.T.);
#112 = EDGE_CURVE('',#85,#24,#113,.T.);
#113 = SURFACE_CURVE('',#114,(#119,#130),.PCURVE_S1.);
#114 = CIRCLE('',#115,31.8);
#115 = AXIS2_PLACEMENT_3D('',#116,#117,#118);
#116 = CARTESIAN_POINT('',(-28.03997136931,15.0000001,1.000000011686E-07
    ));
#117 = DIRECTION('',(-1.110223024625E-16,0.,-1.));
#118 = DIRECTION('',(0.,1.,0.));
#119 = PCURVE('',#32,#120);
#120 = DEFINITIONAL_REPRESENTATION('',(#121),#129);
#121 = ( BOUNDED_CURVE() B_SPLINE_CURVE(2,(#122,#123,#124,#125,#126,#127
,#128),.UNSPECIFIED.,.T.,.F.) B_SPLINE_CURVE_WITH_KNOTS((1,2,2,2,2,1),(
    -2.094395102393,0.,2.094395102393,4.188790204786,6.28318530718,
8.377580409573),.UNSPECIFIED.) CURVE() GEOMETRIC_REPRESENTATION_ITEM() 
RATIONAL_B_SPLINE_CURVE((1.,0.5,1.,0.5,1.,0.5,1.)) REPRESENTATION_ITEM(
  '') );
#122 = CARTESIAN_POINT('',(38.,-46.8));
#123 = CARTESIAN_POINT('',(-17.07921568069,-46.8));
#124 = CARTESIAN_POINT('',(10.460392159655,0.9));
#125 = CARTESIAN_POINT('',(38.,48.6));
#126 = CARTESIAN_POINT('',(65.539607840345,0.9));
#127 = CARTESIAN_POINT('',(93.07921568069,-46.8));
#128 = CARTESIAN_POINT('',(38.,-46.8));
#129 = ( GEOMETRIC_REPRESENTATION_CONTEXT(2) 
PARAMETRIC_REPRESENTATION_CONTEXT() REPRESENTATION_CONTEXT('2D SPACE',''
  ) );
#130 = PCURVE('',#131,#136);
#131 = CYLINDRICAL_SURFACE('',#132,31.8);
#132 = AXIS2_PLACEMENT_3D('',#133,#134,#135);
#133 = CARTESIAN_POINT('',(-28.03997136931,15.0000001,-58.9999999));
#134 = DIRECTION('',(-1.110223024625E-16,-0.,-1.));
#135 = DIRECTION('',(0.,1.,0.));
#136 = DEFINITIONAL_REPRESENTATION('',(#137),#141);
#137 = LINE('',#138,#139);
#138 = CARTESIAN_POINT('',(-6.28318530718,-59.));
#139 = VECTOR('',#140,1.);
#140 = DIRECTION('',(1.,-0.));
#141 = ( GEOMETRIC_REPRESENTATION_CONTEXT(2) 
PARAMETRIC_REPRESENTATION_CONTEXT() REPRESENTATION_CONTEXT('2D SPACE',''
  ) );
#142 = ADVANCED_FACE('',(#143),#44,.F.);
#143 = FACE_BOUND('',#144,.F.);
#144 = EDGE_LOOP('',(#145,#175,#196,#197));
#145 = ORIENTED_EDGE('',*,*,#146,.F.);
#146 = EDGE_CURVE('',#147,#149,#151,.T.);
#147 = VERTEX_POINT('',#148);
#148 = CARTESIAN_POINT('',(9.960028630685,9.999999939225E-08,40.0000001)
  );
#149 = VERTEX_POINT('',#150);
#150 = CARTESIAN_POINT('',(1.000000047213E-07,9.999999939225E-08,
    40.0000001));
#151 = SURFACE_CURVE('',#152,(#156,#163),.PCURVE_S1.);
#152 = LINE('',#153,#154);
#153 = CARTESIAN_POINT('',(9.960028630685,9.999999939225E-08,40.0000001)
  );
#154 = VECTOR('',#155,1.);
#155 = DIRECTION('',(-1.,0.,1.110223024625E-16));
#156 = PCURVE('',#44,#157);
#157 = DEFINITIONAL_REPRESENTATION('',(#158),#162);
#158 = LINE('',#159,#160);
#159 = CARTESIAN_POINT('',(4.440892098501E-15,40.));
#160 = VECTOR('',#161,1.);
#161 = DIRECTION('',(1.,0.));
#162 = ( GEOMETRIC_REPRESENTATION_CONTEXT(2) 
PARAMETRIC_REPRESENTATION_CONTEXT() REPRESENTATION_CONTEXT('2D SPACE',''
  ) );
#163 = PCURVE('',#164,#169);
#164 = PLANE('',#165);
#165 = AXIS2_PLACEMENT_3D('',#166,#167,#168);
#166 = CARTESIAN_POINT('',(9.960028630685,9.999999939225E-08,40.0000001)
  );
#167 = DIRECTION('',(1.110223024625E-16,0.,1.));
#168 = DIRECTION('',(-1.,0.,1.110223024625E-16));
#169 = DEFINITIONAL_REPRESENTATION('',(#170),#174);
#170 = LINE('',#171,#172);
#171 = CARTESIAN_POINT('',(0.,0.));
#172 = VECTOR('',#173,1.);
#173 = DIRECTION('',(1.,0.));
#174 = ( GEOMETRIC_REPRESENTATION_CONTEXT(2) 
PARAMETRIC_REPRESENTATION_CONTEXT() REPRESENTATION_CONTEXT('2D SPACE',''
  ) );
#175 = ORIENTED_EDGE('',*,*,#176,.F.);
#176 = EDGE_CURVE('',#22,#147,#177,.T.);
#177 = SURFACE_CURVE('',#178,(#182,#189),.PCURVE_S1.);
#178 = LINE('',#179,#180);
#179 = CARTESIAN_POINT('',(9.960028630685,9.999999939225E-08,
    1.000000011686E-07));
#180 = VECTOR('',#181,1.);
#181 = DIRECTION('',(1.110223024625E-16,0.,1.));
#182 = PCURVE('',#44,#183);
#183 = DEFINITIONAL_REPRESENTATION('',(#184),#188);
#184 = LINE('',#185,#186);
#185 = CARTESIAN_POINT('',(0.,0.));
#186 = VECTOR('',#187,1.);
#187 = DIRECTION('',(0.,1.));
#188 = ( GEOMETRIC_REPRESENTATION_CONTEXT(2) 
PARAMETRIC_REPRESENTATION_CONTEXT() REPRESENTATION_CONTEXT('2D SPACE',''
  ) );
#189 = PCURVE('',#72,#190);
#190 = DEFINITIONAL_REPRESENTATION('',(#191),#195);
#191 = LINE('',#192,#193);
#192 = CARTESIAN_POINT('',(7.105427357601E-15,0.));
#193 = VECTOR('',#194,1.);
#194 = DIRECTION('',(1.,0.));
#195 = ( GEOMETRIC_REPRESENTATION_CONTEXT(2) 
PARAMETRIC_REPRESENTATION_CONTEXT() REPRESENTATION_CONTEXT('2D SPACE',''
  ) );
#196 = ORIENTED_EDGE('',*,*,#21,.T.);
#197 = ORIENTED_EDGE('',*,*,#198,.F.);
#198 = EDGE_CURVE('',#149,#24,#199,.T.);
#199 = SURFACE_CURVE('',#200,(#204,#211),.PCURVE_S1.);
#200 = LINE('',#201,#202);
#201 = CARTESIAN_POINT('',(9.999999406318E-08,9.999999939225E-08,
    -58.9999999));
#202 = VECTOR('',#203,1.);
#203 = DIRECTION('',(-1.110223024625E-16,-0.,-1.));
#204 = PCURVE('',#44,#205);
#205 = DEFINITIONAL_REPRESENTATION('',(#206),#210);
#206 = LINE('',#207,#208);
#207 = CARTESIAN_POINT('',(9.960028530685,-59.));
#208 = VECTOR('',#209,1.);
#209 = DIRECTION('',(0.,-1.));
#210 = ( GEOMETRIC_REPRESENTATION_CONTEXT(2) 
PARAMETRIC_REPRESENTATION_CONTEXT() REPRESENTATION_CONTEXT('2D SPACE',''
  ) );
#211 = PCURVE('',#131,#212);
#212 = DEFINITIONAL_REPRESENTATION('',(#213),#217);
#213 = LINE('',#214,#215);
#214 = CARTESIAN_POINT('',(-4.221173369956,0.));
#215 = VECTOR('',#216,1.);
#216 = DIRECTION('',(-0.,1.));
#217 = ( GEOMETRIC_REPRESENTATION_CONTEXT(2) 
PARAMETRIC_REPRESENTATION_CONTEXT() REPRESENTATION_CONTEXT('2D SPACE',''
  ) );
#218 = ADVANCED_FACE('',(#219,#394,#568),#131,.F.);
#219 = FACE_BOUND('',#220,.T.);
#220 = EDGE_LOOP('',(#221,#244,#245,#246,#274,#302,#335,#363));
#221 = ORIENTED_EDGE('',*,*,#222,.T.);
#222 = EDGE_CURVE('',#223,#85,#225,.T.);
#223 = VERTEX_POINT('',#224);
#224 = CARTESIAN_POINT('',(3.024477764703,8.2000001,8.3000001));
#225 = SURFACE_CURVE('',#226,(#230,#237),.PCURVE_S1.);
#226 = LINE('',#227,#228);
#227 = CARTESIAN_POINT('',(3.024477764703,8.2000001,-58.9999999));
#228 = VECTOR('',#229,1.);
#229 = DIRECTION('',(-1.110223024625E-16,-0.,-1.));
#230 = PCURVE('',#131,#231);
#231 = DEFINITIONAL_REPRESENTATION('',(#232),#236);
#232 = LINE('',#233,#234);
#233 = CARTESIAN_POINT('',(-4.496888378279,0.));
#234 = VECTOR('',#235,1.);
#235 = DIRECTION('',(-0.,1.));
#236 = ( GEOMETRIC_REPRESENTATION_CONTEXT(2) 
PARAMETRIC_REPRESENTATION_CONTEXT() REPRESENTATION_CONTEXT('2D SPACE',''
  ) );
#237 = PCURVE('',#100,#238);
#238 = DEFINITIONAL_REPRESENTATION('',(#239),#243);
#239 = LINE('',#240,#241);
#240 = CARTESIAN_POINT('',(6.935550865982,-59.));
#241 = VECTOR('',#242,1.);
#242 = DIRECTION('',(0.,-1.));
#243 = ( GEOMETRIC_REPRESENTATION_CONTEXT(2) 
PARAMETRIC_REPRESENTATION_CONTEXT() REPRESENTATION_CONTEXT('2D SPACE',''
  ) );
#244 = ORIENTED_EDGE('',*,*,#112,.T.);
#245 = ORIENTED_EDGE('',*,*,#198,.F.);
#246 = ORIENTED_EDGE('',*,*,#247,.F.);
#247 = EDGE_CURVE('',#248,#149,#250,.T.);
#248 = VERTEX_POINT('',#249);
#249 = CARTESIAN_POINT('',(3.024477764703,8.2000001,40.0000001));
#250 = SURFACE_CURVE('',#251,(#256,#263),.PCURVE_S1.);
#251 = CIRCLE('',#252,31.8);
#252 = AXIS2_PLACEMENT_3D('',#253,#254,#255);
#253 = CARTESIAN_POINT('',(-28.03997136931,15.0000001,40.0000001));
#254 = DIRECTION('',(-1.110223024625E-16,0.,-1.));
#255 = DIRECTION('',(0.,1.,0.));
#256 = PCURVE('',#131,#257);
#257 = DEFINITIONAL_REPRESENTATION('',(#258),#262);
#258 = LINE('',#259,#260);
#259 = CARTESIAN_POINT('',(-6.28318530718,-99.));
#260 = VECTOR('',#261,1.);
#261 = DIRECTION('',(1.,-0.));
#262 = ( GEOMETRIC_REPRESENTATION_CONTEXT(2) 
PARAMETRIC_REPRESENTATION_CONTEXT() REPRESENTATION_CONTEXT('2D SPACE',''
  ) );
#263 = PCURVE('',#164,#264);
#264 = DEFINITIONAL_REPRESENTATION('',(#265),#273);
#265 = ( BOUNDED_CURVE() B_SPLINE_CURVE(2,(#266,#267,#268,#269,#270,#271
,#272),.UNSPECIFIED.,.T.,.F.) B_SPLINE_CURVE_WITH_KNOTS((1,2,2,2,2,1),(
    -2.094395102393,0.,2.094395102393,4.188790204786,6.28318530718,
8.377580409573),.UNSPECIFIED.) CURVE() GEOMETRIC_REPRESENTATION_ITEM() 
RATIONAL_B_SPLINE_CURVE((1.,0.5,1.,0.5,1.,0.5,1.)) REPRESENTATION_ITEM(
  '') );
#266 = CARTESIAN_POINT('',(38.,-46.8));
#267 = CARTESIAN_POINT('',(-17.07921568069,-46.8));
#268 = CARTESIAN_POINT('',(10.460392159655,0.9));
#269 = CARTESIAN_POINT('',(38.,48.6));
#270 = CARTESIAN_POINT('',(65.539607840345,0.9));
#271 = CARTESIAN_POINT('',(93.07921568069,-46.8));
#272 = CARTESIAN_POINT('',(38.,-46.8));
#273 = ( GEOMETRIC_REPRESENTATION_CONTEXT(2) 
PARAMETRIC_REPRESENTATION_CONTEXT() REPRESENTATION_CONTEXT('2D SPACE',''
  ) );
#274 = ORIENTED_EDGE('',*,*,#275,.T.);
#275 = EDGE_CURVE('',#248,#276,#278,.T.);
#276 = VERTEX_POINT('',#277);
#277 = CARTESIAN_POINT('',(3.024477764703,8.2000001,31.7000001));
#278 = SURFACE_CURVE('',#279,(#283,#290),.PCURVE_S1.);
#279 = LINE('',#280,#281);
#280 = CARTESIAN_POINT('',(3.024477764703,8.2000001,-58.9999999));
#281 = VECTOR('',#282,1.);
#282 = DIRECTION('',(-1.110223024625E-16,-0.,-1.));
#283 = PCURVE('',#131,#284);
#284 = DEFINITIONAL_REPRESENTATION('',(#285),#289);
#285 = LINE('',#286,#287);
#286 = CARTESIAN_POINT('',(-4.496888378279,0.));
#287 = VECTOR('',#288,1.);
#288 = DIRECTION('',(-0.,1.));
#289 = ( GEOMETRIC_REPRESENTATION_CONTEXT(2) 
PARAMETRIC_REPRESENTATION_CONTEXT() REPRESENTATION_CONTEXT('2D SPACE',''
  ) );
#290 = PCURVE('',#291,#296);
#291 = PLANE('',#292);
#292 = AXIS2_PLACEMENT_3D('',#293,#294,#295);
#293 = CARTESIAN_POINT('',(9.960028630685,8.2000001,1.000000011686E-07)
  );
#294 = DIRECTION('',(0.,1.,0.));
#295 = DIRECTION('',(-1.,0.,1.110223024625E-16));
#296 = DEFINITIONAL_REPRESENTATION('',(#297),#301);
#297 = LINE('',#298,#299);
#298 = CARTESIAN_POINT('',(6.935550865982,-59.));
#299 = VECTOR('',#300,1.);
#300 = DIRECTION('',(0.,-1.));
#301 = ( GEOMETRIC_REPRESENTATION_CONTEXT(2) 
PARAMETRIC_REPRESENTATION_CONTEXT() REPRESENTATION_CONTEXT('2D SPACE',''
  ) );
#302 = ORIENTED_EDGE('',*,*,#303,.F.);
#303 = EDGE_CURVE('',#304,#276,#306,.T.);
#304 = VERTEX_POINT('',#305);
#305 = CARTESIAN_POINT('',(3.744301471195,14.0000001,31.7000001));
#306 = SURFACE_CURVE('',#307,(#312,#319),.PCURVE_S1.);
#307 = CIRCLE('',#308,31.8);
#308 = AXIS2_PLACEMENT_3D('',#309,#310,#311);
#309 = CARTESIAN_POINT('',(-28.03997136931,15.0000001,31.7000001));
#310 = DIRECTION('',(-1.110223024625E-16,0.,-1.));
#311 = DIRECTION('',(0.,1.,0.));
#312 = PCURVE('',#131,#313);
#313 = DEFINITIONAL_REPRESENTATION('',(#314),#318);
#314 = LINE('',#315,#316);
#315 = CARTESIAN_POINT('',(-6.28318530718,-90.7));
#316 = VECTOR('',#317,1.);
#317 = DIRECTION('',(1.,-0.));
#318 = ( GEOMETRIC_REPRESENTATION_CONTEXT(2) 
PARAMETRIC_REPRESENTATION_CONTEXT() REPRESENTATION_CONTEXT('2D SPACE',''
  ) );
#319 = PCURVE('',#320,#325);
#320 = PLANE('',#321);
#321 = AXIS2_PLACEMENT_3D('',#322,#323,#324);
#322 = CARTESIAN_POINT('',(9.960028630685,8.1900001,31.7000001));
#323 = DIRECTION('',(1.110223024625E-16,0.,1.));
#324 = DIRECTION('',(-1.,0.,1.110223024625E-16));
#325 = DEFINITIONAL_REPRESENTATION('',(#326),#334);
#326 = ( BOUNDED_CURVE() B_SPLINE_CURVE(2,(#327,#328,#329,#330,#331,#332
,#333),.UNSPECIFIED.,.T.,.F.) B_SPLINE_CURVE_WITH_KNOTS((1,2,2,2,2,1),(
    -2.094395102393,0.,2.094395102393,4.188790204786,6.28318530718,
8.377580409573),.UNSPECIFIED.) CURVE() GEOMETRIC_REPRESENTATION_ITEM() 
RATIONAL_B_SPLINE_CURVE((1.,0.5,1.,0.5,1.,0.5,1.)) REPRESENTATION_ITEM(
  '') );
#327 = CARTESIAN_POINT('',(38.,-38.61));
#328 = CARTESIAN_POINT('',(-17.07921568069,-38.61));
#329 = CARTESIAN_POINT('',(10.460392159655,9.09));
#330 = CARTESIAN_POINT('',(38.,56.79));
#331 = CARTESIAN_POINT('',(65.539607840345,9.09));
#332 = CARTESIAN_POINT('',(93.07921568069,-38.61));
#333 = CARTESIAN_POINT('',(38.,-38.61));
#334 = ( GEOMETRIC_REPRESENTATION_CONTEXT(2) 
PARAMETRIC_REPRESENTATION_CONTEXT() REPRESENTATION_CONTEXT('2D SPACE',''
  ) );
#335 = ORIENTED_EDGE('',*,*,#336,.T.);
#336 = EDGE_CURVE('',#304,#337,#339,.T.);
#337 = VERTEX_POINT('',#338);
#338 = CARTESIAN_POINT('',(3.744301471195,14.0000001,8.3000001));
#339 = SURFACE_CURVE('',#340,(#344,#351),.PCURVE_S1.);
#340 = LINE('',#341,#342);
#341 = CARTESIAN_POINT('',(3.744301471195,14.0000001,-58.9999999));
#342 = VECTOR('',#343,1.);
#343 = DIRECTION('',(-1.110223024625E-16,-0.,-1.));
#344 = PCURVE('',#131,#345);
#345 = DEFINITIONAL_REPRESENTATION('',(#346),#350);
#346 = LINE('',#347,#348);
#347 = CARTESIAN_POINT('',(-4.680937254361,0.));
#348 = VECTOR('',#349,1.);
#349 = DIRECTION('',(-0.,1.));
#350 = ( GEOMETRIC_REPRESENTATION_CONTEXT(2) 
PARAMETRIC_REPRESENTATION_CONTEXT() REPRESENTATION_CONTEXT('2D SPACE',''
  ) );
#351 = PCURVE('',#352,#357);
#352 = PLANE('',#353);
#353 = AXIS2_PLACEMENT_3D('',#354,#355,#356);
#354 = CARTESIAN_POINT('',(9.960028630685,14.0000001,8.3000001));
#355 = DIRECTION('',(0.,1.,0.));
#356 = DIRECTION('',(-1.,0.,1.110223024625E-16));
#357 = DEFINITIONAL_REPRESENTATION('',(#358),#362);
#358 = LINE('',#359,#360);
#359 = CARTESIAN_POINT('',(6.21572715949,-67.3));
#360 = VECTOR('',#361,1.);
#361 = DIRECTION('',(0.,-1.));
#362 = ( GEOMETRIC_REPRESENTATION_CONTEXT(2) 
PARAMETRIC_REPRESENTATION_CONTEXT() REPRESENTATION_CONTEXT('2D SPACE',''
  ) );
#363 = ORIENTED_EDGE('',*,*,#364,.T.);
#364 = EDGE_CURVE('',#337,#223,#365,.T.);
#365 = SURFACE_CURVE('',#366,(#371,#378),.PCURVE_S1.);
#366 = CIRCLE('',#367,31.8);
#367 = AXIS2_PLACEMENT_3D('',#368,#369,#370);
#368 = CARTESIAN_POINT('',(-28.03997136931,15.0000001,8.3000001));
#369 = DIRECTION('',(-1.110223024625E-16,0.,-1.));
#370 = DIRECTION('',(0.,1.,0.));
#371 = PCURVE('',#131,#372);
#372 = DEFINITIONAL_REPRESENTATION('',(#373),#377);
#373 = LINE('',#374,#375);
#374 = CARTESIAN_POINT('',(-6.28318530718,-67.3));
#375 = VECTOR('',#376,1.);
#376 = DIRECTION('',(1.,-0.));
#377 = ( GEOMETRIC_REPRESENTATION_CONTEXT(2) 
PARAMETRIC_REPRESENTATION_CONTEXT() REPRESENTATION_CONTEXT('2D SPACE',''
  ) );
#378 = PCURVE('',#379,#384);
#379 = PLANE('',#380);
#380 = AXIS2_PLACEMENT_3D('',#381,#382,#383);
#381 = CARTESIAN_POINT('',(9.960028630685,8.1900001,8.3000001));
#382 = DIRECTION('',(1.110223024625E-16,0.,1.));
#383 = DIRECTION('',(-1.,0.,1.110223024625E-16));
#384 = DEFINITIONAL_REPRESENTATION('',(#385),#393);
#385 = ( BOUNDED_CURVE() B_SPLINE_CURVE(2,(#386,#387,#388,#389,#390,#391
,#392),.UNSPECIFIED.,.T.,.F.) B_SPLINE_CURVE_WITH_KNOTS((1,2,2,2,2,1),(
    -2.094395102393,0.,2.094395102393,4.188790204786,6.28318530718,
8.377580409573),.UNSPECIFIED.) CURVE() GEOMETRIC_REPRESENTATION_ITEM() 
RATIONAL_B_SPLINE_CURVE((1.,0.5,1.,0.5,1.,0.5,1.)) REPRESENTATION_ITEM(
  '') );
#386 = CARTESIAN_POINT('',(38.,-38.61));
#387 = CARTESIAN_POINT('',(-17.07921568069,-38.61));
#388 = CARTESIAN_POINT('',(10.460392159655,9.09));
#389 = CARTESIAN_POINT('',(38.,56.79));
#390 = CARTESIAN_POINT('',(65.539607840345,9.09));
#391 = CARTESIAN_POINT('',(93.07921568069,-38.61));
#392 = CARTESIAN_POINT('',(38.,-38.61));
#393 = ( GEOMETRIC_REPRESENTATION_CONTEXT(2) 
PARAMETRIC_REPRESENTATION_CONTEXT() REPRESENTATION_CONTEXT('2D SPACE',''
  ) );
#394 = FACE_BOUND('',#395,.T.);
#395 = EDGE_LOOP('',(#396));
#396 = ORIENTED_EDGE('',*,*,#397,.F.);
#397 = EDGE_CURVE('',#398,#398,#400,.T.);
#398 = VERTEX_POINT('',#399);
#399 = CARTESIAN_POINT('',(1.44951828378,3.1000001,35.2500001));
#400 = SURFACE_CURVE('',#401,(#453,#508),.PCURVE_S1.);
#401 = B_SPLINE_CURVE_WITH_KNOTS('',8,(#402,#403,#404,#405,#406,#407,
    #408,#409,#410,#411,#412,#413,#414,#415,#416,#417,#418,#419,#420,
    #421,#422,#423,#424,#425,#426,#427,#428,#429,#430,#431,#432,#433,
    #434,#435,#436,#437,#438,#439,#440,#441,#442,#443,#444,#445,#446,
    #447,#448,#449,#450,#451,#452),.UNSPECIFIED.,.T.,.F.,(9,7,7,7,7,7,7,
    9),(0.,0.108146290514,0.248789920289,0.394285837906,0.534161175081,
    0.748095179315,0.859779775935,1.),.UNSPECIFIED.);
#402 = CARTESIAN_POINT('',(1.44951828378,3.1000001,35.2500001));
#403 = CARTESIAN_POINT('',(1.496170815966,3.215610130688,35.2500001));
#404 = CARTESIAN_POINT('',(1.54214277629,3.331025772958,35.237779801737)
  );
#405 = CARTESIAN_POINT('',(1.586720645896,3.444462870596,35.213412373016
    ));
#406 = CARTESIAN_POINT('',(1.629263030867,3.554181576207,35.177354016937
    ));
#407 = CARTESIAN_POINT('',(1.669220413795,3.658555021991,35.130424458078
    ));
#408 = CARTESIAN_POINT('',(1.706150974254,3.756143991559,35.073787074903
    ));
#409 = CARTESIAN_POINT('',(1.739732478174,3.845777592779,35.008928678413
    ));
#410 = CARTESIAN_POINT('',(1.808834167807,4.031800939003,34.844927037768
    ));
#411 = CARTESIAN_POINT('',(1.842055046739,4.122531195756,34.740981893542
    ));
#412 = CARTESIAN_POINT('',(1.869503050342,4.198388801659,34.628221794143
    ));
#413 = CARTESIAN_POINT('',(1.891285348517,4.259129456888,34.508750499425
    ));
#414 = CARTESIAN_POINT('',(1.907510171482,4.304642785394,34.384470304377
    ));
#415 = CARTESIAN_POINT('',(1.918269595878,4.334914346143,34.257147586997
    ));
#416 = CARTESIAN_POINT('',(1.923631551562,4.3500001,34.128453204081));
#417 = CARTESIAN_POINT('',(1.923631551562,4.3500001,33.867115288372));
#418 = CARTESIAN_POINT('',(1.917893241272,4.333855491388,33.733906642184
    ));
#419 = CARTESIAN_POINT('',(1.906367359282,4.301427467614,33.602188411331
    ));
#420 = CARTESIAN_POINT('',(1.888974363643,4.252647160318,33.473845096527
    ));
#421 = CARTESIAN_POINT('',(1.86561287952,4.187543951797,33.35087002504)
  );
#422 = CARTESIAN_POINT('',(1.836168454395,4.106273083333,33.235407597481
    ));
#423 = CARTESIAN_POINT('',(1.800534992401,4.00916015182,33.129827421288)
  );
#424 = CARTESIAN_POINT('',(1.718405090459,3.788741320946,32.947481106142
    ));
#425 = CARTESIAN_POINT('',(1.672116235082,3.665880713476,32.869171215804
    ));
#426 = CARTESIAN_POINT('',(1.620318781243,3.530266881,32.806182786302));
#427 = CARTESIAN_POINT('',(1.563950016221,3.385074046176,32.761659599813
    ));
#428 = CARTESIAN_POINT('',(1.504294108343,3.234172745456,32.737580144222
    ));
#429 = CARTESIAN_POINT('',(1.442930972425,3.081784840524,32.734710547265
    ));
#430 = CARTESIAN_POINT('',(1.381635379908,2.932148365424,32.752552261179
    ));
#431 = CARTESIAN_POINT('',(1.231198197997,2.570408434365,32.845431289278
    ));
#432 = CARTESIAN_POINT('',(1.146508758198,2.372017181364,32.944506487348
    ));
#433 = CARTESIAN_POINT('',(1.071574121231,2.200689794368,33.078041574256
    ));
#434 = CARTESIAN_POINT('',(1.009158941782,2.060702532043,33.238319756136
    ));
#435 = CARTESIAN_POINT('',(0.961360828398,1.954848366028,33.417826223983
    ));
#436 = CARTESIAN_POINT('',(0.929432786255,1.884548743146,33.609285705346
    ));
#437 = CARTESIAN_POINT('',(0.913741691362,1.8500001,33.805610310246));
#438 = CARTESIAN_POINT('',(0.913741691362,1.8500001,34.101481607502));
#439 = CARTESIAN_POINT('',(0.91801811869,1.85941592504,34.203001163327)
  );
#440 = CARTESIAN_POINT('',(0.926576435788,1.878259724549,34.303746556579
    ));
#441 = CARTESIAN_POINT('',(0.93939044392,1.906519152206,34.402897473865)
  );
#442 = CARTESIAN_POINT('',(0.956399777521,1.944152778868,34.499613242387
    ));
#443 = CARTESIAN_POINT('',(0.977507961406,1.991083874924,34.593018922173
    ));
#444 = CARTESIAN_POINT('',(1.002581030854,2.047192562075,34.682189747435
    ));
#445 = CARTESIAN_POINT('',(1.067687635508,2.194056800036,34.871525982141
    ));
#446 = CARTESIAN_POINT('',(1.11025290661,2.290782600425,34.969685592299)
  );
#447 = CARTESIAN_POINT('',(1.158633790068,2.401786894392,35.057301696659
    ));
#448 = CARTESIAN_POINT('',(1.211937240152,2.525584597146,35.131418773854
    ));
#449 = CARTESIAN_POINT('',(1.269003677258,2.660074300838,35.189509208812
    ));
#450 = CARTESIAN_POINT('',(1.328525072318,2.802665670197,35.229534806868
    ));
#451 = CARTESIAN_POINT('',(1.389144495577,2.950387309872,35.2500001));
#452 = CARTESIAN_POINT('',(1.44951828378,3.1000001,35.2500001));
#453 = PCURVE('',#131,#454);
#454 = DEFINITIONAL_REPRESENTATION('',(#455),#507);
#455 = B_SPLINE_CURVE_WITH_KNOTS('',8,(#456,#457,#458,#459,#460,#461,
    #462,#463,#464,#465,#466,#467,#468,#469,#470,#471,#472,#473,#474,
    #475,#476,#477,#478,#479,#480,#481,#482,#483,#484,#485,#486,#487,
    #488,#489,#490,#491,#492,#493,#494,#495,#496,#497,#498,#499,#500,
    #501,#502,#503,#504,#505,#506),.UNSPECIFIED.,.T.,.F.,(9,7,7,7,7,7,7,
    9),(0.,0.108146290514,0.248789920289,0.394285837906,0.534161175081,
    0.748095179315,0.859779775935,1.),.UNSPECIFIED.);
#456 = CARTESIAN_POINT('',(-4.328840110719,-94.25));
#457 = CARTESIAN_POINT('',(-4.332760491575,-94.25));
#458 = CARTESIAN_POINT('',(-4.336667195142,-94.23777970173));
#459 = CARTESIAN_POINT('',(-4.340499886639,-94.21341227301));
#460 = CARTESIAN_POINT('',(-4.344200372866,-94.17735391693));
#461 = CARTESIAN_POINT('',(-4.347714799039,-94.13042435807));
#462 = CARTESIAN_POINT('',(-4.350995996131,-94.0737869749));
#463 = CARTESIAN_POINT('',(-4.354005978705,-94.00892857841));
#464 = CARTESIAN_POINT('',(-4.360246332905,-93.84492693776));
#465 = CARTESIAN_POINT('',(-4.36328469394,-93.74098179354));
#466 = CARTESIAN_POINT('',(-4.365821485546,-93.62822169414));
#467 = CARTESIAN_POINT('',(-4.367850667671,-93.50875039942));
#468 = CARTESIAN_POINT('',(-4.369370126919,-93.38447020437));
#469 = CARTESIAN_POINT('',(-4.370380404124,-93.25714748699));
#470 = CARTESIAN_POINT('',(-4.370883873536,-93.12845310408));
#471 = CARTESIAN_POINT('',(-4.370883873536,-92.86711518837));
#472 = CARTESIAN_POINT('',(-4.370345066018,-92.73390654218));
#473 = CARTESIAN_POINT('',(-4.36926281967,-92.60218831133));
#474 = CARTESIAN_POINT('',(-4.367634255117,-92.47384499652));
#475 = CARTESIAN_POINT('',(-4.36545917683,-92.35086992504));
#476 = CARTESIAN_POINT('',(-4.362740957952,-92.23540749748));
#477 = CARTESIAN_POINT('',(-4.359488042064,-92.12982732128));
#478 = CARTESIAN_POINT('',(-4.352091097588,-91.94748100614));
#479 = CARTESIAN_POINT('',(-4.347962470584,-91.8691711158));
#480 = CARTESIAN_POINT('',(-4.343397479401,-91.8061826863));
#481 = CARTESIAN_POINT('',(-4.338499806343,-91.76165949981));
#482 = CARTESIAN_POINT('',(-4.3333973201,-91.73758004422));
#483 = CARTESIAN_POINT('',(-4.328231478108,-91.73471044726));
#484 = CARTESIAN_POINT('',(-4.323146514327,-91.75255216117));
#485 = CARTESIAN_POINT('',(-4.310826566932,-91.84543118927));
#486 = CARTESIAN_POINT('',(-4.304043487126,-91.94450638734));
#487 = CARTESIAN_POINT('',(-4.298163389748,-92.07804147425));
#488 = CARTESIAN_POINT('',(-4.293343658987,-92.23831965613));
#489 = CARTESIAN_POINT('',(-4.289691292264,-92.41782612398));
#490 = CARTESIAN_POINT('',(-4.287263295108,-92.60928560534));
#491 = CARTESIAN_POINT('',(-4.286070057525,-92.80561021024));
#492 = CARTESIAN_POINT('',(-4.286070057525,-93.1014815075));
#493 = CARTESIAN_POINT('',(-4.286395260313,-93.20300106332));
#494 = CARTESIAN_POINT('',(-4.287046084992,-93.30374645657));
#495 = CARTESIAN_POINT('',(-4.288021837067,-93.40289737386));
#496 = CARTESIAN_POINT('',(-4.289320545417,-93.49961314238));
#497 = CARTESIAN_POINT('',(-4.29093876345,-93.59301882217));
#498 = CARTESIAN_POINT('',(-4.292871334436,-93.68218964743));
#499 = CARTESIAN_POINT('',(-4.297923177368,-93.87152588214));
#500 = CARTESIAN_POINT('',(-4.301246348906,-93.96968549229));
#501 = CARTESIAN_POINT('',(-4.305054155211,-94.05730159665));
#502 = CARTESIAN_POINT('',(-4.309292600892,-94.13141867385));
#503 = CARTESIAN_POINT('',(-4.313886676309,-94.18950910881));
#504 = CARTESIAN_POINT('',(-4.318745513772,-94.22953470686));
#505 = CARTESIAN_POINT('',(-4.323766683139,-94.25));
#506 = CARTESIAN_POINT('',(-4.328840110719,-94.25));
#507 = ( GEOMETRIC_REPRESENTATION_CONTEXT(2) 
PARAMETRIC_REPRESENTATION_CONTEXT() REPRESENTATION_CONTEXT('2D SPACE',''
  ) );
#508 = PCURVE('',#509,#514);
#509 = CYLINDRICAL_SURFACE('',#510,1.25);
#510 = AXIS2_PLACEMENT_3D('',#511,#512,#513);
#511 = CARTESIAN_POINT('',(8.460028630685,3.1000001,34.0000001));
#512 = DIRECTION('',(1.,-0.,-1.110223024625E-16));
#513 = DIRECTION('',(1.110223024625E-16,0.,1.));
#514 = DEFINITIONAL_REPRESENTATION('',(#515),#567);
#515 = B_SPLINE_CURVE_WITH_KNOTS('',8,(#516,#517,#518,#519,#520,#521,
    #522,#523,#524,#525,#526,#527,#528,#529,#530,#531,#532,#533,#534,
    #535,#536,#537,#538,#539,#540,#541,#542,#543,#544,#545,#546,#547,
    #548,#549,#550,#551,#552,#553,#554,#555,#556,#557,#558,#559,#560,
    #561,#562,#563,#564,#565,#566),.UNSPECIFIED.,.F.,.F.,(9,7,7,7,7,7,7,
    9),(0.,0.108146290514,0.248789920289,0.394285837906,0.534161175081,
    0.748095179315,0.859779775935,1.),.UNSPECIFIED.);
#516 = CARTESIAN_POINT('',(0.,-7.010510346905));
#517 = CARTESIAN_POINT('',(-9.248802455056E-02,-6.963857814719));
#518 = CARTESIAN_POINT('',(-0.184819998687,-6.917885854395));
#519 = CARTESIAN_POINT('',(-0.276776697048,-6.873307984789));
#520 = CARTESIAN_POINT('',(-0.368150183413,-6.830765599818));
#521 = CARTESIAN_POINT('',(-0.45872025335,-6.79080821689));
#522 = CARTESIAN_POINT('',(-0.548225059634,-6.753877656431));
#523 = CARTESIAN_POINT('',(-0.636325920443,-6.720296152511));
#524 = CARTESIAN_POINT('',(-0.834721442125,-6.651194462878));
#525 = CARTESIAN_POINT('',(-0.944159961687,-6.617973583946));
#526 = CARTESIAN_POINT('',(-1.051485821934,-6.590525580343));
#527 = CARTESIAN_POINT('',(-1.157155835131,-6.568743282168));
#528 = CARTESIAN_POINT('',(-1.261566067681,-6.552518459203));
#529 = CARTESIAN_POINT('',(-1.365078502864,-6.541759034807));
#530 = CARTESIAN_POINT('',(-1.46803384353,-6.536397079123));
#531 = CARTESIAN_POINT('',(-1.677104176097,-6.536397079123));
#532 = CARTESIAN_POINT('',(-1.783670841749,-6.542135389413));
#533 = CARTESIAN_POINT('',(-1.890877088954,-6.553661271403));
#534 = CARTESIAN_POINT('',(-1.999080256819,-6.571054267042));
#535 = CARTESIAN_POINT('',(-2.108665865695,-6.594415751165));
#536 = CARTESIAN_POINT('',(-2.220060392944,-6.62386017629));
#537 = CARTESIAN_POINT('',(-2.333761534524,-6.659493638284));
#538 = CARTESIAN_POINT('',(-2.562615569613,-6.741623540226));
#539 = CARTESIAN_POINT('',(-2.678281614398,-6.787912395603));
#540 = CARTESIAN_POINT('',(-2.796145681571,-6.839709849442));
#541 = CARTESIAN_POINT('',(-2.915364833696,-6.896078614464));
#542 = CARTESIAN_POINT('',(-3.035281716074,-6.955734522342));
#543 = CARTESIAN_POINT('',(-3.155302783696,-7.01709765826));
#544 = CARTESIAN_POINT('',(-3.274800626994,-7.078393250777));
#545 = CARTESIAN_POINT('',(-3.573579251754,-7.228830432688));
#546 = CARTESIAN_POINT('',(-3.747017882104,-7.313519872487));
#547 = CARTESIAN_POINT('',(-3.915320857147,-7.388454509454));
#548 = CARTESIAN_POINT('',(-4.079636807806,-7.450869688903));
#549 = CARTESIAN_POINT('',(-4.240921587343,-7.498667802286));
#550 = CARTESIAN_POINT('',(-4.399816863481,-7.53059584443));
#551 = CARTESIAN_POINT('',(-4.556877148581,-7.546286939323));
#552 = CARTESIAN_POINT('',(-4.793574186386,-7.546286939323));
#553 = CARTESIAN_POINT('',(-4.874790060793,-7.542010511995));
#554 = CARTESIAN_POINT('',(-4.956201197284,-7.533452194897));
#555 = CARTESIAN_POINT('',(-5.037970900068,-7.520638186765));
#556 = CARTESIAN_POINT('',(-5.120264251922,-7.503628853164));
#557 = CARTESIAN_POINT('',(-5.203254585824,-7.482520669279));
#558 = CARTESIAN_POINT('',(-5.287133360181,-7.457447599831));
#559 = CARTESIAN_POINT('',(-5.478828641983,-7.392340995177));
#560 = CARTESIAN_POINT('',(-5.588304742773,-7.349775724075));
#561 = CARTESIAN_POINT('',(-5.699968912939,-7.301394840617));
#562 = CARTESIAN_POINT('',(-5.813478705763,-7.248091390533));
#563 = CARTESIAN_POINT('',(-5.928632100016,-7.191024953426));
#564 = CARTESIAN_POINT('',(-6.045317697003,-7.131503558367));
#565 = CARTESIAN_POINT('',(-6.163495075077,-7.070884135108));
#566 = CARTESIAN_POINT('',(-6.28318530718,-7.010510346905));
#567 = ( GEOMETRIC_REPRESENTATION_CONTEXT(2) 
PARAMETRIC_REPRESENTATION_CONTEXT() REPRESENTATION_CONTEXT('2D SPACE',''
  ) );
#568 = FACE_BOUND('',#569,.T.);
#569 = EDGE_LOOP('',(#570));
#570 = ORIENTED_EDGE('',*,*,#571,.F.);
#571 = EDGE_CURVE('',#572,#572,#574,.T.);
#572 = VERTEX_POINT('',#573);
#573 = CARTESIAN_POINT('',(1.44951828378,3.1000001,7.2500001));
#574 = SURFACE_CURVE('',#575,(#627,#682),.PCURVE_S1.);
#575 = B_SPLINE_CURVE_WITH_KNOTS('',8,(#576,#577,#578,#579,#580,#581,
    #582,#583,#584,#585,#586,#587,#588,#589,#590,#591,#592,#593,#594,
    #595,#596,#597,#598,#599,#600,#601,#602,#603,#604,#605,#606,#607,
    #608,#609,#610,#611,#612,#613,#614,#615,#616,#617,#618,#619,#620,
    #621,#622,#623,#624,#625,#626),.UNSPECIFIED.,.T.,.F.,(9,7,7,7,7,7,7,
    9),(0.,0.10814628593,0.248789913683,0.394285832573,0.53416117097,
    0.748095177075,0.85977977467,1.),.UNSPECIFIED.);
#576 = CARTESIAN_POINT('',(1.44951828378,3.1000001,7.2500001));
#577 = CARTESIAN_POINT('',(1.496170815972,3.215610130703,7.2500001));
#578 = CARTESIAN_POINT('',(1.542142776286,3.331025772949,7.237779801735)
  );
#579 = CARTESIAN_POINT('',(1.586720645891,3.444462870584,7.21341237302)
  );
#580 = CARTESIAN_POINT('',(1.629263030868,3.554181576209,7.177354016941)
  );
#581 = CARTESIAN_POINT('',(1.6692204138,3.658555022003,7.130424458073));
#582 = CARTESIAN_POINT('',(1.706150974256,3.756143991564,7.073787074895)
  );
#583 = CARTESIAN_POINT('',(1.73973247817,3.845777592769,7.008928678422)
  );
#584 = CARTESIAN_POINT('',(1.808834168907,4.031800941963,6.844927035158)
  );
#585 = CARTESIAN_POINT('',(1.842055044652,4.122531190127,6.740981897474)
  );
#586 = CARTESIAN_POINT('',(1.869503051284,4.19838880419,6.62822179547));
#587 = CARTESIAN_POINT('',(1.891285349364,4.259129459183,6.508750494832)
  );
#588 = CARTESIAN_POINT('',(1.907510170529,4.304642782838,6.384470302974)
  );
#589 = CARTESIAN_POINT('',(1.918269596138,4.334914346832,6.257147592802)
  );
#590 = CARTESIAN_POINT('',(1.923631551562,4.3500001,6.128453201113));
#591 = CARTESIAN_POINT('',(1.923631551562,4.3500001,5.867115288372));
#592 = CARTESIAN_POINT('',(1.917893241272,4.333855491388,5.733906642184)
  );
#593 = CARTESIAN_POINT('',(1.906367359282,4.301427467614,5.602188411331)
  );
#594 = CARTESIAN_POINT('',(1.888974363643,4.252647160318,5.473845096527)
  );
#595 = CARTESIAN_POINT('',(1.86561287952,4.187543951797,5.35087002504));
#596 = CARTESIAN_POINT('',(1.836168454395,4.106273083333,5.235407597481)
  );
#597 = CARTESIAN_POINT('',(1.800534992401,4.00916015182,5.129827421288)
  );
#598 = CARTESIAN_POINT('',(1.718405090459,3.788741320946,4.947481106142)
  );
#599 = CARTESIAN_POINT('',(1.672116235082,3.665880713476,4.869171215804)
  );
#600 = CARTESIAN_POINT('',(1.620318781243,3.530266881,4.806182786302));
#601 = CARTESIAN_POINT('',(1.563950016221,3.385074046176,4.761659599813)
  );
#602 = CARTESIAN_POINT('',(1.504294108343,3.234172745456,4.737580144222)
  );
#603 = CARTESIAN_POINT('',(1.442930972425,3.081784840524,4.734710547265)
  );
#604 = CARTESIAN_POINT('',(1.381635379908,2.932148365424,4.752552261179)
  );
#605 = CARTESIAN_POINT('',(1.231198197997,2.570408434365,4.845431289278)
  );
#606 = CARTESIAN_POINT('',(1.146508758198,2.372017181364,4.944506487348)
  );
#607 = CARTESIAN_POINT('',(1.071574121231,2.200689794368,5.078041574255)
  );
#608 = CARTESIAN_POINT('',(1.009158941781,2.060702532043,5.238319756137)
  );
#609 = CARTESIAN_POINT('',(0.961360828399,1.954848366028,5.417826223982)
  );
#610 = CARTESIAN_POINT('',(0.929432786255,1.884548743146,5.609285705346)
  );
#611 = CARTESIAN_POINT('',(0.913741691362,1.8500001,5.805610310246));
#612 = CARTESIAN_POINT('',(0.913741691362,1.8500001,6.101481607502));
#613 = CARTESIAN_POINT('',(0.91801811869,1.85941592504,6.203001163327));
#614 = CARTESIAN_POINT('',(0.926576435788,1.878259724549,6.303746556579)
  );
#615 = CARTESIAN_POINT('',(0.93939044392,1.906519152206,6.402897473865)
  );
#616 = CARTESIAN_POINT('',(0.956399777521,1.944152778868,6.499613242387)
  );
#617 = CARTESIAN_POINT('',(0.977507961406,1.991083874924,6.593018922173)
  );
#618 = CARTESIAN_POINT('',(1.002581030853,2.047192562075,6.682189747435)
  );
#619 = CARTESIAN_POINT('',(1.067687635518,2.194056800058,6.87152598217)
  );
#620 = CARTESIAN_POINT('',(1.110252906606,2.290782600416,6.969685592274)
  );
#621 = CARTESIAN_POINT('',(1.158633790055,2.401786894361,7.057301696642)
  );
#622 = CARTESIAN_POINT('',(1.21193724015,2.525584597141,7.131418773868)
  );
#623 = CARTESIAN_POINT('',(1.269003677273,2.660074300871,7.189509208826)
  );
#624 = CARTESIAN_POINT('',(1.328525072326,2.802665670219,7.229534806859)
  );
#625 = CARTESIAN_POINT('',(1.389144495563,2.950387309837,7.2500001));
#626 = CARTESIAN_POINT('',(1.44951828378,3.1000001,7.2500001));
#627 = PCURVE('',#131,#628);
#628 = DEFINITIONAL_REPRESENTATION('',(#629),#681);
#629 = B_SPLINE_CURVE_WITH_KNOTS('',8,(#630,#631,#632,#633,#634,#635,
    #636,#637,#638,#639,#640,#641,#642,#643,#644,#645,#646,#647,#648,
    #649,#650,#651,#652,#653,#654,#655,#656,#657,#658,#659,#660,#661,
    #662,#663,#664,#665,#666,#667,#668,#669,#670,#671,#672,#673,#674,
    #675,#676,#677,#678,#679,#680),.UNSPECIFIED.,.T.,.F.,(9,7,7,7,7,7,7,
    9),(0.,0.10814628593,0.248789913683,0.394285832573,0.53416117097,
    0.748095177075,0.85977977467,1.),.UNSPECIFIED.);
#630 = CARTESIAN_POINT('',(-4.328840110719,-66.25));
#631 = CARTESIAN_POINT('',(-4.332760491575,-66.25));
#632 = CARTESIAN_POINT('',(-4.336667195142,-66.23777970173));
#633 = CARTESIAN_POINT('',(-4.340499886639,-66.21341227302));
#634 = CARTESIAN_POINT('',(-4.344200372866,-66.17735391694));
#635 = CARTESIAN_POINT('',(-4.34771479904,-66.13042435807));
#636 = CARTESIAN_POINT('',(-4.350995996131,-66.07378697489));
#637 = CARTESIAN_POINT('',(-4.354005978704,-66.00892857842));
#638 = CARTESIAN_POINT('',(-4.360246333004,-65.84492693515));
#639 = CARTESIAN_POINT('',(-4.363284693752,-65.74098179747));
#640 = CARTESIAN_POINT('',(-4.365821485631,-65.62822169547));
#641 = CARTESIAN_POINT('',(-4.367850667748,-65.50875039483));
#642 = CARTESIAN_POINT('',(-4.369370126834,-65.38447020297));
#643 = CARTESIAN_POINT('',(-4.370380404147,-65.2571474928));
#644 = CARTESIAN_POINT('',(-4.370883873536,-65.12845310111));
#645 = CARTESIAN_POINT('',(-4.370883873536,-64.86711518837));
#646 = CARTESIAN_POINT('',(-4.370345066018,-64.73390654218));
#647 = CARTESIAN_POINT('',(-4.36926281967,-64.60218831133));
#648 = CARTESIAN_POINT('',(-4.367634255117,-64.47384499652));
#649 = CARTESIAN_POINT('',(-4.36545917683,-64.35086992504));
#650 = CARTESIAN_POINT('',(-4.362740957952,-64.23540749748));
#651 = CARTESIAN_POINT('',(-4.359488042064,-64.12982732128));
#652 = CARTESIAN_POINT('',(-4.352091097588,-63.94748100614));
#653 = CARTESIAN_POINT('',(-4.347962470584,-63.8691711158));
#654 = CARTESIAN_POINT('',(-4.343397479401,-63.8061826863));
#655 = CARTESIAN_POINT('',(-4.338499806343,-63.76165949981));
#656 = CARTESIAN_POINT('',(-4.3333973201,-63.73758004422));
#657 = CARTESIAN_POINT('',(-4.328231478108,-63.73471044726));
#658 = CARTESIAN_POINT('',(-4.323146514327,-63.75255216117));
#659 = CARTESIAN_POINT('',(-4.310826566932,-63.84543118927));
#660 = CARTESIAN_POINT('',(-4.304043487126,-63.94450638734));
#661 = CARTESIAN_POINT('',(-4.298163389748,-64.07804147425));
#662 = CARTESIAN_POINT('',(-4.293343658987,-64.23831965613));
#663 = CARTESIAN_POINT('',(-4.289691292264,-64.41782612398));
#664 = CARTESIAN_POINT('',(-4.287263295108,-64.60928560534));
#665 = CARTESIAN_POINT('',(-4.286070057525,-64.80561021024));
#666 = CARTESIAN_POINT('',(-4.286070057525,-65.1014815075));
#667 = CARTESIAN_POINT('',(-4.286395260313,-65.20300106332));
#668 = CARTESIAN_POINT('',(-4.287046084992,-65.30374645657));
#669 = CARTESIAN_POINT('',(-4.288021837067,-65.40289737386));
#670 = CARTESIAN_POINT('',(-4.289320545417,-65.49961314238));
#671 = CARTESIAN_POINT('',(-4.29093876345,-65.59301882217));
#672 = CARTESIAN_POINT('',(-4.292871334436,-65.68218964743));
#673 = CARTESIAN_POINT('',(-4.297923177369,-65.87152588217));
#674 = CARTESIAN_POINT('',(-4.301246348906,-65.96968549227));
#675 = CARTESIAN_POINT('',(-4.30505415521,-66.05730159664));
#676 = CARTESIAN_POINT('',(-4.309292600891,-66.13141867386));
#677 = CARTESIAN_POINT('',(-4.31388667631,-66.18950910882));
#678 = CARTESIAN_POINT('',(-4.318745513773,-66.22953470685));
#679 = CARTESIAN_POINT('',(-4.323766683138,-66.25));
#680 = CARTESIAN_POINT('',(-4.328840110719,-66.25));
#681 = ( GEOMETRIC_REPRESENTATION_CONTEXT(2) 
PARAMETRIC_REPRESENTATION_CONTEXT() REPRESENTATION_CONTEXT('2D SPACE',''
  ) );
#682 = PCURVE('',#683,#688);
#683 = CYLINDRICAL_SURFACE('',#684,1.25);
#684 = AXIS2_PLACEMENT_3D('',#685,#686,#687);
#685 = CARTESIAN_POINT('',(8.460028630685,3.1000001,6.0000001));
#686 = DIRECTION('',(1.,-0.,-1.110223024625E-16));
#687 = DIRECTION('',(1.110223024625E-16,0.,1.));
#688 = DEFINITIONAL_REPRESENTATION('',(#689),#741);
#689 = B_SPLINE_CURVE_WITH_KNOTS('',8,(#690,#691,#692,#693,#694,#695,
    #696,#697,#698,#699,#700,#701,#702,#703,#704,#705,#706,#707,#708,
    #709,#710,#711,#712,#713,#714,#715,#716,#717,#718,#719,#720,#721,
    #722,#723,#724,#725,#726,#727,#728,#729,#730,#731,#732,#733,#734,
    #735,#736,#737,#738,#739,#740),.UNSPECIFIED.,.F.,.F.,(9,7,7,7,7,7,7,
    9),(0.,0.10814628593,0.248789913683,0.394285832573,0.53416117097,
    0.748095177075,0.85977977467,1.),.UNSPECIFIED.);
#690 = CARTESIAN_POINT('',(0.,-7.010510346905));
#691 = CARTESIAN_POINT('',(-9.248802456207E-02,-6.963857814713));
#692 = CARTESIAN_POINT('',(-0.184819998681,-6.917885854399));
#693 = CARTESIAN_POINT('',(-0.276776697037,-6.873307984794));
#694 = CARTESIAN_POINT('',(-0.368150183413,-6.830765599817));
#695 = CARTESIAN_POINT('',(-0.458720253361,-6.790808216885));
#696 = CARTESIAN_POINT('',(-0.54822505964,-6.753877656429));
#697 = CARTESIAN_POINT('',(-0.636325920432,-6.720296152515));
#698 = CARTESIAN_POINT('',(-0.834721445282,-6.651194461778));
#699 = CARTESIAN_POINT('',(-0.944159956572,-6.617973586033));
#700 = CARTESIAN_POINT('',(-1.051485821804,-6.590525579401));
#701 = CARTESIAN_POINT('',(-1.15715583955,-6.568743281321));
#702 = CARTESIAN_POINT('',(-1.261566067828,-6.552518460156));
#703 = CARTESIAN_POINT('',(-1.365078498545,-6.541759034547));
#704 = CARTESIAN_POINT('',(-1.468033845905,-6.536397079123));
#705 = CARTESIAN_POINT('',(-1.677104176097,-6.536397079123));
#706 = CARTESIAN_POINT('',(-1.783670841749,-6.542135389413));
#707 = CARTESIAN_POINT('',(-1.890877088954,-6.553661271403));
#708 = CARTESIAN_POINT('',(-1.999080256819,-6.571054267042));
#709 = CARTESIAN_POINT('',(-2.108665865695,-6.594415751165));
#710 = CARTESIAN_POINT('',(-2.220060392944,-6.62386017629));
#711 = CARTESIAN_POINT('',(-2.333761534524,-6.659493638284));
#712 = CARTESIAN_POINT('',(-2.562615569613,-6.741623540226));
#713 = CARTESIAN_POINT('',(-2.678281614398,-6.787912395603));
#714 = CARTESIAN_POINT('',(-2.796145681571,-6.839709849442));
#715 = CARTESIAN_POINT('',(-2.915364833696,-6.896078614464));
#716 = CARTESIAN_POINT('',(-3.035281716074,-6.955734522342));
#717 = CARTESIAN_POINT('',(-3.155302783695,-7.01709765826));
#718 = CARTESIAN_POINT('',(-3.274800626994,-7.078393250777));
#719 = CARTESIAN_POINT('',(-3.573579251754,-7.228830432688));
#720 = CARTESIAN_POINT('',(-3.747017882104,-7.313519872487));
#721 = CARTESIAN_POINT('',(-3.915320857146,-7.388454509454));
#722 = CARTESIAN_POINT('',(-4.079636807808,-7.450869688904));
#723 = CARTESIAN_POINT('',(-4.240921587342,-7.498667802286));
#724 = CARTESIAN_POINT('',(-4.399816863482,-7.53059584443));
#725 = CARTESIAN_POINT('',(-4.556877148581,-7.546286939323));
#726 = CARTESIAN_POINT('',(-4.793574186386,-7.546286939323));
#727 = CARTESIAN_POINT('',(-4.874790060793,-7.542010511995));
#728 = CARTESIAN_POINT('',(-4.956201197284,-7.533452194897));
#729 = CARTESIAN_POINT('',(-5.037970900068,-7.520638186765));
#730 = CARTESIAN_POINT('',(-5.120264251922,-7.503628853164));
#731 = CARTESIAN_POINT('',(-5.203254585824,-7.482520669279));
#732 = CARTESIAN_POINT('',(-5.287133360181,-7.457447599831));
#733 = CARTESIAN_POINT('',(-5.478828642013,-7.392340995167));
#734 = CARTESIAN_POINT('',(-5.588304742753,-7.349775724079));
#735 = CARTESIAN_POINT('',(-5.699968912915,-7.30139484063));
#736 = CARTESIAN_POINT('',(-5.813478705765,-7.248091390535));
#737 = CARTESIAN_POINT('',(-5.928632100041,-7.191024953412));
#738 = CARTESIAN_POINT('',(-6.045317697021,-7.131503558359));
#739 = CARTESIAN_POINT('',(-6.163495075049,-7.070884135122));
#740 = CARTESIAN_POINT('',(-6.28318530718,-7.010510346905));
#741 = ( GEOMETRIC_REPRESENTATION_CONTEXT(2) 
PARAMETRIC_REPRESENTATION_CONTEXT() REPRESENTATION_CONTEXT('2D SPACE',''
  ) );
#742 = ADVANCED_FACE('',(#743),#100,.T.);
#743 = FACE_BOUND('',#744,.T.);
#744 = EDGE_LOOP('',(#745,#768,#769,#770));
#745 = ORIENTED_EDGE('',*,*,#746,.F.);
#746 = EDGE_CURVE('',#57,#747,#749,.T.);
#747 = VERTEX_POINT('',#748);
#748 = CARTESIAN_POINT('',(9.960028630685,8.2000001,8.3000001));
#749 = SURFACE_CURVE('',#750,(#754,#761),.PCURVE_S1.);
#750 = LINE('',#751,#752);
#751 = CARTESIAN_POINT('',(9.960028630685,8.2000001,1.000000011686E-07)
  );
#752 = VECTOR('',#753,1.);
#753 = DIRECTION('',(1.110223024625E-16,0.,1.));
#754 = PCURVE('',#100,#755);
#755 = DEFINITIONAL_REPRESENTATION('',(#756),#760);
#756 = LINE('',#757,#758);
#757 = CARTESIAN_POINT('',(0.,0.));
#758 = VECTOR('',#759,1.);
#759 = DIRECTION('',(0.,1.));
#760 = ( GEOMETRIC_REPRESENTATION_CONTEXT(2) 
PARAMETRIC_REPRESENTATION_CONTEXT() REPRESENTATION_CONTEXT('2D SPACE',''
  ) );
#761 = PCURVE('',#72,#762);
#762 = DEFINITIONAL_REPRESENTATION('',(#763),#767);
#763 = LINE('',#764,#765);
#764 = CARTESIAN_POINT('',(7.105427357601E-15,8.2));
#765 = VECTOR('',#766,1.);
#766 = DIRECTION('',(1.,0.));
#767 = ( GEOMETRIC_REPRESENTATION_CONTEXT(2) 
PARAMETRIC_REPRESENTATION_CONTEXT() REPRESENTATION_CONTEXT('2D SPACE',''
  ) );
#768 = ORIENTED_EDGE('',*,*,#84,.T.);
#769 = ORIENTED_EDGE('',*,*,#222,.F.);
#770 = ORIENTED_EDGE('',*,*,#771,.T.);
#771 = EDGE_CURVE('',#223,#747,#772,.T.);
#772 = SURFACE_CURVE('',#773,(#777,#784),.PCURVE_S1.);
#773 = LINE('',#774,#775);
#774 = CARTESIAN_POINT('',(9.960028630685,8.2000001,8.3000001));
#775 = VECTOR('',#776,1.);
#776 = DIRECTION('',(1.,0.,-1.110223024625E-16));
#777 = PCURVE('',#100,#778);
#778 = DEFINITIONAL_REPRESENTATION('',(#779),#783);
#779 = LINE('',#780,#781);
#780 = CARTESIAN_POINT('',(-1.328936960476E-14,8.3));
#781 = VECTOR('',#782,1.);
#782 = DIRECTION('',(-1.,0.));
#783 = ( GEOMETRIC_REPRESENTATION_CONTEXT(2) 
PARAMETRIC_REPRESENTATION_CONTEXT() REPRESENTATION_CONTEXT('2D SPACE',''
  ) );
#784 = PCURVE('',#379,#785);
#785 = DEFINITIONAL_REPRESENTATION('',(#786),#790);
#786 = LINE('',#787,#788);
#787 = CARTESIAN_POINT('',(0.,-1.E-02));
#788 = VECTOR('',#789,1.);
#789 = DIRECTION('',(-1.,0.));
#790 = ( GEOMETRIC_REPRESENTATION_CONTEXT(2) 
PARAMETRIC_REPRESENTATION_CONTEXT() REPRESENTATION_CONTEXT('2D SPACE',''
  ) );
#791 = ADVANCED_FACE('',(#792),#72,.F.);
#792 = FACE_BOUND('',#793,.F.);
#793 = EDGE_LOOP('',(#794,#795,#796,#797,#820,#843,#866,#894));
#794 = ORIENTED_EDGE('',*,*,#746,.F.);
#795 = ORIENTED_EDGE('',*,*,#56,.F.);
#796 = ORIENTED_EDGE('',*,*,#176,.T.);
#797 = ORIENTED_EDGE('',*,*,#798,.T.);
#798 = EDGE_CURVE('',#147,#799,#801,.T.);
#799 = VERTEX_POINT('',#800);
#800 = CARTESIAN_POINT('',(9.960028630685,8.2000001,40.0000001));
#801 = SURFACE_CURVE('',#802,(#806,#813),.PCURVE_S1.);
#802 = LINE('',#803,#804);
#803 = CARTESIAN_POINT('',(9.960028630685,9.999999939225E-08,40.0000001)
  );
#804 = VECTOR('',#805,1.);
#805 = DIRECTION('',(0.,1.,0.));
#806 = PCURVE('',#72,#807);
#807 = DEFINITIONAL_REPRESENTATION('',(#808),#812);
#808 = LINE('',#809,#810);
#809 = CARTESIAN_POINT('',(40.,0.));
#810 = VECTOR('',#811,1.);
#811 = DIRECTION('',(0.,1.));
#812 = ( GEOMETRIC_REPRESENTATION_CONTEXT(2) 
PARAMETRIC_REPRESENTATION_CONTEXT() REPRESENTATION_CONTEXT('2D SPACE',''
  ) );
#813 = PCURVE('',#164,#814);
#814 = DEFINITIONAL_REPRESENTATION('',(#815),#819);
#815 = LINE('',#816,#817);
#816 = CARTESIAN_POINT('',(0.,0.));
#817 = VECTOR('',#818,1.);
#818 = DIRECTION('',(0.,-1.));
#819 = ( GEOMETRIC_REPRESENTATION_CONTEXT(2) 
PARAMETRIC_REPRESENTATION_CONTEXT() REPRESENTATION_CONTEXT('2D SPACE',''
  ) );
#820 = ORIENTED_EDGE('',*,*,#821,.F.);
#821 = EDGE_CURVE('',#822,#799,#824,.T.);
#822 = VERTEX_POINT('',#823);
#823 = CARTESIAN_POINT('',(9.960028630685,8.2000001,31.7000001));
#824 = SURFACE_CURVE('',#825,(#829,#836),.PCURVE_S1.);
#825 = LINE('',#826,#827);
#826 = CARTESIAN_POINT('',(9.960028630685,8.2000001,1.000000011686E-07)
  );
#827 = VECTOR('',#828,1.);
#828 = DIRECTION('',(1.110223024625E-16,0.,1.));
#829 = PCURVE('',#72,#830);
#830 = DEFINITIONAL_REPRESENTATION('',(#831),#835);
#831 = LINE('',#832,#833);
#832 = CARTESIAN_POINT('',(7.105427357601E-15,8.2));
#833 = VECTOR('',#834,1.);
#834 = DIRECTION('',(1.,0.));
#835 = ( GEOMETRIC_REPRESENTATION_CONTEXT(2) 
PARAMETRIC_REPRESENTATION_CONTEXT() REPRESENTATION_CONTEXT('2D SPACE',''
  ) );
#836 = PCURVE('',#291,#837);
#837 = DEFINITIONAL_REPRESENTATION('',(#838),#842);
#838 = LINE('',#839,#840);
#839 = CARTESIAN_POINT('',(0.,0.));
#840 = VECTOR('',#841,1.);
#841 = DIRECTION('',(0.,1.));
#842 = ( GEOMETRIC_REPRESENTATION_CONTEXT(2) 
PARAMETRIC_REPRESENTATION_CONTEXT() REPRESENTATION_CONTEXT('2D SPACE',''
  ) );
#843 = ORIENTED_EDGE('',*,*,#844,.T.);
#844 = EDGE_CURVE('',#822,#845,#847,.T.);
#845 = VERTEX_POINT('',#846);
#846 = CARTESIAN_POINT('',(9.960028630685,8.5000001,31.7000001));
#847 = SURFACE_CURVE('',#848,(#852,#859),.PCURVE_S1.);
#848 = LINE('',#849,#850);
#849 = CARTESIAN_POINT('',(9.960028630685,8.1900001,31.7000001));
#850 = VECTOR('',#851,1.);
#851 = DIRECTION('',(0.,1.,0.));
#852 = PCURVE('',#72,#853);
#853 = DEFINITIONAL_REPRESENTATION('',(#854),#858);
#854 = LINE('',#855,#856);
#855 = CARTESIAN_POINT('',(31.7,8.19));
#856 = VECTOR('',#857,1.);
#857 = DIRECTION('',(0.,1.));
#858 = ( GEOMETRIC_REPRESENTATION_CONTEXT(2) 
PARAMETRIC_REPRESENTATION_CONTEXT() REPRESENTATION_CONTEXT('2D SPACE',''
  ) );
#859 = PCURVE('',#320,#860);
#860 = DEFINITIONAL_REPRESENTATION('',(#861),#865);
#861 = LINE('',#862,#863);
#862 = CARTESIAN_POINT('',(1.42108547152E-14,-1.7763568394E-15));
#863 = VECTOR('',#864,1.);
#864 = DIRECTION('',(0.,-1.));
#865 = ( GEOMETRIC_REPRESENTATION_CONTEXT(2) 
PARAMETRIC_REPRESENTATION_CONTEXT() REPRESENTATION_CONTEXT('2D SPACE',''
  ) );
#866 = ORIENTED_EDGE('',*,*,#867,.T.);
#867 = EDGE_CURVE('',#845,#868,#870,.T.);
#868 = VERTEX_POINT('',#869);
#869 = CARTESIAN_POINT('',(9.960028630685,8.5000001,8.3000001));
#870 = SURFACE_CURVE('',#871,(#875,#882),.PCURVE_S1.);
#871 = LINE('',#872,#873);
#872 = CARTESIAN_POINT('',(9.960028630685,8.5000001,8.3000001));
#873 = VECTOR('',#874,1.);
#874 = DIRECTION('',(-1.110223024625E-16,-0.,-1.));
#875 = PCURVE('',#72,#876);
#876 = DEFINITIONAL_REPRESENTATION('',(#877),#881);
#877 = LINE('',#878,#879);
#878 = CARTESIAN_POINT('',(8.3,8.5));
#879 = VECTOR('',#880,1.);
#880 = DIRECTION('',(-1.,-0.));
#881 = ( GEOMETRIC_REPRESENTATION_CONTEXT(2) 
PARAMETRIC_REPRESENTATION_CONTEXT() REPRESENTATION_CONTEXT('2D SPACE',''
  ) );
#882 = PCURVE('',#883,#888);
#883 = CYLINDRICAL_SURFACE('',#884,5.5);
#884 = AXIS2_PLACEMENT_3D('',#885,#886,#887);
#885 = CARTESIAN_POINT('',(9.960028630685,14.0000001,8.3000001));
#886 = DIRECTION('',(-1.110223024625E-16,-0.,-1.));
#887 = DIRECTION('',(0.,1.,0.));
#888 = DEFINITIONAL_REPRESENTATION('',(#889),#893);
#889 = LINE('',#890,#891);
#890 = CARTESIAN_POINT('',(-3.14159265359,0.));
#891 = VECTOR('',#892,1.);
#892 = DIRECTION('',(-0.,1.));
#893 = ( GEOMETRIC_REPRESENTATION_CONTEXT(2) 
PARAMETRIC_REPRESENTATION_CONTEXT() REPRESENTATION_CONTEXT('2D SPACE',''
  ) );
#894 = ORIENTED_EDGE('',*,*,#895,.F.);
#895 = EDGE_CURVE('',#747,#868,#896,.T.);
#896 = SURFACE_CURVE('',#897,(#901,#908),.PCURVE_S1.);
#897 = LINE('',#898,#899);
#898 = CARTESIAN_POINT('',(9.960028630685,8.1900001,8.3000001));
#899 = VECTOR('',#900,1.);
#900 = DIRECTION('',(0.,1.,0.));
#901 = PCURVE('',#72,#902);
#902 = DEFINITIONAL_REPRESENTATION('',(#903),#907);
#903 = LINE('',#904,#905);
#904 = CARTESIAN_POINT('',(8.3,8.19));
#905 = VECTOR('',#906,1.);
#906 = DIRECTION('',(0.,1.));
#907 = ( GEOMETRIC_REPRESENTATION_CONTEXT(2) 
PARAMETRIC_REPRESENTATION_CONTEXT() REPRESENTATION_CONTEXT('2D SPACE',''
  ) );
#908 = PCURVE('',#379,#909);
#909 = DEFINITIONAL_REPRESENTATION('',(#910),#914);
#910 = LINE('',#911,#912);
#911 = CARTESIAN_POINT('',(1.42108547152E-14,-1.7763568394E-15));
#912 = VECTOR('',#913,1.);
#913 = DIRECTION('',(0.,-1.));
#914 = ( GEOMETRIC_REPRESENTATION_CONTEXT(2) 
PARAMETRIC_REPRESENTATION_CONTEXT() REPRESENTATION_CONTEXT('2D SPACE',''
  ) );
#915 = ADVANCED_FACE('',(#916),#164,.T.);
#916 = FACE_BOUND('',#917,.T.);
#917 = EDGE_LOOP('',(#918,#919,#920,#941));
#918 = ORIENTED_EDGE('',*,*,#146,.F.);
#919 = ORIENTED_EDGE('',*,*,#798,.T.);
#920 = ORIENTED_EDGE('',*,*,#921,.T.);
#921 = EDGE_CURVE('',#799,#248,#922,.T.);
#922 = SURFACE_CURVE('',#923,(#927,#934),.PCURVE_S1.);
#923 = LINE('',#924,#925);
#924 = CARTESIAN_POINT('',(9.960028630685,8.2000001,40.0000001));
#925 = VECTOR('',#926,1.);
#926 = DIRECTION('',(-1.,0.,1.110223024625E-16));
#927 = PCURVE('',#164,#928);
#928 = DEFINITIONAL_REPRESENTATION('',(#929),#933);
#929 = LINE('',#930,#931);
#930 = CARTESIAN_POINT('',(0.,-8.2));
#931 = VECTOR('',#932,1.);
#932 = DIRECTION('',(1.,0.));
#933 = ( GEOMETRIC_REPRESENTATION_CONTEXT(2) 
PARAMETRIC_REPRESENTATION_CONTEXT() REPRESENTATION_CONTEXT('2D SPACE',''
  ) );
#934 = PCURVE('',#291,#935);
#935 = DEFINITIONAL_REPRESENTATION('',(#936),#940);
#936 = LINE('',#937,#938);
#937 = CARTESIAN_POINT('',(4.440892098501E-15,40.));
#938 = VECTOR('',#939,1.);
#939 = DIRECTION('',(1.,0.));
#940 = ( GEOMETRIC_REPRESENTATION_CONTEXT(2) 
PARAMETRIC_REPRESENTATION_CONTEXT() REPRESENTATION_CONTEXT('2D SPACE',''
  ) );
#941 = ORIENTED_EDGE('',*,*,#247,.T.);
#942 = ADVANCED_FACE('',(#943,#997),#379,.F.);
#943 = FACE_BOUND('',#944,.F.);
#944 = EDGE_LOOP('',(#945,#946,#947,#948,#976));
#945 = ORIENTED_EDGE('',*,*,#364,.T.);
#946 = ORIENTED_EDGE('',*,*,#771,.T.);
#947 = ORIENTED_EDGE('',*,*,#895,.T.);
#948 = ORIENTED_EDGE('',*,*,#949,.F.);
#949 = EDGE_CURVE('',#950,#868,#952,.T.);
#950 = VERTEX_POINT('',#951);
#951 = CARTESIAN_POINT('',(4.460028630685,14.0000001,8.3000001));
#952 = SURFACE_CURVE('',#953,(#958,#969),.PCURVE_S1.);
#953 = CIRCLE('',#954,5.5);
#954 = AXIS2_PLACEMENT_3D('',#955,#956,#957);
#955 = CARTESIAN_POINT('',(9.960028630685,14.0000001,8.3000001));
#956 = DIRECTION('',(-1.110223024625E-16,0.,-1.));
#957 = DIRECTION('',(-1.,5.853903220751E-16,1.110223024625E-16));
#958 = PCURVE('',#379,#959);
#959 = DEFINITIONAL_REPRESENTATION('',(#960),#968);
#960 = ( BOUNDED_CURVE() B_SPLINE_CURVE(2,(#961,#962,#963,#964,#965,#966
,#967),.UNSPECIFIED.,.T.,.F.) B_SPLINE_CURVE_WITH_KNOTS((1,2,2,2,2,1),(
    -2.094395102393,0.,2.094395102393,4.188790204786,6.28318530718,
8.377580409573),.UNSPECIFIED.) CURVE() GEOMETRIC_REPRESENTATION_ITEM() 
RATIONAL_B_SPLINE_CURVE((1.,0.5,1.,0.5,1.,0.5,1.)) REPRESENTATION_ITEM(
  '') );
#961 = CARTESIAN_POINT('',(5.5,-5.81));
#962 = CARTESIAN_POINT('',(5.5,-15.33627944162));
#963 = CARTESIAN_POINT('',(-2.75,-10.57313972081));
#964 = CARTESIAN_POINT('',(-11.,-5.81));
#965 = CARTESIAN_POINT('',(-2.75,-1.046860279186));
#966 = CARTESIAN_POINT('',(5.5,3.716279441629));
#967 = CARTESIAN_POINT('',(5.5,-5.81));
#968 = ( GEOMETRIC_REPRESENTATION_CONTEXT(2) 
PARAMETRIC_REPRESENTATION_CONTEXT() REPRESENTATION_CONTEXT('2D SPACE',''
  ) );
#969 = PCURVE('',#883,#970);
#970 = DEFINITIONAL_REPRESENTATION('',(#971),#975);
#971 = LINE('',#972,#973);
#972 = CARTESIAN_POINT('',(-7.853981633974,0.));
#973 = VECTOR('',#974,1.);
#974 = DIRECTION('',(1.,-0.));
#975 = ( GEOMETRIC_REPRESENTATION_CONTEXT(2) 
PARAMETRIC_REPRESENTATION_CONTEXT() REPRESENTATION_CONTEXT('2D SPACE',''
  ) );
#976 = ORIENTED_EDGE('',*,*,#977,.T.);
#977 = EDGE_CURVE('',#950,#337,#978,.T.);
#978 = SURFACE_CURVE('',#979,(#983,#990),.PCURVE_S1.);
#979 = LINE('',#980,#981);
#980 = CARTESIAN_POINT('',(9.960028630685,14.0000001,8.3000001));
#981 = VECTOR('',#982,1.);
#982 = DIRECTION('',(-1.,0.,1.110223024625E-16));
#983 = PCURVE('',#379,#984);
#984 = DEFINITIONAL_REPRESENTATION('',(#985),#989);
#985 = LINE('',#986,#987);
#986 = CARTESIAN_POINT('',(1.42108547152E-14,-5.81));
#987 = VECTOR('',#988,1.);
#988 = DIRECTION('',(1.,0.));
#989 = ( GEOMETRIC_REPRESENTATION_CONTEXT(2) 
PARAMETRIC_REPRESENTATION_CONTEXT() REPRESENTATION_CONTEXT('2D SPACE',''
  ) );
#990 = PCURVE('',#352,#991);
#991 = DEFINITIONAL_REPRESENTATION('',(#992),#996);
#992 = LINE('',#993,#994);
#993 = CARTESIAN_POINT('',(0.,0.));
#994 = VECTOR('',#995,1.);
#995 = DIRECTION('',(1.,0.));
#996 = ( GEOMETRIC_REPRESENTATION_CONTEXT(2) 
PARAMETRIC_REPRESENTATION_CONTEXT() REPRESENTATION_CONTEXT('2D SPACE',''
  ) );
#997 = FACE_BOUND('',#998,.F.);
#998 = EDGE_LOOP('',(#999));
#999 = ORIENTED_EDGE('',*,*,#1000,.T.);
#1000 = EDGE_CURVE('',#1001,#1001,#1003,.T.);
#1001 = VERTEX_POINT('',#1002);
#1002 = CARTESIAN_POINT('',(9.960028630685,16.5500001,8.3000001));
#1003 = SURFACE_CURVE('',#1004,(#1009,#1020),.PCURVE_S1.);
#1004 = CIRCLE('',#1005,2.55);
#1005 = AXIS2_PLACEMENT_3D('',#1006,#1007,#1008);
#1006 = CARTESIAN_POINT('',(9.960028630685,14.0000001,8.3000001));
#1007 = DIRECTION('',(-1.110223024625E-16,0.,-1.));
#1008 = DIRECTION('',(0.,1.,0.));
#1009 = PCURVE('',#379,#1010);
#1010 = DEFINITIONAL_REPRESENTATION('',(#1011),#1019);
#1011 = ( BOUNDED_CURVE() B_SPLINE_CURVE(2,(#1012,#1013,#1014,#1015,
#1016,#1017,#1018),.UNSPECIFIED.,.T.,.F.) B_SPLINE_CURVE_WITH_KNOTS((1,2
    ,2,2,2,1),(-2.094395102393,0.,2.094395102393,4.188790204786,
6.28318530718,8.377580409573),.UNSPECIFIED.) CURVE() 
GEOMETRIC_REPRESENTATION_ITEM() RATIONAL_B_SPLINE_CURVE((1.,0.5,1.,0.5,
1.,0.5,1.)) REPRESENTATION_ITEM('') );
#1012 = CARTESIAN_POINT('',(0.,-8.36));
#1013 = CARTESIAN_POINT('',(-4.416729559301,-8.36));
#1014 = CARTESIAN_POINT('',(-2.20836477965,-4.535));
#1015 = CARTESIAN_POINT('',(-6.245698675651E-16,-0.71));
#1016 = CARTESIAN_POINT('',(2.20836477965,-4.535));
#1017 = CARTESIAN_POINT('',(4.416729559301,-8.36));
#1018 = CARTESIAN_POINT('',(0.,-8.36));
#1019 = ( GEOMETRIC_REPRESENTATION_CONTEXT(2) 
PARAMETRIC_REPRESENTATION_CONTEXT() REPRESENTATION_CONTEXT('2D SPACE',''
  ) );
#1020 = PCURVE('',#1021,#1026);
#1021 = CYLINDRICAL_SURFACE('',#1022,2.55);
#1022 = AXIS2_PLACEMENT_3D('',#1023,#1024,#1025);
#1023 = CARTESIAN_POINT('',(9.960028630685,14.0000001,7.3000001));
#1024 = DIRECTION('',(-1.110223024625E-16,-0.,-1.));
#1025 = DIRECTION('',(0.,1.,0.));
#1026 = DEFINITIONAL_REPRESENTATION('',(#1027),#1031);
#1027 = LINE('',#1028,#1029);
#1028 = CARTESIAN_POINT('',(-6.28318530718,-1.));
#1029 = VECTOR('',#1030,1.);
#1030 = DIRECTION('',(1.,-0.));
#1031 = ( GEOMETRIC_REPRESENTATION_CONTEXT(2) 
PARAMETRIC_REPRESENTATION_CONTEXT() REPRESENTATION_CONTEXT('2D SPACE',''
  ) );
#1032 = ADVANCED_FACE('',(#1033),#352,.T.);
#1033 = FACE_BOUND('',#1034,.T.);
#1034 = EDGE_LOOP('',(#1035,#1058,#1079,#1080));
#1035 = ORIENTED_EDGE('',*,*,#1036,.F.);
#1036 = EDGE_CURVE('',#1037,#304,#1039,.T.);
#1037 = VERTEX_POINT('',#1038);
#1038 = CARTESIAN_POINT('',(4.460028630685,14.0000001,31.7000001));
#1039 = SURFACE_CURVE('',#1040,(#1044,#1051),.PCURVE_S1.);
#1040 = LINE('',#1041,#1042);
#1041 = CARTESIAN_POINT('',(9.960028630685,14.0000001,31.7000001));
#1042 = VECTOR('',#1043,1.);
#1043 = DIRECTION('',(-1.,0.,1.110223024625E-16));
#1044 = PCURVE('',#352,#1045);
#1045 = DEFINITIONAL_REPRESENTATION('',(#1046),#1050);
#1046 = LINE('',#1047,#1048);
#1047 = CARTESIAN_POINT('',(2.597921877623E-15,23.4));
#1048 = VECTOR('',#1049,1.);
#1049 = DIRECTION('',(1.,0.));
#1050 = ( GEOMETRIC_REPRESENTATION_CONTEXT(2) 
PARAMETRIC_REPRESENTATION_CONTEXT() REPRESENTATION_CONTEXT('2D SPACE',''
  ) );
#1051 = PCURVE('',#320,#1052);
#1052 = DEFINITIONAL_REPRESENTATION('',(#1053),#1057);
#1053 = LINE('',#1054,#1055);
#1054 = CARTESIAN_POINT('',(1.42108547152E-14,-5.81));
#1055 = VECTOR('',#1056,1.);
#1056 = DIRECTION('',(1.,0.));
#1057 = ( GEOMETRIC_REPRESENTATION_CONTEXT(2) 
PARAMETRIC_REPRESENTATION_CONTEXT() REPRESENTATION_CONTEXT('2D SPACE',''
  ) );
#1058 = ORIENTED_EDGE('',*,*,#1059,.T.);
#1059 = EDGE_CURVE('',#1037,#950,#1060,.T.);
#1060 = SURFACE_CURVE('',#1061,(#1065,#1072),.PCURVE_S1.);
#1061 = LINE('',#1062,#1063);
#1062 = CARTESIAN_POINT('',(4.460028630685,14.0000001,8.3000001));
#1063 = VECTOR('',#1064,1.);
#1064 = DIRECTION('',(-1.110223024625E-16,-0.,-1.));
#1065 = PCURVE('',#352,#1066);
#1066 = DEFINITIONAL_REPRESENTATION('',(#1067),#1071);
#1067 = LINE('',#1068,#1069);
#1068 = CARTESIAN_POINT('',(5.5,-6.106226635438E-16));
#1069 = VECTOR('',#1070,1.);
#1070 = DIRECTION('',(0.,-1.));
#1071 = ( GEOMETRIC_REPRESENTATION_CONTEXT(2) 
PARAMETRIC_REPRESENTATION_CONTEXT() REPRESENTATION_CONTEXT('2D SPACE',''
  ) );
#1072 = PCURVE('',#883,#1073);
#1073 = DEFINITIONAL_REPRESENTATION('',(#1074),#1078);
#1074 = LINE('',#1075,#1076);
#1075 = CARTESIAN_POINT('',(-7.853981633974,0.));
#1076 = VECTOR('',#1077,1.);
#1077 = DIRECTION('',(-0.,1.));
#1078 = ( GEOMETRIC_REPRESENTATION_CONTEXT(2) 
PARAMETRIC_REPRESENTATION_CONTEXT() REPRESENTATION_CONTEXT('2D SPACE',''
  ) );
#1079 = ORIENTED_EDGE('',*,*,#977,.T.);
#1080 = ORIENTED_EDGE('',*,*,#336,.F.);
#1081 = ADVANCED_FACE('',(#1082,#1130),#320,.T.);
#1082 = FACE_BOUND('',#1083,.T.);
#1083 = EDGE_LOOP('',(#1084,#1085,#1106,#1107,#1129));
#1084 = ORIENTED_EDGE('',*,*,#303,.T.);
#1085 = ORIENTED_EDGE('',*,*,#1086,.T.);
#1086 = EDGE_CURVE('',#276,#822,#1087,.T.);
#1087 = SURFACE_CURVE('',#1088,(#1092,#1099),.PCURVE_S1.);
#1088 = LINE('',#1089,#1090);
#1089 = CARTESIAN_POINT('',(9.960028630685,8.2000001,31.7000001));
#1090 = VECTOR('',#1091,1.);
#1091 = DIRECTION('',(1.,0.,-1.110223024625E-16));
#1092 = PCURVE('',#320,#1093);
#1093 = DEFINITIONAL_REPRESENTATION('',(#1094),#1098);
#1094 = LINE('',#1095,#1096);
#1095 = CARTESIAN_POINT('',(0.,-1.E-02));
#1096 = VECTOR('',#1097,1.);
#1097 = DIRECTION('',(-1.,0.));
#1098 = ( GEOMETRIC_REPRESENTATION_CONTEXT(2) 
PARAMETRIC_REPRESENTATION_CONTEXT() REPRESENTATION_CONTEXT('2D SPACE',''
  ) );
#1099 = PCURVE('',#291,#1100);
#1100 = DEFINITIONAL_REPRESENTATION('',(#1101),#1105);
#1101 = LINE('',#1102,#1103);
#1102 = CARTESIAN_POINT('',(-1.069144772714E-14,31.7));
#1103 = VECTOR('',#1104,1.);
#1104 = DIRECTION('',(-1.,0.));
#1105 = ( GEOMETRIC_REPRESENTATION_CONTEXT(2) 
PARAMETRIC_REPRESENTATION_CONTEXT() REPRESENTATION_CONTEXT('2D SPACE',''
  ) );
#1106 = ORIENTED_EDGE('',*,*,#844,.T.);
#1107 = ORIENTED_EDGE('',*,*,#1108,.T.);
#1108 = EDGE_CURVE('',#845,#1037,#1109,.T.);
#1109 = SURFACE_CURVE('',#1110,(#1115,#1122),.PCURVE_S1.);
#1110 = CIRCLE('',#1111,5.5);
#1111 = AXIS2_PLACEMENT_3D('',#1112,#1113,#1114);
#1112 = CARTESIAN_POINT('',(9.960028630685,14.0000001,31.7000001));
#1113 = DIRECTION('',(1.110223024625E-16,0.,1.));
#1114 = DIRECTION('',(-1.42108547152E-14,-1.,1.577721810442E-30));
#1115 = PCURVE('',#320,#1116);
#1116 = DEFINITIONAL_REPRESENTATION('',(#1117),#1121);
#1117 = CIRCLE('',#1118,5.5);
#1118 = AXIS2_PLACEMENT_2D('',#1119,#1120);
#1119 = CARTESIAN_POINT('',(0.,-5.81));
#1120 = DIRECTION('',(1.42108547152E-14,1.));
#1121 = ( GEOMETRIC_REPRESENTATION_CONTEXT(2) 
PARAMETRIC_REPRESENTATION_CONTEXT() REPRESENTATION_CONTEXT('2D SPACE',''
  ) );
#1122 = PCURVE('',#883,#1123);
#1123 = DEFINITIONAL_REPRESENTATION('',(#1124),#1128);
#1124 = LINE('',#1125,#1126);
#1125 = CARTESIAN_POINT('',(-3.14159265359,-23.4));
#1126 = VECTOR('',#1127,1.);
#1127 = DIRECTION('',(-1.,0.));
#1128 = ( GEOMETRIC_REPRESENTATION_CONTEXT(2) 
PARAMETRIC_REPRESENTATION_CONTEXT() REPRESENTATION_CONTEXT('2D SPACE',''
  ) );
#1129 = ORIENTED_EDGE('',*,*,#1036,.T.);
#1130 = FACE_BOUND('',#1131,.T.);
#1131 = EDGE_LOOP('',(#1132));
#1132 = ORIENTED_EDGE('',*,*,#1133,.T.);
#1133 = EDGE_CURVE('',#1134,#1134,#1136,.T.);
#1134 = VERTEX_POINT('',#1135);
#1135 = CARTESIAN_POINT('',(9.960028630685,16.5500001,31.7000001));
#1136 = SURFACE_CURVE('',#1137,(#1142,#1153),.PCURVE_S1.);
#1137 = CIRCLE('',#1138,2.55);
#1138 = AXIS2_PLACEMENT_3D('',#1139,#1140,#1141);
#1139 = CARTESIAN_POINT('',(9.960028630685,14.0000001,31.7000001));
#1140 = DIRECTION('',(-1.110223024625E-16,0.,-1.));
#1141 = DIRECTION('',(0.,1.,0.));
#1142 = PCURVE('',#320,#1143);
#1143 = DEFINITIONAL_REPRESENTATION('',(#1144),#1152);
#1144 = ( BOUNDED_CURVE() B_SPLINE_CURVE(2,(#1145,#1146,#1147,#1148,
#1149,#1150,#1151),.UNSPECIFIED.,.T.,.F.) B_SPLINE_CURVE_WITH_KNOTS((1,2
    ,2,2,2,1),(-2.094395102393,0.,2.094395102393,4.188790204786,
6.28318530718,8.377580409573),.UNSPECIFIED.) CURVE() 
GEOMETRIC_REPRESENTATION_ITEM() RATIONAL_B_SPLINE_CURVE((1.,0.5,1.,0.5,
1.,0.5,1.)) REPRESENTATION_ITEM('') );
#1145 = CARTESIAN_POINT('',(0.,-8.36));
#1146 = CARTESIAN_POINT('',(-4.416729559301,-8.36));
#1147 = CARTESIAN_POINT('',(-2.20836477965,-4.535));
#1148 = CARTESIAN_POINT('',(-6.245698675651E-16,-0.71));
#1149 = CARTESIAN_POINT('',(2.20836477965,-4.535));
#1150 = CARTESIAN_POINT('',(4.416729559301,-8.36));
#1151 = CARTESIAN_POINT('',(0.,-8.36));
#1152 = ( GEOMETRIC_REPRESENTATION_CONTEXT(2) 
PARAMETRIC_REPRESENTATION_CONTEXT() REPRESENTATION_CONTEXT('2D SPACE',''
  ) );
#1153 = PCURVE('',#1021,#1154);
#1154 = DEFINITIONAL_REPRESENTATION('',(#1155),#1159);
#1155 = LINE('',#1156,#1157);
#1156 = CARTESIAN_POINT('',(-6.28318530718,-24.4));
#1157 = VECTOR('',#1158,1.);
#1158 = DIRECTION('',(1.,-0.));
#1159 = ( GEOMETRIC_REPRESENTATION_CONTEXT(2) 
PARAMETRIC_REPRESENTATION_CONTEXT() REPRESENTATION_CONTEXT('2D SPACE',''
  ) );
#1160 = ADVANCED_FACE('',(#1161),#291,.T.);
#1161 = FACE_BOUND('',#1162,.T.);
#1162 = EDGE_LOOP('',(#1163,#1164,#1165,#1166));
#1163 = ORIENTED_EDGE('',*,*,#821,.F.);
#1164 = ORIENTED_EDGE('',*,*,#1086,.F.);
#1165 = ORIENTED_EDGE('',*,*,#275,.F.);
#1166 = ORIENTED_EDGE('',*,*,#921,.F.);
#1167 = ADVANCED_FACE('',(#1168),#509,.F.);
#1168 = FACE_BOUND('',#1169,.T.);
#1169 = EDGE_LOOP('',(#1170,#1199,#1220,#1221));
#1170 = ORIENTED_EDGE('',*,*,#1171,.F.);
#1171 = EDGE_CURVE('',#1172,#1172,#1174,.T.);
#1172 = VERTEX_POINT('',#1173);
#1173 = CARTESIAN_POINT('',(8.460028630685,3.1000001,35.2500001));
#1174 = SURFACE_CURVE('',#1175,(#1180,#1187),.PCURVE_S1.);
#1175 = CIRCLE('',#1176,1.25);
#1176 = AXIS2_PLACEMENT_3D('',#1177,#1178,#1179);
#1177 = CARTESIAN_POINT('',(8.460028630685,3.1000001,34.0000001));
#1178 = DIRECTION('',(-1.,0.,1.110223024625E-16));
#1179 = DIRECTION('',(1.110223024625E-16,0.,1.));
#1180 = PCURVE('',#509,#1181);
#1181 = DEFINITIONAL_REPRESENTATION('',(#1182),#1186);
#1182 = LINE('',#1183,#1184);
#1183 = CARTESIAN_POINT('',(-0.,0.));
#1184 = VECTOR('',#1185,1.);
#1185 = DIRECTION('',(-1.,0.));
#1186 = ( GEOMETRIC_REPRESENTATION_CONTEXT(2) 
PARAMETRIC_REPRESENTATION_CONTEXT() REPRESENTATION_CONTEXT('2D SPACE',''
  ) );
#1187 = PCURVE('',#1188,#1193);
#1188 = PLANE('',#1189);
#1189 = AXIS2_PLACEMENT_3D('',#1190,#1191,#1192);
#1190 = CARTESIAN_POINT('',(8.460028630685,3.1000001,34.0000001));
#1191 = DIRECTION('',(-1.,0.,1.110223024625E-16));
#1192 = DIRECTION('',(1.110223024625E-16,0.,1.));
#1193 = DEFINITIONAL_REPRESENTATION('',(#1194),#1198);
#1194 = CIRCLE('',#1195,1.25);
#1195 = AXIS2_PLACEMENT_2D('',#1196,#1197);
#1196 = CARTESIAN_POINT('',(-1.42108547152E-14,0.));
#1197 = DIRECTION('',(1.,0.));
#1198 = ( GEOMETRIC_REPRESENTATION_CONTEXT(2) 
PARAMETRIC_REPRESENTATION_CONTEXT() REPRESENTATION_CONTEXT('2D SPACE',''
  ) );
#1199 = ORIENTED_EDGE('',*,*,#1200,.T.);
#1200 = EDGE_CURVE('',#1172,#398,#1201,.T.);
#1201 = SEAM_CURVE('',#1202,(#1206,#1213),.PCURVE_S1.);
#1202 = LINE('',#1203,#1204);
#1203 = CARTESIAN_POINT('',(8.460028630685,3.1000001,35.2500001));
#1204 = VECTOR('',#1205,1.);
#1205 = DIRECTION('',(-1.,0.,1.110223024625E-16));
#1206 = PCURVE('',#509,#1207);
#1207 = DEFINITIONAL_REPRESENTATION('',(#1208),#1212);
#1208 = LINE('',#1209,#1210);
#1209 = CARTESIAN_POINT('',(-6.28318530718,0.));
#1210 = VECTOR('',#1211,1.);
#1211 = DIRECTION('',(-0.,-1.));
#1212 = ( GEOMETRIC_REPRESENTATION_CONTEXT(2) 
PARAMETRIC_REPRESENTATION_CONTEXT() REPRESENTATION_CONTEXT('2D SPACE',''
  ) );
#1213 = PCURVE('',#509,#1214);
#1214 = DEFINITIONAL_REPRESENTATION('',(#1215),#1219);
#1215 = LINE('',#1216,#1217);
#1216 = CARTESIAN_POINT('',(-0.,0.));
#1217 = VECTOR('',#1218,1.);
#1218 = DIRECTION('',(-0.,-1.));
#1219 = ( GEOMETRIC_REPRESENTATION_CONTEXT(2) 
PARAMETRIC_REPRESENTATION_CONTEXT() REPRESENTATION_CONTEXT('2D SPACE',''
  ) );
#1220 = ORIENTED_EDGE('',*,*,#397,.T.);
#1221 = ORIENTED_EDGE('',*,*,#1200,.F.);
#1222 = ADVANCED_FACE('',(#1223),#683,.F.);
#1223 = FACE_BOUND('',#1224,.T.);
#1224 = EDGE_LOOP('',(#1225,#1254,#1275,#1276));
#1225 = ORIENTED_EDGE('',*,*,#1226,.F.);
#1226 = EDGE_CURVE('',#1227,#1227,#1229,.T.);
#1227 = VERTEX_POINT('',#1228);
#1228 = CARTESIAN_POINT('',(8.460028630685,3.1000001,7.2500001));
#1229 = SURFACE_CURVE('',#1230,(#1235,#1242),.PCURVE_S1.);
#1230 = CIRCLE('',#1231,1.25);
#1231 = AXIS2_PLACEMENT_3D('',#1232,#1233,#1234);
#1232 = CARTESIAN_POINT('',(8.460028630685,3.1000001,6.0000001));
#1233 = DIRECTION('',(-1.,0.,1.110223024625E-16));
#1234 = DIRECTION('',(1.110223024625E-16,0.,1.));
#1235 = PCURVE('',#683,#1236);
#1236 = DEFINITIONAL_REPRESENTATION('',(#1237),#1241);
#1237 = LINE('',#1238,#1239);
#1238 = CARTESIAN_POINT('',(-0.,0.));
#1239 = VECTOR('',#1240,1.);
#1240 = DIRECTION('',(-1.,0.));
#1241 = ( GEOMETRIC_REPRESENTATION_CONTEXT(2) 
PARAMETRIC_REPRESENTATION_CONTEXT() REPRESENTATION_CONTEXT('2D SPACE',''
  ) );
#1242 = PCURVE('',#1243,#1248);
#1243 = PLANE('',#1244);
#1244 = AXIS2_PLACEMENT_3D('',#1245,#1246,#1247);
#1245 = CARTESIAN_POINT('',(8.460028630685,3.1000001,6.0000001));
#1246 = DIRECTION('',(-1.,0.,1.110223024625E-16));
#1247 = DIRECTION('',(1.110223024625E-16,0.,1.));
#1248 = DEFINITIONAL_REPRESENTATION('',(#1249),#1253);
#1249 = CIRCLE('',#1250,1.25);
#1250 = AXIS2_PLACEMENT_2D('',#1251,#1252);
#1251 = CARTESIAN_POINT('',(0.,0.));
#1252 = DIRECTION('',(1.,0.));
#1253 = ( GEOMETRIC_REPRESENTATION_CONTEXT(2) 
PARAMETRIC_REPRESENTATION_CONTEXT() REPRESENTATION_CONTEXT('2D SPACE',''
  ) );
#1254 = ORIENTED_EDGE('',*,*,#1255,.T.);
#1255 = EDGE_CURVE('',#1227,#572,#1256,.T.);
#1256 = SEAM_CURVE('',#1257,(#1261,#1268),.PCURVE_S1.);
#1257 = LINE('',#1258,#1259);
#1258 = CARTESIAN_POINT('',(8.460028630685,3.1000001,7.2500001));
#1259 = VECTOR('',#1260,1.);
#1260 = DIRECTION('',(-1.,0.,1.110223024625E-16));
#1261 = PCURVE('',#683,#1262);
#1262 = DEFINITIONAL_REPRESENTATION('',(#1263),#1267);
#1263 = LINE('',#1264,#1265);
#1264 = CARTESIAN_POINT('',(-6.28318530718,0.));
#1265 = VECTOR('',#1266,1.);
#1266 = DIRECTION('',(-0.,-1.));
#1267 = ( GEOMETRIC_REPRESENTATION_CONTEXT(2) 
PARAMETRIC_REPRESENTATION_CONTEXT() REPRESENTATION_CONTEXT('2D SPACE',''
  ) );
#1268 = PCURVE('',#683,#1269);
#1269 = DEFINITIONAL_REPRESENTATION('',(#1270),#1274);
#1270 = LINE('',#1271,#1272);
#1271 = CARTESIAN_POINT('',(-0.,0.));
#1272 = VECTOR('',#1273,1.);
#1273 = DIRECTION('',(-0.,-1.));
#1274 = ( GEOMETRIC_REPRESENTATION_CONTEXT(2) 
PARAMETRIC_REPRESENTATION_CONTEXT() REPRESENTATION_CONTEXT('2D SPACE',''
  ) );
#1275 = ORIENTED_EDGE('',*,*,#571,.T.);
#1276 = ORIENTED_EDGE('',*,*,#1255,.F.);
#1277 = ADVANCED_FACE('',(#1278),#883,.T.);
#1278 = FACE_BOUND('',#1279,.F.);
#1279 = EDGE_LOOP('',(#1280,#1281,#1282,#1283));
#1280 = ORIENTED_EDGE('',*,*,#1108,.T.);
#1281 = ORIENTED_EDGE('',*,*,#1059,.T.);
#1282 = ORIENTED_EDGE('',*,*,#949,.T.);
#1283 = ORIENTED_EDGE('',*,*,#867,.F.);
#1284 = ADVANCED_FACE('',(#1285),#1021,.F.);
#1285 = FACE_BOUND('',#1286,.T.);
#1286 = EDGE_LOOP('',(#1287,#1288,#1309,#1310));
#1287 = ORIENTED_EDGE('',*,*,#1000,.T.);
#1288 = ORIENTED_EDGE('',*,*,#1289,.T.);
#1289 = EDGE_CURVE('',#1001,#1134,#1290,.T.);
#1290 = SEAM_CURVE('',#1291,(#1295,#1302),.PCURVE_S1.);
#1291 = LINE('',#1292,#1293);
#1292 = CARTESIAN_POINT('',(9.960028630685,16.5500001,7.3000001));
#1293 = VECTOR('',#1294,1.);
#1294 = DIRECTION('',(1.110223024625E-16,0.,1.));
#1295 = PCURVE('',#1021,#1296);
#1296 = DEFINITIONAL_REPRESENTATION('',(#1297),#1301);
#1297 = LINE('',#1298,#1299);
#1298 = CARTESIAN_POINT('',(-6.28318530718,0.));
#1299 = VECTOR('',#1300,1.);
#1300 = DIRECTION('',(-0.,-1.));
#1301 = ( GEOMETRIC_REPRESENTATION_CONTEXT(2) 
PARAMETRIC_REPRESENTATION_CONTEXT() REPRESENTATION_CONTEXT('2D SPACE',''
  ) );
#1302 = PCURVE('',#1021,#1303);
#1303 = DEFINITIONAL_REPRESENTATION('',(#1304),#1308);
#1304 = LINE('',#1305,#1306);
#1305 = CARTESIAN_POINT('',(-0.,0.));
#1306 = VECTOR('',#1307,1.);
#1307 = DIRECTION('',(-0.,-1.));
#1308 = ( GEOMETRIC_REPRESENTATION_CONTEXT(2) 
PARAMETRIC_REPRESENTATION_CONTEXT() REPRESENTATION_CONTEXT('2D SPACE',''
  ) );
#1309 = ORIENTED_EDGE('',*,*,#1133,.F.);
#1310 = ORIENTED_EDGE('',*,*,#1289,.F.);
#1311 = ADVANCED_FACE('',(#1312),#1188,.T.);
#1312 = FACE_BOUND('',#1313,.T.);
#1313 = EDGE_LOOP('',(#1314));
#1314 = ORIENTED_EDGE('',*,*,#1171,.T.);
#1315 = ADVANCED_FACE('',(#1316),#1243,.T.);
#1316 = FACE_BOUND('',#1317,.T.);
#1317 = EDGE_LOOP('',(#1318));
#1318 = ORIENTED_EDGE('',*,*,#1226,.T.);
#1319 = ( GEOMETRIC_REPRESENTATION_CONTEXT(3) 
GLOBAL_UNCERTAINTY_ASSIGNED_CONTEXT((#1323)) 
GLOBAL_UNIT_ASSIGNED_CONTEXT((#1320,#1321,#1322)) REPRESENTATION_CONTEXT
('Context #1','3D Context with UNIT and UNCERTAINTY') );
#1320 = ( LENGTH_UNIT() NAMED_UNIT(*) SI_UNIT(.MILLI.,.METRE.) );
#1321 = ( NAMED_UNIT(*) PLANE_ANGLE_UNIT() SI_UNIT($,.RADIAN.) );
#1322 = ( NAMED_UNIT(*) SI_UNIT($,.STERADIAN.) SOLID_ANGLE_UNIT() );
#1323 = UNCERTAINTY_MEASURE_WITH_UNIT(LENGTH_MEASURE(1.E-07),#1320,
  'distance_accuracy_value','confusion accuracy');
#1324 = PRODUCT_RELATED_PRODUCT_CATEGORY('part',$,(#7));
ENDSEC;
END-ISO-10303-21;
