ISO-10303-21;
HEADER;
FILE_DESCRIPTION(('Open CASCADE Model'),'2;1');
FILE_NAME('Open CASCADE Shape Model','2026-10-01T13:56:46',('Author'),(
    'Open CASCADE'),'Open CASCADE STEP processor 7.8','Open CASCADE 7.8'
  ,'Unknown');
FILE_SCHEMA(('AUTOMOTIVE_DESIGN { 1 0 10303 214 1 1 1 1 }'));
ENDSEC;
DATA;
#1 = APPLICATION_PROTOCOL_DEFINITION('international standard',
  'automotive_design',2000,#2);
#2 = APPLICATION_CONTEXT(
  'core data for automotive mechanical design processes');
#3 = SHAPE_DEFINITION_REPRESENTATION(#4,#10);
#4 = PRODUCT_DEFINITION_SHAPE('','',#5);
#5 = PRODUCT_DEFINITION('design','',#6,#9);
#6 = PRODUCT_DEFINITION_FORMATION('','',#7);
#7 = PRODUCT('Open CASCADE STEP translator 7.8 8',
  'Open CASCADE STEP translator 7.8 8','',(#8));
#8 = PRODUCT_CONTEXT('',#2,'mechanical');
#9 = PRODUCT_DEFINITION_CONTEXT('part definition',#2,'design');
#10 = ADVANCED_BREP_SHAPE_REPRESENTATION('',(#11,#15),#732);
#11 = AXIS2_PLACEMENT_3D('',#12,#13,#14);
#12 = CARTESIAN_POINT('',(0.,0.,0.));
#13 = DIRECTION('',(0.,0.,1.));
#14 = DIRECTION('',(1.,0.,-0.));
#15 = MANIFOLD_SOLID_BREP('',#16);
#16 = CLOSED_SHELL('',(#17,#102,#106,#161,#196,#251,#303,#701,#705));
#17 = ADVANCED_FACE('',(#18),#31,.T.);
#18 = FACE_BOUND('',#19,.T.);
#19 = EDGE_LOOP('',(#20,#54,#74,#101));
#20 = ORIENTED_EDGE('',*,*,#21,.T.);
#21 = EDGE_CURVE('',#22,#22,#24,.T.);
#22 = VERTEX_POINT('',#23);
#23 = CARTESIAN_POINT('',(7.0000001,5.000000124159,1.E-07));
#24 = SURFACE_CURVE('',#25,(#30,#42),.PCURVE_S1.);
#25 = CIRCLE('',#26,2.);
#26 = AXIS2_PLACEMENT_3D('',#27,#28,#29);
#27 = CARTESIAN_POINT('',(5.0000001,5.000000124159,1.E-07));
#28 = DIRECTION('',(0.,0.,1.));
#29 = DIRECTION('',(1.,0.,0.));
#30 = PCURVE('',#31,#36);
#31 = CONICAL_SURFACE('',#32,2.,0.785398163397);
#32 = AXIS2_PLACEMENT_3D('',#33,#34,#35);
#33 = CARTESIAN_POINT('',(5.0000001,5.000000124159,1.E-07));
#34 = DIRECTION('',(0.,0.,1.));
#35 = DIRECTION('',(1.,0.,0.));
#36 = DEFINITIONAL_REPRESENTATION('',(#37),#41);
#37 = LINE('',#38,#39);
#38 = CARTESIAN_POINT('',(0.,0.));
#39 = VECTOR('',#40,1.);
#40 = DIRECTION('',(1.,0.));
#41 = ( GEOMETRIC_REPRESENTATION_CONTEXT(2) 
PARAMETRIC_REPRESENTATION_CONTEXT() REPRESENTATION_CONTEXT('2D SPACE',''
  ) );
#42 = PCURVE('',#43,#48);
#43 = PLANE('',#44);
#44 = AXIS2_PLACEMENT_3D('',#45,#46,#47);
#45 = CARTESIAN_POINT('',(5.0000001,5.000000124159,1.E-07));
#46 = DIRECTION('',(0.,0.,1.));
#47 = DIRECTION('',(1.,0.,0.));
#48 = DEFINITIONAL_REPRESENTATION('',(#49),#53);
#49 = CIRCLE('',#50,2.);
#50 = AXIS2_PLACEMENT_2D('',#51,#52);
#51 = CARTESIAN_POINT('',(0.,0.));
#52 = DIRECTION('',(1.,0.));
#53 = ( GEOMETRIC_REPRESENTATION_CONTEXT(2) 
PARAMETRIC_REPRESENTATION_CONTEXT() REPRESENTATION_CONTEXT('2D SPACE',''
  ) );
#54 = ORIENTED_EDGE('',*,*,#55,.T.);
#55 = EDGE_CURVE('',#22,#56,#58,.T.);
#56 = VERTEX_POINT('',#57);
#57 = CARTESIAN_POINT('',(10.0000001,5.000000124159,3.0000001));
#58 = SEAM_CURVE('',#59,(#62,#68),.PCURVE_S1.);
#59 = B_SPLINE_CURVE_WITH_KNOTS('',1,(#60,#61),.UNSPECIFIED.,.F.,.F.,(2,
    2),(0.,1.),.PIECEWISE_BEZIER_KNOTS.);
#60 = CARTESIAN_POINT('',(7.0000001,5.000000124159,1.E-07));
#61 = CARTESIAN_POINT('',(10.0000001,5.000000124159,3.0000001));
#62 = PCURVE('',#31,#63);
#63 = DEFINITIONAL_REPRESENTATION('',(#64),#67);
#64 = B_SPLINE_CURVE_WITH_KNOTS('',1,(#65,#66),.UNSPECIFIED.,.F.,.F.,(2,
    2),(0.,1.),.PIECEWISE_BEZIER_KNOTS.);
#65 = CARTESIAN_POINT('',(6.28318530718,0.));
#66 = CARTESIAN_POINT('',(6.28318530718,3.));
#67 = ( GEOMETRIC_REPRESENTATION_CONTEXT(2) 
PARAMETRIC_REPRESENTATION_CONTEXT() REPRESENTATION_CONTEXT('2D SPACE',''
  ) );
#68 = PCURVE('',#31,#69);
#69 = DEFINITIONAL_REPRESENTATION('',(#70),#73);
#70 = B_SPLINE_CURVE_WITH_KNOTS('',1,(#71,#72),.UNSPECIFIED.,.F.,.F.,(2,
    2),(0.,1.),.PIECEWISE_BEZIER_KNOTS.);
#71 = CARTESIAN_POINT('',(0.,0.));
#72 = CARTESIAN_POINT('',(0.,3.));
#73 = ( GEOMETRIC_REPRESENTATION_CONTEXT(2) 
PARAMETRIC_REPRESENTATION_CONTEXT() REPRESENTATION_CONTEXT('2D SPACE',''
  ) );
#74 = ORIENTED_EDGE('',*,*,#75,.F.);
#75 = EDGE_CURVE('',#56,#56,#76,.T.);
#76 = SURFACE_CURVE('',#77,(#82,#89),.PCURVE_S1.);
#77 = CIRCLE('',#78,5.);
#78 = AXIS2_PLACEMENT_3D('',#79,#80,#81);
#79 = CARTESIAN_POINT('',(5.0000001,5.000000124159,3.0000001));
#80 = DIRECTION('',(0.,0.,1.));
#81 = DIRECTION('',(1.,0.,0.));
#82 = PCURVE('',#31,#83);
#83 = DEFINITIONAL_REPRESENTATION('',(#84),#88);
#84 = LINE('',#85,#86);
#85 = CARTESIAN_POINT('',(0.,3.));
#86 = VECTOR('',#87,1.);
#87 = DIRECTION('',(1.,0.));
#88 = ( GEOMETRIC_REPRESENTATION_CONTEXT(2) 
PARAMETRIC_REPRESENTATION_CONTEXT() REPRESENTATION_CONTEXT('2D SPACE',''
  ) );
#89 = PCURVE('',#90,#95);
#90 = CYLINDRICAL_SURFACE('',#91,5.);
#91 = AXIS2_PLACEMENT_3D('',#92,#93,#94);
#92 = CARTESIAN_POINT('',(5.0000001,5.000000124159,3.0000001));
#93 = DIRECTION('',(-0.,-0.,-1.));
#94 = DIRECTION('',(1.,0.,0.));
#95 = DEFINITIONAL_REPRESENTATION('',(#96),#100);
#96 = LINE('',#97,#98);
#97 = CARTESIAN_POINT('',(-0.,0.));
#98 = VECTOR('',#99,1.);
#99 = DIRECTION('',(-1.,0.));
#100 = ( GEOMETRIC_REPRESENTATION_CONTEXT(2) 
PARAMETRIC_REPRESENTATION_CONTEXT() REPRESENTATION_CONTEXT('2D SPACE',''
  ) );
#101 = ORIENTED_EDGE('',*,*,#55,.F.);
#102 = ADVANCED_FACE('',(#103),#43,.F.);
#103 = FACE_BOUND('',#104,.F.);
#104 = EDGE_LOOP('',(#105));
#105 = ORIENTED_EDGE('',*,*,#21,.T.);
#106 = ADVANCED_FACE('',(#107),#90,.T.);
#107 = FACE_BOUND('',#108,.F.);
#108 = EDGE_LOOP('',(#109,#132,#159,#160));
#109 = ORIENTED_EDGE('',*,*,#110,.T.);
#110 = EDGE_CURVE('',#56,#111,#113,.T.);
#111 = VERTEX_POINT('',#112);
#112 = CARTESIAN_POINT('',(10.0000001,5.000000124159,6.0000001));
#113 = SEAM_CURVE('',#114,(#118,#125),.PCURVE_S1.);
#114 = LINE('',#115,#116);
#115 = CARTESIAN_POINT('',(10.0000001,5.000000124159,3.0000001));
#116 = VECTOR('',#117,1.);
#117 = DIRECTION('',(0.,0.,1.));
#118 = PCURVE('',#90,#119);
#119 = DEFINITIONAL_REPRESENTATION('',(#120),#124);
#120 = LINE('',#121,#122);
#121 = CARTESIAN_POINT('',(-0.,0.));
#122 = VECTOR('',#123,1.);
#123 = DIRECTION('',(-0.,-1.));
#124 = ( GEOMETRIC_REPRESENTATION_CONTEXT(2) 
PARAMETRIC_REPRESENTATION_CONTEXT() REPRESENTATION_CONTEXT('2D SPACE',''
  ) );
#125 = PCURVE('',#90,#126);
#126 = DEFINITIONAL_REPRESENTATION('',(#127),#131);
#127 = LINE('',#128,#129);
#128 = CARTESIAN_POINT('',(-6.28318530718,0.));
#129 = VECTOR('',#130,1.);
#130 = DIRECTION('',(-0.,-1.));
#131 = ( GEOMETRIC_REPRESENTATION_CONTEXT(2) 
PARAMETRIC_REPRESENTATION_CONTEXT() REPRESENTATION_CONTEXT('2D SPACE',''
  ) );
#132 = ORIENTED_EDGE('',*,*,#133,.T.);
#133 = EDGE_CURVE('',#111,#111,#134,.T.);
#134 = SURFACE_CURVE('',#135,(#140,#147),.PCURVE_S1.);
#135 = CIRCLE('',#136,5.);
#136 = AXIS2_PLACEMENT_3D('',#137,#138,#139);
#137 = CARTESIAN_POINT('',(5.0000001,5.000000124159,6.0000001));
#138 = DIRECTION('',(0.,0.,1.));
#139 = DIRECTION('',(1.,0.,0.));
#140 = PCURVE('',#90,#141);
#141 = DEFINITIONAL_REPRESENTATION('',(#142),#146);
#142 = LINE('',#143,#144);
#143 = CARTESIAN_POINT('',(-0.,-3.));
#144 = VECTOR('',#145,1.);
#145 = DIRECTION('',(-1.,0.));
#146 = ( GEOMETRIC_REPRESENTATION_CONTEXT(2) 
PARAMETRIC_REPRESENTATION_CONTEXT() REPRESENTATION_CONTEXT('2D SPACE',''
  ) );
#147 = PCURVE('',#148,#153);
#148 = PLANE('',#149);
#149 = AXIS2_PLACEMENT_3D('',#150,#151,#152);
#150 = CARTESIAN_POINT('',(5.0000001,5.000000124159,6.0000001));
#151 = DIRECTION('',(0.,0.,1.));
#152 = DIRECTION('',(1.,0.,0.));
#153 = DEFINITIONAL_REPRESENTATION('',(#154),#158);
#154 = CIRCLE('',#155,5.);
#155 = AXIS2_PLACEMENT_2D('',#156,#157);
#156 = CARTESIAN_POINT('',(0.,0.));
#157 = DIRECTION('',(1.,0.));
#158 = ( GEOMETRIC_REPRESENTATION_CONTEXT(2) 
PARAMETRIC_REPRESENTATION_CONTEXT() REPRESENTATION_CONTEXT('2D SPACE',''
  ) );
#159 = ORIENTED_EDGE('',*,*,#110,.F.);
#160 = ORIENTED_EDGE('',*,*,#75,.F.);
#161 = ADVANCED_FACE('',(#162,#165),#148,.T.);
#162 = FACE_BOUND('',#163,.T.);
#163 = EDGE_LOOP('',(#164));
#164 = ORIENTED_EDGE('',*,*,#133,.T.);
#165 = FACE_BOUND('',#166,.T.);
#166 = EDGE_LOOP('',(#167));
#167 = ORIENTED_EDGE('',*,*,#168,.F.);
#168 = EDGE_CURVE('',#169,#169,#171,.T.);
#169 = VERTEX_POINT('',#170);
#170 = CARTESIAN_POINT('',(8.4000001,5.000000124159,6.0000001));
#171 = SURFACE_CURVE('',#172,(#177,#184),.PCURVE_S1.);
#172 = CIRCLE('',#173,3.4);
#173 = AXIS2_PLACEMENT_3D('',#174,#175,#176);
#174 = CARTESIAN_POINT('',(5.0000001,5.000000124159,6.0000001));
#175 = DIRECTION('',(0.,0.,1.));
#176 = DIRECTION('',(1.,0.,0.));
#177 = PCURVE('',#148,#178);
#178 = DEFINITIONAL_REPRESENTATION('',(#179),#183);
#179 = CIRCLE('',#180,3.4);
#180 = AXIS2_PLACEMENT_2D('',#181,#182);
#181 = CARTESIAN_POINT('',(0.,0.));
#182 = DIRECTION('',(1.,0.));
#183 = ( GEOMETRIC_REPRESENTATION_CONTEXT(2) 
PARAMETRIC_REPRESENTATION_CONTEXT() REPRESENTATION_CONTEXT('2D SPACE',''
  ) );
#184 = PCURVE('',#185,#190);
#185 = CYLINDRICAL_SURFACE('',#186,3.4);
#186 = AXIS2_PLACEMENT_3D('',#187,#188,#189);
#187 = CARTESIAN_POINT('',(5.0000001,5.000000124159,6.0000001));
#188 = DIRECTION('',(-0.,-0.,-1.));
#189 = DIRECTION('',(1.,0.,0.));
#190 = DEFINITIONAL_REPRESENTATION('',(#191),#195);
#191 = LINE('',#192,#193);
#192 = CARTESIAN_POINT('',(-0.,0.));
#193 = VECTOR('',#194,1.);
#194 = DIRECTION('',(-1.,0.));
#195 = ( GEOMETRIC_REPRESENTATION_CONTEXT(2) 
PARAMETRIC_REPRESENTATION_CONTEXT() REPRESENTATION_CONTEXT('2D SPACE',''
  ) );
#196 = ADVANCED_FACE('',(#197),#185,.T.);
#197 = FACE_BOUND('',#198,.F.);
#198 = EDGE_LOOP('',(#199,#222,#249,#250));
#199 = ORIENTED_EDGE('',*,*,#200,.T.);
#200 = EDGE_CURVE('',#169,#201,#203,.T.);
#201 = VERTEX_POINT('',#202);
#202 = CARTESIAN_POINT('',(8.4000001,5.000000124159,14.5000001));
#203 = SEAM_CURVE('',#204,(#208,#215),.PCURVE_S1.);
#204 = LINE('',#205,#206);
#205 = CARTESIAN_POINT('',(8.4000001,5.000000124159,6.0000001));
#206 = VECTOR('',#207,1.);
#207 = DIRECTION('',(0.,0.,1.));
#208 = PCURVE('',#185,#209);
#209 = DEFINITIONAL_REPRESENTATION('',(#210),#214);
#210 = LINE('',#211,#212);
#211 = CARTESIAN_POINT('',(-0.,0.));
#212 = VECTOR('',#213,1.);
#213 = DIRECTION('',(-0.,-1.));
#214 = ( GEOMETRIC_REPRESENTATION_CONTEXT(2) 
PARAMETRIC_REPRESENTATION_CONTEXT() REPRESENTATION_CONTEXT('2D SPACE',''
  ) );
#215 = PCURVE('',#185,#216);
#216 = DEFINITIONAL_REPRESENTATION('',(#217),#221);
#217 = LINE('',#218,#219);
#218 = CARTESIAN_POINT('',(-6.28318530718,0.));
#219 = VECTOR('',#220,1.);
#220 = DIRECTION('',(-0.,-1.));
#221 = ( GEOMETRIC_REPRESENTATION_CONTEXT(2) 
PARAMETRIC_REPRESENTATION_CONTEXT() REPRESENTATION_CONTEXT('2D SPACE',''
  ) );
#222 = ORIENTED_EDGE('',*,*,#223,.T.);
#223 = EDGE_CURVE('',#201,#201,#224,.T.);
#224 = SURFACE_CURVE('',#225,(#230,#237),.PCURVE_S1.);
#225 = CIRCLE('',#226,3.4);
#226 = AXIS2_PLACEMENT_3D('',#227,#228,#229);
#227 = CARTESIAN_POINT('',(5.0000001,5.000000124159,14.5000001));
#228 = DIRECTION('',(0.,0.,1.));
#229 = DIRECTION('',(1.,0.,0.));
#230 = PCURVE('',#185,#231);
#231 = DEFINITIONAL_REPRESENTATION('',(#232),#236);
#232 = LINE('',#233,#234);
#233 = CARTESIAN_POINT('',(-0.,-8.5));
#234 = VECTOR('',#235,1.);
#235 = DIRECTION('',(-1.,0.));
#236 = ( GEOMETRIC_REPRESENTATION_CONTEXT(2) 
PARAMETRIC_REPRESENTATION_CONTEXT() REPRESENTATION_CONTEXT('2D SPACE',''
  ) );
#237 = PCURVE('',#238,#243);
#238 = CONICAL_SURFACE('',#239,3.4,0.785398163397);
#239 = AXIS2_PLACEMENT_3D('',#240,#241,#242);
#240 = CARTESIAN_POINT('',(5.0000001,5.000000124159,14.5000001));
#241 = DIRECTION('',(0.,0.,1.));
#242 = DIRECTION('',(1.,0.,0.));
#243 = DEFINITIONAL_REPRESENTATION('',(#244),#248);
#244 = LINE('',#245,#246);
#245 = CARTESIAN_POINT('',(0.,0.));
#246 = VECTOR('',#247,1.);
#247 = DIRECTION('',(1.,0.));
#248 = ( GEOMETRIC_REPRESENTATION_CONTEXT(2) 
PARAMETRIC_REPRESENTATION_CONTEXT() REPRESENTATION_CONTEXT('2D SPACE',''
  ) );
#249 = ORIENTED_EDGE('',*,*,#200,.F.);
#250 = ORIENTED_EDGE('',*,*,#168,.F.);
#251 = ADVANCED_FACE('',(#252),#238,.T.);
#252 = FACE_BOUND('',#253,.T.);
#253 = EDGE_LOOP('',(#254,#255,#275,#302));
#254 = ORIENTED_EDGE('',*,*,#223,.T.);
#255 = ORIENTED_EDGE('',*,*,#256,.T.);
#256 = EDGE_CURVE('',#201,#257,#259,.T.);
#257 = VERTEX_POINT('',#258);
#258 = CARTESIAN_POINT('',(10.0000001,5.000000124159,16.1000001));
#259 = SEAM_CURVE('',#260,(#263,#269),.PCURVE_S1.);
#260 = B_SPLINE_CURVE_WITH_KNOTS('',1,(#261,#262),.UNSPECIFIED.,.F.,.F.,
  (2,2),(0.,1.),.PIECEWISE_BEZIER_KNOTS.);
#261 = CARTESIAN_POINT('',(8.4000001,5.000000124159,14.5000001));
#262 = CARTESIAN_POINT('',(10.0000001,5.000000124159,16.1000001));
#263 = PCURVE('',#238,#264);
#264 = DEFINITIONAL_REPRESENTATION('',(#265),#268);
#265 = B_SPLINE_CURVE_WITH_KNOTS('',1,(#266,#267),.UNSPECIFIED.,.F.,.F.,
  (2,2),(0.,1.),.PIECEWISE_BEZIER_KNOTS.);
#266 = CARTESIAN_POINT('',(6.28318530718,0.));
#267 = CARTESIAN_POINT('',(6.28318530718,1.6));
#268 = ( GEOMETRIC_REPRESENTATION_CONTEXT(2) 
PARAMETRIC_REPRESENTATION_CONTEXT() REPRESENTATION_CONTEXT('2D SPACE',''
  ) );
#269 = PCURVE('',#238,#270);
#270 = DEFINITIONAL_REPRESENTATION('',(#271),#274);
#271 = B_SPLINE_CURVE_WITH_KNOTS('',1,(#272,#273),.UNSPECIFIED.,.F.,.F.,
  (2,2),(0.,1.),.PIECEWISE_BEZIER_KNOTS.);
#272 = CARTESIAN_POINT('',(0.,0.));
#273 = CARTESIAN_POINT('',(0.,1.6));
#274 = ( GEOMETRIC_REPRESENTATION_CONTEXT(2) 
PARAMETRIC_REPRESENTATION_CONTEXT() REPRESENTATION_CONTEXT('2D SPACE',''
  ) );
#275 = ORIENTED_EDGE('',*,*,#276,.F.);
#276 = EDGE_CURVE('',#257,#257,#277,.T.);
#277 = SURFACE_CURVE('',#278,(#283,#290),.PCURVE_S1.);
#278 = CIRCLE('',#279,5.);
#279 = AXIS2_PLACEMENT_3D('',#280,#281,#282);
#280 = CARTESIAN_POINT('',(5.0000001,5.000000124159,16.1000001));
#281 = DIRECTION('',(0.,0.,1.));
#282 = DIRECTION('',(1.,0.,0.));
#283 = PCURVE('',#238,#284);
#284 = DEFINITIONAL_REPRESENTATION('',(#285),#289);
#285 = LINE('',#286,#287);
#286 = CARTESIAN_POINT('',(0.,1.6));
#287 = VECTOR('',#288,1.);
#288 = DIRECTION('',(1.,0.));
#289 = ( GEOMETRIC_REPRESENTATION_CONTEXT(2) 
PARAMETRIC_REPRESENTATION_CONTEXT() REPRESENTATION_CONTEXT('2D SPACE',''
  ) );
#290 = PCURVE('',#291,#296);
#291 = CYLINDRICAL_SURFACE('',#292,5.);
#292 = AXIS2_PLACEMENT_3D('',#293,#294,#295);
#293 = CARTESIAN_POINT('',(5.0000001,5.000000124159,16.1000001));
#294 = DIRECTION('',(-0.,-0.,-1.));
#295 = DIRECTION('',(1.,0.,0.));
#296 = DEFINITIONAL_REPRESENTATION('',(#297),#301);
#297 = LINE('',#298,#299);
#298 = CARTESIAN_POINT('',(-0.,0.));
#299 = VECTOR('',#300,1.);
#300 = DIRECTION('',(-1.,0.));
#301 = ( GEOMETRIC_REPRESENTATION_CONTEXT(2) 
PARAMETRIC_REPRESENTATION_CONTEXT() REPRESENTATION_CONTEXT('2D SPACE',''
  ) );
#302 = ORIENTED_EDGE('',*,*,#256,.F.);
#303 = ADVANCED_FACE('',(#304,#358,#532),#291,.T.);
#304 = FACE_BOUND('',#305,.F.);
#305 = EDGE_LOOP('',(#306,#307,#330,#357));
#306 = ORIENTED_EDGE('',*,*,#276,.F.);
#307 = ORIENTED_EDGE('',*,*,#308,.T.);
#308 = EDGE_CURVE('',#257,#309,#311,.T.);
#309 = VERTEX_POINT('',#310);
#310 = CARTESIAN_POINT('',(10.0000001,5.000000124159,35.6000001));
#311 = SEAM_CURVE('',#312,(#316,#323),.PCURVE_S1.);
#312 = LINE('',#313,#314);
#313 = CARTESIAN_POINT('',(10.0000001,5.000000124159,16.1000001));
#314 = VECTOR('',#315,1.);
#315 = DIRECTION('',(0.,0.,1.));
#316 = PCURVE('',#291,#317);
#317 = DEFINITIONAL_REPRESENTATION('',(#318),#322);
#318 = LINE('',#319,#320);
#319 = CARTESIAN_POINT('',(-6.28318530718,0.));
#320 = VECTOR('',#321,1.);
#321 = DIRECTION('',(-0.,-1.));
#322 = ( GEOMETRIC_REPRESENTATION_CONTEXT(2) 
PARAMETRIC_REPRESENTATION_CONTEXT() REPRESENTATION_CONTEXT('2D SPACE',''
  ) );
#323 = PCURVE('',#291,#324);
#324 = DEFINITIONAL_REPRESENTATION('',(#325),#329);
#325 = LINE('',#326,#327);
#326 = CARTESIAN_POINT('',(-0.,0.));
#327 = VECTOR('',#328,1.);
#328 = DIRECTION('',(-0.,-1.));
#329 = ( GEOMETRIC_REPRESENTATION_CONTEXT(2) 
PARAMETRIC_REPRESENTATION_CONTEXT() REPRESENTATION_CONTEXT('2D SPACE',''
  ) );
#330 = ORIENTED_EDGE('',*,*,#331,.T.);
#331 = EDGE_CURVE('',#309,#309,#332,.T.);
#332 = SURFACE_CURVE('',#333,(#338,#345),.PCURVE_S1.);
#333 = CIRCLE('',#334,5.);
#334 = AXIS2_PLACEMENT_3D('',#335,#336,#337);
#335 = CARTESIAN_POINT('',(5.0000001,5.000000124159,35.6000001));
#336 = DIRECTION('',(0.,0.,1.));
#337 = DIRECTION('',(1.,0.,0.));
#338 = PCURVE('',#291,#339);
#339 = DEFINITIONAL_REPRESENTATION('',(#340),#344);
#340 = LINE('',#341,#342);
#341 = CARTESIAN_POINT('',(-0.,-19.5));
#342 = VECTOR('',#343,1.);
#343 = DIRECTION('',(-1.,0.));
#344 = ( GEOMETRIC_REPRESENTATION_CONTEXT(2) 
PARAMETRIC_REPRESENTATION_CONTEXT() REPRESENTATION_CONTEXT('2D SPACE',''
  ) );
#345 = PCURVE('',#346,#351);
#346 = PLANE('',#347);
#347 = AXIS2_PLACEMENT_3D('',#348,#349,#350);
#348 = CARTESIAN_POINT('',(5.0000001,5.000000124159,35.6000001));
#349 = DIRECTION('',(0.,0.,1.));
#350 = DIRECTION('',(1.,0.,0.));
#351 = DEFINITIONAL_REPRESENTATION('',(#352),#356);
#352 = CIRCLE('',#353,5.);
#353 = AXIS2_PLACEMENT_2D('',#354,#355);
#354 = CARTESIAN_POINT('',(0.,0.));
#355 = DIRECTION('',(1.,0.));
#356 = ( GEOMETRIC_REPRESENTATION_CONTEXT(2) 
PARAMETRIC_REPRESENTATION_CONTEXT() REPRESENTATION_CONTEXT('2D SPACE',''
  ) );
#357 = ORIENTED_EDGE('',*,*,#308,.F.);
#358 = FACE_BOUND('',#359,.F.);
#359 = EDGE_LOOP('',(#360));
#360 = ORIENTED_EDGE('',*,*,#361,.F.);
#361 = EDGE_CURVE('',#362,#362,#364,.T.);
#362 = VERTEX_POINT('',#363);
#363 = CARTESIAN_POINT('',(6.5000001,9.769696131244,28.6000001));
#364 = SURFACE_CURVE('',#365,(#417,#472),.PCURVE_S1.);
#365 = B_SPLINE_CURVE_WITH_KNOTS('',8,(#366,#367,#368,#369,#370,#371,
    #372,#373,#374,#375,#376,#377,#378,#379,#380,#381,#382,#383,#384,
    #385,#386,#387,#388,#389,#390,#391,#392,#393,#394,#395,#396,#397,
    #398,#399,#400,#401,#402,#403,#404,#405,#406,#407,#408,#409,#410,
    #411,#412,#413,#414,#415,#416),.UNSPECIFIED.,.T.,.F.,(9,7,7,7,7,7,7,
    9),(0.,0.152411952524,0.287411292865,0.42455359206,0.57693039177,
    0.705407431154,0.829491573849,1.),.UNSPECIFIED.);
#366 = CARTESIAN_POINT('',(6.5000001,9.769696131244,28.6000001));
#367 = CARTESIAN_POINT('',(6.5000001,9.769696131244,28.758601955116));
#368 = CARTESIAN_POINT('',(6.480835207979,9.775723150506,28.916937478222
    ));
#369 = CARTESIAN_POINT('',(6.442615184126,9.787743007602,29.073404614999
    ));
#370 = CARTESIAN_POINT('',(6.385172853893,9.805333685491,29.226301131592
    ));
#371 = CARTESIAN_POINT('',(6.308172181429,9.827666965372,29.373673660256
    ));
#372 = CARTESIAN_POINT('',(6.211196174823,9.853451708129,29.513166502531
    ));
#373 = CARTESIAN_POINT('',(6.09387767556,9.880893968667,29.641820210188)
  );
#374 = CARTESIAN_POINT('',(5.834131060698,9.931498450932,29.856701297724
    ));
#375 = CARTESIAN_POINT('',(5.691826442863,9.95562444928,29.949634375907)
  );
#376 = CARTESIAN_POINT('',(5.531487510709,9.977642441377,30.026911696772
    ));
#377 = CARTESIAN_POINT('',(5.357072383583,9.994714162911,30.08301083259)
  );
#378 = CARTESIAN_POINT('',(5.173715232068,10.004473207466,
    30.114384276897));
#379 = CARTESIAN_POINT('',(4.987103547236,10.005862043909,
    30.119342181577));
#380 = CARTESIAN_POINT('',(4.803058846863,9.999239732239,30.098087987764
    ));
#381 = CARTESIAN_POINT('',(4.44807640916,9.972681552321,30.006943989065)
  );
#382 = CARTESIAN_POINT('',(4.282917406528,9.952948584661,29.937706777591
    ));
#383 = CARTESIAN_POINT('',(4.133421146329,9.928916013537,29.849470012634
    ));
#384 = CARTESIAN_POINT('',(4.000670521254,9.902780830197,29.745915575814
    ));
#385 = CARTESIAN_POINT('',(3.885212025757,9.876567463161,29.630291398825
    ));
#386 = CARTESIAN_POINT('',(3.787212395993,9.85196370182,29.505508737477)
  );
#387 = CARTESIAN_POINT('',(3.706528354849,9.830250715665,29.374184706713
    ));
#388 = CARTESIAN_POINT('',(3.571906904462,9.792282382438,29.088099562214
    ));
#389 = CARTESIAN_POINT('',(3.520680621582,9.776547745763,28.92968582524)
  );
#390 = CARTESIAN_POINT('',(3.489727712823,9.766469536364,28.766118544462
    ));
#391 = CARTESIAN_POINT('',(3.479376863662,9.76299859195,28.600000100001)
  );
#392 = CARTESIAN_POINT('',(3.489727712823,9.766469536364,28.433881655538
    ));
#393 = CARTESIAN_POINT('',(3.520680621583,9.776547745763,28.270314374759
    ));
#394 = CARTESIAN_POINT('',(3.571906904462,9.792282382438,28.111900637786
    ));
#395 = CARTESIAN_POINT('',(3.702499156609,9.829114329592,27.834377975398
    ));
#396 = CARTESIAN_POINT('',(3.776967078955,9.849201909865,27.711351977443
    ));
#397 = CARTESIAN_POINT('',(3.866455400182,9.871835192272,27.594022206032
    ));
#398 = CARTESIAN_POINT('',(3.971125208788,9.896007292183,27.484392561832
    ));
#399 = CARTESIAN_POINT('',(4.090951111558,9.92040944225,27.384732796629)
  );
#400 = CARTESIAN_POINT('',(4.225654455831,9.943459834817,27.297620218225
    ));
#401 = CARTESIAN_POINT('',(4.374580476075,9.96339485047,27.226017917866)
  );
#402 = CARTESIAN_POINT('',(4.692833244329,9.993026108396,27.12261132508)
  );
#403 = CARTESIAN_POINT('',(4.859259278326,10.002859680973,
    27.090189634912));
#404 = CARTESIAN_POINT('',(5.031315465178,10.006350889168,
    27.079386672559));
#405 = CARTESIAN_POINT('',(5.203961479787,10.002591632471,
    27.091511563292));
#406 = CARTESIAN_POINT('',(5.372009042784,9.991851635963,27.126105436973
    ));
#407 = CARTESIAN_POINT('',(5.530563736585,9.975556144089,27.180972383316
    ));
#408 = CARTESIAN_POINT('',(5.675465562874,9.955869096753,27.252102592959
    ));
#409 = CARTESIAN_POINT('',(5.980007152868,9.906269615844,27.445370562874
    ));
#410 = CARTESIAN_POINT('',(6.130599062645,9.874356605217,27.580267489017
    ));
#411 = CARTESIAN_POINT('',(6.254973855937,9.842924174124,27.731701715421
    ));
#412 = CARTESIAN_POINT('',(6.35350420484,9.814994776624,27.894847810094)
  );
#413 = CARTESIAN_POINT('',(6.426826168456,9.792708994059,28.065958906354
    ));
#414 = CARTESIAN_POINT('',(6.475537532272,9.777388944773,28.242076694909
    ));
#415 = CARTESIAN_POINT('',(6.5000001,9.769696131244,28.420816605738));
#416 = CARTESIAN_POINT('',(6.5000001,9.769696131244,28.6000001));
#417 = PCURVE('',#291,#418);
#418 = DEFINITIONAL_REPRESENTATION('',(#419),#471);
#419 = B_SPLINE_CURVE_WITH_KNOTS('',8,(#420,#421,#422,#423,#424,#425,
    #426,#427,#428,#429,#430,#431,#432,#433,#434,#435,#436,#437,#438,
    #439,#440,#441,#442,#443,#444,#445,#446,#447,#448,#449,#450,#451,
    #452,#453,#454,#455,#456,#457,#458,#459,#460,#461,#462,#463,#464,
    #465,#466,#467,#468,#469,#470),.UNSPECIFIED.,.T.,.F.,(9,7,7,7,7,7,7,
    9),(0.,0.152411952524,0.287411292865,0.42455359206,0.57693039177,
    0.705407431154,0.829491573849,1.),.UNSPECIFIED.);
#420 = CARTESIAN_POINT('',(-1.266103672779,-12.5));
#421 = CARTESIAN_POINT('',(-1.266103672779,-12.65860185511));
#422 = CARTESIAN_POINT('',(-1.270121737455,-12.81693737822));
#423 = CARTESIAN_POINT('',(-1.278134786639,-12.97340451499));
#424 = CARTESIAN_POINT('',(-1.290149608607,-13.12630103159));
#425 = CARTESIAN_POINT('',(-1.306180384138,-13.27367356025));
#426 = CARTESIAN_POINT('',(-1.326237585402,-13.41316640253));
#427 = CARTESIAN_POINT('',(-1.350317804011,-13.54182011018));
#428 = CARTESIAN_POINT('',(-1.40324383449,-13.75670119772));
#429 = CARTESIAN_POINT('',(-1.432102215528,-13.8496342759));
#430 = CARTESIAN_POINT('',(-1.464443883243,-13.92691159677));
#431 = CARTESIAN_POINT('',(-1.499437447187,-13.98301073259));
#432 = CARTESIAN_POINT('',(-1.536085440227,-14.01438417689));
#433 = CARTESIAN_POINT('',(-1.573350409129,-14.01934208157));
#434 = CARTESIAN_POINT('',(-1.610155535946,-13.99808788776));
#435 = CARTESIAN_POINT('',(-1.681350442505,-13.90694388906));
#436 = CARTESIAN_POINT('',(-1.714584588985,-13.83770667759));
#437 = CARTESIAN_POINT('',(-1.744829656931,-13.74946991263));
#438 = CARTESIAN_POINT('',(-1.771862961965,-13.64591547581));
#439 = CARTESIAN_POINT('',(-1.795529487627,-13.53029129882));
#440 = CARTESIAN_POINT('',(-1.81573257738,-13.40550863747));
#441 = CARTESIAN_POINT('',(-1.832442336145,-13.27418460671));
#442 = CARTESIAN_POINT('',(-1.860416988409,-12.98809946221));
#443 = CARTESIAN_POINT('',(-1.871131740378,-12.82968572524));
#444 = CARTESIAN_POINT('',(-1.877642116553,-12.66611844446));
#445 = CARTESIAN_POINT('',(-1.879826058708,-12.5));
#446 = CARTESIAN_POINT('',(-1.877642116553,-12.33388155553));
#447 = CARTESIAN_POINT('',(-1.871131740378,-12.17031427475));
#448 = CARTESIAN_POINT('',(-1.860416988409,-12.01190053778));
#449 = CARTESIAN_POINT('',(-1.833279612963,-11.73437787539));
#450 = CARTESIAN_POINT('',(-1.817854659752,-11.61135187744));
#451 = CARTESIAN_POINT('',(-1.79939745051,-11.49402210603));
#452 = CARTESIAN_POINT('',(-1.77792231434,-11.38439246183));
#453 = CARTESIAN_POINT('',(-1.753484667434,-11.28473269662));
#454 = CARTESIAN_POINT('',(-1.72618012188,-11.19762011822));
#455 = CARTESIAN_POINT('',(-1.696153594927,-11.12601781786));
#456 = CARTESIAN_POINT('',(-1.632227751656,-11.02261122508));
#457 = CARTESIAN_POINT('',(-1.598903466853,-10.99018953491));
#458 = CARTESIAN_POINT('',(-1.564528816939,-10.97938657255));
#459 = CARTESIAN_POINT('',(-1.53005178492,-10.99151146329));
#460 = CARTESIAN_POINT('',(-1.496426812917,-11.02610533697));
#461 = CARTESIAN_POINT('',(-1.464577110667,-11.08097228331));
#462 = CARTESIAN_POINT('',(-1.435340798157,-11.15210249295));
#463 = CARTESIAN_POINT('',(-1.373629960036,-11.34537046287));
#464 = CARTESIAN_POINT('',(-1.342877359937,-11.48026738901));
#465 = CARTESIAN_POINT('',(-1.317245470546,-11.63170161542));
#466 = CARTESIAN_POINT('',(-1.296771467641,-11.79484771009));
#467 = CARTESIAN_POINT('',(-1.281444901659,-11.96595880635));
#468 = CARTESIAN_POINT('',(-1.271232485504,-12.1420765949));
#469 = CARTESIAN_POINT('',(-1.266103672779,-12.32081650573));
#470 = CARTESIAN_POINT('',(-1.266103672779,-12.5));
#471 = ( GEOMETRIC_REPRESENTATION_CONTEXT(2) 
PARAMETRIC_REPRESENTATION_CONTEXT() REPRESENTATION_CONTEXT('2D SPACE',''
  ) );
#472 = PCURVE('',#473,#478);
#473 = CYLINDRICAL_SURFACE('',#474,1.5);
#474 = AXIS2_PLACEMENT_3D('',#475,#476,#477);
#475 = CARTESIAN_POINT('',(5.0000001,11.000000124159,28.6000001));
#476 = DIRECTION('',(0.,1.,0.));
#477 = DIRECTION('',(1.,0.,0.));
#478 = DEFINITIONAL_REPRESENTATION('',(#479),#531);
#479 = B_SPLINE_CURVE_WITH_KNOTS('',8,(#480,#481,#482,#483,#484,#485,
    #486,#487,#488,#489,#490,#491,#492,#493,#494,#495,#496,#497,#498,
    #499,#500,#501,#502,#503,#504,#505,#506,#507,#508,#509,#510,#511,
    #512,#513,#514,#515,#516,#517,#518,#519,#520,#521,#522,#523,#524,
    #525,#526,#527,#528,#529,#530),.UNSPECIFIED.,.F.,.F.,(9,7,7,7,7,7,7,
    9),(0.,0.152411952524,0.287411292865,0.42455359206,0.57693039177,
    0.705407431154,0.829491573849,1.),.UNSPECIFIED.);
#480 = CARTESIAN_POINT('',(0.,-1.230303992915));
#481 = CARTESIAN_POINT('',(-0.105734570077,-1.230303992915));
#482 = CARTESIAN_POINT('',(-0.211291276487,-1.224276973653));
#483 = CARTESIAN_POINT('',(-0.317405020052,-1.212257116558));
#484 = CARTESIAN_POINT('',(-0.4247136033,-1.194666438668));
#485 = CARTESIAN_POINT('',(-0.533863954558,-1.172333158788));
#486 = CARTESIAN_POINT('',(-0.645533355646,-1.14654841603));
#487 = CARTESIAN_POINT('',(-0.760468591866,-1.119106155492));
#488 = CARTESIAN_POINT('',(-0.985207636304,-1.068501673227));
#489 = CARTESIAN_POINT('',(-1.097798075454,-1.044375674879));
#490 = CARTESIAN_POINT('',(-1.21479031626,-1.022357682783));
#491 = CARTESIAN_POINT('',(-1.334607526352,-1.005285961248));
#492 = CARTESIAN_POINT('',(-1.456165292287,-0.995526916694));
#493 = CARTESIAN_POINT('',(-1.578554403434,-0.99413808025));
#494 = CARTESIAN_POINT('',(-1.700920188248,-1.00076039192));
#495 = CARTESIAN_POINT('',(-1.94525125652,-1.027318571839));
#496 = CARTESIAN_POINT('',(-2.063377750461,-1.047051539499));
#497 = CARTESIAN_POINT('',(-2.177381380171,-1.071084110622));
#498 = CARTESIAN_POINT('',(-2.287839690379,-1.097219293962));
#499 = CARTESIAN_POINT('',(-2.395196754857,-1.123432660998));
#500 = CARTESIAN_POINT('',(-2.499804379169,-1.148036422339));
#501 = CARTESIAN_POINT('',(-2.601923220456,-1.169749408494));
#502 = CARTESIAN_POINT('',(-2.812707623007,-1.207717741722));
#503 = CARTESIAN_POINT('',(-2.922806413264,-1.223452378396));
#504 = CARTESIAN_POINT('',(-3.032339629955,-1.233530587795));
#505 = CARTESIAN_POINT('',(-3.141592653589,-1.237001532209));
#506 = CARTESIAN_POINT('',(-3.250845677225,-1.233530587795));
#507 = CARTESIAN_POINT('',(-3.360378893916,-1.223452378396));
#508 = CARTESIAN_POINT('',(-3.470477684173,-1.207717741722));
#509 = CARTESIAN_POINT('',(-3.674953343642,-1.170885794567));
#510 = CARTESIAN_POINT('',(-3.770302441406,-1.150798214294));
#511 = CARTESIAN_POINT('',(-3.867727740455,-1.128164931888));
#512 = CARTESIAN_POINT('',(-3.967511383686,-1.103992831976));
#513 = CARTESIAN_POINT('',(-4.069991499005,-1.079590681909));
#514 = CARTESIAN_POINT('',(-4.175570058721,-1.056540289342));
#515 = CARTESIAN_POINT('',(-4.284746005356,-1.036605273689));
#516 = CARTESIAN_POINT('',(-4.507833181075,-1.006974015763));
#517 = CARTESIAN_POINT('',(-4.620032382457,-0.997140443186));
#518 = CARTESIAN_POINT('',(-4.733355802951,-0.993649234991));
#519 = CARTESIAN_POINT('',(-4.846738609275,-0.997408491689));
#520 = CARTESIAN_POINT('',(-4.959191633738,-1.008148488196));
#521 = CARTESIAN_POINT('',(-5.069619444507,-1.02444398007));
#522 = CARTESIAN_POINT('',(-5.17659215927,-1.044131027406));
#523 = CARTESIAN_POINT('',(-5.417052909803,-1.093730508315));
#524 = CARTESIAN_POINT('',(-5.550007535417,-1.125643518942));
#525 = CARTESIAN_POINT('',(-5.678214206253,-1.157075950035));
#526 = CARTESIAN_POINT('',(-5.802747819771,-1.185005347535));
#527 = CARTESIAN_POINT('',(-5.924559413531,-1.207291130101));
#528 = CARTESIAN_POINT('',(-6.044570135719,-1.222611179386));
#529 = CARTESIAN_POINT('',(-6.163729644338,-1.230303992915));
#530 = CARTESIAN_POINT('',(-6.28318530718,-1.230303992915));
#531 = ( GEOMETRIC_REPRESENTATION_CONTEXT(2) 
PARAMETRIC_REPRESENTATION_CONTEXT() REPRESENTATION_CONTEXT('2D SPACE',''
  ) );
#532 = FACE_BOUND('',#533,.F.);
#533 = EDGE_LOOP('',(#534));
#534 = ORIENTED_EDGE('',*,*,#535,.T.);
#535 = EDGE_CURVE('',#536,#536,#538,.T.);
#536 = VERTEX_POINT('',#537);
#537 = CARTESIAN_POINT('',(6.5000001,0.230304117075,28.6000001));
#538 = SURFACE_CURVE('',#539,(#591,#646),.PCURVE_S1.);
#539 = B_SPLINE_CURVE_WITH_KNOTS('',8,(#540,#541,#542,#543,#544,#545,
    #546,#547,#548,#549,#550,#551,#552,#553,#554,#555,#556,#557,#558,
    #559,#560,#561,#562,#563,#564,#565,#566,#567,#568,#569,#570,#571,
    #572,#573,#574,#575,#576,#577,#578,#579,#580,#581,#582,#583,#584,
    #585,#586,#587,#588,#589,#590),.UNSPECIFIED.,.T.,.F.,(9,7,7,7,7,7,7,
    9),(0.,0.152411952523,0.287411292865,0.424553592059,0.576930391769,
    0.705407431153,0.829491573848,1.),.UNSPECIFIED.);
#540 = CARTESIAN_POINT('',(6.5000001,0.230304117075,28.6000001));
#541 = CARTESIAN_POINT('',(6.5000001,0.230304117075,28.758601955116));
#542 = CARTESIAN_POINT('',(6.480835207979,0.224277097812,28.916937478222
    ));
#543 = CARTESIAN_POINT('',(6.442615184126,0.212257240717,29.073404614999
    ));
#544 = CARTESIAN_POINT('',(6.385172853893,0.194666562827,29.226301131592
    ));
#545 = CARTESIAN_POINT('',(6.308172181429,0.172333282947,29.373673660256
    ));
#546 = CARTESIAN_POINT('',(6.211196174823,0.14654854019,29.513166502531)
  );
#547 = CARTESIAN_POINT('',(6.09387767556,0.119106279651,29.641820210188)
  );
#548 = CARTESIAN_POINT('',(5.834131060698,6.850179738661E-02,
    29.856701297724));
#549 = CARTESIAN_POINT('',(5.691826442862,4.437579903875E-02,
    29.949634375908));
#550 = CARTESIAN_POINT('',(5.53148751071,2.235780694188E-02,
    30.026911696772));
#551 = CARTESIAN_POINT('',(5.357072383582,5.286085407558E-03,
    30.08301083259));
#552 = CARTESIAN_POINT('',(5.173715232069,-4.472959146985E-03,
    30.114384276897));
#553 = CARTESIAN_POINT('',(4.987103547235,-5.861795590669E-03,
    30.119342181577));
#554 = CARTESIAN_POINT('',(4.803058846863,7.60516079743E-04,
    30.098087987764));
#555 = CARTESIAN_POINT('',(4.44807640916,2.731869599801E-02,
    30.006943989065));
#556 = CARTESIAN_POINT('',(4.282917406528,4.70516636578E-02,
    29.937706777591));
#557 = CARTESIAN_POINT('',(4.133421146329,7.108423478161E-02,
    29.849470012634));
#558 = CARTESIAN_POINT('',(4.000670521254,9.721941812137E-02,
    29.745915575814));
#559 = CARTESIAN_POINT('',(3.885212025757,0.123432785157,29.630291398825
    ));
#560 = CARTESIAN_POINT('',(3.787212395993,0.148036546499,29.505508737477
    ));
#561 = CARTESIAN_POINT('',(3.706528354849,0.169749532653,29.374184706713
    ));
#562 = CARTESIAN_POINT('',(3.571906904462,0.207717865881,29.088099562214
    ));
#563 = CARTESIAN_POINT('',(3.520680621583,0.223452502556,28.92968582524)
  );
#564 = CARTESIAN_POINT('',(3.489727712823,0.233530711955,28.766118544462
    ));
#565 = CARTESIAN_POINT('',(3.479376863662,0.237001656368,28.6000001));
#566 = CARTESIAN_POINT('',(3.489727712823,0.233530711955,28.433881655538
    ));
#567 = CARTESIAN_POINT('',(3.520680621583,0.223452502556,28.270314374759
    ));
#568 = CARTESIAN_POINT('',(3.571906904463,0.207717865881,28.111900637785
    ));
#569 = CARTESIAN_POINT('',(3.702499156609,0.170885918727,27.834377975398
    ));
#570 = CARTESIAN_POINT('',(3.776967078955,0.150798338453,27.711351977443
    ));
#571 = CARTESIAN_POINT('',(3.866455400182,0.128165056047,27.594022206032
    ));
#572 = CARTESIAN_POINT('',(3.971125208788,0.103992956136,27.484392561832
    ));
#573 = CARTESIAN_POINT('',(4.090951111558,7.959080606867E-02,
    27.384732796629));
#574 = CARTESIAN_POINT('',(4.225654455831,5.654041350163E-02,
    27.297620218225));
#575 = CARTESIAN_POINT('',(4.374580476075,3.660539784836E-02,
    27.226017917866));
#576 = CARTESIAN_POINT('',(4.692833244329,6.974139922616E-03,
    27.12261132508));
#577 = CARTESIAN_POINT('',(4.859259278326,-2.859432654755E-03,
    27.090189634912));
#578 = CARTESIAN_POINT('',(5.031315465178,-6.350640849521E-03,
    27.079386672559));
#579 = CARTESIAN_POINT('',(5.203961479787,-2.591384152098E-03,
    27.091511563292));
#580 = CARTESIAN_POINT('',(5.372009042784,8.148612355702E-03,
    27.126105436974));
#581 = CARTESIAN_POINT('',(5.530563736585,2.444410422958E-02,
    27.180972383315));
#582 = CARTESIAN_POINT('',(5.675465562874,4.413115156532E-02,
    27.252102592959));
#583 = CARTESIAN_POINT('',(5.980007152868,9.373063247478E-02,
    27.445370562874));
#584 = CARTESIAN_POINT('',(6.130599062645,0.125643643101,27.580267489017
    ));
#585 = CARTESIAN_POINT('',(6.254973855937,0.157076074194,27.731701715421
    ));
#586 = CARTESIAN_POINT('',(6.35350420484,0.185005471695,27.894847810094)
  );
#587 = CARTESIAN_POINT('',(6.426826168456,0.20729125426,28.065958906354)
  );
#588 = CARTESIAN_POINT('',(6.475537532272,0.222611303546,28.24207669491)
  );
#589 = CARTESIAN_POINT('',(6.5000001,0.230304117075,28.420816605738));
#590 = CARTESIAN_POINT('',(6.5000001,0.230304117075,28.6000001));
#591 = PCURVE('',#291,#592);
#592 = DEFINITIONAL_REPRESENTATION('',(#593),#645);
#593 = B_SPLINE_CURVE_WITH_KNOTS('',8,(#594,#595,#596,#597,#598,#599,
    #600,#601,#602,#603,#604,#605,#606,#607,#608,#609,#610,#611,#612,
    #613,#614,#615,#616,#617,#618,#619,#620,#621,#622,#623,#624,#625,
    #626,#627,#628,#629,#630,#631,#632,#633,#634,#635,#636,#637,#638,
    #639,#640,#641,#642,#643,#644),.UNSPECIFIED.,.T.,.F.,(9,7,7,7,7,7,7,
    9),(0.,0.152411952523,0.287411292865,0.424553592059,0.576930391769,
    0.705407431153,0.829491573848,1.),.UNSPECIFIED.);
#594 = CARTESIAN_POINT('',(-5.0170816344,-12.5));
#595 = CARTESIAN_POINT('',(-5.0170816344,-12.65860185511));
#596 = CARTESIAN_POINT('',(-5.013063569725,-12.81693737822));
#597 = CARTESIAN_POINT('',(-5.005050520541,-12.97340451499));
#598 = CARTESIAN_POINT('',(-4.993035698572,-13.12630103159));
#599 = CARTESIAN_POINT('',(-4.977004923042,-13.27367356025));
#600 = CARTESIAN_POINT('',(-4.956947721777,-13.41316640253));
#601 = CARTESIAN_POINT('',(-4.932867503169,-13.54182011018));
#602 = CARTESIAN_POINT('',(-4.87994147269,-13.75670119772));
#603 = CARTESIAN_POINT('',(-4.851083091652,-13.8496342759));
#604 = CARTESIAN_POINT('',(-4.818741423937,-13.92691159677));
#605 = CARTESIAN_POINT('',(-4.783747859993,-13.98301073259));
#606 = CARTESIAN_POINT('',(-4.747099866953,-14.01438417689));
#607 = CARTESIAN_POINT('',(-4.70983489805,-14.01934208157));
#608 = CARTESIAN_POINT('',(-4.673029771233,-13.99808788776));
#609 = CARTESIAN_POINT('',(-4.601834864674,-13.90694388906));
#610 = CARTESIAN_POINT('',(-4.568600718195,-13.83770667759));
#611 = CARTESIAN_POINT('',(-4.538355650249,-13.74946991263));
#612 = CARTESIAN_POINT('',(-4.511322345214,-13.64591547581));
#613 = CARTESIAN_POINT('',(-4.487655819552,-13.53029129882));
#614 = CARTESIAN_POINT('',(-4.4674527298,-13.40550863747));
#615 = CARTESIAN_POINT('',(-4.450742971035,-13.27418460671));
#616 = CARTESIAN_POINT('',(-4.422768318771,-12.98809946221));
#617 = CARTESIAN_POINT('',(-4.412053566801,-12.82968572524));
#618 = CARTESIAN_POINT('',(-4.405543190626,-12.66611844446));
#619 = CARTESIAN_POINT('',(-4.403359248472,-12.5));
#620 = CARTESIAN_POINT('',(-4.405543190626,-12.33388155553));
#621 = CARTESIAN_POINT('',(-4.412053566801,-12.17031427475));
#622 = CARTESIAN_POINT('',(-4.422768318771,-12.01190053778));
#623 = CARTESIAN_POINT('',(-4.449905694216,-11.73437787539));
#624 = CARTESIAN_POINT('',(-4.465330647427,-11.61135187744));
#625 = CARTESIAN_POINT('',(-4.48378785667,-11.49402210603));
#626 = CARTESIAN_POINT('',(-4.505262992839,-11.38439246183));
#627 = CARTESIAN_POINT('',(-4.529700639746,-11.28473269662));
#628 = CARTESIAN_POINT('',(-4.557005185299,-11.19762011822));
#629 = CARTESIAN_POINT('',(-4.587031712253,-11.12601781786));
#630 = CARTESIAN_POINT('',(-4.650957555524,-11.02261122508));
#631 = CARTESIAN_POINT('',(-4.684281840327,-10.99018953491));
#632 = CARTESIAN_POINT('',(-4.718656490241,-10.97938657255));
#633 = CARTESIAN_POINT('',(-4.75313352226,-10.99151146329));
#634 = CARTESIAN_POINT('',(-4.786758494262,-11.02610533697));
#635 = CARTESIAN_POINT('',(-4.818608196513,-11.08097228331));
#636 = CARTESIAN_POINT('',(-4.847844509022,-11.15210249295));
#637 = CARTESIAN_POINT('',(-4.909555347144,-11.34537046287));
#638 = CARTESIAN_POINT('',(-4.940307947243,-11.48026738901));
#639 = CARTESIAN_POINT('',(-4.965939836634,-11.63170161542));
#640 = CARTESIAN_POINT('',(-4.986413839538,-11.79484771009));
#641 = CARTESIAN_POINT('',(-5.00174040552,-11.96595880635));
#642 = CARTESIAN_POINT('',(-5.011952821676,-12.14207659491));
#643 = CARTESIAN_POINT('',(-5.0170816344,-12.32081650573));
#644 = CARTESIAN_POINT('',(-5.0170816344,-12.5));
#645 = ( GEOMETRIC_REPRESENTATION_CONTEXT(2) 
PARAMETRIC_REPRESENTATION_CONTEXT() REPRESENTATION_CONTEXT('2D SPACE',''
  ) );
#646 = PCURVE('',#473,#647);
#647 = DEFINITIONAL_REPRESENTATION('',(#648),#700);
#648 = B_SPLINE_CURVE_WITH_KNOTS('',8,(#649,#650,#651,#652,#653,#654,
    #655,#656,#657,#658,#659,#660,#661,#662,#663,#664,#665,#666,#667,
    #668,#669,#670,#671,#672,#673,#674,#675,#676,#677,#678,#679,#680,
    #681,#682,#683,#684,#685,#686,#687,#688,#689,#690,#691,#692,#693,
    #694,#695,#696,#697,#698,#699),.UNSPECIFIED.,.F.,.F.,(9,7,7,7,7,7,7,
    9),(0.,0.152411952523,0.287411292865,0.424553592059,0.576930391769,
    0.705407431153,0.829491573848,1.),.UNSPECIFIED.);
#649 = CARTESIAN_POINT('',(0.,-10.76969600708));
#650 = CARTESIAN_POINT('',(-0.105734570077,-10.76969600708));
#651 = CARTESIAN_POINT('',(-0.211291276487,-10.77572302634));
#652 = CARTESIAN_POINT('',(-0.317405020052,-10.78774288344));
#653 = CARTESIAN_POINT('',(-0.4247136033,-10.80533356133));
#654 = CARTESIAN_POINT('',(-0.533863954558,-10.82766684121));
#655 = CARTESIAN_POINT('',(-0.645533355646,-10.85345158397));
#656 = CARTESIAN_POINT('',(-0.760468591866,-10.8808938445));
#657 = CARTESIAN_POINT('',(-0.985207636304,-10.93149832677));
#658 = CARTESIAN_POINT('',(-1.097798075455,-10.95562432512));
#659 = CARTESIAN_POINT('',(-1.214790316259,-10.97764231721));
#660 = CARTESIAN_POINT('',(-1.334607526353,-10.99471403875));
#661 = CARTESIAN_POINT('',(-1.456165292286,-11.0044730833));
#662 = CARTESIAN_POINT('',(-1.578554403434,-11.00586191975));
#663 = CARTESIAN_POINT('',(-1.700920188248,-10.99923960808));
#664 = CARTESIAN_POINT('',(-1.94525125652,-10.97268142816));
#665 = CARTESIAN_POINT('',(-2.063377750461,-10.9529484605));
#666 = CARTESIAN_POINT('',(-2.177381380171,-10.92891588937));
#667 = CARTESIAN_POINT('',(-2.287839690379,-10.90278070603));
#668 = CARTESIAN_POINT('',(-2.395196754857,-10.876567339));
#669 = CARTESIAN_POINT('',(-2.499804379169,-10.85196357766));
#670 = CARTESIAN_POINT('',(-2.601923220456,-10.8302505915));
#671 = CARTESIAN_POINT('',(-2.812707623007,-10.79228225827));
#672 = CARTESIAN_POINT('',(-2.922806413264,-10.7765476216));
#673 = CARTESIAN_POINT('',(-3.032339629955,-10.7664694122));
#674 = CARTESIAN_POINT('',(-3.14159265359,-10.76299846779));
#675 = CARTESIAN_POINT('',(-3.250845677225,-10.7664694122));
#676 = CARTESIAN_POINT('',(-3.360378893916,-10.7765476216));
#677 = CARTESIAN_POINT('',(-3.470477684173,-10.79228225827));
#678 = CARTESIAN_POINT('',(-3.674953343642,-10.82911420543));
#679 = CARTESIAN_POINT('',(-3.770302441406,-10.8492017857));
#680 = CARTESIAN_POINT('',(-3.867727740454,-10.87183506811));
#681 = CARTESIAN_POINT('',(-3.967511383686,-10.89600716802));
#682 = CARTESIAN_POINT('',(-4.069991499005,-10.92040931809));
#683 = CARTESIAN_POINT('',(-4.17557005872,-10.94345971065));
#684 = CARTESIAN_POINT('',(-4.284746005356,-10.96339472631));
#685 = CARTESIAN_POINT('',(-4.507833181075,-10.99302598423));
#686 = CARTESIAN_POINT('',(-4.620032382457,-11.00285955681));
#687 = CARTESIAN_POINT('',(-4.733355802951,-11.006350765));
#688 = CARTESIAN_POINT('',(-4.846738609275,-11.00259150831));
#689 = CARTESIAN_POINT('',(-4.959191633738,-10.9918515118));
#690 = CARTESIAN_POINT('',(-5.069619444507,-10.97555601993));
#691 = CARTESIAN_POINT('',(-5.17659215927,-10.95586897259));
#692 = CARTESIAN_POINT('',(-5.417052909803,-10.90626949168));
#693 = CARTESIAN_POINT('',(-5.550007535417,-10.87435648105));
#694 = CARTESIAN_POINT('',(-5.678214206254,-10.84292404996));
#695 = CARTESIAN_POINT('',(-5.802747819771,-10.81499465246));
#696 = CARTESIAN_POINT('',(-5.92455941353,-10.79270886989));
#697 = CARTESIAN_POINT('',(-6.04457013572,-10.77738882061));
#698 = CARTESIAN_POINT('',(-6.163729644338,-10.76969600708));
#699 = CARTESIAN_POINT('',(-6.28318530718,-10.76969600708));
#700 = ( GEOMETRIC_REPRESENTATION_CONTEXT(2) 
PARAMETRIC_REPRESENTATION_CONTEXT() REPRESENTATION_CONTEXT('2D SPACE',''
  ) );
#701 = ADVANCED_FACE('',(#702),#346,.T.);
#702 = FACE_BOUND('',#703,.T.);
#703 = EDGE_LOOP('',(#704));
#704 = ORIENTED_EDGE('',*,*,#331,.T.);
#705 = ADVANCED_FACE('',(#706),#473,.F.);
#706 = FACE_BOUND('',#707,.T.);
#707 = EDGE_LOOP('',(#708,#709,#730,#731));
#708 = ORIENTED_EDGE('',*,*,#361,.F.);
#709 = ORIENTED_EDGE('',*,*,#710,.T.);
#710 = EDGE_CURVE('',#362,#536,#711,.T.);
#711 = SEAM_CURVE('',#712,(#716,#723),.PCURVE_S1.);
#712 = LINE('',#713,#714);
#713 = CARTESIAN_POINT('',(6.5000001,11.000000124159,28.6000001));
#714 = VECTOR('',#715,1.);
#715 = DIRECTION('',(0.,-1.,0.));
#716 = PCURVE('',#473,#717);
#717 = DEFINITIONAL_REPRESENTATION('',(#718),#722);
#718 = LINE('',#719,#720);
#719 = CARTESIAN_POINT('',(-6.28318530718,0.));
#720 = VECTOR('',#721,1.);
#721 = DIRECTION('',(-0.,-1.));
#722 = ( GEOMETRIC_REPRESENTATION_CONTEXT(2) 
PARAMETRIC_REPRESENTATION_CONTEXT() REPRESENTATION_CONTEXT('2D SPACE',''
  ) );
#723 = PCURVE('',#473,#724);
#724 = DEFINITIONAL_REPRESENTATION('',(#725),#729);
#725 = LINE('',#726,#727);
#726 = CARTESIAN_POINT('',(-0.,0.));
#727 = VECTOR('',#728,1.);
#728 = DIRECTION('',(-0.,-1.));
#729 = ( GEOMETRIC_REPRESENTATION_CONTEXT(2) 
PARAMETRIC_REPRESENTATION_CONTEXT() REPRESENTATION_CONTEXT('2D SPACE',''
  ) );
#730 = ORIENTED_EDGE('',*,*,#535,.T.);
#731 = ORIENTED_EDGE('',*,*,#710,.F.);
#732 = ( GEOMETRIC_REPRESENTATION_CONTEXT(3) 
GLOBAL_UNCERTAINTY_ASSIGNED_CONTEXT((#736)) GLOBAL_UNIT_ASSIGNED_CONTEXT
((#733,#734,#735)) REPRESENTATION_CONTEXT('Context #1',
  '3D Context with UNIT and UNCERTAINTY') );
#733 = ( LENGTH_UNIT() NAMED_UNIT(*) SI_UNIT(.MILLI.,.METRE.) );
#734 = ( NAMED_UNIT(*) PLANE_ANGLE_UNIT() SI_UNIT($,.RADIAN.) );
#735 = ( NAMED_UNIT(*) SI_UNIT($,.STERADIAN.) SOLID_ANGLE_UNIT() );
#736 = UNCERTAINTY_MEASURE_WITH_UNIT(LENGTH_MEASURE(1.E-07),#733,
  'distance_accuracy_value','confusion accuracy');
#737 = PRODUCT_RELATED_PRODUCT_CATEGORY('part',$,(#7));
ENDSEC;
END-ISO-10303-21;
