ISO-10303-21;
HEADER;
FILE_DESCRIPTION(('Open CASCADE Model'),'2;1');
FILE_NAME('Open CASCADE Shape Model','2026-10-01T13:56:46',('Author'),(
    'Open CASCADE'),'Open CASCADE STEP processor 7.8','Open CASCADE 7.8'
  ,'Unknown');
FILE_SCHEMA(('AUTOMOTIVE_DESIGN { 1 0 10303 214 1 1 1 1 }'));
ENDSEC;
DATA;
#1 = APPLICATION_PROTOCOL_DEFINITION('international standard',
  'automotive_design',2000,#2);
#2 = APPLICATION_CONTEXT(
  'core data for automotive mechanical design processes');
#3 = SHAPE_DEFINITION_REPRESENTATION(#4,#10);
#4 = PRODUCT_DEFINITION_SHAPE('','',#5);
#5 = PRODUCT_DEFINITION('design','',#6,#9);
#6 = PRODUCT_DEFINITION_FORMATION('','',#7);
#7 = PRODUCT('Open CASCADE STEP translator 7.8 9',
  'Open CASCADE STEP translator 7.8 9','',(#8));
#8 = PRODUCT_CONTEXT('',#2,'mechanical');
#9 = PRODUCT_DEFINITION_CONTEXT('part definition',#2,'design');
#10 = ADVANCED_BREP_SHAPE_REPRESENTATION('',(#11,#15),#957);
#11 = AXIS2_PLACEMENT_3D('',#12,#13,#14);
#12 = CARTESIAN_POINT('',(0.,0.,0.));
#13 = DIRECTION('',(0.,0.,1.));
#14 = DIRECTION('',(1.,0.,-0.));
#15 = MANIFOLD_SOLID_BREP('',#16);
#16 = CLOSED_SHELL('',(#17,#105,#144,#183,#544,#895,#899,#926,#953));
#17 = ADVANCED_FACE('',(#18),#32,.T.);
#18 = FACE_BOUND('',#19,.F.);
#19 = EDGE_LOOP('',(#20,#50,#77,#78));
#20 = ORIENTED_EDGE('',*,*,#21,.T.);
#21 = EDGE_CURVE('',#22,#24,#26,.T.);
#22 = VERTEX_POINT('',#23);
#23 = CARTESIAN_POINT('',(10.,5.,1.E-07));
#24 = VERTEX_POINT('',#25);
#25 = CARTESIAN_POINT('',(10.,5.,2.0000001));
#26 = SEAM_CURVE('',#27,(#31,#43),.PCURVE_S1.);
#27 = LINE('',#28,#29);
#28 = CARTESIAN_POINT('',(10.,5.,1.E-07));
#29 = VECTOR('',#30,1.);
#30 = DIRECTION('',(0.,0.,1.));
#31 = PCURVE('',#32,#37);
#32 = CYLINDRICAL_SURFACE('',#33,5.);
#33 = AXIS2_PLACEMENT_3D('',#34,#35,#36);
#34 = CARTESIAN_POINT('',(5.,5.,1.E-07));
#35 = DIRECTION('',(-0.,-0.,-1.));
#36 = DIRECTION('',(1.,0.,0.));
#37 = DEFINITIONAL_REPRESENTATION('',(#38),#42);
#38 = LINE('',#39,#40);
#39 = CARTESIAN_POINT('',(-0.,0.));
#40 = VECTOR('',#41,1.);
#41 = DIRECTION('',(-0.,-1.));
#42 = ( GEOMETRIC_REPRESENTATION_CONTEXT(2) 
PARAMETRIC_REPRESENTATION_CONTEXT() REPRESENTATION_CONTEXT('2D SPACE',''
  ) );
#43 = PCURVE('',#32,#44);
#44 = DEFINITIONAL_REPRESENTATION('',(#45),#49);
#45 = LINE('',#46,#47);
#46 = CARTESIAN_POINT('',(-6.28318530718,0.));
#47 = VECTOR('',#48,1.);
#48 = DIRECTION('',(-0.,-1.));
#49 = ( GEOMETRIC_REPRESENTATION_CONTEXT(2) 
PARAMETRIC_REPRESENTATION_CONTEXT() REPRESENTATION_CONTEXT('2D SPACE',''
  ) );
#50 = ORIENTED_EDGE('',*,*,#51,.T.);
#51 = EDGE_CURVE('',#24,#24,#52,.T.);
#52 = SURFACE_CURVE('',#53,(#58,#65),.PCURVE_S1.);
#53 = CIRCLE('',#54,5.);
#54 = AXIS2_PLACEMENT_3D('',#55,#56,#57);
#55 = CARTESIAN_POINT('',(5.,5.,2.0000001));
#56 = DIRECTION('',(0.,0.,1.));
#57 = DIRECTION('',(1.,0.,0.));
#58 = PCURVE('',#32,#59);
#59 = DEFINITIONAL_REPRESENTATION('',(#60),#64);
#60 = LINE('',#61,#62);
#61 = CARTESIAN_POINT('',(-0.,-2.));
#62 = VECTOR('',#63,1.);
#63 = DIRECTION('',(-1.,0.));
#64 = ( GEOMETRIC_REPRESENTATION_CONTEXT(2) 
PARAMETRIC_REPRESENTATION_CONTEXT() REPRESENTATION_CONTEXT('2D SPACE',''
  ) );
#65 = PCURVE('',#66,#71);
#66 = PLANE('',#67);
#67 = AXIS2_PLACEMENT_3D('',#68,#69,#70);
#68 = CARTESIAN_POINT('',(5.,5.,2.0000001));
#69 = DIRECTION('',(0.,0.,1.));
#70 = DIRECTION('',(1.,0.,0.));
#71 = DEFINITIONAL_REPRESENTATION('',(#72),#76);
#72 = CIRCLE('',#73,5.);
#73 = AXIS2_PLACEMENT_2D('',#74,#75);
#74 = CARTESIAN_POINT('',(0.,0.));
#75 = DIRECTION('',(1.,0.));
#76 = ( GEOMETRIC_REPRESENTATION_CONTEXT(2) 
PARAMETRIC_REPRESENTATION_CONTEXT() REPRESENTATION_CONTEXT('2D SPACE',''
  ) );
#77 = ORIENTED_EDGE('',*,*,#21,.F.);
#78 = ORIENTED_EDGE('',*,*,#79,.F.);
#79 = EDGE_CURVE('',#22,#22,#80,.T.);
#80 = SURFACE_CURVE('',#81,(#86,#93),.PCURVE_S1.);
#81 = CIRCLE('',#82,5.);
#82 = AXIS2_PLACEMENT_3D('',#83,#84,#85);
#83 = CARTESIAN_POINT('',(5.,5.,1.E-07));
#84 = DIRECTION('',(0.,0.,1.));
#85 = DIRECTION('',(1.,0.,0.));
#86 = PCURVE('',#32,#87);
#87 = DEFINITIONAL_REPRESENTATION('',(#88),#92);
#88 = LINE('',#89,#90);
#89 = CARTESIAN_POINT('',(-0.,0.));
#90 = VECTOR('',#91,1.);
#91 = DIRECTION('',(-1.,0.));
#92 = ( GEOMETRIC_REPRESENTATION_CONTEXT(2) 
PARAMETRIC_REPRESENTATION_CONTEXT() REPRESENTATION_CONTEXT('2D SPACE',''
  ) );
#93 = PCURVE('',#94,#99);
#94 = PLANE('',#95);
#95 = AXIS2_PLACEMENT_3D('',#96,#97,#98);
#96 = CARTESIAN_POINT('',(5.,5.,1.E-07));
#97 = DIRECTION('',(0.,0.,1.));
#98 = DIRECTION('',(1.,0.,0.));
#99 = DEFINITIONAL_REPRESENTATION('',(#100),#104);
#100 = CIRCLE('',#101,5.);
#101 = AXIS2_PLACEMENT_2D('',#102,#103);
#102 = CARTESIAN_POINT('',(0.,0.));
#103 = DIRECTION('',(1.,0.));
#104 = ( GEOMETRIC_REPRESENTATION_CONTEXT(2) 
PARAMETRIC_REPRESENTATION_CONTEXT() REPRESENTATION_CONTEXT('2D SPACE',''
  ) );
#105 = ADVANCED_FACE('',(#106,#109),#94,.F.);
#106 = FACE_BOUND('',#107,.F.);
#107 = EDGE_LOOP('',(#108));
#108 = ORIENTED_EDGE('',*,*,#79,.T.);
#109 = FACE_BOUND('',#110,.F.);
#110 = EDGE_LOOP('',(#111));
#111 = ORIENTED_EDGE('',*,*,#112,.T.);
#112 = EDGE_CURVE('',#113,#113,#115,.T.);
#113 = VERTEX_POINT('',#114);
#114 = CARTESIAN_POINT('',(8.15,5.,1.E-07));
#115 = SURFACE_CURVE('',#116,(#121,#132),.PCURVE_S1.);
#116 = CIRCLE('',#117,3.15);
#117 = AXIS2_PLACEMENT_3D('',#118,#119,#120);
#118 = CARTESIAN_POINT('',(5.,5.,1.E-07));
#119 = DIRECTION('',(0.,0.,-1.));
#120 = DIRECTION('',(1.,0.,0.));
#121 = PCURVE('',#94,#122);
#122 = DEFINITIONAL_REPRESENTATION('',(#123),#131);
#123 = ( BOUNDED_CURVE() B_SPLINE_CURVE(2,(#124,#125,#126,#127,#128,#129
,#130),.UNSPECIFIED.,.T.,.F.) B_SPLINE_CURVE_WITH_KNOTS((1,2,2,2,2,1),(
    -2.094395102393,0.,2.094395102393,4.188790204786,6.28318530718,
8.377580409573),.UNSPECIFIED.) CURVE() GEOMETRIC_REPRESENTATION_ITEM() 
RATIONAL_B_SPLINE_CURVE((1.,0.5,1.,0.5,1.,0.5,1.)) REPRESENTATION_ITEM(
  '') );
#124 = CARTESIAN_POINT('',(3.15,0.));
#125 = CARTESIAN_POINT('',(3.15,-5.455960043842));
#126 = CARTESIAN_POINT('',(-1.575,-2.727980021921));
#127 = CARTESIAN_POINT('',(-6.3,-7.715274834628E-16));
#128 = CARTESIAN_POINT('',(-1.575,2.727980021921));
#129 = CARTESIAN_POINT('',(3.15,5.455960043842));
#130 = CARTESIAN_POINT('',(3.15,0.));
#131 = ( GEOMETRIC_REPRESENTATION_CONTEXT(2) 
PARAMETRIC_REPRESENTATION_CONTEXT() REPRESENTATION_CONTEXT('2D SPACE',''
  ) );
#132 = PCURVE('',#133,#138);
#133 = CYLINDRICAL_SURFACE('',#134,3.15);
#134 = AXIS2_PLACEMENT_3D('',#135,#136,#137);
#135 = CARTESIAN_POINT('',(5.,5.,-9.99999E-02));
#136 = DIRECTION('',(-0.,-0.,-1.));
#137 = DIRECTION('',(1.,0.,0.));
#138 = DEFINITIONAL_REPRESENTATION('',(#139),#143);
#139 = LINE('',#140,#141);
#140 = CARTESIAN_POINT('',(-6.28318530718,-0.1));
#141 = VECTOR('',#142,1.);
#142 = DIRECTION('',(1.,-0.));
#143 = ( GEOMETRIC_REPRESENTATION_CONTEXT(2) 
PARAMETRIC_REPRESENTATION_CONTEXT() REPRESENTATION_CONTEXT('2D SPACE',''
  ) );
#144 = ADVANCED_FACE('',(#145,#148),#66,.T.);
#145 = FACE_BOUND('',#146,.T.);
#146 = EDGE_LOOP('',(#147));
#147 = ORIENTED_EDGE('',*,*,#51,.T.);
#148 = FACE_BOUND('',#149,.T.);
#149 = EDGE_LOOP('',(#150));
#150 = ORIENTED_EDGE('',*,*,#151,.T.);
#151 = EDGE_CURVE('',#152,#152,#154,.T.);
#152 = VERTEX_POINT('',#153);
#153 = CARTESIAN_POINT('',(9.,5.,2.0000001));
#154 = SURFACE_CURVE('',#155,(#160,#171),.PCURVE_S1.);
#155 = CIRCLE('',#156,4.);
#156 = AXIS2_PLACEMENT_3D('',#157,#158,#159);
#157 = CARTESIAN_POINT('',(5.,5.,2.0000001));
#158 = DIRECTION('',(0.,0.,-1.));
#159 = DIRECTION('',(1.,0.,0.));
#160 = PCURVE('',#66,#161);
#161 = DEFINITIONAL_REPRESENTATION('',(#162),#170);
#162 = ( BOUNDED_CURVE() B_SPLINE_CURVE(2,(#163,#164,#165,#166,#167,#168
,#169),.UNSPECIFIED.,.T.,.F.) B_SPLINE_CURVE_WITH_KNOTS((1,2,2,2,2,1),(
    -2.094395102393,0.,2.094395102393,4.188790204786,6.28318530718,
8.377580409573),.UNSPECIFIED.) CURVE() GEOMETRIC_REPRESENTATION_ITEM() 
RATIONAL_B_SPLINE_CURVE((1.,0.5,1.,0.5,1.,0.5,1.)) REPRESENTATION_ITEM(
  '') );
#163 = CARTESIAN_POINT('',(4.,0.));
#164 = CARTESIAN_POINT('',(4.,-6.928203230276));
#165 = CARTESIAN_POINT('',(-2.,-3.464101615138));
#166 = CARTESIAN_POINT('',(-8.,-9.797174393179E-16));
#167 = CARTESIAN_POINT('',(-2.,3.464101615138));
#168 = CARTESIAN_POINT('',(4.,6.928203230276));
#169 = CARTESIAN_POINT('',(4.,0.));
#170 = ( GEOMETRIC_REPRESENTATION_CONTEXT(2) 
PARAMETRIC_REPRESENTATION_CONTEXT() REPRESENTATION_CONTEXT('2D SPACE',''
  ) );
#171 = PCURVE('',#172,#177);
#172 = CYLINDRICAL_SURFACE('',#173,4.);
#173 = AXIS2_PLACEMENT_3D('',#174,#175,#176);
#174 = CARTESIAN_POINT('',(5.,5.,1.E-07));
#175 = DIRECTION('',(-0.,-0.,-1.));
#176 = DIRECTION('',(1.,0.,0.));
#177 = DEFINITIONAL_REPRESENTATION('',(#178),#182);
#178 = LINE('',#179,#180);
#179 = CARTESIAN_POINT('',(-6.28318530718,-2.));
#180 = VECTOR('',#181,1.);
#181 = DIRECTION('',(1.,-0.));
#182 = ( GEOMETRIC_REPRESENTATION_CONTEXT(2) 
PARAMETRIC_REPRESENTATION_CONTEXT() REPRESENTATION_CONTEXT('2D SPACE',''
  ) );
#183 = ADVANCED_FACE('',(#184,#238,#391),#133,.F.);
#184 = FACE_BOUND('',#185,.T.);
#185 = EDGE_LOOP('',(#186,#209,#210,#211));
#186 = ORIENTED_EDGE('',*,*,#187,.F.);
#187 = EDGE_CURVE('',#113,#188,#190,.T.);
#188 = VERTEX_POINT('',#189);
#189 = CARTESIAN_POINT('',(8.15,5.,8.0000001));
#190 = SEAM_CURVE('',#191,(#195,#202),.PCURVE_S1.);
#191 = LINE('',#192,#193);
#192 = CARTESIAN_POINT('',(8.15,5.,-9.99999E-02));
#193 = VECTOR('',#194,1.);
#194 = DIRECTION('',(0.,0.,1.));
#195 = PCURVE('',#133,#196);
#196 = DEFINITIONAL_REPRESENTATION('',(#197),#201);
#197 = LINE('',#198,#199);
#198 = CARTESIAN_POINT('',(-6.28318530718,0.));
#199 = VECTOR('',#200,1.);
#200 = DIRECTION('',(-0.,-1.));
#201 = ( GEOMETRIC_REPRESENTATION_CONTEXT(2) 
PARAMETRIC_REPRESENTATION_CONTEXT() REPRESENTATION_CONTEXT('2D SPACE',''
  ) );
#202 = PCURVE('',#133,#203);
#203 = DEFINITIONAL_REPRESENTATION('',(#204),#208);
#204 = LINE('',#205,#206);
#205 = CARTESIAN_POINT('',(-0.,0.));
#206 = VECTOR('',#207,1.);
#207 = DIRECTION('',(-0.,-1.));
#208 = ( GEOMETRIC_REPRESENTATION_CONTEXT(2) 
PARAMETRIC_REPRESENTATION_CONTEXT() REPRESENTATION_CONTEXT('2D SPACE',''
  ) );
#209 = ORIENTED_EDGE('',*,*,#112,.T.);
#210 = ORIENTED_EDGE('',*,*,#187,.T.);
#211 = ORIENTED_EDGE('',*,*,#212,.T.);
#212 = EDGE_CURVE('',#188,#188,#213,.T.);
#213 = SURFACE_CURVE('',#214,(#219,#226),.PCURVE_S1.);
#214 = CIRCLE('',#215,3.15);
#215 = AXIS2_PLACEMENT_3D('',#216,#217,#218);
#216 = CARTESIAN_POINT('',(5.,5.,8.0000001));
#217 = DIRECTION('',(0.,0.,1.));
#218 = DIRECTION('',(1.,0.,0.));
#219 = PCURVE('',#133,#220);
#220 = DEFINITIONAL_REPRESENTATION('',(#221),#225);
#221 = LINE('',#222,#223);
#222 = CARTESIAN_POINT('',(-0.,-8.1));
#223 = VECTOR('',#224,1.);
#224 = DIRECTION('',(-1.,0.));
#225 = ( GEOMETRIC_REPRESENTATION_CONTEXT(2) 
PARAMETRIC_REPRESENTATION_CONTEXT() REPRESENTATION_CONTEXT('2D SPACE',''
  ) );
#226 = PCURVE('',#227,#232);
#227 = PLANE('',#228);
#228 = AXIS2_PLACEMENT_3D('',#229,#230,#231);
#229 = CARTESIAN_POINT('',(5.,5.,8.0000001));
#230 = DIRECTION('',(0.,0.,1.));
#231 = DIRECTION('',(1.,0.,0.));
#232 = DEFINITIONAL_REPRESENTATION('',(#233),#237);
#233 = CIRCLE('',#234,3.15);
#234 = AXIS2_PLACEMENT_2D('',#235,#236);
#235 = CARTESIAN_POINT('',(0.,0.));
#236 = DIRECTION('',(1.,0.));
#237 = ( GEOMETRIC_REPRESENTATION_CONTEXT(2) 
PARAMETRIC_REPRESENTATION_CONTEXT() REPRESENTATION_CONTEXT('2D SPACE',''
  ) );
#238 = FACE_BOUND('',#239,.T.);
#239 = EDGE_LOOP('',(#240));
#240 = ORIENTED_EDGE('',*,*,#241,.T.);
#241 = EDGE_CURVE('',#242,#242,#244,.T.);
#242 = VERTEX_POINT('',#243);
#243 = CARTESIAN_POINT('',(6.,2.012944593751,4.0000001));
#244 = SURFACE_CURVE('',#245,(#290,#338),.PCURVE_S1.);
#245 = B_SPLINE_CURVE_WITH_KNOTS('',7,(#246,#247,#248,#249,#250,#251,
    #252,#253,#254,#255,#256,#257,#258,#259,#260,#261,#262,#263,#264,
    #265,#266,#267,#268,#269,#270,#271,#272,#273,#274,#275,#276,#277,
    #278,#279,#280,#281,#282,#283,#284,#285,#286,#287,#288,#289),
  .UNSPECIFIED.,.T.,.F.,(8,6,6,6,6,6,6,8),(0.,0.148553447982,
    0.287593125787,0.425667210163,0.57491269788,0.703969011941,
    0.832471007913,1.),.UNSPECIFIED.);
#246 = CARTESIAN_POINT('',(6.,2.012944593751,4.0000001));
#247 = CARTESIAN_POINT('',(6.,2.012944593751,4.122128225903));
#248 = CARTESIAN_POINT('',(5.982598921773,2.00711906637,4.244111605047)
  );
#249 = CARTESIAN_POINT('',(5.947870436549,1.995492963583,4.363812875541)
  );
#250 = CARTESIAN_POINT('',(5.895810229871,1.978773641303,4.479020033126)
  );
#251 = CARTESIAN_POINT('',(5.826467100243,1.95838651298,4.587241170111)
  );
#252 = CARTESIAN_POINT('',(5.74009081831,1.936381861051,4.685579955725)
  );
#253 = CARTESIAN_POINT('',(5.541332226424,1.895312045883,4.850007362813)
  );
#254 = CARTESIAN_POINT('',(5.428495445664,1.875638248938,4.919805739008)
  );
#255 = CARTESIAN_POINT('',(5.301458686371,1.85885268193,4.97322504206));
#256 = CARTESIAN_POINT('',(5.164752454134,1.847995792754,5.005972453498)
  );
#257 = CARTESIAN_POINT('',(5.023770235713,1.844859109067,5.015858447616)
  );
#258 = CARTESIAN_POINT('',(4.884221569211,1.849306170209,5.002709122919)
  );
#259 = CARTESIAN_POINT('',(4.619321691028,1.870285279157,4.934694394335)
  );
#260 = CARTESIAN_POINT('',(4.497167790428,1.886472842738,4.880963818282)
  );
#261 = CARTESIAN_POINT('',(4.387294718041,1.906542114744,4.810730726915)
  );
#262 = CARTESIAN_POINT('',(4.291338781102,1.928216325523,4.727097747334)
  );
#263 = CARTESIAN_POINT('',(4.210389907879,1.949246831105,4.633090821001)
  );
#264 = CARTESIAN_POINT('',(4.1450078668,1.967806847099,4.531683985807));
#265 = CARTESIAN_POINT('',(4.041305946606,1.998905480636,4.311306187629)
  );
#266 = CARTESIAN_POINT('',(4.004693582338,2.011107506257,4.189642647159)
  );
#267 = CARTESIAN_POINT('',(3.98620346943,2.017717293775,4.063691432145)
  );
#268 = CARTESIAN_POINT('',(3.986203469477,2.017717293761,3.936308767824)
  );
#269 = CARTESIAN_POINT('',(4.004693582307,2.011107506266,3.810357552891)
  );
#270 = CARTESIAN_POINT('',(4.041305946616,1.998905480633,3.688694012349)
  );
#271 = CARTESIAN_POINT('',(4.141753093402,1.968782904292,3.475232959744)
  );
#272 = CARTESIAN_POINT('',(4.20182512368,1.95168282242,3.380367406031));
#273 = CARTESIAN_POINT('',(4.275372302097,1.932390538285,3.29183386082)
  );
#274 = CARTESIAN_POINT('',(4.362018455395,1.912328180461,3.211942151623)
  );
#275 = CARTESIAN_POINT('',(4.461025503555,1.893249154454,3.143101624356)
  );
#276 = CARTESIAN_POINT('',(4.571256817961,1.87699616804,3.087844980232)
  );
#277 = CARTESIAN_POINT('',(4.810194949628,1.853442575285,3.010209275072)
  );
#278 = CARTESIAN_POINT('',(4.9373940463,1.846244258673,2.988153359283));
#279 = CARTESIAN_POINT('',(5.068351585999,1.845219608066,2.985503334472)
  );
#280 = CARTESIAN_POINT('',(5.198175720619,1.851057428374,3.002972727435)
  );
#281 = CARTESIAN_POINT('',(5.322028544634,1.862891734139,3.03946997943)
  );
#282 = CARTESIAN_POINT('',(5.435578947938,1.87860286656,3.092052956228)
  );
#283 = CARTESIAN_POINT('',(5.666520646438,1.918467900867,3.238613014704)
  );
#284 = CARTESIAN_POINT('',(5.777182449273,1.944181538924,3.34194773831)
  );
#285 = CARTESIAN_POINT('',(5.866213396479,1.969325183209,3.460058375201)
  );
#286 = CARTESIAN_POINT('',(5.933072450998,1.990538617544,3.588467534015)
  );
#287 = CARTESIAN_POINT('',(5.977669946253,2.005469034168,3.723412470222)
  );
#288 = CARTESIAN_POINT('',(6.,2.012944593751,3.861652456216));
#289 = CARTESIAN_POINT('',(6.,2.012944593751,4.0000001));
#290 = PCURVE('',#133,#291);
#291 = DEFINITIONAL_REPRESENTATION('',(#292),#337);
#292 = B_SPLINE_CURVE_WITH_KNOTS('',7,(#293,#294,#295,#296,#297,#298,
    #299,#300,#301,#302,#303,#304,#305,#306,#307,#308,#309,#310,#311,
    #312,#313,#314,#315,#316,#317,#318,#319,#320,#321,#322,#323,#324,
    #325,#326,#327,#328,#329,#330,#331,#332,#333,#334,#335,#336),
  .UNSPECIFIED.,.T.,.F.,(8,6,6,6,6,6,6,8),(0.,0.148553447982,
    0.287593125787,0.425667210163,0.57491269788,0.703969011941,
    0.832471007913,1.),.UNSPECIFIED.);
#293 = CARTESIAN_POINT('',(-5.035439039898,-4.1));
#294 = CARTESIAN_POINT('',(-5.035439039898,-4.222128125903));
#295 = CARTESIAN_POINT('',(-5.02961350604,-4.344111505047));
#296 = CARTESIAN_POINT('',(-5.017987391453,-4.463812775541));
#297 = CARTESIAN_POINT('',(-5.000629723181,-4.579019933126));
#298 = CARTESIAN_POINT('',(-4.977701388122,-4.687241070111));
#299 = CARTESIAN_POINT('',(-4.949434085377,-4.785579855725));
#300 = CARTESIAN_POINT('',(-4.885003163685,-4.950007262813));
#301 = CARTESIAN_POINT('',(-4.848659417603,-5.019805639008));
#302 = CARTESIAN_POINT('',(-4.808035634602,-5.07322494206));
#303 = CARTESIAN_POINT('',(-4.764619144768,-5.105972353498));
#304 = CARTESIAN_POINT('',(-4.719958329471,-5.115858347616));
#305 = CARTESIAN_POINT('',(-4.675683792719,-5.102709022919));
#306 = CARTESIAN_POINT('',(-4.591325280246,-5.034694294335));
#307 = CARTESIAN_POINT('',(-4.552261578119,-4.980963718282));
#308 = CARTESIAN_POINT('',(-4.51686590097,-4.910730626915));
#309 = CARTESIAN_POINT('',(-4.485668622711,-4.827097647334));
#310 = CARTESIAN_POINT('',(-4.459128468521,-4.733090721001));
#311 = CARTESIAN_POINT('',(-4.437554520056,-4.631683885807));
#312 = CARTESIAN_POINT('',(-4.403184820949,-4.411306087629));
#313 = CARTESIAN_POINT('',(-4.390939090946,-4.289642547159));
#314 = CARTESIAN_POINT('',(-4.384703975615,-4.163691332145));
#315 = CARTESIAN_POINT('',(-4.384703975631,-4.036308667824));
#316 = CARTESIAN_POINT('',(-4.390939090936,-3.910357452891));
#317 = CARTESIAN_POINT('',(-4.403184820953,-3.788693912349));
#318 = CARTESIAN_POINT('',(-4.436475797674,-3.575232859744));
#319 = CARTESIAN_POINT('',(-4.456301942823,-3.480367306031));
#320 = CARTESIAN_POINT('',(-4.480431502672,-3.39183376082));
#321 = CARTESIAN_POINT('',(-4.50864196671,-3.311942051623));
#322 = CARTESIAN_POINT('',(-4.540606333159,-3.243101524356));
#323 = CARTESIAN_POINT('',(-4.575937777577,-3.187844880232));
#324 = CARTESIAN_POINT('',(-4.652158804849,-3.110209175072));
#325 = CARTESIAN_POINT('',(-4.692568939323,-3.088153259283));
#326 = CARTESIAN_POINT('',(-4.734063649685,-3.085503234472));
#327 = CARTESIAN_POINT('',(-4.775217809265,-3.102972627435));
#328 = CARTESIAN_POINT('',(-4.814657836965,-3.13946987943));
#329 = CARTESIAN_POINT('',(-4.851028546237,-3.192052856228));
#330 = CARTESIAN_POINT('',(-4.925427651844,-3.338612914704));
#331 = CARTESIAN_POINT('',(-4.961434864805,-3.44194763831));
#332 = CARTESIAN_POINT('',(-4.990766964358,-3.560058275201));
#333 = CARTESIAN_POINT('',(-5.013033621252,-3.688467434015));
#334 = CARTESIAN_POINT('',(-5.027963334416,-3.823412370222));
#335 = CARTESIAN_POINT('',(-5.035439039898,-3.961652356216));
#336 = CARTESIAN_POINT('',(-5.035439039898,-4.1));
#337 = ( GEOMETRIC_REPRESENTATION_CONTEXT(2) 
PARAMETRIC_REPRESENTATION_CONTEXT() REPRESENTATION_CONTEXT('2D SPACE',''
  ) );
#338 = PCURVE('',#339,#344);
#339 = CYLINDRICAL_SURFACE('',#340,1.);
#340 = AXIS2_PLACEMENT_3D('',#341,#342,#343);
#341 = CARTESIAN_POINT('',(5.,11.,4.0000001));
#342 = DIRECTION('',(0.,1.,0.));
#343 = DIRECTION('',(1.,0.,0.));
#344 = DEFINITIONAL_REPRESENTATION('',(#345),#390);
#345 = B_SPLINE_CURVE_WITH_KNOTS('',7,(#346,#347,#348,#349,#350,#351,
    #352,#353,#354,#355,#356,#357,#358,#359,#360,#361,#362,#363,#364,
    #365,#366,#367,#368,#369,#370,#371,#372,#373,#374,#375,#376,#377,
    #378,#379,#380,#381,#382,#383,#384,#385,#386,#387,#388,#389),
  .UNSPECIFIED.,.F.,.F.,(8,6,6,6,6,6,6,8),(0.,0.148553447982,
    0.287593125787,0.425667210163,0.57491269788,0.703969011941,
    0.832471007913,1.),.UNSPECIFIED.);
#346 = CARTESIAN_POINT('',(0.,-8.987055406249));
#347 = CARTESIAN_POINT('',(-0.122128125903,-8.987055406249));
#348 = CARTESIAN_POINT('',(-0.244111339332,-8.99288093363));
#349 = CARTESIAN_POINT('',(-0.366788603761,-9.004507036417));
#350 = CARTESIAN_POINT('',(-0.490888333409,-9.021226358697));
#351 = CARTESIAN_POINT('',(-0.617163431381,-9.04161348702));
#352 = CARTESIAN_POINT('',(-0.746401213568,-9.063618138949));
#353 = CARTESIAN_POINT('',(-1.004357314582,-9.104687954117));
#354 = CARTESIAN_POINT('',(-1.13579106111,-9.124361751062));
#355 = CARTESIAN_POINT('',(-1.27089096909,-9.14114731807));
#356 = CARTESIAN_POINT('',(-1.408150076971,-9.152004207246));
#357 = CARTESIAN_POINT('',(-1.546467031744,-9.155140890933));
#358 = CARTESIAN_POINT('',(-1.684901183798,-9.150693829791));
#359 = CARTESIAN_POINT('',(-1.958393320367,-9.129714720843));
#360 = CARTESIAN_POINT('',(-2.090072217296,-9.113527157262));
#361 = CARTESIAN_POINT('',(-2.21809015991,-9.093457885256));
#362 = CARTESIAN_POINT('',(-2.342984825283,-9.071783674477));
#363 = CARTESIAN_POINT('',(-2.465132084463,-9.050753168895));
#364 = CARTESIAN_POINT('',(-2.584725663617,-9.032193152901));
#365 = CARTESIAN_POINT('',(-2.828283587285,-9.001094519364));
#366 = CARTESIAN_POINT('',(-2.953956978066,-8.988892493743));
#367 = CARTESIAN_POINT('',(-3.0791006348,-8.982282706225));
#368 = CARTESIAN_POINT('',(-3.204084672413,-8.982282706239));
#369 = CARTESIAN_POINT('',(-3.329228329058,-8.988892493734));
#370 = CARTESIAN_POINT('',(-3.454901719918,-9.001094519367));
#371 = CARTESIAN_POINT('',(-3.690815369962,-9.031217095708));
#372 = CARTESIAN_POINT('',(-3.802229494036,-9.04831717758));
#373 = CARTESIAN_POINT('',(-3.915791607433,-9.067609461715));
#374 = CARTESIAN_POINT('',(-4.03173919163,-9.087671819539));
#375 = CARTESIAN_POINT('',(-4.150430450467,-9.106750845546));
#376 = CARTESIAN_POINT('',(-4.272342151445,-9.12300383196));
#377 = CARTESIAN_POINT('',(-4.523576570823,-9.146557424715));
#378 = CARTESIAN_POINT('',(-4.651365520536,-9.153755741327));
#379 = CARTESIAN_POINT('',(-4.779950224962,-9.154780391934));
#380 = CARTESIAN_POINT('',(-4.908234362382,-9.148942571626));
#381 = CARTESIAN_POINT('',(-5.035095375669,-9.137108265861));
#382 = CARTESIAN_POINT('',(-5.159144719478,-9.12139713344));
#383 = CARTESIAN_POINT('',(-5.432666051089,-9.081532099133));
#384 = CARTESIAN_POINT('',(-5.58147147407,-9.055818461076));
#385 = CARTESIAN_POINT('',(-5.725980910399,-9.030674816791));
#386 = CARTESIAN_POINT('',(-5.867324167048,-9.009461382456));
#387 = CARTESIAN_POINT('',(-6.006598569316,-8.994530965832));
#388 = CARTESIAN_POINT('',(-6.144837663396,-8.987055406249));
#389 = CARTESIAN_POINT('',(-6.28318530718,-8.987055406249));
#390 = ( GEOMETRIC_REPRESENTATION_CONTEXT(2) 
PARAMETRIC_REPRESENTATION_CONTEXT() REPRESENTATION_CONTEXT('2D SPACE',''
  ) );
#391 = FACE_BOUND('',#392,.T.);
#392 = EDGE_LOOP('',(#393));
#393 = ORIENTED_EDGE('',*,*,#394,.F.);
#394 = EDGE_CURVE('',#395,#395,#397,.T.);
#395 = VERTEX_POINT('',#396);
#396 = CARTESIAN_POINT('',(6.,7.987055406249,4.0000001));
#397 = SURFACE_CURVE('',#398,(#443,#491),.PCURVE_S1.);
#398 = B_SPLINE_CURVE_WITH_KNOTS('',7,(#399,#400,#401,#402,#403,#404,
    #405,#406,#407,#408,#409,#410,#411,#412,#413,#414,#415,#416,#417,
    #418,#419,#420,#421,#422,#423,#424,#425,#426,#427,#428,#429,#430,
    #431,#432,#433,#434,#435,#436,#437,#438,#439,#440,#441,#442),
  .UNSPECIFIED.,.T.,.F.,(8,6,6,6,6,6,6,8),(0.,0.148553448014,
    0.287593125849,0.425667210255,0.574912697967,0.703969012003,
    0.832471007952,1.),.UNSPECIFIED.);
#399 = CARTESIAN_POINT('',(6.,7.987055406249,4.0000001));
#400 = CARTESIAN_POINT('',(6.,7.987055406249,4.122128225903));
#401 = CARTESIAN_POINT('',(5.982598921773,7.99288093363,4.244111605047)
  );
#402 = CARTESIAN_POINT('',(5.947870436548,8.004507036417,4.363812875541)
  );
#403 = CARTESIAN_POINT('',(5.895810229871,8.021226358697,4.479020033126)
  );
#404 = CARTESIAN_POINT('',(5.826467100243,8.04161348702,4.587241170111)
  );
#405 = CARTESIAN_POINT('',(5.74009081831,8.063618138949,4.685579955725)
  );
#406 = CARTESIAN_POINT('',(5.541332226424,8.104687954117,4.850007362813)
  );
#407 = CARTESIAN_POINT('',(5.428495445664,8.124361751062,4.919805739008)
  );
#408 = CARTESIAN_POINT('',(5.301458686371,8.14114731807,4.973225042061)
  );
#409 = CARTESIAN_POINT('',(5.164752454134,8.152004207246,5.005972453497)
  );
#410 = CARTESIAN_POINT('',(5.023770235714,8.155140890933,5.015858447616)
  );
#411 = CARTESIAN_POINT('',(4.88422156921,8.150693829791,5.002709122919)
  );
#412 = CARTESIAN_POINT('',(4.619321691028,8.129714720843,4.934694394335)
  );
#413 = CARTESIAN_POINT('',(4.497167790428,8.113527157262,4.880963818282)
  );
#414 = CARTESIAN_POINT('',(4.387294718041,8.093457885256,4.810730726915)
  );
#415 = CARTESIAN_POINT('',(4.291338781102,8.071783674477,4.727097747334)
  );
#416 = CARTESIAN_POINT('',(4.210389907879,8.050753168895,4.633090821001)
  );
#417 = CARTESIAN_POINT('',(4.1450078668,8.032193152901,4.531683985807));
#418 = CARTESIAN_POINT('',(4.041305946619,8.001094519368,4.311306187657)
  );
#419 = CARTESIAN_POINT('',(4.004693582301,7.988892493732,4.189642647101)
  );
#420 = CARTESIAN_POINT('',(3.986203469481,7.98228270624,4.063691432172)
  );
#421 = CARTESIAN_POINT('',(3.986203469429,7.982282706225,3.936308767861)
  );
#422 = CARTESIAN_POINT('',(4.004693582335,7.988892493743,3.810357552843)
  );
#423 = CARTESIAN_POINT('',(4.041305946608,8.001094519365,3.688694012367)
  );
#424 = CARTESIAN_POINT('',(4.141753093402,8.031217095708,3.475232959744)
  );
#425 = CARTESIAN_POINT('',(4.20182512368,8.04831717758,3.380367406031));
#426 = CARTESIAN_POINT('',(4.275372302097,8.067609461715,3.29183386082)
  );
#427 = CARTESIAN_POINT('',(4.362018455395,8.087671819539,3.211942151623)
  );
#428 = CARTESIAN_POINT('',(4.461025503555,8.106750845546,3.143101624356)
  );
#429 = CARTESIAN_POINT('',(4.571256817961,8.12300383196,3.087844980232)
  );
#430 = CARTESIAN_POINT('',(4.810194949628,8.146557424715,3.010209275072)
  );
#431 = CARTESIAN_POINT('',(4.9373940463,8.153755741327,2.988153359283));
#432 = CARTESIAN_POINT('',(5.068351585998,8.154780391934,2.985503334472)
  );
#433 = CARTESIAN_POINT('',(5.19817572062,8.148942571626,3.002972727436)
  );
#434 = CARTESIAN_POINT('',(5.322028544633,8.137108265861,3.03946997943)
  );
#435 = CARTESIAN_POINT('',(5.435578947938,8.12139713344,3.092052956228)
  );
#436 = CARTESIAN_POINT('',(5.666520646432,8.081532099134,3.2386130147));
#437 = CARTESIAN_POINT('',(5.777182449279,8.055818461076,3.341947738311)
  );
#438 = CARTESIAN_POINT('',(5.866213396483,8.030674816789,3.460058375212)
  );
#439 = CARTESIAN_POINT('',(5.93307245099,8.009461382459,3.58846753401));
#440 = CARTESIAN_POINT('',(5.977669946255,7.994530965831,3.723412470213)
  );
#441 = CARTESIAN_POINT('',(6.,7.987055406249,3.861652456224));
#442 = CARTESIAN_POINT('',(6.,7.987055406249,4.0000001));
#443 = PCURVE('',#133,#444);
#444 = DEFINITIONAL_REPRESENTATION('',(#445),#490);
#445 = B_SPLINE_CURVE_WITH_KNOTS('',7,(#446,#447,#448,#449,#450,#451,
    #452,#453,#454,#455,#456,#457,#458,#459,#460,#461,#462,#463,#464,
    #465,#466,#467,#468,#469,#470,#471,#472,#473,#474,#475,#476,#477,
    #478,#479,#480,#481,#482,#483,#484,#485,#486,#487,#488,#489),
  .UNSPECIFIED.,.T.,.F.,(8,6,6,6,6,6,6,8),(0.,0.148553448014,
    0.287593125849,0.425667210255,0.574912697967,0.703969012003,
    0.832471007952,1.),.UNSPECIFIED.);
#446 = CARTESIAN_POINT('',(-1.247746267282,-4.1));
#447 = CARTESIAN_POINT('',(-1.247746267282,-4.222128125903));
#448 = CARTESIAN_POINT('',(-1.25357180114,-4.344111505047));
#449 = CARTESIAN_POINT('',(-1.265197915727,-4.463812775541));
#450 = CARTESIAN_POINT('',(-1.282555583998,-4.579019933126));
#451 = CARTESIAN_POINT('',(-1.305483919057,-4.687241070111));
#452 = CARTESIAN_POINT('',(-1.333751221803,-4.785579855725));
#453 = CARTESIAN_POINT('',(-1.398182143495,-4.950007262813));
#454 = CARTESIAN_POINT('',(-1.434525889577,-5.019805639008));
#455 = CARTESIAN_POINT('',(-1.475149672578,-5.07322494206));
#456 = CARTESIAN_POINT('',(-1.518566162412,-5.105972353497));
#457 = CARTESIAN_POINT('',(-1.563226977708,-5.115858347616));
#458 = CARTESIAN_POINT('',(-1.607501514461,-5.102709022919));
#459 = CARTESIAN_POINT('',(-1.691860026934,-5.034694294335));
#460 = CARTESIAN_POINT('',(-1.73092372906,-4.980963718282));
#461 = CARTESIAN_POINT('',(-1.76631940621,-4.910730626915));
#462 = CARTESIAN_POINT('',(-1.797516684469,-4.827097647334));
#463 = CARTESIAN_POINT('',(-1.824056838659,-4.733090721001));
#464 = CARTESIAN_POINT('',(-1.845630787124,-4.631683885807));
#465 = CARTESIAN_POINT('',(-1.880000486226,-4.411306087657));
#466 = CARTESIAN_POINT('',(-1.892246216246,-4.289642547101));
#467 = CARTESIAN_POINT('',(-1.898481331548,-4.163691332172));
#468 = CARTESIAN_POINT('',(-1.898481331565,-4.036308667861));
#469 = CARTESIAN_POINT('',(-1.892246216235,-3.910357452843));
#470 = CARTESIAN_POINT('',(-1.880000486229,-3.788693912367));
#471 = CARTESIAN_POINT('',(-1.846709509506,-3.575232859744));
#472 = CARTESIAN_POINT('',(-1.826883364357,-3.480367306031));
#473 = CARTESIAN_POINT('',(-1.802753804508,-3.39183376082));
#474 = CARTESIAN_POINT('',(-1.774543340469,-3.311942051623));
#475 = CARTESIAN_POINT('',(-1.742578974021,-3.243101524356));
#476 = CARTESIAN_POINT('',(-1.707247529603,-3.187844880232));
#477 = CARTESIAN_POINT('',(-1.631026502331,-3.110209175072));
#478 = CARTESIAN_POINT('',(-1.590616367857,-3.088153259283));
#479 = CARTESIAN_POINT('',(-1.549121657495,-3.085503234471));
#480 = CARTESIAN_POINT('',(-1.507967497914,-3.102972627436));
#481 = CARTESIAN_POINT('',(-1.468527470215,-3.13946987943));
#482 = CARTESIAN_POINT('',(-1.432156760943,-3.192052856228));
#483 = CARTESIAN_POINT('',(-1.357757655337,-3.3386129147));
#484 = CARTESIAN_POINT('',(-1.321750442373,-3.441947638311));
#485 = CARTESIAN_POINT('',(-1.29241834282,-3.560058275212));
#486 = CARTESIAN_POINT('',(-1.270151685931,-3.68846743401));
#487 = CARTESIAN_POINT('',(-1.255221972762,-3.823412370213));
#488 = CARTESIAN_POINT('',(-1.247746267282,-3.961652356224));
#489 = CARTESIAN_POINT('',(-1.247746267282,-4.1));
#490 = ( GEOMETRIC_REPRESENTATION_CONTEXT(2) 
PARAMETRIC_REPRESENTATION_CONTEXT() REPRESENTATION_CONTEXT('2D SPACE',''
  ) );
#491 = PCURVE('',#492,#497);
#492 = CYLINDRICAL_SURFACE('',#493,1.);
#493 = AXIS2_PLACEMENT_3D('',#494,#495,#496);
#494 = CARTESIAN_POINT('',(5.,11.,4.0000001));
#495 = DIRECTION('',(0.,1.,0.));
#496 = DIRECTION('',(1.,0.,0.));
#497 = DEFINITIONAL_REPRESENTATION('',(#498),#543);
#498 = B_SPLINE_CURVE_WITH_KNOTS('',7,(#499,#500,#501,#502,#503,#504,
    #505,#506,#507,#508,#509,#510,#511,#512,#513,#514,#515,#516,#517,
    #518,#519,#520,#521,#522,#523,#524,#525,#526,#527,#528,#529,#530,
    #531,#532,#533,#534,#535,#536,#537,#538,#539,#540,#541,#542),
  .UNSPECIFIED.,.F.,.F.,(8,6,6,6,6,6,6,8),(0.,0.148553448014,
    0.287593125849,0.425667210255,0.574912697967,0.703969012003,
    0.832471007952,1.),.UNSPECIFIED.);
#499 = CARTESIAN_POINT('',(0.,-3.012944593751));
#500 = CARTESIAN_POINT('',(-0.122128125903,-3.012944593751));
#501 = CARTESIAN_POINT('',(-0.244111339332,-3.00711906637));
#502 = CARTESIAN_POINT('',(-0.36678860376,-2.995492963583));
#503 = CARTESIAN_POINT('',(-0.490888333409,-2.978773641303));
#504 = CARTESIAN_POINT('',(-0.617163431381,-2.95838651298));
#505 = CARTESIAN_POINT('',(-0.746401213568,-2.936381861051));
#506 = CARTESIAN_POINT('',(-1.004357314582,-2.895312045883));
#507 = CARTESIAN_POINT('',(-1.13579106111,-2.875638248938));
#508 = CARTESIAN_POINT('',(-1.270890969091,-2.85885268193));
#509 = CARTESIAN_POINT('',(-1.408150076971,-2.847995792754));
#510 = CARTESIAN_POINT('',(-1.546467031744,-2.844859109067));
#511 = CARTESIAN_POINT('',(-1.684901183798,-2.849306170209));
#512 = CARTESIAN_POINT('',(-1.958393320367,-2.870285279157));
#513 = CARTESIAN_POINT('',(-2.090072217296,-2.886472842738));
#514 = CARTESIAN_POINT('',(-2.21809015991,-2.906542114744));
#515 = CARTESIAN_POINT('',(-2.342984825284,-2.928216325523));
#516 = CARTESIAN_POINT('',(-2.465132084463,-2.949246831105));
#517 = CARTESIAN_POINT('',(-2.584725663617,-2.967806847099));
#518 = CARTESIAN_POINT('',(-2.828283587254,-2.998905480632));
#519 = CARTESIAN_POINT('',(-2.953956978131,-3.011107506268));
#520 = CARTESIAN_POINT('',(-3.079100634769,-3.01771729376));
#521 = CARTESIAN_POINT('',(-3.204084672375,-3.017717293775));
#522 = CARTESIAN_POINT('',(-3.32922832911,-3.011107506257));
#523 = CARTESIAN_POINT('',(-3.454901719899,-2.998905480635));
#524 = CARTESIAN_POINT('',(-3.690815369962,-2.968782904292));
#525 = CARTESIAN_POINT('',(-3.802229494036,-2.95168282242));
#526 = CARTESIAN_POINT('',(-3.915791607433,-2.932390538285));
#527 = CARTESIAN_POINT('',(-4.03173919163,-2.912328180461));
#528 = CARTESIAN_POINT('',(-4.150430450467,-2.893249154454));
#529 = CARTESIAN_POINT('',(-4.272342151445,-2.87699616804));
#530 = CARTESIAN_POINT('',(-4.523576570823,-2.853442575285));
#531 = CARTESIAN_POINT('',(-4.651365520536,-2.846244258673));
#532 = CARTESIAN_POINT('',(-4.779950224961,-2.845219608066));
#533 = CARTESIAN_POINT('',(-4.908234362383,-2.851057428374));
#534 = CARTESIAN_POINT('',(-5.035095375668,-2.862891734139));
#535 = CARTESIAN_POINT('',(-5.159144719478,-2.87860286656));
#536 = CARTESIAN_POINT('',(-5.432666051082,-2.918467900866));
#537 = CARTESIAN_POINT('',(-5.581471474075,-2.944181538924));
#538 = CARTESIAN_POINT('',(-5.725980910409,-2.969325183211));
#539 = CARTESIAN_POINT('',(-5.867324167041,-2.990538617541));
#540 = CARTESIAN_POINT('',(-6.006598569307,-3.005469034169));
#541 = CARTESIAN_POINT('',(-6.144837663404,-3.012944593751));
#542 = CARTESIAN_POINT('',(-6.28318530718,-3.012944593751));
#543 = ( GEOMETRIC_REPRESENTATION_CONTEXT(2) 
PARAMETRIC_REPRESENTATION_CONTEXT() REPRESENTATION_CONTEXT('2D SPACE',''
  ) );
#544 = ADVANCED_FACE('',(#545,#599,#747),#172,.T.);
#545 = FACE_BOUND('',#546,.F.);
#546 = EDGE_LOOP('',(#547,#570,#571,#572));
#547 = ORIENTED_EDGE('',*,*,#548,.F.);
#548 = EDGE_CURVE('',#152,#549,#551,.T.);
#549 = VERTEX_POINT('',#550);
#550 = CARTESIAN_POINT('',(9.,5.,10.0000001));
#551 = SEAM_CURVE('',#552,(#556,#563),.PCURVE_S1.);
#552 = LINE('',#553,#554);
#553 = CARTESIAN_POINT('',(9.,5.,1.E-07));
#554 = VECTOR('',#555,1.);
#555 = DIRECTION('',(0.,0.,1.));
#556 = PCURVE('',#172,#557);
#557 = DEFINITIONAL_REPRESENTATION('',(#558),#562);
#558 = LINE('',#559,#560);
#559 = CARTESIAN_POINT('',(-6.28318530718,0.));
#560 = VECTOR('',#561,1.);
#561 = DIRECTION('',(-0.,-1.));
#562 = ( GEOMETRIC_REPRESENTATION_CONTEXT(2) 
PARAMETRIC_REPRESENTATION_CONTEXT() REPRESENTATION_CONTEXT('2D SPACE',''
  ) );
#563 = PCURVE('',#172,#564);
#564 = DEFINITIONAL_REPRESENTATION('',(#565),#569);
#565 = LINE('',#566,#567);
#566 = CARTESIAN_POINT('',(-0.,0.));
#567 = VECTOR('',#568,1.);
#568 = DIRECTION('',(-0.,-1.));
#569 = ( GEOMETRIC_REPRESENTATION_CONTEXT(2) 
PARAMETRIC_REPRESENTATION_CONTEXT() REPRESENTATION_CONTEXT('2D SPACE',''
  ) );
#570 = ORIENTED_EDGE('',*,*,#151,.T.);
#571 = ORIENTED_EDGE('',*,*,#548,.T.);
#572 = ORIENTED_EDGE('',*,*,#573,.T.);
#573 = EDGE_CURVE('',#549,#549,#574,.T.);
#574 = SURFACE_CURVE('',#575,(#580,#587),.PCURVE_S1.);
#575 = CIRCLE('',#576,4.);
#576 = AXIS2_PLACEMENT_3D('',#577,#578,#579);
#577 = CARTESIAN_POINT('',(5.,5.,10.0000001));
#578 = DIRECTION('',(0.,0.,1.));
#579 = DIRECTION('',(1.,0.,0.));
#580 = PCURVE('',#172,#581);
#581 = DEFINITIONAL_REPRESENTATION('',(#582),#586);
#582 = LINE('',#583,#584);
#583 = CARTESIAN_POINT('',(-0.,-10.));
#584 = VECTOR('',#585,1.);
#585 = DIRECTION('',(-1.,0.));
#586 = ( GEOMETRIC_REPRESENTATION_CONTEXT(2) 
PARAMETRIC_REPRESENTATION_CONTEXT() REPRESENTATION_CONTEXT('2D SPACE',''
  ) );
#587 = PCURVE('',#588,#593);
#588 = PLANE('',#589);
#589 = AXIS2_PLACEMENT_3D('',#590,#591,#592);
#590 = CARTESIAN_POINT('',(5.,5.,10.0000001));
#591 = DIRECTION('',(0.,0.,1.));
#592 = DIRECTION('',(1.,0.,0.));
#593 = DEFINITIONAL_REPRESENTATION('',(#594),#598);
#594 = CIRCLE('',#595,4.);
#595 = AXIS2_PLACEMENT_2D('',#596,#597);
#596 = CARTESIAN_POINT('',(0.,0.));
#597 = DIRECTION('',(1.,0.));
#598 = ( GEOMETRIC_REPRESENTATION_CONTEXT(2) 
PARAMETRIC_REPRESENTATION_CONTEXT() REPRESENTATION_CONTEXT('2D SPACE',''
  ) );
#599 = FACE_BOUND('',#600,.F.);
#600 = EDGE_LOOP('',(#601));
#601 = ORIENTED_EDGE('',*,*,#602,.F.);
#602 = EDGE_CURVE('',#603,#603,#605,.T.);
#603 = VERTEX_POINT('',#604);
#604 = CARTESIAN_POINT('',(6.,8.872983346207,4.0000001));
#605 = SURFACE_CURVE('',#606,(#651,#699),.PCURVE_S1.);
#606 = B_SPLINE_CURVE_WITH_KNOTS('',7,(#607,#608,#609,#610,#611,#612,
    #613,#614,#615,#616,#617,#618,#619,#620,#621,#622,#623,#624,#625,
    #626,#627,#628,#629,#630,#631,#632,#633,#634,#635,#636,#637,#638,
    #639,#640,#641,#642,#643,#644,#645,#646,#647,#648,#649,#650),
  .UNSPECIFIED.,.T.,.F.,(8,6,6,6,6,6,6,8),(0.,0.14885800753,
    0.287407997728,0.425291784546,0.575122112244,0.704021845795,
    0.832109575681,1.),.UNSPECIFIED.);
#607 = CARTESIAN_POINT('',(6.,8.872983346207,4.0000001));
#608 = CARTESIAN_POINT('',(6.,8.872983346207,4.121563910988));
#609 = CARTESIAN_POINT('',(5.982759377611,8.877434813643,4.243150333158)
  );
#610 = CARTESIAN_POINT('',(5.948265888513,8.886341188044,4.362654413726)
  );
#611 = CARTESIAN_POINT('',(5.896429006034,8.89920931089,4.477871950533)
  );
#612 = CARTESIAN_POINT('',(5.827203414683,8.915018309188,4.586319505007)
  );
#613 = CARTESIAN_POINT('',(5.740685979533,8.932216315831,4.685087595542)
  );
#614 = CARTESIAN_POINT('',(5.541312615495,8.964398912603,4.850023586385)
  );
#615 = CARTESIAN_POINT('',(5.4285010246,8.979807868599,4.919791593218));
#616 = CARTESIAN_POINT('',(5.301474027271,8.993010687328,4.973225956052)
  );
#617 = CARTESIAN_POINT('',(5.16473355936,9.001589406047,5.005988836314)
  );
#618 = CARTESIAN_POINT('',(5.023710065268,9.004052132988,5.015864228056)
  );
#619 = CARTESIAN_POINT('',(4.884159499506,9.000537266828,5.002693186127)
  );
#620 = CARTESIAN_POINT('',(4.619099518778,8.984025890084,4.934637350196)
  );
#621 = CARTESIAN_POINT('',(4.496725302343,8.971274667231,4.880774807276)
  );
#622 = CARTESIAN_POINT('',(4.386708638857,8.955495861475,4.810348935822)
  );
#623 = CARTESIAN_POINT('',(4.29073798492,8.93853810655,4.726529898541));
#624 = CARTESIAN_POINT('',(4.209917927062,8.92218747682,4.632442734708)
  );
#625 = CARTESIAN_POINT('',(4.144771679985,8.907835362722,4.531182063276)
  );
#626 = CARTESIAN_POINT('',(4.041276876733,8.883801155009,4.311244411006)
  );
#627 = CARTESIAN_POINT('',(4.004685488355,8.874387093324,4.189578729768)
  );
#628 = CARTESIAN_POINT('',(3.986214114135,8.869310862172,4.063663538276)
  );
#629 = CARTESIAN_POINT('',(3.986214114135,8.869310862171,3.936336661725)
  );
#630 = CARTESIAN_POINT('',(4.004685488355,8.874387093324,3.810421470232)
  );
#631 = CARTESIAN_POINT('',(4.041276876734,8.883801155009,3.688755788993)
  );
#632 = CARTESIAN_POINT('',(4.14153998999,8.907084879547,3.475685827547)
  );
#633 = CARTESIAN_POINT('',(4.201401758815,8.920307775473,3.380967908553)
  );
#634 = CARTESIAN_POINT('',(4.274826511766,8.935299592436,3.29238376981)
  );
#635 = CARTESIAN_POINT('',(4.361467886311,8.95097778157,3.212338776688)
  );
#636 = CARTESIAN_POINT('',(4.460592881622,8.96595858819,3.143317915193)
  );
#637 = CARTESIAN_POINT('',(4.571022208268,8.978750438137,3.087921209542)
  );
#638 = CARTESIAN_POINT('',(4.810188110132,8.997282404351,3.010211497359)
  );
#639 = CARTESIAN_POINT('',(4.937372248947,9.002955122017,2.988158169618)
  );
#640 = CARTESIAN_POINT('',(5.068322004877,9.003772735043,2.985502166489)
  );
#641 = CARTESIAN_POINT('',(5.198138249256,8.999161836954,3.002968792479)
  );
#642 = CARTESIAN_POINT('',(5.321971330637,8.989840648281,3.039457999142)
  );
#643 = CARTESIAN_POINT('',(5.435516218427,8.977508226871,3.092013146871)
  );
#644 = CARTESIAN_POINT('',(5.667308438661,8.946175712127,3.239112962851)
  );
#645 = CARTESIAN_POINT('',(5.778195820426,8.926005227333,3.3429912313));
#646 = CARTESIAN_POINT('',(5.867095395542,8.906451829818,3.461441309896)
  );
#647 = CARTESIAN_POINT('',(5.933668534354,8.890110692956,3.589942126188)
  );
#648 = CARTESIAN_POINT('',(5.977914168402,8.878685710673,3.724695172263)
  );
#649 = CARTESIAN_POINT('',(6.,8.872983346207,3.862410667497));
#650 = CARTESIAN_POINT('',(6.,8.872983346207,4.0000001));
#651 = PCURVE('',#172,#652);
#652 = DEFINITIONAL_REPRESENTATION('',(#653),#698);
#653 = B_SPLINE_CURVE_WITH_KNOTS('',7,(#654,#655,#656,#657,#658,#659,
    #660,#661,#662,#663,#664,#665,#666,#667,#668,#669,#670,#671,#672,
    #673,#674,#675,#676,#677,#678,#679,#680,#681,#682,#683,#684,#685,
    #686,#687,#688,#689,#690,#691,#692,#693,#694,#695,#696,#697),
  .UNSPECIFIED.,.T.,.F.,(8,6,6,6,6,6,6,8),(0.,0.14885800753,
    0.287407997728,0.425291784546,0.575122112244,0.704021845795,
    0.832109575681,1.),.UNSPECIFIED.);
#654 = CARTESIAN_POINT('',(-1.318116071653,-4.));
#655 = CARTESIAN_POINT('',(-1.318116071653,-4.121563810988));
#656 = CARTESIAN_POINT('',(-1.322567596895,-4.243150233158));
#657 = CARTESIAN_POINT('',(-1.331473693043,-4.362654313726));
#658 = CARTESIAN_POINT('',(-1.34482592318,-4.477871850533));
#659 = CARTESIAN_POINT('',(-1.362570294392,-4.586319405006));
#660 = CARTESIAN_POINT('',(-1.384608387788,-4.685087495542));
#661 = CARTESIAN_POINT('',(-1.435096912365,-4.850023486385));
#662 = CARTESIAN_POINT('',(-1.463553139575,-4.919791493218));
#663 = CARTESIAN_POINT('',(-1.495454450704,-4.973225856052));
#664 = CARTESIAN_POINT('',(-1.529648407931,-5.005988736314));
#665 = CARTESIAN_POINT('',(-1.564857279976,-5.015864128056));
#666 = CARTESIAN_POINT('',(-1.599732199033,-5.002693086127));
#667 = CARTESIAN_POINT('',(-1.666125637596,-4.934637250196));
#668 = CARTESIAN_POINT('',(-1.696858202089,-4.880774707276));
#669 = CARTESIAN_POINT('',(-1.72461372166,-4.810348835822));
#670 = CARTESIAN_POINT('',(-1.748963098666,-4.726529798541));
#671 = CARTESIAN_POINT('',(-1.769572370087,-4.632442634708));
#672 = CARTESIAN_POINT('',(-1.78624841647,-4.531181963276));
#673 = CARTESIAN_POINT('',(-1.812810628163,-4.311244311006));
#674 = CARTESIAN_POINT('',(-1.822253697014,-4.189578629768));
#675 = CARTESIAN_POINT('',(-1.827043456088,-4.063663438276));
#676 = CARTESIAN_POINT('',(-1.827043456088,-3.936336561725));
#677 = CARTESIAN_POINT('',(-1.822253697014,-3.810421370232));
#678 = CARTESIAN_POINT('',(-1.812810628163,-3.688755688993));
#679 = CARTESIAN_POINT('',(-1.787077838152,-3.475685727547));
#680 = CARTESIAN_POINT('',(-1.771752733461,-3.380967808553));
#681 = CARTESIAN_POINT('',(-1.753021098892,-3.29238366981));
#682 = CARTESIAN_POINT('',(-1.73102110887,-3.212338676688));
#683 = CARTESIAN_POINT('',(-1.705979399176,-3.143317815193));
#684 = CARTESIAN_POINT('',(-1.678207723522,-3.087921109542));
#685 = CARTESIAN_POINT('',(-1.618237021099,-3.010211397359));
#686 = CARTESIAN_POINT('',(-1.58642639897,-2.988158069618));
#687 = CARTESIAN_POINT('',(-1.553727635048,-2.985502066489));
#688 = CARTESIAN_POINT('',(-1.5213030269,-3.002968692479));
#689 = CARTESIAN_POINT('',(-1.490284769332,-3.039457899142));
#690 = CARTESIAN_POINT('',(-1.461741449183,-3.092013046871));
#691 = CARTESIAN_POINT('',(-1.403266369106,-3.239112862851));
#692 = CARTESIAN_POINT('',(-1.375118946833,-3.3429911313));
#693 = CARTESIAN_POINT('',(-1.352379566379,-3.461441209896));
#694 = CARTESIAN_POINT('',(-1.335242551569,-3.589942026187));
#695 = CARTESIAN_POINT('',(-1.323818661519,-3.724695072263));
#696 = CARTESIAN_POINT('',(-1.318116071653,-3.862410567497));
#697 = CARTESIAN_POINT('',(-1.318116071653,-4.));
#698 = ( GEOMETRIC_REPRESENTATION_CONTEXT(2) 
PARAMETRIC_REPRESENTATION_CONTEXT() REPRESENTATION_CONTEXT('2D SPACE',''
  ) );
#699 = PCURVE('',#492,#700);
#700 = DEFINITIONAL_REPRESENTATION('',(#701),#746);
#701 = B_SPLINE_CURVE_WITH_KNOTS('',7,(#702,#703,#704,#705,#706,#707,
    #708,#709,#710,#711,#712,#713,#714,#715,#716,#717,#718,#719,#720,
    #721,#722,#723,#724,#725,#726,#727,#728,#729,#730,#731,#732,#733,
    #734,#735,#736,#737,#738,#739,#740,#741,#742,#743,#744,#745),
  .UNSPECIFIED.,.F.,.F.,(8,6,6,6,6,6,6,8),(0.,0.14885800753,
    0.287407997728,0.425291784546,0.575122112244,0.704021845795,
    0.832109575681,1.),.UNSPECIFIED.);
#702 = CARTESIAN_POINT('',(0.,-2.127016653793));
#703 = CARTESIAN_POINT('',(-0.121563810988,-2.127016653793));
#704 = CARTESIAN_POINT('',(-0.243150026085,-2.122565186357));
#705 = CARTESIAN_POINT('',(-0.365589240504,-2.113658811956));
#706 = CARTESIAN_POINT('',(-0.489612450918,-2.10079068911));
#707 = CARTESIAN_POINT('',(-0.616008544598,-2.084981690812));
#708 = CARTESIAN_POINT('',(-0.745628791772,-2.067783684169));
#709 = CARTESIAN_POINT('',(-1.004382766356,-2.035601087397));
#710 = CARTESIAN_POINT('',(-1.135777829567,-2.020192131401));
#711 = CARTESIAN_POINT('',(-1.270881293024,-2.006989312672));
#712 = CARTESIAN_POINT('',(-1.408169689186,-1.998410593953));
#713 = CARTESIAN_POINT('',(-1.546523997686,-1.995947867012));
#714 = CARTESIAN_POINT('',(-1.684965266787,-1.999462733172));
#715 = CARTESIAN_POINT('',(-1.958622698968,-2.015974109916));
#716 = CARTESIAN_POINT('',(-2.090547790083,-2.028725332769));
#717 = CARTESIAN_POINT('',(-2.218773784579,-2.044504138525));
#718 = CARTESIAN_POINT('',(-2.34379160491,-2.06146189345));
#719 = CARTESIAN_POINT('',(-2.465919423077,-2.07781252318));
#720 = CARTESIAN_POINT('',(-2.585280380155,-2.092164637278));
#721 = CARTESIAN_POINT('',(-2.828351861795,-2.116198844991));
#722 = CARTESIAN_POINT('',(-2.954017278358,-2.125612906676));
#723 = CARTESIAN_POINT('',(-3.079129216195,-2.130689137828));
#724 = CARTESIAN_POINT('',(-3.204056090983,-2.130689137829));
#725 = CARTESIAN_POINT('',(-3.329168028821,-2.125612906676));
#726 = CARTESIAN_POINT('',(-3.454833445386,-2.116198844991));
#727 = CARTESIAN_POINT('',(-3.690314867903,-2.092915120453));
#728 = CARTESIAN_POINT('',(-3.80150720822,-2.079692224527));
#729 = CARTESIAN_POINT('',(-3.915029252753,-2.064700407564));
#730 = CARTESIAN_POINT('',(-4.031076943317,-2.04902221843));
#731 = CARTESIAN_POINT('',(-4.149950983553,-2.03404141181));
#732 = CARTESIAN_POINT('',(-4.272095468215,-2.021249561863));
#733 = CARTESIAN_POINT('',(-4.523569379351,-2.002717595649));
#734 = CARTESIAN_POINT('',(-4.651343260412,-1.997044877983));
#735 = CARTESIAN_POINT('',(-4.779922071026,-1.996227264957));
#736 = CARTESIAN_POINT('',(-4.908195523499,-2.000838163046));
#737 = CARTESIAN_POINT('',(-5.035040641337,-2.010159351719));
#738 = CARTESIAN_POINT('',(-5.15907042428,-2.022491773129));
#739 = CARTESIAN_POINT('',(-5.433599091676,-2.053824287873));
#740 = CARTESIAN_POINT('',(-5.58288603381,-2.073994772667));
#741 = CARTESIAN_POINT('',(-5.72757754538,-2.093548170182));
#742 = CARTESIAN_POINT('',(-5.868870753985,-2.109889307044));
#743 = CARTESIAN_POINT('',(-6.007881007144,-2.121314289327));
#744 = CARTESIAN_POINT('',(-6.145595874676,-2.127016653793));
#745 = CARTESIAN_POINT('',(-6.28318530718,-2.127016653793));
#746 = ( GEOMETRIC_REPRESENTATION_CONTEXT(2) 
PARAMETRIC_REPRESENTATION_CONTEXT() REPRESENTATION_CONTEXT('2D SPACE',''
  ) );
#747 = FACE_BOUND('',#748,.F.);
#748 = EDGE_LOOP('',(#749));
#749 = ORIENTED_EDGE('',*,*,#750,.T.);
#750 = EDGE_CURVE('',#751,#751,#753,.T.);
#751 = VERTEX_POINT('',#752);
#752 = CARTESIAN_POINT('',(6.,1.127016653793,4.0000001));
#753 = SURFACE_CURVE('',#754,(#799,#847),.PCURVE_S1.);
#754 = B_SPLINE_CURVE_WITH_KNOTS('',7,(#755,#756,#757,#758,#759,#760,
    #761,#762,#763,#764,#765,#766,#767,#768,#769,#770,#771,#772,#773,
    #774,#775,#776,#777,#778,#779,#780,#781,#782,#783,#784,#785,#786,
    #787,#788,#789,#790,#791,#792,#793,#794,#795,#796,#797,#798),
  .UNSPECIFIED.,.T.,.F.,(8,6,6,6,6,6,6,8),(0.,0.14885800753,
    0.287407997727,0.425291784546,0.575122112243,0.704021845794,
    0.83210957568,1.),.UNSPECIFIED.);
#755 = CARTESIAN_POINT('',(6.,1.127016653793,4.0000001));
#756 = CARTESIAN_POINT('',(6.,1.127016653793,4.121563910988));
#757 = CARTESIAN_POINT('',(5.982759377611,1.122565186357,4.243150333158)
  );
#758 = CARTESIAN_POINT('',(5.948265888513,1.113658811956,4.362654413726)
  );
#759 = CARTESIAN_POINT('',(5.896429006034,1.10079068911,4.477871950534)
  );
#760 = CARTESIAN_POINT('',(5.827203414683,1.084981690812,4.586319505006)
  );
#761 = CARTESIAN_POINT('',(5.740685979532,1.067783684169,4.685087595542)
  );
#762 = CARTESIAN_POINT('',(5.541312615495,1.035601087397,4.850023586385)
  );
#763 = CARTESIAN_POINT('',(5.4285010246,1.020192131401,4.919791593218));
#764 = CARTESIAN_POINT('',(5.301474027271,1.006989312672,4.973225956052)
  );
#765 = CARTESIAN_POINT('',(5.16473355936,0.998410593953,5.005988836314)
  );
#766 = CARTESIAN_POINT('',(5.023710065267,0.995947867012,5.015864228056)
  );
#767 = CARTESIAN_POINT('',(4.884159499506,0.999462733172,5.002693186127)
  );
#768 = CARTESIAN_POINT('',(4.619099518778,1.015974109916,4.934637350196)
  );
#769 = CARTESIAN_POINT('',(4.496725302343,1.028725332769,4.880774807276)
  );
#770 = CARTESIAN_POINT('',(4.386708638856,1.044504138525,4.810348935822)
  );
#771 = CARTESIAN_POINT('',(4.29073798492,1.06146189345,4.726529898541));
#772 = CARTESIAN_POINT('',(4.209917927061,1.07781252318,4.632442734708)
  );
#773 = CARTESIAN_POINT('',(4.144771679985,1.092164637278,4.531182063276)
  );
#774 = CARTESIAN_POINT('',(4.041276876733,1.116198844991,4.311244411006)
  );
#775 = CARTESIAN_POINT('',(4.004685488355,1.125612906676,4.189578729768)
  );
#776 = CARTESIAN_POINT('',(3.986214114135,1.130689137828,4.063663538276)
  );
#777 = CARTESIAN_POINT('',(3.986214114135,1.130689137829,3.936336661725)
  );
#778 = CARTESIAN_POINT('',(4.004685488355,1.125612906676,3.810421470232)
  );
#779 = CARTESIAN_POINT('',(4.041276876734,1.116198844991,3.688755788993)
  );
#780 = CARTESIAN_POINT('',(4.14153998999,1.092915120453,3.475685827547)
  );
#781 = CARTESIAN_POINT('',(4.201401758815,1.079692224527,3.380967908553)
  );
#782 = CARTESIAN_POINT('',(4.274826511766,1.064700407564,3.29238376981)
  );
#783 = CARTESIAN_POINT('',(4.361467886311,1.04902221843,3.212338776688)
  );
#784 = CARTESIAN_POINT('',(4.460592881622,1.03404141181,3.143317915193)
  );
#785 = CARTESIAN_POINT('',(4.571022208268,1.021249561863,3.087921209542)
  );
#786 = CARTESIAN_POINT('',(4.810188110132,1.002717595649,3.010211497359)
  );
#787 = CARTESIAN_POINT('',(4.937372248947,0.997044877983,2.988158169618)
  );
#788 = CARTESIAN_POINT('',(5.068322004877,0.996227264957,2.985502166488)
  );
#789 = CARTESIAN_POINT('',(5.198138249256,1.000838163046,3.002968792479)
  );
#790 = CARTESIAN_POINT('',(5.321971330637,1.010159351719,3.039457999142)
  );
#791 = CARTESIAN_POINT('',(5.435516218427,1.022491773129,3.092013146871)
  );
#792 = CARTESIAN_POINT('',(5.667308438661,1.053824287873,3.239112962851)
  );
#793 = CARTESIAN_POINT('',(5.778195820425,1.073994772667,3.3429912313));
#794 = CARTESIAN_POINT('',(5.867095395542,1.093548170182,3.461441309897)
  );
#795 = CARTESIAN_POINT('',(5.933668534354,1.109889307044,3.589942126187)
  );
#796 = CARTESIAN_POINT('',(5.977914168402,1.121314289327,3.724695172264)
  );
#797 = CARTESIAN_POINT('',(6.,1.127016653793,3.862410667496));
#798 = CARTESIAN_POINT('',(6.,1.127016653793,4.0000001));
#799 = PCURVE('',#172,#800);
#800 = DEFINITIONAL_REPRESENTATION('',(#801),#846);
#801 = B_SPLINE_CURVE_WITH_KNOTS('',7,(#802,#803,#804,#805,#806,#807,
    #808,#809,#810,#811,#812,#813,#814,#815,#816,#817,#818,#819,#820,
    #821,#822,#823,#824,#825,#826,#827,#828,#829,#830,#831,#832,#833,
    #834,#835,#836,#837,#838,#839,#840,#841,#842,#843,#844,#845),
  .UNSPECIFIED.,.T.,.F.,(8,6,6,6,6,6,6,8),(0.,0.14885800753,
    0.287407997727,0.425291784546,0.575122112243,0.704021845794,
    0.83210957568,1.),.UNSPECIFIED.);
#802 = CARTESIAN_POINT('',(-4.965069235527,-4.));
#803 = CARTESIAN_POINT('',(-4.965069235527,-4.121563810988));
#804 = CARTESIAN_POINT('',(-4.960617710285,-4.243150233158));
#805 = CARTESIAN_POINT('',(-4.951711614136,-4.362654313726));
#806 = CARTESIAN_POINT('',(-4.938359383999,-4.477871850534));
#807 = CARTESIAN_POINT('',(-4.920615012787,-4.586319405006));
#808 = CARTESIAN_POINT('',(-4.898576919392,-4.685087495542));
#809 = CARTESIAN_POINT('',(-4.848088394815,-4.850023486385));
#810 = CARTESIAN_POINT('',(-4.819632167605,-4.919791493218));
#811 = CARTESIAN_POINT('',(-4.787730856475,-4.973225856052));
#812 = CARTESIAN_POINT('',(-4.753536899249,-5.005988736314));
#813 = CARTESIAN_POINT('',(-4.718328027203,-5.015864128056));
#814 = CARTESIAN_POINT('',(-4.683453108146,-5.002693086127));
#815 = CARTESIAN_POINT('',(-4.617059669584,-4.934637250196));
#816 = CARTESIAN_POINT('',(-4.586327105091,-4.880774707276));
#817 = CARTESIAN_POINT('',(-4.558571585519,-4.810348835822));
#818 = CARTESIAN_POINT('',(-4.534222208513,-4.726529798541));
#819 = CARTESIAN_POINT('',(-4.513612937092,-4.632442634708));
#820 = CARTESIAN_POINT('',(-4.49693689071,-4.531181963276));
#821 = CARTESIAN_POINT('',(-4.470374679016,-4.311244311006));
#822 = CARTESIAN_POINT('',(-4.460931610166,-4.189578629768));
#823 = CARTESIAN_POINT('',(-4.456141851092,-4.063663438276));
#824 = CARTESIAN_POINT('',(-4.456141851092,-3.936336561725));
#825 = CARTESIAN_POINT('',(-4.460931610166,-3.810421370232));
#826 = CARTESIAN_POINT('',(-4.470374679017,-3.688755688993));
#827 = CARTESIAN_POINT('',(-4.496107469028,-3.475685727547));
#828 = CARTESIAN_POINT('',(-4.511432573719,-3.380967808553));
#829 = CARTESIAN_POINT('',(-4.530164208287,-3.29238366981));
#830 = CARTESIAN_POINT('',(-4.55216419831,-3.212338676688));
#831 = CARTESIAN_POINT('',(-4.577205908004,-3.143317815193));
#832 = CARTESIAN_POINT('',(-4.604977583658,-3.087921109542));
#833 = CARTESIAN_POINT('',(-4.664948286081,-3.010211397359));
#834 = CARTESIAN_POINT('',(-4.69675890821,-2.988158069618));
#835 = CARTESIAN_POINT('',(-4.729457672132,-2.985502066488));
#836 = CARTESIAN_POINT('',(-4.761882280279,-3.002968692479));
#837 = CARTESIAN_POINT('',(-4.792900537848,-3.039457899142));
#838 = CARTESIAN_POINT('',(-4.821443857996,-3.092013046871));
#839 = CARTESIAN_POINT('',(-4.879918938074,-3.239112862851));
#840 = CARTESIAN_POINT('',(-4.908066360347,-3.3429911313));
#841 = CARTESIAN_POINT('',(-4.9308057408,-3.461441209897));
#842 = CARTESIAN_POINT('',(-4.947942755611,-3.589942026187));
#843 = CARTESIAN_POINT('',(-4.95936664566,-3.724695072264));
#844 = CARTESIAN_POINT('',(-4.965069235527,-3.862410567496));
#845 = CARTESIAN_POINT('',(-4.965069235527,-4.));
#846 = ( GEOMETRIC_REPRESENTATION_CONTEXT(2) 
PARAMETRIC_REPRESENTATION_CONTEXT() REPRESENTATION_CONTEXT('2D SPACE',''
  ) );
#847 = PCURVE('',#339,#848);
#848 = DEFINITIONAL_REPRESENTATION('',(#849),#894);
#849 = B_SPLINE_CURVE_WITH_KNOTS('',7,(#850,#851,#852,#853,#854,#855,
    #856,#857,#858,#859,#860,#861,#862,#863,#864,#865,#866,#867,#868,
    #869,#870,#871,#872,#873,#874,#875,#876,#877,#878,#879,#880,#881,
    #882,#883,#884,#885,#886,#887,#888,#889,#890,#891,#892,#893),
  .UNSPECIFIED.,.F.,.F.,(8,6,6,6,6,6,6,8),(0.,0.14885800753,
    0.287407997727,0.425291784546,0.575122112243,0.704021845794,
    0.83210957568,1.),.UNSPECIFIED.);
#850 = CARTESIAN_POINT('',(0.,-9.872983346207));
#851 = CARTESIAN_POINT('',(-0.121563810988,-9.872983346207));
#852 = CARTESIAN_POINT('',(-0.243150026085,-9.877434813643));
#853 = CARTESIAN_POINT('',(-0.365589240504,-9.886341188044));
#854 = CARTESIAN_POINT('',(-0.489612450918,-9.89920931089));
#855 = CARTESIAN_POINT('',(-0.616008544598,-9.915018309188));
#856 = CARTESIAN_POINT('',(-0.745628791773,-9.932216315831));
#857 = CARTESIAN_POINT('',(-1.004382766356,-9.964398912603));
#858 = CARTESIAN_POINT('',(-1.135777829566,-9.979807868599));
#859 = CARTESIAN_POINT('',(-1.270881293025,-9.993010687328));
#860 = CARTESIAN_POINT('',(-1.408169689185,-10.00158940604));
#861 = CARTESIAN_POINT('',(-1.546523997686,-10.00405213298));
#862 = CARTESIAN_POINT('',(-1.684965266787,-10.00053726682));
#863 = CARTESIAN_POINT('',(-1.958622698968,-9.984025890084));
#864 = CARTESIAN_POINT('',(-2.090547790083,-9.971274667231));
#865 = CARTESIAN_POINT('',(-2.21877378458,-9.955495861475));
#866 = CARTESIAN_POINT('',(-2.34379160491,-9.93853810655));
#867 = CARTESIAN_POINT('',(-2.465919423077,-9.92218747682));
#868 = CARTESIAN_POINT('',(-2.585280380155,-9.907835362722));
#869 = CARTESIAN_POINT('',(-2.828351861794,-9.883801155009));
#870 = CARTESIAN_POINT('',(-2.954017278358,-9.874387093324));
#871 = CARTESIAN_POINT('',(-3.079129216195,-9.869310862172));
#872 = CARTESIAN_POINT('',(-3.204056090983,-9.869310862171));
#873 = CARTESIAN_POINT('',(-3.329168028822,-9.874387093324));
#874 = CARTESIAN_POINT('',(-3.454833445387,-9.883801155009));
#875 = CARTESIAN_POINT('',(-3.690314867903,-9.907084879547));
#876 = CARTESIAN_POINT('',(-3.80150720822,-9.920307775473));
#877 = CARTESIAN_POINT('',(-3.915029252753,-9.935299592436));
#878 = CARTESIAN_POINT('',(-4.031076943317,-9.95097778157));
#879 = CARTESIAN_POINT('',(-4.149950983553,-9.96595858819));
#880 = CARTESIAN_POINT('',(-4.272095468215,-9.978750438137));
#881 = CARTESIAN_POINT('',(-4.523569379351,-9.997282404351));
#882 = CARTESIAN_POINT('',(-4.651343260412,-10.00295512201));
#883 = CARTESIAN_POINT('',(-4.779922071026,-10.00377273504));
#884 = CARTESIAN_POINT('',(-4.908195523499,-9.999161836954));
#885 = CARTESIAN_POINT('',(-5.035040641337,-9.989840648281));
#886 = CARTESIAN_POINT('',(-5.15907042428,-9.977508226871));
#887 = CARTESIAN_POINT('',(-5.433599091676,-9.946175712127));
#888 = CARTESIAN_POINT('',(-5.582886033809,-9.926005227333));
#889 = CARTESIAN_POINT('',(-5.727577545381,-9.906451829818));
#890 = CARTESIAN_POINT('',(-5.868870753984,-9.890110692956));
#891 = CARTESIAN_POINT('',(-6.007881007144,-9.878685710673));
#892 = CARTESIAN_POINT('',(-6.145595874676,-9.872983346207));
#893 = CARTESIAN_POINT('',(-6.28318530718,-9.872983346207));
#894 = ( GEOMETRIC_REPRESENTATION_CONTEXT(2) 
PARAMETRIC_REPRESENTATION_CONTEXT() REPRESENTATION_CONTEXT('2D SPACE',''
  ) );
#895 = ADVANCED_FACE('',(#896),#227,.F.);
#896 = FACE_BOUND('',#897,.F.);
#897 = EDGE_LOOP('',(#898));
#898 = ORIENTED_EDGE('',*,*,#212,.T.);
#899 = ADVANCED_FACE('',(#900),#339,.F.);
#900 = FACE_BOUND('',#901,.T.);
#901 = EDGE_LOOP('',(#902,#903,#924,#925));
#902 = ORIENTED_EDGE('',*,*,#241,.F.);
#903 = ORIENTED_EDGE('',*,*,#904,.T.);
#904 = EDGE_CURVE('',#242,#751,#905,.T.);
#905 = SEAM_CURVE('',#906,(#910,#917),.PCURVE_S1.);
#906 = LINE('',#907,#908);
#907 = CARTESIAN_POINT('',(6.,11.,4.0000001));
#908 = VECTOR('',#909,1.);
#909 = DIRECTION('',(0.,-1.,0.));
#910 = PCURVE('',#339,#911);
#911 = DEFINITIONAL_REPRESENTATION('',(#912),#916);
#912 = LINE('',#913,#914);
#913 = CARTESIAN_POINT('',(-6.28318530718,0.));
#914 = VECTOR('',#915,1.);
#915 = DIRECTION('',(-0.,-1.));
#916 = ( GEOMETRIC_REPRESENTATION_CONTEXT(2) 
PARAMETRIC_REPRESENTATION_CONTEXT() REPRESENTATION_CONTEXT('2D SPACE',''
  ) );
#917 = PCURVE('',#339,#918);
#918 = DEFINITIONAL_REPRESENTATION('',(#919),#923);
#919 = LINE('',#920,#921);
#920 = CARTESIAN_POINT('',(-0.,0.));
#921 = VECTOR('',#922,1.);
#922 = DIRECTION('',(-0.,-1.));
#923 = ( GEOMETRIC_REPRESENTATION_CONTEXT(2) 
PARAMETRIC_REPRESENTATION_CONTEXT() REPRESENTATION_CONTEXT('2D SPACE',''
  ) );
#924 = ORIENTED_EDGE('',*,*,#750,.T.);
#925 = ORIENTED_EDGE('',*,*,#904,.F.);
#926 = ADVANCED_FACE('',(#927),#492,.F.);
#927 = FACE_BOUND('',#928,.T.);
#928 = EDGE_LOOP('',(#929,#930,#951,#952));
#929 = ORIENTED_EDGE('',*,*,#602,.F.);
#930 = ORIENTED_EDGE('',*,*,#931,.T.);
#931 = EDGE_CURVE('',#603,#395,#932,.T.);
#932 = SEAM_CURVE('',#933,(#937,#944),.PCURVE_S1.);
#933 = LINE('',#934,#935);
#934 = CARTESIAN_POINT('',(6.,11.,4.0000001));
#935 = VECTOR('',#936,1.);
#936 = DIRECTION('',(0.,-1.,0.));
#937 = PCURVE('',#492,#938);
#938 = DEFINITIONAL_REPRESENTATION('',(#939),#943);
#939 = LINE('',#940,#941);
#940 = CARTESIAN_POINT('',(-6.28318530718,0.));
#941 = VECTOR('',#942,1.);
#942 = DIRECTION('',(-0.,-1.));
#943 = ( GEOMETRIC_REPRESENTATION_CONTEXT(2) 
PARAMETRIC_REPRESENTATION_CONTEXT() REPRESENTATION_CONTEXT('2D SPACE',''
  ) );
#944 = PCURVE('',#492,#945);
#945 = DEFINITIONAL_REPRESENTATION('',(#946),#950);
#946 = LINE('',#947,#948);
#947 = CARTESIAN_POINT('',(-0.,0.));
#948 = VECTOR('',#949,1.);
#949 = DIRECTION('',(-0.,-1.));
#950 = ( GEOMETRIC_REPRESENTATION_CONTEXT(2) 
PARAMETRIC_REPRESENTATION_CONTEXT() REPRESENTATION_CONTEXT('2D SPACE',''
  ) );
#951 = ORIENTED_EDGE('',*,*,#394,.T.);
#952 = ORIENTED_EDGE('',*,*,#931,.F.);
#953 = ADVANCED_FACE('',(#954),#588,.T.);
#954 = FACE_BOUND('',#955,.T.);
#955 = EDGE_LOOP('',(#956));
#956 = ORIENTED_EDGE('',*,*,#573,.T.);
#957 = ( GEOMETRIC_REPRESENTATION_CONTEXT(3) 
GLOBAL_UNCERTAINTY_ASSIGNED_CONTEXT((#961)) GLOBAL_UNIT_ASSIGNED_CONTEXT
((#958,#959,#960)) REPRESENTATION_CONTEXT('Context #1',
  '3D Context with UNIT and UNCERTAINTY') );
#958 = ( LENGTH_UNIT() NAMED_UNIT(*) SI_UNIT(.MILLI.,.METRE.) );
#959 = ( NAMED_UNIT(*) PLANE_ANGLE_UNIT() SI_UNIT($,.RADIAN.) );
#960 = ( NAMED_UNIT(*) SI_UNIT($,.STERADIAN.) SOLID_ANGLE_UNIT() );
#961 = UNCERTAINTY_MEASURE_WITH_UNIT(LENGTH_MEASURE(1.E-07),#958,
  'distance_accuracy_value','confusion accuracy');
#962 = PRODUCT_RELATED_PRODUCT_CATEGORY('part',$,(#7));
ENDSEC;
END-ISO-10303-21;
