ISO-10303-21;
HEADER;
FILE_DESCRIPTION(('Open CASCADE Model'),'2;1');
FILE_NAME('Open CASCADE Shape Model','2026-09-11T17:05:55',('Author'),(
    'Open CASCADE'),'Open CASCADE STEP processor 7.9','Open CASCADE 7.9'
  ,'Unknown');
FILE_SCHEMA(('AUTOMOTIVE_DESIGN { 1 0 10303 214 1 1 1 1 }'));
ENDSEC;
DATA;
#1 = APPLICATION_PROTOCOL_DEFINITION('international standard',
  'automotive_design',2000,#2);
#2 = APPLICATION_CONTEXT(
  'core data for automotive mechanical design processes');
#3 = SHAPE_DEFINITION_REPRESENTATION(#4,#10);
#4 = PRODUCT_DEFINITION_SHAPE('','',#5);
#5 = PRODUCT_DEFINITION('design','',#6,#9);
#6 = PRODUCT_DEFINITION_FORMATION('','',#7);
#7 = PRODUCT('Open CASCADE STEP translator 7.9 3',
  'Open CASCADE STEP translator 7.9 3','',(#8));
#8 = PRODUCT_CONTEXT('',#2,'mechanical');
#9 = PRODUCT_DEFINITION_CONTEXT('part definition',#2,'design');
#10 = ADVANCED_BREP_SHAPE_REPRESENTATION('',(#11,#15),#1044);
#11 = AXIS2_PLACEMENT_3D('',#12,#13,#14);
#12 = CARTESIAN_POINT('',(0.,0.,0.));
#13 = DIRECTION('',(0.,0.,1.));
#14 = DIRECTION('',(1.,0.,-0.));
#15 = MANIFOLD_SOLID_BREP('',#16);
#16 = CLOSED_SHELL('',(#17,#142,#216,#370,#417,#956,#963,#990,#1017));
#17 = ADVANCED_FACE('',(#18),#32,.F.);
#18 = FACE_BOUND('',#19,.F.);
#19 = EDGE_LOOP('',(#20,#55,#88,#116));
#20 = ORIENTED_EDGE('',*,*,#21,.F.);
#21 = EDGE_CURVE('',#22,#24,#26,.T.);
#22 = VERTEX_POINT('',#23);
#23 = CARTESIAN_POINT('',(80.,-13.,29.021371435547));
#24 = VERTEX_POINT('',#25);
#25 = CARTESIAN_POINT('',(80.,-13.,36.5));
#26 = SURFACE_CURVE('',#27,(#31,#43),.PCURVE_S1.);
#27 = LINE('',#28,#29);
#28 = CARTESIAN_POINT('',(80.,-13.,20.));
#29 = VECTOR('',#30,1.);
#30 = DIRECTION('',(0.,0.,1.));
#31 = PCURVE('',#32,#37);
#32 = PLANE('',#33);
#33 = AXIS2_PLACEMENT_3D('',#34,#35,#36);
#34 = CARTESIAN_POINT('',(80.,-13.,20.));
#35 = DIRECTION('',(1.,0.,0.));
#36 = DIRECTION('',(0.,0.,1.));
#37 = DEFINITIONAL_REPRESENTATION('',(#38),#42);
#38 = LINE('',#39,#40);
#39 = CARTESIAN_POINT('',(0.,0.));
#40 = VECTOR('',#41,1.);
#41 = DIRECTION('',(1.,0.));
#42 = ( GEOMETRIC_REPRESENTATION_CONTEXT(2) 
PARAMETRIC_REPRESENTATION_CONTEXT() REPRESENTATION_CONTEXT('2D SPACE',''
  ) );
#43 = PCURVE('',#44,#49);
#44 = PLANE('',#45);
#45 = AXIS2_PLACEMENT_3D('',#46,#47,#48);
#46 = CARTESIAN_POINT('',(80.,-13.,20.));
#47 = DIRECTION('',(0.,1.,0.));
#48 = DIRECTION('',(0.,0.,1.));
#49 = DEFINITIONAL_REPRESENTATION('',(#50),#54);
#50 = LINE('',#51,#52);
#51 = CARTESIAN_POINT('',(0.,0.));
#52 = VECTOR('',#53,1.);
#53 = DIRECTION('',(1.,0.));
#54 = ( GEOMETRIC_REPRESENTATION_CONTEXT(2) 
PARAMETRIC_REPRESENTATION_CONTEXT() REPRESENTATION_CONTEXT('2D SPACE',''
  ) );
#55 = ORIENTED_EDGE('',*,*,#56,.T.);
#56 = EDGE_CURVE('',#22,#57,#59,.T.);
#57 = VERTEX_POINT('',#58);
#58 = CARTESIAN_POINT('',(80.,-1.,31.78427284051));
#59 = SURFACE_CURVE('',#60,(#65,#76),.PCURVE_S1.);
#60 = CIRCLE('',#61,31.8);
#61 = AXIS2_PLACEMENT_3D('',#62,#63,#64);
#62 = CARTESIAN_POINT('',(80.,0.,0.));
#63 = DIRECTION('',(-1.,0.,0.));
#64 = DIRECTION('',(0.,1.,0.));
#65 = PCURVE('',#32,#66);
#66 = DEFINITIONAL_REPRESENTATION('',(#67),#75);
#67 = ( BOUNDED_CURVE() B_SPLINE_CURVE(2,(#68,#69,#70,#71,#72,#73,#74),
.UNSPECIFIED.,.T.,.F.) B_SPLINE_CURVE_WITH_KNOTS((1,2,2,2,2,1),(
    -2.094395102393,0.,2.094395102393,4.188790204786,6.28318530718,
8.377580409573),.UNSPECIFIED.) CURVE() GEOMETRIC_REPRESENTATION_ITEM() 
RATIONAL_B_SPLINE_CURVE((1.,0.5,1.,0.5,1.,0.5,1.)) REPRESENTATION_ITEM(
  '') );
#68 = CARTESIAN_POINT('',(-20.,-44.8));
#69 = CARTESIAN_POINT('',(-75.07921568069,-44.8));
#70 = CARTESIAN_POINT('',(-47.53960784034,2.9));
#71 = CARTESIAN_POINT('',(-20.,50.6));
#72 = CARTESIAN_POINT('',(7.539607840345,2.9));
#73 = CARTESIAN_POINT('',(35.07921568069,-44.8));
#74 = CARTESIAN_POINT('',(-20.,-44.8));
#75 = ( GEOMETRIC_REPRESENTATION_CONTEXT(2) 
PARAMETRIC_REPRESENTATION_CONTEXT() REPRESENTATION_CONTEXT('2D SPACE',''
  ) );
#76 = PCURVE('',#77,#82);
#77 = CYLINDRICAL_SURFACE('',#78,31.8);
#78 = AXIS2_PLACEMENT_3D('',#79,#80,#81);
#79 = CARTESIAN_POINT('',(-1.,0.,0.));
#80 = DIRECTION('',(-1.,-0.,-0.));
#81 = DIRECTION('',(0.,1.,0.));
#82 = DEFINITIONAL_REPRESENTATION('',(#83),#87);
#83 = LINE('',#84,#85);
#84 = CARTESIAN_POINT('',(-6.28318530718,-81.));
#85 = VECTOR('',#86,1.);
#86 = DIRECTION('',(1.,-0.));
#87 = ( GEOMETRIC_REPRESENTATION_CONTEXT(2) 
PARAMETRIC_REPRESENTATION_CONTEXT() REPRESENTATION_CONTEXT('2D SPACE',''
  ) );
#88 = ORIENTED_EDGE('',*,*,#89,.T.);
#89 = EDGE_CURVE('',#57,#90,#92,.T.);
#90 = VERTEX_POINT('',#91);
#91 = CARTESIAN_POINT('',(80.,-1.,36.5));
#92 = SURFACE_CURVE('',#93,(#97,#104),.PCURVE_S1.);
#93 = LINE('',#94,#95);
#94 = CARTESIAN_POINT('',(80.,-1.,20.));
#95 = VECTOR('',#96,1.);
#96 = DIRECTION('',(0.,0.,1.));
#97 = PCURVE('',#32,#98);
#98 = DEFINITIONAL_REPRESENTATION('',(#99),#103);
#99 = LINE('',#100,#101);
#100 = CARTESIAN_POINT('',(0.,-12.));
#101 = VECTOR('',#102,1.);
#102 = DIRECTION('',(1.,0.));
#103 = ( GEOMETRIC_REPRESENTATION_CONTEXT(2) 
PARAMETRIC_REPRESENTATION_CONTEXT() REPRESENTATION_CONTEXT('2D SPACE',''
  ) );
#104 = PCURVE('',#105,#110);
#105 = PLANE('',#106);
#106 = AXIS2_PLACEMENT_3D('',#107,#108,#109);
#107 = CARTESIAN_POINT('',(80.,-1.,20.));
#108 = DIRECTION('',(0.,1.,0.));
#109 = DIRECTION('',(0.,0.,1.));
#110 = DEFINITIONAL_REPRESENTATION('',(#111),#115);
#111 = LINE('',#112,#113);
#112 = CARTESIAN_POINT('',(0.,0.));
#113 = VECTOR('',#114,1.);
#114 = DIRECTION('',(1.,0.));
#115 = ( GEOMETRIC_REPRESENTATION_CONTEXT(2) 
PARAMETRIC_REPRESENTATION_CONTEXT() REPRESENTATION_CONTEXT('2D SPACE',''
  ) );
#116 = ORIENTED_EDGE('',*,*,#117,.F.);
#117 = EDGE_CURVE('',#24,#90,#118,.T.);
#118 = SURFACE_CURVE('',#119,(#123,#130),.PCURVE_S1.);
#119 = LINE('',#120,#121);
#120 = CARTESIAN_POINT('',(80.,-13.,36.5));
#121 = VECTOR('',#122,1.);
#122 = DIRECTION('',(0.,1.,0.));
#123 = PCURVE('',#32,#124);
#124 = DEFINITIONAL_REPRESENTATION('',(#125),#129);
#125 = LINE('',#126,#127);
#126 = CARTESIAN_POINT('',(16.5,0.));
#127 = VECTOR('',#128,1.);
#128 = DIRECTION('',(0.,-1.));
#129 = ( GEOMETRIC_REPRESENTATION_CONTEXT(2) 
PARAMETRIC_REPRESENTATION_CONTEXT() REPRESENTATION_CONTEXT('2D SPACE',''
  ) );
#130 = PCURVE('',#131,#136);
#131 = PLANE('',#132);
#132 = AXIS2_PLACEMENT_3D('',#133,#134,#135);
#133 = CARTESIAN_POINT('',(80.,-13.,36.5));
#134 = DIRECTION('',(0.,0.,1.));
#135 = DIRECTION('',(1.,0.,0.));
#136 = DEFINITIONAL_REPRESENTATION('',(#137),#141);
#137 = LINE('',#138,#139);
#138 = CARTESIAN_POINT('',(0.,0.));
#139 = VECTOR('',#140,1.);
#140 = DIRECTION('',(0.,1.));
#141 = ( GEOMETRIC_REPRESENTATION_CONTEXT(2) 
PARAMETRIC_REPRESENTATION_CONTEXT() REPRESENTATION_CONTEXT('2D SPACE',''
  ) );
#142 = ADVANCED_FACE('',(#143),#44,.F.);
#143 = FACE_BOUND('',#144,.F.);
#144 = EDGE_LOOP('',(#145,#175,#194,#195));
#145 = ORIENTED_EDGE('',*,*,#146,.F.);
#146 = EDGE_CURVE('',#147,#149,#151,.T.);
#147 = VERTEX_POINT('',#148);
#148 = CARTESIAN_POINT('',(100.,-13.,29.021371435547));
#149 = VERTEX_POINT('',#150);
#150 = CARTESIAN_POINT('',(100.,-13.,36.5));
#151 = SURFACE_CURVE('',#152,(#156,#163),.PCURVE_S1.);
#152 = LINE('',#153,#154);
#153 = CARTESIAN_POINT('',(100.,-13.,20.));
#154 = VECTOR('',#155,1.);
#155 = DIRECTION('',(0.,0.,1.));
#156 = PCURVE('',#44,#157);
#157 = DEFINITIONAL_REPRESENTATION('',(#158),#162);
#158 = LINE('',#159,#160);
#159 = CARTESIAN_POINT('',(0.,20.));
#160 = VECTOR('',#161,1.);
#161 = DIRECTION('',(1.,0.));
#162 = ( GEOMETRIC_REPRESENTATION_CONTEXT(2) 
PARAMETRIC_REPRESENTATION_CONTEXT() REPRESENTATION_CONTEXT('2D SPACE',''
  ) );
#163 = PCURVE('',#164,#169);
#164 = PLANE('',#165);
#165 = AXIS2_PLACEMENT_3D('',#166,#167,#168);
#166 = CARTESIAN_POINT('',(100.,-13.,20.));
#167 = DIRECTION('',(1.,0.,0.));
#168 = DIRECTION('',(0.,0.,1.));
#169 = DEFINITIONAL_REPRESENTATION('',(#170),#174);
#170 = LINE('',#171,#172);
#171 = CARTESIAN_POINT('',(0.,0.));
#172 = VECTOR('',#173,1.);
#173 = DIRECTION('',(1.,0.));
#174 = ( GEOMETRIC_REPRESENTATION_CONTEXT(2) 
PARAMETRIC_REPRESENTATION_CONTEXT() REPRESENTATION_CONTEXT('2D SPACE',''
  ) );
#175 = ORIENTED_EDGE('',*,*,#176,.T.);
#176 = EDGE_CURVE('',#147,#22,#177,.T.);
#177 = SURFACE_CURVE('',#178,(#182,#188),.PCURVE_S1.);
#178 = LINE('',#179,#180);
#179 = CARTESIAN_POINT('',(-1.,-13.,29.021371435547));
#180 = VECTOR('',#181,1.);
#181 = DIRECTION('',(-1.,-0.,-0.));
#182 = PCURVE('',#44,#183);
#183 = DEFINITIONAL_REPRESENTATION('',(#184),#187);
#184 = B_SPLINE_CURVE_WITH_KNOTS('',1,(#185,#186),.UNSPECIFIED.,.F.,.F.,
  (2,2),(-103.,-79.),.PIECEWISE_BEZIER_KNOTS.);
#185 = CARTESIAN_POINT('',(9.021371435547,22.));
#186 = CARTESIAN_POINT('',(9.021371435547,-2.));
#187 = ( GEOMETRIC_REPRESENTATION_CONTEXT(2) 
PARAMETRIC_REPRESENTATION_CONTEXT() REPRESENTATION_CONTEXT('2D SPACE',''
  ) );
#188 = PCURVE('',#77,#189);
#189 = DEFINITIONAL_REPRESENTATION('',(#190),#193);
#190 = B_SPLINE_CURVE_WITH_KNOTS('',1,(#191,#192),.UNSPECIFIED.,.F.,.F.,
  (2,2),(-103.,-79.),.PIECEWISE_BEZIER_KNOTS.);
#191 = CARTESIAN_POINT('',(-1.9919406245,-103.));
#192 = CARTESIAN_POINT('',(-1.9919406245,-79.));
#193 = ( GEOMETRIC_REPRESENTATION_CONTEXT(2) 
PARAMETRIC_REPRESENTATION_CONTEXT() REPRESENTATION_CONTEXT('2D SPACE',''
  ) );
#194 = ORIENTED_EDGE('',*,*,#21,.T.);
#195 = ORIENTED_EDGE('',*,*,#196,.T.);
#196 = EDGE_CURVE('',#24,#149,#197,.T.);
#197 = SURFACE_CURVE('',#198,(#202,#209),.PCURVE_S1.);
#198 = LINE('',#199,#200);
#199 = CARTESIAN_POINT('',(80.,-13.,36.5));
#200 = VECTOR('',#201,1.);
#201 = DIRECTION('',(1.,0.,0.));
#202 = PCURVE('',#44,#203);
#203 = DEFINITIONAL_REPRESENTATION('',(#204),#208);
#204 = LINE('',#205,#206);
#205 = CARTESIAN_POINT('',(16.5,0.));
#206 = VECTOR('',#207,1.);
#207 = DIRECTION('',(0.,1.));
#208 = ( GEOMETRIC_REPRESENTATION_CONTEXT(2) 
PARAMETRIC_REPRESENTATION_CONTEXT() REPRESENTATION_CONTEXT('2D SPACE',''
  ) );
#209 = PCURVE('',#131,#210);
#210 = DEFINITIONAL_REPRESENTATION('',(#211),#215);
#211 = LINE('',#212,#213);
#212 = CARTESIAN_POINT('',(0.,0.));
#213 = VECTOR('',#214,1.);
#214 = DIRECTION('',(1.,0.));
#215 = ( GEOMETRIC_REPRESENTATION_CONTEXT(2) 
PARAMETRIC_REPRESENTATION_CONTEXT() REPRESENTATION_CONTEXT('2D SPACE',''
  ) );
#216 = ADVANCED_FACE('',(#217,#265,#300,#335),#131,.T.);
#217 = FACE_BOUND('',#218,.T.);
#218 = EDGE_LOOP('',(#219,#220,#221,#244));
#219 = ORIENTED_EDGE('',*,*,#117,.F.);
#220 = ORIENTED_EDGE('',*,*,#196,.T.);
#221 = ORIENTED_EDGE('',*,*,#222,.T.);
#222 = EDGE_CURVE('',#149,#223,#225,.T.);
#223 = VERTEX_POINT('',#224);
#224 = CARTESIAN_POINT('',(100.,-1.,36.5));
#225 = SURFACE_CURVE('',#226,(#230,#237),.PCURVE_S1.);
#226 = LINE('',#227,#228);
#227 = CARTESIAN_POINT('',(100.,-13.,36.5));
#228 = VECTOR('',#229,1.);
#229 = DIRECTION('',(0.,1.,0.));
#230 = PCURVE('',#131,#231);
#231 = DEFINITIONAL_REPRESENTATION('',(#232),#236);
#232 = LINE('',#233,#234);
#233 = CARTESIAN_POINT('',(20.,0.));
#234 = VECTOR('',#235,1.);
#235 = DIRECTION('',(0.,1.));
#236 = ( GEOMETRIC_REPRESENTATION_CONTEXT(2) 
PARAMETRIC_REPRESENTATION_CONTEXT() REPRESENTATION_CONTEXT('2D SPACE',''
  ) );
#237 = PCURVE('',#164,#238);
#238 = DEFINITIONAL_REPRESENTATION('',(#239),#243);
#239 = LINE('',#240,#241);
#240 = CARTESIAN_POINT('',(16.5,0.));
#241 = VECTOR('',#242,1.);
#242 = DIRECTION('',(0.,-1.));
#243 = ( GEOMETRIC_REPRESENTATION_CONTEXT(2) 
PARAMETRIC_REPRESENTATION_CONTEXT() REPRESENTATION_CONTEXT('2D SPACE',''
  ) );
#244 = ORIENTED_EDGE('',*,*,#245,.F.);
#245 = EDGE_CURVE('',#90,#223,#246,.T.);
#246 = SURFACE_CURVE('',#247,(#251,#258),.PCURVE_S1.);
#247 = LINE('',#248,#249);
#248 = CARTESIAN_POINT('',(80.,-1.,36.5));
#249 = VECTOR('',#250,1.);
#250 = DIRECTION('',(1.,0.,0.));
#251 = PCURVE('',#131,#252);
#252 = DEFINITIONAL_REPRESENTATION('',(#253),#257);
#253 = LINE('',#254,#255);
#254 = CARTESIAN_POINT('',(0.,12.));
#255 = VECTOR('',#256,1.);
#256 = DIRECTION('',(1.,0.));
#257 = ( GEOMETRIC_REPRESENTATION_CONTEXT(2) 
PARAMETRIC_REPRESENTATION_CONTEXT() REPRESENTATION_CONTEXT('2D SPACE',''
  ) );
#258 = PCURVE('',#105,#259);
#259 = DEFINITIONAL_REPRESENTATION('',(#260),#264);
#260 = LINE('',#261,#262);
#261 = CARTESIAN_POINT('',(16.5,0.));
#262 = VECTOR('',#263,1.);
#263 = DIRECTION('',(0.,1.));
#264 = ( GEOMETRIC_REPRESENTATION_CONTEXT(2) 
PARAMETRIC_REPRESENTATION_CONTEXT() REPRESENTATION_CONTEXT('2D SPACE',''
  ) );
#265 = FACE_BOUND('',#266,.T.);
#266 = EDGE_LOOP('',(#267));
#267 = ORIENTED_EDGE('',*,*,#268,.T.);
#268 = EDGE_CURVE('',#269,#269,#271,.T.);
#269 = VERTEX_POINT('',#270);
#270 = CARTESIAN_POINT('',(84.75,-7.,36.5));
#271 = SURFACE_CURVE('',#272,(#277,#288),.PCURVE_S1.);
#272 = CIRCLE('',#273,1.25);
#273 = AXIS2_PLACEMENT_3D('',#274,#275,#276);
#274 = CARTESIAN_POINT('',(83.5,-7.,36.5));
#275 = DIRECTION('',(0.,0.,-1.));
#276 = DIRECTION('',(1.,0.,0.));
#277 = PCURVE('',#131,#278);
#278 = DEFINITIONAL_REPRESENTATION('',(#279),#287);
#279 = ( BOUNDED_CURVE() B_SPLINE_CURVE(2,(#280,#281,#282,#283,#284,#285
,#286),.UNSPECIFIED.,.T.,.F.) B_SPLINE_CURVE_WITH_KNOTS((1,2,2,2,2,1),(
    -2.094395102393,0.,2.094395102393,4.188790204786,6.28318530718,
8.377580409573),.UNSPECIFIED.) CURVE() GEOMETRIC_REPRESENTATION_ITEM() 
RATIONAL_B_SPLINE_CURVE((1.,0.5,1.,0.5,1.,0.5,1.)) REPRESENTATION_ITEM(
  '') );
#280 = CARTESIAN_POINT('',(4.75,6.));
#281 = CARTESIAN_POINT('',(4.75,3.834936490539));
#282 = CARTESIAN_POINT('',(2.875,4.917468245269));
#283 = CARTESIAN_POINT('',(1.,6.));
#284 = CARTESIAN_POINT('',(2.875,7.082531754731));
#285 = CARTESIAN_POINT('',(4.75,8.165063509461));
#286 = CARTESIAN_POINT('',(4.75,6.));
#287 = ( GEOMETRIC_REPRESENTATION_CONTEXT(2) 
PARAMETRIC_REPRESENTATION_CONTEXT() REPRESENTATION_CONTEXT('2D SPACE',''
  ) );
#288 = PCURVE('',#289,#294);
#289 = CYLINDRICAL_SURFACE('',#290,1.25);
#290 = AXIS2_PLACEMENT_3D('',#291,#292,#293);
#291 = CARTESIAN_POINT('',(83.5,-7.,20.));
#292 = DIRECTION('',(-0.,-0.,-1.));
#293 = DIRECTION('',(1.,0.,0.));
#294 = DEFINITIONAL_REPRESENTATION('',(#295),#299);
#295 = LINE('',#296,#297);
#296 = CARTESIAN_POINT('',(-6.28318530718,-16.5));
#297 = VECTOR('',#298,1.);
#298 = DIRECTION('',(1.,-0.));
#299 = ( GEOMETRIC_REPRESENTATION_CONTEXT(2) 
PARAMETRIC_REPRESENTATION_CONTEXT() REPRESENTATION_CONTEXT('2D SPACE',''
  ) );
#300 = FACE_BOUND('',#301,.T.);
#301 = EDGE_LOOP('',(#302));
#302 = ORIENTED_EDGE('',*,*,#303,.T.);
#303 = EDGE_CURVE('',#304,#304,#306,.T.);
#304 = VERTEX_POINT('',#305);
#305 = CARTESIAN_POINT('',(97.75,-7.,36.5));
#306 = SURFACE_CURVE('',#307,(#312,#323),.PCURVE_S1.);
#307 = CIRCLE('',#308,1.25);
#308 = AXIS2_PLACEMENT_3D('',#309,#310,#311);
#309 = CARTESIAN_POINT('',(96.5,-7.,36.5));
#310 = DIRECTION('',(0.,0.,-1.));
#311 = DIRECTION('',(1.,0.,0.));
#312 = PCURVE('',#131,#313);
#313 = DEFINITIONAL_REPRESENTATION('',(#314),#322);
#314 = ( BOUNDED_CURVE() B_SPLINE_CURVE(2,(#315,#316,#317,#318,#319,#320
,#321),.UNSPECIFIED.,.T.,.F.) B_SPLINE_CURVE_WITH_KNOTS((1,2,2,2,2,1),(
    -2.094395102393,0.,2.094395102393,4.188790204786,6.28318530718,
8.377580409573),.UNSPECIFIED.) CURVE() GEOMETRIC_REPRESENTATION_ITEM() 
RATIONAL_B_SPLINE_CURVE((1.,0.5,1.,0.5,1.,0.5,1.)) REPRESENTATION_ITEM(
  '') );
#315 = CARTESIAN_POINT('',(17.75,6.));
#316 = CARTESIAN_POINT('',(17.75,3.834936490539));
#317 = CARTESIAN_POINT('',(15.875,4.917468245269));
#318 = CARTESIAN_POINT('',(14.,6.));
#319 = CARTESIAN_POINT('',(15.875,7.082531754731));
#320 = CARTESIAN_POINT('',(17.75,8.165063509461));
#321 = CARTESIAN_POINT('',(17.75,6.));
#322 = ( GEOMETRIC_REPRESENTATION_CONTEXT(2) 
PARAMETRIC_REPRESENTATION_CONTEXT() REPRESENTATION_CONTEXT('2D SPACE',''
  ) );
#323 = PCURVE('',#324,#329);
#324 = CYLINDRICAL_SURFACE('',#325,1.25);
#325 = AXIS2_PLACEMENT_3D('',#326,#327,#328);
#326 = CARTESIAN_POINT('',(96.5,-7.,20.));
#327 = DIRECTION('',(-0.,-0.,-1.));
#328 = DIRECTION('',(1.,0.,0.));
#329 = DEFINITIONAL_REPRESENTATION('',(#330),#334);
#330 = LINE('',#331,#332);
#331 = CARTESIAN_POINT('',(-6.28318530718,-16.5));
#332 = VECTOR('',#333,1.);
#333 = DIRECTION('',(1.,-0.));
#334 = ( GEOMETRIC_REPRESENTATION_CONTEXT(2) 
PARAMETRIC_REPRESENTATION_CONTEXT() REPRESENTATION_CONTEXT('2D SPACE',''
  ) );
#335 = FACE_BOUND('',#336,.T.);
#336 = EDGE_LOOP('',(#337));
#337 = ORIENTED_EDGE('',*,*,#338,.T.);
#338 = EDGE_CURVE('',#339,#339,#341,.T.);
#339 = VERTEX_POINT('',#340);
#340 = CARTESIAN_POINT('',(91.25,-4.,36.5));
#341 = SURFACE_CURVE('',#342,(#347,#358),.PCURVE_S1.);
#342 = CIRCLE('',#343,1.25);
#343 = AXIS2_PLACEMENT_3D('',#344,#345,#346);
#344 = CARTESIAN_POINT('',(90.,-4.,36.5));
#345 = DIRECTION('',(0.,0.,-1.));
#346 = DIRECTION('',(1.,0.,0.));
#347 = PCURVE('',#131,#348);
#348 = DEFINITIONAL_REPRESENTATION('',(#349),#357);
#349 = ( BOUNDED_CURVE() B_SPLINE_CURVE(2,(#350,#351,#352,#353,#354,#355
,#356),.UNSPECIFIED.,.T.,.F.) B_SPLINE_CURVE_WITH_KNOTS((1,2,2,2,2,1),(
    -2.094395102393,0.,2.094395102393,4.188790204786,6.28318530718,
8.377580409573),.UNSPECIFIED.) CURVE() GEOMETRIC_REPRESENTATION_ITEM() 
RATIONAL_B_SPLINE_CURVE((1.,0.5,1.,0.5,1.,0.5,1.)) REPRESENTATION_ITEM(
  '') );
#350 = CARTESIAN_POINT('',(11.25,9.));
#351 = CARTESIAN_POINT('',(11.25,6.834936490539));
#352 = CARTESIAN_POINT('',(9.375,7.917468245269));
#353 = CARTESIAN_POINT('',(7.5,9.));
#354 = CARTESIAN_POINT('',(9.375,10.082531754731));
#355 = CARTESIAN_POINT('',(11.25,11.165063509461));
#356 = CARTESIAN_POINT('',(11.25,9.));
#357 = ( GEOMETRIC_REPRESENTATION_CONTEXT(2) 
PARAMETRIC_REPRESENTATION_CONTEXT() REPRESENTATION_CONTEXT('2D SPACE',''
  ) );
#358 = PCURVE('',#359,#364);
#359 = CYLINDRICAL_SURFACE('',#360,1.25);
#360 = AXIS2_PLACEMENT_3D('',#361,#362,#363);
#361 = CARTESIAN_POINT('',(90.,-4.,20.));
#362 = DIRECTION('',(-0.,-0.,-1.));
#363 = DIRECTION('',(1.,0.,0.));
#364 = DEFINITIONAL_REPRESENTATION('',(#365),#369);
#365 = LINE('',#366,#367);
#366 = CARTESIAN_POINT('',(-6.28318530718,-16.5));
#367 = VECTOR('',#368,1.);
#368 = DIRECTION('',(1.,-0.));
#369 = ( GEOMETRIC_REPRESENTATION_CONTEXT(2) 
PARAMETRIC_REPRESENTATION_CONTEXT() REPRESENTATION_CONTEXT('2D SPACE',''
  ) );
#370 = ADVANCED_FACE('',(#371),#105,.T.);
#371 = FACE_BOUND('',#372,.T.);
#372 = EDGE_LOOP('',(#373,#396,#415,#416));
#373 = ORIENTED_EDGE('',*,*,#374,.F.);
#374 = EDGE_CURVE('',#375,#223,#377,.T.);
#375 = VERTEX_POINT('',#376);
#376 = CARTESIAN_POINT('',(100.,-1.,31.78427284051));
#377 = SURFACE_CURVE('',#378,(#382,#389),.PCURVE_S1.);
#378 = LINE('',#379,#380);
#379 = CARTESIAN_POINT('',(100.,-1.,20.));
#380 = VECTOR('',#381,1.);
#381 = DIRECTION('',(0.,0.,1.));
#382 = PCURVE('',#105,#383);
#383 = DEFINITIONAL_REPRESENTATION('',(#384),#388);
#384 = LINE('',#385,#386);
#385 = CARTESIAN_POINT('',(0.,20.));
#386 = VECTOR('',#387,1.);
#387 = DIRECTION('',(1.,0.));
#388 = ( GEOMETRIC_REPRESENTATION_CONTEXT(2) 
PARAMETRIC_REPRESENTATION_CONTEXT() REPRESENTATION_CONTEXT('2D SPACE',''
  ) );
#389 = PCURVE('',#164,#390);
#390 = DEFINITIONAL_REPRESENTATION('',(#391),#395);
#391 = LINE('',#392,#393);
#392 = CARTESIAN_POINT('',(0.,-12.));
#393 = VECTOR('',#394,1.);
#394 = DIRECTION('',(1.,0.));
#395 = ( GEOMETRIC_REPRESENTATION_CONTEXT(2) 
PARAMETRIC_REPRESENTATION_CONTEXT() REPRESENTATION_CONTEXT('2D SPACE',''
  ) );
#396 = ORIENTED_EDGE('',*,*,#397,.T.);
#397 = EDGE_CURVE('',#375,#57,#398,.T.);
#398 = SURFACE_CURVE('',#399,(#403,#409),.PCURVE_S1.);
#399 = LINE('',#400,#401);
#400 = CARTESIAN_POINT('',(-1.,-1.,31.78427284051));
#401 = VECTOR('',#402,1.);
#402 = DIRECTION('',(-1.,-0.,-0.));
#403 = PCURVE('',#105,#404);
#404 = DEFINITIONAL_REPRESENTATION('',(#405),#408);
#405 = B_SPLINE_CURVE_WITH_KNOTS('',1,(#406,#407),.UNSPECIFIED.,.F.,.F.,
  (2,2),(-103.,-79.),.PIECEWISE_BEZIER_KNOTS.);
#406 = CARTESIAN_POINT('',(11.78427284051,22.));
#407 = CARTESIAN_POINT('',(11.78427284051,-2.));
#408 = ( GEOMETRIC_REPRESENTATION_CONTEXT(2) 
PARAMETRIC_REPRESENTATION_CONTEXT() REPRESENTATION_CONTEXT('2D SPACE',''
  ) );
#409 = PCURVE('',#77,#410);
#410 = DEFINITIONAL_REPRESENTATION('',(#411),#414);
#411 = B_SPLINE_CURVE_WITH_KNOTS('',1,(#412,#413),.UNSPECIFIED.,.F.,.F.,
  (2,2),(-103.,-79.),.PIECEWISE_BEZIER_KNOTS.);
#412 = CARTESIAN_POINT('',(-1.602248052818,-103.));
#413 = CARTESIAN_POINT('',(-1.602248052818,-79.));
#414 = ( GEOMETRIC_REPRESENTATION_CONTEXT(2) 
PARAMETRIC_REPRESENTATION_CONTEXT() REPRESENTATION_CONTEXT('2D SPACE',''
  ) );
#415 = ORIENTED_EDGE('',*,*,#89,.T.);
#416 = ORIENTED_EDGE('',*,*,#245,.T.);
#417 = ADVANCED_FACE('',(#418,#449,#618,#787),#77,.F.);
#418 = FACE_BOUND('',#419,.T.);
#419 = EDGE_LOOP('',(#420,#421,#422,#423));
#420 = ORIENTED_EDGE('',*,*,#176,.T.);
#421 = ORIENTED_EDGE('',*,*,#56,.T.);
#422 = ORIENTED_EDGE('',*,*,#397,.F.);
#423 = ORIENTED_EDGE('',*,*,#424,.F.);
#424 = EDGE_CURVE('',#147,#375,#425,.T.);
#425 = SURFACE_CURVE('',#426,(#431,#438),.PCURVE_S1.);
#426 = CIRCLE('',#427,31.8);
#427 = AXIS2_PLACEMENT_3D('',#428,#429,#430);
#428 = CARTESIAN_POINT('',(100.,0.,0.));
#429 = DIRECTION('',(-1.,0.,0.));
#430 = DIRECTION('',(0.,1.,0.));
#431 = PCURVE('',#77,#432);
#432 = DEFINITIONAL_REPRESENTATION('',(#433),#437);
#433 = LINE('',#434,#435);
#434 = CARTESIAN_POINT('',(-6.28318530718,-101.));
#435 = VECTOR('',#436,1.);
#436 = DIRECTION('',(1.,-0.));
#437 = ( GEOMETRIC_REPRESENTATION_CONTEXT(2) 
PARAMETRIC_REPRESENTATION_CONTEXT() REPRESENTATION_CONTEXT('2D SPACE',''
  ) );
#438 = PCURVE('',#164,#439);
#439 = DEFINITIONAL_REPRESENTATION('',(#440),#448);
#440 = ( BOUNDED_CURVE() B_SPLINE_CURVE(2,(#441,#442,#443,#444,#445,#446
,#447),.UNSPECIFIED.,.T.,.F.) B_SPLINE_CURVE_WITH_KNOTS((1,2,2,2,2,1),(
    -2.094395102393,0.,2.094395102393,4.188790204786,6.28318530718,
8.377580409573),.UNSPECIFIED.) CURVE() GEOMETRIC_REPRESENTATION_ITEM() 
RATIONAL_B_SPLINE_CURVE((1.,0.5,1.,0.5,1.,0.5,1.)) REPRESENTATION_ITEM(
  '') );
#441 = CARTESIAN_POINT('',(-20.,-44.8));
#442 = CARTESIAN_POINT('',(-75.07921568069,-44.8));
#443 = CARTESIAN_POINT('',(-47.53960784034,2.9));
#444 = CARTESIAN_POINT('',(-20.,50.6));
#445 = CARTESIAN_POINT('',(7.539607840345,2.9));
#446 = CARTESIAN_POINT('',(35.07921568069,-44.8));
#447 = CARTESIAN_POINT('',(-20.,-44.8));
#448 = ( GEOMETRIC_REPRESENTATION_CONTEXT(2) 
PARAMETRIC_REPRESENTATION_CONTEXT() REPRESENTATION_CONTEXT('2D SPACE',''
  ) );
#449 = FACE_BOUND('',#450,.T.);
#450 = EDGE_LOOP('',(#451));
#451 = ORIENTED_EDGE('',*,*,#452,.T.);
#452 = EDGE_CURVE('',#453,#453,#455,.T.);
#453 = VERTEX_POINT('',#454);
#454 = CARTESIAN_POINT('',(97.75,-7.,31.019993552546));
#455 = SURFACE_CURVE('',#456,(#508,#563),.PCURVE_S1.);
#456 = B_SPLINE_CURVE_WITH_KNOTS('',8,(#457,#458,#459,#460,#461,#462,
    #463,#464,#465,#466,#467,#468,#469,#470,#471,#472,#473,#474,#475,
    #476,#477,#478,#479,#480,#481,#482,#483,#484,#485,#486,#487,#488,
    #489,#490,#491,#492,#493,#494,#495,#496,#497,#498,#499,#500,#501,
    #502,#503,#504,#505,#506,#507),.UNSPECIFIED.,.T.,.F.,(9,7,7,7,7,7,7,
    9),(0.,9.67522360367E-02,0.173734374534,0.358177422384,
    0.490270984823,0.630861893642,0.831936566339,1.),.UNSPECIFIED.);
#457 = CARTESIAN_POINT('',(97.75,-7.,31.019993552546));
#458 = CARTESIAN_POINT('',(97.75,-6.893367255139,31.044056394879));
#459 = CARTESIAN_POINT('',(97.739603873817,-6.787182786294,
    31.06757793756));
#460 = CARTESIAN_POINT('',(97.718965539889,-6.682885466858,
    31.090240823697));
#461 = CARTESIAN_POINT('',(97.68853667913,-6.581868137756,
    31.111772533391));
#462 = CARTESIAN_POINT('',(97.649054693428,-6.485426003751,
    31.131951961979));
#463 = CARTESIAN_POINT('',(97.601530550459,-6.394701871999,
    31.150612993587));
#464 = CARTESIAN_POINT('',(97.54723651482,-6.310628232855,
    31.167645069993));
#465 = CARTESIAN_POINT('',(97.440317824977,-6.172789488478,31.1952007427
    ));
#466 = CARTESIAN_POINT('',(97.389392378668,-6.116049524129,
    31.206401578909));
#467 = CARTESIAN_POINT('',(97.33536471439,-6.063718319229,
    31.216614438845));
#468 = CARTESIAN_POINT('',(97.278648472029,-6.015839361613,
    31.225863444873));
#469 = CARTESIAN_POINT('',(97.21962803351,-5.972432370862,
    31.234173976294));
#470 = CARTESIAN_POINT('',(97.15866239257,-5.933497431359,
    31.241571396232));
#471 = CARTESIAN_POINT('',(97.0960885043,-5.899018485119,31.248080195437
    ));
#472 = CARTESIAN_POINT('',(96.879210143401,-5.796963275112,
    31.267244586376));
#473 = CARTESIAN_POINT('',(96.718160217738,-5.75007577464,
    31.275853050021));
#474 = CARTESIAN_POINT('',(96.552775056696,-5.727996972217,
    31.27984660562));
#475 = CARTESIAN_POINT('',(96.386106571028,-5.730483001741,
    31.27938799818));
#476 = CARTESIAN_POINT('',(96.220967419892,-5.757447349741,
    31.274498628294));
#477 = CARTESIAN_POINT('',(96.060154450132,-5.809074528907,
    31.265044762437));
#478 = CARTESIAN_POINT('',(95.90681292316,-5.885890666513,
    31.250716081488));
#479 = CARTESIAN_POINT('',(95.66389776249,-6.062378861437,
    31.216873423407));
#480 = CARTESIAN_POINT('',(95.567177925432,-6.150393086311,
    31.199790375735));
#481 = CARTESIAN_POINT('',(95.478555499909,-6.252587874424,
    31.179641484506));
#482 = CARTESIAN_POINT('',(95.401155602636,-6.367975243755,
    31.156439243456));
#483 = CARTESIAN_POINT('',(95.337730195085,-6.49492071243,
    31.130305491538));
#484 = CARTESIAN_POINT('',(95.290618746807,-6.631270484207,
    31.101489982172));
#485 = CARTESIAN_POINT('',(95.261719126472,-6.774446986213,
    31.070397031375));
#486 = CARTESIAN_POINT('',(95.242618853037,-7.078037138848,
    31.002695186715));
#487 = CARTESIAN_POINT('',(95.255350055576,-7.233834402595,
    30.967004709566));
#488 = CARTESIAN_POINT('',(95.289830556539,-7.384964279753,
    30.931419497836));
#489 = CARTESIAN_POINT('',(95.344379857873,-7.527768505943,
    30.896898942964));
#490 = CARTESIAN_POINT('',(95.416524266309,-7.659059112363,
    30.864418110937));
#491 = CARTESIAN_POINT('',(95.503058145563,-7.776304703169,
    30.83485941478));
#492 = CARTESIAN_POINT('',(95.600110672689,-7.877842089017,
    30.80888454323));
#493 = CARTESIAN_POINT('',(95.850688131427,-8.085137790924,
    30.755266633405));
#494 = CARTESIAN_POINT('',(96.014139740757,-8.176892605727,
    30.730944401152));
#495 = CARTESIAN_POINT('',(96.187744743296,-8.239109821675,
    30.714181842318));
#496 = CARTESIAN_POINT('',(96.367321740216,-8.272231467823,
    30.705181578116));
#497 = CARTESIAN_POINT('',(96.549076672107,-8.276366162243,
    30.704068975881));
#498 = CARTESIAN_POINT('',(96.729216118179,-8.251419677628,
    30.710866573656));
#499 = CARTESIAN_POINT('',(96.90364651623,-8.197239624424,
    30.725440875439));
#500 = CARTESIAN_POINT('',(97.204431196232,-8.043982175145,
    30.765883027839));
#501 = CARTESIAN_POINT('',(97.337575319661,-7.951902888583,
    30.789987689416));
#502 = CARTESIAN_POINT('',(97.460890226426,-7.836870290718,
    30.819739680828));
#503 = CARTESIAN_POINT('',(97.568685706443,-7.699979458357,
    30.854528380203));
#504 = CARTESIAN_POINT('',(97.655758512803,-7.543705740851,
    30.893302019695));
#505 = CARTESIAN_POINT('',(97.717506515733,-7.371667383653,
    30.934746660658));
#506 = CARTESIAN_POINT('',(97.75,-7.188521586731,30.977451599567));
#507 = CARTESIAN_POINT('',(97.75,-7.,31.019993552546));
#508 = PCURVE('',#77,#509);
#509 = DEFINITIONAL_REPRESENTATION('',(#510),#562);
#510 = B_SPLINE_CURVE_WITH_KNOTS('',8,(#511,#512,#513,#514,#515,#516,
    #517,#518,#519,#520,#521,#522,#523,#524,#525,#526,#527,#528,#529,
    #530,#531,#532,#533,#534,#535,#536,#537,#538,#539,#540,#541,#542,
    #543,#544,#545,#546,#547,#548,#549,#550,#551,#552,#553,#554,#555,
    #556,#557,#558,#559,#560,#561),.UNSPECIFIED.,.T.,.F.,(9,7,7,7,7,7,7,
    9),(0.,9.67522360367E-02,0.173734374534,0.358177422384,
    0.490270984823,0.630861893642,0.831936566339,1.),.UNSPECIFIED.);
#511 = CARTESIAN_POINT('',(-1.792739744508,-98.75));
#512 = CARTESIAN_POINT('',(-1.789302195603,-98.75));
#513 = CARTESIAN_POINT('',(-1.78588214453,-98.73960387381));
#514 = CARTESIAN_POINT('',(-1.782525864503,-98.71896553988));
#515 = CARTESIAN_POINT('',(-1.779277907126,-98.68853667913));
#516 = CARTESIAN_POINT('',(-1.77617949587,-98.64905469342));
#517 = CARTESIAN_POINT('',(-1.773266831315,-98.60153055045));
#518 = CARTESIAN_POINT('',(-1.770569308167,-98.54723651482));
#519 = CARTESIAN_POINT('',(-1.766148989876,-98.44031782497));
#520 = CARTESIAN_POINT('',(-1.764330285821,-98.38939237866));
#521 = CARTESIAN_POINT('',(-1.762653610962,-98.33536471439));
#522 = CARTESIAN_POINT('',(-1.761120153104,-98.27864847202));
#523 = CARTESIAN_POINT('',(-1.759730364216,-98.21962803351));
#524 = CARTESIAN_POINT('',(-1.75848409386,-98.15866239257));
#525 = CARTESIAN_POINT('',(-1.757380700632,-98.0960885043));
#526 = CARTESIAN_POINT('',(-1.754115322993,-97.8792101434));
#527 = CARTESIAN_POINT('',(-1.752616240742,-97.71816021773));
#528 = CARTESIAN_POINT('',(-1.751910670411,-97.55277505669));
#529 = CARTESIAN_POINT('',(-1.751990163619,-97.38610657102));
#530 = CARTESIAN_POINT('',(-1.752851931748,-97.22096741989));
#531 = CARTESIAN_POINT('',(-1.754502419047,-97.06015445013));
#532 = CARTESIAN_POINT('',(-1.756959655073,-96.90681292316));
#533 = CARTESIAN_POINT('',(-1.762610713829,-96.66389776249));
#534 = CARTESIAN_POINT('',(-1.765430101394,-96.56717792543));
#535 = CARTESIAN_POINT('',(-1.768705616836,-96.4785554999));
#536 = CARTESIAN_POINT('',(-1.772406723494,-96.40115560263));
#537 = CARTESIAN_POINT('',(-1.776482337089,-96.33773019508));
#538 = CARTESIAN_POINT('',(-1.780864659434,-96.2906187468));
#539 = CARTESIAN_POINT('',(-1.785471939197,-96.26171912647));
#540 = CARTESIAN_POINT('',(-1.795253305772,-96.24261885303));
#541 = CARTESIAN_POINT('',(-1.800279418226,-96.25535005557));
#542 = CARTESIAN_POINT('',(-1.805161748246,-96.28983055653));
#543 = CARTESIAN_POINT('',(-1.80978164754,-96.34437985787));
#544 = CARTESIAN_POINT('',(-1.814034660409,-96.4165242663));
#545 = CARTESIAN_POINT('',(-1.817836956707,-96.50305814556));
#546 = CARTESIAN_POINT('',(-1.821132766223,-96.60011067268));
#547 = CARTESIAN_POINT('',(-1.827866027143,-96.85068813142));
#548 = CARTESIAN_POINT('',(-1.830850996602,-97.01413974075));
#549 = CARTESIAN_POINT('',(-1.83287726993,-97.18774474329));
#550 = CARTESIAN_POINT('',(-1.833956608191,-97.36732174021));
#551 = CARTESIAN_POINT('',(-1.83409125246,-97.5490766721));
#552 = CARTESIAN_POINT('',(-1.833278165153,-97.72921611817));
#553 = CARTESIAN_POINT('',(-1.831513844217,-97.90364651623));
#554 = CARTESIAN_POINT('',(-1.826529452074,-98.20443119623));
#555 = CARTESIAN_POINT('',(-1.823536311109,-98.33757531966));
#556 = CARTESIAN_POINT('',(-1.819799925789,-98.46089022642));
#557 = CARTESIAN_POINT('',(-1.815358435231,-98.56868570644));
#558 = CARTESIAN_POINT('',(-1.810295351668,-98.6557585128));
#559 = CARTESIAN_POINT('',(-1.804730813823,-98.71750651573));
#560 = CARTESIAN_POINT('',(-1.798817166362,-98.75));
#561 = CARTESIAN_POINT('',(-1.792739744508,-98.75));
#562 = ( GEOMETRIC_REPRESENTATION_CONTEXT(2) 
PARAMETRIC_REPRESENTATION_CONTEXT() REPRESENTATION_CONTEXT('2D SPACE',''
  ) );
#563 = PCURVE('',#324,#564);
#564 = DEFINITIONAL_REPRESENTATION('',(#565),#617);
#565 = B_SPLINE_CURVE_WITH_KNOTS('',8,(#566,#567,#568,#569,#570,#571,
    #572,#573,#574,#575,#576,#577,#578,#579,#580,#581,#582,#583,#584,
    #585,#586,#587,#588,#589,#590,#591,#592,#593,#594,#595,#596,#597,
    #598,#599,#600,#601,#602,#603,#604,#605,#606,#607,#608,#609,#610,
    #611,#612,#613,#614,#615,#616),.UNSPECIFIED.,.F.,.F.,(9,7,7,7,7,7,7,
    9),(0.,9.67522360367E-02,0.173734374534,0.358177422384,
    0.490270984823,0.630861893642,0.831936566339,1.),.UNSPECIFIED.);
#566 = CARTESIAN_POINT('',(0.,-11.01999355254));
#567 = CARTESIAN_POINT('',(-8.530619588879E-02,-11.04405639487));
#568 = CARTESIAN_POINT('',(-0.170253509037,-11.06757793756));
#569 = CARTESIAN_POINT('',(-0.254638070405,-11.09024082369));
#570 = CARTESIAN_POINT('',(-0.338255744071,-11.11177253339));
#571 = CARTESIAN_POINT('',(-0.420882365871,-11.13195196197));
#572 = CARTESIAN_POINT('',(-0.502249538858,-11.15061299358));
#573 = CARTESIAN_POINT('',(-0.582015985593,-11.16764506999));
#574 = CARTESIAN_POINT('',(-0.721572140746,-11.1952007427));
#575 = CARTESIAN_POINT('',(-0.782408927257,-11.2064015789));
#576 = CARTESIAN_POINT('',(-0.842340092628,-11.21661443884));
#577 = CARTESIAN_POINT('',(-0.901447042471,-11.22586344487));
#578 = CARTESIAN_POINT('',(-0.9598015622,-11.23417397629));
#579 = CARTESIAN_POINT('',(-1.017468638944,-11.24157139623));
#580 = CARTESIAN_POINT('',(-1.074507855354,-11.24808019543));
#581 = CARTESIAN_POINT('',(-1.266260177797,-11.26724458637));
#582 = CARTESIAN_POINT('',(-1.398808621374,-11.27585305002));
#583 = CARTESIAN_POINT('',(-1.529819437413,-11.27984660562));
#584 = CARTESIAN_POINT('',(-1.660295336879,-11.27938799818));
#585 = CARTESIAN_POINT('',(-1.791251974368,-11.27449862829));
#586 = CARTESIAN_POINT('',(-1.923780751702,-11.26504476243));
#587 = CARTESIAN_POINT('',(-2.059147969787,-11.25071608148));
#588 = CARTESIAN_POINT('',(-2.299355690869,-11.2168734234));
#589 = CARTESIAN_POINT('',(-2.4033408443,-11.19979037573));
#590 = CARTESIAN_POINT('',(-2.510288178831,-11.1796414845));
#591 = CARTESIAN_POINT('',(-2.619727317409,-11.15643924345));
#592 = CARTESIAN_POINT('',(-2.731382148434,-11.13030549153));
#593 = CARTESIAN_POINT('',(-2.845109380846,-11.10148998217));
#594 = CARTESIAN_POINT('',(-2.960876290866,-11.07039703137));
#595 = CARTESIAN_POINT('',(-3.204228613194,-11.00269518671));
#596 = CARTESIAN_POINT('',(-3.327980888638,-10.96700470956));
#597 = CARTESIAN_POINT('',(-3.449924114488,-10.93141949783));
#598 = CARTESIAN_POINT('',(-3.569885408826,-10.89689894296));
#599 = CARTESIAN_POINT('',(-3.687583408826,-10.86441811093));
#600 = CARTESIAN_POINT('',(-3.802581223229,-10.83485941478));
#601 = CARTESIAN_POINT('',(-3.914183367015,-10.80888454323));
#602 = CARTESIAN_POINT('',(-4.174350169948,-10.7552666334));
#603 = CARTESIAN_POINT('',(-4.321893581809,-10.73094440115));
#604 = CARTESIAN_POINT('',(-4.466097505417,-10.71418184231));
#605 = CARTESIAN_POINT('',(-4.608434578841,-10.70518157811));
#606 = CARTESIAN_POINT('',(-4.750195452701,-10.70406897588));
#607 = CARTESIAN_POINT('',(-4.89250761592,-10.71086657365));
#608 = CARTESIAN_POINT('',(-5.036520889644,-10.72544087543));
#609 = CARTESIAN_POINT('',(-5.30658372024,-10.76588302783));
#610 = CARTESIAN_POINT('',(-5.434931258615,-10.78998768941));
#611 = CARTESIAN_POINT('',(-5.56744513614,-10.81973968082));
#612 = CARTESIAN_POINT('',(-5.703537779752,-10.8545283802));
#613 = CARTESIAN_POINT('',(-5.84299655644,-10.89330201969));
#614 = CARTESIAN_POINT('',(-5.985850565689,-10.93474666065));
#615 = CARTESIAN_POINT('',(-6.132368037795,-10.97745159956));
#616 = CARTESIAN_POINT('',(-6.28318530718,-11.01999355254));
#617 = ( GEOMETRIC_REPRESENTATION_CONTEXT(2) 
PARAMETRIC_REPRESENTATION_CONTEXT() REPRESENTATION_CONTEXT('2D SPACE',''
  ) );
#618 = FACE_BOUND('',#619,.T.);
#619 = EDGE_LOOP('',(#620));
#620 = ORIENTED_EDGE('',*,*,#621,.T.);
#621 = EDGE_CURVE('',#622,#622,#624,.T.);
#622 = VERTEX_POINT('',#623);
#623 = CARTESIAN_POINT('',(91.25,-4.,31.54742461755));
#624 = SURFACE_CURVE('',#625,(#677,#732),.PCURVE_S1.);
#625 = B_SPLINE_CURVE_WITH_KNOTS('',8,(#626,#627,#628,#629,#630,#631,
    #632,#633,#634,#635,#636,#637,#638,#639,#640,#641,#642,#643,#644,
    #645,#646,#647,#648,#649,#650,#651,#652,#653,#654,#655,#656,#657,
    #658,#659,#660,#661,#662,#663,#664,#665,#666,#667,#668,#669,#670,
    #671,#672,#673,#674,#675,#676),.UNSPECIFIED.,.T.,.F.,(9,7,7,7,7,7,7,
    9),(0.,0.135348942364,0.24969255508,0.399350543477,0.534717112771,
    0.749395694835,0.864005564832,1.),.UNSPECIFIED.);
#626 = CARTESIAN_POINT('',(91.25,-4.,31.54742461755));
#627 = CARTESIAN_POINT('',(91.25,-3.846893887018,31.566837436801));
#628 = CARTESIAN_POINT('',(91.228567884847,-3.696459874547,
    31.585048577256));
#629 = CARTESIAN_POINT('',(91.187012285567,-3.552182749094,
    31.601671128141));
#630 = CARTESIAN_POINT('',(91.127285445606,-3.417179190604,
    31.616472666079));
#631 = CARTESIAN_POINT('',(91.051948377012,-3.294087261959,
    31.629363123477));
#632 = CARTESIAN_POINT('',(90.964131195996,-3.184926187658,
    31.640354998904));
#633 = CARTESIAN_POINT('',(90.867486521083,-3.090923450426,
    31.64952493881));
#634 = CARTESIAN_POINT('',(90.680510434028,-2.945889930641,
    31.663325529419));
#635 = CARTESIAN_POINT('',(90.59014741345,-2.889383920765,
    31.668541608649));
#636 = CARTESIAN_POINT('',(90.496149872151,-2.842625674586,
    31.672753619956));
#637 = CARTESIAN_POINT('',(90.399440902538,-2.805445075314,
    31.676041647042));
#638 = CARTESIAN_POINT('',(90.300806321152,-2.777686366442,
    31.678466312071));
#639 = CARTESIAN_POINT('',(90.200936286735,-2.759227944814,
    31.680068633114));
#640 = CARTESIAN_POINT('',(90.100463787845,-2.75,31.680869621903));
#641 = CARTESIAN_POINT('',(89.868508541594,-2.75,31.680869621903));
#642 = CARTESIAN_POINT('',(89.736923704148,-2.765807647216,
    31.679497443322));
#643 = CARTESIAN_POINT('',(89.606619967373,-2.797464345372,
    31.676749639772));
#644 = CARTESIAN_POINT('',(89.479082831741,-2.845198189438,
    31.672561531326));
#645 = CARTESIAN_POINT('',(89.356023851894,-2.909338972972,
    31.666815396858));
#646 = CARTESIAN_POINT('',(89.239489983288,-2.990244471327,
    31.659338080849));
#647 = CARTESIAN_POINT('',(89.132014713115,-3.088195845673,
    31.649903832377));
#648 = CARTESIAN_POINT('',(88.950789019215,-3.307260078157,
    31.627724642572));
#649 = CARTESIAN_POINT('',(88.873074392776,-3.427351019051,
    31.615170834044));
#650 = CARTESIAN_POINT('',(88.809184342362,-3.561663218033,
    31.600569225664));
#651 = CARTESIAN_POINT('',(88.763208561165,-3.706988161504,
    31.584020289469));
#652 = CARTESIAN_POINT('',(88.737810823492,-3.859192654587,
    31.565788226011));
#653 = CARTESIAN_POINT('',(88.734181184389,-4.013640264559,
    31.546338834484));
#654 = CARTESIAN_POINT('',(88.751980436964,-4.165625015773,
    31.526323239679));
#655 = CARTESIAN_POINT('',(88.84841043337,-4.541195055277,31.47493596228
    ));
#656 = CARTESIAN_POINT('',(88.953984953601,-4.744482986234,
    31.445160577229));
#657 = CARTESIAN_POINT('',(89.093024286408,-4.914977457851,
    31.418710202455));
#658 = CARTESIAN_POINT('',(89.255779002263,-5.050822925676,
    31.396782058537));
#659 = CARTESIAN_POINT('',(89.434131848103,-5.151510143291,
    31.380119237933));
#660 = CARTESIAN_POINT('',(89.621333128976,-5.217561690211,
    31.369063396367));
#661 = CARTESIAN_POINT('',(89.811639788289,-5.25,31.363633399209));
#662 = CARTESIAN_POINT('',(90.100559353286,-5.25,31.363633399209));
#663 = CARTESIAN_POINT('',(90.201129211178,-5.240754468756,
    31.365181049326));
#664 = CARTESIAN_POINT('',(90.301079180084,-5.222260371823,
    31.368276727959));
#665 = CARTESIAN_POINT('',(90.399759067412,-5.194455954442,
    31.372915296947));
#666 = CARTESIAN_POINT('',(90.496465691911,-5.157234915307,
    31.379083040909));
#667 = CARTESIAN_POINT('',(90.590406531655,-5.110462553912,
    31.386754031112));
#668 = CARTESIAN_POINT('',(90.680660209649,-5.053993891478,
    31.395885913856));
#669 = CARTESIAN_POINT('',(90.867555579108,-4.909022982679,
    31.418908933043));
#670 = CARTESIAN_POINT('',(90.964102784527,-4.815069905545,
    31.433598839169));
#671 = CARTESIAN_POINT('',(91.051794075919,-4.706053873862,
    31.450293428833));
#672 = CARTESIAN_POINT('',(91.12706268227,-4.583150734511,
    31.468610787565));
#673 = CARTESIAN_POINT('',(91.186811809039,-4.448301736788,31.4880369758
    ));
#674 = CARTESIAN_POINT('',(91.228463380279,-4.304061732652,
    31.508004563594));
#675 = CARTESIAN_POINT('',(91.25,-4.153479124116,31.527964503011));
#676 = CARTESIAN_POINT('',(91.25,-4.,31.54742461755));
#677 = PCURVE('',#77,#678);
#678 = DEFINITIONAL_REPRESENTATION('',(#679),#731);
#679 = B_SPLINE_CURVE_WITH_KNOTS('',8,(#680,#681,#682,#683,#684,#685,
    #686,#687,#688,#689,#690,#691,#692,#693,#694,#695,#696,#697,#698,
    #699,#700,#701,#702,#703,#704,#705,#706,#707,#708,#709,#710,#711,
    #712,#713,#714,#715,#716,#717,#718,#719,#720,#721,#722,#723,#724,
    #725,#726,#727,#728,#729,#730),.UNSPECIFIED.,.T.,.F.,(9,7,7,7,7,7,7,
    9),(0.,0.135348942364,0.24969255508,0.399350543477,0.534717112771,
    0.749395694835,0.864005564832,1.),.UNSPECIFIED.);
#680 = CARTESIAN_POINT('',(-1.696916575952,-92.25));
#681 = CARTESIAN_POINT('',(-1.692063371139,-92.25));
#682 = CARTESIAN_POINT('',(-1.687298280169,-92.22856788484));
#683 = CARTESIAN_POINT('',(-1.682731375652,-92.18701228556));
#684 = CARTESIAN_POINT('',(-1.678460653265,-92.1272854456));
#685 = CARTESIAN_POINT('',(-1.674568738848,-92.05194837701));
#686 = CARTESIAN_POINT('',(-1.671118669133,-91.96413119599));
#687 = CARTESIAN_POINT('',(-1.668148585331,-91.86748652108));
#688 = CARTESIAN_POINT('',(-1.663567181737,-91.68051043402));
#689 = CARTESIAN_POINT('',(-1.661782715581,-91.59014741345));
#690 = CARTESIAN_POINT('',(-1.660306381538,-91.49614987215));
#691 = CARTESIAN_POINT('',(-1.659132618747,-91.39944090253));
#692 = CARTESIAN_POINT('',(-1.65825637976,-91.30080632115));
#693 = CARTESIAN_POINT('',(-1.657673743451,-91.20093628673));
#694 = CARTESIAN_POINT('',(-1.657382465347,-91.10046378784));
#695 = CARTESIAN_POINT('',(-1.657382465347,-90.86850854159));
#696 = CARTESIAN_POINT('',(-1.657881430521,-90.73692370414));
#697 = CARTESIAN_POINT('',(-1.658880667139,-90.60661996737));
#698 = CARTESIAN_POINT('',(-1.660387497537,-90.47908283174));
#699 = CARTESIAN_POINT('',(-1.66241257343,-90.35602385189));
#700 = CARTESIAN_POINT('',(-1.664967589891,-90.23948998328));
#701 = CARTESIAN_POINT('',(-1.668062039073,-90.13201471311));
#702 = CARTESIAN_POINT('',(-1.674986068554,-89.95078901921));
#703 = CARTESIAN_POINT('',(-1.678783070295,-89.87307439277));
#704 = CARTESIAN_POINT('',(-1.683031551655,-89.80918434236));
#705 = CARTESIAN_POINT('',(-1.687630921926,-89.76320856116));
#706 = CARTESIAN_POINT('',(-1.692451276125,-89.73781082349));
#707 = CARTESIAN_POINT('',(-1.697346343139,-89.73418118438));
#708 = CARTESIAN_POINT('',(-1.702166944978,-89.75198043696));
#709 = CARTESIAN_POINT('',(-1.714087362083,-89.84841043337));
#710 = CARTESIAN_POINT('',(-1.720547983125,-89.9539849536));
#711 = CARTESIAN_POINT('',(-1.725973306948,-90.0930242864));
#712 = CARTESIAN_POINT('',(-1.730300417362,-90.25577900226));
#713 = CARTESIAN_POINT('',(-1.733509733283,-90.4341318481));
#714 = CARTESIAN_POINT('',(-1.735615724402,-90.62133312897));
#715 = CARTESIAN_POINT('',(-1.736649989522,-90.81163978828));
#716 = CARTESIAN_POINT('',(-1.736649989522,-91.10055935328));
#717 = CARTESIAN_POINT('',(-1.736355204264,-91.20112921117));
#718 = CARTESIAN_POINT('',(-1.735765537798,-91.30107918008));
#719 = CARTESIAN_POINT('',(-1.734879101268,-91.39975906741));
#720 = CARTESIAN_POINT('',(-1.733692669015,-91.49646569191));
#721 = CARTESIAN_POINT('',(-1.732202194791,-91.59040653165));
#722 = CARTESIAN_POINT('',(-1.730403388055,-91.68066020964));
#723 = CARTESIAN_POINT('',(-1.725787423188,-91.8675555791));
#724 = CARTESIAN_POINT('',(-1.722797037337,-91.96410278452));
#725 = CARTESIAN_POINT('',(-1.719328923248,-92.05179407591));
#726 = CARTESIAN_POINT('',(-1.715421425022,-92.12706268227));
#727 = CARTESIAN_POINT('',(-1.711137227908,-92.18681180903));
#728 = CARTESIAN_POINT('',(-1.706558248702,-92.22846338027));
#729 = CARTESIAN_POINT('',(-1.701781604586,-92.25));
#730 = CARTESIAN_POINT('',(-1.696916575952,-92.25));
#731 = ( GEOMETRIC_REPRESENTATION_CONTEXT(2) 
PARAMETRIC_REPRESENTATION_CONTEXT() REPRESENTATION_CONTEXT('2D SPACE',''
  ) );
#732 = PCURVE('',#359,#733);
#733 = DEFINITIONAL_REPRESENTATION('',(#734),#786);
#734 = B_SPLINE_CURVE_WITH_KNOTS('',8,(#735,#736,#737,#738,#739,#740,
    #741,#742,#743,#744,#745,#746,#747,#748,#749,#750,#751,#752,#753,
    #754,#755,#756,#757,#758,#759,#760,#761,#762,#763,#764,#765,#766,
    #767,#768,#769,#770,#771,#772,#773,#774,#775,#776,#777,#778,#779,
    #780,#781,#782,#783,#784,#785),.UNSPECIFIED.,.F.,.F.,(9,7,7,7,7,7,7,
    9),(0.,0.135348942364,0.24969255508,0.399350543477,0.534717112771,
    0.749395694835,0.864005564832,1.),.UNSPECIFIED.);
#735 = CARTESIAN_POINT('',(0.,-11.54742461755));
#736 = CARTESIAN_POINT('',(-0.122484890386,-11.5668374368));
#737 = CARTESIAN_POINT('',(-0.242832057128,-11.58504857725));
#738 = CARTESIAN_POINT('',(-0.361053975322,-11.60167112814));
#739 = CARTESIAN_POINT('',(-0.477046904135,-11.61647266607));
#740 = CARTESIAN_POINT('',(-0.590580931476,-11.62936312347));
#741 = CARTESIAN_POINT('',(-0.701262928025,-11.6403549989));
#742 = CARTESIAN_POINT('',(-0.808446354935,-11.64952493881));
#743 = CARTESIAN_POINT('',(-0.997752082674,-11.66332552941));
#744 = CARTESIAN_POINT('',(-1.082579657325,-11.66854160864));
#745 = CARTESIAN_POINT('',(-1.165915644407,-11.67275361995));
#746 = CARTESIAN_POINT('',(-1.248078752048,-11.67604164704));
#747 = CARTESIAN_POINT('',(-1.32936100492,-11.67846631207));
#748 = CARTESIAN_POINT('',(-1.41004679111,-11.68006863311));
#749 = CARTESIAN_POINT('',(-1.490425296519,-11.6808696219));
#750 = CARTESIAN_POINT('',(-1.67598949352,-11.6808696219));
#751 = CARTESIAN_POINT('',(-1.781257000463,-11.67949744332));
#752 = CARTESIAN_POINT('',(-1.887275017322,-11.67674963977));
#753 = CARTESIAN_POINT('',(-1.994635209964,-11.67256153132));
#754 = CARTESIAN_POINT('',(-2.103941826042,-11.66681539685));
#755 = CARTESIAN_POINT('',(-2.215831779598,-11.65933808084));
#756 = CARTESIAN_POINT('',(-2.331016244906,-11.64990383237));
#757 = CARTESIAN_POINT('',(-2.558463842504,-11.62772464257));
#758 = CARTESIAN_POINT('',(-2.67211939159,-11.61517083404));
#759 = CARTESIAN_POINT('',(-2.789409204786,-11.60056922566));
#760 = CARTESIAN_POINT('',(-2.909043649731,-11.58402028946));
#761 = CARTESIAN_POINT('',(-3.030066484204,-11.56578822601));
#762 = CARTESIAN_POINT('',(-3.151652868363,-11.54633883448));
#763 = CARTESIAN_POINT('',(-3.2729614715,-11.52632323967));
#764 = CARTESIAN_POINT('',(-3.583163056311,-11.47493596228));
#765 = CARTESIAN_POINT('',(-3.761690477498,-11.44516057722));
#766 = CARTESIAN_POINT('',(-3.931940439358,-11.41871020245));
#767 = CARTESIAN_POINT('',(-4.095686626805,-11.39678205853));
#768 = CARTESIAN_POINT('',(-4.254487975989,-11.38011923793));
#769 = CARTESIAN_POINT('',(-4.40945381682,-11.36906339636));
#770 = CARTESIAN_POINT('',(-4.561700811016,-11.3636333992));
#771 = CARTESIAN_POINT('',(-4.792836463014,-11.3636333992));
#772 = CARTESIAN_POINT('',(-4.873292890294,-11.36518104932));
#773 = CARTESIAN_POINT('',(-4.954044895728,-11.36827672795));
#774 = CARTESIAN_POINT('',(-5.035370197227,-11.37291529694));
#775 = CARTESIAN_POINT('',(-5.117542790338,-11.3790830409));
#776 = CARTESIAN_POINT('',(-5.200844782208,-11.38675403111));
#777 = CARTESIAN_POINT('',(-5.285584866266,-11.39588591385));
#778 = CARTESIAN_POINT('',(-5.474808870703,-11.41890893304));
#779 = CARTESIAN_POINT('',(-5.581906269113,-11.43359883916));
#780 = CARTESIAN_POINT('',(-5.692441212988,-11.45029342883));
#781 = CARTESIAN_POINT('',(-5.80582877685,-11.46861078756));
#782 = CARTESIAN_POINT('',(-5.921723382141,-11.4880369758));
#783 = CARTESIAN_POINT('',(-6.039935917732,-11.50800456359));
#784 = CARTESIAN_POINT('',(-6.160402007887,-11.52796450301));
#785 = CARTESIAN_POINT('',(-6.28318530718,-11.54742461755));
#786 = ( GEOMETRIC_REPRESENTATION_CONTEXT(2) 
PARAMETRIC_REPRESENTATION_CONTEXT() REPRESENTATION_CONTEXT('2D SPACE',''
  ) );
#787 = FACE_BOUND('',#788,.T.);
#788 = EDGE_LOOP('',(#789));
#789 = ORIENTED_EDGE('',*,*,#790,.T.);
#790 = EDGE_CURVE('',#791,#791,#793,.T.);
#791 = VERTEX_POINT('',#792);
#792 = CARTESIAN_POINT('',(84.75,-7.,31.019993552546));
#793 = SURFACE_CURVE('',#794,(#846,#901),.PCURVE_S1.);
#794 = B_SPLINE_CURVE_WITH_KNOTS('',8,(#795,#796,#797,#798,#799,#800,
    #801,#802,#803,#804,#805,#806,#807,#808,#809,#810,#811,#812,#813,
    #814,#815,#816,#817,#818,#819,#820,#821,#822,#823,#824,#825,#826,
    #827,#828,#829,#830,#831,#832,#833,#834,#835,#836,#837,#838,#839,
    #840,#841,#842,#843,#844,#845),.UNSPECIFIED.,.T.,.F.,(9,7,7,7,7,7,7,
    9),(0.,9.675223602543E-02,0.173734374519,0.358177422361,
    0.490270984793,0.630861893605,0.831936566293,1.),.UNSPECIFIED.);
#795 = CARTESIAN_POINT('',(84.75,-7.,31.019993552546));
#796 = CARTESIAN_POINT('',(84.75,-6.893367255146,31.044056394877));
#797 = CARTESIAN_POINT('',(84.739603873818,-6.787182786289,
    31.067577937561));
#798 = CARTESIAN_POINT('',(84.718965539887,-6.682885466851,
    31.090240823698));
#799 = CARTESIAN_POINT('',(84.688536679128,-6.581868137757,
    31.111772533391));
#800 = CARTESIAN_POINT('',(84.64905469343,-6.485426003757,
    31.131951961978));
#801 = CARTESIAN_POINT('',(84.601530550462,-6.394701872001,
    31.150612993587));
#802 = CARTESIAN_POINT('',(84.547236514815,-6.310628232849,
    31.167645069994));
#803 = CARTESIAN_POINT('',(84.440317824977,-6.172789488478,31.1952007427
    ));
#804 = CARTESIAN_POINT('',(84.389392378668,-6.116049524129,
    31.206401578909));
#805 = CARTESIAN_POINT('',(84.33536471439,-6.063718319229,
    31.216614438845));
#806 = CARTESIAN_POINT('',(84.278648472029,-6.015839361613,
    31.225863444873));
#807 = CARTESIAN_POINT('',(84.21962803351,-5.972432370862,
    31.234173976294));
#808 = CARTESIAN_POINT('',(84.15866239257,-5.933497431359,
    31.241571396232));
#809 = CARTESIAN_POINT('',(84.0960885043,-5.899018485119,31.248080195437
    ));
#810 = CARTESIAN_POINT('',(83.879210143401,-5.796963275113,
    31.267244586376));
#811 = CARTESIAN_POINT('',(83.718160217737,-5.750075774639,
    31.275853050021));
#812 = CARTESIAN_POINT('',(83.552775056696,-5.727996972217,
    31.27984660562));
#813 = CARTESIAN_POINT('',(83.386106571028,-5.730483001741,
    31.27938799818));
#814 = CARTESIAN_POINT('',(83.220967419892,-5.757447349741,
    31.274498628294));
#815 = CARTESIAN_POINT('',(83.060154450132,-5.809074528908,
    31.265044762437));
#816 = CARTESIAN_POINT('',(82.90681292316,-5.885890666513,
    31.250716081488));
#817 = CARTESIAN_POINT('',(82.66389776249,-6.062378861437,
    31.216873423407));
#818 = CARTESIAN_POINT('',(82.567177925432,-6.150393086312,
    31.199790375735));
#819 = CARTESIAN_POINT('',(82.478555499909,-6.252587874423,
    31.179641484506));
#820 = CARTESIAN_POINT('',(82.401155602636,-6.367975243755,
    31.156439243456));
#821 = CARTESIAN_POINT('',(82.337730195085,-6.49492071243,
    31.130305491538));
#822 = CARTESIAN_POINT('',(82.290618746807,-6.631270484206,
    31.101489982173));
#823 = CARTESIAN_POINT('',(82.261719126472,-6.774446986213,
    31.070397031375));
#824 = CARTESIAN_POINT('',(82.242618853037,-7.078037138848,
    31.002695186715));
#825 = CARTESIAN_POINT('',(82.255350055576,-7.233834402595,
    30.967004709566));
#826 = CARTESIAN_POINT('',(82.289830556539,-7.384964279753,
    30.931419497836));
#827 = CARTESIAN_POINT('',(82.344379857873,-7.527768505943,
    30.896898942964));
#828 = CARTESIAN_POINT('',(82.416524266309,-7.659059112363,
    30.864418110937));
#829 = CARTESIAN_POINT('',(82.503058145563,-7.776304703169,
    30.83485941478));
#830 = CARTESIAN_POINT('',(82.600110672689,-7.877842089017,
    30.80888454323));
#831 = CARTESIAN_POINT('',(82.850688131428,-8.085137790924,
    30.755266633405));
#832 = CARTESIAN_POINT('',(83.014139740756,-8.176892605726,
    30.730944401152));
#833 = CARTESIAN_POINT('',(83.187744743298,-8.239109821676,
    30.714181842318));
#834 = CARTESIAN_POINT('',(83.367321740214,-8.272231467822,
    30.705181578116));
#835 = CARTESIAN_POINT('',(83.549076672108,-8.276366162242,
    30.704068975881));
#836 = CARTESIAN_POINT('',(83.729216118178,-8.251419677628,
    30.710866573656));
#837 = CARTESIAN_POINT('',(83.90364651623,-8.197239624424,
    30.725440875439));
#838 = CARTESIAN_POINT('',(84.204431196276,-8.043982175122,
    30.765883027845));
#839 = CARTESIAN_POINT('',(84.337575319664,-7.951902888566,
    30.78998768942));
#840 = CARTESIAN_POINT('',(84.460890226398,-7.836870290732,
    30.819739680824));
#841 = CARTESIAN_POINT('',(84.568685706419,-7.699979458395,
    30.854528380194));
#842 = CARTESIAN_POINT('',(84.655758512805,-7.543705740877,
    30.893302019689));
#843 = CARTESIAN_POINT('',(84.717506515749,-7.371667383635,
    30.934746660663));
#844 = CARTESIAN_POINT('',(84.75,-7.188521586686,30.977451599577));
#845 = CARTESIAN_POINT('',(84.75,-7.,31.019993552546));
#846 = PCURVE('',#77,#847);
#847 = DEFINITIONAL_REPRESENTATION('',(#848),#900);
#848 = B_SPLINE_CURVE_WITH_KNOTS('',8,(#849,#850,#851,#852,#853,#854,
    #855,#856,#857,#858,#859,#860,#861,#862,#863,#864,#865,#866,#867,
    #868,#869,#870,#871,#872,#873,#874,#875,#876,#877,#878,#879,#880,
    #881,#882,#883,#884,#885,#886,#887,#888,#889,#890,#891,#892,#893,
    #894,#895,#896,#897,#898,#899),.UNSPECIFIED.,.T.,.F.,(9,7,7,7,7,7,7,
    9),(0.,9.675223602543E-02,0.173734374519,0.358177422361,
    0.490270984793,0.630861893605,0.831936566293,1.),.UNSPECIFIED.);
#849 = CARTESIAN_POINT('',(-1.792739744508,-85.75));
#850 = CARTESIAN_POINT('',(-1.789302195603,-85.75));
#851 = CARTESIAN_POINT('',(-1.78588214453,-85.73960387381));
#852 = CARTESIAN_POINT('',(-1.782525864503,-85.71896553988));
#853 = CARTESIAN_POINT('',(-1.779277907126,-85.68853667912));
#854 = CARTESIAN_POINT('',(-1.77617949587,-85.64905469343));
#855 = CARTESIAN_POINT('',(-1.773266831316,-85.60153055046));
#856 = CARTESIAN_POINT('',(-1.770569308166,-85.54723651481));
#857 = CARTESIAN_POINT('',(-1.766148989876,-85.44031782497));
#858 = CARTESIAN_POINT('',(-1.764330285821,-85.38939237866));
#859 = CARTESIAN_POINT('',(-1.762653610962,-85.33536471439));
#860 = CARTESIAN_POINT('',(-1.761120153104,-85.27864847202));
#861 = CARTESIAN_POINT('',(-1.759730364216,-85.21962803351));
#862 = CARTESIAN_POINT('',(-1.75848409386,-85.15866239257));
#863 = CARTESIAN_POINT('',(-1.757380700632,-85.0960885043));
#864 = CARTESIAN_POINT('',(-1.754115322993,-84.8792101434));
#865 = CARTESIAN_POINT('',(-1.752616240742,-84.71816021773));
#866 = CARTESIAN_POINT('',(-1.751910670411,-84.55277505669));
#867 = CARTESIAN_POINT('',(-1.751990163619,-84.38610657102));
#868 = CARTESIAN_POINT('',(-1.752851931748,-84.22096741989));
#869 = CARTESIAN_POINT('',(-1.754502419047,-84.06015445013));
#870 = CARTESIAN_POINT('',(-1.756959655073,-83.90681292316));
#871 = CARTESIAN_POINT('',(-1.762610713829,-83.66389776249));
#872 = CARTESIAN_POINT('',(-1.765430101394,-83.56717792543));
#873 = CARTESIAN_POINT('',(-1.768705616836,-83.4785554999));
#874 = CARTESIAN_POINT('',(-1.772406723494,-83.40115560263));
#875 = CARTESIAN_POINT('',(-1.776482337089,-83.33773019508));
#876 = CARTESIAN_POINT('',(-1.780864659434,-83.2906187468));
#877 = CARTESIAN_POINT('',(-1.785471939197,-83.26171912647));
#878 = CARTESIAN_POINT('',(-1.795253305772,-83.24261885303));
#879 = CARTESIAN_POINT('',(-1.800279418226,-83.25535005557));
#880 = CARTESIAN_POINT('',(-1.805161748246,-83.28983055653));
#881 = CARTESIAN_POINT('',(-1.80978164754,-83.34437985787));
#882 = CARTESIAN_POINT('',(-1.814034660409,-83.4165242663));
#883 = CARTESIAN_POINT('',(-1.817836956707,-83.50305814556));
#884 = CARTESIAN_POINT('',(-1.821132766223,-83.60011067268));
#885 = CARTESIAN_POINT('',(-1.827866027143,-83.85068813142));
#886 = CARTESIAN_POINT('',(-1.830850996602,-84.01413974075));
#887 = CARTESIAN_POINT('',(-1.83287726993,-84.18774474329));
#888 = CARTESIAN_POINT('',(-1.833956608191,-84.36732174021));
#889 = CARTESIAN_POINT('',(-1.83409125246,-84.5490766721));
#890 = CARTESIAN_POINT('',(-1.833278165153,-84.72921611817));
#891 = CARTESIAN_POINT('',(-1.831513844217,-84.90364651623));
#892 = CARTESIAN_POINT('',(-1.826529452074,-85.20443119627));
#893 = CARTESIAN_POINT('',(-1.823536311108,-85.33757531966));
#894 = CARTESIAN_POINT('',(-1.819799925789,-85.46089022639));
#895 = CARTESIAN_POINT('',(-1.815358435232,-85.56868570641));
#896 = CARTESIAN_POINT('',(-1.810295351669,-85.6557585128));
#897 = CARTESIAN_POINT('',(-1.804730813822,-85.71750651574));
#898 = CARTESIAN_POINT('',(-1.798817166361,-85.75));
#899 = CARTESIAN_POINT('',(-1.792739744508,-85.75));
#900 = ( GEOMETRIC_REPRESENTATION_CONTEXT(2) 
PARAMETRIC_REPRESENTATION_CONTEXT() REPRESENTATION_CONTEXT('2D SPACE',''
  ) );
#901 = PCURVE('',#289,#902);
#902 = DEFINITIONAL_REPRESENTATION('',(#903),#955);
#903 = B_SPLINE_CURVE_WITH_KNOTS('',8,(#904,#905,#906,#907,#908,#909,
    #910,#911,#912,#913,#914,#915,#916,#917,#918,#919,#920,#921,#922,
    #923,#924,#925,#926,#927,#928,#929,#930,#931,#932,#933,#934,#935,
    #936,#937,#938,#939,#940,#941,#942,#943,#944,#945,#946,#947,#948,
    #949,#950,#951,#952,#953,#954),.UNSPECIFIED.,.F.,.F.,(9,7,7,7,7,7,7,
    9),(0.,9.675223602543E-02,0.173734374519,0.358177422361,
    0.490270984793,0.630861893605,0.831936566293,1.),.UNSPECIFIED.);
#904 = CARTESIAN_POINT('',(0.,-11.01999355254));
#905 = CARTESIAN_POINT('',(-8.530619588287E-02,-11.04405639487));
#906 = CARTESIAN_POINT('',(-0.17025350904,-11.06757793756));
#907 = CARTESIAN_POINT('',(-0.254638070411,-11.09024082369));
#908 = CARTESIAN_POINT('',(-0.338255744071,-11.11177253339));
#909 = CARTESIAN_POINT('',(-0.420882365865,-11.13195196197));
#910 = CARTESIAN_POINT('',(-0.502249538855,-11.15061299358));
#911 = CARTESIAN_POINT('',(-0.582015985599,-11.16764506999));
#912 = CARTESIAN_POINT('',(-0.721572140746,-11.1952007427));
#913 = CARTESIAN_POINT('',(-0.782408927257,-11.2064015789));
#914 = CARTESIAN_POINT('',(-0.842340092628,-11.21661443884));
#915 = CARTESIAN_POINT('',(-0.901447042471,-11.22586344487));
#916 = CARTESIAN_POINT('',(-0.9598015622,-11.23417397629));
#917 = CARTESIAN_POINT('',(-1.017468638944,-11.24157139623));
#918 = CARTESIAN_POINT('',(-1.074507855354,-11.24808019543));
#919 = CARTESIAN_POINT('',(-1.266260177797,-11.26724458637));
#920 = CARTESIAN_POINT('',(-1.398808621374,-11.27585305002));
#921 = CARTESIAN_POINT('',(-1.529819437413,-11.27984660562));
#922 = CARTESIAN_POINT('',(-1.660295336879,-11.27938799818));
#923 = CARTESIAN_POINT('',(-1.791251974369,-11.27449862829));
#924 = CARTESIAN_POINT('',(-1.923780751702,-11.26504476243));
#925 = CARTESIAN_POINT('',(-2.059147969786,-11.25071608148));
#926 = CARTESIAN_POINT('',(-2.299355690869,-11.2168734234));
#927 = CARTESIAN_POINT('',(-2.4033408443,-11.19979037573));
#928 = CARTESIAN_POINT('',(-2.510288178831,-11.1796414845));
#929 = CARTESIAN_POINT('',(-2.61972731741,-11.15643924345));
#930 = CARTESIAN_POINT('',(-2.731382148435,-11.13030549153));
#931 = CARTESIAN_POINT('',(-2.845109380845,-11.10148998217));
#932 = CARTESIAN_POINT('',(-2.960876290866,-11.07039703137));
#933 = CARTESIAN_POINT('',(-3.204228613194,-11.00269518671));
#934 = CARTESIAN_POINT('',(-3.327980888638,-10.96700470956));
#935 = CARTESIAN_POINT('',(-3.449924114488,-10.93141949783));
#936 = CARTESIAN_POINT('',(-3.569885408826,-10.89689894296));
#937 = CARTESIAN_POINT('',(-3.687583408825,-10.86441811093));
#938 = CARTESIAN_POINT('',(-3.802581223229,-10.83485941478));
#939 = CARTESIAN_POINT('',(-3.914183367015,-10.80888454323));
#940 = CARTESIAN_POINT('',(-4.174350169948,-10.7552666334));
#941 = CARTESIAN_POINT('',(-4.321893581808,-10.73094440115));
#942 = CARTESIAN_POINT('',(-4.466097505419,-10.71418184231));
#943 = CARTESIAN_POINT('',(-4.608434578838,-10.70518157811));
#944 = CARTESIAN_POINT('',(-4.750195452703,-10.70406897588));
#945 = CARTESIAN_POINT('',(-4.892507615919,-10.71086657365));
#946 = CARTESIAN_POINT('',(-5.036520889644,-10.72544087543));
#947 = CARTESIAN_POINT('',(-5.30658372028,-10.76588302784));
#948 = CARTESIAN_POINT('',(-5.434931258623,-10.78998768942));
#949 = CARTESIAN_POINT('',(-5.567445136118,-10.81973968082));
#950 = CARTESIAN_POINT('',(-5.703537779719,-10.85452838019));
#951 = CARTESIAN_POINT('',(-5.842996556422,-10.89330201968));
#952 = CARTESIAN_POINT('',(-5.985850565703,-10.93474666066));
#953 = CARTESIAN_POINT('',(-6.132368037831,-10.97745159957));
#954 = CARTESIAN_POINT('',(-6.28318530718,-11.01999355254));
#955 = ( GEOMETRIC_REPRESENTATION_CONTEXT(2) 
PARAMETRIC_REPRESENTATION_CONTEXT() REPRESENTATION_CONTEXT('2D SPACE',''
  ) );
#956 = ADVANCED_FACE('',(#957),#164,.T.);
#957 = FACE_BOUND('',#958,.T.);
#958 = EDGE_LOOP('',(#959,#960,#961,#962));
#959 = ORIENTED_EDGE('',*,*,#146,.F.);
#960 = ORIENTED_EDGE('',*,*,#424,.T.);
#961 = ORIENTED_EDGE('',*,*,#374,.T.);
#962 = ORIENTED_EDGE('',*,*,#222,.F.);
#963 = ADVANCED_FACE('',(#964),#289,.F.);
#964 = FACE_BOUND('',#965,.T.);
#965 = EDGE_LOOP('',(#966,#967,#988,#989));
#966 = ORIENTED_EDGE('',*,*,#790,.F.);
#967 = ORIENTED_EDGE('',*,*,#968,.T.);
#968 = EDGE_CURVE('',#791,#269,#969,.T.);
#969 = SEAM_CURVE('',#970,(#974,#981),.PCURVE_S1.);
#970 = LINE('',#971,#972);
#971 = CARTESIAN_POINT('',(84.75,-7.,20.));
#972 = VECTOR('',#973,1.);
#973 = DIRECTION('',(0.,0.,1.));
#974 = PCURVE('',#289,#975);
#975 = DEFINITIONAL_REPRESENTATION('',(#976),#980);
#976 = LINE('',#977,#978);
#977 = CARTESIAN_POINT('',(-6.28318530718,0.));
#978 = VECTOR('',#979,1.);
#979 = DIRECTION('',(-0.,-1.));
#980 = ( GEOMETRIC_REPRESENTATION_CONTEXT(2) 
PARAMETRIC_REPRESENTATION_CONTEXT() REPRESENTATION_CONTEXT('2D SPACE',''
  ) );
#981 = PCURVE('',#289,#982);
#982 = DEFINITIONAL_REPRESENTATION('',(#983),#987);
#983 = LINE('',#984,#985);
#984 = CARTESIAN_POINT('',(-0.,0.));
#985 = VECTOR('',#986,1.);
#986 = DIRECTION('',(-0.,-1.));
#987 = ( GEOMETRIC_REPRESENTATION_CONTEXT(2) 
PARAMETRIC_REPRESENTATION_CONTEXT() REPRESENTATION_CONTEXT('2D SPACE',''
  ) );
#988 = ORIENTED_EDGE('',*,*,#268,.F.);
#989 = ORIENTED_EDGE('',*,*,#968,.F.);
#990 = ADVANCED_FACE('',(#991),#324,.F.);
#991 = FACE_BOUND('',#992,.T.);
#992 = EDGE_LOOP('',(#993,#994,#1015,#1016));
#993 = ORIENTED_EDGE('',*,*,#452,.F.);
#994 = ORIENTED_EDGE('',*,*,#995,.T.);
#995 = EDGE_CURVE('',#453,#304,#996,.T.);
#996 = SEAM_CURVE('',#997,(#1001,#1008),.PCURVE_S1.);
#997 = LINE('',#998,#999);
#998 = CARTESIAN_POINT('',(97.75,-7.,20.));
#999 = VECTOR('',#1000,1.);
#1000 = DIRECTION('',(0.,0.,1.));
#1001 = PCURVE('',#324,#1002);
#1002 = DEFINITIONAL_REPRESENTATION('',(#1003),#1007);
#1003 = LINE('',#1004,#1005);
#1004 = CARTESIAN_POINT('',(-6.28318530718,0.));
#1005 = VECTOR('',#1006,1.);
#1006 = DIRECTION('',(-0.,-1.));
#1007 = ( GEOMETRIC_REPRESENTATION_CONTEXT(2) 
PARAMETRIC_REPRESENTATION_CONTEXT() REPRESENTATION_CONTEXT('2D SPACE',''
  ) );
#1008 = PCURVE('',#324,#1009);
#1009 = DEFINITIONAL_REPRESENTATION('',(#1010),#1014);
#1010 = LINE('',#1011,#1012);
#1011 = CARTESIAN_POINT('',(-0.,0.));
#1012 = VECTOR('',#1013,1.);
#1013 = DIRECTION('',(-0.,-1.));
#1014 = ( GEOMETRIC_REPRESENTATION_CONTEXT(2) 
PARAMETRIC_REPRESENTATION_CONTEXT() REPRESENTATION_CONTEXT('2D SPACE',''
  ) );
#1015 = ORIENTED_EDGE('',*,*,#303,.F.);
#1016 = ORIENTED_EDGE('',*,*,#995,.F.);
#1017 = ADVANCED_FACE('',(#1018),#359,.F.);
#1018 = FACE_BOUND('',#1019,.T.);
#1019 = EDGE_LOOP('',(#1020,#1021,#1042,#1043));
#1020 = ORIENTED_EDGE('',*,*,#621,.F.);
#1021 = ORIENTED_EDGE('',*,*,#1022,.T.);
#1022 = EDGE_CURVE('',#622,#339,#1023,.T.);
#1023 = SEAM_CURVE('',#1024,(#1028,#1035),.PCURVE_S1.);
#1024 = LINE('',#1025,#1026);
#1025 = CARTESIAN_POINT('',(91.25,-4.,20.));
#1026 = VECTOR('',#1027,1.);
#1027 = DIRECTION('',(0.,0.,1.));
#1028 = PCURVE('',#359,#1029);
#1029 = DEFINITIONAL_REPRESENTATION('',(#1030),#1034);
#1030 = LINE('',#1031,#1032);
#1031 = CARTESIAN_POINT('',(-6.28318530718,0.));
#1032 = VECTOR('',#1033,1.);
#1033 = DIRECTION('',(-0.,-1.));
#1034 = ( GEOMETRIC_REPRESENTATION_CONTEXT(2) 
PARAMETRIC_REPRESENTATION_CONTEXT() REPRESENTATION_CONTEXT('2D SPACE',''
  ) );
#1035 = PCURVE('',#359,#1036);
#1036 = DEFINITIONAL_REPRESENTATION('',(#1037),#1041);
#1037 = LINE('',#1038,#1039);
#1038 = CARTESIAN_POINT('',(-0.,0.));
#1039 = VECTOR('',#1040,1.);
#1040 = DIRECTION('',(-0.,-1.));
#1041 = ( GEOMETRIC_REPRESENTATION_CONTEXT(2) 
PARAMETRIC_REPRESENTATION_CONTEXT() REPRESENTATION_CONTEXT('2D SPACE',''
  ) );
#1042 = ORIENTED_EDGE('',*,*,#338,.F.);
#1043 = ORIENTED_EDGE('',*,*,#1022,.F.);
#1044 = ( GEOMETRIC_REPRESENTATION_CONTEXT(3) 
GLOBAL_UNCERTAINTY_ASSIGNED_CONTEXT((#1048)) 
GLOBAL_UNIT_ASSIGNED_CONTEXT((#1045,#1046,#1047)) REPRESENTATION_CONTEXT
('Context #1','3D Context with UNIT and UNCERTAINTY') );
#1045 = ( LENGTH_UNIT() NAMED_UNIT(*) SI_UNIT(.MILLI.,.METRE.) );
#1046 = ( NAMED_UNIT(*) PLANE_ANGLE_UNIT() SI_UNIT($,.RADIAN.) );
#1047 = ( NAMED_UNIT(*) SI_UNIT($,.STERADIAN.) SOLID_ANGLE_UNIT() );
#1048 = UNCERTAINTY_MEASURE_WITH_UNIT(LENGTH_MEASURE(1.E-07),#1045,
  'distance_accuracy_value','confusion accuracy');
#1049 = PRODUCT_RELATED_PRODUCT_CATEGORY('part',$,(#7));
ENDSEC;
END-ISO-10303-21;
