ISO-10303-21;
HEADER;
FILE_DESCRIPTION(('Open CASCADE Model'),'2;1');
FILE_NAME('Open CASCADE Shape Model','2026-09-06T03:37:33',('Author'),(
    'Open CASCADE'),'Open CASCADE STEP processor 7.9','Open CASCADE 7.9'
  ,'Unknown');
FILE_SCHEMA(('AUTOMOTIVE_DESIGN { 1 0 10303 214 1 1 1 1 }'));
ENDSEC;
DATA;
#1 = APPLICATION_PROTOCOL_DEFINITION('international standard',
  'automotive_design',2000,#2);
#2 = APPLICATION_CONTEXT(
  'core data for automotive mechanical design processes');
#3 = SHAPE_DEFINITION_REPRESENTATION(#4,#10);
#4 = PRODUCT_DEFINITION_SHAPE('','',#5);
#5 = PRODUCT_DEFINITION('design','',#6,#9);
#6 = PRODUCT_DEFINITION_FORMATION('','',#7);
#7 = PRODUCT('Open CASCADE STEP translator 7.9 4',
  'Open CASCADE STEP translator 7.9 4','',(#8));
#8 = PRODUCT_CONTEXT('',#2,'mechanical');
#9 = PRODUCT_DEFINITION_CONTEXT('part definition',#2,'design');
#10 = ADVANCED_BREP_SHAPE_REPRESENTATION('',(#11,#15),#1125);
#11 = AXIS2_PLACEMENT_3D('',#12,#13,#14);
#12 = CARTESIAN_POINT('',(0.,0.,0.));
#13 = DIRECTION('',(0.,0.,1.));
#14 = DIRECTION('',(1.,0.,-0.));
#15 = MANIFOLD_SOLID_BREP('',#16);
#16 = CLOSED_SHELL('',(#17,#254,#328,#377,#426,#475,#522,#569,#616,#996,
    #1007,#1062,#1117,#1121));
#17 = ADVANCED_FACE('',(#18),#32,.F.);
#18 = FACE_BOUND('',#19,.F.);
#19 = EDGE_LOOP('',(#20,#55,#83,#111,#139,#167,#195,#223));
#20 = ORIENTED_EDGE('',*,*,#21,.F.);
#21 = EDGE_CURVE('',#22,#24,#26,.T.);
#22 = VERTEX_POINT('',#23);
#23 = CARTESIAN_POINT('',(58.,-13.,-45.5));
#24 = VERTEX_POINT('',#25);
#25 = CARTESIAN_POINT('',(58.,-13.,-29.02137143554));
#26 = SURFACE_CURVE('',#27,(#31,#43),.PCURVE_S1.);
#27 = LINE('',#28,#29);
#28 = CARTESIAN_POINT('',(58.,-13.,-45.5));
#29 = VECTOR('',#30,1.);
#30 = DIRECTION('',(0.,0.,1.));
#31 = PCURVE('',#32,#37);
#32 = PLANE('',#33);
#33 = AXIS2_PLACEMENT_3D('',#34,#35,#36);
#34 = CARTESIAN_POINT('',(58.,-13.,-45.5));
#35 = DIRECTION('',(1.,0.,0.));
#36 = DIRECTION('',(0.,0.,1.));
#37 = DEFINITIONAL_REPRESENTATION('',(#38),#42);
#38 = LINE('',#39,#40);
#39 = CARTESIAN_POINT('',(0.,0.));
#40 = VECTOR('',#41,1.);
#41 = DIRECTION('',(1.,0.));
#42 = ( GEOMETRIC_REPRESENTATION_CONTEXT(2) 
PARAMETRIC_REPRESENTATION_CONTEXT() REPRESENTATION_CONTEXT('2D SPACE',''
  ) );
#43 = PCURVE('',#44,#49);
#44 = PLANE('',#45);
#45 = AXIS2_PLACEMENT_3D('',#46,#47,#48);
#46 = CARTESIAN_POINT('',(58.,-13.,-45.5));
#47 = DIRECTION('',(0.,1.,0.));
#48 = DIRECTION('',(0.,0.,1.));
#49 = DEFINITIONAL_REPRESENTATION('',(#50),#54);
#50 = LINE('',#51,#52);
#51 = CARTESIAN_POINT('',(0.,0.));
#52 = VECTOR('',#53,1.);
#53 = DIRECTION('',(1.,0.));
#54 = ( GEOMETRIC_REPRESENTATION_CONTEXT(2) 
PARAMETRIC_REPRESENTATION_CONTEXT() REPRESENTATION_CONTEXT('2D SPACE',''
  ) );
#55 = ORIENTED_EDGE('',*,*,#56,.F.);
#56 = EDGE_CURVE('',#57,#22,#59,.T.);
#57 = VERTEX_POINT('',#58);
#58 = CARTESIAN_POINT('',(58.,3.7,-45.5));
#59 = SURFACE_CURVE('',#60,(#64,#71),.PCURVE_S1.);
#60 = LINE('',#61,#62);
#61 = CARTESIAN_POINT('',(58.,3.7,-45.5));
#62 = VECTOR('',#63,1.);
#63 = DIRECTION('',(0.,-1.,0.));
#64 = PCURVE('',#32,#65);
#65 = DEFINITIONAL_REPRESENTATION('',(#66),#70);
#66 = LINE('',#67,#68);
#67 = CARTESIAN_POINT('',(0.,-16.7));
#68 = VECTOR('',#69,1.);
#69 = DIRECTION('',(0.,1.));
#70 = ( GEOMETRIC_REPRESENTATION_CONTEXT(2) 
PARAMETRIC_REPRESENTATION_CONTEXT() REPRESENTATION_CONTEXT('2D SPACE',''
  ) );
#71 = PCURVE('',#72,#77);
#72 = PLANE('',#73);
#73 = AXIS2_PLACEMENT_3D('',#74,#75,#76);
#74 = CARTESIAN_POINT('',(58.,-13.,-45.5));
#75 = DIRECTION('',(0.,0.,1.));
#76 = DIRECTION('',(1.,0.,0.));
#77 = DEFINITIONAL_REPRESENTATION('',(#78),#82);
#78 = LINE('',#79,#80);
#79 = CARTESIAN_POINT('',(0.,16.7));
#80 = VECTOR('',#81,1.);
#81 = DIRECTION('',(0.,-1.));
#82 = ( GEOMETRIC_REPRESENTATION_CONTEXT(2) 
PARAMETRIC_REPRESENTATION_CONTEXT() REPRESENTATION_CONTEXT('2D SPACE',''
  ) );
#83 = ORIENTED_EDGE('',*,*,#84,.F.);
#84 = EDGE_CURVE('',#85,#57,#87,.T.);
#85 = VERTEX_POINT('',#86);
#86 = CARTESIAN_POINT('',(58.,3.7,-39.3));
#87 = SURFACE_CURVE('',#88,(#92,#99),.PCURVE_S1.);
#88 = LINE('',#89,#90);
#89 = CARTESIAN_POINT('',(58.,3.7,-39.3));
#90 = VECTOR('',#91,1.);
#91 = DIRECTION('',(0.,7.16272919113E-17,-1.));
#92 = PCURVE('',#32,#93);
#93 = DEFINITIONAL_REPRESENTATION('',(#94),#98);
#94 = LINE('',#95,#96);
#95 = CARTESIAN_POINT('',(6.2,-16.7));
#96 = VECTOR('',#97,1.);
#97 = DIRECTION('',(-1.,-7.16272919113E-17));
#98 = ( GEOMETRIC_REPRESENTATION_CONTEXT(2) 
PARAMETRIC_REPRESENTATION_CONTEXT() REPRESENTATION_CONTEXT('2D SPACE',''
  ) );
#99 = PCURVE('',#100,#105);
#100 = PLANE('',#101);
#101 = AXIS2_PLACEMENT_3D('',#102,#103,#104);
#102 = CARTESIAN_POINT('',(58.,3.7,-45.5));
#103 = DIRECTION('',(0.,1.,0.));
#104 = DIRECTION('',(0.,0.,1.));
#105 = DEFINITIONAL_REPRESENTATION('',(#106),#110);
#106 = LINE('',#107,#108);
#107 = CARTESIAN_POINT('',(6.2,0.));
#108 = VECTOR('',#109,1.);
#109 = DIRECTION('',(-1.,0.));
#110 = ( GEOMETRIC_REPRESENTATION_CONTEXT(2) 
PARAMETRIC_REPRESENTATION_CONTEXT() REPRESENTATION_CONTEXT('2D SPACE',''
  ) );
#111 = ORIENTED_EDGE('',*,*,#112,.F.);
#112 = EDGE_CURVE('',#113,#85,#115,.T.);
#113 = VERTEX_POINT('',#114);
#114 = CARTESIAN_POINT('',(58.,-0.9,-39.3));
#115 = SURFACE_CURVE('',#116,(#120,#127),.PCURVE_S1.);
#116 = LINE('',#117,#118);
#117 = CARTESIAN_POINT('',(58.,-0.9,-39.3));
#118 = VECTOR('',#119,1.);
#119 = DIRECTION('',(0.,1.,0.));
#120 = PCURVE('',#32,#121);
#121 = DEFINITIONAL_REPRESENTATION('',(#122),#126);
#122 = LINE('',#123,#124);
#123 = CARTESIAN_POINT('',(6.2,-12.1));
#124 = VECTOR('',#125,1.);
#125 = DIRECTION('',(0.,-1.));
#126 = ( GEOMETRIC_REPRESENTATION_CONTEXT(2) 
PARAMETRIC_REPRESENTATION_CONTEXT() REPRESENTATION_CONTEXT('2D SPACE',''
  ) );
#127 = PCURVE('',#128,#133);
#128 = PLANE('',#129);
#129 = AXIS2_PLACEMENT_3D('',#130,#131,#132);
#130 = CARTESIAN_POINT('',(58.,-0.9,-39.3));
#131 = DIRECTION('',(0.,0.,1.));
#132 = DIRECTION('',(1.,0.,0.));
#133 = DEFINITIONAL_REPRESENTATION('',(#134),#138);
#134 = LINE('',#135,#136);
#135 = CARTESIAN_POINT('',(0.,0.));
#136 = VECTOR('',#137,1.);
#137 = DIRECTION('',(0.,1.));
#138 = ( GEOMETRIC_REPRESENTATION_CONTEXT(2) 
PARAMETRIC_REPRESENTATION_CONTEXT() REPRESENTATION_CONTEXT('2D SPACE',''
  ) );
#139 = ORIENTED_EDGE('',*,*,#140,.F.);
#140 = EDGE_CURVE('',#141,#113,#143,.T.);
#141 = VERTEX_POINT('',#142);
#142 = CARTESIAN_POINT('',(58.,-0.9,-43.));
#143 = SURFACE_CURVE('',#144,(#148,#155),.PCURVE_S1.);
#144 = LINE('',#145,#146);
#145 = CARTESIAN_POINT('',(58.,-0.9,-45.5));
#146 = VECTOR('',#147,1.);
#147 = DIRECTION('',(0.,0.,1.));
#148 = PCURVE('',#32,#149);
#149 = DEFINITIONAL_REPRESENTATION('',(#150),#154);
#150 = LINE('',#151,#152);
#151 = CARTESIAN_POINT('',(0.,-12.1));
#152 = VECTOR('',#153,1.);
#153 = DIRECTION('',(1.,0.));
#154 = ( GEOMETRIC_REPRESENTATION_CONTEXT(2) 
PARAMETRIC_REPRESENTATION_CONTEXT() REPRESENTATION_CONTEXT('2D SPACE',''
  ) );
#155 = PCURVE('',#156,#161);
#156 = PLANE('',#157);
#157 = AXIS2_PLACEMENT_3D('',#158,#159,#160);
#158 = CARTESIAN_POINT('',(58.,-0.9,-45.5));
#159 = DIRECTION('',(0.,1.,0.));
#160 = DIRECTION('',(0.,0.,1.));
#161 = DEFINITIONAL_REPRESENTATION('',(#162),#166);
#162 = LINE('',#163,#164);
#163 = CARTESIAN_POINT('',(0.,0.));
#164 = VECTOR('',#165,1.);
#165 = DIRECTION('',(1.,0.));
#166 = ( GEOMETRIC_REPRESENTATION_CONTEXT(2) 
PARAMETRIC_REPRESENTATION_CONTEXT() REPRESENTATION_CONTEXT('2D SPACE',''
  ) );
#167 = ORIENTED_EDGE('',*,*,#168,.F.);
#168 = EDGE_CURVE('',#169,#141,#171,.T.);
#169 = VERTEX_POINT('',#170);
#170 = CARTESIAN_POINT('',(58.,-4.3,-43.));
#171 = SURFACE_CURVE('',#172,(#176,#183),.PCURVE_S1.);
#172 = LINE('',#173,#174);
#173 = CARTESIAN_POINT('',(58.,-4.31,-43.));
#174 = VECTOR('',#175,1.);
#175 = DIRECTION('',(0.,1.,0.));
#176 = PCURVE('',#32,#177);
#177 = DEFINITIONAL_REPRESENTATION('',(#178),#182);
#178 = LINE('',#179,#180);
#179 = CARTESIAN_POINT('',(2.5,-8.69));
#180 = VECTOR('',#181,1.);
#181 = DIRECTION('',(0.,-1.));
#182 = ( GEOMETRIC_REPRESENTATION_CONTEXT(2) 
PARAMETRIC_REPRESENTATION_CONTEXT() REPRESENTATION_CONTEXT('2D SPACE',''
  ) );
#183 = PCURVE('',#184,#189);
#184 = PLANE('',#185);
#185 = AXIS2_PLACEMENT_3D('',#186,#187,#188);
#186 = CARTESIAN_POINT('',(58.,-4.31,-43.));
#187 = DIRECTION('',(0.,0.,1.));
#188 = DIRECTION('',(1.,0.,0.));
#189 = DEFINITIONAL_REPRESENTATION('',(#190),#194);
#190 = LINE('',#191,#192);
#191 = CARTESIAN_POINT('',(0.,0.));
#192 = VECTOR('',#193,1.);
#193 = DIRECTION('',(0.,1.));
#194 = ( GEOMETRIC_REPRESENTATION_CONTEXT(2) 
PARAMETRIC_REPRESENTATION_CONTEXT() REPRESENTATION_CONTEXT('2D SPACE',''
  ) );
#195 = ORIENTED_EDGE('',*,*,#196,.T.);
#196 = EDGE_CURVE('',#169,#197,#199,.T.);
#197 = VERTEX_POINT('',#198);
#198 = CARTESIAN_POINT('',(58.,-4.3,-31.50793550837));
#199 = SURFACE_CURVE('',#200,(#204,#211),.PCURVE_S1.);
#200 = LINE('',#201,#202);
#201 = CARTESIAN_POINT('',(58.,-4.3,-45.5));
#202 = VECTOR('',#203,1.);
#203 = DIRECTION('',(0.,0.,1.));
#204 = PCURVE('',#32,#205);
#205 = DEFINITIONAL_REPRESENTATION('',(#206),#210);
#206 = LINE('',#207,#208);
#207 = CARTESIAN_POINT('',(0.,-8.7));
#208 = VECTOR('',#209,1.);
#209 = DIRECTION('',(1.,0.));
#210 = ( GEOMETRIC_REPRESENTATION_CONTEXT(2) 
PARAMETRIC_REPRESENTATION_CONTEXT() REPRESENTATION_CONTEXT('2D SPACE',''
  ) );
#211 = PCURVE('',#212,#217);
#212 = PLANE('',#213);
#213 = AXIS2_PLACEMENT_3D('',#214,#215,#216);
#214 = CARTESIAN_POINT('',(58.,-4.3,-45.5));
#215 = DIRECTION('',(0.,1.,0.));
#216 = DIRECTION('',(0.,0.,1.));
#217 = DEFINITIONAL_REPRESENTATION('',(#218),#222);
#218 = LINE('',#219,#220);
#219 = CARTESIAN_POINT('',(0.,0.));
#220 = VECTOR('',#221,1.);
#221 = DIRECTION('',(1.,0.));
#222 = ( GEOMETRIC_REPRESENTATION_CONTEXT(2) 
PARAMETRIC_REPRESENTATION_CONTEXT() REPRESENTATION_CONTEXT('2D SPACE',''
  ) );
#223 = ORIENTED_EDGE('',*,*,#224,.T.);
#224 = EDGE_CURVE('',#197,#24,#225,.T.);
#225 = SURFACE_CURVE('',#226,(#231,#242),.PCURVE_S1.);
#226 = CIRCLE('',#227,31.8);
#227 = AXIS2_PLACEMENT_3D('',#228,#229,#230);
#228 = CARTESIAN_POINT('',(58.,0.,0.));
#229 = DIRECTION('',(-1.,0.,0.));
#230 = DIRECTION('',(0.,1.,0.));
#231 = PCURVE('',#32,#232);
#232 = DEFINITIONAL_REPRESENTATION('',(#233),#241);
#233 = ( BOUNDED_CURVE() B_SPLINE_CURVE(2,(#234,#235,#236,#237,#238,#239
,#240),.UNSPECIFIED.,.T.,.F.) B_SPLINE_CURVE_WITH_KNOTS((1,2,2,2,2,1),(
    -2.094395102393,0.,2.094395102393,4.188790204786,6.28318530718,
8.377580409573),.UNSPECIFIED.) CURVE() GEOMETRIC_REPRESENTATION_ITEM() 
RATIONAL_B_SPLINE_CURVE((1.,0.5,1.,0.5,1.,0.5,1.)) REPRESENTATION_ITEM(
  '') );
#234 = CARTESIAN_POINT('',(45.5,-44.8));
#235 = CARTESIAN_POINT('',(-9.57921568069,-44.8));
#236 = CARTESIAN_POINT('',(17.960392159655,2.9));
#237 = CARTESIAN_POINT('',(45.5,50.6));
#238 = CARTESIAN_POINT('',(73.039607840345,2.9));
#239 = CARTESIAN_POINT('',(100.57921568069,-44.8));
#240 = CARTESIAN_POINT('',(45.5,-44.8));
#241 = ( GEOMETRIC_REPRESENTATION_CONTEXT(2) 
PARAMETRIC_REPRESENTATION_CONTEXT() REPRESENTATION_CONTEXT('2D SPACE',''
  ) );
#242 = PCURVE('',#243,#248);
#243 = CYLINDRICAL_SURFACE('',#244,31.8);
#244 = AXIS2_PLACEMENT_3D('',#245,#246,#247);
#245 = CARTESIAN_POINT('',(-1.,0.,0.));
#246 = DIRECTION('',(-1.,-0.,-0.));
#247 = DIRECTION('',(0.,1.,0.));
#248 = DEFINITIONAL_REPRESENTATION('',(#249),#253);
#249 = LINE('',#250,#251);
#250 = CARTESIAN_POINT('',(-6.28318530718,-59.));
#251 = VECTOR('',#252,1.);
#252 = DIRECTION('',(1.,-0.));
#253 = ( GEOMETRIC_REPRESENTATION_CONTEXT(2) 
PARAMETRIC_REPRESENTATION_CONTEXT() REPRESENTATION_CONTEXT('2D SPACE',''
  ) );
#254 = ADVANCED_FACE('',(#255),#44,.F.);
#255 = FACE_BOUND('',#256,.F.);
#256 = EDGE_LOOP('',(#257,#287,#308,#309));
#257 = ORIENTED_EDGE('',*,*,#258,.F.);
#258 = EDGE_CURVE('',#259,#261,#263,.T.);
#259 = VERTEX_POINT('',#260);
#260 = CARTESIAN_POINT('',(98.,-13.,-45.5));
#261 = VERTEX_POINT('',#262);
#262 = CARTESIAN_POINT('',(98.,-13.,-29.02137143554));
#263 = SURFACE_CURVE('',#264,(#268,#275),.PCURVE_S1.);
#264 = LINE('',#265,#266);
#265 = CARTESIAN_POINT('',(98.,-13.,-45.5));
#266 = VECTOR('',#267,1.);
#267 = DIRECTION('',(0.,0.,1.));
#268 = PCURVE('',#44,#269);
#269 = DEFINITIONAL_REPRESENTATION('',(#270),#274);
#270 = LINE('',#271,#272);
#271 = CARTESIAN_POINT('',(0.,40.));
#272 = VECTOR('',#273,1.);
#273 = DIRECTION('',(1.,0.));
#274 = ( GEOMETRIC_REPRESENTATION_CONTEXT(2) 
PARAMETRIC_REPRESENTATION_CONTEXT() REPRESENTATION_CONTEXT('2D SPACE',''
  ) );
#275 = PCURVE('',#276,#281);
#276 = PLANE('',#277);
#277 = AXIS2_PLACEMENT_3D('',#278,#279,#280);
#278 = CARTESIAN_POINT('',(98.,-13.,-45.5));
#279 = DIRECTION('',(1.,0.,0.));
#280 = DIRECTION('',(0.,0.,1.));
#281 = DEFINITIONAL_REPRESENTATION('',(#282),#286);
#282 = LINE('',#283,#284);
#283 = CARTESIAN_POINT('',(0.,0.));
#284 = VECTOR('',#285,1.);
#285 = DIRECTION('',(1.,0.));
#286 = ( GEOMETRIC_REPRESENTATION_CONTEXT(2) 
PARAMETRIC_REPRESENTATION_CONTEXT() REPRESENTATION_CONTEXT('2D SPACE',''
  ) );
#287 = ORIENTED_EDGE('',*,*,#288,.F.);
#288 = EDGE_CURVE('',#22,#259,#289,.T.);
#289 = SURFACE_CURVE('',#290,(#294,#301),.PCURVE_S1.);
#290 = LINE('',#291,#292);
#291 = CARTESIAN_POINT('',(58.,-13.,-45.5));
#292 = VECTOR('',#293,1.);
#293 = DIRECTION('',(1.,0.,0.));
#294 = PCURVE('',#44,#295);
#295 = DEFINITIONAL_REPRESENTATION('',(#296),#300);
#296 = LINE('',#297,#298);
#297 = CARTESIAN_POINT('',(0.,0.));
#298 = VECTOR('',#299,1.);
#299 = DIRECTION('',(0.,1.));
#300 = ( GEOMETRIC_REPRESENTATION_CONTEXT(2) 
PARAMETRIC_REPRESENTATION_CONTEXT() REPRESENTATION_CONTEXT('2D SPACE',''
  ) );
#301 = PCURVE('',#72,#302);
#302 = DEFINITIONAL_REPRESENTATION('',(#303),#307);
#303 = LINE('',#304,#305);
#304 = CARTESIAN_POINT('',(0.,0.));
#305 = VECTOR('',#306,1.);
#306 = DIRECTION('',(1.,0.));
#307 = ( GEOMETRIC_REPRESENTATION_CONTEXT(2) 
PARAMETRIC_REPRESENTATION_CONTEXT() REPRESENTATION_CONTEXT('2D SPACE',''
  ) );
#308 = ORIENTED_EDGE('',*,*,#21,.T.);
#309 = ORIENTED_EDGE('',*,*,#310,.F.);
#310 = EDGE_CURVE('',#261,#24,#311,.T.);
#311 = SURFACE_CURVE('',#312,(#316,#322),.PCURVE_S1.);
#312 = LINE('',#313,#314);
#313 = CARTESIAN_POINT('',(-1.,-13.,-29.02137143554));
#314 = VECTOR('',#315,1.);
#315 = DIRECTION('',(-1.,-0.,-0.));
#316 = PCURVE('',#44,#317);
#317 = DEFINITIONAL_REPRESENTATION('',(#318),#321);
#318 = B_SPLINE_CURVE_WITH_KNOTS('',1,(#319,#320),.UNSPECIFIED.,.F.,.F.,
  (2,2),(-103.,-55.),.PIECEWISE_BEZIER_KNOTS.);
#319 = CARTESIAN_POINT('',(16.478628564453,44.));
#320 = CARTESIAN_POINT('',(16.478628564453,-4.));
#321 = ( GEOMETRIC_REPRESENTATION_CONTEXT(2) 
PARAMETRIC_REPRESENTATION_CONTEXT() REPRESENTATION_CONTEXT('2D SPACE',''
  ) );
#322 = PCURVE('',#243,#323);
#323 = DEFINITIONAL_REPRESENTATION('',(#324),#327);
#324 = B_SPLINE_CURVE_WITH_KNOTS('',1,(#325,#326),.UNSPECIFIED.,.F.,.F.,
  (2,2),(-103.,-55.),.PIECEWISE_BEZIER_KNOTS.);
#325 = CARTESIAN_POINT('',(-4.291244682679,-103.));
#326 = CARTESIAN_POINT('',(-4.291244682679,-55.));
#327 = ( GEOMETRIC_REPRESENTATION_CONTEXT(2) 
PARAMETRIC_REPRESENTATION_CONTEXT() REPRESENTATION_CONTEXT('2D SPACE',''
  ) );
#328 = ADVANCED_FACE('',(#329),#72,.F.);
#329 = FACE_BOUND('',#330,.F.);
#330 = EDGE_LOOP('',(#331,#332,#355,#376));
#331 = ORIENTED_EDGE('',*,*,#288,.T.);
#332 = ORIENTED_EDGE('',*,*,#333,.F.);
#333 = EDGE_CURVE('',#334,#259,#336,.T.);
#334 = VERTEX_POINT('',#335);
#335 = CARTESIAN_POINT('',(98.,3.7,-45.5));
#336 = SURFACE_CURVE('',#337,(#341,#348),.PCURVE_S1.);
#337 = LINE('',#338,#339);
#338 = CARTESIAN_POINT('',(98.,3.7,-45.5));
#339 = VECTOR('',#340,1.);
#340 = DIRECTION('',(0.,-1.,0.));
#341 = PCURVE('',#72,#342);
#342 = DEFINITIONAL_REPRESENTATION('',(#343),#347);
#343 = LINE('',#344,#345);
#344 = CARTESIAN_POINT('',(40.,16.7));
#345 = VECTOR('',#346,1.);
#346 = DIRECTION('',(0.,-1.));
#347 = ( GEOMETRIC_REPRESENTATION_CONTEXT(2) 
PARAMETRIC_REPRESENTATION_CONTEXT() REPRESENTATION_CONTEXT('2D SPACE',''
  ) );
#348 = PCURVE('',#276,#349);
#349 = DEFINITIONAL_REPRESENTATION('',(#350),#354);
#350 = LINE('',#351,#352);
#351 = CARTESIAN_POINT('',(0.,-16.7));
#352 = VECTOR('',#353,1.);
#353 = DIRECTION('',(0.,1.));
#354 = ( GEOMETRIC_REPRESENTATION_CONTEXT(2) 
PARAMETRIC_REPRESENTATION_CONTEXT() REPRESENTATION_CONTEXT('2D SPACE',''
  ) );
#355 = ORIENTED_EDGE('',*,*,#356,.F.);
#356 = EDGE_CURVE('',#57,#334,#357,.T.);
#357 = SURFACE_CURVE('',#358,(#362,#369),.PCURVE_S1.);
#358 = LINE('',#359,#360);
#359 = CARTESIAN_POINT('',(58.,3.7,-45.5));
#360 = VECTOR('',#361,1.);
#361 = DIRECTION('',(1.,0.,0.));
#362 = PCURVE('',#72,#363);
#363 = DEFINITIONAL_REPRESENTATION('',(#364),#368);
#364 = LINE('',#365,#366);
#365 = CARTESIAN_POINT('',(0.,16.7));
#366 = VECTOR('',#367,1.);
#367 = DIRECTION('',(1.,0.));
#368 = ( GEOMETRIC_REPRESENTATION_CONTEXT(2) 
PARAMETRIC_REPRESENTATION_CONTEXT() REPRESENTATION_CONTEXT('2D SPACE',''
  ) );
#369 = PCURVE('',#100,#370);
#370 = DEFINITIONAL_REPRESENTATION('',(#371),#375);
#371 = LINE('',#372,#373);
#372 = CARTESIAN_POINT('',(0.,0.));
#373 = VECTOR('',#374,1.);
#374 = DIRECTION('',(0.,1.));
#375 = ( GEOMETRIC_REPRESENTATION_CONTEXT(2) 
PARAMETRIC_REPRESENTATION_CONTEXT() REPRESENTATION_CONTEXT('2D SPACE',''
  ) );
#376 = ORIENTED_EDGE('',*,*,#56,.T.);
#377 = ADVANCED_FACE('',(#378),#100,.T.);
#378 = FACE_BOUND('',#379,.T.);
#379 = EDGE_LOOP('',(#380,#381,#382,#405));
#380 = ORIENTED_EDGE('',*,*,#356,.F.);
#381 = ORIENTED_EDGE('',*,*,#84,.F.);
#382 = ORIENTED_EDGE('',*,*,#383,.T.);
#383 = EDGE_CURVE('',#85,#384,#386,.T.);
#384 = VERTEX_POINT('',#385);
#385 = CARTESIAN_POINT('',(98.,3.7,-39.3));
#386 = SURFACE_CURVE('',#387,(#391,#398),.PCURVE_S1.);
#387 = LINE('',#388,#389);
#388 = CARTESIAN_POINT('',(58.,3.7,-39.3));
#389 = VECTOR('',#390,1.);
#390 = DIRECTION('',(1.,0.,0.));
#391 = PCURVE('',#100,#392);
#392 = DEFINITIONAL_REPRESENTATION('',(#393),#397);
#393 = LINE('',#394,#395);
#394 = CARTESIAN_POINT('',(6.2,0.));
#395 = VECTOR('',#396,1.);
#396 = DIRECTION('',(0.,1.));
#397 = ( GEOMETRIC_REPRESENTATION_CONTEXT(2) 
PARAMETRIC_REPRESENTATION_CONTEXT() REPRESENTATION_CONTEXT('2D SPACE',''
  ) );
#398 = PCURVE('',#128,#399);
#399 = DEFINITIONAL_REPRESENTATION('',(#400),#404);
#400 = LINE('',#401,#402);
#401 = CARTESIAN_POINT('',(0.,4.6));
#402 = VECTOR('',#403,1.);
#403 = DIRECTION('',(1.,0.));
#404 = ( GEOMETRIC_REPRESENTATION_CONTEXT(2) 
PARAMETRIC_REPRESENTATION_CONTEXT() REPRESENTATION_CONTEXT('2D SPACE',''
  ) );
#405 = ORIENTED_EDGE('',*,*,#406,.F.);
#406 = EDGE_CURVE('',#334,#384,#407,.T.);
#407 = SURFACE_CURVE('',#408,(#412,#419),.PCURVE_S1.);
#408 = LINE('',#409,#410);
#409 = CARTESIAN_POINT('',(98.,3.7,-45.5));
#410 = VECTOR('',#411,1.);
#411 = DIRECTION('',(0.,-7.16272919113E-17,1.));
#412 = PCURVE('',#100,#413);
#413 = DEFINITIONAL_REPRESENTATION('',(#414),#418);
#414 = LINE('',#415,#416);
#415 = CARTESIAN_POINT('',(0.,40.));
#416 = VECTOR('',#417,1.);
#417 = DIRECTION('',(1.,0.));
#418 = ( GEOMETRIC_REPRESENTATION_CONTEXT(2) 
PARAMETRIC_REPRESENTATION_CONTEXT() REPRESENTATION_CONTEXT('2D SPACE',''
  ) );
#419 = PCURVE('',#276,#420);
#420 = DEFINITIONAL_REPRESENTATION('',(#421),#425);
#421 = LINE('',#422,#423);
#422 = CARTESIAN_POINT('',(0.,-16.7));
#423 = VECTOR('',#424,1.);
#424 = DIRECTION('',(1.,7.16272919113E-17));
#425 = ( GEOMETRIC_REPRESENTATION_CONTEXT(2) 
PARAMETRIC_REPRESENTATION_CONTEXT() REPRESENTATION_CONTEXT('2D SPACE',''
  ) );
#426 = ADVANCED_FACE('',(#427),#128,.T.);
#427 = FACE_BOUND('',#428,.T.);
#428 = EDGE_LOOP('',(#429,#430,#453,#474));
#429 = ORIENTED_EDGE('',*,*,#112,.F.);
#430 = ORIENTED_EDGE('',*,*,#431,.T.);
#431 = EDGE_CURVE('',#113,#432,#434,.T.);
#432 = VERTEX_POINT('',#433);
#433 = CARTESIAN_POINT('',(98.,-0.9,-39.3));
#434 = SURFACE_CURVE('',#435,(#439,#446),.PCURVE_S1.);
#435 = LINE('',#436,#437);
#436 = CARTESIAN_POINT('',(58.,-0.9,-39.3));
#437 = VECTOR('',#438,1.);
#438 = DIRECTION('',(1.,0.,0.));
#439 = PCURVE('',#128,#440);
#440 = DEFINITIONAL_REPRESENTATION('',(#441),#445);
#441 = LINE('',#442,#443);
#442 = CARTESIAN_POINT('',(0.,0.));
#443 = VECTOR('',#444,1.);
#444 = DIRECTION('',(1.,0.));
#445 = ( GEOMETRIC_REPRESENTATION_CONTEXT(2) 
PARAMETRIC_REPRESENTATION_CONTEXT() REPRESENTATION_CONTEXT('2D SPACE',''
  ) );
#446 = PCURVE('',#156,#447);
#447 = DEFINITIONAL_REPRESENTATION('',(#448),#452);
#448 = LINE('',#449,#450);
#449 = CARTESIAN_POINT('',(6.2,0.));
#450 = VECTOR('',#451,1.);
#451 = DIRECTION('',(0.,1.));
#452 = ( GEOMETRIC_REPRESENTATION_CONTEXT(2) 
PARAMETRIC_REPRESENTATION_CONTEXT() REPRESENTATION_CONTEXT('2D SPACE',''
  ) );
#453 = ORIENTED_EDGE('',*,*,#454,.T.);
#454 = EDGE_CURVE('',#432,#384,#455,.T.);
#455 = SURFACE_CURVE('',#456,(#460,#467),.PCURVE_S1.);
#456 = LINE('',#457,#458);
#457 = CARTESIAN_POINT('',(98.,-0.9,-39.3));
#458 = VECTOR('',#459,1.);
#459 = DIRECTION('',(0.,1.,0.));
#460 = PCURVE('',#128,#461);
#461 = DEFINITIONAL_REPRESENTATION('',(#462),#466);
#462 = LINE('',#463,#464);
#463 = CARTESIAN_POINT('',(40.,0.));
#464 = VECTOR('',#465,1.);
#465 = DIRECTION('',(0.,1.));
#466 = ( GEOMETRIC_REPRESENTATION_CONTEXT(2) 
PARAMETRIC_REPRESENTATION_CONTEXT() REPRESENTATION_CONTEXT('2D SPACE',''
  ) );
#467 = PCURVE('',#276,#468);
#468 = DEFINITIONAL_REPRESENTATION('',(#469),#473);
#469 = LINE('',#470,#471);
#470 = CARTESIAN_POINT('',(6.2,-12.1));
#471 = VECTOR('',#472,1.);
#472 = DIRECTION('',(0.,-1.));
#473 = ( GEOMETRIC_REPRESENTATION_CONTEXT(2) 
PARAMETRIC_REPRESENTATION_CONTEXT() REPRESENTATION_CONTEXT('2D SPACE',''
  ) );
#474 = ORIENTED_EDGE('',*,*,#383,.F.);
#475 = ADVANCED_FACE('',(#476),#156,.F.);
#476 = FACE_BOUND('',#477,.F.);
#477 = EDGE_LOOP('',(#478,#501,#520,#521));
#478 = ORIENTED_EDGE('',*,*,#479,.F.);
#479 = EDGE_CURVE('',#480,#432,#482,.T.);
#480 = VERTEX_POINT('',#481);
#481 = CARTESIAN_POINT('',(98.,-0.9,-43.));
#482 = SURFACE_CURVE('',#483,(#487,#494),.PCURVE_S1.);
#483 = LINE('',#484,#485);
#484 = CARTESIAN_POINT('',(98.,-0.9,-45.5));
#485 = VECTOR('',#486,1.);
#486 = DIRECTION('',(0.,0.,1.));
#487 = PCURVE('',#156,#488);
#488 = DEFINITIONAL_REPRESENTATION('',(#489),#493);
#489 = LINE('',#490,#491);
#490 = CARTESIAN_POINT('',(0.,40.));
#491 = VECTOR('',#492,1.);
#492 = DIRECTION('',(1.,0.));
#493 = ( GEOMETRIC_REPRESENTATION_CONTEXT(2) 
PARAMETRIC_REPRESENTATION_CONTEXT() REPRESENTATION_CONTEXT('2D SPACE',''
  ) );
#494 = PCURVE('',#276,#495);
#495 = DEFINITIONAL_REPRESENTATION('',(#496),#500);
#496 = LINE('',#497,#498);
#497 = CARTESIAN_POINT('',(0.,-12.1));
#498 = VECTOR('',#499,1.);
#499 = DIRECTION('',(1.,0.));
#500 = ( GEOMETRIC_REPRESENTATION_CONTEXT(2) 
PARAMETRIC_REPRESENTATION_CONTEXT() REPRESENTATION_CONTEXT('2D SPACE',''
  ) );
#501 = ORIENTED_EDGE('',*,*,#502,.T.);
#502 = EDGE_CURVE('',#480,#141,#503,.T.);
#503 = SURFACE_CURVE('',#504,(#508,#514),.PCURVE_S1.);
#504 = LINE('',#505,#506);
#505 = CARTESIAN_POINT('',(58.,-0.9,-43.));
#506 = VECTOR('',#507,1.);
#507 = DIRECTION('',(-1.,0.,0.));
#508 = PCURVE('',#156,#509);
#509 = DEFINITIONAL_REPRESENTATION('',(#510),#513);
#510 = B_SPLINE_CURVE_WITH_KNOTS('',1,(#511,#512),.UNSPECIFIED.,.F.,.F.,
  (2,2),(-40.,0.),.PIECEWISE_BEZIER_KNOTS.);
#511 = CARTESIAN_POINT('',(2.5,40.));
#512 = CARTESIAN_POINT('',(2.5,0.));
#513 = ( GEOMETRIC_REPRESENTATION_CONTEXT(2) 
PARAMETRIC_REPRESENTATION_CONTEXT() REPRESENTATION_CONTEXT('2D SPACE',''
  ) );
#514 = PCURVE('',#184,#515);
#515 = DEFINITIONAL_REPRESENTATION('',(#516),#519);
#516 = B_SPLINE_CURVE_WITH_KNOTS('',1,(#517,#518),.UNSPECIFIED.,.F.,.F.,
  (2,2),(-40.,0.),.PIECEWISE_BEZIER_KNOTS.);
#517 = CARTESIAN_POINT('',(40.,3.41));
#518 = CARTESIAN_POINT('',(0.,3.41));
#519 = ( GEOMETRIC_REPRESENTATION_CONTEXT(2) 
PARAMETRIC_REPRESENTATION_CONTEXT() REPRESENTATION_CONTEXT('2D SPACE',''
  ) );
#520 = ORIENTED_EDGE('',*,*,#140,.T.);
#521 = ORIENTED_EDGE('',*,*,#431,.T.);
#522 = ADVANCED_FACE('',(#523),#184,.T.);
#523 = FACE_BOUND('',#524,.T.);
#524 = EDGE_LOOP('',(#525,#526,#547,#568));
#525 = ORIENTED_EDGE('',*,*,#168,.F.);
#526 = ORIENTED_EDGE('',*,*,#527,.T.);
#527 = EDGE_CURVE('',#169,#528,#530,.T.);
#528 = VERTEX_POINT('',#529);
#529 = CARTESIAN_POINT('',(98.,-4.3,-43.));
#530 = SURFACE_CURVE('',#531,(#535,#541),.PCURVE_S1.);
#531 = LINE('',#532,#533);
#532 = CARTESIAN_POINT('',(58.,-4.3,-43.));
#533 = VECTOR('',#534,1.);
#534 = DIRECTION('',(1.,0.,0.));
#535 = PCURVE('',#184,#536);
#536 = DEFINITIONAL_REPRESENTATION('',(#537),#540);
#537 = B_SPLINE_CURVE_WITH_KNOTS('',1,(#538,#539),.UNSPECIFIED.,.F.,.F.,
  (2,2),(0.,40.),.PIECEWISE_BEZIER_KNOTS.);
#538 = CARTESIAN_POINT('',(0.,9.999999999999E-03));
#539 = CARTESIAN_POINT('',(40.,9.999999999999E-03));
#540 = ( GEOMETRIC_REPRESENTATION_CONTEXT(2) 
PARAMETRIC_REPRESENTATION_CONTEXT() REPRESENTATION_CONTEXT('2D SPACE',''
  ) );
#541 = PCURVE('',#212,#542);
#542 = DEFINITIONAL_REPRESENTATION('',(#543),#546);
#543 = B_SPLINE_CURVE_WITH_KNOTS('',1,(#544,#545),.UNSPECIFIED.,.F.,.F.,
  (2,2),(0.,40.),.PIECEWISE_BEZIER_KNOTS.);
#544 = CARTESIAN_POINT('',(2.5,0.));
#545 = CARTESIAN_POINT('',(2.5,40.));
#546 = ( GEOMETRIC_REPRESENTATION_CONTEXT(2) 
PARAMETRIC_REPRESENTATION_CONTEXT() REPRESENTATION_CONTEXT('2D SPACE',''
  ) );
#547 = ORIENTED_EDGE('',*,*,#548,.T.);
#548 = EDGE_CURVE('',#528,#480,#549,.T.);
#549 = SURFACE_CURVE('',#550,(#554,#561),.PCURVE_S1.);
#550 = LINE('',#551,#552);
#551 = CARTESIAN_POINT('',(98.,-4.31,-43.));
#552 = VECTOR('',#553,1.);
#553 = DIRECTION('',(0.,1.,0.));
#554 = PCURVE('',#184,#555);
#555 = DEFINITIONAL_REPRESENTATION('',(#556),#560);
#556 = LINE('',#557,#558);
#557 = CARTESIAN_POINT('',(40.,0.));
#558 = VECTOR('',#559,1.);
#559 = DIRECTION('',(0.,1.));
#560 = ( GEOMETRIC_REPRESENTATION_CONTEXT(2) 
PARAMETRIC_REPRESENTATION_CONTEXT() REPRESENTATION_CONTEXT('2D SPACE',''
  ) );
#561 = PCURVE('',#276,#562);
#562 = DEFINITIONAL_REPRESENTATION('',(#563),#567);
#563 = LINE('',#564,#565);
#564 = CARTESIAN_POINT('',(2.5,-8.69));
#565 = VECTOR('',#566,1.);
#566 = DIRECTION('',(0.,-1.));
#567 = ( GEOMETRIC_REPRESENTATION_CONTEXT(2) 
PARAMETRIC_REPRESENTATION_CONTEXT() REPRESENTATION_CONTEXT('2D SPACE',''
  ) );
#568 = ORIENTED_EDGE('',*,*,#502,.T.);
#569 = ADVANCED_FACE('',(#570),#212,.T.);
#570 = FACE_BOUND('',#571,.T.);
#571 = EDGE_LOOP('',(#572,#595,#596,#597));
#572 = ORIENTED_EDGE('',*,*,#573,.F.);
#573 = EDGE_CURVE('',#528,#574,#576,.T.);
#574 = VERTEX_POINT('',#575);
#575 = CARTESIAN_POINT('',(98.,-4.3,-31.50793550837));
#576 = SURFACE_CURVE('',#577,(#581,#588),.PCURVE_S1.);
#577 = LINE('',#578,#579);
#578 = CARTESIAN_POINT('',(98.,-4.3,-45.5));
#579 = VECTOR('',#580,1.);
#580 = DIRECTION('',(0.,0.,1.));
#581 = PCURVE('',#212,#582);
#582 = DEFINITIONAL_REPRESENTATION('',(#583),#587);
#583 = LINE('',#584,#585);
#584 = CARTESIAN_POINT('',(0.,40.));
#585 = VECTOR('',#586,1.);
#586 = DIRECTION('',(1.,0.));
#587 = ( GEOMETRIC_REPRESENTATION_CONTEXT(2) 
PARAMETRIC_REPRESENTATION_CONTEXT() REPRESENTATION_CONTEXT('2D SPACE',''
  ) );
#588 = PCURVE('',#276,#589);
#589 = DEFINITIONAL_REPRESENTATION('',(#590),#594);
#590 = LINE('',#591,#592);
#591 = CARTESIAN_POINT('',(0.,-8.7));
#592 = VECTOR('',#593,1.);
#593 = DIRECTION('',(1.,0.));
#594 = ( GEOMETRIC_REPRESENTATION_CONTEXT(2) 
PARAMETRIC_REPRESENTATION_CONTEXT() REPRESENTATION_CONTEXT('2D SPACE',''
  ) );
#595 = ORIENTED_EDGE('',*,*,#527,.F.);
#596 = ORIENTED_EDGE('',*,*,#196,.T.);
#597 = ORIENTED_EDGE('',*,*,#598,.F.);
#598 = EDGE_CURVE('',#574,#197,#599,.T.);
#599 = SURFACE_CURVE('',#600,(#604,#610),.PCURVE_S1.);
#600 = LINE('',#601,#602);
#601 = CARTESIAN_POINT('',(-1.,-4.3,-31.50793550837));
#602 = VECTOR('',#603,1.);
#603 = DIRECTION('',(-1.,-0.,-0.));
#604 = PCURVE('',#212,#605);
#605 = DEFINITIONAL_REPRESENTATION('',(#606),#609);
#606 = B_SPLINE_CURVE_WITH_KNOTS('',1,(#607,#608),.UNSPECIFIED.,.F.,.F.,
  (2,2),(-103.,-55.),.PIECEWISE_BEZIER_KNOTS.);
#607 = CARTESIAN_POINT('',(13.992064491624,44.));
#608 = CARTESIAN_POINT('',(13.992064491624,-4.));
#609 = ( GEOMETRIC_REPRESENTATION_CONTEXT(2) 
PARAMETRIC_REPRESENTATION_CONTEXT() REPRESENTATION_CONTEXT('2D SPACE',''
  ) );
#610 = PCURVE('',#243,#611);
#611 = DEFINITIONAL_REPRESENTATION('',(#612),#615);
#612 = B_SPLINE_CURVE_WITH_KNOTS('',1,(#613,#614),.UNSPECIFIED.,.F.,.F.,
  (2,2),(-103.,-55.),.PIECEWISE_BEZIER_KNOTS.);
#613 = CARTESIAN_POINT('',(-4.57675335503,-103.));
#614 = CARTESIAN_POINT('',(-4.57675335503,-55.));
#615 = ( GEOMETRIC_REPRESENTATION_CONTEXT(2) 
PARAMETRIC_REPRESENTATION_CONTEXT() REPRESENTATION_CONTEXT('2D SPACE',''
  ) );
#616 = ADVANCED_FACE('',(#617,#648,#822),#243,.F.);
#617 = FACE_BOUND('',#618,.T.);
#618 = EDGE_LOOP('',(#619,#620,#621,#622));
#619 = ORIENTED_EDGE('',*,*,#598,.T.);
#620 = ORIENTED_EDGE('',*,*,#224,.T.);
#621 = ORIENTED_EDGE('',*,*,#310,.F.);
#622 = ORIENTED_EDGE('',*,*,#623,.F.);
#623 = EDGE_CURVE('',#574,#261,#624,.T.);
#624 = SURFACE_CURVE('',#625,(#630,#637),.PCURVE_S1.);
#625 = CIRCLE('',#626,31.8);
#626 = AXIS2_PLACEMENT_3D('',#627,#628,#629);
#627 = CARTESIAN_POINT('',(98.,0.,0.));
#628 = DIRECTION('',(-1.,0.,0.));
#629 = DIRECTION('',(0.,1.,0.));
#630 = PCURVE('',#243,#631);
#631 = DEFINITIONAL_REPRESENTATION('',(#632),#636);
#632 = LINE('',#633,#634);
#633 = CARTESIAN_POINT('',(-6.28318530718,-99.));
#634 = VECTOR('',#635,1.);
#635 = DIRECTION('',(1.,-0.));
#636 = ( GEOMETRIC_REPRESENTATION_CONTEXT(2) 
PARAMETRIC_REPRESENTATION_CONTEXT() REPRESENTATION_CONTEXT('2D SPACE',''
  ) );
#637 = PCURVE('',#276,#638);
#638 = DEFINITIONAL_REPRESENTATION('',(#639),#647);
#639 = ( BOUNDED_CURVE() B_SPLINE_CURVE(2,(#640,#641,#642,#643,#644,#645
,#646),.UNSPECIFIED.,.T.,.F.) B_SPLINE_CURVE_WITH_KNOTS((1,2,2,2,2,1),(
    -2.094395102393,0.,2.094395102393,4.188790204786,6.28318530718,
8.377580409573),.UNSPECIFIED.) CURVE() GEOMETRIC_REPRESENTATION_ITEM() 
RATIONAL_B_SPLINE_CURVE((1.,0.5,1.,0.5,1.,0.5,1.)) REPRESENTATION_ITEM(
  '') );
#640 = CARTESIAN_POINT('',(45.5,-44.8));
#641 = CARTESIAN_POINT('',(-9.57921568069,-44.8));
#642 = CARTESIAN_POINT('',(17.960392159655,2.9));
#643 = CARTESIAN_POINT('',(45.5,50.6));
#644 = CARTESIAN_POINT('',(73.039607840345,2.9));
#645 = CARTESIAN_POINT('',(100.57921568069,-44.8));
#646 = CARTESIAN_POINT('',(45.5,-44.8));
#647 = ( GEOMETRIC_REPRESENTATION_CONTEXT(2) 
PARAMETRIC_REPRESENTATION_CONTEXT() REPRESENTATION_CONTEXT('2D SPACE',''
  ) );
#648 = FACE_BOUND('',#649,.T.);
#649 = EDGE_LOOP('',(#650));
#650 = ORIENTED_EDGE('',*,*,#651,.F.);
#651 = EDGE_CURVE('',#652,#652,#654,.T.);
#652 = VERTEX_POINT('',#653);
#653 = CARTESIAN_POINT('',(91.25,-8.65,-30.60093952806));
#654 = SURFACE_CURVE('',#655,(#707,#762),.PCURVE_S1.);
#655 = B_SPLINE_CURVE_WITH_KNOTS('',8,(#656,#657,#658,#659,#660,#661,
    #662,#663,#664,#665,#666,#667,#668,#669,#670,#671,#672,#673,#674,
    #675,#676,#677,#678,#679,#680,#681,#682,#683,#684,#685,#686,#687,
    #688,#689,#690,#691,#692,#693,#694,#695,#696,#697,#698,#699,#700,
    #701,#702,#703,#704,#705,#706),.UNSPECIFIED.,.T.,.F.,(9,7,7,7,7,7,7,
    9),(0.,0.10178022248,0.24941325935,0.397015024202,0.534293531303,
    0.748649192427,0.861990523154,1.),.UNSPECIFIED.);
#656 = CARTESIAN_POINT('',(91.25,-8.65,-30.60093952806));
#657 = CARTESIAN_POINT('',(91.25,-8.53841774938,-30.63248060107));
#658 = CARTESIAN_POINT('',(91.238616359253,-8.427272265688,
    -30.66339621651));
#659 = CARTESIAN_POINT('',(91.21600617,-8.318185862336,-30.69323605657)
  );
#660 = CARTESIAN_POINT('',(91.182668637139,-8.212728381741,
    -30.72160714224));
#661 = CARTESIAN_POINT('',(91.139429816509,-8.112356423314,
    -30.74818432848));
#662 = CARTESIAN_POINT('',(91.087427106717,-8.018348114121,
    -30.7727174077));
#663 = CARTESIAN_POINT('',(91.028093494473,-7.931733422243,
    -30.79503482122));
#664 = CARTESIAN_POINT('',(90.868928237098,-7.739335676677,
    -30.84406742448));
#665 = CARTESIAN_POINT('',(90.762274411159,-7.64174698135,
    -30.86842564413));
#666 = CARTESIAN_POINT('',(90.646206001933,-7.560684048561,
    -30.88831861522));
#667 = CARTESIAN_POINT('',(90.523184905263,-7.496128424031,
    -30.90396111536));
#668 = CARTESIAN_POINT('',(90.395300450266,-7.447943590851,
    -30.91553929287));
#669 = CARTESIAN_POINT('',(90.264385745242,-7.415953858845,
    -30.92319350342));
#670 = CARTESIAN_POINT('',(90.132097760149,-7.4,-30.92701084812));
#671 = CARTESIAN_POINT('',(89.867930221147,-7.4,-30.92701084812));
#672 = CARTESIAN_POINT('',(89.735647471444,-7.415947080367,
    -30.92319512263));
#673 = CARTESIAN_POINT('',(89.604724072737,-7.447932899382,
    -30.91554185511));
#674 = CARTESIAN_POINT('',(89.47682562396,-7.496119677259,
    -30.90396324797));
#675 = CARTESIAN_POINT('',(89.353792251501,-7.560681820883,
    -30.8883192077));
#676 = CARTESIAN_POINT('',(89.237717666983,-7.641752121002,
    -30.86842440838));
#677 = CARTESIAN_POINT('',(89.131065009153,-7.739343840558,
    -30.84406534391));
#678 = CARTESIAN_POINT('',(88.949240684717,-7.959131693054,
    -30.78805236652));
#679 = CARTESIAN_POINT('',(88.871227239911,-8.080533881185,
    -30.75666979139));
#680 = CARTESIAN_POINT('',(88.807740974227,-8.215491880782,
    -30.72116193345));
#681 = CARTESIAN_POINT('',(88.762442893365,-8.360801118959,
    -30.68211153649));
#682 = CARTESIAN_POINT('',(88.737679661316,-8.512432107516,
    -30.64038922738));
#683 = CARTESIAN_POINT('',(88.734434847574,-8.665922299433,
    -30.59713342125));
#684 = CARTESIAN_POINT('',(88.752273676505,-8.816767108381,
    -30.55367690011));
#685 = CARTESIAN_POINT('',(88.847041170951,-9.185862130254,
    -30.44527760415));
#686 = CARTESIAN_POINT('',(88.949595166513,-9.386900322343,
    -30.38417495707));
#687 = CARTESIAN_POINT('',(89.086096600418,-9.557816034972,
    -30.33060947326));
#688 = CARTESIAN_POINT('',(89.247758342724,-9.695612240031,
    -30.28642588031));
#689 = CARTESIAN_POINT('',(89.426732518841,-9.798693809131,
    -30.2528832721));
#690 = CARTESIAN_POINT('',(89.615978628052,-9.866663432931,
    -30.2306167152));
#691 = CARTESIAN_POINT('',(89.809050196179,-9.9,-30.21969556431));
#692 = CARTESIAN_POINT('',(90.100965399065,-9.9,-30.21969556431));
#693 = CARTESIAN_POINT('',(90.201961522081,-9.890679667091,
    -30.22274893651));
#694 = CARTESIAN_POINT('',(90.302272567239,-9.872029402477,
    -30.22885872251));
#695 = CARTESIAN_POINT('',(90.401168610112,-9.844020004431,
    -30.23801683444));
#696 = CARTESIAN_POINT('',(90.497882311712,-9.806612068227,
    -30.25020035757));
#697 = CARTESIAN_POINT('',(90.59158306181,-9.75976704423,-30.26536771346
    ));
#698 = CARTESIAN_POINT('',(90.681348557506,-9.70345995415,
    -30.28345468358));
#699 = CARTESIAN_POINT('',(90.869372143642,-9.55761391079,
    -30.32983807611));
#700 = CARTESIAN_POINT('',(90.966665518348,-9.462392901782,
    -30.35985487726));
#701 = CARTESIAN_POINT('',(91.054333339049,-9.3524595997,-30.39410906601
    ));
#702 = CARTESIAN_POINT('',(91.129081836118,-9.22913240107,
    -30.43196854554));
#703 = CARTESIAN_POINT('',(91.188070054141,-9.094431772473,
    -30.47257454967));
#704 = CARTESIAN_POINT('',(91.22896679674,-8.950937924443,
    -30.51494523452));
#705 = CARTESIAN_POINT('',(91.25,-8.801674605832,-30.55806550652));
#706 = CARTESIAN_POINT('',(91.25,-8.65,-30.60093952806));
#707 = PCURVE('',#243,#708);
#708 = DEFINITIONAL_REPRESENTATION('',(#709),#761);
#709 = B_SPLINE_CURVE_WITH_KNOTS('',8,(#710,#711,#712,#713,#714,#715,
    #716,#717,#718,#719,#720,#721,#722,#723,#724,#725,#726,#727,#728,
    #729,#730,#731,#732,#733,#734,#735,#736,#737,#738,#739,#740,#741,
    #742,#743,#744,#745,#746,#747,#748,#749,#750,#751,#752,#753,#754,
    #755,#756,#757,#758,#759,#760),.UNSPECIFIED.,.T.,.F.,(9,7,7,7,7,7,7,
    9),(0.,0.10178022248,0.24941325935,0.397015024202,0.534293531303,
    0.748649192427,0.861990523154,1.),.UNSPECIFIED.);
#710 = CARTESIAN_POINT('',(-4.436905126194,-92.25));
#711 = CARTESIAN_POINT('',(-4.440551493016,-92.25));
#712 = CARTESIAN_POINT('',(-4.444179292975,-92.23861635925));
#713 = CARTESIAN_POINT('',(-4.447735654779,-92.21600617));
#714 = CARTESIAN_POINT('',(-4.451169784562,-92.18266863713));
#715 = CARTESIAN_POINT('',(-4.454434866396,-92.1394298165));
#716 = CARTESIAN_POINT('',(-4.457490084833,-92.08742710671));
#717 = CARTESIAN_POINT('',(-4.460302769489,-92.02809349447));
#718 = CARTESIAN_POINT('',(-4.466546399896,-91.86892823709));
#719 = CARTESIAN_POINT('',(-4.469709338793,-91.76227441115));
#720 = CARTESIAN_POINT('',(-4.47233409632,-91.64620600193));
#721 = CARTESIAN_POINT('',(-4.474422885246,-91.52318490526));
#722 = CARTESIAN_POINT('',(-4.475981260765,-91.39530045026));
#723 = CARTESIAN_POINT('',(-4.477015622301,-91.26438574524));
#724 = CARTESIAN_POINT('',(-4.477531477649,-91.13209776014));
#725 = CARTESIAN_POINT('',(-4.477531477649,-90.86793022114));
#726 = CARTESIAN_POINT('',(-4.477015841451,-90.73564747144));
#727 = CARTESIAN_POINT('',(-4.475981606504,-90.60472407273));
#728 = CARTESIAN_POINT('',(-4.474423168355,-90.47682562396));
#729 = CARTESIAN_POINT('',(-4.472334168783,-90.3537922515));
#730 = CARTESIAN_POINT('',(-4.46970917258,-90.23771766698));
#731 = CARTESIAN_POINT('',(-4.466546134964,-90.13106500915));
#732 = CARTESIAN_POINT('',(-4.459413649525,-89.94924068471));
#733 = CARTESIAN_POINT('',(-4.45547050319,-89.87122723991));
#734 = CARTESIAN_POINT('',(-4.451082174552,-89.80774097422));
#735 = CARTESIAN_POINT('',(-4.446350715286,-89.76244289336));
#736 = CARTESIAN_POINT('',(-4.441405412124,-89.73767966131));
#737 = CARTESIAN_POINT('',(-4.436390813386,-89.73443484757));
#738 = CARTESIAN_POINT('',(-4.431454409993,-89.7522736765));
#739 = CARTESIAN_POINT('',(-4.419357438561,-89.84704117095));
#740 = CARTESIAN_POINT('',(-4.412750223199,-89.94959516651));
#741 = CARTESIAN_POINT('',(-4.407118046775,-90.08609660041));
#742 = CARTESIAN_POINT('',(-4.402567609869,-90.24775834272));
#743 = CARTESIAN_POINT('',(-4.399158763013,-90.42673251884));
#744 = CARTESIAN_POINT('',(-4.396909582495,-90.61597862805));
#745 = CARTESIAN_POINT('',(-4.395806441676,-90.80905019617));
#746 = CARTESIAN_POINT('',(-4.395806441676,-91.10096539906));
#747 = CARTESIAN_POINT('',(-4.396114861047,-91.20196152208));
#748 = CARTESIAN_POINT('',(-4.396732016425,-91.30227256723));
#749 = CARTESIAN_POINT('',(-4.397658701284,-91.40116861011));
#750 = CARTESIAN_POINT('',(-4.398895868829,-91.49788231171));
#751 = CARTESIAN_POINT('',(-4.400444267874,-91.59158306181));
#752 = CARTESIAN_POINT('',(-4.402304031712,-91.6813485575));
#753 = CARTESIAN_POINT('',(-4.407116738326,-91.86937214364));
#754 = CARTESIAN_POINT('',(-4.410256354152,-91.96666551834));
#755 = CARTESIAN_POINT('',(-4.4138772757,-92.05433333904));
#756 = CARTESIAN_POINT('',(-4.417934036787,-92.12908183611));
#757 = CARTESIAN_POINT('',(-4.422358061973,-92.18807005414));
#758 = CARTESIAN_POINT('',(-4.42706291836,-92.22896679674));
#759 = CARTESIAN_POINT('',(-4.431948591912,-92.25));
#760 = CARTESIAN_POINT('',(-4.436905126194,-92.25));
#761 = ( GEOMETRIC_REPRESENTATION_CONTEXT(2) 
PARAMETRIC_REPRESENTATION_CONTEXT() REPRESENTATION_CONTEXT('2D SPACE',''
  ) );
#762 = PCURVE('',#763,#768);
#763 = CYLINDRICAL_SURFACE('',#764,1.25);
#764 = AXIS2_PLACEMENT_3D('',#765,#766,#767);
#765 = CARTESIAN_POINT('',(90.,-8.65,-44.));
#766 = DIRECTION('',(-0.,-0.,-1.));
#767 = DIRECTION('',(1.,0.,0.));
#768 = DEFINITIONAL_REPRESENTATION('',(#769),#821);
#769 = B_SPLINE_CURVE_WITH_KNOTS('',8,(#770,#771,#772,#773,#774,#775,
    #776,#777,#778,#779,#780,#781,#782,#783,#784,#785,#786,#787,#788,
    #789,#790,#791,#792,#793,#794,#795,#796,#797,#798,#799,#800,#801,
    #802,#803,#804,#805,#806,#807,#808,#809,#810,#811,#812,#813,#814,
    #815,#816,#817,#818,#819,#820),.UNSPECIFIED.,.F.,.F.,(9,7,7,7,7,7,7,
    9),(0.,0.10178022248,0.24941325935,0.397015024202,0.534293531303,
    0.748649192427,0.861990523154,1.),.UNSPECIFIED.);
#770 = CARTESIAN_POINT('',(0.,-13.39906047194));
#771 = CARTESIAN_POINT('',(-8.92658004964E-02,-13.36751939892));
#772 = CARTESIAN_POINT('',(-0.178181819185,-13.33660378348));
#773 = CARTESIAN_POINT('',(-0.266535866438,-13.30676394342));
#774 = CARTESIAN_POINT('',(-0.354117014843,-13.27839285776));
#775 = CARTESIAN_POINT('',(-0.440693682978,-13.25181567151));
#776 = CARTESIAN_POINT('',(-0.52598598501,-13.22728259229));
#777 = CARTESIAN_POINT('',(-0.609632346128,-13.20496517877));
#778 = CARTESIAN_POINT('',(-0.809392957508,-13.15593257551));
#779 = CARTESIAN_POINT('',(-0.923934939262,-13.13157435586));
#780 = CARTESIAN_POINT('',(-1.035608414082,-13.11168138477));
#781 = CARTESIAN_POINT('',(-1.1450335656,-13.09603888463));
#782 = CARTESIAN_POINT('',(-1.252756769954,-13.08446070712));
#783 = CARTESIAN_POINT('',(-1.359288011201,-13.07680649657));
#784 = CARTESIAN_POINT('',(-1.465118118676,-13.07298915187));
#785 = CARTESIAN_POINT('',(-1.676452149878,-13.07298915187));
#786 = CARTESIAN_POINT('',(-1.782278029678,-13.07680487736));
#787 = CARTESIAN_POINT('',(-1.888815156538,-13.08445814488));
#788 = CARTESIAN_POINT('',(-1.996548698181,-13.09603675202));
#789 = CARTESIAN_POINT('',(-2.105984269176,-13.11168079229));
#790 = CARTESIAN_POINT('',(-2.21766493278,-13.13157559161));
#791 = CARTESIAN_POINT('',(-2.332208172386,-13.15593465608));
#792 = CARTESIAN_POINT('',(-2.560407082198,-13.21194763347));
#793 = CARTESIAN_POINT('',(-2.675023117136,-13.2433302086));
#794 = CARTESIAN_POINT('',(-2.79261147385,-13.27883806654));
#795 = CARTESIAN_POINT('',(-2.912083382773,-13.3178884635));
#796 = CARTESIAN_POINT('',(-3.032612643659,-13.35961077261));
#797 = CARTESIAN_POINT('',(-3.153471395702,-13.40286657874));
#798 = CARTESIAN_POINT('',(-3.273904781401,-13.44632309988));
#799 = CARTESIAN_POINT('',(-3.578758333836,-13.55472239584));
#800 = CARTESIAN_POINT('',(-3.754940813139,-13.61582504292));
#801 = CARTESIAN_POINT('',(-3.924305292651,-13.66939052673));
#802 = CARTESIAN_POINT('',(-4.088349688701,-13.71357411968));
#803 = CARTESIAN_POINT('',(-4.248348009742,-13.74711672789));
#804 = CARTESIAN_POINT('',(-4.405170755021,-13.76938328479));
#805 = CARTESIAN_POINT('',(-4.559629137328,-13.78030443568));
#806 = CARTESIAN_POINT('',(-4.793161299636,-13.78030443568));
#807 = CARTESIAN_POINT('',(-4.873958595445,-13.77725106348));
#808 = CARTESIAN_POINT('',(-4.955009465638,-13.77114127748));
#809 = CARTESIAN_POINT('',(-5.036537816191,-13.76198316555));
#810 = CARTESIAN_POINT('',(-5.118767072788,-13.74979964242));
#811 = CARTESIAN_POINT('',(-5.201929666077,-13.73463228653));
#812 = CARTESIAN_POINT('',(-5.286281790638,-13.71654531641));
#813 = CARTESIAN_POINT('',(-5.47664806884,-13.67016192388));
#814 = CARTESIAN_POINT('',(-5.584838794785,-13.64014512273));
#815 = CARTESIAN_POINT('',(-5.695899147204,-13.60589093398));
#816 = CARTESIAN_POINT('',(-5.809353183024,-13.56803145445));
#817 = CARTESIAN_POINT('',(-5.924917751029,-13.52742545032));
#818 = CARTESIAN_POINT('',(-6.042434929338,-13.48505476547));
#819 = CARTESIAN_POINT('',(-6.161845622514,-13.44193449347));
#820 = CARTESIAN_POINT('',(-6.28318530718,-13.39906047194));
#821 = ( GEOMETRIC_REPRESENTATION_CONTEXT(2) 
PARAMETRIC_REPRESENTATION_CONTEXT() REPRESENTATION_CONTEXT('2D SPACE',''
  ) );
#822 = FACE_BOUND('',#823,.T.);
#823 = EDGE_LOOP('',(#824));
#824 = ORIENTED_EDGE('',*,*,#825,.F.);
#825 = EDGE_CURVE('',#826,#826,#828,.T.);
#826 = VERTEX_POINT('',#827);
#827 = CARTESIAN_POINT('',(67.25,-8.65,-30.60093952806));
#828 = SURFACE_CURVE('',#829,(#881,#936),.PCURVE_S1.);
#829 = B_SPLINE_CURVE_WITH_KNOTS('',8,(#830,#831,#832,#833,#834,#835,
    #836,#837,#838,#839,#840,#841,#842,#843,#844,#845,#846,#847,#848,
    #849,#850,#851,#852,#853,#854,#855,#856,#857,#858,#859,#860,#861,
    #862,#863,#864,#865,#866,#867,#868,#869,#870,#871,#872,#873,#874,
    #875,#876,#877,#878,#879,#880),.UNSPECIFIED.,.T.,.F.,(9,7,7,7,7,7,7,
    9),(0.,0.101780217322,0.249413246711,0.397015009304,0.534293519797,
    0.748649186217,0.861990519744,1.),.UNSPECIFIED.);
#830 = CARTESIAN_POINT('',(67.25,-8.65,-30.60093952806));
#831 = CARTESIAN_POINT('',(67.25,-8.53841774938,-30.63248060107));
#832 = CARTESIAN_POINT('',(67.238616359253,-8.427272265688,
    -30.66339621651));
#833 = CARTESIAN_POINT('',(67.21600617,-8.318185862336,-30.69323605657)
  );
#834 = CARTESIAN_POINT('',(67.182668637139,-8.212728381741,
    -30.72160714224));
#835 = CARTESIAN_POINT('',(67.139429816509,-8.112356423314,
    -30.74818432848));
#836 = CARTESIAN_POINT('',(67.087427106717,-8.018348114122,
    -30.7727174077));
#837 = CARTESIAN_POINT('',(67.028093494473,-7.931733422243,
    -30.79503482122));
#838 = CARTESIAN_POINT('',(66.868928237098,-7.739335676677,
    -30.84406742448));
#839 = CARTESIAN_POINT('',(66.762274411159,-7.64174698135,
    -30.86842564413));
#840 = CARTESIAN_POINT('',(66.646206001933,-7.560684048561,
    -30.88831861522));
#841 = CARTESIAN_POINT('',(66.523184905263,-7.496128424031,
    -30.90396111536));
#842 = CARTESIAN_POINT('',(66.395300450266,-7.447943590851,
    -30.91553929287));
#843 = CARTESIAN_POINT('',(66.264385745242,-7.415953858845,
    -30.92319350342));
#844 = CARTESIAN_POINT('',(66.132097760149,-7.4,-30.92701084812));
#845 = CARTESIAN_POINT('',(65.867930216475,-7.4,-30.92701084812));
#846 = CARTESIAN_POINT('',(65.735647480357,-7.415947081522,
    -30.92319512232));
#847 = CARTESIAN_POINT('',(65.604724070784,-7.447932895257,
    -30.91554185617));
#848 = CARTESIAN_POINT('',(65.47682561712,-7.496119680758,
    -30.90396324709));
#849 = CARTESIAN_POINT('',(65.353792253416,-7.560681824949,
    -30.88831920666));
#850 = CARTESIAN_POINT('',(65.237717672683,-7.641752112282,
    -30.8684244106));
#851 = CARTESIAN_POINT('',(65.131065005383,-7.739343845114,
    -30.84406534275));
#852 = CARTESIAN_POINT('',(64.949240684717,-7.959131693054,
    -30.78805236652));
#853 = CARTESIAN_POINT('',(64.871227239911,-8.080533881186,
    -30.75666979139));
#854 = CARTESIAN_POINT('',(64.807740974227,-8.215491880782,
    -30.72116193345));
#855 = CARTESIAN_POINT('',(64.762442893365,-8.360801118959,
    -30.68211153649));
#856 = CARTESIAN_POINT('',(64.737679661316,-8.512432107516,
    -30.64038922738));
#857 = CARTESIAN_POINT('',(64.734434847574,-8.665922299433,
    -30.59713342125));
#858 = CARTESIAN_POINT('',(64.752273676505,-8.816767108381,
    -30.55367690011));
#859 = CARTESIAN_POINT('',(64.847041170951,-9.185862130254,
    -30.44527760415));
#860 = CARTESIAN_POINT('',(64.949595166513,-9.386900322343,
    -30.38417495707));
#861 = CARTESIAN_POINT('',(65.086096600418,-9.557816034972,
    -30.33060947326));
#862 = CARTESIAN_POINT('',(65.247758342724,-9.695612240031,
    -30.28642588031));
#863 = CARTESIAN_POINT('',(65.426732518841,-9.798693809131,
    -30.2528832721));
#864 = CARTESIAN_POINT('',(65.615978628052,-9.866663432931,
    -30.2306167152));
#865 = CARTESIAN_POINT('',(65.809050196179,-9.9,-30.21969556431));
#866 = CARTESIAN_POINT('',(66.100965399065,-9.9,-30.21969556431));
#867 = CARTESIAN_POINT('',(66.201961522081,-9.890679667091,
    -30.22274893651));
#868 = CARTESIAN_POINT('',(66.302272567239,-9.872029402477,
    -30.22885872251));
#869 = CARTESIAN_POINT('',(66.401168610112,-9.844020004431,
    -30.23801683444));
#870 = CARTESIAN_POINT('',(66.497882311712,-9.806612068227,
    -30.25020035757));
#871 = CARTESIAN_POINT('',(66.59158306181,-9.75976704423,-30.26536771346
    ));
#872 = CARTESIAN_POINT('',(66.681348557506,-9.70345995415,
    -30.28345468358));
#873 = CARTESIAN_POINT('',(66.869372143642,-9.55761391079,
    -30.32983807611));
#874 = CARTESIAN_POINT('',(66.966665518348,-9.462392901782,
    -30.35985487726));
#875 = CARTESIAN_POINT('',(67.054333339049,-9.3524595997,-30.39410906601
    ));
#876 = CARTESIAN_POINT('',(67.129081836118,-9.22913240107,
    -30.43196854554));
#877 = CARTESIAN_POINT('',(67.188070054141,-9.094431772473,
    -30.47257454967));
#878 = CARTESIAN_POINT('',(67.22896679674,-8.950937924443,
    -30.51494523452));
#879 = CARTESIAN_POINT('',(67.25,-8.801674605832,-30.55806550652));
#880 = CARTESIAN_POINT('',(67.25,-8.65,-30.60093952806));
#881 = PCURVE('',#243,#882);
#882 = DEFINITIONAL_REPRESENTATION('',(#883),#935);
#883 = B_SPLINE_CURVE_WITH_KNOTS('',8,(#884,#885,#886,#887,#888,#889,
    #890,#891,#892,#893,#894,#895,#896,#897,#898,#899,#900,#901,#902,
    #903,#904,#905,#906,#907,#908,#909,#910,#911,#912,#913,#914,#915,
    #916,#917,#918,#919,#920,#921,#922,#923,#924,#925,#926,#927,#928,
    #929,#930,#931,#932,#933,#934),.UNSPECIFIED.,.T.,.F.,(9,7,7,7,7,7,7,
    9),(0.,0.101780217322,0.249413246711,0.397015009304,0.534293519797,
    0.748649186217,0.861990519744,1.),.UNSPECIFIED.);
#884 = CARTESIAN_POINT('',(-4.436905126194,-68.25));
#885 = CARTESIAN_POINT('',(-4.440551493016,-68.25));
#886 = CARTESIAN_POINT('',(-4.444179292975,-68.23861635925));
#887 = CARTESIAN_POINT('',(-4.447735654779,-68.21600617));
#888 = CARTESIAN_POINT('',(-4.451169784562,-68.18266863713));
#889 = CARTESIAN_POINT('',(-4.454434866396,-68.1394298165));
#890 = CARTESIAN_POINT('',(-4.457490084833,-68.08742710671));
#891 = CARTESIAN_POINT('',(-4.460302769489,-68.02809349447));
#892 = CARTESIAN_POINT('',(-4.466546399896,-67.86892823709));
#893 = CARTESIAN_POINT('',(-4.469709338793,-67.76227441115));
#894 = CARTESIAN_POINT('',(-4.47233409632,-67.64620600193));
#895 = CARTESIAN_POINT('',(-4.474422885246,-67.52318490526));
#896 = CARTESIAN_POINT('',(-4.475981260765,-67.39530045026));
#897 = CARTESIAN_POINT('',(-4.477015622301,-67.26438574524));
#898 = CARTESIAN_POINT('',(-4.477531477649,-67.13209776014));
#899 = CARTESIAN_POINT('',(-4.477531477649,-66.86793021647));
#900 = CARTESIAN_POINT('',(-4.477015841413,-66.73564748035));
#901 = CARTESIAN_POINT('',(-4.475981606638,-66.60472407078));
#902 = CARTESIAN_POINT('',(-4.474423168241,-66.47682561712));
#903 = CARTESIAN_POINT('',(-4.472334168651,-66.35379225341));
#904 = CARTESIAN_POINT('',(-4.469709172863,-66.23771767268));
#905 = CARTESIAN_POINT('',(-4.466546134816,-66.13106500538));
#906 = CARTESIAN_POINT('',(-4.459413649525,-65.94924068471));
#907 = CARTESIAN_POINT('',(-4.45547050319,-65.87122723991));
#908 = CARTESIAN_POINT('',(-4.451082174552,-65.80774097422));
#909 = CARTESIAN_POINT('',(-4.446350715286,-65.76244289336));
#910 = CARTESIAN_POINT('',(-4.441405412124,-65.73767966131));
#911 = CARTESIAN_POINT('',(-4.436390813386,-65.73443484757));
#912 = CARTESIAN_POINT('',(-4.431454409993,-65.7522736765));
#913 = CARTESIAN_POINT('',(-4.419357438561,-65.84704117095));
#914 = CARTESIAN_POINT('',(-4.412750223199,-65.94959516651));
#915 = CARTESIAN_POINT('',(-4.407118046775,-66.08609660041));
#916 = CARTESIAN_POINT('',(-4.402567609869,-66.24775834272));
#917 = CARTESIAN_POINT('',(-4.399158763013,-66.42673251884));
#918 = CARTESIAN_POINT('',(-4.396909582495,-66.61597862805));
#919 = CARTESIAN_POINT('',(-4.395806441676,-66.80905019617));
#920 = CARTESIAN_POINT('',(-4.395806441676,-67.10096539906));
#921 = CARTESIAN_POINT('',(-4.396114861047,-67.20196152208));
#922 = CARTESIAN_POINT('',(-4.396732016425,-67.30227256723));
#923 = CARTESIAN_POINT('',(-4.397658701284,-67.40116861011));
#924 = CARTESIAN_POINT('',(-4.398895868829,-67.49788231171));
#925 = CARTESIAN_POINT('',(-4.400444267874,-67.59158306181));
#926 = CARTESIAN_POINT('',(-4.402304031712,-67.6813485575));
#927 = CARTESIAN_POINT('',(-4.407116738326,-67.86937214364));
#928 = CARTESIAN_POINT('',(-4.410256354152,-67.96666551834));
#929 = CARTESIAN_POINT('',(-4.4138772757,-68.05433333904));
#930 = CARTESIAN_POINT('',(-4.417934036787,-68.12908183611));
#931 = CARTESIAN_POINT('',(-4.422358061973,-68.18807005414));
#932 = CARTESIAN_POINT('',(-4.42706291836,-68.22896679674));
#933 = CARTESIAN_POINT('',(-4.431948591912,-68.25));
#934 = CARTESIAN_POINT('',(-4.436905126194,-68.25));
#935 = ( GEOMETRIC_REPRESENTATION_CONTEXT(2) 
PARAMETRIC_REPRESENTATION_CONTEXT() REPRESENTATION_CONTEXT('2D SPACE',''
  ) );
#936 = PCURVE('',#937,#942);
#937 = CYLINDRICAL_SURFACE('',#938,1.25);
#938 = AXIS2_PLACEMENT_3D('',#939,#940,#941);
#939 = CARTESIAN_POINT('',(66.,-8.65,-44.));
#940 = DIRECTION('',(-0.,-0.,-1.));
#941 = DIRECTION('',(1.,0.,0.));
#942 = DEFINITIONAL_REPRESENTATION('',(#943),#995);
#943 = B_SPLINE_CURVE_WITH_KNOTS('',8,(#944,#945,#946,#947,#948,#949,
    #950,#951,#952,#953,#954,#955,#956,#957,#958,#959,#960,#961,#962,
    #963,#964,#965,#966,#967,#968,#969,#970,#971,#972,#973,#974,#975,
    #976,#977,#978,#979,#980,#981,#982,#983,#984,#985,#986,#987,#988,
    #989,#990,#991,#992,#993,#994),.UNSPECIFIED.,.F.,.F.,(9,7,7,7,7,7,7,
    9),(0.,0.101780217322,0.249413246711,0.397015009304,0.534293519797,
    0.748649186217,0.861990519744,1.),.UNSPECIFIED.);
#944 = CARTESIAN_POINT('',(0.,-13.39906047194));
#945 = CARTESIAN_POINT('',(-8.926580049632E-02,-13.36751939892));
#946 = CARTESIAN_POINT('',(-0.178181819185,-13.33660378348));
#947 = CARTESIAN_POINT('',(-0.266535866438,-13.30676394342));
#948 = CARTESIAN_POINT('',(-0.354117014843,-13.27839285776));
#949 = CARTESIAN_POINT('',(-0.440693682977,-13.25181567151));
#950 = CARTESIAN_POINT('',(-0.52598598501,-13.22728259229));
#951 = CARTESIAN_POINT('',(-0.609632346128,-13.20496517877));
#952 = CARTESIAN_POINT('',(-0.809392957508,-13.15593257551));
#953 = CARTESIAN_POINT('',(-0.923934939262,-13.13157435586));
#954 = CARTESIAN_POINT('',(-1.035608414082,-13.11168138477));
#955 = CARTESIAN_POINT('',(-1.1450335656,-13.09603888463));
#956 = CARTESIAN_POINT('',(-1.252756769954,-13.08446070712));
#957 = CARTESIAN_POINT('',(-1.359288011201,-13.07680649657));
#958 = CARTESIAN_POINT('',(-1.465118118676,-13.07298915187));
#959 = CARTESIAN_POINT('',(-1.676452153615,-13.07298915187));
#960 = CARTESIAN_POINT('',(-1.782278023154,-13.07680487767));
#961 = CARTESIAN_POINT('',(-1.888815156427,-13.08445814382));
#962 = CARTESIAN_POINT('',(-1.996548704825,-13.0960367529));
#963 = CARTESIAN_POINT('',(-2.105984269238,-13.11168079333));
#964 = CARTESIAN_POINT('',(-2.217664925017,-13.13157558939));
#965 = CARTESIAN_POINT('',(-2.332208177117,-13.15593465724));
#966 = CARTESIAN_POINT('',(-2.560407082198,-13.21194763347));
#967 = CARTESIAN_POINT('',(-2.675023117136,-13.2433302086));
#968 = CARTESIAN_POINT('',(-2.79261147385,-13.27883806654));
#969 = CARTESIAN_POINT('',(-2.912083382773,-13.3178884635));
#970 = CARTESIAN_POINT('',(-3.032612643659,-13.35961077261));
#971 = CARTESIAN_POINT('',(-3.153471395702,-13.40286657874));
#972 = CARTESIAN_POINT('',(-3.273904781401,-13.44632309988));
#973 = CARTESIAN_POINT('',(-3.578758333836,-13.55472239584));
#974 = CARTESIAN_POINT('',(-3.754940813139,-13.61582504292));
#975 = CARTESIAN_POINT('',(-3.924305292651,-13.66939052673));
#976 = CARTESIAN_POINT('',(-4.088349688701,-13.71357411968));
#977 = CARTESIAN_POINT('',(-4.248348009742,-13.74711672789));
#978 = CARTESIAN_POINT('',(-4.405170755021,-13.76938328479));
#979 = CARTESIAN_POINT('',(-4.559629137328,-13.78030443568));
#980 = CARTESIAN_POINT('',(-4.793161299636,-13.78030443568));
#981 = CARTESIAN_POINT('',(-4.873958595445,-13.77725106348));
#982 = CARTESIAN_POINT('',(-4.955009465638,-13.77114127748));
#983 = CARTESIAN_POINT('',(-5.036537816191,-13.76198316555));
#984 = CARTESIAN_POINT('',(-5.118767072788,-13.74979964242));
#985 = CARTESIAN_POINT('',(-5.201929666077,-13.73463228653));
#986 = CARTESIAN_POINT('',(-5.286281790638,-13.71654531641));
#987 = CARTESIAN_POINT('',(-5.47664806884,-13.67016192388));
#988 = CARTESIAN_POINT('',(-5.584838794785,-13.64014512273));
#989 = CARTESIAN_POINT('',(-5.695899147204,-13.60589093398));
#990 = CARTESIAN_POINT('',(-5.809353183024,-13.56803145445));
#991 = CARTESIAN_POINT('',(-5.924917751029,-13.52742545032));
#992 = CARTESIAN_POINT('',(-6.042434929338,-13.48505476547));
#993 = CARTESIAN_POINT('',(-6.161845622514,-13.44193449347));
#994 = CARTESIAN_POINT('',(-6.28318530718,-13.39906047194));
#995 = ( GEOMETRIC_REPRESENTATION_CONTEXT(2) 
PARAMETRIC_REPRESENTATION_CONTEXT() REPRESENTATION_CONTEXT('2D SPACE',''
  ) );
#996 = ADVANCED_FACE('',(#997),#276,.T.);
#997 = FACE_BOUND('',#998,.T.);
#998 = EDGE_LOOP('',(#999,#1000,#1001,#1002,#1003,#1004,#1005,#1006));
#999 = ORIENTED_EDGE('',*,*,#258,.F.);
#1000 = ORIENTED_EDGE('',*,*,#333,.F.);
#1001 = ORIENTED_EDGE('',*,*,#406,.T.);
#1002 = ORIENTED_EDGE('',*,*,#454,.F.);
#1003 = ORIENTED_EDGE('',*,*,#479,.F.);
#1004 = ORIENTED_EDGE('',*,*,#548,.F.);
#1005 = ORIENTED_EDGE('',*,*,#573,.T.);
#1006 = ORIENTED_EDGE('',*,*,#623,.T.);
#1007 = ADVANCED_FACE('',(#1008),#763,.F.);
#1008 = FACE_BOUND('',#1009,.T.);
#1009 = EDGE_LOOP('',(#1010,#1039,#1060,#1061));
#1010 = ORIENTED_EDGE('',*,*,#1011,.F.);
#1011 = EDGE_CURVE('',#1012,#1012,#1014,.T.);
#1012 = VERTEX_POINT('',#1013);
#1013 = CARTESIAN_POINT('',(91.25,-8.65,-44.));
#1014 = SURFACE_CURVE('',#1015,(#1020,#1027),.PCURVE_S1.);
#1015 = CIRCLE('',#1016,1.25);
#1016 = AXIS2_PLACEMENT_3D('',#1017,#1018,#1019);
#1017 = CARTESIAN_POINT('',(90.,-8.65,-44.));
#1018 = DIRECTION('',(0.,0.,1.));
#1019 = DIRECTION('',(1.,0.,0.));
#1020 = PCURVE('',#763,#1021);
#1021 = DEFINITIONAL_REPRESENTATION('',(#1022),#1026);
#1022 = LINE('',#1023,#1024);
#1023 = CARTESIAN_POINT('',(-0.,0.));
#1024 = VECTOR('',#1025,1.);
#1025 = DIRECTION('',(-1.,0.));
#1026 = ( GEOMETRIC_REPRESENTATION_CONTEXT(2) 
PARAMETRIC_REPRESENTATION_CONTEXT() REPRESENTATION_CONTEXT('2D SPACE',''
  ) );
#1027 = PCURVE('',#1028,#1033);
#1028 = PLANE('',#1029);
#1029 = AXIS2_PLACEMENT_3D('',#1030,#1031,#1032);
#1030 = CARTESIAN_POINT('',(90.,-8.65,-44.));
#1031 = DIRECTION('',(0.,0.,1.));
#1032 = DIRECTION('',(1.,0.,-0.));
#1033 = DEFINITIONAL_REPRESENTATION('',(#1034),#1038);
#1034 = CIRCLE('',#1035,1.25);
#1035 = AXIS2_PLACEMENT_2D('',#1036,#1037);
#1036 = CARTESIAN_POINT('',(1.42108547152E-14,-1.7763568394E-15));
#1037 = DIRECTION('',(1.,0.));
#1038 = ( GEOMETRIC_REPRESENTATION_CONTEXT(2) 
PARAMETRIC_REPRESENTATION_CONTEXT() REPRESENTATION_CONTEXT('2D SPACE',''
  ) );
#1039 = ORIENTED_EDGE('',*,*,#1040,.T.);
#1040 = EDGE_CURVE('',#1012,#652,#1041,.T.);
#1041 = SEAM_CURVE('',#1042,(#1046,#1053),.PCURVE_S1.);
#1042 = LINE('',#1043,#1044);
#1043 = CARTESIAN_POINT('',(91.25,-8.65,-44.));
#1044 = VECTOR('',#1045,1.);
#1045 = DIRECTION('',(0.,0.,1.));
#1046 = PCURVE('',#763,#1047);
#1047 = DEFINITIONAL_REPRESENTATION('',(#1048),#1052);
#1048 = LINE('',#1049,#1050);
#1049 = CARTESIAN_POINT('',(-6.28318530718,0.));
#1050 = VECTOR('',#1051,1.);
#1051 = DIRECTION('',(-0.,-1.));
#1052 = ( GEOMETRIC_REPRESENTATION_CONTEXT(2) 
PARAMETRIC_REPRESENTATION_CONTEXT() REPRESENTATION_CONTEXT('2D SPACE',''
  ) );
#1053 = PCURVE('',#763,#1054);
#1054 = DEFINITIONAL_REPRESENTATION('',(#1055),#1059);
#1055 = LINE('',#1056,#1057);
#1056 = CARTESIAN_POINT('',(-0.,0.));
#1057 = VECTOR('',#1058,1.);
#1058 = DIRECTION('',(-0.,-1.));
#1059 = ( GEOMETRIC_REPRESENTATION_CONTEXT(2) 
PARAMETRIC_REPRESENTATION_CONTEXT() REPRESENTATION_CONTEXT('2D SPACE',''
  ) );
#1060 = ORIENTED_EDGE('',*,*,#651,.T.);
#1061 = ORIENTED_EDGE('',*,*,#1040,.F.);
#1062 = ADVANCED_FACE('',(#1063),#937,.F.);
#1063 = FACE_BOUND('',#1064,.T.);
#1064 = EDGE_LOOP('',(#1065,#1094,#1115,#1116));
#1065 = ORIENTED_EDGE('',*,*,#1066,.F.);
#1066 = EDGE_CURVE('',#1067,#1067,#1069,.T.);
#1067 = VERTEX_POINT('',#1068);
#1068 = CARTESIAN_POINT('',(67.25,-8.65,-44.));
#1069 = SURFACE_CURVE('',#1070,(#1075,#1082),.PCURVE_S1.);
#1070 = CIRCLE('',#1071,1.25);
#1071 = AXIS2_PLACEMENT_3D('',#1072,#1073,#1074);
#1072 = CARTESIAN_POINT('',(66.,-8.65,-44.));
#1073 = DIRECTION('',(0.,0.,1.));
#1074 = DIRECTION('',(1.,0.,0.));
#1075 = PCURVE('',#937,#1076);
#1076 = DEFINITIONAL_REPRESENTATION('',(#1077),#1081);
#1077 = LINE('',#1078,#1079);
#1078 = CARTESIAN_POINT('',(-0.,0.));
#1079 = VECTOR('',#1080,1.);
#1080 = DIRECTION('',(-1.,0.));
#1081 = ( GEOMETRIC_REPRESENTATION_CONTEXT(2) 
PARAMETRIC_REPRESENTATION_CONTEXT() REPRESENTATION_CONTEXT('2D SPACE',''
  ) );
#1082 = PCURVE('',#1083,#1088);
#1083 = PLANE('',#1084);
#1084 = AXIS2_PLACEMENT_3D('',#1085,#1086,#1087);
#1085 = CARTESIAN_POINT('',(66.,-8.65,-44.));
#1086 = DIRECTION('',(0.,0.,1.));
#1087 = DIRECTION('',(1.,0.,-0.));
#1088 = DEFINITIONAL_REPRESENTATION('',(#1089),#1093);
#1089 = CIRCLE('',#1090,1.25);
#1090 = AXIS2_PLACEMENT_2D('',#1091,#1092);
#1091 = CARTESIAN_POINT('',(1.42108547152E-14,-1.7763568394E-15));
#1092 = DIRECTION('',(1.,0.));
#1093 = ( GEOMETRIC_REPRESENTATION_CONTEXT(2) 
PARAMETRIC_REPRESENTATION_CONTEXT() REPRESENTATION_CONTEXT('2D SPACE',''
  ) );
#1094 = ORIENTED_EDGE('',*,*,#1095,.T.);
#1095 = EDGE_CURVE('',#1067,#826,#1096,.T.);
#1096 = SEAM_CURVE('',#1097,(#1101,#1108),.PCURVE_S1.);
#1097 = LINE('',#1098,#1099);
#1098 = CARTESIAN_POINT('',(67.25,-8.65,-44.));
#1099 = VECTOR('',#1100,1.);
#1100 = DIRECTION('',(0.,0.,1.));
#1101 = PCURVE('',#937,#1102);
#1102 = DEFINITIONAL_REPRESENTATION('',(#1103),#1107);
#1103 = LINE('',#1104,#1105);
#1104 = CARTESIAN_POINT('',(-6.28318530718,0.));
#1105 = VECTOR('',#1106,1.);
#1106 = DIRECTION('',(-0.,-1.));
#1107 = ( GEOMETRIC_REPRESENTATION_CONTEXT(2) 
PARAMETRIC_REPRESENTATION_CONTEXT() REPRESENTATION_CONTEXT('2D SPACE',''
  ) );
#1108 = PCURVE('',#937,#1109);
#1109 = DEFINITIONAL_REPRESENTATION('',(#1110),#1114);
#1110 = LINE('',#1111,#1112);
#1111 = CARTESIAN_POINT('',(-0.,0.));
#1112 = VECTOR('',#1113,1.);
#1113 = DIRECTION('',(-0.,-1.));
#1114 = ( GEOMETRIC_REPRESENTATION_CONTEXT(2) 
PARAMETRIC_REPRESENTATION_CONTEXT() REPRESENTATION_CONTEXT('2D SPACE',''
  ) );
#1115 = ORIENTED_EDGE('',*,*,#825,.T.);
#1116 = ORIENTED_EDGE('',*,*,#1095,.F.);
#1117 = ADVANCED_FACE('',(#1118),#1028,.T.);
#1118 = FACE_BOUND('',#1119,.T.);
#1119 = EDGE_LOOP('',(#1120));
#1120 = ORIENTED_EDGE('',*,*,#1011,.T.);
#1121 = ADVANCED_FACE('',(#1122),#1083,.T.);
#1122 = FACE_BOUND('',#1123,.T.);
#1123 = EDGE_LOOP('',(#1124));
#1124 = ORIENTED_EDGE('',*,*,#1066,.T.);
#1125 = ( GEOMETRIC_REPRESENTATION_CONTEXT(3) 
GLOBAL_UNCERTAINTY_ASSIGNED_CONTEXT((#1129)) 
GLOBAL_UNIT_ASSIGNED_CONTEXT((#1126,#1127,#1128)) REPRESENTATION_CONTEXT
('Context #1','3D Context with UNIT and UNCERTAINTY') );
#1126 = ( LENGTH_UNIT() NAMED_UNIT(*) SI_UNIT(.MILLI.,.METRE.) );
#1127 = ( NAMED_UNIT(*) PLANE_ANGLE_UNIT() SI_UNIT($,.RADIAN.) );
#1128 = ( NAMED_UNIT(*) SI_UNIT($,.STERADIAN.) SOLID_ANGLE_UNIT() );
#1129 = UNCERTAINTY_MEASURE_WITH_UNIT(LENGTH_MEASURE(1.E-07),#1126,
  'distance_accuracy_value','confusion accuracy');
#1130 = PRODUCT_RELATED_PRODUCT_CATEGORY('part',$,(#7));
ENDSEC;
END-ISO-10303-21;
